G04 ================== begin FILE IDENTIFICATION RECORD ==================*
G04 Layout Name:  E:/material/glass/pcb/ssd1963test/pcb/test.brd*
G04 Film Name:    BOTTOM*
G04 File Format:  Gerber RS274X*
G04 File Origin:  Cadence Allegro 16.6-S049*
G04 Origin Date:  Tue Sep 15 14:37:04 2015*
G04 *
G04 Layer:  ETCH/BOTTOM*
G04 Layer:  PIN/BOTTOM*
G04 Layer:  VIA CLASS/BOTTOM*
G04 *
G04 Offset:    (0.0 0.0)*
G04 Mirror:    No*
G04 Mode:      Positive*
G04 Rotation:  0*
G04 FullContactRelief:  No*
G04 UndefLineWidth:     0.0*
G04 ================== end FILE IDENTIFICATION RECORD ====================*
%FSLAX25Y25*MOIN*%
%IR0*IPPOS*OFA0.00000B0.00000*MIA0B0*SFA1.00000B1.00000*%
%ADD10C,.016*%
%ADD11C,.063*%
%ADD12R,.063X.063*%
%ADD13C,.007*%
%ADD14C,.02*%
%ADD16C,.0734*%
%ADD15C,.0774*%
%ADD17R,.0772X.0772*%
G75*
%LPD*%
G75*
G36*
G01X1010Y228990D02*
X228990D01*
Y1010D01*
X1010D01*
Y228990D01*
G37*
%LPC*%
G75*
G36*
G01X179080Y137260D02*
G02X176500Y138330I-1520J-20D01*
G01Y189940D01*
X192820Y206260D01*
X198760D01*
X201620Y209120D01*
G02X203250Y207550I3381J1880D01*
G01X203120Y207620D01*
X199640Y204140D01*
X198010D01*
G03X197710Y203470I-3J-401D01*
G02X191330Y200830I-2714J-2471D01*
G03X190650Y201090I-398J-21D01*
G01X178620Y189060D01*
Y183030D01*
G03X179300Y182740I400J-5D01*
G01X192820Y196260D01*
X198760D01*
X201620Y199120D01*
G02X203250Y197550I3381J1880D01*
G01X203120Y197620D01*
X199640Y194140D01*
X198270D01*
G03X197970Y193480I4J-400D01*
G02X191150Y190660I-2967J-2482D01*
G03X190460Y190900I-400J-37D01*
G01X180570Y181010D01*
Y178240D01*
G03X181250Y177950I400J-5D01*
G01X189560Y186260D01*
X198760D01*
X201620Y189120D01*
G02X203250Y187550I3381J1880D01*
G01X203120Y187620D01*
X199640Y184140D01*
X198270D01*
G03X197970Y183480I4J-400D01*
G02X193250Y177550I-2971J-2479D01*
G01X193120Y177620D01*
X185060Y169560D01*
Y149990D01*
G02X185180Y149850I-1090J-1055D01*
G01X185540Y149980D01*
Y163040D01*
X191620Y169120D01*
G02X193250Y167550I3381J1880D01*
G01X193120Y167620D01*
X187660Y162160D01*
Y147360D01*
X186720Y146420D01*
Y146340D01*
G02X183780Y146930I-1518J56D01*
G03X183530Y147460I-375J147D01*
G02X183260Y147570I435J1454D01*
G03X182660Y147230I-201J-345D01*
G01Y144990D01*
G02X181100Y142460I-1058J-1094D01*
G03X180570Y142090I-132J-376D01*
G01Y140280D01*
G02X179490Y137670I-1060J-1090D01*
G03X179080Y137260I-11J-399D01*
G37*
G36*
G01X107920Y69960D02*
G03X107340Y69980I-300J-266D01*
G02X105060Y70160I-1061J1089D01*
G03X104430Y70180I-323J-235D01*
G02X101920Y70430I-1171J970D01*
G03X101220Y70420I-347J-193D01*
G02X98530Y70400I-1350J706D01*
G03X97930Y70520I-350J-189D01*
G02X95740Y70800I-962J1179D01*
G03X95080Y70780I-323J-233D01*
G02X92280Y71540I-1281J819D01*
G01Y71620D01*
X61480Y102420D01*
Y110820D01*
G02X64010Y112280I1057J1091D01*
G03X64490Y111990I389J101D01*
G02X66300Y110880I338J-1480D01*
G03X66780Y110590I388J100D01*
G02X68630Y109370I351J-1480D01*
G03X69190Y109080I392J72D01*
G02X70910Y106620I661J-1369D01*
G01Y105000D01*
X71400Y104510D01*
G03X72080Y104800I280J285D01*
G01Y104920D01*
X72030Y104980D01*
G02X74250I1110J1030D01*
G01X74200Y104920D01*
Y104650D01*
X75060Y103790D01*
G03X75710Y103920I281J285D01*
G02X78620Y103370I1392J-611D01*
G01Y103290D01*
X79340Y102570D01*
Y102180D01*
X109040Y72480D01*
X109120D01*
G02X107920Y69960I-58J-1518D01*
G37*
G36*
G01X196710Y27530D02*
Y24470D01*
G02X193290I-1710J-3470D01*
G01Y27530D01*
G02X196710I1710J3470D01*
G37*
G36*
G01X64150Y54180D02*
G02X61570Y55310I-1520J40D01*
G01Y57070D01*
X61990Y57490D01*
Y70980D01*
G02X63010Y73590I1060J1090D01*
G03X63400Y73970I-9J399D01*
G02X65980Y72830I1520J-50D01*
G01Y57520D01*
X65760Y57300D01*
Y57170D01*
X65830Y57100D01*
G02X64580Y54560I-1128J-1023D01*
G03X64150Y54180I-32J-397D01*
G37*
G36*
G01X197530Y107160D02*
X199660D01*
X201620Y109120D01*
X201550Y109250D01*
G02X203250Y107550I3450J1750D01*
G01X203120Y107620D01*
X200540Y105040D01*
X197230D01*
G03X197020Y104300I1J-400D01*
G02X197970Y98520I-2020J-3300D01*
G03X198270Y97860I304J-260D01*
G01X199640D01*
X203120Y94380D01*
X203250Y94450D01*
G02X201620Y92880I1751J-3450D01*
G01X198760Y95740D01*
X190460D01*
X182160Y104040D01*
Y106040D01*
G03X181480Y106330I-400J5D01*
G02X180430Y105880I-1080J1070D01*
G03X180040Y105400I1J-400D01*
G02X178240Y103610I-1490J-301D01*
G03X177760Y103220I-81J-391D01*
G01Y99740D01*
X181400Y96100D01*
G03X182080Y96410I283J280D01*
G02X185120Y96590I1518J120D01*
G01Y96510D01*
X190470Y91160D01*
G03X191150Y91400I283J282D01*
G02X197970Y88520I3849J-400D01*
G03X198270Y87860I304J-260D01*
G01X199640D01*
X203120Y84380D01*
X203250Y84450D01*
G02X201620Y82880I1751J-3450D01*
G01X198760Y85740D01*
X192820D01*
X189740Y88820D01*
Y88890D01*
X183620Y95010D01*
X183480D01*
G03X183170Y94330I-30J-397D01*
G01X193120Y84380D01*
X193250Y84450D01*
G02X197970Y78520I1749J-3451D01*
G03X198270Y77860I304J-260D01*
G01X199640D01*
X203120Y74380D01*
X203250Y74450D01*
G02X201550Y72750I1750J-3450D01*
G01X201620Y72880D01*
X198760Y75740D01*
X192730D01*
G03X192440Y75060I-5J-400D01*
G01X193120Y74380D01*
X193250Y74450D01*
G02X197160Y67790I1744J-3454D01*
G03X197380Y67060I227J-330D01*
G01X200440D01*
X203120Y64380D01*
X203250Y64450D01*
G02X201550Y62750I1750J-3450D01*
G01X201620Y62880D01*
X199560Y64940D01*
X197380D01*
G03X197160Y64210I7J-400D01*
G02X191550Y62750I-2159J-3210D01*
G01X191620Y62880D01*
X172640Y81860D01*
Y123770D01*
X172600Y123810D01*
X172320D01*
X172260Y123700D01*
G02X171960Y123290I-1360J680D01*
G01Y122680D01*
X172110Y122530D01*
Y93090D01*
X109230Y30210D01*
X49090D01*
X45320Y33980D01*
X45240D01*
G02X44620Y34140I61J1519D01*
G03X44100Y33970I-170J-360D01*
G02X42600Y33090I-1500J838D01*
G01X36490D01*
X6960Y62620D01*
Y86730D01*
G02X9900Y87920I1711J0D01*
G03X10590Y88190I290J274D01*
G01Y179490D01*
X1890Y188190D01*
Y201310D01*
X7330Y206750D01*
X7300Y206870D01*
G02X14470Y209710I3702J1125D01*
G01X73290D01*
X80840Y217260D01*
G02X83260Y214840I1210J-1210D01*
G01X74710Y206290D01*
X14470D01*
G02X9870Y204300I-3470J1710D01*
G01X9750Y204330D01*
X5310Y199890D01*
Y189610D01*
X14010Y180910D01*
Y82810D01*
X21410Y75410D01*
Y66900D01*
G02X18490Y65690I-1711J0D01*
G03X17810Y65410I-280J-285D01*
G01Y61100D01*
G02X16010Y59390I-1712J0D01*
G03X15710Y58710I-18J-398D01*
G01X37910Y36510D01*
X42600D01*
G02X43510Y36250I0J-1722D01*
G03X44050Y36360I212J339D01*
G02X46720Y36040I1251J-861D01*
G03X47410Y35940I373J146D01*
G02X47540Y36090I1210J-918D01*
G01Y39590D01*
X53000Y45050D01*
Y86600D01*
G03X52520Y86990I-399J-1D01*
G02X52290Y86960I-311J1489D01*
G03X52100Y86770I10J-200D01*
G02X50630Y85320I-1519J70D01*
G03X50440Y85130I10J-200D01*
G02X49050Y83670I-1518J53D01*
G03X48680Y83300I33J-403D01*
G02X47190Y81910I-1513J128D01*
G01X46990D01*
Y81710D01*
G02X45550Y80210I-1521J19D01*
G03X45360Y80020I10J-200D01*
G02X42320Y80040I-1520J67D01*
G01Y80120D01*
X37180Y85260D01*
X37140D01*
X36420Y85980D01*
X36340D01*
G02X34890Y87290I57J1521D01*
G03X34220Y87520I-394J-57D01*
G01X33860Y87160D01*
Y85030D01*
G02X31740I-1060J-1090D01*
G01Y88040D01*
X33920Y90220D01*
Y143810D01*
G02X36040I1060J1090D01*
G01Y89340D01*
X35910Y89210D01*
X36120Y89000D01*
G02X36430Y89020I252J-1501D01*
G03X36640Y89210I10J200D01*
G02X37930Y90600I1516J-114D01*
G03X38270Y90990I-60J396D01*
G02X39760Y92460I1520J-50D01*
G01X39960D01*
Y92660D01*
G02X41460Y94140I1520J-40D01*
G01X41660D01*
Y94340D01*
G02X43170Y95840I1520J-20D01*
G03X43370Y96040I0J200D01*
G02X46410Y96090I1520J0D01*
G01Y96010D01*
X47840Y94580D01*
Y94350D01*
X52190Y90000D01*
X52270D01*
G02X52340Y89990I-179J-1503D01*
G03X52560Y90190I19J201D01*
G01Y114620D01*
G03X52080Y115010I-399J-1D01*
G02X50710Y117590I-311J1489D01*
G01Y120820D01*
X65420Y135530D01*
Y135550D01*
X66140Y136270D01*
Y136350D01*
G02X67970Y137780I1520J-59D01*
G03X68450Y138170I81J391D01*
G01Y184750D01*
X61040Y192160D01*
Y198160D01*
X57720Y201480D01*
X57640D01*
G02X59220Y203060I60J1520D01*
G01Y202980D01*
X63160Y199040D01*
Y193040D01*
X70570Y185630D01*
Y135080D01*
X70460Y134970D01*
Y125900D01*
X79760Y116600D01*
Y115590D01*
G02X78710Y112980I-1060J-1090D01*
G03X78310Y112630I-3J-400D01*
G02X75690Y113830I-1509J166D01*
G01X75740Y113890D01*
Y114220D01*
X65700Y124260D01*
X65620D01*
G02X64780Y124560I68J1518D01*
G01X64640Y124660D01*
X58070Y118090D01*
Y117880D01*
G03X58550Y117490I399J1D01*
G02X59920Y114910I311J-1489D01*
G01Y44120D01*
G03X60600Y43830I400J-5D01*
G01X68430Y51660D01*
X72010D01*
G02Y49540I1090J-1060D01*
G01X69310D01*
X68700Y48930D01*
G03X68990Y48250I285J-280D01*
G01X70550D01*
G02Y46130I1090J-1060D01*
G01X69410D01*
X68250Y44970D01*
G03X68540Y44290I285J-280D01*
G01X70550D01*
G02Y42170I1090J-1060D01*
G01X67830D01*
X67170Y41510D01*
G03X67460Y40830I285J-280D01*
G01X70360D01*
G02X71460Y38250I1090J-1060D01*
G03X71060Y37840I0J-400D01*
G02X68940Y36420I-1521J-22D01*
G01X68900Y36440D01*
X68300D01*
X65780Y33920D01*
Y33840D01*
G02X65470Y32970I-1522J52D01*
G03X65780Y32330I316J-242D01*
G01X108350D01*
X166730Y90710D01*
G03X166670Y91330I-281J286D01*
G02X166000Y92370I831J1271D01*
G03X165610Y92710I-396J-60D01*
G02X164150Y94000I42J1519D01*
G03X163760Y94340I-396J-60D01*
G02X162280Y95890I40J1520D01*
G03X162100Y96090I-200J1D01*
G02X161220Y98690I180J1510D01*
G01Y128280D01*
X162180Y129240D01*
Y129320D01*
G02X165040Y128540I1520J-60D01*
G03X165180Y128000I348J-198D01*
G02X165350Y127880I-788J-1296D01*
G03X165950Y127990I253J312D01*
G02X166870Y128690I1311J-769D01*
G03X167040Y129360I-109J384D01*
G01X146190Y150210D01*
X145330D01*
X144610Y150930D01*
X144530D01*
G02X143580Y151320I68J1517D01*
G03X142910Y151020I-269J-298D01*
G01Y145230D01*
G03X143590Y144950I400J5D01*
G01X145850Y147210D01*
G02X148270Y144790I1210J-1210D01*
G01X142330Y138850D01*
Y137030D01*
X140700Y135400D01*
Y134520D01*
X140720Y134500D01*
Y122080D01*
X140520Y121880D01*
Y107900D01*
X139210Y106590D01*
Y94300D01*
G02X137500Y92590I-1710J0D01*
G01X135910D01*
X134600Y91280D01*
X117920D01*
X117870Y91230D01*
X102330D01*
X102270Y91290D01*
X93100D01*
G02X91890Y91790I0J1714D01*
G01X86930Y96750D01*
Y106050D01*
X86950Y106070D01*
Y112350D01*
X86980Y112380D01*
Y120380D01*
X86850Y120510D01*
Y131250D01*
X87190Y131590D01*
Y139400D01*
G02X87690Y140610I1714J0D01*
G01X91490Y144410D01*
X99050D01*
X99140Y144500D01*
X116380D01*
X116480Y144600D01*
X128620D01*
X132810Y140410D01*
G02X130390Y137990I-1210J-1210D01*
G01X127200Y141180D01*
X127100D01*
G03X126830Y140480I-3J-401D01*
G02X125700Y137490I-1130J-1281D01*
G01X122550D01*
X122310Y137730D01*
X113250D01*
X113230Y137750D01*
X109970D01*
X109920Y137700D01*
X96620D01*
X95910Y136990D01*
X94610D01*
Y135690D01*
X93500Y134580D01*
Y123560D01*
X93470Y123530D01*
Y109250D01*
X93520Y109200D01*
Y101800D01*
X94810Y100510D01*
Y99210D01*
X99790D01*
X100600Y98400D01*
X113280D01*
X113350Y98470D01*
X129650D01*
X130190Y99010D01*
X131490D01*
Y110930D01*
X133030Y112470D01*
Y126630D01*
X133050Y126650D01*
Y131250D01*
X133850Y132050D01*
Y139260D01*
G02X134350Y140470I1714J0D01*
G01X139490Y145610D01*
Y153710D01*
X153160Y167380D01*
Y188530D01*
G02X156580I1710J0D01*
G01Y165960D01*
X145100Y154480D01*
G03X145220Y153830I282J-284D01*
G02X145650Y153540I-622J-1386D01*
G03X146310Y153690I283J283D01*
G02X148910Y154150I1431J-510D01*
G03X149530I310J253D01*
G02X151800Y154230I1171J-970D01*
G03X152410Y154290I280J282D01*
G02X155190Y153490I1259J-856D01*
G01Y153410D01*
X155400Y153200D01*
X155600Y153400D01*
Y153480D01*
G02X158640Y153490I1520J-40D01*
G01Y153410D01*
X180760Y131290D01*
Y123280D01*
X182900Y121140D01*
G03X183560Y121290I283J282D01*
G02X183940Y121890I1439J-491D01*
G01Y131440D01*
X191620Y139120D01*
X191550Y139250D01*
G02X193250Y137550I3450J1750D01*
G01X193120Y137620D01*
X186060Y130560D01*
Y124680D01*
G03X186540Y124290I399J1D01*
G02X186790Y124320I306J-1490D01*
G01X186870D01*
X187030Y124480D01*
Y124530D01*
X191620Y129120D01*
X191550Y129250D01*
G02X193250Y127550I3450J1750D01*
G01X193120Y127620D01*
X189090Y123590D01*
Y123540D01*
X188370Y122820D01*
Y122740D01*
G02X186900Y121280I-1519J60D01*
G03X186520Y120860I18J-399D01*
G02X186400Y120210I-1519J-56D01*
G03X186570Y119710I370J-153D01*
G02X187290Y118090I-769J-1312D01*
G03X187680Y117610I391J-81D01*
G01X190110D01*
X191620Y119120D01*
X191550Y119250D01*
G02X193250Y117550I3450J1750D01*
G01X193120Y117620D01*
X192240Y116740D01*
G03X192530Y116060I285J-280D01*
G01X192620D01*
X192820Y116260D01*
X197180D01*
X197380Y116060D01*
X198560D01*
X201620Y119120D01*
X201550Y119250D01*
G02X203250Y117550I3450J1750D01*
G01X203120Y117620D01*
X199440Y113940D01*
X198430D01*
G03X198110Y113300I1J-400D01*
G02X197290Y107880I-3111J-2301D01*
G03X197530Y107160I239J-320D01*
G37*
G54D16*
X205000Y101000D03*
Y41000D03*
X195000D03*
X11000Y198000D03*
G54D15*
X205000Y181000D03*
Y171000D03*
Y161000D03*
Y151000D03*
Y141000D03*
Y131000D03*
Y51000D03*
Y31000D03*
Y21000D03*
X195000Y161000D03*
Y151000D03*
Y51000D03*
G54D17*
X11000Y218000D03*
X195000Y211000D03*
%LPD*%
G75*
G36*
G01X13710Y60710D02*
X10380Y64040D01*
Y80640D01*
G02X11060Y80920I400J-5D01*
G01X17990Y73990D01*
Y73090D01*
G02X17310Y72810I-400J5D01*
G03X14390Y71600I-1209J-1210D01*
G01Y61100D01*
Y61010D01*
G02X13710Y60710I-398J-18D01*
G37*
G36*
G01X67660Y125300D02*
X67200Y125760D01*
Y125840D01*
G03X65020Y127150I-1519J-60D01*
G02X64440Y127510I-180J357D01*
G01Y128210D01*
X64770Y128540D01*
X64850D01*
G03X65230Y131510I-64J1517D01*
G02X65070Y132180I120J383D01*
G01X67540Y134650D01*
Y134670D01*
X67640Y134770D01*
G03X67880Y134790I-6J1518D01*
G02X68340Y134390I59J-397D01*
G01Y125590D01*
G02X67660Y125300I-400J-5D01*
G37*
G36*
G01X191130Y71020D02*
G02X190450Y70740I-400J5D01*
G01X181220Y79970D01*
Y80050D01*
G03X178200Y80210I-1518J-65D01*
G02X177520Y79980I-397J54D01*
G01X174760Y82740D01*
Y88770D01*
G02X175440Y89060I400J5D01*
G01X191620Y72880D01*
X191550Y72750D01*
G03X191130Y71020I3449J-1753D01*
G37*
G36*
G01X176160Y91340D02*
Y97370D01*
G02X176840Y97660I400J5D01*
G01X191620Y82880D01*
X191550Y82750D01*
G03X191140Y80780I3452J-1746D01*
G02X190450Y80480I-400J-23D01*
G01X187020Y83910D01*
Y83990D01*
G03X184030Y84320I-1520J-58D01*
G02X183360Y84140I-386J101D01*
G01X176160Y91340D01*
G37*
G36*
G01X168410Y123620D02*
X169020Y124230D01*
X169100D01*
G03X169190Y124240I-123J1513D01*
G02X169410Y124080I23J-199D01*
G03X169840Y123290I1490J299D01*
G01Y121800D01*
X169990Y121650D01*
Y93970D01*
X169390Y93370D01*
G02X168770Y93430I-286J281D01*
G03X168560Y93690I-1280J-819D01*
G01Y111820D01*
X168410Y111970D01*
Y123620D01*
G37*
G36*
G01X191340Y97860D02*
X184280Y104920D01*
Y108350D01*
X183560Y109070D01*
Y109150D01*
G03X183530Y109400I-1520J-56D01*
G02X183920Y109880I391J81D01*
G01X185120D01*
X189960Y105040D01*
X192770D01*
G02X192980Y104300I-1J-400D01*
G03X192030Y98520I2020J-3300D01*
G02X191730Y97860I-304J-260D01*
G01X191340D01*
G37*
G36*
G01X192030Y183480D02*
G03X191550Y179250I2971J-2479D01*
G01X191620Y179120D01*
X183340Y170840D01*
G02X182660Y171130I-280J285D01*
G01Y176360D01*
X190440Y184140D01*
X191730D01*
G02X192030Y183480I-4J-400D01*
G37*
G54D10*
X9700Y6800D03*
X17700Y22600D03*
X12100Y64600D03*
X16100Y61100D03*
Y71600D03*
X8670Y86730D03*
X16500Y187900D03*
X18400Y33100D03*
X19700Y66900D03*
X20900Y84600D03*
X32800Y83940D03*
X20400Y129900D03*
X31400Y160000D03*
X19200Y200900D03*
X42600Y34800D03*
X45300Y35500D03*
X41800Y48700D03*
X48600Y35000D03*
X42500Y63600D03*
X43840Y80100D03*
X45470Y81730D03*
X36400Y87500D03*
X38160Y89100D03*
X39790Y90940D03*
X47170Y83430D03*
X41480Y92620D03*
X48920Y85180D03*
X43180Y94320D03*
X44890Y96030D03*
X38400Y122300D03*
X39800Y133400D03*
X38700Y138800D03*
X34980Y144900D03*
X45100Y162100D03*
X46900Y184400D03*
X37300Y212700D03*
X53800Y13500D03*
X58300Y33600D03*
X62090Y33120D03*
X64260Y33900D03*
X56930Y38660D03*
X60300Y35900D03*
X52830Y36180D03*
X50590Y36750D03*
X54540Y37730D03*
X62630Y54220D03*
X64700Y56080D03*
X63050Y72070D03*
X64920Y73920D03*
X50580Y86840D03*
X52210Y88480D03*
X64830Y110510D03*
X62540Y111910D03*
X53300Y125900D03*
X53620Y118350D03*
X60910Y126510D03*
X58860Y116000D03*
X51770Y116500D03*
X65680Y125780D03*
X58800Y132600D03*
X64790Y130060D03*
X58900Y163600D03*
X57700Y203000D03*
X55200Y225600D03*
X71640Y47190D03*
Y43230D03*
X71450Y39770D03*
X69540Y37820D03*
X72200Y36100D03*
X73100Y50600D03*
X70300Y62200D03*
X78900Y54800D03*
X66800Y86400D03*
X77100Y103310D03*
X73140Y106010D03*
X69850Y107710D03*
X67130Y109110D03*
X76800Y112800D03*
X67010Y118520D03*
X71900Y125700D03*
X78700Y114500D03*
X67200Y132600D03*
X74800Y136100D03*
X67660Y136290D03*
X76800Y198000D03*
X74100Y225600D03*
X96970Y71700D03*
X93800Y71600D03*
X93100Y93000D03*
Y97500D03*
X88640Y103040D03*
X88660Y109340D03*
X91810Y106190D03*
X88690Y118790D03*
X88560Y128240D03*
X91760Y121940D03*
X88900Y139400D03*
X97460Y142700D03*
X91790Y131390D03*
X92900Y138700D03*
X84600Y166100D03*
X91800Y190100D03*
X82050Y216050D03*
X109200Y41800D03*
X99100Y40700D03*
X112700Y64300D03*
X109060Y70960D03*
X106280Y71070D03*
X103260Y71150D03*
X99870Y71130D03*
X102500Y82700D03*
X105340Y92940D03*
X102190Y96690D03*
X104900Y110900D03*
X104300Y130600D03*
X100610Y139410D03*
X106910D03*
X111640Y139460D03*
X98200Y221800D03*
X118700Y24800D03*
X117940Y82640D03*
X119510Y92990D03*
X116360Y96760D03*
X119900Y109600D03*
Y130800D03*
X114790Y142790D03*
X121090Y142890D03*
X117940Y139440D03*
X125700Y139200D03*
X117300Y182400D03*
X139700Y17500D03*
X137100Y38200D03*
X132200Y76800D03*
X144900Y86600D03*
X137500Y94300D03*
X133200Y97300D03*
X138810Y110910D03*
X139010Y125090D03*
X134740Y114060D03*
X134760Y128240D03*
X136200Y144300D03*
X132110Y143400D03*
X138990Y136110D03*
X131600Y139200D03*
X135560Y139260D03*
X144200Y148300D03*
X144590Y152450D03*
X140100Y177700D03*
X131000Y206600D03*
X160000Y24400D03*
X152700Y51200D03*
X158400Y112000D03*
X149100Y111500D03*
X149500Y99900D03*
X158700Y126800D03*
X147060Y146000D03*
X147740Y153180D03*
X150700D03*
X153670Y153430D03*
X157120D03*
X154870Y188530D03*
X167200Y42900D03*
X162100Y62500D03*
X165650Y94230D03*
X167500Y92600D03*
X162280Y97600D03*
X163800Y95860D03*
X169200Y112300D03*
X167260Y127220D03*
X169040Y125750D03*
X170900Y124380D03*
X163700Y129260D03*
X164400Y126700D03*
X170500Y153800D03*
X164400Y172300D03*
X175300Y206700D03*
X185400Y45800D03*
X182100Y61000D03*
X179700Y79990D03*
X184000Y78800D03*
X182600Y88800D03*
X185500Y83930D03*
X183600Y96530D03*
X182040Y109090D03*
X180400Y107400D03*
X178550Y105100D03*
X189600Y102900D03*
X185800Y118400D03*
X186850Y122800D03*
X185000Y120800D03*
X177560Y137240D03*
X179510Y139190D03*
X182600Y139200D03*
X181600Y143900D03*
X190100Y156200D03*
X189000Y148900D03*
X184000D03*
X185200Y146400D03*
X188200Y179100D03*
X200200Y7400D03*
X219800Y26600D03*
X223800Y75500D03*
Y107800D03*
X223400Y143300D03*
X223800Y190100D03*
X223100Y222000D03*
G54D11*
X11000Y198000D03*
Y208000D03*
X195000Y21000D03*
Y31000D03*
Y41000D03*
Y51000D03*
Y61000D03*
Y71000D03*
Y81000D03*
Y91000D03*
Y101000D03*
Y111000D03*
Y121000D03*
Y131000D03*
Y141000D03*
Y151000D03*
Y161000D03*
Y171000D03*
Y181000D03*
Y191000D03*
Y201000D03*
X205000Y21000D03*
Y31000D03*
Y41000D03*
Y51000D03*
Y61000D03*
Y71000D03*
Y81000D03*
Y91000D03*
Y101000D03*
Y111000D03*
Y121000D03*
Y131000D03*
Y141000D03*
Y151000D03*
Y161000D03*
Y171000D03*
Y181000D03*
Y191000D03*
Y201000D03*
Y211000D03*
G54D12*
X11000Y218000D03*
X195000Y211000D03*
G54D13*
G01X11000Y194140D02*
Y198000D01*
G01D02*
Y201860D01*
G01X7140Y198000D02*
X11000D01*
G01D02*
X14860D01*
G01X32800Y83940D02*
Y87600D01*
X34980Y89780D01*
Y144900D01*
G01X170900Y124380D02*
Y122240D01*
X171050Y122090D01*
Y93530D01*
X108790Y31270D01*
X49530D01*
X45300Y35500D01*
G01X53620Y118350D02*
Y89690D01*
X54060Y89250D01*
Y44610D01*
X48600Y39150D01*
Y35000D01*
G01X36400Y87500D02*
X37580Y86320D01*
X37620D01*
X43840Y80100D01*
G01X45470Y81730D02*
X39340Y87860D01*
Y87920D01*
X38160Y89100D01*
G01X47170Y83430D02*
X41120Y89480D01*
Y89610D01*
X39790Y90940D01*
G01X48920Y85180D02*
X41480Y92620D01*
G01X50580Y86840D02*
X48800Y88620D01*
Y88700D01*
X43180Y94320D01*
G01X52210Y88480D02*
X46780Y93910D01*
Y94140D01*
X44890Y96030D01*
G01X71640Y47190D02*
X68970D01*
X58300Y36520D01*
Y33600D01*
G01X62090Y33120D02*
Y34780D01*
X67080Y39770D01*
X71450D01*
G01X64260Y33900D02*
X67860Y37500D01*
X68680D01*
X69000Y37820D01*
X69540D01*
G01X73100Y50600D02*
X68870D01*
X56930Y38660D01*
G01X60300Y35900D02*
X61480Y37080D01*
Y37320D01*
X67390Y43230D01*
X71640D01*
G01X52830Y36180D02*
X52690Y36320D01*
Y39270D01*
X57010Y43590D01*
Y118530D01*
X63380Y124900D01*
Y128650D01*
X64790Y130060D01*
G01X50590Y36750D02*
Y39150D01*
X55540Y44100D01*
Y121140D01*
X60910Y126510D01*
G01X54540Y37730D02*
Y38890D01*
X58860Y43210D01*
Y116000D01*
G01X62630Y54220D02*
Y56630D01*
X63050Y57050D01*
Y72070D01*
G01X64920Y73920D02*
Y57960D01*
X64700Y57740D01*
Y56080D01*
G01X60960Y76670D02*
X60840Y76790D01*
G01X64830Y110510D02*
Y103840D01*
X96970Y71700D01*
G01X93800Y71600D02*
X62540Y102860D01*
Y111910D01*
G01X67660Y136290D02*
X66480Y135110D01*
Y135090D01*
X51770Y120380D01*
Y116500D01*
G01X76800Y112800D02*
Y114660D01*
X65680Y125780D01*
G01X78700Y114500D02*
Y116160D01*
X69400Y125460D01*
Y135410D01*
X69510Y135520D01*
Y185190D01*
X62100Y192600D01*
Y198600D01*
X57700Y203000D01*
G01X106280Y71070D02*
X73140Y104210D01*
Y106010D01*
G01X103260Y71150D02*
X69850Y104560D01*
Y107710D01*
G01X99870Y71130D02*
Y71700D01*
X67130Y104440D01*
Y109110D01*
G01X109060Y70960D02*
X78280Y101740D01*
Y102130D01*
X77100Y103310D01*
G01X195000Y61000D02*
X173700Y82300D01*
Y124200D01*
X146630Y151270D01*
X145770D01*
X144590Y152450D01*
G01X195000Y71000D02*
X175100Y90900D01*
Y125820D01*
X147740Y153180D01*
G01X195000Y81000D02*
X176700Y99300D01*
Y127180D01*
X150700Y153180D01*
G01X153670Y153430D02*
X178100Y129000D01*
Y122300D01*
X183850Y116550D01*
X190550D01*
X195000Y121000D01*
G01X185800Y118400D02*
X184140D01*
X179700Y122840D01*
Y130850D01*
X157120Y153430D01*
G01X167260Y127220D02*
Y126940D01*
X165650Y125330D01*
Y94230D01*
G01X169040Y125750D02*
X167350Y124060D01*
Y111530D01*
X167500Y111380D01*
Y92600D01*
G01X162830Y97490D02*
X162390D01*
X162280Y97600D01*
G01X164400Y126700D02*
X164230Y126530D01*
Y96290D01*
X163800Y95860D01*
G01X162280Y97600D02*
Y127840D01*
X163700Y129260D01*
G01X191140Y41000D02*
X195000D01*
G01X179700Y79990D02*
X193690Y66000D01*
X200000D01*
X205000Y61000D01*
G01X185500Y83930D02*
X192630Y76800D01*
X199200D01*
X205000Y71000D01*
G01X182040Y109090D02*
X183220Y107910D01*
Y104480D01*
X190900Y96800D01*
X199200D01*
X205000Y91000D01*
G01X183600Y96530D02*
X190800Y89330D01*
Y89260D01*
X193260Y86800D01*
X199200D01*
X205000Y81000D01*
G01X180400Y107400D02*
X180190Y107610D01*
Y109860D01*
X181270Y110940D01*
X185560D01*
X190400Y106100D01*
X200100D01*
X205000Y111000D01*
G01Y121000D02*
X199000Y115000D01*
X196940D01*
X196740Y115200D01*
X193260D01*
X193060Y115000D01*
X182200D01*
X178550Y111350D01*
Y105100D01*
G01X186850Y122800D02*
X188030Y123980D01*
Y124030D01*
X195000Y131000D01*
G01X185000Y120800D02*
Y131000D01*
X195000Y141000D01*
G01X177560Y137240D02*
Y189500D01*
X193260Y205200D01*
X199200D01*
X205000Y211000D01*
G01X179510Y139190D02*
Y181450D01*
X193260Y195200D01*
X199200D01*
X205000Y201000D01*
G01Y191000D02*
X199200Y185200D01*
X190000D01*
X181600Y176800D01*
Y143900D01*
G01X184000Y148900D02*
Y170000D01*
X195000Y181000D01*
G01Y171000D02*
X186600Y162600D01*
Y147800D01*
X185200Y146400D01*
G01X191140Y201000D02*
X195000D01*
G01X205000Y37140D02*
Y41000D01*
G01D02*
Y44860D01*
G01X201140Y41000D02*
X205000D01*
G01D02*
X208860D01*
G01X195000Y37140D02*
Y41000D01*
G01D02*
Y44860D01*
G01Y41000D02*
X198860D01*
G01X205000Y97140D02*
Y101000D01*
G01D02*
Y104860D01*
G01X201140Y101000D02*
X205000D01*
G01D02*
X208860D01*
G01X195000Y197140D02*
Y201000D01*
G01D02*
X198860D01*
G54D14*
G01X42600Y34800D02*
X37200D01*
X8670Y63330D01*
Y86730D01*
G01X16100Y71600D02*
Y61100D01*
G01X19700Y66900D02*
Y74700D01*
X12300Y82100D01*
Y180200D01*
X3600Y188900D01*
Y200600D01*
X11000Y208000D01*
G01X82050Y216050D02*
X74000Y208000D01*
X11000D01*
G01X93100Y93000D02*
X102980D01*
X103040Y92940D01*
X105340D01*
G01X88640Y103040D02*
Y97460D01*
X93100Y93000D01*
G01Y97500D02*
X99080D01*
X99890Y96690D01*
X102190D01*
G01X93100Y97500D02*
Y99800D01*
X91810Y101090D01*
Y106190D01*
G01X88660Y109340D02*
Y105360D01*
X88640Y105340D01*
Y103040D01*
G01X88690Y118790D02*
Y111670D01*
X88660Y111640D01*
Y109340D01*
G01X91760Y121940D02*
Y108540D01*
X91810Y108490D01*
Y106190D01*
G01X88560Y128240D02*
Y121220D01*
X88690Y121090D01*
Y118790D01*
G01X88900Y139400D02*
Y130880D01*
X88560Y130540D01*
Y128240D01*
G01X91790Y131390D02*
Y124270D01*
X91760Y124240D01*
Y121940D01*
G01X97460Y142700D02*
X92200D01*
X88900Y139400D01*
G01X114790Y142790D02*
X99850D01*
X99760Y142700D01*
X97460D01*
G01X91790Y131390D02*
Y135290D01*
X92900Y136400D01*
Y138700D01*
G01X100610Y139410D02*
X95910D01*
X95200Y138700D01*
X92900D01*
G01X105340Y92940D02*
X117160D01*
X117210Y92990D01*
X119510D01*
G01X102190Y96690D02*
X113990D01*
X114060Y96760D01*
X116360D01*
G01X106910Y139410D02*
X100610D01*
G01X111640Y139460D02*
X109260D01*
X109210Y139410D01*
X106910D01*
G01X117940Y139440D02*
X113960D01*
X113940Y139460D01*
X111640D01*
G01X119510Y92990D02*
X133890D01*
X135200Y94300D01*
X137500D01*
G01X116360Y96760D02*
X130360D01*
X130900Y97300D01*
X133200D01*
G01X121090Y142890D02*
X117190D01*
X117090Y142790D01*
X114790D01*
G01X131600Y139200D02*
X127910Y142890D01*
X121090D01*
G01X125700Y139200D02*
X123260D01*
X123020Y139440D01*
X117940D01*
G01X137500Y94300D02*
Y107300D01*
X138810Y108610D01*
Y110910D01*
G01X133200Y97300D02*
Y110220D01*
X134740Y111760D01*
Y114060D01*
G01X138810Y110910D02*
Y122590D01*
X139010Y122790D01*
Y125090D01*
G01D02*
Y133790D01*
X138990Y133810D01*
Y136110D01*
G01X135560Y139260D02*
Y131340D01*
X134760Y130540D01*
Y128240D01*
G01D02*
Y125940D01*
X134740Y125920D01*
Y114060D01*
G01X138990Y136110D02*
X140620Y137740D01*
Y139560D01*
X147060Y146000D01*
G01X154870Y188530D02*
Y166670D01*
X141200Y153000D01*
Y144900D01*
X135560Y139260D01*
G01X195000Y31000D02*
Y21000D01*
M02*
