G04 ================== begin FILE IDENTIFICATION RECORD ==================*
G04 Layout Name:  E:/material/glass/pcb/ssd1963test/pcb/test.brd*
G04 Film Name:    TOP*
G04 File Format:  Gerber RS274X*
G04 File Origin:  Cadence Allegro 16.6-S049*
G04 Origin Date:  Tue Sep 15 14:33:13 2015*
G04 *
G04 Layer:  ETCH/TOP*
G04 Layer:  PIN/TOP*
G04 Layer:  VIA CLASS/TOP*
G04 *
G04 Offset:    (0.0 0.0)*
G04 Mirror:    No*
G04 Mode:      Positive*
G04 Rotation:  0*
G04 FullContactRelief:  No*
G04 UndefLineWidth:     0.0*
G04 ================== end FILE IDENTIFICATION RECORD ====================*
%FSLAX25Y25*MOIN*%
%IR0*IPPOS*OFA0.00000B0.00000*MIA0B0*SFA1.00000B1.00000*%
%ADD11R,.12X.12*%
%ADD23O,.0079X.0531*%
%ADD22O,.0531X.0079*%
%ADD21R,.0886X.128*%
%ADD16R,.1988X.0709*%
%ADD14R,.08X.01*%
%ADD17R,.01X.08*%
%ADD10C,.016*%
%ADD19R,.0217X.0413*%
%ADD18R,.0213X.0354*%
%ADD12C,.063*%
%ADD26R,.0354X.0213*%
%ADD25R,.0551X.0433*%
%ADD13R,.063X.063*%
%ADD20R,.0295X.0551*%
%ADD15R,.0354X.0197*%
%ADD24R,.0886X.0374*%
%ADD27C,.007*%
%ADD28C,.02*%
%ADD29R,.1302X.1302*%
%ADD37R,.1028X.1422*%
%ADD30C,.0734*%
%ADD34R,.0316X.0456*%
%ADD32R,.0456X.0316*%
%ADD31C,.0774*%
%ADD33R,.0654X.0536*%
%ADD35R,.0398X.0654*%
%ADD36R,.0694X.0576*%
%ADD38R,.0988X.0476*%
G75*
%LPD*%
G75*
G36*
G01X1010Y1010D02*
Y228990D01*
X228990D01*
Y1010D01*
X1010D01*
G37*
%LPC*%
G75*
G36*
G01X182380Y5960D02*
X86420D01*
X82490Y9890D01*
Y14390D01*
X81490Y15390D01*
X64600D01*
G02X63250Y18150I0J1710D01*
G01Y21280D01*
X45380D01*
Y21490D01*
X43870D01*
Y21290D01*
X41450D01*
Y30710D01*
X41600D01*
Y32640D01*
X41540Y32700D01*
Y33710D01*
G02X43410Y36090I1056J1095D01*
G03X43970Y36230I213J338D01*
G02X46720Y36040I1331J-732D01*
G03X47410Y35940I373J146D01*
G02X48660Y36520I1195J-938D01*
G03X49080Y36880I21J400D01*
G02X51860Y37590I1514J-130D01*
G03X52120Y37520I168J108D01*
G02X52830Y37700I717J-1338D01*
G03X53030Y37880I0J201D01*
G02X55080Y39150I1511J-150D01*
G03X55570Y39350I133J376D01*
G02X57990Y37570I1355J-693D01*
G01Y35470D01*
X57830Y35310D01*
X58040Y35100D01*
X58130Y35110D01*
G02X58390Y35120I188J-1509D01*
G03X58810Y35600I30J398D01*
G02X61660Y35220I1490J300D01*
G03X62030Y34640I356J-181D01*
G02X62670Y34530I68J-1520D01*
G03X62920Y34620I75J183D01*
G02X63700Y35310I1336J-724D01*
G01X63830Y35360D01*
Y39000D01*
X63440Y39390D01*
X59720Y43110D01*
Y56510D01*
X72070Y68860D01*
X89560D01*
X91030Y70330D01*
G03X90740Y71010I-285J280D01*
G01X64140D01*
G02X61960I-1090J1060D01*
G01X51430D01*
X43860Y78580D01*
X43780D01*
G02X42570Y79270I64J1518D01*
G03X41950Y79340I-338J-215D01*
G01X34360Y71750D01*
X31720D01*
Y71590D01*
X31520D01*
Y68120D01*
X31710D01*
Y65700D01*
X31510D01*
Y64190D01*
X31720D01*
Y59780D01*
X22280D01*
Y59940D01*
X17420D01*
X17320Y60040D01*
X17190D01*
G02X17130Y62210I-1091J1056D01*
G01X17190Y62160D01*
X17370D01*
G03X17660Y62840I5J400D01*
G01X16200Y64300D01*
X16110Y64290D01*
G02X14790Y64790I-108J1708D01*
G01X1560Y78020D01*
Y163300D01*
X25870Y187610D01*
G03X25590Y188290I-285J280D01*
G01X23900D01*
X21350Y190840D01*
Y195080D01*
X23350Y197080D01*
Y202630D01*
X42310D01*
X43890Y204210D01*
X48460D01*
Y209900D01*
X48550D01*
Y211530D01*
X47680D01*
Y216050D01*
X45810Y217920D01*
X44650D01*
Y215370D01*
X23350D01*
Y217040D01*
G03X22670Y217320I-400J-5D01*
G01X21640Y216290D01*
X14860D01*
Y214140D01*
X7140D01*
Y221860D01*
X14860D01*
Y219710D01*
X20220D01*
X21850Y221340D01*
X23350D01*
Y223890D01*
X44650D01*
Y221340D01*
X89120D01*
X95890Y228110D01*
X201510D01*
X219210Y210410D01*
Y42690D01*
X210960Y34440D01*
X208000D01*
G03X207720Y33760I1J-398D01*
G02X202280I-2720J-2760D01*
G03X202000Y34440I-281J282D01*
G01X200860D01*
X198670Y32250D01*
X198700Y32130D01*
G02X197410Y27970I-3701J-1132D01*
G03X197660Y27260I251J-311D01*
G01X200240D01*
X203120Y24380D01*
G02X201550Y22750I1880J-3381D01*
G01X201620Y22880D01*
X199360Y25140D01*
X197060D01*
G03X196870Y24390I1J-399D01*
G02X193870Y17300I-1869J-3389D01*
G01X193750Y17330D01*
X182380Y5960D01*
G37*
G54D29*
X16370Y51160D03*
X32820Y15370D03*
G54D30*
X11000Y198000D03*
G54D31*
Y208000D03*
%LPD*%
G75*
G36*
G01X19470Y64030D02*
X17700Y65800D01*
X17710Y65890D01*
G03X17210Y67210I-1708J108D01*
G01X4980Y79440D01*
Y79820D01*
G02X5320Y79960I200J-2D01*
G01X14890Y70390D01*
G03X17310Y72810I1210J1210D01*
G01X7680Y82440D01*
Y84700D01*
G02X8190Y85090I400J5D01*
G03X10380Y86730I481J1640D01*
G01Y141100D01*
X22880D01*
Y154120D01*
X10380D01*
Y158360D01*
X28010Y175990D01*
X52510D01*
X61010Y184490D01*
X96040D01*
X103580Y192030D01*
Y193530D01*
X104060D01*
Y200470D01*
X103580D01*
Y203850D01*
X102790Y204640D01*
Y211480D01*
X102720D01*
Y212530D01*
X104060D01*
Y219470D01*
X103980D01*
G02X103840Y219810I-2J198D01*
G01X104720Y220690D01*
X128890D01*
X134990Y214590D01*
X137920D01*
X138170Y214340D01*
X139670D01*
Y213470D01*
X149950D01*
Y214340D01*
X151130D01*
X151180Y214290D01*
X152300D01*
Y211480D01*
X152230D01*
Y208910D01*
G02X151550Y208630I-398J1D01*
G01X151470Y208710D01*
X149950D01*
Y209580D01*
X139670D01*
Y204420D01*
X149950D01*
Y204430D01*
G02X150630Y204710I400J-5D01*
G01X152230Y203110D01*
Y201520D01*
X152300D01*
Y197150D01*
X152680Y196770D01*
Y193530D01*
X153160D01*
Y188530D01*
G03X156580I1710J0D01*
G01Y193530D01*
X157060D01*
Y200470D01*
X155720D01*
Y201520D01*
X155790D01*
Y211480D01*
X155720D01*
Y212530D01*
X157060D01*
Y217050D01*
X159200Y219190D01*
X161140D01*
Y212730D01*
X165120D01*
Y219190D01*
X184390D01*
X191140Y212440D01*
Y209560D01*
X170290Y188710D01*
Y162410D01*
X160490Y152610D01*
X158990D01*
G02X158600Y153100I1J401D01*
G03X157180Y154950I-1482J332D01*
G01X157100D01*
X152490Y159560D01*
X127860D01*
X122830Y154530D01*
G02X122150Y154820I-280J285D01*
G01Y156360D01*
X126020Y160230D01*
X134480D01*
Y163790D01*
X124520D01*
Y163770D01*
X123390D01*
Y164940D01*
X116450D01*
Y159180D01*
X121010D01*
G02X121290Y158500I-1J-398D01*
G01X120030Y157240D01*
Y152070D01*
G02X119590Y151670I-401J-1D01*
G03X118990Y151510I-81J-901D01*
G02X118730Y151540I-113J167D01*
G03X117500Y151790I-797J-768D01*
G01X117380Y151730D01*
X117050Y152060D01*
Y152520D01*
X117770D01*
Y157480D01*
X114210D01*
Y152520D01*
X114930D01*
Y152070D01*
G02X114740Y151870I-201J1D01*
G03X113990Y151530I48J-1102D01*
G02X113730Y151510I-142J142D01*
G03X112690I-520J-740D01*
G02X112430Y151540I-113J167D01*
G03X110840Y151530I-790J-771D01*
G02X110580Y151510I-142J142D01*
G03X109420Y151410I-520J-740D01*
G02X109130I-145J138D01*
G03X107970Y151510I-640J-640D01*
G02X107710Y151530I-118J162D01*
G03X106120Y151540I-800J-761D01*
G02X105860Y151510I-147J137D01*
G03X104790Y151490I-521J-740D01*
G02X104310I-240J319D01*
G03X103240Y151510I-549J-720D01*
G02X102980Y151540I-113J167D01*
G03X102100Y151870I-791J-771D01*
G02X101670Y152270I-30J399D01*
G01Y159180D01*
X101680Y159190D01*
Y159890D01*
X102020Y160230D01*
X105480D01*
Y163790D01*
X100520D01*
Y161730D01*
X99560Y160770D01*
Y160070D01*
X99550Y160060D01*
Y152070D01*
G02X99120Y151670I-401J-1D01*
G03X98520Y151510I-81J-901D01*
G02X98260Y151530I-118J162D01*
G03X96680Y151550I-800J-761D01*
G03X95220Y151650I-787J-779D01*
G02X94980I-120J159D01*
G03X93520Y151550I-673J-879D01*
G03X91960I-780J-780D01*
G03X90500Y151650I-787J-779D01*
G02X90260I-120J159D01*
G03X88480Y150770I-672J-880D01*
G01Y146250D01*
G03X88520Y145960I1109J5D01*
G01X88530Y145940D01*
Y141750D01*
G02X88190Y141610I-200J3D01*
G01X87910Y141890D01*
X87050D01*
G02X86650Y142330I-1J401D01*
G03X85750Y143320I-900J86D01*
G01X81230D01*
G03X80490Y141890I0J-906D01*
G02X80470Y141630I-162J-118D01*
G03X80220Y141280I757J-805D01*
G02X79570Y141160I-366J161D01*
G01X74770Y145960D01*
X36070D01*
G03Y143840I-1090J-1060D01*
G01X38370D01*
G02X38660Y143160I5J-400D01*
G01X32400Y136900D01*
G02X31720Y137180I-280J285D01*
G01Y138990D01*
X22280D01*
Y130650D01*
X22490D01*
Y129150D01*
X22280D01*
Y116870D01*
X22490D01*
Y115370D01*
X22280D01*
Y103090D01*
X22480D01*
Y99620D01*
X22280D01*
Y87340D01*
X22480D01*
Y83870D01*
X22280D01*
Y71590D01*
X22480D01*
Y68120D01*
X22290D01*
Y67970D01*
X21700D01*
X21690Y67960D01*
X20790D01*
G03Y65840I-1090J-1060D01*
G01X22290D01*
Y65700D01*
X22490D01*
Y64190D01*
X22280D01*
Y64030D01*
X19470D01*
G37*
G36*
G01X32930Y82090D02*
X33370Y82530D01*
X33410Y82550D01*
G03X32100Y85290I-605J1394D01*
G02X31520Y85650I-181J356D01*
G01Y87340D01*
X31720D01*
Y87500D01*
X33240D01*
X34300Y86440D01*
X35310D01*
G03X37920Y87390I1092J1059D01*
G02X38120Y87580I198J-8D01*
G03X38280I80J1520D01*
G02X38590Y86900I30J-397D01*
G01X33440Y81750D01*
X33070D01*
G02X32930Y82090I3J200D01*
G37*
G36*
G01X39680Y88980D02*
Y89050D01*
G02X40020Y89440I400J-6D01*
G03X41310Y90910I-229J1502D01*
G02X41510Y91100I199J-10D01*
G03X43000Y92600I-30J1520D01*
G02X43200Y92800I200J0D01*
G03X44700Y94310I-20J1520D01*
G02X44900Y94510I200J0D01*
G03X44950Y97550I0J1520D01*
G01X44870D01*
X42960Y99460D01*
X31720D01*
Y99620D01*
X31520D01*
Y103090D01*
X31720D01*
Y103250D01*
X56940D01*
X57090Y103100D01*
X73760D01*
X74000Y102860D01*
G02X73860Y102520I-143J-140D01*
G01X54210D01*
X40360Y88670D01*
G02X39680Y88980I-283J280D01*
G37*
G36*
G01X31720Y115210D02*
Y115370D01*
X31510D01*
Y116870D01*
X31720D01*
Y117030D01*
X49120D01*
G03X49730Y117140I-8J1789D01*
G02X50260Y116710I134J-376D01*
G03X50420Y115800I1508J-204D01*
G02X50070Y115210I-351J-190D01*
G01X31720D01*
G37*
G36*
G01X33420Y119150D02*
G02X33130Y119830I-5J400D01*
G01X40040Y126740D01*
X40290D01*
G02X40580Y126070I-3J-399D01*
G03X40540Y123880I1229J-1118D01*
G02Y123620I-152J-130D01*
G03Y121480I1270J-1070D01*
G02Y121220I-152J-130D01*
G03X40220Y119670I1270J-1070D01*
G02X39840Y119150I-381J-120D01*
G01X33420D01*
G37*
G36*
G01X26170Y182110D02*
G02X25890Y182790I5J400D01*
G01X28690Y185590D01*
X31060D01*
X33760Y188290D01*
X41230D01*
Y187520D01*
X44790D01*
Y192480D01*
X41230D01*
Y191710D01*
X32340D01*
X31040Y190410D01*
G02X30360Y190690I-280J285D01*
G01Y191700D01*
X28090D01*
G03X27880Y191710I-186J-1701D01*
G01X25320D01*
X24770Y192260D01*
Y193660D01*
X25220Y194110D01*
X44650D01*
Y200130D01*
X45310Y200790D01*
X47290D01*
X48460Y199620D01*
Y194100D01*
X52060D01*
Y194300D01*
X55940D01*
Y194100D01*
X56030D01*
Y193820D01*
X57210Y192640D01*
Y189940D01*
X55270Y188000D01*
G02X54590Y188280I-282J281D01*
G01Y192280D01*
X51430D01*
Y187720D01*
X54030D01*
G02X54310Y187040I-5J-400D01*
G01X49380Y182110D01*
X26170D01*
G37*
G36*
G01X44490Y34210D02*
G03X45240Y33980I806J1290D01*
G01X45320D01*
X45540Y33760D01*
Y30720D01*
X45380D01*
Y30510D01*
X43870D01*
Y30710D01*
X43720D01*
Y33520D01*
X43660Y33580D01*
Y33710D01*
G03X43930Y34070I-1067J1081D01*
G02X44490Y34210I347J-198D01*
G37*
G36*
G01X40230Y137320D02*
X38520D01*
X35960Y134760D01*
Y129620D01*
X34380Y128040D01*
G02X33700Y128330I-280J285D01*
G01Y135200D01*
X40040Y141540D01*
X40250D01*
G02X40430Y141250I1J-200D01*
G03X40230Y140460I1460J-790D01*
G01Y137320D01*
G37*
G36*
G01X38080Y130730D02*
Y133880D01*
X39400Y135200D01*
X40690D01*
G03X41760Y135590I0J1663D01*
G02X42020I130J-152D01*
G03X42100Y135520I1133J1215D01*
G02X42140Y135240I-116J-159D01*
G03X41800Y134230I1330J-1010D01*
G01Y131090D01*
X39410D01*
X38760Y130440D01*
G02X38080Y130730I-280J285D01*
G37*
G36*
G01X60770Y187910D02*
Y192620D01*
X61420Y193270D01*
X59540Y195150D01*
Y199660D01*
X55940D01*
Y199460D01*
X52060D01*
Y199660D01*
X51970D01*
Y200950D01*
X49260Y203660D01*
G02X49540Y204340I281J282D01*
G01X52060D01*
Y209900D01*
X51970D01*
Y211530D01*
X52060D01*
Y217920D01*
X56140D01*
Y211730D01*
X60120D01*
Y217920D01*
X80540D01*
G02X80820Y217240I-5J-400D01*
G03X82050Y214340I1230J-1189D01*
G01X86670D01*
Y213470D01*
X96950D01*
Y214340D01*
X98130D01*
X98180Y214290D01*
X99300D01*
Y211480D01*
X99230D01*
Y208910D01*
G02X98550Y208630I-398J1D01*
G01X98470Y208710D01*
X96950D01*
Y209580D01*
X86670D01*
Y204420D01*
X96950D01*
Y204430D01*
G02X97630Y204710I400J-5D01*
G01X99230Y203110D01*
Y201520D01*
X100160D01*
Y200470D01*
X99680D01*
Y193530D01*
X99760D01*
G02X99900Y193190I2J-198D01*
G01X94620Y187910D01*
X60770D01*
G37*
G36*
G01X66790Y56440D02*
G02X66130Y56590I-283J283D01*
G03X64760Y57600I-1432J-509D01*
G02X64490Y58280I14J399D01*
G01X72950Y66740D01*
X76120D01*
G02X76410Y66060I5J-400D01*
G01X66790Y56440D01*
G37*
G36*
G01X99550Y140500D02*
G03X101670I1060J-1090D01*
G01Y144750D01*
G02X102100Y145150I400J1D01*
G03X102980Y145480I89J1101D01*
G02X103240Y145510I147J-137D01*
G03X104310Y145530I521J740D01*
G02X104790I240J-319D01*
G03X105420Y145350I547J721D01*
G02X105850Y144950I29J-399D01*
G01Y140500D01*
G03X107970I1060J-1090D01*
G01Y144950D01*
G02X108410Y145350I401J1D01*
G03X109130Y145610I82J901D01*
G02X109420I145J-138D01*
G03X110140Y145350I638J641D01*
G02X110580Y144950I39J-399D01*
G01Y140550D01*
G03X112700I1060J-1090D01*
G01Y144950D01*
G02X113130Y145350I401J1D01*
G03X113290I80J900D01*
G02X113730Y144950I39J-399D01*
G01Y143880D01*
G03X115850I1060J-1090D01*
G01Y144750D01*
G02X116280Y145150I401J0D01*
G03X116450I85J1101D01*
G02X116880Y144750I30J-399D01*
G01Y140530D01*
G03X119000I1060J-1090D01*
G01Y144950D01*
G02X119430Y145350I401J1D01*
G03X119590I80J900D01*
G02X120030Y144950I39J-399D01*
G01Y143980D01*
G03X122150I1060J-1090D01*
G01Y144750D01*
G02X122580Y145150I401J0D01*
G03X123330Y145370I84J1102D01*
G01X123450Y145410D01*
X123570Y145370D01*
G03X125020Y145470I668J880D01*
G03X126480Y145370I787J779D01*
G01X126600Y145410D01*
X126720Y145370D01*
G03X128180Y145470I673J879D01*
G03X128350Y145330I783J778D01*
G02X128410Y144710I-220J-334D01*
G01X125820Y142120D01*
Y140920D01*
X125630Y140720D01*
G03X127220Y139140I70J-1519D01*
G01Y139220D01*
X127940Y139940D01*
Y141240D01*
X131600Y144900D01*
Y144950D01*
G02X132030Y145350I401J1D01*
G03X132190I80J900D01*
G02X132630Y144950I39J-399D01*
G01Y144000D01*
X132900Y143730D01*
Y142000D01*
X131620Y140720D01*
X131540D01*
G03X133120Y139140I60J-1520D01*
G01Y139220D01*
X133360Y139460D01*
G02X134040Y139190I281J-283D01*
G03X136650Y138200I1519J69D01*
G01X140950D01*
G02X141350Y137770I1J-401D01*
G03Y137610I900J-80D01*
G02X140950Y137170I-399J-39D01*
G01X140080D01*
G03Y135050I-1090J-1060D01*
G01X140750D01*
G02X141150Y134620I0J-401D01*
G03X141370Y133870I1102J-84D01*
G01X141410Y133750D01*
X141370Y133630D01*
G03X141470Y132180I880J-668D01*
G03X141370Y130720I779J-787D01*
G01X141410Y130600D01*
X141370Y130480D01*
G03X141150Y129730I882J-666D01*
G02X140750Y129300I-400J-29D01*
G01X135850D01*
G03Y127180I-1090J-1060D01*
G01X140950D01*
G02X141350Y126740I1J-401D01*
G03Y126580I900J-80D01*
G02X140950Y126150I-399J-29D01*
G01X140100D01*
G03Y124030I-1090J-1060D01*
G01X140750D01*
G02X141150Y123600I1J-400D01*
G03X141470Y122720I1102J-97D01*
G03X141370Y121270I780J-782D01*
G01X141410Y121150D01*
X141370Y121030D01*
G03X141470Y119580I880J-668D01*
G03X141370Y118120I779J-787D01*
G01X141410Y118000D01*
X141370Y117880D01*
G03X141470Y116420I879J-673D01*
G03X141150Y115550I780J-781D01*
G02X140750Y115120I-399J-30D01*
G01X135830D01*
G03Y113000I-1090J-1060D01*
G01X140950D01*
G02X141350Y112570I1J-401D01*
G03Y112410I900J-80D01*
G02X140950Y111970I-399J-39D01*
G01X139900D01*
G03Y109850I-1090J-1060D01*
G01X140750D01*
G02X141150Y109420I0J-401D01*
G03X141370Y108670I1102J-84D01*
G01X141410Y108550D01*
X141370Y108430D01*
G03X141470Y106980I880J-668D01*
G03X141370Y105520I779J-787D01*
G01X141410Y105400D01*
X141370Y105280D01*
G03X141470Y103820I879J-673D01*
G03X141150Y102950I780J-781D01*
G02X140750Y102520I-399J-30D01*
G01X136920D01*
X133220Y98820D01*
X133140D01*
G03X132520Y95940I59J-1519D01*
G01X132630Y95890D01*
Y91250D01*
G02X132200Y90850I-400J-1D01*
G03X131320Y90530I-97J-1102D01*
G03X129870Y90630I-782J-780D01*
G01X129750Y90590D01*
X129630Y90630D01*
G03X128180Y90530I-668J-880D01*
G03X126720Y90630I-787J-779D01*
G01X126600Y90590D01*
X126480Y90630D01*
G03X125020Y90530I-673J-879D01*
G03X123570Y90630I-782J-780D01*
G01X123450Y90590D01*
X123330Y90630D01*
G03X121880Y90530I-668J-880D01*
G03X121000Y90850I-783J-782D01*
G02X120570Y91250I-30J399D01*
G01Y91900D01*
G03X118450I-1060J1090D01*
G01Y91050D01*
G02X118020Y90650I-401J-1D01*
G03X117860I-80J-900D01*
G02X117420Y91050I-39J399D01*
G01Y95670D01*
G03X115300I-1060J1090D01*
G01Y91250D01*
G02X114870Y90850I-401J0D01*
G03X114120Y90630I-84J-1102D01*
G01X114000Y90590D01*
X113880Y90630D01*
G03X112420Y90530I-673J-879D01*
G03X110970Y90630I-782J-780D01*
G01X110850Y90590D01*
X110730Y90630D01*
G03X109280Y90530I-668J-880D01*
G03X107820Y90630I-787J-779D01*
G01X107700Y90590D01*
X107580Y90630D01*
G03X106830Y90850I-666J-882D01*
G02X106400Y91250I-29J400D01*
G01Y91850D01*
G03X104280I-1060J1090D01*
G01Y91050D01*
G02X103840Y90650I-401J-1D01*
G03X103680I-80J-900D01*
G02X103250Y91050I-29J399D01*
G01Y95600D01*
G03X101130I-1060J1090D01*
G01Y91250D01*
G02X100700Y90850I-400J-1D01*
G03X99820Y90530I-97J-1102D01*
G03X98370Y90630I-782J-780D01*
G01X98250Y90590D01*
X98130Y90630D01*
G03X96680Y90530I-668J-880D01*
G03X95220Y90630I-787J-779D01*
G01X95100Y90590D01*
X94980Y90630D01*
G03X93520Y90530I-673J-879D01*
G03X92900Y90840I-778J-782D01*
G01X92830Y90850D01*
X92640Y91040D01*
X93080Y91480D01*
X93160D01*
G03X91580Y93060I-60J1520D01*
G01Y92980D01*
X90110Y91510D01*
Y91050D01*
G02X89670Y90650I-401J-1D01*
G03X88680Y89750I-86J-900D01*
G01Y85230D01*
G03X90110Y84490I906J0D01*
G02X90370Y84470I118J-162D01*
G03X90700Y84230I804J758D01*
G02X90810Y83580I-168J-363D01*
G01X88410Y81180D01*
X61010D01*
X53730Y88460D01*
Y88540D01*
G03X53040Y89750I-1518J-64D01*
G02X52980Y90370I221J334D01*
G01X56720Y94110D01*
X79730D01*
G02X80130Y93680I1J-400D01*
G03X81230Y92480I1100J-96D01*
G01X85750D01*
G03X86040Y92520I-5J1109D01*
G01X86060Y92530D01*
X89630D01*
X93080Y95980D01*
X93160D01*
G03X91580Y97560I-60J1520D01*
G01Y97480D01*
X88750Y94650D01*
X87250D01*
G02X86850Y95080I-1J400D01*
G03X86530Y95960I-1102J97D01*
G03Y97520I-780J780D01*
G03X86630Y98980I-779J787D01*
G01X86590Y99100D01*
X86630Y99220D01*
G03X86530Y100680I-879J673D01*
G03X86850Y101550I-780J781D01*
G02X87250Y101980I399J30D01*
G01X87550D01*
X87610Y101930D01*
G03X87550Y104100I1031J1114D01*
G01X87050D01*
G02X86650Y104530I-1J401D01*
G03Y104690I-900J80D01*
G02X87050Y105130I399J39D01*
G01X90720D01*
G03Y107250I1090J1060D01*
G01X87050D01*
G02X86650Y107680I-1J401D01*
G03Y107840I-900J80D01*
G02X87050Y108280I399J39D01*
G01X87570D01*
G03X87630Y110450I1091J1056D01*
G01X87570Y110400D01*
X87250D01*
G02X86850Y110830I0J401D01*
G03X86630Y111580I-1102J84D01*
G01X86590Y111700D01*
X86630Y111820D01*
G03X86530Y113280I-879J673D01*
G03X86630Y114730I-780J782D01*
G01X86590Y114850D01*
X86630Y114970D01*
G03X86530Y116420I-880J668D01*
G03X86850Y117300I-782J783D01*
G02X87250Y117730I399J30D01*
G01X87600D01*
X87660Y117680D01*
G03X87600Y119850I1031J1114D01*
G01X87050D01*
G02X86650Y120280I-1J401D01*
G03Y120440I-900J80D01*
G02X87050Y120880I399J39D01*
G01X90670D01*
G03Y123000I1090J1060D01*
G01X87250D01*
G02X86850Y123430I0J401D01*
G03X86630Y124180I-1102J84D01*
G01X86590Y124300D01*
X86630Y124420D01*
G03X86530Y125880I-879J673D01*
G03X86850Y126750I-780J781D01*
G02X87250Y127180I399J30D01*
G01X87470D01*
X87530Y127130D01*
G03Y129350I1030J1110D01*
G01X87470Y129300D01*
X87050D01*
G02X86650Y129730I-1J401D01*
G03Y129890I-900J80D01*
G02X87050Y130330I399J39D01*
G01X90700D01*
G03Y132450I1090J1060D01*
G01X87250D01*
G02X86850Y132880I0J401D01*
G03X86630Y133630I-1102J84D01*
G01X86590Y133750D01*
X86630Y133870D01*
G03X86530Y135320I-880J668D01*
G03X86630Y136780I-779J787D01*
G01X86590Y136900D01*
X86630Y137020D01*
G03X86530Y138480I-879J673D01*
G03X86840Y139450I-779J784D01*
G01X86820Y139550D01*
X87040Y139760D01*
X87380Y139420D01*
Y139340D01*
G03X90330Y138870I1521J54D01*
G01X90340Y138910D01*
X90370Y138940D01*
G02X90660I145J-137D01*
G01X90780Y138820D01*
X91290D01*
X91370Y138730D01*
X91380Y138630D01*
G03X92960Y140220I1519J70D01*
G01X92880D01*
X92160Y140940D01*
X91660D01*
X90650Y141950D01*
Y144750D01*
G02X91080Y145150I400J1D01*
G03X91960Y145470I97J1102D01*
G03X93520I780J780D01*
G03X94980Y145370I787J779D01*
G01X95100Y145410D01*
X95220Y145370D01*
G03X95970Y145150I666J882D01*
G02X96400Y144750I29J-400D01*
G01Y143790D01*
G03X98520I1060J-1090D01*
G01Y144950D01*
G02X98960Y145350I401J1D01*
G03X99120I80J900D01*
G02X99550Y144950I29J-399D01*
G01Y140500D01*
G37*
G36*
G01X57570Y135200D02*
X58150D01*
X63270Y130080D01*
Y130000D01*
G03X63680Y129030I1517J70D01*
G02X63530Y128690I-147J-138D01*
G01X63250D01*
X62130Y127570D01*
X62000D01*
G03X60970Y128030I-1091J-1059D01*
G01X60890D01*
X57830Y131090D01*
X57620D01*
G02X57230Y131560I3J399D01*
G03X56860Y132900I-1639J268D01*
G02Y133160I152J130D01*
G03X57190Y134690I-1268J1074D01*
G02X57570Y135200I382J112D01*
G37*
G36*
G01X64330Y114240D02*
X61510Y117060D01*
X61210D01*
G02X60920Y117740I-5J400D01*
G01X64750Y121570D01*
G02X65430Y121290I282J-281D01*
G01Y118720D01*
X68590D01*
Y122760D01*
X71210D01*
Y114240D01*
X68590D01*
Y118280D01*
X65430D01*
Y114240D01*
X64330D01*
G37*
G36*
G01X51980Y119410D02*
Y124950D01*
G03X51550Y126070I-1674J0D01*
G02X51840Y126740I293J271D01*
G01X56700D01*
X58000Y125440D01*
Y125300D01*
X59830Y123470D01*
X62680D01*
G02X62970Y122790I5J-400D01*
G01X59590Y119410D01*
X54710D01*
G03X52590Y119460I-1086J-1061D01*
G01X52530Y119410D01*
X51980D01*
G37*
G36*
G01X77290Y127720D02*
X73890Y131120D01*
X65880D01*
G03X64850Y131580I-1091J-1059D01*
G01X64770D01*
X59030Y137320D01*
X58260D01*
G02X57870Y137790I3J399D01*
G03X57500Y139130I-1639J268D01*
G02Y139390I152J130D01*
G03X57800Y141010I-1269J1073D01*
G02X58170Y141540I377J131D01*
G01X60910D01*
X66140Y136310D01*
Y136230D01*
G03X67720Y137810I1520J60D01*
G01X67640D01*
X62290Y143160D01*
G02X62580Y143840I285J280D01*
G01X73890D01*
X79530Y138200D01*
X79730D01*
G02X80130Y137770I0J-401D01*
G03X80350Y137020I1102J-84D01*
G02Y136780I-159J-120D01*
G03X80450Y135320I879J-673D01*
G03X80350Y133870I780J-782D01*
G02Y133630I-159J-120D01*
G03X80450Y132180I880J-668D01*
G03X80470Y130590I779J-785D01*
G02X80490Y130330I-142J-142D01*
G03Y129290I740J-520D01*
G02X80460Y129030I-167J-113D01*
G03X80130Y128150I771J-791D01*
G02X79730Y127720I-399J-30D01*
G01X77290D01*
G37*
G36*
G01X82400Y18800D02*
X82310Y18810D01*
X65370D01*
Y21280D01*
X81280D01*
Y21490D01*
X82790D01*
Y21290D01*
X82940D01*
Y19340D01*
X82400Y18800D01*
G37*
G36*
G01X73100Y34110D02*
G02X72420Y33820I-400J-5D01*
G01X70310Y35930D01*
G02X70370Y36550I281J286D01*
G03X71060Y37840I-829J1273D01*
G02X71460Y38250I400J10D01*
G03X72440Y38620I-14J1519D01*
G02X73100Y38310I259J-306D01*
G01Y34110D01*
G37*
G36*
G01X73160Y47260D02*
G03X72750Y48220I-1517J-80D01*
G01X72700Y48280D01*
Y48680D01*
G02X73100Y49080I400J0D01*
G03X74160Y51690I0J1520D01*
G01Y52880D01*
X80520Y59240D01*
X85110D01*
G02X85400Y58560I5J-400D01*
G01X73840Y47000D01*
G02X73160Y47260I-282J283D01*
G37*
G36*
G01X80490Y105130D02*
G03Y104090I740J-520D01*
G02X80460Y103830I-167J-113D01*
G03X80130Y102950I771J-791D01*
G02X79730Y102520I-399J-30D01*
G01X78980D01*
G02X78590Y103000I1J399D01*
G03X76010Y104370I-1489J311D01*
G01X75490D01*
X74510Y105350D01*
X74560Y105470D01*
G03X72110Y107120I-1421J535D01*
G01X72050Y107070D01*
X71750D01*
G02X71360Y107520I6J399D01*
G03X69190Y109080I-1509J190D01*
G02X68630Y109370I-168J362D01*
G03X66780Y110590I-1499J-260D01*
G02X66300Y110880I-92J390D01*
G03X66010Y111470I-1476J-359D01*
G02X66320Y112120I311J251D01*
G01X75000D01*
X75240Y112360D01*
X75410Y112190D01*
X75420Y112160D01*
G03X77420Y111410I1380J639D01*
G01X77460Y111430D01*
X79730D01*
G02X80130Y111000I1J-400D01*
G03X80450Y110120I1102J-97D01*
G03X80470Y108540I781J-780D01*
G02X80490Y108280I-142J-142D01*
G03Y107240I740J-520D01*
G02X80460Y106980I-167J-113D01*
G03X80470Y105390I771J-790D01*
G02X80490Y105130I-142J-142D01*
G37*
G36*
G01X67150Y125380D02*
G03X67170Y126090I-1469J397D01*
G02X67560Y126570I391J81D01*
G01X72230D01*
X73240Y125560D01*
G02X72950Y124880I-285J-280D01*
G01X67530D01*
G02X67150Y125380I6J399D01*
G37*
G36*
G01X75450Y118030D02*
G02X74770Y118310I-282J281D01*
G01Y119940D01*
X75360D01*
X76300Y120880D01*
X79930D01*
G02X80330Y120440I1J-401D01*
G03Y120280I900J-80D01*
G02X79930Y119850I-399J-29D01*
G01X77270D01*
X75450Y118030D01*
G37*
G36*
G01X100350Y9380D02*
Y21880D01*
X87330D01*
Y10850D01*
G02X86650Y10570I-400J5D01*
G01X85910Y11310D01*
Y15810D01*
X84160Y17560D01*
X85060Y18460D01*
Y21290D01*
X85210D01*
Y30710D01*
X82790D01*
Y30510D01*
X81280D01*
Y30720D01*
X81120D01*
Y42920D01*
X89440Y51240D01*
X127640D01*
X167480Y91080D01*
X167560D01*
G03X167540Y94120I-50J1520D01*
G02X167150Y94460I6J400D01*
G03X165690Y95750I-1502J-229D01*
G02X165300Y96090I6J400D01*
G03X163980Y97370I-1502J-228D01*
G02X163800Y97570I20J199D01*
G03X160760Y97660I-1520J30D01*
G01Y97580D01*
X122440Y59260D01*
X99830D01*
G02X99540Y59940I-5J400D01*
G01X109040Y69440D01*
X109120D01*
G03X110580Y70900I-60J1520D01*
G01Y70980D01*
X113560Y73960D01*
Y75210D01*
X123480D01*
Y78770D01*
X122060D01*
Y82640D01*
X121200Y83500D01*
G02X121380Y84160I287J276D01*
G03X121880Y84450I-287J1070D01*
G03X123330Y84350I782J780D01*
G02X123570I120J-159D01*
G03X125020Y84450I668J880D01*
G03X126480Y84350I787J779D01*
G02X126720I120J-159D01*
G03X128180Y84450I673J879D01*
G03X129630Y84350I782J780D01*
G02X129870I120J-159D01*
G03X131320Y84450I668J880D01*
G03X132780Y84350I787J779D01*
G02X133020I120J-159D01*
G03X134480Y84460I668J880D01*
G02X134740Y84490I147J-137D01*
G03X135780I520J740D01*
G02X136040Y84460I113J-167D01*
G03X137630Y84470I790J771D01*
G02X137890Y84490I142J-142D01*
G03X139320Y85230I524J740D01*
G01Y89750D01*
G03X138330Y90650I-904J0D01*
G02X137890Y91050I-39J399D01*
G01Y92820D01*
X138020Y92870D01*
G03X138520Y93170I-518J1430D01*
G02X138790I135J-146D01*
G01X139430Y92530D01*
X141940D01*
X141960Y92520D01*
G03X142250Y92480I295J1069D01*
G01X146770D01*
G03X147650Y94260I0J1108D01*
G02Y94500I159J120D01*
G03X147550Y95960I-879J673D01*
G03Y97520I-780J780D01*
G03X147530Y99110I-779J785D01*
G02X147510Y99370I142J142D01*
G03Y100410I-740J520D01*
G02X147540Y100670I167J113D01*
G03X147870Y101550I-771J791D01*
G02X148270Y101980I399J30D01*
G01X163720D01*
X175540Y90160D01*
Y39960D01*
X190360Y25140D01*
X192940D01*
G02X193130Y24390I-1J-399D01*
G03X191300Y19870I1871J-3388D01*
G01X191330Y19750D01*
X180960Y9380D01*
X100350D01*
G37*
G36*
G01X191240Y27260D02*
X177660Y40840D01*
Y89450D01*
G02X178340Y89740I400J5D01*
G01X178640Y89440D01*
Y81080D01*
G03X180760I1060J-1090D01*
G01Y90320D01*
X166630Y104450D01*
G02X166920Y105130I285J280D01*
G01X175360D01*
X176450Y104040D01*
X177460D01*
G03X180040Y105400I1090J1060D01*
G02X180430Y105880I391J80D01*
G03X181920Y107380I-30J1520D01*
G02X182110Y107570I199J-9D01*
G01X182120D01*
G02X182540Y107170I21J-399D01*
G01Y97620D01*
G03X183950Y95050I1059J-1091D01*
G02X184440Y94660I90J-389D01*
G01Y85020D01*
G03X185850Y82450I1059J-1091D01*
G02X186340Y82060I90J-389D01*
G01Y58960D01*
X189560Y55740D01*
X198760D01*
X201620Y52880D01*
X201550Y52750D01*
G03X203120Y54380I3450J-1751D01*
G01X199640Y57860D01*
X198270D01*
G02X197970Y58520I4J400D01*
G03X192030I-2970J2480D01*
G02X191730Y57860I-304J-260D01*
G01X190440D01*
X188460Y59840D01*
Y109070D01*
G02X189140Y109360I400J5D01*
G01X193390Y105110D01*
G02X193280Y104470I-283J-281D01*
G03X196060Y104720I1713J-3470D01*
G01Y105440D01*
X195040Y106460D01*
G02X195290Y107140I283J282D01*
G03X193250Y114450I-289J3859D01*
G01X193120Y114380D01*
X190760Y116740D01*
Y119130D01*
G02X191520Y119310I400J4D01*
G03Y122690I3480J1690D01*
G02X190760Y122870I-360J176D01*
G01Y123010D01*
X188060Y125710D01*
X181090D01*
X178440Y123060D01*
X172580D01*
G02X172230Y123650I3J401D01*
G03X172420Y124320I-1328J739D01*
G01Y124400D01*
X190670Y142650D01*
G02X191340Y142240I291J-276D01*
G03X197730Y143740I3663J-1242D01*
G02Y144310I281J285D01*
G01X201690Y148270D01*
G02X202260I285J-281D01*
G03X202520Y153970I2741J2731D01*
G02X201860Y154270I-260J304D01*
G01Y157730D01*
G02X202520Y158030I400J-4D01*
G03Y163970I2480J2970D01*
G02X201860Y164270I-260J304D01*
G01Y166360D01*
X203120Y167620D01*
X203250Y167550D01*
G03X201550Y169250I1750J3450D01*
G01X201620Y169120D01*
X201140Y168640D01*
G02X200460Y168930I-280J285D01*
G01Y174960D01*
X203120Y177620D01*
X203250Y177550D01*
G03X201620Y179120I1751J3450D01*
G01X198340Y175840D01*
Y174100D01*
G02X197660Y173810I-400J-4D01*
G03Y168190I-2660J-2810D01*
G02X198340Y167900I280J-286D01*
G01Y164100D01*
G02X197660Y163810I-400J-4D01*
G03X191280Y162060I-2659J-2811D01*
G01X185860D01*
X185540Y161740D01*
G02X184860Y162030I-280J285D01*
G01Y179360D01*
X193120Y187620D01*
X193250Y187550D01*
G03X191620Y189120I1751J3450D01*
G01X182740Y180240D01*
Y160920D01*
X163450Y141630D01*
G02X162770Y141910I-282J281D01*
G01Y144630D01*
X162910Y144770D01*
Y150190D01*
X173710Y160990D01*
Y187290D01*
X193560Y207140D01*
X198860D01*
Y214860D01*
X193560D01*
X185810Y222610D01*
X157780D01*
X154640Y219470D01*
X152680D01*
Y217760D01*
X149950D01*
Y218630D01*
X139670D01*
Y218020D01*
X139430Y217920D01*
X139340Y218010D01*
X136410D01*
X130310Y224110D01*
X103300D01*
X100160Y220970D01*
Y219470D01*
X99680D01*
Y217760D01*
X96950D01*
Y218630D01*
X92210D01*
G02X91930Y219310I5J400D01*
G01X97310Y224690D01*
X200090D01*
X215790Y208990D01*
Y44110D01*
X209540Y37860D01*
X208010D01*
G02X207710Y38530I-3J401D01*
G03X202290I-2710J2470D01*
G02X201990Y37860I-297J-269D01*
G01X199440D01*
X196250Y34670D01*
X196130Y34700D01*
G03X192590Y27970I-1131J-3701D01*
G02X192340Y27260I-251J-311D01*
G01X191240D01*
G37*
G36*
G01X117150Y78770D02*
Y82970D01*
X117420Y83240D01*
Y83930D01*
G02X117860Y84330I401J1D01*
G03X118020I80J900D01*
G02X118450Y83930I29J-399D01*
G01Y83250D01*
X119940Y81760D01*
Y78770D01*
X117150D01*
G37*
G36*
G01X141390Y99370D02*
X141070D01*
X137520Y95820D01*
X137440D01*
G03X135980Y94360I60J-1520D01*
G01Y94280D01*
X135770Y94070D01*
Y91050D01*
G02X135340Y90650I-401J-1D01*
G03X135180I-80J-900D01*
G02X134750Y91050I-29J399D01*
G01Y97350D01*
X137800Y100400D01*
X140950D01*
G02X141350Y99970I1J-401D01*
G03X141380Y99630I901J-92D01*
G01X141390Y99600D01*
Y99370D01*
G37*
G36*
G01X145850Y147210D02*
G03X148270Y144790I1210J-1210D01*
G01X152670Y149190D01*
X159490D01*
Y146190D01*
X159280Y145980D01*
Y144480D01*
X159210D01*
Y139760D01*
X156790D01*
Y144480D01*
X153230D01*
Y143470D01*
X147080D01*
X147060Y143480D01*
G03X146770Y143520I-295J-1069D01*
G01X142250D01*
G03X141370Y141740I0J-1108D01*
G02Y141500I-159J-120D01*
G03X141150Y140750I882J-666D01*
G02X140750Y140320I-400J-29D01*
G01X139090D01*
G02X138800Y141000I-5J400D01*
G01X139470Y141670D01*
Y145940D01*
X139480Y145960D01*
G03X139520Y146250I-1069J295D01*
G01Y150770D01*
G03X139400Y151260I-1107J-11D01*
G02X139760Y151840I357J180D01*
G01X142040D01*
X142490Y151390D01*
X143500D01*
G03X146020Y151940I1089J1060D01*
G02X146680Y152090I377J-133D01*
G03X148910Y152210I1060J1090D01*
G02X149530I310J-253D01*
G03X149870Y151910I1164J976D01*
G02X149930Y151290I-220J-334D01*
G01X145850Y147210D01*
G37*
G36*
G01X134820Y140920D02*
X135020Y141120D01*
Y144610D01*
X134750Y144880D01*
Y145390D01*
X134980D01*
X135010Y145380D01*
G03X135900Y145610I250J870D01*
G02X136190I145J-138D01*
G03X136910Y145350I638J641D01*
G02X137350Y144950I39J-399D01*
G01Y142550D01*
X135580Y140780D01*
X135500D01*
G03X135150Y140720I80J-1517D01*
G01X135040Y140690D01*
X134820Y140920D01*
G37*
G36*
G01X151980Y110240D02*
X151820Y110400D01*
X148270D01*
G02X147870Y110830I0J401D01*
G03X147530Y111710I-1101J80D01*
G02X147510Y111970I142J142D01*
G03X147670Y112570I-741J519D01*
G02X148070Y113000I399J29D01*
G01X149390D01*
X151450Y110940D01*
X153230D01*
Y110240D01*
X151980D01*
G37*
G36*
G01X156790D02*
Y114580D01*
X159410D01*
Y110240D01*
X156790D01*
G37*
G36*
G01X147670Y126580D02*
G03X147510Y127180I-901J81D01*
G02X147530Y127440I162J118D01*
G03X147870Y128320I-761J800D01*
G02X148270Y128750I400J29D01*
G01X153230D01*
Y127860D01*
X151100D01*
X149390Y126150D01*
X148070D01*
G02X147670Y126580I-1J401D01*
G37*
G36*
G01X156790Y124570D02*
Y128750D01*
X159410D01*
Y124570D01*
X156790D01*
G37*
G36*
G01X147870Y136030D02*
G03X147530Y136910I-1101J80D01*
G02X147510Y137170I142J142D01*
G03Y138210I-740J520D01*
G02X147540Y138470I167J113D01*
G03X147870Y139340I-771J790D01*
G02X148270Y139770I400J29D01*
G01X151410D01*
X153540Y137640D01*
X160470D01*
G02X160760Y136960I5J-400D01*
G01X159400Y135600D01*
X148270D01*
G02X147870Y136030I0J401D01*
G37*
G36*
G01X162570Y110240D02*
Y114580D01*
X165010D01*
X165650Y113940D01*
X178310D01*
X181270Y110980D01*
G02X181210Y110360I-281J-286D01*
G03X181130Y110310I765J-1313D01*
G01X164090D01*
X164020Y110240D01*
X162570D01*
G37*
G36*
G01X189440Y145740D02*
X189790D01*
G02X190080Y145060I5J-400D01*
G01X181250Y136230D01*
G02X180570Y136520I-280J285D01*
G01Y138100D01*
G03X180780Y140020I-1061J1088D01*
G02X181120Y140640I336J219D01*
G01X184340D01*
X189440Y145740D01*
G37*
G36*
G01X191730Y147860D02*
X188560D01*
X187330Y146630D01*
G02X186660Y146810I-283J284D01*
G03X185670Y147840I-1460J-412D01*
G02X185420Y148370I125J383D01*
G03X185430Y149410I-1421J534D01*
G02X185810Y149940I379J130D01*
G01X191280D01*
G03X192030Y148520I3722J1058D01*
G02X191730Y147860I-304J-260D01*
G37*
G36*
G01X179540Y152740D02*
X186740Y159940D01*
X191280D01*
G03X197660Y158190I3721J1061D01*
G02X198340Y157900I280J-286D01*
G01Y154100D01*
G02X197660Y153810I-400J-4D01*
G03X191280Y152060I-2659J-2811D01*
G01X179830D01*
G02X179540Y152740I-5J400D01*
G37*
%LPC*%
G75*
G36*
G01X111790Y157480D02*
Y152520D01*
X108230D01*
Y157480D01*
X108950D01*
Y158070D01*
X109020Y158140D01*
Y159180D01*
X106610D01*
Y164940D01*
X113550D01*
Y159180D01*
X111140D01*
Y157480D01*
X111790D01*
G37*
G36*
G01X56380Y203750D02*
G03X56030Y204340I-350J191D01*
G01X55940D01*
Y209900D01*
X59540D01*
Y204340D01*
X59370D01*
G03X59020Y203750I0J-399D01*
G02X56380I-1320J-750D01*
G37*
G54D37*
X121190Y207000D03*
X68190D03*
G54D30*
X195000Y41000D03*
Y201000D03*
X205000Y101000D03*
G54D34*
X106990Y209000D03*
Y204000D03*
X159990D03*
Y209000D03*
X48990Y190000D03*
G54D32*
X103000Y167990D03*
X127000D03*
X132000D03*
X121000Y71010D03*
X116000D03*
G54D31*
X195000Y51000D03*
Y71000D03*
Y81000D03*
Y91000D03*
Y131000D03*
Y181000D03*
X205000Y61000D03*
Y71000D03*
Y81000D03*
Y91000D03*
Y111000D03*
Y121000D03*
Y131000D03*
Y141000D03*
Y191000D03*
Y201000D03*
Y211000D03*
G54D33*
X110080Y169940D03*
G54D35*
X110130Y197000D03*
Y216000D03*
X163130Y197000D03*
G54D36*
X119920Y169940D03*
G54D38*
X144810Y197950D03*
X91810D03*
%LPD*%
G75*
G54D10*
X9700Y6800D03*
X17700Y22600D03*
X12100Y64600D03*
X16100Y61100D03*
Y71600D03*
X8670Y86730D03*
X16500Y187900D03*
X18400Y33100D03*
X19700Y66900D03*
X20900Y84600D03*
X32800Y83940D03*
X20400Y129900D03*
X31400Y160000D03*
X19200Y200900D03*
X42600Y34800D03*
X45300Y35500D03*
X41800Y48700D03*
X48600Y35000D03*
X42500Y63600D03*
X43840Y80100D03*
X45470Y81730D03*
X36400Y87500D03*
X38160Y89100D03*
X39790Y90940D03*
X47170Y83430D03*
X41480Y92620D03*
X48920Y85180D03*
X43180Y94320D03*
X44890Y96030D03*
X38400Y122300D03*
X39800Y133400D03*
X38700Y138800D03*
X34980Y144900D03*
X45100Y162100D03*
X46900Y184400D03*
X37300Y212700D03*
X53800Y13500D03*
X58300Y33600D03*
X62090Y33120D03*
X64260Y33900D03*
X56930Y38660D03*
X60300Y35900D03*
X52830Y36180D03*
X50590Y36750D03*
X54540Y37730D03*
X62630Y54220D03*
X64700Y56080D03*
X63050Y72070D03*
X64920Y73920D03*
X50580Y86840D03*
X52210Y88480D03*
X64830Y110510D03*
X62540Y111910D03*
X53300Y125900D03*
X53620Y118350D03*
X60910Y126510D03*
X58860Y116000D03*
X51770Y116500D03*
X65680Y125780D03*
X58800Y132600D03*
X64790Y130060D03*
X58900Y163600D03*
X57700Y203000D03*
X55200Y225600D03*
X71640Y47190D03*
Y43230D03*
X71450Y39770D03*
X69540Y37820D03*
X72200Y36100D03*
X73100Y50600D03*
X70300Y62200D03*
X78900Y54800D03*
X66800Y86400D03*
X77100Y103310D03*
X73140Y106010D03*
X69850Y107710D03*
X67130Y109110D03*
X76800Y112800D03*
X67010Y118520D03*
X71900Y125700D03*
X78700Y114500D03*
X67200Y132600D03*
X74800Y136100D03*
X67660Y136290D03*
X76800Y198000D03*
X74100Y225600D03*
X96970Y71700D03*
X93800Y71600D03*
X93100Y93000D03*
Y97500D03*
X88640Y103040D03*
X88660Y109340D03*
X91810Y106190D03*
X88690Y118790D03*
X88560Y128240D03*
X91760Y121940D03*
X88900Y139400D03*
X97460Y142700D03*
X91790Y131390D03*
X92900Y138700D03*
X84600Y166100D03*
X91800Y190100D03*
X82050Y216050D03*
X109200Y41800D03*
X99100Y40700D03*
X112700Y64300D03*
X109060Y70960D03*
X106280Y71070D03*
X103260Y71150D03*
X99870Y71130D03*
X102500Y82700D03*
X105340Y92940D03*
X102190Y96690D03*
X104900Y110900D03*
X104300Y130600D03*
X100610Y139410D03*
X106910D03*
X111640Y139460D03*
X98200Y221800D03*
X118700Y24800D03*
X117940Y82640D03*
X119510Y92990D03*
X116360Y96760D03*
X119900Y109600D03*
Y130800D03*
X114790Y142790D03*
X121090Y142890D03*
X117940Y139440D03*
X125700Y139200D03*
X117300Y182400D03*
X139700Y17500D03*
X137100Y38200D03*
X132200Y76800D03*
X144900Y86600D03*
X137500Y94300D03*
X133200Y97300D03*
X138810Y110910D03*
X139010Y125090D03*
X134740Y114060D03*
X134760Y128240D03*
X136200Y144300D03*
X132110Y143400D03*
X138990Y136110D03*
X131600Y139200D03*
X135560Y139260D03*
X144200Y148300D03*
X144590Y152450D03*
X140100Y177700D03*
X131000Y206600D03*
X160000Y24400D03*
X152700Y51200D03*
X158400Y112000D03*
X149100Y111500D03*
X149500Y99900D03*
X158700Y126800D03*
X147060Y146000D03*
X147740Y153180D03*
X150700D03*
X153670Y153430D03*
X157120D03*
X154870Y188530D03*
X167200Y42900D03*
X162100Y62500D03*
X165650Y94230D03*
X167500Y92600D03*
X162280Y97600D03*
X163800Y95860D03*
X169200Y112300D03*
X167260Y127220D03*
X169040Y125750D03*
X170900Y124380D03*
X163700Y129260D03*
X164400Y126700D03*
X170500Y153800D03*
X164400Y172300D03*
X175300Y206700D03*
X185400Y45800D03*
X182100Y61000D03*
X179700Y79990D03*
X184000Y78800D03*
X182600Y88800D03*
X185500Y83930D03*
X183600Y96530D03*
X182040Y109090D03*
X180400Y107400D03*
X178550Y105100D03*
X189600Y102900D03*
X185800Y118400D03*
X186850Y122800D03*
X185000Y120800D03*
X177560Y137240D03*
X179510Y139190D03*
X182600Y139200D03*
X181600Y143900D03*
X190100Y156200D03*
X189000Y148900D03*
X184000D03*
X185200Y146400D03*
X188200Y179100D03*
X200200Y7400D03*
X219800Y26600D03*
X223800Y75500D03*
Y107800D03*
X223400Y143300D03*
X223800Y190100D03*
X223100Y222000D03*
G54D20*
X49870Y215000D03*
X58130D03*
X101870Y197000D03*
X110130D03*
X101870Y216000D03*
X110130D03*
X154870Y197000D03*
Y216000D03*
X163130Y197000D03*
Y216000D03*
G54D11*
X16370Y51160D03*
Y147610D03*
X32820Y15370D03*
X93840D03*
G54D12*
X11000Y198000D03*
Y208000D03*
X195000Y21000D03*
Y31000D03*
Y41000D03*
Y51000D03*
Y61000D03*
Y71000D03*
Y81000D03*
Y91000D03*
Y101000D03*
Y111000D03*
Y121000D03*
Y131000D03*
Y141000D03*
Y151000D03*
Y161000D03*
Y171000D03*
Y181000D03*
Y191000D03*
Y201000D03*
X205000Y21000D03*
Y31000D03*
Y41000D03*
Y51000D03*
Y61000D03*
Y71000D03*
Y81000D03*
Y91000D03*
Y101000D03*
Y111000D03*
Y121000D03*
Y131000D03*
Y141000D03*
Y151000D03*
Y161000D03*
Y171000D03*
Y181000D03*
Y191000D03*
Y201000D03*
Y211000D03*
G54D21*
X68190Y207000D03*
X121190D03*
G54D13*
X11000Y218000D03*
X195000Y211000D03*
G54D22*
X83490Y93590D03*
Y95170D03*
Y96740D03*
Y98310D03*
Y99890D03*
Y101460D03*
Y103040D03*
Y104610D03*
Y106190D03*
Y107760D03*
Y109340D03*
Y110910D03*
Y112490D03*
Y114060D03*
Y115640D03*
Y117210D03*
Y118790D03*
Y120360D03*
Y121940D03*
Y123510D03*
Y125090D03*
Y126660D03*
Y128240D03*
Y129810D03*
Y131390D03*
Y132960D03*
Y134540D03*
Y136110D03*
Y137690D03*
Y139260D03*
Y140830D03*
Y142410D03*
X144510Y96740D03*
Y95170D03*
Y93590D03*
Y112490D03*
Y110910D03*
Y109340D03*
Y107760D03*
Y106190D03*
Y104610D03*
Y103040D03*
Y101460D03*
Y99890D03*
Y98310D03*
Y128240D03*
Y126660D03*
Y125090D03*
Y123510D03*
Y121940D03*
Y120360D03*
Y118790D03*
Y117210D03*
Y115640D03*
Y114060D03*
Y142410D03*
Y140830D03*
Y139260D03*
Y137690D03*
Y136110D03*
Y134540D03*
Y132960D03*
Y131390D03*
Y129810D03*
G54D14*
X27000Y64940D03*
Y62970D03*
Y61000D03*
Y80690D03*
Y78720D03*
Y76750D03*
Y74780D03*
Y72810D03*
Y70840D03*
Y68870D03*
Y66910D03*
Y96430D03*
Y94460D03*
Y92500D03*
Y90530D03*
Y88560D03*
Y86590D03*
Y84620D03*
Y82650D03*
Y112180D03*
Y110210D03*
Y108240D03*
Y106280D03*
Y104310D03*
Y102340D03*
Y100370D03*
Y98400D03*
Y127930D03*
Y125960D03*
Y123990D03*
Y122020D03*
Y120060D03*
Y118090D03*
Y116120D03*
Y114150D03*
Y137770D03*
Y135800D03*
Y133830D03*
Y131870D03*
Y129900D03*
G54D23*
X95890Y87490D03*
X94310D03*
X92740D03*
X91170D03*
X89590D03*
Y148510D03*
X91170D03*
X92740D03*
X94310D03*
X95890D03*
X113210Y87490D03*
X111640D03*
X110060D03*
X108490D03*
X106910D03*
X105340D03*
X103760D03*
X102190D03*
X100610D03*
X99040D03*
X97460D03*
Y148510D03*
X99040D03*
X100610D03*
X102190D03*
X103760D03*
X105340D03*
X106910D03*
X108490D03*
X110060D03*
X111640D03*
X113210D03*
X128960Y87490D03*
X127390D03*
X125810D03*
X124240D03*
X122660D03*
X121090D03*
X119510D03*
X117940D03*
X116360D03*
X114790D03*
Y148510D03*
X116360D03*
X117940D03*
X119510D03*
X121090D03*
X122660D03*
X124240D03*
X125810D03*
X127390D03*
X128960D03*
X138410Y87490D03*
X136830D03*
X135260D03*
X133690D03*
X132110D03*
X130540D03*
Y148510D03*
X132110D03*
X133690D03*
X135260D03*
X136830D03*
X138410D03*
G54D24*
X91810Y207000D03*
Y197950D03*
Y216050D03*
X144810Y207000D03*
Y197950D03*
Y216050D03*
G54D15*
X27880Y190000D03*
X38120D03*
G54D25*
X110080Y162060D03*
Y169940D03*
X119920Y162060D03*
Y169940D03*
G54D16*
X34000Y198370D03*
Y219630D03*
G54D26*
X103000Y167990D03*
Y162010D03*
X121000Y71010D03*
Y76990D03*
X116000Y71010D03*
Y76990D03*
X127000Y162010D03*
Y167990D03*
X132000D03*
Y162010D03*
G54D17*
X42660Y26000D03*
X44630D03*
X46600D03*
X48570D03*
X50540D03*
X52500D03*
X54470D03*
X56440D03*
X58410D03*
X60380D03*
X62350D03*
X64310D03*
X66280D03*
X68250D03*
X70220D03*
X72190D03*
X74160D03*
X76130D03*
X78090D03*
X80060D03*
X82030D03*
X84000D03*
G54D27*
G01X16370Y44450D02*
Y51160D01*
G01D02*
Y57870D01*
G01X9660Y51160D02*
X16370D01*
G01D02*
X23080D01*
G01X16000Y66000D02*
X19030Y62970D01*
X27000D01*
G01Y61000D02*
X17860D01*
X17760Y61100D01*
X16100D01*
G01X16370Y140900D02*
Y147610D01*
G01D02*
Y154320D01*
G01Y147610D02*
X23080D01*
G01X11000Y194140D02*
Y198000D01*
G01D02*
Y201860D01*
G01X7140Y198000D02*
X11000D01*
G01D02*
X14860D01*
G01X32820Y8660D02*
Y15370D01*
G01D02*
Y22080D01*
G01X26110Y15370D02*
X32820D01*
G01D02*
X39530D01*
G01X22290Y64940D02*
X27000D01*
G01D02*
X31710D01*
G01X22290Y70840D02*
X27000D01*
G01D02*
X31710D01*
G01X22290Y68870D02*
X27000D01*
G01D02*
X31710D01*
G01X19700Y66900D02*
X22130D01*
X22140Y66910D01*
X27000D01*
G01Y74780D02*
X33910D01*
X55870Y96740D01*
X83490D01*
G01X27000Y76750D02*
X33900D01*
X55460Y98310D01*
X83490D01*
G01X27000Y78720D02*
X33890D01*
X55060Y99890D01*
X83490D01*
G01X27000Y80690D02*
X33880D01*
X54650Y101460D01*
X83490D01*
G01X27000Y72810D02*
X33920D01*
X56280Y95170D01*
X83490D01*
G01X36400Y87500D02*
X34740D01*
X33680Y88560D01*
X27000D01*
G01X38160Y89100D02*
Y89340D01*
X36970Y90530D01*
X27000D01*
G01X39790Y90940D02*
X38230Y92500D01*
X27000D01*
G01X41480Y92620D02*
X39640Y94460D01*
X27000D01*
G01X43180Y94320D02*
X41070Y96430D01*
X27000D01*
G01Y84620D02*
X20920D01*
G01D02*
X20900Y84600D01*
G01X22290Y86590D02*
X27000D01*
G01D02*
X31710D01*
G01X32800Y83940D02*
Y83460D01*
X31990Y82650D01*
X27000D01*
G01Y104310D02*
X57380D01*
X57530Y104160D01*
X74200D01*
X75050Y103310D01*
X77100D01*
G01X27000Y106280D02*
X58120D01*
X58540Y105860D01*
X71330D01*
X71480Y106010D01*
X73140D01*
G01X69850Y107710D02*
X69400Y107260D01*
X59460D01*
X58480Y108240D01*
X27000D01*
G01Y110210D02*
X58490D01*
X60040Y108660D01*
X66680D01*
X67130Y109110D01*
G01X27000Y112180D02*
X58500D01*
X60620Y110060D01*
X64380D01*
X64830Y110510D01*
G01X44890Y96030D02*
X42520Y98400D01*
X27000D01*
G01X22290Y102340D02*
X27000D01*
G01D02*
X31710D01*
G01X22290Y100370D02*
X27000D01*
G01D02*
X31710D01*
G01X62540Y111910D02*
X60300Y114150D01*
X27000D01*
G01X22290Y116120D02*
X27000D01*
G01D02*
X31710D01*
G01X27000Y118090D02*
X49120D01*
G03Y119550I0J730D01*
G01X41810D01*
G02Y120750I0J600D01*
G01X49120D01*
G03Y121950I0J600D01*
G01X41810D01*
G02Y123150I0J600D01*
G01X49120D01*
G03Y124350I0J600D01*
G01X41810D01*
G02Y125550I0J600D01*
G01X50320D01*
G02X50920Y124950I0J-600D01*
G01Y118950D01*
G03X51520Y118350I600J0D01*
G01X53620D01*
G01X64790Y130060D02*
X58590Y136260D01*
X43090D01*
G02Y137460I0J600D01*
G01X56230D01*
G03Y138660I0J600D01*
G01X43090D01*
G02Y139860I0J600D01*
G01X56230D01*
G03Y141060I0J600D01*
G01X41890D01*
G03X41290Y140460I0J-600D01*
G01Y136860D01*
G02X40690Y136260I-600J0D01*
G01X38960D01*
X37020Y134320D01*
Y129180D01*
X31830Y123990D01*
X27000D01*
G01Y122020D02*
X31840D01*
X39850Y130030D01*
X42260D01*
G03X42860Y130630I0J600D01*
G01Y134230D01*
G02X43460Y134830I600J0D01*
G01X55590D01*
G02Y133630I0J-600D01*
G01X44660D01*
G03Y132430I0J-600D01*
G01X55590D01*
G02Y131230I0J-600D01*
G01X44660D01*
G03Y130030I0J-600D01*
G01X57390D01*
X60910Y126510D01*
G01X67660Y136290D02*
X61350Y142600D01*
X39600D01*
X32640Y135640D01*
Y127140D01*
X31460Y125960D01*
X27000D01*
G01Y120060D02*
X31860D01*
X39600Y127800D01*
X57140D01*
X59060Y125880D01*
Y125740D01*
X60270Y124530D01*
X62770D01*
X64020Y125780D01*
X65680D01*
G01X27000Y129900D02*
X20400D01*
G01X42660Y26000D02*
Y33080D01*
X42600Y33140D01*
Y34800D01*
G01X45300Y35500D02*
X46600Y34200D01*
Y26000D01*
G01X44630Y21290D02*
Y26000D01*
G01D02*
Y30710D01*
G01X48600Y35000D02*
Y30890D01*
X48570Y30860D01*
Y26000D01*
G01X43840Y80100D02*
X51870Y72070D01*
X63050D01*
G01X45470Y81730D02*
X53280Y73920D01*
X64920D01*
G01X97460Y87490D02*
Y82720D01*
X90660Y75920D01*
X54680D01*
X47170Y83430D01*
G01X95890Y87490D02*
Y83200D01*
X90010Y77320D01*
X56780D01*
X48920Y85180D01*
G01X34980Y144900D02*
X74330D01*
X79970Y139260D01*
X83490D01*
G01X48990Y190000D02*
Y192480D01*
G01X47210Y190000D02*
X48990D01*
G01X64310Y26000D02*
Y17390D01*
X64600Y17100D01*
G01X56440Y26000D02*
Y35420D01*
X56930Y35910D01*
Y38660D01*
G01X58300Y33600D02*
Y31940D01*
X58410Y31830D01*
Y26000D01*
G01X60380D02*
Y32210D01*
X60240Y32350D01*
Y34180D01*
X60300Y34240D01*
Y35900D01*
G01X62090Y33120D02*
Y31120D01*
X62350Y30860D01*
Y26000D01*
G01X64260Y33900D02*
X66280Y31880D01*
Y26000D01*
G01X52830Y36180D02*
Y32270D01*
X52500Y31940D01*
Y26000D01*
G01X50590Y36750D02*
Y33240D01*
X50540Y33190D01*
Y26000D01*
G01X54540Y37730D02*
X54680Y37590D01*
Y31070D01*
X54470Y30860D01*
Y26000D01*
G01X68250D02*
Y32530D01*
X64890Y35890D01*
Y39430D01*
X64190Y40140D01*
X60780Y43550D01*
Y56070D01*
X72510Y67800D01*
X90000D01*
X93800Y71600D01*
G01X62630Y54220D02*
Y45610D01*
X64330Y43910D01*
X65590Y42640D01*
Y40720D01*
X66290Y40010D01*
Y36470D01*
X70220Y32540D01*
Y26000D01*
G01X64700Y56080D02*
X64650Y56030D01*
Y47410D01*
X64920Y47140D01*
Y45310D01*
X66920Y43290D01*
X66990Y43220D01*
Y41300D01*
X67690Y40590D01*
Y37050D01*
X72190Y32550D01*
Y26000D01*
G01X63050Y72070D02*
X90770D01*
X100610Y81910D01*
Y87490D01*
G01X64920Y73920D02*
X90640D01*
X99040Y82320D01*
Y87490D01*
G01X94310D02*
Y83600D01*
X89430Y78720D01*
X58700D01*
X50580Y86840D01*
G01X92740Y87490D02*
Y84010D01*
X88850Y80120D01*
X60570D01*
X52210Y88480D01*
G01X58860Y116000D02*
X61070D01*
X63890Y113180D01*
X74560D01*
X76030Y114650D01*
X76050D01*
X78610Y117210D01*
X83490D01*
G01X65230Y121000D02*
X67010D01*
G01X65230Y116000D02*
X67010D01*
G01X83490Y123510D02*
X74810D01*
X74500Y123820D01*
X65500D01*
X60030Y118350D01*
X53620D01*
G01X83490Y125090D02*
X75210D01*
X72670Y127630D01*
X63690D01*
X62570Y126510D01*
X60910D01*
G01X51770Y116500D02*
X54780D01*
X55280Y116000D01*
X58860D01*
G01X64790Y130060D02*
X73450D01*
X76850Y126660D01*
X83490D01*
G01X53010Y187520D02*
Y190000D01*
G01D02*
X54790D01*
G01X57700Y203000D02*
Y207080D01*
X57740Y207120D01*
G01X58130Y211530D02*
Y215000D01*
G01X55940D02*
X58130D01*
G01D02*
X60320D01*
G01X165650Y94230D02*
X125690Y54270D01*
X88180D01*
X78090Y44180D01*
Y26000D01*
G01X167500Y92600D02*
X127200Y52300D01*
X89000D01*
X80060Y43360D01*
Y26000D01*
G01X162280Y97600D02*
X122880Y58200D01*
X86540D01*
X74160Y45820D01*
Y26000D01*
G01X163800Y95860D02*
X124170Y56230D01*
X87360D01*
X76130Y45000D01*
Y26000D01*
G01X106280Y71070D02*
X96910Y61700D01*
X79500D01*
X70250Y52450D01*
Y50240D01*
X71640Y48850D01*
Y47190D01*
G01X103260Y71150D02*
X95210Y63100D01*
X78920D01*
X68850Y53030D01*
Y49150D01*
X69790Y48210D01*
Y46420D01*
X71640Y44570D01*
Y43230D01*
G01X99870Y71130D02*
X93240Y64500D01*
X78340D01*
X67450Y53610D01*
Y48570D01*
X68350Y47670D01*
Y45880D01*
X69790Y44440D01*
Y42460D01*
X71450Y40800D01*
Y39770D01*
G01X96970Y71700D02*
X91270Y66000D01*
X77850D01*
X66050Y54200D01*
Y47990D01*
X66950Y47090D01*
Y45300D01*
X68390Y43860D01*
Y41880D01*
X69540Y40720D01*
Y37820D01*
G01X73100Y50600D02*
Y53320D01*
X80080Y60300D01*
X98400D01*
X109060Y70960D01*
G01X80120Y107760D02*
X83490D01*
G01X80120Y104610D02*
X83490D01*
G01X76800Y112800D02*
X77110Y112490D01*
X83490D01*
G01X67010Y118520D02*
Y121000D01*
G01X80120Y120360D02*
X83490D01*
G01X67010Y121000D02*
X68790D01*
G01X67010Y116000D02*
Y118480D01*
G01Y116000D02*
X68790D01*
G01X83490Y118790D02*
X77710D01*
X74920Y116000D01*
X72990D01*
G01X83490Y121940D02*
X75860D01*
X74920Y121000D01*
X72990D01*
G01X78700Y114500D02*
X79140Y114060D01*
X83490D01*
G01X80120Y142410D02*
X83490D01*
G01X80120Y129810D02*
X83490D01*
G01X93840Y15370D02*
Y22080D01*
G01X87130Y15370D02*
X93840D01*
G01D02*
X100550D01*
G01X84000Y26000D02*
Y18900D01*
X82200Y17100D01*
G01X82030Y21290D02*
Y26000D01*
G01D02*
Y30710D01*
G01X96970Y71700D02*
X108490Y83220D01*
Y87490D01*
G01X106910D02*
Y84490D01*
X103270Y80850D01*
X103050D01*
X93800Y71600D01*
G01X89590Y84120D02*
Y87490D01*
G01D02*
Y90860D01*
G01X88480Y87490D02*
X89590D01*
G01X91170D02*
Y91070D01*
X93100Y93000D01*
G01X83490Y93590D02*
X89190D01*
X93100Y97500D01*
G01X83490Y107760D02*
X86860D01*
G01X83490Y104610D02*
X86860D01*
G01X83490Y103040D02*
X88640D01*
G01X83490Y109340D02*
X88660D01*
G01X83490Y106190D02*
X91810D01*
G01X83490Y120360D02*
X86860D01*
G01X83490Y118790D02*
X88690D01*
G01X83490Y128240D02*
X88560D01*
G01X83490Y121940D02*
X91760D01*
G01X83490Y142410D02*
Y143520D01*
G01Y142410D02*
X86860D01*
G01X83490Y129810D02*
X86860D01*
G01X83490Y140830D02*
X87470D01*
X88900Y139400D01*
G01X92900Y138700D02*
X91720Y139880D01*
X91220D01*
X89590Y141510D01*
Y148510D01*
G01X83490Y131390D02*
X91790D01*
G01X91810Y197950D02*
Y200530D01*
G01X86670Y197950D02*
X91810D01*
G01D02*
X96950D01*
G01X109060Y70960D02*
X112500Y74400D01*
Y77820D01*
X114690Y80010D01*
Y83990D01*
X114790Y84090D01*
Y87490D01*
G01X113210D02*
Y80510D01*
X110650Y77950D01*
Y75440D01*
X106280Y71070D01*
G01X111640Y87490D02*
Y80920D01*
X109250Y78530D01*
Y77140D01*
X103260Y71150D01*
G01X110060Y87490D02*
Y81320D01*
X99870Y71130D01*
G01X103760Y87490D02*
Y83960D01*
X102500Y82700D01*
G01X105340Y87490D02*
Y92940D01*
G01X102190Y87490D02*
Y96690D01*
G01X97460Y148510D02*
Y142700D01*
G01X100610Y148510D02*
Y139410D01*
G01X106910Y148510D02*
Y139410D01*
G01X111640Y148510D02*
Y139460D01*
G01X113210Y145140D02*
Y148510D01*
G01D02*
Y151880D01*
G01X110060Y145140D02*
Y148510D01*
G01D02*
Y151880D01*
G01X108490Y145140D02*
Y148510D01*
G01D02*
Y151880D01*
G01X105340Y145140D02*
Y148510D01*
G01D02*
Y151880D01*
G01X103760Y145140D02*
Y148510D01*
G01D02*
Y151880D01*
G01X99040Y145140D02*
Y148510D01*
G01D02*
Y151880D01*
G01X100610Y148510D02*
Y159620D01*
X100620Y159630D01*
Y160330D01*
X102300Y162010D01*
X103000D01*
G01X110080Y162060D02*
Y157700D01*
X110010Y157630D01*
Y155000D01*
G01X110080Y167060D02*
Y169940D01*
G01D02*
Y172820D01*
G01X106610Y169940D02*
X110080D01*
G01D02*
X113550D01*
G01X103000Y166210D02*
Y167990D01*
G01D02*
Y169770D01*
G01X100520Y167990D02*
X103000D01*
G01D02*
X105480D01*
G01X110130Y193530D02*
Y197000D01*
G01D02*
Y200470D01*
G01X107940Y197000D02*
X110130D01*
G01D02*
X112320D01*
G01X106990Y201520D02*
Y204000D01*
G01D02*
Y206480D01*
G01X105210Y204000D02*
X106990D01*
G01D02*
X108770D01*
G01X106990Y206520D02*
Y209000D01*
G01X110130Y212530D02*
Y216000D01*
G01D02*
Y219470D01*
G01X107940Y216000D02*
X110130D01*
G01D02*
X112320D01*
G01X106990Y209000D02*
Y211480D01*
G01X105210Y209000D02*
X106990D01*
G01D02*
X108770D01*
G01X116000Y69230D02*
Y71010D01*
G01D02*
Y72790D01*
G01X113520Y71010D02*
X116000D01*
G01D02*
X118480D01*
G01X121000Y69230D02*
Y71010D01*
G01D02*
Y72790D01*
G01X118520Y71010D02*
X121000D01*
G01D02*
X123480D01*
G01X121000Y76990D02*
Y82200D01*
X119510Y83690D01*
Y87490D01*
G01X116000Y76990D02*
Y78920D01*
X116090Y79010D01*
Y83410D01*
X116360Y83680D01*
Y87490D01*
G01X117940D02*
Y82640D01*
G01X119510Y87490D02*
Y92990D01*
G01X116360Y87490D02*
Y96760D01*
G01X114790Y148510D02*
Y142790D01*
G01X121090Y148510D02*
Y142890D01*
G01X117940Y148510D02*
Y139440D01*
G01X130540Y148510D02*
Y145340D01*
X126880Y141680D01*
Y140380D01*
X125700Y139200D01*
G01X115990Y155000D02*
Y151620D01*
X116360Y151250D01*
Y148510D01*
G01X119510Y145140D02*
Y148510D01*
G01D02*
Y151880D01*
G01X121090Y148510D02*
Y156800D01*
X126300Y162010D01*
G01X144590Y152450D02*
X142930D01*
X142480Y152900D01*
X130620D01*
X128960Y151240D01*
Y148510D01*
G01X147740Y153180D02*
X146620Y154300D01*
X130040D01*
X127390Y151650D01*
Y148510D01*
G01X150700Y153180D02*
X148180Y155700D01*
X129460D01*
X125810Y152050D01*
Y148510D01*
G01X153670Y153430D02*
X150000Y157100D01*
X128880D01*
X124240Y152460D01*
Y148510D01*
G01X157120Y153430D02*
X152050Y158500D01*
X128300D01*
X122660Y152860D01*
Y148510D01*
G01X127000Y166210D02*
Y167990D01*
G01D02*
Y169770D01*
G01X124520Y167990D02*
X127000D01*
G01D02*
X129480D01*
G01X135260Y84120D02*
Y87490D01*
G01D02*
Y90860D01*
G01X138410Y84120D02*
Y87490D01*
G01D02*
Y90860D01*
G01Y87490D02*
X139520D01*
G01X136830D02*
Y93630D01*
X137500Y94300D01*
G01X144510Y93590D02*
X139870D01*
X139160Y94300D01*
X137500D01*
G01X144510Y98310D02*
X141510D01*
X137500Y94300D01*
G01X133690Y87490D02*
Y96810D01*
X133200Y97300D01*
G01X144510Y101460D02*
X137360D01*
X133200Y97300D01*
G01X182040Y109090D02*
X181880Y109250D01*
X164530D01*
X164460Y109180D01*
X151540D01*
X151380Y109340D01*
X144510D01*
G01X180400Y107400D02*
X178740D01*
X178380Y107760D01*
X144510D01*
G01Y106190D02*
X175800D01*
X176890Y105100D01*
X178550D01*
G01X144510Y104610D02*
X164970D01*
X179700Y89880D01*
Y79990D01*
G01X144510Y103040D02*
X164160D01*
X176600Y90600D01*
Y40400D01*
X190800Y26200D01*
X199800D01*
X205000Y21000D01*
G01X144510Y99890D02*
X149490D01*
G01X144510Y112490D02*
X148110D01*
G01X144510Y110910D02*
X138810D01*
G01X141140Y126660D02*
X144510D01*
G01D02*
X147880D01*
G01X155010Y126800D02*
X151540D01*
X149830Y125090D01*
X144510D01*
G01D02*
X139010D01*
G01X155010Y112000D02*
X151890D01*
X149830Y114060D01*
X144510D01*
G01D02*
X134740D01*
G01X144510Y128240D02*
X134760D01*
G01X195000Y111000D02*
X189700Y116300D01*
Y122570D01*
X187620Y124650D01*
X181530D01*
X178880Y122000D01*
X169000D01*
X167490Y123510D01*
X144510D01*
G01X186850Y122800D02*
X184380D01*
X182180Y120600D01*
X168420D01*
X167080Y121940D01*
X144510D01*
G01X185000Y120800D02*
X183400Y119200D01*
X167840D01*
X166680Y120360D01*
X144510D01*
G01Y118790D02*
X166270D01*
X167260Y117800D01*
X180100D01*
X187400Y110500D01*
Y59400D01*
X190000Y56800D01*
X199200D01*
X205000Y51000D01*
G01X185500Y83930D02*
Y110420D01*
X179520Y116400D01*
X166670D01*
X165860Y117210D01*
X144510D01*
G01Y115640D02*
X165450D01*
X166090Y115000D01*
X178750D01*
X183890Y109860D01*
Y108320D01*
X183600Y108030D01*
Y96530D01*
G01X132110Y144410D02*
Y143400D01*
G01Y148510D02*
Y144410D01*
G01X136200Y144300D02*
X136830Y144930D01*
G01X136200Y144300D02*
X135260Y145240D01*
G01X132110Y144410D02*
X132100Y144400D01*
G01X136830Y144930D02*
Y148510D01*
G01X141140Y137690D02*
X144510D01*
G01D02*
X147880D01*
G01X131600Y139200D02*
X133960Y141560D01*
Y144170D01*
X133690Y144440D01*
Y148510D01*
G01X144510Y136110D02*
X138990D01*
G01X144510Y139260D02*
X135560D01*
G01X138410Y148510D02*
Y142110D01*
X135560Y139260D01*
G01X144510Y142410D02*
X152670D01*
X153080Y142000D01*
X155010D01*
G01X144510Y140830D02*
X151850D01*
X153980Y138700D01*
X162020D01*
X183800Y160480D01*
Y179800D01*
X195000Y191000D01*
G01X184000Y148900D02*
X178160D01*
X160650Y131390D01*
X144510D01*
G01Y129810D02*
X161310D01*
X177900Y146400D01*
X185200D01*
G01X195000Y161000D02*
X186300D01*
X159840Y134540D01*
X144510D01*
G01X195000Y151000D02*
X178280D01*
X160240Y132960D01*
X144510D01*
G01X135260Y145240D02*
Y148510D01*
G01X132000Y166210D02*
Y167990D01*
G01D02*
Y169770D01*
G01X129520Y167990D02*
X132000D01*
G01D02*
X134480D01*
G01X144810Y195370D02*
Y197950D01*
G01D02*
Y200530D01*
G01X139670Y197950D02*
X144810D01*
G01D02*
X149950D01*
G01X149490Y99890D02*
X149500Y99900D01*
G01X148110Y112490D02*
X149100Y111500D01*
G01X159990Y206520D02*
Y209000D01*
G01Y201520D02*
Y204000D01*
G01D02*
Y206480D01*
G01X158210Y204000D02*
X159990D01*
G01D02*
X161770D01*
G01X159990Y209000D02*
Y211480D01*
G01X158210Y209000D02*
X159990D01*
G01D02*
X161770D01*
G01X177560Y137240D02*
X168720Y128400D01*
X168440D01*
X167260Y127220D01*
G01X169040Y125750D02*
X179510Y136220D01*
Y139190D01*
G01X170900Y124380D02*
X191720Y145200D01*
X197120D01*
X200800Y148880D01*
Y166800D01*
X205000Y171000D01*
G01X164400Y126700D02*
Y126980D01*
X179120Y141700D01*
X183900D01*
X189000Y146800D01*
X196740D01*
X199400Y149460D01*
Y175400D01*
X205000Y181000D01*
G01X163700Y129260D02*
X178340Y143900D01*
X181600D01*
G01X163130Y193530D02*
Y197000D01*
G01D02*
Y200470D01*
G01X160940Y197000D02*
X163130D01*
G01D02*
X165320D01*
G01X163130Y212530D02*
Y216000D01*
G01X160940D02*
X163130D01*
G01D02*
X165320D01*
G01X191140Y41000D02*
X195000D01*
G01X185800Y118400D02*
Y114200D01*
X195000Y105000D01*
Y101000D01*
G01X191140Y201000D02*
X195000D01*
G01X205000Y41000D02*
Y44860D01*
G01X201140Y41000D02*
X205000D01*
G01D02*
X208860D01*
G01X195000Y37140D02*
Y41000D01*
G01D02*
Y44860D01*
G01Y41000D02*
X198860D01*
G01X205000Y97140D02*
Y101000D01*
G01D02*
Y104860D01*
G01X201140Y101000D02*
X205000D01*
G01D02*
X208860D01*
G01X195000Y197140D02*
Y201000D01*
G01D02*
Y204860D01*
G01Y201000D02*
X198860D01*
G54D18*
X48990Y190000D03*
X43010D03*
X53010D03*
X58990D03*
X67010Y116000D03*
X72990D03*
X67010Y121000D03*
X72990D03*
X110010Y155000D03*
X101010Y209000D03*
X106990D03*
X101010Y204000D03*
X106990D03*
X115990Y155000D03*
X160990Y112000D03*
X155010D03*
X160990Y126800D03*
X155010D03*
X160990Y142000D03*
X155010D03*
X154010Y204000D03*
X159990D03*
X154010Y209000D03*
X159990D03*
G54D28*
G01X38120Y190000D02*
X33050D01*
X30350Y187300D01*
X27980D01*
X3270Y162590D01*
Y78730D01*
X16000Y66000D01*
G01X58990Y190000D02*
Y189300D01*
X50090Y180400D01*
X24900D01*
X5970Y161470D01*
Y81730D01*
X16100Y71600D01*
G01X101870Y197000D02*
Y192740D01*
X95330Y186200D01*
X60300D01*
X51800Y177700D01*
X27300D01*
X8670Y159070D01*
Y86730D01*
G01X11000Y218000D02*
X20930D01*
X22560Y219630D01*
X34000D01*
G01Y198370D02*
X27060D01*
X23060Y194370D01*
Y191550D01*
X24610Y190000D01*
X27880D01*
G01X50260Y196880D02*
Y200240D01*
X48000Y202500D01*
X44600D01*
X40470Y198370D01*
X34000D01*
G01Y219630D02*
X46520D01*
G01X48990Y190000D02*
X53010D01*
G01X46900Y184400D02*
X48990Y186490D01*
G01D02*
Y190000D01*
G01X43010D02*
X38120D01*
G01X50260Y207120D02*
Y214610D01*
X49870Y215000D01*
G01X195000Y31000D02*
X200150Y36150D01*
X210250D01*
X217500Y43400D01*
Y209700D01*
X200800Y226400D01*
X96600D01*
X89830Y219630D01*
X46520D01*
G01D02*
X49870Y216280D01*
Y215000D01*
G01X64600Y17100D02*
X82200D01*
G01X53010Y190000D02*
Y193180D01*
G01D02*
X54000Y194170D01*
G01X58990Y190000D02*
Y193260D01*
X59000Y193270D01*
X57740Y194530D01*
Y196880D01*
G01X54000Y194170D02*
Y196880D01*
G01X82200Y17100D02*
X84200Y15100D01*
Y10600D01*
X87130Y7670D01*
X181670D01*
X195000Y21000D01*
G01X82050Y216050D02*
X91810D01*
G01X91800Y190100D02*
X91810Y190110D01*
G01D02*
Y197950D01*
G01Y207000D02*
X97760D01*
X100760Y204000D01*
X101010D01*
G01X91810Y216050D02*
X98840D01*
X98890Y216000D01*
X101870D01*
G01Y197000D02*
Y203140D01*
X101010Y204000D01*
G01X101870Y216000D02*
X101010Y215140D01*
Y209000D01*
G01X144810Y216050D02*
X138880D01*
X138630Y216300D01*
X135700D01*
X129600Y222400D01*
X104010D01*
X101870Y220260D01*
Y216000D01*
G01X127000Y162010D02*
X132000D01*
G01X126300D02*
X127000D01*
G01X119920Y162060D02*
X124180D01*
X124230Y162010D01*
X126300D01*
G01X144810Y207000D02*
X150760D01*
X153760Y204000D01*
X154010D01*
G01X144810Y216050D02*
X151840D01*
X151890Y216000D01*
X154870D01*
G01X160990Y112000D02*
X164500D01*
G01X160990D02*
X158400D01*
G01X160990Y126800D02*
X158700D01*
G01X147060Y146000D02*
X151960Y150900D01*
X161200D01*
G01D02*
Y145480D01*
X160990Y145270D01*
Y142000D01*
G01X161200Y150900D02*
X172000Y161700D01*
Y188000D01*
X195000Y211000D01*
G01X154870Y197000D02*
Y188530D01*
G01X154010Y209000D02*
Y215140D01*
X154870Y216000D01*
G01X154010Y204000D02*
Y197860D01*
X154870Y197000D01*
G01X195000Y211000D02*
X185100Y220900D01*
X158490D01*
X154870Y217280D01*
Y216000D01*
G54D19*
X50260Y207120D03*
Y196880D03*
X57740Y207120D03*
Y196880D03*
X54000D03*
M02*
