G04 ================== begin FILE IDENTIFICATION RECORD ==================*
G04 Layout Name:  extend-pcb.brd*
G04 Film Name:    BOTTOM*
G04 File Format:  Gerber RS274X*
G04 File Origin:  Cadence Allegro 16.6-2015-S065*
G04 Origin Date:  Tue Aug 30 00:07:13 2016*
G04 *
G04 Layer:  ETCH/BOTTOM*
G04 Layer:  PIN/BOTTOM*
G04 Layer:  VIA CLASS/BOTTOM*
G04 *
G04 Offset:    (0.000 0.000)*
G04 Mirror:    No*
G04 Mode:      Positive*
G04 Rotation:  0*
G04 FullContactRelief:  No*
G04 UndefLineWidth:     1.000*
G04 ================== end FILE IDENTIFICATION RECORD ====================*
%FSLAX25Y25*MOIN*%
%IR0*IPPOS*OFA0.00000B0.00000*MIA0B0*SFA1.00000B1.00000*%
%AMMACRO18*
4,1,5,.062992,.043307,
.055118,.051181,
-.062992,.051181,
-.062992,-.051181,
.062992,-.051181,
.062992,.043307,
0.0*
%
%ADD18MACRO18*%
%AMMACRO23*
4,1,5,-.031496,-.017717,
-.017717,-.031496,
.031496,-.031496,
.031496,.031496,
-.031496,.031496,
-.031496,-.017717,
0.0*
%
%ADD23MACRO23*%
%ADD12C,.003937*%
%ADD29R,.009449X.017717*%
%ADD11C,.016*%
%ADD22O,.011811X.036417*%
%ADD24O,.036417X.011811*%
%ADD15C,.035433*%
%ADD17O,.015748X.030512*%
%ADD13O,.030512X.015748*%
%ADD26R,.037402X.016732*%
%ADD21C,.000394*%
%ADD19R,.01378X.01378*%
%ADD27C,.062992*%
%ADD16R,.025197X.014764*%
%ADD28R,.018504X.019685*%
%ADD10R,.014764X.025197*%
%ADD25R,.062992X.062992*%
%ADD20R,.031496X.062992*%
%ADD14R,.045276X.029528*%
%ADD30C,.008*%
%ADD31C,.012*%
%ADD34R,.074996X.074996*%
%ADD33C,.051374*%
%ADD35R,.0352X.024768*%
%ADD32R,.024768X.0352*%
%ADD36C,.072996*%
G75*
%LPD*%
G75*
G36*
G01X181000Y61960D02*
G02X181960Y61000I0J-960D01*
G01Y26860D01*
X182000D01*
Y16140D01*
X181960D01*
Y1000D01*
G02X181000Y40I-960J0D01*
G01X1000D01*
G02X40Y1000I0J960D01*
G01Y61000D01*
G02X1000Y61960I960J0D01*
G01X181000D01*
G37*
%LPC*%
G75*
G36*
G01X115300Y12103D02*
X114857Y11660D01*
X114876Y11556D01*
G02X112275Y11978I-1377J-256D01*
G01X112300Y12023D01*
Y12202D01*
G03X111958Y12344I-200J0D01*
G01X110302Y10688D01*
X110297Y10612D01*
G02X107596Y10189I-1397J88D01*
G03X106941Y10326I-372J-146D01*
G01X106252Y9638D01*
X106247Y9562D01*
G02X105973Y8814I-1397J88D01*
G03X106294Y8175I321J-239D01*
G01X119041D01*
Y675D01*
X49730D01*
Y8175D01*
X71714D01*
G03X72111Y8625I0J400D01*
G02X74889I1389J175D01*
G03X75286Y8175I397J-50D01*
G01X76214D01*
G03X76611Y8625I0J400D01*
G02X79389I1389J175D01*
G03X79786Y8175I397J-50D01*
G01X103406D01*
G03X103727Y8814I0J400D01*
G02X104762Y11047I1123J836D01*
G01X104838Y11052D01*
X106649Y12864D01*
Y20936D01*
X85186Y42400D01*
X77680D01*
G02Y44400I-980J1000D01*
G01X84320D01*
G03X84602Y45083I0J400D01*
G01X83886Y45800D01*
X76580D01*
G02X75257Y45442I-980J1000D01*
G03X74759Y45055I-98J-388D01*
G01Y35562D01*
X43492Y4295D01*
Y3140D01*
X40815D01*
Y6860D01*
X40915D01*
Y11140D01*
X40815D01*
Y14860D01*
X42316D01*
X68150Y40694D01*
Y53825D01*
X50855D01*
G03X50572Y53142I0J-400D01*
G01X51514Y52200D01*
X53620D01*
G02Y50200I980J-1000D01*
G01X52555D01*
G03X52165Y49711I0J-400D01*
G02X49461Y48992I-1365J-311D01*
G01X49446Y49039D01*
X45206Y53279D01*
X44144D01*
Y50431D01*
X44044D01*
Y47972D01*
X41665D01*
Y50431D01*
X41565D01*
X41350Y50520D01*
X41346D01*
X40825Y50000D01*
X40797D01*
X38747Y47950D01*
X38435D01*
Y47872D01*
X35856D01*
Y47961D01*
X34983D01*
X34943Y48002D01*
G03X34260Y47719I-283J-283D01*
G01Y47208D01*
X30740D01*
Y49685D01*
X32735D01*
G03X32876Y50026I0J200D01*
G01X32488Y50415D01*
X30640D01*
Y54509D01*
X30634Y54515D01*
X30246D01*
X29922Y54839D01*
X28460D01*
G02X27018I-721J1200D01*
G01X22836D01*
X21754Y53757D01*
Y52992D01*
X29260D01*
Y50515D01*
X21754D01*
Y49785D01*
X29360D01*
Y47108D01*
X28818D01*
Y44995D01*
G03X29446Y44666I400J0D01*
G02X31465Y43606I732J-1060D01*
G01Y42130D01*
G02X29253Y41234I-1288J0D01*
G03X28664Y41218I-287J-278D01*
G02X28093Y40826I-1046J912D01*
G03X27947Y40167I137J-376D01*
G01X30496Y37618D01*
X32168D01*
G02X32385Y37789I962J-1000D01*
G03X32393Y38122I-107J169D01*
G02X33130Y40465I737J1056D01*
G01X34606D01*
G02X35503Y38253I0J-1288D01*
G03X35518Y37664I278J-287D01*
G02X35992Y36546I-912J-1046D01*
G03X36674Y36242I399J-21D01*
G01X37508Y37076D01*
Y38860D01*
X40185D01*
Y23140D01*
X37600D01*
Y22325D01*
G03X38245Y22008I400J0D01*
G02X40460Y21233I855J-1109D01*
G03X41131Y21046I389J95D01*
G01X42643Y22557D01*
G03X42360Y23240I-283J283D01*
G01X40915D01*
Y26760D01*
X43392D01*
Y24272D01*
G03X44075Y23989I400J0D01*
G01X51004Y30919D01*
G03X50739Y31601I-283J283D01*
G02X49820Y32000I61J1399D01*
G01X43492D01*
Y31140D01*
X43392D01*
Y27240D01*
X40915D01*
Y31140D01*
X40815D01*
Y38860D01*
X43492D01*
Y34000D01*
X49820D01*
G02X52199Y33061I980J-1000D01*
G03X52881Y32796I400J17D01*
G01X64200Y44114D01*
Y48320D01*
G02X66200I1000J980D01*
G01Y43286D01*
X38357Y15443D01*
G03X38640Y14760I283J-283D01*
G01X40085D01*
Y10860D01*
X40185D01*
Y3140D01*
X37508D01*
Y4453D01*
X34888D01*
G02Y6854I-2046J1200D01*
G01X37508D01*
Y10860D01*
X37608D01*
Y13728D01*
G03X36925Y14011I-400J0D01*
G01X35215Y12301D01*
X35211Y12224D01*
G02X32142Y10080I-2369J122D01*
G01X32026Y10116D01*
X30110Y8200D01*
X24749D01*
G03X24511Y7478I0J-400D01*
G02X21804I-1353J-1825D01*
G03X21566Y8200I-238J321D01*
G01X19260D01*
Y6108D01*
X15740D01*
Y8585D01*
X17918D01*
G03X18059Y8926I0J200D01*
G01X17670Y9315D01*
X15640D01*
Y11992D01*
X19360D01*
Y10454D01*
X19614Y10200D01*
X21135D01*
G03X21438Y10862I0J400D01*
G02X24877I1720J1485D01*
G03X25180Y10200I303J-261D01*
G01X29282D01*
X30612Y11530D01*
X30576Y11646D01*
G02X31461Y14275I2266J701D01*
G03X31228Y15000I-233J325D01*
G01X29186D01*
X26618Y17568D01*
Y18432D01*
G02X26500Y18572I1000J962D01*
G03X26177I-161J-118D01*
G02X24013Y18482I-1118J822D01*
G03X23424Y18497I-301J-263D01*
G02X21576I-925J896D01*
G03X20987Y18482I-287J-278D01*
G02X18895Y18482I-1046J912D01*
G03X18306Y18497I-302J-263D01*
G02X16457I-924J896D01*
G03X15869Y18482I-287J-278D01*
G02X13435Y19394I-1046J912D01*
G01Y20870D01*
G02X13513Y21329I1388J0D01*
G01X13555Y21448D01*
X12448Y22555D01*
X12329Y22513D01*
G02X11870Y22435I-459J1310D01*
G01X10394D01*
G02X9740Y22599I0J1388D01*
G01X9696Y22623D01*
X5863D01*
X5821Y22602D01*
G02X3851Y24233I-621J1255D01*
G03X3466Y24740I-385J107D01*
G01X1608D01*
Y28260D01*
X4085D01*
Y25509D01*
G03X4644Y25142I400J0D01*
G02X4688Y25160I556J-1285D01*
G01X4815Y25210D01*
Y28360D01*
X7492D01*
Y27382D01*
X9432D01*
G02X9649Y27553I962J-1000D01*
G03X9656Y27885I-107J169D01*
G02X9497Y29865I737J1056D01*
G03X9482Y30454I-278J287D01*
G02X9425Y32493I912J1046D01*
G03Y33066I-279J286D01*
G02X9223Y34803I969J993D01*
G03X8885Y35418I-338J215D01*
G01X7492D01*
Y34140D01*
X7354D01*
Y32256D01*
X7160Y32063D01*
X7146Y32013D01*
G02X4953Y33515I-1346J387D01*
G01Y34140D01*
X4815D01*
Y39641D01*
X4426Y40030D01*
G03X4085Y39888I-141J-141D01*
G01Y38240D01*
X1608D01*
Y41760D01*
X3910D01*
Y49423D01*
X2246D01*
Y53577D01*
X7974D01*
Y50333D01*
X8661Y49647D01*
X16026D01*
Y53577D01*
X18179D01*
X21842Y57239D01*
X27018D01*
G02X28460I721J-1200D01*
G01X30740D01*
Y58892D01*
X34260D01*
Y56415D01*
X32612D01*
G03X32470Y56074I0J-200D01*
G01X32859Y55685D01*
X34360D01*
Y55547D01*
X35856D01*
Y55569D01*
X35956D01*
Y58028D01*
X38335D01*
Y55569D01*
X38435D01*
Y52990D01*
X38335D01*
Y51898D01*
G03X39018Y51615I400J0D01*
G01X39803Y52400D01*
X39831D01*
X39994Y52563D01*
G02X40006Y52575I854J-843D01*
G01X40352Y52921D01*
X41565D01*
Y58128D01*
X44144D01*
Y57839D01*
X45876D01*
X49048Y54667D01*
G03X49730Y54950I283J283D01*
G01Y61325D01*
X114710D01*
Y61225D01*
X118941D01*
Y53925D01*
X114710D01*
Y53825D01*
X105623D01*
G03X105235Y53331I0J-400D01*
G02X105164Y52456I-1361J-331D01*
G03X105533Y51900I369J-156D01*
G01X118386D01*
X124186Y57700D01*
X143294D01*
X147500Y53494D01*
Y32360D01*
X148121D01*
X149921Y34160D01*
X150163D01*
X151668Y35665D01*
G02X153068Y33610I1232J-665D01*
G01X152999Y33602D01*
X152440Y33043D01*
G03X152723Y32360I283J-283D01*
G01X152992D01*
Y30859D01*
X153191Y30660D01*
X159077D01*
G03X159360Y31343I0J400D01*
G01X159195Y31508D01*
X156640D01*
Y34185D01*
X159744D01*
G03X160144Y34588I0J400D01*
G02X160144Y34615I3356J26D01*
G01Y34815D01*
X156640D01*
Y37492D01*
X157300D01*
Y38697D01*
X160640Y42037D01*
X160654Y42087D01*
G02X162387Y40354I1346J-387D01*
G01X162337Y40340D01*
X160172Y38175D01*
G03X160360Y37503I283J-283D01*
G01Y37183D01*
G03X161052Y36910I400J0D01*
G02X166038Y36811I2448J-2296D01*
G03X166740Y37072I302J262D01*
G01Y37392D01*
X170260D01*
Y34915D01*
X167255D01*
G03X166855Y34526I0J-400D01*
G02X166849Y34398I-3355J88D01*
G01X166849Y34391D01*
Y34185D01*
X174360D01*
Y31508D01*
X172023D01*
X168144Y27629D01*
Y25429D01*
G02X168141Y25353I-1191J1D01*
G03X168353Y25141I200J-13D01*
G02X168429Y25144I77J-1188D01*
G01X170890D01*
G02X171491Y24980I0J-1191D01*
G01X171538Y24953D01*
X175640D01*
Y25992D01*
X179360D01*
Y23315D01*
X177576D01*
X177287Y23026D01*
G03X177429Y22685I141J-141D01*
G01X179360D01*
Y20008D01*
X175723D01*
X175649Y19934D01*
G03X175790Y19593I141J-141D01*
G01X179870D01*
Y16919D01*
X175130D01*
Y18932D01*
G03X174788Y19074I-200J0D01*
G01X174730Y19016D01*
X173065D01*
G03X172782Y18333I0J-400D01*
G01X176934Y14181D01*
X179970D01*
Y11307D01*
X175300D01*
Y9992D01*
X176360D01*
Y7315D01*
X173865D01*
G03X173724Y6974I0J-200D01*
G01X174012Y6685D01*
X176360D01*
Y4008D01*
X172370D01*
Y2907D01*
X167630D01*
Y5581D01*
X170756D01*
G03X171039Y6264I0J400D01*
G01X168984Y8319D01*
X167530D01*
Y8556D01*
X167091D01*
G03X166709Y8039I0J-400D01*
G02X160605Y5357I-3209J-983D01*
G03X159860Y5155I-345J-202D01*
G01Y4008D01*
X156140D01*
Y4863D01*
X155288Y5715D01*
X155228Y5726D01*
G02X155687Y8488I272J1374D01*
G03X156140Y8884I53J396D01*
G01Y9992D01*
X157641D01*
X159816Y12166D01*
Y13910D01*
X159847Y13942D01*
Y15341D01*
G02X159855Y15480I1200J0D01*
G01X159856Y15491D01*
Y16571D01*
G02X159859Y16647I1191J-1D01*
G03X159647Y16859I-200J13D01*
G02X159571Y16856I-77J1188D01*
G01X157110D01*
G02X156509Y17020I0J1191D01*
G01X156462Y17047D01*
X155115D01*
X152992Y14924D01*
Y13140D01*
X150315D01*
Y30677D01*
G03X149974Y30818I-200J0D01*
G01X149685Y30529D01*
Y13140D01*
X149347D01*
Y10232D01*
X142764Y3650D01*
X125736D01*
X119700Y9686D01*
Y16586D01*
X115983Y20302D01*
G03X115300Y20020I-283J-283D01*
G01Y12103D01*
G37*
G36*
G01X94631Y15770D02*
G03X94120Y15659I-191J-351D01*
G02X92020Y15500I-1120J841D01*
G01X60480D01*
G02Y17500I-980J1000D01*
G01X63721D01*
G03X64105Y18011I0J400D01*
G02X66430Y19400I1345J389D01*
G01X94314D01*
X95312Y18402D01*
X95388Y18397D01*
G02X94631Y15770I-88J-1397D01*
G37*
G54D34*
X157216Y55500D03*
G54D33*
X5000Y5000D03*
X177000Y57000D03*
G54D35*
X172500Y36154D03*
G54D32*
X2846Y36000D03*
G54D36*
X167216Y55500D03*
%LPD*%
G75*
G36*
G01X26702Y25199D02*
X23859Y22356D01*
Y22259D01*
G02X23232Y21930I-400J0D01*
G03X21497Y21677I-732J-1060D01*
G01X21141Y21803D01*
Y22156D01*
X18274Y25023D01*
X13379D01*
G02X13041Y25638I0J400D01*
G03X12782Y27428I-1171J744D01*
G02X12766Y28017I263J302D01*
G03Y29865I-896J924D01*
G02X12782Y30454I278J287D01*
G03X12839Y32493I-912J1046D01*
G02Y33066I279J286D01*
G03Y35052I-969J993D01*
G02Y35625I279J286D01*
G03X12782Y37664I-969J993D01*
G02X12766Y38253I263J301D01*
G03X11870Y40465I-896J924D01*
G01X10394D01*
G03X9819Y40330I0J-1288D01*
G02X9322Y40446I-178J358D01*
G03X7962Y40979I-1116J-846D01*
G02X7492Y41372I-70J394D01*
G01Y41860D01*
X6310D01*
Y47637D01*
G02X6993Y47920I400J0D01*
G01X7667Y47246D01*
X21840D01*
Y47108D01*
X26418D01*
Y45115D01*
G02X25803Y44777I-400J0D01*
G03X24066Y44575I-744J-1171D01*
G02X23493I-286J279D01*
G03X21507I-993J-969D01*
G02X20934I-286J279D01*
G03X18948I-993J-969D01*
G02X18375I-286J279D01*
G03X16336Y44518I-993J-969D01*
G02X15747Y44503I-301J263D01*
G03X13535Y43606I-924J-896D01*
G01Y42130D01*
G03X15747Y41234I1288J0D01*
G02X16336Y41218I287J-278D01*
G03X18500Y41308I1046J912D01*
G02X18823I161J-118D01*
G03X18941Y41168I1118J821D01*
G01Y40545D01*
X21302Y38184D01*
X27102D01*
X27484Y37801D01*
G02X27202Y37118I-283J-283D01*
G01X15701D01*
Y25882D01*
X26419D01*
G02X26702Y25199I0J-400D01*
G37*
G36*
G01X29299Y28462D02*
Y35503D01*
G02X29641Y35645I200J0D01*
G01X29686Y35600D01*
X32187D01*
G03X32308Y35500I943J1018D01*
G02Y35177I-118J-161D01*
G03X32161Y33066I822J-1118D01*
G02Y32493I-279J-286D01*
G03X32182Y30487I969J-993D01*
G01X32245Y30428D01*
Y30141D01*
X31943D01*
X29982Y28179D01*
G02X29299Y28462I-283J283D01*
G37*
G36*
G01X44075Y8272D02*
G02X43392Y8555I-283J283D01*
G01Y11140D01*
X43492D01*
Y12641D01*
X70550Y39699D01*
Y53825D01*
X72359D01*
Y36556D01*
X44075Y8272D01*
G37*
G54D10*
X2846Y26500D03*
Y36000D03*
Y40000D03*
X6154Y26500D03*
Y36000D03*
Y40000D03*
X38846Y5000D03*
X42154D03*
X38846Y13000D03*
X42154D03*
Y9000D03*
X38846D03*
Y25000D03*
X42154D03*
X38846Y29000D03*
X42154D03*
X38846Y33000D03*
X42154D03*
X38846Y37000D03*
X42154D03*
X148346Y15000D03*
Y19000D03*
Y23000D03*
Y27000D03*
Y30500D03*
X151654Y15000D03*
Y19000D03*
Y23000D03*
Y27000D03*
Y30500D03*
G54D20*
X51905Y4425D03*
X56236D03*
X60567D03*
Y57575D03*
X56236D03*
X51905D03*
X64898Y4425D03*
X69228D03*
Y57575D03*
X64898D03*
X73559Y4425D03*
X77890D03*
X82221D03*
Y57575D03*
X77890D03*
X73559D03*
X86551Y4425D03*
X90882D03*
Y57575D03*
X86551D03*
X95213Y4425D03*
X99543D03*
X103874D03*
Y57575D03*
X99543D03*
X95213D03*
X108205Y4425D03*
X112535D03*
X116866D03*
Y57575D03*
X112535D03*
X108205D03*
G54D11*
X2846Y29654D03*
Y42946D03*
X14400Y4600D03*
X5200Y23857D03*
X5800Y32400D03*
X3500Y32800D03*
X8206Y39600D03*
X10400Y45200D03*
X20300Y2700D03*
X20000Y14400D03*
X22500Y17600D03*
X17382Y17182D03*
X24003Y34397D03*
X21003D03*
X18003D03*
X24003Y31397D03*
X21003D03*
X18003D03*
X24003Y28397D03*
X21003D03*
X18003D03*
X14823Y46223D03*
X23700Y54000D03*
X36173Y11827D03*
X33503Y20269D03*
X34250Y18200D03*
X30923Y23823D03*
X36600Y27500D03*
X27003Y34397D03*
Y31397D03*
Y28397D03*
X34500Y44100D03*
X32500Y46200D03*
X37000Y39800D03*
X27739Y56039D03*
X27500Y53700D03*
X29062Y58039D03*
X39100Y20900D03*
X44100Y26100D03*
X44000Y29000D03*
X39239Y56839D03*
X39500Y53200D03*
X45339Y49161D03*
X55300Y22000D03*
X59500Y16500D03*
X50800Y33000D03*
Y49400D03*
X54600Y51200D03*
X65450Y18400D03*
X65200Y49300D03*
X78000Y8800D03*
X73500D03*
X76700Y43400D03*
X75600Y46800D03*
X76800Y49300D03*
X93000Y16500D03*
X104850Y9650D03*
X95300Y17000D03*
X103874Y53000D03*
X113500Y11300D03*
X108900Y10700D03*
X106750Y27950D03*
X155500Y7100D03*
X152900Y35000D03*
X162000Y41700D03*
X164984Y11816D03*
X165562Y22635D03*
X162562D03*
X165562Y19635D03*
X162562D03*
X166100Y41200D03*
X178600Y2900D03*
X181997Y25658D03*
Y23658D03*
Y21658D03*
Y19658D03*
Y17658D03*
X174330Y18216D03*
X177100Y36154D03*
X194500Y20700D03*
X194593Y23149D03*
X191891Y20610D03*
X192100Y22800D03*
X189500Y20400D03*
Y22600D03*
X187217Y20057D03*
X186400Y22100D03*
X185100Y18900D03*
X185298Y24004D03*
X207100Y20700D03*
X205700Y23100D03*
X203731Y20564D03*
X203354Y22733D03*
X201016Y20400D03*
X201004Y22700D03*
X198816Y20355D03*
X198807Y22574D03*
X196689Y20917D03*
X196767Y23484D03*
X207400Y18500D03*
X207766Y23857D03*
G54D30*
G01X11132Y26382D02*
X6272D01*
X6154Y26500D01*
G01X32842Y12346D02*
X29696Y9200D01*
X19200D01*
X17746Y10654D01*
X17500D01*
G01X33868Y36618D02*
X33850Y36600D01*
X30100D01*
X27516Y39184D01*
X24216D01*
G01X33868Y36618D02*
X30082D01*
X25059Y41641D01*
Y42868D01*
G01X24216Y39184D02*
X21716D01*
X19941Y40959D01*
Y42868D01*
G01X22500D02*
Y40900D01*
X24216Y39184D01*
G01X32842Y12346D02*
G01D02*
G01Y12346D02*
X33846D01*
X65200Y43700D01*
Y49300D01*
G01X27618Y20132D02*
Y17982D01*
X29600Y16000D01*
X34700D01*
X39100Y20400D01*
Y20900D01*
G01X33503Y20269D02*
X33600D01*
Y20000D01*
X30309D01*
X30177Y20132D01*
G01X33868Y26382D02*
X34818D01*
X36600Y24600D01*
Y20550D01*
X34250Y18200D01*
G01X33868Y23823D02*
X30923D01*
G01X33868Y34059D02*
X35906D01*
X38846Y37000D01*
G01X33868Y31500D02*
X37346D01*
X38846Y33000D01*
G01X42154Y37000D02*
Y33000D01*
G01D02*
X50800D01*
G01X42854Y54279D02*
X45620D01*
X50500Y49400D01*
X50800D01*
G01X42854Y56839D02*
X45461D01*
X51100Y51200D01*
X54600D01*
G01X59500Y16500D02*
X93000D01*
G01X65450Y18400D02*
X93900D01*
X95300Y17000D01*
G01X78000Y8800D02*
Y4535D01*
X77890Y4425D01*
G01X73500Y8800D02*
Y4484D01*
X73559Y4425D01*
G01X104850Y9650D02*
X107650Y12450D01*
Y21350D01*
X85600Y43400D01*
X76700D01*
G01X75600Y46800D02*
X84300D01*
X111400Y19700D01*
Y13200D01*
X108900Y10700D01*
G01X148346Y15000D02*
Y10646D01*
X142350Y4650D01*
X126150D01*
X120700Y10100D01*
Y17000D01*
X82400Y55300D01*
Y57395D01*
X82221Y57575D01*
G01X76800Y49300D02*
X78200Y50700D01*
Y57265D01*
X77890Y57575D01*
G01X86551D02*
X86506Y57530D01*
Y54194D01*
X122100Y18600D01*
Y11100D01*
X126400Y6800D01*
X141700D01*
X144700Y9800D01*
Y17200D01*
X146500Y19000D01*
X148346D01*
G01X90882Y57575D02*
Y54398D01*
X95780Y49500D01*
X120300D01*
X123200Y52400D01*
X143666D01*
X144900Y51166D01*
Y26100D01*
X148000Y23000D01*
X148346D01*
G01Y27000D02*
X148000D01*
X146500Y28500D01*
Y53080D01*
X142880Y56700D01*
X124600D01*
X118800Y50900D01*
X99000D01*
X95213Y54687D01*
Y57575D01*
G01X158341Y20016D02*
X152669D01*
X151654Y19000D01*
G01X158341Y23953D02*
X154701D01*
X151654Y27000D01*
G01X158341Y21984D02*
X152669D01*
X151654Y23000D01*
G01X158341Y18047D02*
X154701D01*
X151654Y15000D01*
G01X169659Y20016D02*
X174316D01*
X175700Y21400D01*
X177446D01*
X177500Y21346D01*
G01Y12744D02*
X176956D01*
X171653Y18047D01*
X169659D01*
G01Y23953D02*
X176799D01*
X177500Y24654D01*
G01X164984Y26659D02*
Y29331D01*
X168500Y32846D01*
G01X172500D02*
X171946D01*
X166953Y27853D01*
Y26659D01*
G01X194500Y20700D02*
X195000Y20200D01*
Y16752D01*
X194925Y16677D01*
G01X194593Y23149D02*
X194925Y23481D01*
Y26323D01*
G01X191891Y20610D02*
X192044D01*
X193350Y19304D01*
Y16677D01*
G01X192100Y22800D02*
Y23202D01*
X193350Y24452D01*
Y26323D01*
G01X189500Y20400D02*
X191700Y18200D01*
Y16753D01*
X191776Y16677D01*
G01X189500Y22600D02*
X189907Y23007D01*
Y23256D01*
X191087Y24437D01*
X191088D01*
X191673Y25023D01*
X191878Y25227D01*
Y26220D01*
X191776Y26323D01*
G01X187217Y20057D02*
X187297D01*
X188754Y18600D01*
X188800D01*
X190201Y17199D01*
Y16677D01*
G01Y26323D02*
Y25834D01*
X188767Y24400D01*
X188754D01*
X187678Y23324D01*
X187624D01*
X186400Y22100D01*
G01X185100Y18900D02*
X185143D01*
X187248Y16795D01*
G01X185298Y24004D02*
X185304D01*
X187248Y25948D01*
Y26205D01*
G01X207100Y20700D02*
X206413D01*
X204477Y18764D01*
X204364D01*
X202799Y17199D01*
Y16677D01*
G01X205700Y23100D02*
X204580Y24221D01*
X204413D01*
X203827Y24806D01*
Y24812D01*
X202799Y25840D01*
Y26323D01*
G01X201224Y16677D02*
X201200Y16702D01*
Y17954D01*
X202136Y18890D01*
X203323Y20077D01*
Y20156D01*
X203731Y20564D01*
G01X203354Y22733D02*
Y22995D01*
X201913Y24437D01*
X201912D01*
X201327Y25023D01*
Y26221D01*
X201224Y26323D01*
G01X201016Y20400D02*
Y20009D01*
X199650Y18642D01*
Y16677D01*
G01X201004Y22700D02*
Y23366D01*
X199927Y24443D01*
Y24871D01*
X199650Y25148D01*
Y26323D01*
G01X198816Y20355D02*
Y20316D01*
X198075Y19575D01*
Y16677D01*
G01X198848Y22636D02*
X198807Y22596D01*
G01D02*
Y22574D01*
G01Y22596D02*
Y23582D01*
X198527Y23863D01*
Y24291D01*
X198177Y24640D01*
Y26221D01*
X198075Y26323D01*
G01X196689Y20917D02*
X196500Y20727D01*
Y16677D01*
G01X196767Y23484D02*
Y23485D01*
X196500Y23752D01*
Y26323D01*
G01X207400Y18500D02*
Y18443D01*
X205752Y16795D01*
G01X207766Y23857D02*
X207737Y23886D01*
Y24220D01*
X205752Y26205D01*
G54D21*
X163500Y7055D03*
Y34614D03*
G54D12*
X5000Y5000D03*
X177000Y57000D03*
G54D31*
G01X2846Y24540D02*
Y26500D01*
G01D02*
Y29654D01*
G01X3500Y32800D02*
X2846Y33454D01*
G01D02*
Y36000D01*
G01D02*
Y37960D01*
G01X1408Y36000D02*
X2846D01*
G01X1408Y26500D02*
X2846D01*
G01Y40000D02*
Y42946D01*
G01Y38040D02*
Y40000D01*
G01X1408D02*
X2846D01*
G01X17500Y7346D02*
X17146D01*
X14400Y4600D01*
G01X5200Y23857D02*
X5243D01*
X5277Y23823D01*
X11132D01*
G01D02*
X12877D01*
G01D02*
X17777D01*
X19941Y21659D01*
Y20132D01*
G01X12877Y23823D02*
X14823Y21877D01*
Y20132D01*
G01X6154Y36000D02*
Y40000D01*
G01Y36000D02*
Y32754D01*
X5800Y32400D01*
G01X6154Y36000D02*
X6772Y36618D01*
X11132D01*
G01Y28941D02*
X19941D01*
X22500Y31500D01*
G01X5110Y51500D02*
Y41043D01*
X6154Y40000D01*
G01X8206Y39600D02*
X6554D01*
X6154Y40000D01*
G01X5110Y51500D02*
X8164Y48446D01*
X23700D01*
G01X13335Y42868D02*
X14823D01*
G01X11132Y44468D02*
X10400Y45200D01*
G01X11132Y39177D02*
Y44468D01*
G01X23158Y5653D02*
Y5558D01*
X20300Y2700D01*
G01X23158Y12346D02*
X22054Y12346D01*
X20000Y14400D01*
G01X17500Y5908D02*
Y7346D01*
G01D02*
X19460D01*
G01X20686Y5653D02*
X23158D01*
G01D02*
X25629D01*
G01X20686Y12346D02*
X23158D01*
G01D02*
X25629D01*
G01X25059Y20132D02*
Y21859D01*
X27700Y24500D01*
X28700D01*
X30800Y26600D01*
Y27300D01*
X32440Y28941D01*
X33868D01*
G01X22500Y20132D02*
Y17600D01*
G01X17382Y20132D02*
Y17182D01*
G01X22500Y31500D02*
X29499D01*
G01X15501D02*
X22500D01*
G01D02*
Y37318D01*
G01Y25682D02*
Y31500D01*
G01X14823Y40642D02*
Y42868D01*
G01D02*
Y46223D01*
G01X23700Y48446D02*
X27500D01*
G01X18890Y51500D02*
Y52590D01*
X22339Y56039D01*
X27739D01*
G01X23700Y51754D02*
Y54000D01*
G01X32842Y5653D02*
X38193D01*
X38846Y5000D01*
G01X36173Y11827D02*
Y11973D01*
X37200Y13000D01*
G01X38846Y25254D02*
X36600Y27500D01*
G01X33868Y28941D02*
X38787D01*
X38846Y29000D01*
G01X27618Y42868D02*
Y48328D01*
X27500Y48446D01*
G01X32500D02*
Y46200D01*
G01X34500Y44100D02*
X33268Y42868D01*
G01X37000Y39800D02*
X36377Y39177D01*
G01X33268Y42868D02*
X30177D01*
G01X36377Y39177D02*
X33868D01*
G01D02*
Y40665D01*
G01X31642Y39177D02*
X33868D01*
G01X30177Y40642D02*
Y42868D01*
G01D02*
Y45094D01*
G01X27739Y56039D02*
X30419D01*
X30743Y55715D01*
X31131D01*
X32500Y54347D01*
G01D02*
Y51754D01*
G01X37146Y49161D02*
X35480D01*
X34257Y50385D01*
X34215D01*
X32846Y51754D01*
X32500D01*
G01X42854Y51720D02*
X40849D01*
X40328Y51200D01*
X40300D01*
X38250Y49150D01*
X37157D01*
X37146Y49161D01*
G01X32500Y54347D02*
X37079D01*
X37146Y54279D01*
G01X27500Y51754D02*
Y53700D01*
G01X29062Y58039D02*
X31353D01*
X31739Y57654D01*
X32500D01*
G01X35756Y56839D02*
X37146D01*
G01X32500Y57654D02*
Y59092D01*
G01Y57654D02*
X34460D01*
G01X38846Y5000D02*
Y9000D01*
G01X73559Y57575D02*
Y36059D01*
X42500Y5000D01*
X42154D01*
G01Y13000D02*
X69350Y40196D01*
Y57453D01*
X69228Y57575D01*
G01X42154Y9000D02*
X42300D01*
X55300Y22000D01*
G01X37200Y13000D02*
X38846D01*
G01Y25000D02*
Y25254D01*
G01Y29000D02*
Y25254D01*
G01X42154Y25000D02*
X43000D01*
X44100Y26100D01*
G01X42154Y23040D02*
Y25000D01*
G01D02*
Y26960D01*
G01Y29000D02*
X44000D01*
G01X42854Y47772D02*
Y49161D01*
G01X37146Y56839D02*
X39239D01*
G01X37146Y51720D02*
X38020D01*
X39500Y53200D01*
G01X42854Y49161D02*
X45339D01*
G01X41465D02*
X42854D01*
G01X37146Y56839D02*
Y58228D01*
G01X103874Y53000D02*
Y57575D01*
G01X106750Y27950D02*
X114100Y20600D01*
Y12600D01*
X113500Y12000D01*
Y11300D01*
G01X116866Y53725D02*
Y57575D01*
G01D02*
X119141D01*
G01X152900Y35000D02*
X152700D01*
X150660Y32960D01*
X150418D01*
X148346Y30888D01*
Y30500D01*
G01X161047Y15341D02*
Y13444D01*
X161016Y13413D01*
Y11756D01*
X161047Y11724D01*
Y11701D01*
X158000Y8654D01*
G01X155500Y7100D02*
X155600D01*
X157354Y5347D01*
X158000D01*
G01X163016Y26659D02*
Y29384D01*
X159554Y32846D01*
X158500D01*
G01Y36154D02*
Y38200D01*
X162000Y41700D01*
G01X161047Y26659D02*
Y28353D01*
X159940Y29460D01*
X152694D01*
X151654Y30500D01*
G01X170000Y2707D02*
Y4244D01*
G01X164984Y11816D02*
X167044Y9756D01*
X170000D01*
G01X164984Y15341D02*
Y11816D01*
G01X170000Y9756D02*
Y9000D01*
X173654Y5347D01*
X174500D01*
G01Y8654D02*
X174100Y9054D01*
Y11000D01*
X172600Y12500D01*
X168700D01*
X166953Y14247D01*
Y15341D01*
G01X170000Y4244D02*
Y5781D01*
G01X167430Y4244D02*
X170000D01*
G01X163016Y15341D02*
Y20016D01*
X164000Y21000D01*
G01X169659Y21984D02*
X164984D01*
X164000Y21000D01*
G01X168500Y36154D02*
Y38800D01*
G01X177100Y36154D02*
X172500D01*
G01D02*
Y37592D01*
G01X170540Y36154D02*
X172500D01*
G01X168500Y38800D02*
X166100Y41200D01*
G01X167216Y51650D02*
Y55500D01*
G01D02*
Y59350D01*
G01X163367Y55500D02*
X167216D01*
G01D02*
X171066D01*
G01X174330Y18216D02*
X174370Y18256D01*
G01D02*
X177500D01*
G01Y16719D02*
Y18256D01*
G01D02*
X180070D01*
G54D13*
X11132Y23823D03*
Y36618D03*
Y34059D03*
Y31500D03*
Y28941D03*
Y26382D03*
Y39177D03*
X33868Y23823D03*
Y26382D03*
Y28941D03*
Y31500D03*
Y34059D03*
Y36618D03*
Y39177D03*
G54D22*
X161047Y15341D03*
Y26659D03*
X163016Y15341D03*
X164984D03*
X166953D03*
Y26659D03*
X164984D03*
X163016D03*
G54D14*
X5110Y51500D03*
X18890D03*
G54D23*
X164000Y21000D03*
G54D15*
X23158Y12346D03*
Y5653D03*
X32842Y12346D03*
Y5653D03*
G54D24*
X158341Y23953D03*
Y21984D03*
Y20016D03*
Y18047D03*
X169659D03*
Y20016D03*
Y21984D03*
Y23953D03*
G54D25*
X157216Y55500D03*
G54D16*
X17500Y7346D03*
Y10654D03*
X23700Y48446D03*
Y51754D03*
X32500Y48446D03*
X27500D03*
X32500Y54347D03*
Y57654D03*
Y51754D03*
X27500D03*
X158000Y5347D03*
Y8654D03*
X158500Y36154D03*
Y32846D03*
X172500Y36154D03*
Y32846D03*
X168500Y36154D03*
Y32846D03*
X174500Y8654D03*
Y5347D03*
X177500Y21346D03*
Y24654D03*
G54D26*
X170000Y4244D03*
Y9756D03*
X177500Y12744D03*
Y18256D03*
G54D17*
X14823Y20132D03*
X17382D03*
X19941D03*
X22500D03*
X25059D03*
Y42868D03*
X22500D03*
X19941D03*
X17382D03*
X14823D03*
X27618Y20132D03*
X30177D03*
Y42868D03*
X27618D03*
G54D27*
X167216Y55500D03*
G54D18*
X22500Y31500D03*
G54D28*
X187248Y16795D03*
Y26205D03*
X205752Y16795D03*
Y26205D03*
G54D19*
X42854Y56839D03*
X37146D03*
X42854Y54279D03*
X37146D03*
X42854Y51720D03*
X37146D03*
X42854Y49161D03*
X37146D03*
G54D29*
X190201Y16677D03*
X191776D03*
X193350D03*
X194925D03*
X190201Y26323D03*
X191776D03*
X193350D03*
X194925D03*
X196500Y16677D03*
X198075D03*
X199650D03*
X201224D03*
X202799D03*
Y26323D03*
X201224D03*
X199650D03*
X198075D03*
X196500D03*
M02*
