G04 ================== begin FILE IDENTIFICATION RECORD ==================*
G04 Layout Name:  extend-pcb.brd*
G04 Film Name:    DRILL*
G04 File Format:  Gerber RS274X*
G04 File Origin:  Cadence Allegro 16.6-2015-S065*
G04 Origin Date:  Fri Aug 26 00:19:03 2016*
G04 *
G04 Layer:  MANUFACTURING/NCLEGEND-1-2*
G04 *
G04 Offset:    (0.000 0.000)*
G04 Mirror:    No*
G04 Mode:      Positive*
G04 Rotation:  0*
G04 FullContactRelief:  No*
G04 UndefLineWidth:     1.000*
G04 ================== end FILE IDENTIFICATION RECORD ====================*
%FSLAX25Y25*MOIN*%
%IR0*IPPOS*OFA0.00000B0.00000*MIA0B0*SFA1.00000B1.00000*%
%AMMACRO13*
1,1,.001,.02067,0.0*
20,1,.001,.02067,0.0,.010335,.0179,0.0*
1,1,.001,.010335,.0179*
20,1,.001,.010335,.0179,-.010335,.0179,0.0*
1,1,.001,-.010335,.0179*
20,1,.001,-.010335,.0179,-.02067,0.0,0.0*
1,1,.001,-.02067,0.0*
20,1,.001,-.02067,0.0,-.010335,-.0179,0.0*
1,1,.001,-.010335,-.0179*
20,1,.001,-.010335,-.0179,.010335,-.0179,0.0*
1,1,.001,.010335,-.0179*
20,1,.001,.010335,-.0179,.02067,0.0,0.0*
1,1,.001,.02067,0.0*
1,1,.001,-.008612,-.010334*
20,1,.001,-.008612,-.010334,0.0,.010335,0.0*
1,1,.001,0.0,.010335*
20,1,.001,0.0,.010335,.008613,-.010334,0.0*
1,1,.001,.008613,-.010334*
1,1,.001,.005512,-.0031*
20,1,.001,.005512,-.0031,-.005512,-.0031,0.0*
1,1,.001,-.005512,-.0031*
%
%ADD13MACRO13*%
%AMMACRO12*
1,1,.001,.027559,0.0*
20,1,.001,.027559,0.0,.01378,.023867,0.0*
1,1,.001,.01378,.023867*
20,1,.001,.01378,.023867,-.013779,.023867,0.0*
1,1,.001,-.013779,.023867*
20,1,.001,-.013779,.023867,-.027559,0.0,0.0*
1,1,.001,-.027559,0.0*
20,1,.001,-.027559,0.0,-.01378,-.023867,0.0*
1,1,.001,-.01378,-.023867*
20,1,.001,-.01378,-.023867,.013779,-.023867,0.0*
1,1,.001,.013779,-.023867*
20,1,.001,.013779,-.023867,.027559,0.0,0.0*
1,1,.001,.027559,0.0*
1,1,.001,-.011483,-.013779*
20,1,.001,-.011483,-.013779,0.0,.01378,0.0*
1,1,.001,0.0,.01378*
20,1,.001,0.0,.01378,.011484,-.013779,0.0*
1,1,.001,.011484,-.013779*
1,1,.001,.007349,-.004134*
20,1,.001,.007349,-.004134,-.007349,-.004134,0.0*
1,1,.001,-.007349,-.004134*
%
%ADD12MACRO12*%
%AMMACRO11*
1,1,.001,.019685,0.0*
20,1,.001,.019685,0.0,.009843,.017048,0.0*
1,1,.001,.009843,.017048*
20,1,.001,.009843,.017048,-.009842,.017048,0.0*
1,1,.001,-.009842,.017048*
20,1,.001,-.009842,.017048,-.019685,0.0,0.0*
1,1,.001,-.019685,0.0*
20,1,.001,-.019685,0.0,-.009843,-.017048,0.0*
1,1,.001,-.009843,-.017048*
20,1,.001,-.009843,-.017048,.009842,-.017048,0.0*
1,1,.001,.009842,-.017048*
20,1,.001,.009842,-.017048,.019685,0.0,0.0*
1,1,.001,.019685,0.0*
1,1,.001,-.008202,-.009842*
20,1,.001,-.008202,-.009842,0.0,.009843,0.0*
1,1,.001,0.0,.009843*
20,1,.001,0.0,.009843,.008203,-.009842,0.0*
1,1,.001,.008203,-.009842*
1,1,.001,.00525,-.002953*
20,1,.001,.00525,-.002953,-.005249,-.002953,0.0*
1,1,.001,-.005249,-.002953*
%
%ADD11MACRO11*%
%AMMACRO10*
1,1,.001,.006,0.0*
20,1,.001,.006,0.0,.003,.005196,0.0*
1,1,.001,.003,.005196*
20,1,.001,.003,.005196,-.003,.005196,0.0*
1,1,.001,-.003,.005196*
20,1,.001,-.003,.005196,-.006,0.0,0.0*
1,1,.001,-.006,0.0*
20,1,.001,-.006,0.0,-.003,-.005196,0.0*
1,1,.001,-.003,-.005196*
20,1,.001,-.003,-.005196,.003,-.005196,0.0*
1,1,.001,.003,-.005196*
20,1,.001,.003,-.005196,.006,0.0,0.0*
1,1,.001,.006,0.0*
1,1,.001,-.0025,-.003*
20,1,.001,-.0025,-.003,0.0,.003,0.0*
1,1,.001,0.0,.003*
20,1,.001,0.0,.003,.0025,-.003,0.0*
1,1,.001,.0025,-.003*
1,1,.001,.0016,-.0009*
20,1,.001,.0016,-.0009,-.0016,-.0009,0.0*
1,1,.001,-.0016,-.0009*
%
%ADD10MACRO10*%
%ADD14C,.001*%
G75*
%LPD*%
G75*
G54D10*
X2846Y29654D03*
Y42946D03*
X14400Y4600D03*
X5200Y23857D03*
X5800Y32400D03*
X3500Y32800D03*
X8206Y39600D03*
X10400Y45200D03*
X20300Y2700D03*
X20000Y14400D03*
X22500Y17600D03*
X17382Y17182D03*
X24003Y34397D03*
X21003D03*
X18003D03*
X24003Y31397D03*
X21003D03*
X18003D03*
X24003Y28397D03*
X21003D03*
X18003D03*
X14823Y46223D03*
X23700Y54000D03*
X36173Y11827D03*
X33503Y20269D03*
X34250Y18200D03*
X30923Y23823D03*
X36600Y27500D03*
X27003Y34397D03*
Y31397D03*
Y28397D03*
X34500Y44100D03*
X32500Y46200D03*
X37000Y39800D03*
X27739Y56039D03*
X27500Y53700D03*
X29062Y58039D03*
X39100Y20900D03*
X44100Y26100D03*
X44000Y29000D03*
X39239Y56839D03*
X39500Y53200D03*
X45339Y49161D03*
X55300Y22000D03*
X59500Y16500D03*
X50800Y33000D03*
Y49400D03*
X54600Y51200D03*
X65450Y18400D03*
X65200Y49300D03*
X78000Y8800D03*
X73500D03*
X76700Y43400D03*
X75600Y46800D03*
X76800Y49300D03*
X93000Y16500D03*
X104850Y9650D03*
X95300Y17000D03*
X103874Y53000D03*
X113500Y11300D03*
X108900Y10700D03*
X106750Y27950D03*
X155500Y7100D03*
X152900Y35000D03*
X162000Y41700D03*
X164984Y11816D03*
X165562Y22635D03*
X162562D03*
X165562Y19635D03*
X162562D03*
X166100Y41200D03*
X178600Y2900D03*
X181997Y25658D03*
Y23658D03*
Y21658D03*
Y19658D03*
Y17658D03*
X174330Y18216D03*
X177100Y36154D03*
X194500Y20700D03*
X194593Y23149D03*
X191891Y20610D03*
X192100Y22800D03*
X189500Y20400D03*
Y22600D03*
X187217Y20057D03*
X186400Y22100D03*
X185100Y18900D03*
X185298Y24004D03*
X207100Y20700D03*
X205700Y23100D03*
X203731Y20564D03*
X203354Y22733D03*
X201016Y20400D03*
X201004Y22700D03*
X198816Y20355D03*
X198807Y22574D03*
X196689Y20917D03*
X196767Y23484D03*
X207400Y18500D03*
X207766Y23857D03*
X265950Y67300D03*
G54D11*
X5000Y5000D03*
X177000Y57000D03*
X265950Y17300D03*
G54D12*
X163500Y7055D03*
Y34614D03*
X265950Y-7700D03*
G54D13*
X157216Y55500D03*
X167216D03*
X265950Y42300D03*
G54D14*
G01X221000Y-20200D02*
Y154800D01*
X704600D01*
Y-20200D01*
X221000D01*
G01Y4800D02*
X704600D01*
G01X221000Y29800D02*
X704600D01*
G01X221000Y54800D02*
X704600D01*
G01X221000Y79800D02*
X704600D01*
G01X221000Y104800D02*
X704600D01*
G01X221000Y129800D02*
X704600D01*
G01X232005Y86050D02*
Y98550D01*
X237895D01*
G01X235725Y92508D02*
X232005D01*
G01X245490Y98550D02*
X249210D01*
G01X247350D02*
Y86050D01*
G01X245490D02*
X249210D01*
G01X260680Y92300D02*
X263780D01*
Y88550D01*
X262850Y87300D01*
X261765Y86467D01*
X260215Y86050D01*
X258665Y86467D01*
X257580Y87300D01*
X256650Y88550D01*
X256030Y90008D01*
X255720Y91675D01*
Y93133D01*
X256030Y94383D01*
X256650Y95842D01*
X257580Y97092D01*
X258510Y97925D01*
X259750Y98550D01*
X260835D01*
X262075Y98133D01*
X263005Y97300D01*
G01X268740Y98550D02*
Y89592D01*
X269360Y87716D01*
X270600Y86467D01*
X272150Y86050D01*
X273700Y86467D01*
X274940Y87716D01*
X275560Y89592D01*
Y98550D01*
G01X281450Y86050D02*
Y98550D01*
X285325D01*
X286565Y97925D01*
X287340Y97092D01*
X287650Y95425D01*
X287340Y93758D01*
X286410Y92717D01*
X285325Y92092D01*
X281450D01*
G01X285325D02*
X287650Y86050D01*
G01X300050D02*
X293850D01*
Y98550D01*
X300050D01*
G01X297570Y92508D02*
X293850D01*
G01X304390Y136050D02*
Y148550D01*
X307490D01*
X308730Y147925D01*
X309660Y147092D01*
X310435Y145842D01*
X311055Y144383D01*
X311210Y142300D01*
X311055Y140216D01*
X310435Y138758D01*
X309660Y137508D01*
X308730Y136675D01*
X307490Y136050D01*
X304390D01*
G01X317100D02*
Y148550D01*
X320975D01*
X322215Y147925D01*
X322990Y147092D01*
X323300Y145425D01*
X322990Y143758D01*
X322060Y142717D01*
X320975Y142092D01*
X317100D01*
G01X320975D02*
X323300Y136050D01*
G01X330740Y148550D02*
X334460D01*
G01X332600D02*
Y136050D01*
G01X330740D02*
X334460D01*
G01X341900Y148550D02*
Y136050D01*
X348100D01*
G01X354300Y148550D02*
Y136050D01*
X360500D01*
G01X385610Y147508D02*
X384680Y148133D01*
X383595Y148550D01*
X382355D01*
X380960Y147925D01*
X379875Y146883D01*
X379100Y145633D01*
X378480Y143550D01*
X378325Y141675D01*
X378635Y139800D01*
X379100Y138550D01*
X380030Y137300D01*
X381115Y136467D01*
X382200Y136050D01*
X383285D01*
X384370Y136467D01*
X385300Y137091D01*
X386075Y137925D01*
G01X391345Y136050D02*
Y148550D01*
G01X397855D02*
Y136050D01*
G01Y142300D02*
X391345D01*
G01X403125Y136050D02*
X407000Y148550D01*
X410875Y136050D01*
G01X409480Y140425D02*
X404520D01*
G01X416300Y136050D02*
Y148550D01*
X420175D01*
X421415Y147925D01*
X422190Y147092D01*
X422500Y145425D01*
X422190Y143758D01*
X421260Y142717D01*
X420175Y142092D01*
X416300D01*
G01X420175D02*
X422500Y136050D01*
G01X431800Y148550D02*
Y136050D01*
G01X428235Y148550D02*
X435365D01*
G01X444200Y135633D02*
X443890Y135842D01*
Y136258D01*
X444200Y136467D01*
X444510Y136258D01*
Y135842D01*
X444200Y135633D01*
G01Y141258D02*
X443890Y141467D01*
Y141883D01*
X444200Y142092D01*
X444510Y141883D01*
Y141467D01*
X444200Y141258D01*
G01X469000Y148550D02*
Y136050D01*
G01X465435Y148550D02*
X472565D01*
G01X481400Y136050D02*
X480160Y136258D01*
X479075Y137091D01*
X478145Y138342D01*
X477525Y139800D01*
X477215Y141467D01*
Y143133D01*
X477525Y144800D01*
X478145Y146258D01*
X479075Y147508D01*
X480160Y148342D01*
X481400Y148550D01*
X482640Y148342D01*
X483725Y147508D01*
X484655Y146258D01*
X485275Y144800D01*
X485585Y143133D01*
Y141467D01*
X485275Y139800D01*
X484655Y138342D01*
X483725Y137091D01*
X482640Y136258D01*
X481400Y136050D01*
G01X490700D02*
Y148550D01*
X494420D01*
X495660Y147925D01*
X496590Y146467D01*
X496900Y144800D01*
X496590Y143133D01*
X495815Y141883D01*
X494420Y141258D01*
X490700D01*
G01X518600Y148550D02*
Y136050D01*
G01X516430Y144383D02*
X520770D01*
G01X531000Y136050D02*
X530070Y136258D01*
X529140Y137091D01*
X528520Y138550D01*
X528210Y140216D01*
X528520Y141883D01*
X529140Y143342D01*
X530070Y144175D01*
X531000Y144383D01*
X531930Y144175D01*
X532860Y143342D01*
X533480Y141883D01*
X533635Y140216D01*
X533480Y138550D01*
X532860Y137091D01*
X531930Y136258D01*
X531000Y136050D01*
G01X557040Y142717D02*
X557660Y143342D01*
X558125Y144383D01*
X558435Y145842D01*
X558125Y147092D01*
X557505Y147925D01*
X556420Y148550D01*
X552235D01*
Y136050D01*
X557350D01*
X558435Y136883D01*
X559055Y138133D01*
X559365Y139592D01*
X559055Y141050D01*
X558125Y142300D01*
X557040Y142717D01*
X552235D01*
G01X568200Y136050D02*
X566960Y136258D01*
X565875Y137091D01*
X564945Y138342D01*
X564325Y139800D01*
X564015Y141467D01*
Y143133D01*
X564325Y144800D01*
X564945Y146258D01*
X565875Y147508D01*
X566960Y148342D01*
X568200Y148550D01*
X569440Y148342D01*
X570525Y147508D01*
X571455Y146258D01*
X572075Y144800D01*
X572385Y143133D01*
Y141467D01*
X572075Y139800D01*
X571455Y138342D01*
X570525Y137091D01*
X569440Y136258D01*
X568200Y136050D01*
G01X580600Y148550D02*
Y136050D01*
G01X577035Y148550D02*
X584165D01*
G01X593000D02*
Y136050D01*
G01X589435Y148550D02*
X596565D01*
G01X605400Y136050D02*
X604160Y136258D01*
X603075Y137091D01*
X602145Y138342D01*
X601525Y139800D01*
X601215Y141467D01*
Y143133D01*
X601525Y144800D01*
X602145Y146258D01*
X603075Y147508D01*
X604160Y148342D01*
X605400Y148550D01*
X606640Y148342D01*
X607725Y147508D01*
X608655Y146258D01*
X609275Y144800D01*
X609585Y143133D01*
Y141467D01*
X609275Y139800D01*
X608655Y138342D01*
X607725Y137091D01*
X606640Y136258D01*
X605400Y136050D01*
G01X613770D02*
Y148550D01*
X617800Y138133D01*
X621830Y148550D01*
Y136050D01*
G01X310900Y104800D02*
Y-20200D01*
G01X334925Y111050D02*
X338800Y123550D01*
X342675Y111050D01*
G01X341280Y115425D02*
X336320D01*
G01X348100Y123550D02*
Y111050D01*
X354300D01*
G01X360500Y123550D02*
Y111050D01*
X366700D01*
G01X384990Y123550D02*
Y114592D01*
X385610Y112716D01*
X386850Y111467D01*
X388400Y111050D01*
X389950Y111467D01*
X391190Y112716D01*
X391810Y114592D01*
Y123550D01*
G01X397235Y111050D02*
Y123550D01*
X404365Y111050D01*
Y123550D01*
G01X411340D02*
X415060D01*
G01X413200D02*
Y111050D01*
G01X411340D02*
X415060D01*
G01X425600Y123550D02*
Y111050D01*
G01X422035Y123550D02*
X429165D01*
G01X434745Y112716D02*
X435985Y111675D01*
X437380Y111050D01*
X438620D01*
X439860Y111675D01*
X440790Y112716D01*
X441255Y114175D01*
X440945Y115633D01*
X440170Y116883D01*
X438775Y117717D01*
X436915Y118133D01*
X435830Y118966D01*
X435365Y120425D01*
X435675Y121883D01*
X436450Y122925D01*
X437535Y123550D01*
X438620D01*
X439705Y123133D01*
X440635Y122092D01*
G01X458925Y111050D02*
X462800Y123550D01*
X466675Y111050D01*
G01X465280Y115425D02*
X460320D01*
G01X472100Y111050D02*
Y123550D01*
X475975D01*
X477215Y122925D01*
X477990Y122092D01*
X478300Y120425D01*
X477990Y118758D01*
X477060Y117717D01*
X475975Y117092D01*
X472100D01*
G01X475975D02*
X478300Y111050D01*
G01X490700D02*
X484500D01*
Y123550D01*
X490700D01*
G01X488220Y117509D02*
X484500D01*
G01X510540Y123550D02*
X514260D01*
G01X512400D02*
Y111050D01*
G01X510540D02*
X514260D01*
G01X521235D02*
Y123550D01*
X528365Y111050D01*
Y123550D01*
G01X545570Y111050D02*
Y123550D01*
X549600Y113133D01*
X553630Y123550D01*
Y111050D01*
G01X560140Y123550D02*
X563860D01*
G01X562000D02*
Y111050D01*
G01X560140D02*
X563860D01*
G01X571300Y123550D02*
Y111050D01*
X577500D01*
G01X583545Y112716D02*
X584785Y111675D01*
X586180Y111050D01*
X587420D01*
X588660Y111675D01*
X589590Y112716D01*
X590055Y114175D01*
X589745Y115633D01*
X588970Y116883D01*
X587575Y117717D01*
X585715Y118133D01*
X584630Y118966D01*
X584165Y120425D01*
X584475Y121883D01*
X585250Y122925D01*
X586335Y123550D01*
X587420D01*
X588505Y123133D01*
X589435Y122092D01*
G01X371040Y-12075D02*
X371970Y-13117D01*
X373055Y-13742D01*
X374450Y-13950D01*
X375845Y-13533D01*
X376930Y-12700D01*
X377705Y-11242D01*
X377860Y-9575D01*
X377550Y-7908D01*
X376775Y-6867D01*
X375690Y-6034D01*
X374605Y-5825D01*
X373520Y-6034D01*
X372125Y-6867D01*
X372590Y-1450D01*
X376775D01*
G01X383440Y-12075D02*
X384370Y-13117D01*
X385455Y-13742D01*
X386850Y-13950D01*
X388245Y-13533D01*
X389330Y-12700D01*
X390105Y-11242D01*
X390260Y-9575D01*
X389950Y-7908D01*
X389175Y-6867D01*
X388090Y-6034D01*
X387005Y-5825D01*
X385920Y-6034D01*
X384525Y-6867D01*
X384990Y-1450D01*
X389175D01*
G01X399250Y-14367D02*
X398940Y-14158D01*
Y-13742D01*
X399250Y-13533D01*
X399560Y-13742D01*
Y-14158D01*
X399250Y-14367D01*
G01X411650Y-13950D02*
Y-1450D01*
X409790Y-3950D01*
G01Y-13950D02*
X413510D01*
G01X424050D02*
Y-1450D01*
X422190Y-3950D01*
G01Y-13950D02*
X425910D01*
G01X436450D02*
X437535Y-13742D01*
X438775Y-13117D01*
X439550Y-12075D01*
X439860Y-10617D01*
X439550Y-9159D01*
X438620Y-7908D01*
X437225Y-7283D01*
X435675D01*
X434745Y-6867D01*
X433970Y-5825D01*
X433660Y-4367D01*
X434125Y-2908D01*
X435210Y-1867D01*
X436450Y-1450D01*
X437690Y-1867D01*
X438775Y-2908D01*
X439240Y-4367D01*
X438930Y-5825D01*
X438155Y-6867D01*
X437225Y-7283D01*
X435675D01*
X434280Y-7908D01*
X433350Y-9159D01*
X433040Y-10617D01*
X433350Y-12075D01*
X434125Y-13117D01*
X435365Y-13742D01*
X436450Y-13950D01*
G01X377240Y13550D02*
X378170Y12091D01*
X379410Y11258D01*
X380805Y11050D01*
X382045Y11258D01*
X383285Y12300D01*
X384060Y13550D01*
X384215Y14800D01*
X383905Y16258D01*
X382820Y17300D01*
X381735Y17717D01*
X380340D01*
G01X381735D02*
X382665Y18342D01*
X383440Y19383D01*
X383750Y20633D01*
X383440Y21883D01*
X382665Y22925D01*
X381270Y23550D01*
X379875Y23342D01*
X378480Y22508D01*
G01X390415Y12508D02*
X391500Y11467D01*
X392740Y11050D01*
X393980Y11467D01*
X395065Y12716D01*
X395840Y14592D01*
X396150Y16467D01*
Y18758D01*
X395840Y20633D01*
X395065Y22300D01*
X394135Y23133D01*
X393050Y23550D01*
X391810Y23133D01*
X390880Y22300D01*
X390260Y21050D01*
X389950Y19383D01*
X390260Y17925D01*
X391035Y16467D01*
X391965Y15633D01*
X393050Y15425D01*
X394290Y15841D01*
X395220Y16883D01*
X396150Y18758D01*
G01X405450Y10633D02*
X405140Y10842D01*
Y11258D01*
X405450Y11467D01*
X405760Y11258D01*
Y10842D01*
X405450Y10633D01*
G01X414440Y13550D02*
X415370Y12091D01*
X416610Y11258D01*
X418005Y11050D01*
X419245Y11258D01*
X420485Y12300D01*
X421260Y13550D01*
X421415Y14800D01*
X421105Y16258D01*
X420020Y17300D01*
X418935Y17717D01*
X417540D01*
G01X418935D02*
X419865Y18342D01*
X420640Y19383D01*
X420950Y20633D01*
X420640Y21883D01*
X419865Y22925D01*
X418470Y23550D01*
X417075Y23342D01*
X415680Y22508D01*
G01X429940Y11050D02*
X430250Y13758D01*
X430715Y16050D01*
X431335Y18133D01*
X432110Y20425D01*
X433350Y23550D01*
X427150D01*
G01X376310Y36050D02*
Y48550D01*
X370575Y39592D01*
X378325D01*
G01X386850Y36050D02*
Y48550D01*
X384990Y46050D01*
G01Y36050D02*
X388710D01*
G01X399250Y35633D02*
X398940Y35842D01*
Y36258D01*
X399250Y36467D01*
X399560Y36258D01*
Y35842D01*
X399250Y35633D01*
G01X408240Y38550D02*
X409170Y37091D01*
X410410Y36258D01*
X411805Y36050D01*
X413045Y36258D01*
X414285Y37300D01*
X415060Y38550D01*
X415215Y39800D01*
X414905Y41258D01*
X413820Y42300D01*
X412735Y42717D01*
X411340D01*
G01X412735D02*
X413665Y43342D01*
X414440Y44383D01*
X414750Y45633D01*
X414440Y46883D01*
X413665Y47925D01*
X412270Y48550D01*
X410875Y48342D01*
X409480Y47508D01*
G01X420640Y38550D02*
X421570Y37091D01*
X422810Y36258D01*
X424205Y36050D01*
X425445Y36258D01*
X426685Y37300D01*
X427460Y38550D01*
X427615Y39800D01*
X427305Y41258D01*
X426220Y42300D01*
X425135Y42717D01*
X423740D01*
G01X425135D02*
X426065Y43342D01*
X426840Y44383D01*
X427150Y45633D01*
X426840Y46883D01*
X426065Y47925D01*
X424670Y48550D01*
X423275Y48342D01*
X421880Y47508D01*
G01X433815Y37508D02*
X434900Y36467D01*
X436140Y36050D01*
X437380Y36467D01*
X438465Y37716D01*
X439240Y39592D01*
X439550Y41467D01*
Y43758D01*
X439240Y45633D01*
X438465Y47300D01*
X437535Y48133D01*
X436450Y48550D01*
X435210Y48133D01*
X434280Y47300D01*
X433660Y46050D01*
X433350Y44383D01*
X433660Y42925D01*
X434435Y41467D01*
X435365Y40633D01*
X436450Y40425D01*
X437690Y40841D01*
X438620Y41883D01*
X439550Y43758D01*
G01X386850Y61050D02*
Y73550D01*
X384990Y71050D01*
G01Y61050D02*
X388710D01*
G01X396305Y71467D02*
X397235Y72716D01*
X398320Y73342D01*
X399560Y73550D01*
X401110Y73133D01*
X402195Y72092D01*
X402505Y70842D01*
X402350Y69591D01*
X401730Y68550D01*
X398630Y66467D01*
X397235Y65008D01*
X396305Y62925D01*
X395995Y61050D01*
X402505D01*
G01X411650Y60633D02*
X411340Y60842D01*
Y61258D01*
X411650Y61467D01*
X411960Y61258D01*
Y60842D01*
X411650Y60633D01*
G01X424050Y73550D02*
X422810Y73133D01*
X421880Y72092D01*
X421260Y70842D01*
X420795Y69175D01*
X420640Y67300D01*
X420795Y65425D01*
X421260Y63758D01*
X421880Y62508D01*
X422810Y61467D01*
X424050Y61050D01*
X425290Y61467D01*
X426220Y62508D01*
X426840Y63758D01*
X427305Y65425D01*
X427460Y67300D01*
X427305Y69175D01*
X426840Y70842D01*
X426220Y72092D01*
X425290Y73133D01*
X424050Y73550D01*
G01X383595Y87716D02*
X384835Y86675D01*
X386230Y86050D01*
X387470D01*
X388710Y86675D01*
X389640Y87716D01*
X390105Y89175D01*
X389795Y90633D01*
X389020Y91883D01*
X387625Y92717D01*
X385765Y93133D01*
X384680Y93966D01*
X384215Y95425D01*
X384525Y96883D01*
X385300Y97925D01*
X386385Y98550D01*
X387470D01*
X388555Y98133D01*
X389485Y97092D01*
G01X397390Y98550D02*
X401110D01*
G01X399250D02*
Y86050D01*
G01X397390D02*
X401110D01*
G01X408705Y98550D02*
X414595D01*
X408705Y86050D01*
X414595D01*
G01X427150D02*
X420950D01*
Y98550D01*
X427150D01*
G01X424670Y92508D02*
X420950D01*
G01X500000Y104800D02*
Y-20200D01*
G01X504185Y-13950D02*
Y-1450D01*
X511315Y-13950D01*
Y-1450D01*
G01X520150Y-13950D02*
X518910Y-13742D01*
X517825Y-12909D01*
X516895Y-11658D01*
X516275Y-10200D01*
X515965Y-8533D01*
Y-6867D01*
X516275Y-5200D01*
X516895Y-3742D01*
X517825Y-2492D01*
X518910Y-1658D01*
X520150Y-1450D01*
X521390Y-1658D01*
X522475Y-2492D01*
X523405Y-3742D01*
X524025Y-5200D01*
X524335Y-6867D01*
Y-8533D01*
X524025Y-10200D01*
X523405Y-11658D01*
X522475Y-12909D01*
X521390Y-13742D01*
X520150Y-13950D01*
G01X528985D02*
Y-1450D01*
X536115Y-13950D01*
Y-1450D01*
G01X542935Y-9784D02*
X546965D01*
G01X554250Y-13950D02*
Y-1450D01*
X557970D01*
X559210Y-2075D01*
X560140Y-3533D01*
X560450Y-5200D01*
X560140Y-6867D01*
X559365Y-8117D01*
X557970Y-8742D01*
X554250D01*
G01X566650Y-1450D02*
Y-13950D01*
X572850D01*
G01X578275D02*
X582150Y-1450D01*
X586025Y-13950D01*
G01X584630Y-9575D02*
X579670D01*
G01X594550Y-1450D02*
Y-13950D01*
G01X590985Y-1450D02*
X598115D01*
G01X610050Y-13950D02*
X603850D01*
Y-1450D01*
X610050D01*
G01X607570Y-7492D02*
X603850D01*
G01X615940Y-13950D02*
Y-1450D01*
X619040D01*
X620280Y-2075D01*
X621210Y-2908D01*
X621985Y-4158D01*
X622605Y-5617D01*
X622760Y-7700D01*
X622605Y-9784D01*
X621985Y-11242D01*
X621210Y-12492D01*
X620280Y-13325D01*
X619040Y-13950D01*
X615940D01*
G01X504185Y11050D02*
Y23550D01*
X511315Y11050D01*
Y23550D01*
G01X520150Y11050D02*
X518910Y11258D01*
X517825Y12091D01*
X516895Y13342D01*
X516275Y14800D01*
X515965Y16467D01*
Y18133D01*
X516275Y19800D01*
X516895Y21258D01*
X517825Y22508D01*
X518910Y23342D01*
X520150Y23550D01*
X521390Y23342D01*
X522475Y22508D01*
X523405Y21258D01*
X524025Y19800D01*
X524335Y18133D01*
Y16467D01*
X524025Y14800D01*
X523405Y13342D01*
X522475Y12091D01*
X521390Y11258D01*
X520150Y11050D01*
G01X528985D02*
Y23550D01*
X536115Y11050D01*
Y23550D01*
G01X542935Y15216D02*
X546965D01*
G01X554250Y11050D02*
Y23550D01*
X557970D01*
X559210Y22925D01*
X560140Y21467D01*
X560450Y19800D01*
X560140Y18133D01*
X559365Y16883D01*
X557970Y16258D01*
X554250D01*
G01X566650Y23550D02*
Y11050D01*
X572850D01*
G01X578275D02*
X582150Y23550D01*
X586025Y11050D01*
G01X584630Y15425D02*
X579670D01*
G01X594550Y23550D02*
Y11050D01*
G01X590985Y23550D02*
X598115D01*
G01X610050Y11050D02*
X603850D01*
Y23550D01*
X610050D01*
G01X607570Y17509D02*
X603850D01*
G01X615940Y11050D02*
Y23550D01*
X619040D01*
X620280Y22925D01*
X621210Y22092D01*
X621985Y20842D01*
X622605Y19383D01*
X622760Y17300D01*
X622605Y15216D01*
X621985Y13758D01*
X621210Y12508D01*
X620280Y11675D01*
X619040Y11050D01*
X615940D01*
G01X529450Y36050D02*
Y48550D01*
X533170D01*
X534410Y47925D01*
X535340Y46467D01*
X535650Y44800D01*
X535340Y43133D01*
X534565Y41883D01*
X533170Y41258D01*
X529450D01*
G01X541850Y48550D02*
Y36050D01*
X548050D01*
G01X553475D02*
X557350Y48550D01*
X561225Y36050D01*
G01X559830Y40425D02*
X554870D01*
G01X569750Y48550D02*
Y36050D01*
G01X566185Y48550D02*
X573315D01*
G01X585250Y36050D02*
X579050D01*
Y48550D01*
X585250D01*
G01X582770Y42508D02*
X579050D01*
G01X591140Y36050D02*
Y48550D01*
X594240D01*
X595480Y47925D01*
X596410Y47092D01*
X597185Y45842D01*
X597805Y44383D01*
X597960Y42300D01*
X597805Y40217D01*
X597185Y38758D01*
X596410Y37508D01*
X595480Y36675D01*
X594240Y36050D01*
X591140D01*
G01X529450Y61050D02*
Y73550D01*
X533170D01*
X534410Y72925D01*
X535340Y71467D01*
X535650Y69800D01*
X535340Y68133D01*
X534565Y66883D01*
X533170Y66258D01*
X529450D01*
G01X541850Y73550D02*
Y61050D01*
X548050D01*
G01X553475D02*
X557350Y73550D01*
X561225Y61050D01*
G01X559830Y65425D02*
X554870D01*
G01X569750Y73550D02*
Y61050D01*
G01X566185Y73550D02*
X573315D01*
G01X585250Y61050D02*
X579050D01*
Y73550D01*
X585250D01*
G01X582770Y67508D02*
X579050D01*
G01X591140Y61050D02*
Y73550D01*
X594240D01*
X595480Y72925D01*
X596410Y72092D01*
X597185Y70842D01*
X597805Y69383D01*
X597960Y67300D01*
X597805Y65216D01*
X597185Y63758D01*
X596410Y62508D01*
X595480Y61675D01*
X594240Y61050D01*
X591140D01*
G01X529450Y86050D02*
Y98550D01*
X533170D01*
X534410Y97925D01*
X535340Y96467D01*
X535650Y94800D01*
X535340Y93133D01*
X534565Y91883D01*
X533170Y91258D01*
X529450D01*
G01X541850Y98550D02*
Y86050D01*
X548050D01*
G01X553475D02*
X557350Y98550D01*
X561225Y86050D01*
G01X559830Y90425D02*
X554870D01*
G01X569750Y98550D02*
Y86050D01*
G01X566185Y98550D02*
X573315D01*
G01X585250Y86050D02*
X579050D01*
Y98550D01*
X585250D01*
G01X582770Y92508D02*
X579050D01*
G01X591140Y86050D02*
Y98550D01*
X594240D01*
X595480Y97925D01*
X596410Y97092D01*
X597185Y95842D01*
X597805Y94383D01*
X597960Y92300D01*
X597805Y90216D01*
X597185Y88758D01*
X596410Y87508D01*
X595480Y86675D01*
X594240Y86050D01*
X591140D01*
G01X627100Y104800D02*
Y-20200D01*
G01X653450Y61050D02*
Y73550D01*
X651590Y71050D01*
G01Y61050D02*
X655310D01*
G01X665850Y73550D02*
X664610Y73133D01*
X663680Y72092D01*
X663060Y70842D01*
X662595Y69175D01*
X662440Y67300D01*
X662595Y65425D01*
X663060Y63758D01*
X663680Y62508D01*
X664610Y61467D01*
X665850Y61050D01*
X667090Y61467D01*
X668020Y62508D01*
X668640Y63758D01*
X669105Y65425D01*
X669260Y67300D01*
X669105Y69175D01*
X668640Y70842D01*
X668020Y72092D01*
X667090Y73133D01*
X665850Y73550D01*
G01X678250Y61050D02*
Y73550D01*
X676390Y71050D01*
G01Y61050D02*
X680110D01*
G01X653450Y86050D02*
X652210Y86258D01*
X651125Y87091D01*
X650195Y88342D01*
X649575Y89800D01*
X649265Y91467D01*
Y93133D01*
X649575Y94800D01*
X650195Y96258D01*
X651125Y97508D01*
X652210Y98342D01*
X653450Y98550D01*
X654690Y98342D01*
X655775Y97508D01*
X656705Y96258D01*
X657325Y94800D01*
X657635Y93133D01*
Y91467D01*
X657325Y89800D01*
X656705Y88342D01*
X655775Y87091D01*
X654690Y86258D01*
X653450Y86050D01*
G01X654690Y89383D02*
X656550Y86050D01*
G01X665850Y98550D02*
Y86050D01*
G01X662285Y98550D02*
X669415D01*
G01X678250Y86050D02*
Y91675D01*
X675150Y98550D01*
G01X681350D02*
X678250Y91675D01*
G01X662905Y-3533D02*
X663835Y-2284D01*
X664920Y-1658D01*
X666160Y-1450D01*
X667710Y-1867D01*
X668795Y-2908D01*
X669105Y-4158D01*
X668950Y-5409D01*
X668330Y-6450D01*
X665230Y-8533D01*
X663835Y-9992D01*
X662905Y-12075D01*
X662595Y-13950D01*
X669105D01*
G01X662905Y21467D02*
X663835Y22716D01*
X664920Y23342D01*
X666160Y23550D01*
X667710Y23133D01*
X668795Y22092D01*
X669105Y20842D01*
X668950Y19591D01*
X668330Y18550D01*
X665230Y16467D01*
X663835Y15008D01*
X662905Y12925D01*
X662595Y11050D01*
X669105D01*
G01X662905Y46467D02*
X663835Y47716D01*
X664920Y48342D01*
X666160Y48550D01*
X667710Y48133D01*
X668795Y47092D01*
X669105Y45842D01*
X668950Y44591D01*
X668330Y43550D01*
X665230Y41467D01*
X663835Y40008D01*
X662905Y37925D01*
X662595Y36050D01*
X669105D01*
M02*
