G04 ================== begin FILE IDENTIFICATION RECORD ==================*
G04 Layout Name:  extend-pcb.brd*
G04 Film Name:    TOP*
G04 File Format:  Gerber RS274X*
G04 File Origin:  Cadence Allegro 16.6-2015-S065*
G04 Origin Date:  Fri Aug 26 00:19:03 2016*
G04 *
G04 Layer:  ETCH/TOP*
G04 Layer:  PIN/TOP*
G04 Layer:  VIA CLASS/TOP*
G04 *
G04 Offset:    (0.000 0.000)*
G04 Mirror:    No*
G04 Mode:      Positive*
G04 Rotation:  0*
G04 FullContactRelief:  No*
G04 UndefLineWidth:     1.000*
G04 ================== end FILE IDENTIFICATION RECORD ====================*
%FSLAX25Y25*MOIN*%
%IR0*IPPOS*OFA0.00000B0.00000*MIA0B0*SFA1.00000B1.00000*%
%ADD11C,.003937*%
%ADD13R,.009449X.01378*%
%ADD20R,.009449X.017717*%
%ADD10C,.016*%
%ADD12R,.011811X.016535*%
%ADD15C,.000394*%
%ADD18C,.062992*%
%ADD14R,.035433X.07874*%
%ADD16R,.07874X.035433*%
%ADD19R,.018504X.019685*%
%ADD17R,.062992X.062992*%
%ADD21C,.008*%
%ADD22C,.012*%
%ADD26R,.175004X.420004*%
%ADD27C,.067122*%
%ADD23C,.051374*%
%ADD24R,.021814X.026538*%
%ADD25R,.045438X.088744*%
G75*
%LPD*%
G75*
G36*
G01X1000Y40D02*
G02X40Y1000I0J960D01*
G01Y61000D01*
G02X1000Y61960I960J0D01*
G01X181000D01*
G02X181960Y61000I0J-960D01*
G01Y26860D01*
X182000D01*
Y16140D01*
X181960D01*
Y1000D01*
G02X181000Y40I-960J0D01*
G01X1000D01*
G37*
%LPC*%
G75*
G36*
G01X77138Y47941D02*
G03X76872Y47386I97J-388D01*
G02X74620Y45800I-1272J-586D01*
G01X58586D01*
X54588Y49798D01*
X54512Y49803D01*
G02X55997Y51288I88J1397D01*
G01X56002Y51212D01*
X59414Y47800D01*
X63775D01*
G03X64092Y48445I0J400D01*
G02X66180Y50300I1109J855D01*
G01X75820D01*
G02X77138Y47941I980J-1000D01*
G37*
G36*
G01X56386Y42400D02*
X50788Y47998D01*
X50712Y48003D01*
G02X52197Y49488I88J1397D01*
G01X52202Y49412D01*
X57214Y44400D01*
X75720D01*
G02Y42400I980J-1000D01*
G01X56386D01*
G37*
G36*
G01X52197Y33118D02*
X62300Y23014D01*
Y22964D01*
X65462Y19802D01*
X65538Y19797D01*
G02X64053Y18312I-88J-1397D01*
G01X64048Y18388D01*
X60300Y22136D01*
Y22186D01*
X50886Y31600D01*
X50802Y31600D01*
G02X52188Y33185I-2J1400D01*
G01X52197Y33118D01*
G37*
G36*
G01X111800Y5644D02*
X111800Y4597D01*
X112097Y4300D01*
X124337D01*
G03X124620Y4983I0J400D01*
G01X122500Y7103D01*
Y15203D01*
X113603Y24100D01*
X104880D01*
G03X104597Y23417I0J-400D01*
G01X109000Y19014D01*
Y17022D01*
X109073D01*
Y16922D01*
X115272D01*
Y14543D01*
X109073D01*
Y14443D01*
X100311D01*
Y12653D01*
X98130D01*
Y15307D01*
X100628D01*
Y16000D01*
X96280D01*
G02X94631Y15770I-980J1000D01*
G03X94120Y15659I-191J-351D01*
G02X91675Y16046I-1120J841D01*
G03X91014Y16200I-378J-130D01*
G01X85714Y10900D01*
X40136D01*
X34238Y16798D01*
X34162Y16803D01*
G02X32967Y18760I88J1397D01*
G03X32873Y19019I-183J80D01*
G02X34483Y21270I630J1251D01*
G01X36745D01*
X37051Y20964D01*
G03X37726Y21170I283J283D01*
G02X38587Y22203I1374J-270D01*
G01X38626Y22218D01*
X38797Y22389D01*
X38486Y22700D01*
X31759D01*
G02X29523Y23803I-836J1123D01*
G01X29520Y24000D01*
X14803D01*
X7374Y31429D01*
G03X6804Y31424I-283J-283D01*
G02X6488Y31181I-1004J976D01*
G01X6465Y31167D01*
X6300Y31003D01*
Y24723D01*
G02X3887Y24344I-1100J-866D01*
G01X3900Y24378D01*
Y31997D01*
X4402Y32499D01*
X4410Y32568D01*
G02X6427Y33652I1390J-167D01*
G03X7006Y34010I179J358D01*
G01Y38879D01*
G02X9406I1200J721D01*
G01Y32791D01*
X15797Y26400D01*
X28974D01*
X31274Y28700D01*
X35879D01*
G02Y26300I721J-1200D01*
G01X32269D01*
X31598Y25630D01*
G03X31668Y25008I283J-283D01*
G02X32014Y24700I-745J-1185D01*
G01X39314D01*
X46514Y17500D01*
X58520D01*
G02X60865Y16189I980J-1000D01*
G03X61255Y15700I390J-89D01*
G01X82186D01*
X89902Y23417D01*
G03X89620Y24100I-283J283D01*
G01X65903D01*
X46803Y43200D01*
X39131D01*
X27878Y54453D01*
X27628D01*
X27402Y54679D01*
X27352Y54693D01*
G02X28892Y56834I387J1346D01*
G01X40126Y45600D01*
X47797D01*
X66897Y26500D01*
X105288D01*
G03X105612Y27134I0J400D01*
G02X105550Y28671I1137J817D01*
G01Y36447D01*
X125803Y56700D01*
X153467D01*
Y59100D01*
X124797D01*
X117497Y51800D01*
X104595D01*
G02Y54200I-721J1200D01*
G01X116503D01*
X123803Y61500D01*
X169997D01*
X173700Y57797D01*
Y18834D01*
X166344Y11478D01*
X166330Y11429D01*
G02X165496Y10512I-1346J387D01*
G03X165414Y9812I146J-372D01*
G02X161686Y9879I-1914J-2757D01*
G03X161470Y10616I-216J337D01*
G01X161013D01*
X159600Y9203D01*
Y5103D01*
X156397Y1900D01*
X111103D01*
X109751Y3251D01*
G02X109400Y4100I849J849D01*
G01Y4912D01*
G02X109348Y4993I983J689D01*
G01X109290Y5092D01*
X108975D01*
Y4560D01*
X106214Y1800D01*
X76986D01*
X72500Y6286D01*
Y7820D01*
G02X74500I1000J980D01*
G01Y7114D01*
X77814Y3800D01*
X79120D01*
G03X79402Y4483I0J400D01*
G01X77000Y6886D01*
Y7820D01*
G02X79000I1000J980D01*
G01Y7714D01*
X81414Y5300D01*
X104707D01*
X105044Y5637D01*
G03X104903Y5978I-141J141D01*
G01X100628D01*
Y7693D01*
X98130D01*
Y10347D01*
X100311D01*
Y8557D01*
X101700D01*
Y11114D01*
X103036Y12450D01*
X106010D01*
X106760Y11700D01*
X107920D01*
G02Y9700I980J-1000D01*
G01X106261D01*
X106244Y9519D01*
G02X106142Y9111I-1394J131D01*
G03X106511Y8557I369J-154D01*
G01X111740D01*
X112500Y9317D01*
Y10320D01*
G02X114500I1000J980D01*
G01Y9341D01*
X115284Y8557D01*
X115689D01*
Y10347D01*
X117870D01*
Y7693D01*
X115372D01*
Y5978D01*
X112134D01*
X111800Y5644D01*
G37*
G54D23*
X5000Y5000D03*
X177000Y57000D03*
G54D24*
X116780Y13980D03*
G54D25*
X177083Y9024D03*
%LPD*%
G75*
G36*
G01X128697Y4300D02*
X124900Y8097D01*
Y16197D01*
X114597Y26500D01*
X108212D01*
G02X107888Y27134I0J400D01*
G03X107950Y28671I-1137J817D01*
G01Y35453D01*
X126797Y54300D01*
X153467D01*
Y51750D01*
X160966D01*
Y59100D01*
X164734D01*
G02X164979Y58384I0J-400D01*
G03X170535Y57020I2237J-2884D01*
G01X170858Y57245D01*
X171300Y56803D01*
Y47497D01*
X168703Y44900D01*
X168037D01*
Y49781D01*
X158963D01*
Y45038D01*
X159082D01*
X159184Y44791D01*
X154200Y39807D01*
Y36559D01*
G02X153600Y36213I-400J0D01*
G03X151554Y35387I-700J-1213D01*
G01X151540Y35337D01*
X148717Y32514D01*
Y25372D01*
X147545D01*
Y16297D01*
X152289D01*
Y25372D01*
X151118D01*
Y31520D01*
X153237Y33640D01*
X153287Y33654D01*
G03X153600Y33787I-387J1346D01*
G02X154200Y33441I200J-346D01*
G01Y7621D01*
X154187Y7587D01*
G03X156812Y6612I1313J-487D01*
G01X156861Y6742D01*
X157200D01*
Y6097D01*
X155403Y4300D01*
X128697D01*
G37*
G36*
G01X157200Y7458D02*
X156861D01*
X156812Y7588D01*
G03X156600Y7966I-1312J-488D01*
G01Y38813D01*
X159924Y42136D01*
G02X160605Y41819I283J-283D01*
G03X163346Y41313I1395J-119D01*
G01X163360Y41363D01*
X164497Y42500D01*
X169697D01*
X170617Y43420D01*
G02X171300Y43137I283J-283D01*
G01Y19828D01*
X164647Y13176D01*
X164597Y13161D01*
G03X164263Y13016I387J-1346D01*
G01X160019D01*
X157200Y10197D01*
Y7458D01*
G37*
%LPC*%
G75*
G54D26*
X134750Y31000D03*
G54D27*
X163500Y34614D03*
%LPD*%
G75*
G54D10*
X2846Y29654D03*
Y42946D03*
X14400Y4600D03*
X5200Y23857D03*
X5800Y32400D03*
X3500Y32800D03*
X8206Y39600D03*
X10400Y45200D03*
X20300Y2700D03*
X20000Y14400D03*
X22500Y17600D03*
X17382Y17182D03*
X24003Y34397D03*
X21003D03*
X18003D03*
X24003Y31397D03*
X21003D03*
X18003D03*
X24003Y28397D03*
X21003D03*
X18003D03*
X14823Y46223D03*
X23700Y54000D03*
X36173Y11827D03*
X33503Y20269D03*
X34250Y18200D03*
X30923Y23823D03*
X36600Y27500D03*
X27003Y34397D03*
Y31397D03*
Y28397D03*
X34500Y44100D03*
X32500Y46200D03*
X37000Y39800D03*
X27739Y56039D03*
X27500Y53700D03*
X29062Y58039D03*
X39100Y20900D03*
X44100Y26100D03*
X44000Y29000D03*
X39239Y56839D03*
X39500Y53200D03*
X45339Y49161D03*
X55300Y22000D03*
X59500Y16500D03*
X50800Y33000D03*
Y49400D03*
X54600Y51200D03*
X65450Y18400D03*
X65200Y49300D03*
X78000Y8800D03*
X73500D03*
X76700Y43400D03*
X75600Y46800D03*
X76800Y49300D03*
X93000Y16500D03*
X104850Y9650D03*
X95300Y17000D03*
X103874Y53000D03*
X113500Y11300D03*
X108900Y10700D03*
X106750Y27950D03*
X155500Y7100D03*
X152900Y35000D03*
X162000Y41700D03*
X164984Y11816D03*
X165562Y22635D03*
X162562D03*
X165562Y19635D03*
X162562D03*
X166100Y41200D03*
X178600Y2900D03*
X181997Y25658D03*
Y23658D03*
Y21658D03*
Y19658D03*
Y17658D03*
X174330Y18216D03*
X177100Y36154D03*
X194500Y20700D03*
X194593Y23149D03*
X191891Y20610D03*
X192100Y22800D03*
X189500Y20400D03*
Y22600D03*
X187217Y20057D03*
X186400Y22100D03*
X185100Y18900D03*
X185298Y24004D03*
X207100Y20700D03*
X205700Y23100D03*
X203731Y20564D03*
X203354Y22733D03*
X201016Y20400D03*
X201004Y22700D03*
X198816Y20355D03*
X198807Y22574D03*
X196689Y20917D03*
X196767Y23484D03*
X207400Y18500D03*
X207766Y23857D03*
G54D20*
X190201Y16677D03*
X191776D03*
X193350D03*
X194925D03*
X190201Y26323D03*
X191776D03*
X193350D03*
X194925D03*
X202799Y16677D03*
X201224D03*
X199650D03*
X198075D03*
X196500D03*
Y26323D03*
X198075D03*
X199650D03*
X201224D03*
X202799D03*
G54D11*
X5000Y5000D03*
X177000Y57000D03*
G54D21*
G01X33503Y20269D02*
X36331D01*
X43300Y13300D01*
X84000D01*
X92500Y21800D01*
X102800D01*
X106425Y18175D01*
Y15732D01*
G01X34250Y18200D02*
X40550Y11900D01*
X85300D01*
X93600Y20200D01*
X102100D01*
X104850Y17450D01*
Y15732D01*
G01X59500Y16500D02*
X46100D01*
X38900Y23700D01*
X31046D01*
X30923Y23823D01*
G01X108000Y15732D02*
Y18600D01*
X103400Y23200D01*
X91100D01*
X82600Y14700D01*
X45300D01*
X39100Y20900D01*
G01X65450Y18400D02*
X61300Y22550D01*
Y22600D01*
X50900Y33000D01*
X50800D01*
G01Y49400D02*
X56800Y43400D01*
X76700D01*
G01X75600Y46800D02*
X59000D01*
X54600Y51200D01*
G01X65200Y49300D02*
X76800D01*
G01X108000Y7268D02*
X107975Y7242D01*
Y4975D01*
X105800Y2800D01*
X77400D01*
X73500Y6700D01*
Y8800D01*
G01X78000D02*
Y7300D01*
X81000Y4300D01*
X105121D01*
X106500Y5679D01*
Y7193D01*
X106425Y7268D01*
G01X93000Y16500D02*
Y17246D01*
X94554Y18800D01*
X101520D01*
X103276Y17044D01*
Y15732D01*
G01X99221Y7493D02*
Y9020D01*
G01D02*
Y10547D01*
G01X97930Y9020D02*
X99221D01*
G01D02*
X100511D01*
G01X99221Y12453D02*
Y13980D01*
G01D02*
Y15507D01*
G01X97930Y13980D02*
X99221D01*
G01D02*
X100511D01*
G01X104850Y9650D02*
Y7268D01*
G01X103276Y7268D02*
Y8269D01*
X102700Y8844D01*
Y10700D01*
X103450Y11450D01*
X105596D01*
X106346Y10700D01*
X108900D01*
G01X95300Y17000D02*
X101193D01*
X101713Y16480D01*
Y15745D01*
X101701Y15732D01*
G01X113500Y11300D02*
Y8903D01*
G01D02*
X112724Y8127D01*
Y7268D01*
G01X114299D02*
Y8127D01*
X113524Y8903D01*
X113500D01*
G01X111150Y7268D02*
Y6408D01*
X110600Y5859D01*
X110600Y5600D01*
G01X110383D02*
X109575Y6408D01*
Y7268D01*
G01X115489Y9020D02*
X116780D01*
G01X115489Y13980D02*
X116780D01*
G01X114299Y14343D02*
Y15732D01*
G01D02*
Y17122D01*
G01Y15732D02*
X115472D01*
G01X112724Y14343D02*
Y15732D01*
G01D02*
Y17122D01*
G01X111150Y14343D02*
Y15732D01*
G01D02*
Y17122D01*
G01X109575Y14343D02*
Y15732D01*
G01D02*
Y17122D01*
G01X116780Y7493D02*
Y9020D01*
G01D02*
Y10547D01*
G01Y9020D02*
X118070D01*
G01X116780Y12453D02*
Y13980D01*
G01D02*
Y15507D01*
G01Y13980D02*
X118070D01*
G01X194500Y20700D02*
X194624Y20576D01*
Y20144D01*
X194925Y19843D01*
Y16677D01*
G01X194593Y23149D02*
X194925Y23481D01*
Y26323D01*
G01X191891Y20610D02*
X192023D01*
X193350Y19282D01*
Y16677D01*
G01X192100Y22800D02*
Y23215D01*
X193350Y24466D01*
Y26323D01*
G01X189500Y20400D02*
X191090Y18810D01*
X191277D01*
X191776Y18311D01*
Y16677D01*
G01X189500Y22600D02*
Y22849D01*
X191776Y25125D01*
Y26323D01*
G01X190201Y16677D02*
Y17166D01*
X188767Y18600D01*
X188754D01*
X187297Y20057D01*
X187217D01*
G01X190201Y26323D02*
Y25834D01*
X188767Y24400D01*
X188754D01*
X187678Y23324D01*
X187624D01*
X186400Y22100D01*
G01X187248Y16795D02*
X187205D01*
X185100Y18900D01*
G01X185298Y24004D02*
X185304D01*
X187248Y25948D01*
Y26205D01*
G01X207100Y20700D02*
X206500D01*
X204580Y18780D01*
X204413D01*
X202799Y17166D01*
Y16677D01*
G01X205700Y23100D02*
X204580Y24221D01*
X204413D01*
X204344Y24290D01*
X203071Y25562D01*
X202820Y25813D01*
Y26302D01*
X202799Y26323D01*
G01X201224Y16677D02*
Y18057D01*
X203731Y20564D01*
G01X203354Y22733D02*
Y22996D01*
X201327Y25023D01*
Y25483D01*
X201224Y25585D01*
Y26323D01*
G01X201016Y20400D02*
Y20009D01*
X199600Y18593D01*
Y16727D01*
X199650Y16677D01*
G01Y26323D02*
Y25180D01*
X199752Y25078D01*
Y25023D01*
X199927Y24848D01*
Y24443D01*
X200100Y24270D01*
Y24000D01*
X200949Y23151D01*
Y22755D01*
X201004Y22700D01*
G01X198816Y20355D02*
X198755D01*
X198075Y19675D01*
Y16677D01*
G01X198848Y22636D02*
X198807Y22596D01*
Y22574D01*
G01D02*
X198693Y22689D01*
Y23697D01*
X198527Y23863D01*
Y24323D01*
X198075Y24775D01*
Y26323D01*
G01X196689Y20917D02*
X196500Y20727D01*
Y16677D01*
G01X196767Y23484D02*
Y23485D01*
X196500Y23752D01*
Y26323D01*
G01X207400Y18500D02*
X205752Y16852D01*
Y16795D01*
G01X207766Y23857D02*
X207543D01*
X205752Y25648D01*
Y26205D01*
G54D12*
X99221Y13980D03*
Y9020D03*
X116780Y13980D03*
Y9020D03*
G54D22*
G01X5200Y23857D02*
Y23900D01*
X5100Y24000D01*
Y31500D01*
X5800Y32200D01*
Y32400D01*
G01X36600Y27500D02*
X31771D01*
X29472Y25200D01*
X15300D01*
X8206Y32294D01*
Y39600D01*
G01X128200Y3100D02*
X123700Y7600D01*
Y15700D01*
X114100Y25300D01*
X66400D01*
X47300Y44400D01*
X39629D01*
X28375Y55654D01*
X28125D01*
X27739Y56039D01*
G01X103874Y53000D02*
X117000D01*
X124300Y60300D01*
X169500D01*
X172500Y57300D01*
Y47000D01*
G01X110600Y4100D02*
X111600Y3100D01*
X128200D01*
G01X110600Y5600D02*
X110600Y4100D01*
G01D02*
Y5383D01*
X110383Y5600D01*
G01X106750Y27950D02*
Y35950D01*
X126300Y55500D01*
X157216D01*
G01X128200Y3100D02*
X155900D01*
X158400Y5600D01*
Y9700D01*
X160516Y11816D01*
X164984D01*
G01X152900Y35000D02*
X149917Y32017D01*
Y20835D01*
G01X163500Y47409D02*
X155400Y39310D01*
Y7278D01*
X155500Y7178D01*
Y7100D01*
G01X162000Y41700D02*
X164000Y43700D01*
X169200D01*
X172500Y47000D01*
G01D02*
Y19331D01*
X164984Y11816D01*
G01X167216Y51650D02*
Y55500D01*
G01X163367D02*
X167216D01*
G01X178600Y2900D02*
X177083Y4417D01*
G01D02*
Y9024D01*
G01D02*
Y13661D01*
G01X174611Y9024D02*
X177083D01*
G01D02*
X179555D01*
G54D13*
X101701Y7268D03*
X103276D03*
X104850D03*
X101701Y15732D03*
X103276D03*
X104850D03*
X106425Y7268D03*
X108000D03*
X109575D03*
X111150D03*
X112724D03*
X114299D03*
X106425Y15732D03*
X108000D03*
X109575D03*
X111150D03*
X112724D03*
X114299D03*
G54D14*
X149917Y20835D03*
X177083Y9024D03*
G54D15*
X163500Y7055D03*
Y34614D03*
G54D16*
Y47409D03*
G54D17*
X157216Y55500D03*
G54D18*
X167216D03*
G54D19*
X187248Y16795D03*
Y26205D03*
X205752Y16795D03*
Y26205D03*
M02*
