G04 ================== begin FILE IDENTIFICATION RECORD ==================*
G04 Layout Name:  E:/material/glass/pcb/test-stm32f429/pcb/f429.brd*
G04 Film Name:    BOTTOM*
G04 File Format:  Gerber RS274X*
G04 File Origin:  Cadence Allegro 16.6-S049*
G04 Origin Date:  Sat Oct 10 17:08:06 2015*
G04 *
G04 Layer:  ETCH/BOTTOM*
G04 Layer:  PIN/BOTTOM*
G04 Layer:  VIA CLASS/BOTTOM*
G04 *
G04 Offset:    (0.00 0.00)*
G04 Mirror:    No*
G04 Mode:      Positive*
G04 Rotation:  0*
G04 FullContactRelief:  No*
G04 UndefLineWidth:     0.00*
G04 ================== end FILE IDENTIFICATION RECORD ====================*
%FSLAX25Y25*MOIN*%
%IR0*IPPOS*OFA0.00000B0.00000*MIA0B0*SFA1.00000B1.00000*%
%ADD10R,.12X.06*%
%ADD11C,.011*%
%ADD16C,.01575*%
%ADD13C,.06299*%
%ADD14R,.06299X.06299*%
%ADD12R,.08X.01*%
%ADD15C,.00984*%
%ADD17C,.01*%
%ADD18C,.02*%
%ADD19C,.004*%
%ADD20C,.007*%
%ADD28R,.13004X.07002*%
%ADD23C,.02504*%
%ADD26C,.07302*%
%ADD25C,.02704*%
%ADD24C,.01904*%
%ADD21C,.07702*%
%ADD27C,.07902*%
%ADD29C,.02378*%
%ADD30C,.02578*%
%ADD31C,.01988*%
%ADD22R,.07702X.07702*%
G75*
%LPD*%
G75*
G36*
G01X4Y4D02*
Y200096D01*
X195996D01*
Y4D01*
X4D01*
G37*
%LPC*%
G75*
G36*
G01X132802Y16353D02*
X132808Y16327D01*
G02X130392I-1208J-327D01*
G01X130398Y16353D01*
Y26768D01*
X129133Y28034D01*
X129110Y28047D01*
G02X130819Y29756I623J1086D01*
G01X130832Y29733D01*
X132802Y27764D01*
Y25486D01*
G03X133419Y25151I400J0D01*
G02Y23049I681J-1051D01*
G03X132802Y22714I-217J-335D01*
G01Y16353D01*
G37*
G36*
G01X64627Y24598D02*
X62479Y26746D01*
X62405Y26752D01*
G02X63748Y28095I95J1248D01*
G01X63754Y28021D01*
X65373Y26402D01*
X79307D01*
X79360Y26519D01*
G02X80595Y24752I1140J-519D01*
G01X80521Y24746D01*
X80373Y24598D01*
X64627D01*
G37*
G36*
G01X170671Y88896D02*
X169206Y87431D01*
Y45459D01*
X169176Y45430D01*
Y30337D01*
G02X167374I-901J-869D01*
G01Y44785D01*
G03X166945Y45184I-400J0D01*
G02X166967Y47680I-90J1249D01*
G03X167402Y48078I35J398D01*
G01Y88177D01*
X169396Y90171D01*
X169402Y90245D01*
G02X170745Y88902I1248J-95D01*
G01X170671Y88896D01*
G37*
G36*
G01X101702Y56547D02*
Y43053D01*
X101708Y43027D01*
G02X99292I-1208J-327D01*
G01X99298Y43053D01*
Y47275D01*
G03X98826Y47669I-400J1D01*
G02Y50131I-226J1231D01*
G03X99298Y50525I72J393D01*
G01Y56547D01*
X99292Y56573D01*
G02X101708I1208J327D01*
G01X101702Y56547D01*
G37*
G36*
G01X95636Y68521D02*
X116355Y47802D01*
X120331D01*
G02Y45998I869J-902D01*
G01X115609D01*
X94361Y67246D01*
X94287Y67252D01*
G02X95630Y68595I95J1248D01*
G01X95636Y68521D01*
G37*
G36*
G01X174920Y118204D02*
G03X174865Y117667I266J-299D01*
G02X173466Y117810I-765J-567D01*
G03X173521Y118347I-266J299D01*
G02X174920Y118204I765J567D01*
G37*
G36*
G01X141773Y143903D02*
G03X141749Y143644I139J-144D01*
G02X139852Y143821I-1024J-720D01*
G03X139876Y144080I-139J144D01*
G02X141773Y143903I1024J720D01*
G37*
G36*
G01X108452Y156885D02*
G03X108331Y157442I-335J219D01*
G02X109869Y159402I670J1058D01*
G01X119773D01*
X119914Y159261D01*
G03X120185Y159251I141J142D01*
G02X120131Y157398I815J-951D01*
G01X119227D01*
X119027Y157598D01*
X110816D01*
G03X110497Y156957I0J-400D01*
G02X108452Y156885I-997J-757D01*
G37*
G36*
G01X179398Y157269D02*
Y159453D01*
X179253Y159494D01*
G02X181347I1047J3706D01*
G01X181202Y159453D01*
Y157269D01*
G02X179398I-902J-869D01*
G37*
G36*
G01X83090Y175861D02*
Y180035D01*
X81512Y181613D01*
X81380Y181539D01*
G02X82861Y183020I-1880J3361D01*
G01X82787Y182888D01*
X84894Y180781D01*
Y175861D01*
G02X83090I-902J-869D01*
G37*
G36*
G01X100402Y176357D02*
X100515Y176244D01*
G02X99244Y174897I-23J-1252D01*
G01X99238Y174971D01*
X98598Y175611D01*
Y181153D01*
X98453Y181194D01*
G02X100547I1047J3706D01*
G01X100402Y181153D01*
Y176357D01*
G37*
G36*
G01X71598Y181003D02*
G03X71039Y181370I-400J0D01*
G02X72861Y183020I-1539J3530D01*
G01X72787Y182888D01*
X73402Y182273D01*
Y175869D01*
G02X71598I-902J-869D01*
G01Y181003D01*
G37*
G36*
G01X91598D02*
G03X91039Y181370I-400J0D01*
G02X92861Y183020I-1539J3530D01*
G01X92787Y182888D01*
X93402Y182273D01*
Y175869D01*
G02X91598I-902J-869D01*
G01Y181003D01*
G37*
G36*
G01X97295Y31702D02*
X104295D01*
X109797Y37203D01*
G02X112203Y34797I1203J-1203D01*
G01X105705Y28298D01*
X98705D01*
X92202Y21795D01*
Y10050D01*
G02X88798I-1702J0D01*
G01Y23205D01*
X97295Y31702D01*
G37*
G36*
G01X154297Y15203D02*
X155998Y16905D01*
Y29800D01*
G02X159402I1702J0D01*
G01Y15495D01*
X156703Y12797D01*
G02X154297Y15203I-1203J1203D01*
G37*
G36*
G01X64265Y99886D02*
X60842Y103308D01*
X60768Y103314D01*
G02X61808Y105383I95J1248D01*
G03X62398Y105368I302J263D01*
G02X63916Y105590I902J-868D01*
G03X64164Y105631I99J174D01*
G02X65270Y106040I936J-831D01*
G03X65489Y106181I27J198D01*
G02X67084Y106567I911J-276D01*
G01X67143Y106506D01*
X67421D01*
X67479Y106560D01*
G02Y105250I608J-655D01*
G01X67421Y105304D01*
X67143D01*
X67084Y105243D01*
G02X66844Y105063I-684J662D01*
G03X66748Y104427I187J-353D01*
G01X66927Y104248D01*
X68087D01*
G02Y102444I0J-902D01*
G01X66277D01*
X66230Y102310D01*
G02X66204Y102240I-1280J436D01*
G03X66574Y101688I370J-152D01*
G01X68087D01*
G02Y99886I0J-901D01*
G01X64265D01*
G37*
G36*
G01X41983Y26866D02*
G02X40366Y28483I-3483J-1866D01*
G01X40496Y28413D01*
X43085Y31002D01*
X46054D01*
G03X46279Y31732I0J400D01*
G02X51949Y36927I2221J3268D01*
G03X52698Y37122I349J195D01*
G01Y37214D01*
X54650Y39166D01*
G03X54368Y39848I-283J282D01*
G01X44765D01*
X41913Y36996D01*
X41983Y36866D01*
G02X40494Y38411I-3483J-1866D01*
G01X43935Y41852D01*
X45127D01*
G03X45437Y42504I0J400D01*
G02X46279Y48268I3063J2496D01*
G03X46054Y48998I-225J330D01*
G01X43915D01*
X41911Y46994D01*
G02X40494Y48411I-3411J-1994D01*
G01X43085Y51002D01*
X46640D01*
G03X46823Y51757I-1J400D01*
G02X45949Y57612I1677J3243D01*
G03X45670Y58298I-279J286D01*
G01X41745D01*
G03X41447Y57632I0J-400D01*
G02X35553I-2947J-2632D01*
G03X35255Y58298I-298J266D01*
G01X31353D01*
X31327Y58292D01*
G02Y60708I-327J1208D01*
G01X31353Y60702D01*
X36568D01*
G03X36746Y61460I0J400D01*
G02X40366Y68483I1755J3540D01*
G01X40496Y68413D01*
X43585Y71502D01*
X45445D01*
G03X45726Y72186I0J400D01*
G02X52282Y76144I2774J2814D01*
G01X52325Y76002D01*
X58378D01*
X61192Y78816D01*
G03X60910Y79498I-283J282D01*
G01X44415D01*
X41911Y76994D01*
G02X40366Y78483I-3411J-1994D01*
G01X40496Y78413D01*
X43585Y81502D01*
X45445D01*
G03X45726Y82186I0J400D01*
G02X46279Y88268I2774J2814D01*
G03X46054Y88998I-225J330D01*
G01X43915D01*
X41911Y86994D01*
G02X40366Y88483I-3411J-1994D01*
G01X40496Y88413D01*
X43085Y91002D01*
X46054D01*
G03X46279Y91732I0J400D01*
G02X52282Y96144I2221J3268D01*
G01X52325Y96002D01*
X65989D01*
X70069Y100081D01*
X69954Y100221D01*
G02X70691Y101680I692J566D01*
G03X71112Y102079I21J400D01*
G01Y102485D01*
X70887D01*
X70863Y102479D01*
G02X71500Y103609I-217J867D01*
G03X71981Y103339I382J118D01*
G02X72149Y103366I242J-972D01*
G03X72329Y103526I-16J199D01*
G02X73389Y104221I876J-180D01*
G03X73860Y104705I82J391D01*
G02X73856Y104723I927J216D01*
G03X73385Y105029I-391J-86D01*
G02X72329Y106085I-180J876D01*
G03X72023Y106556I-392J80D01*
G02X72005Y106560I198J931D01*
G03X71521Y106089I-93J-389D01*
G02X69771Y106088I-875J-184D01*
G03X69470Y106559I-392J81D01*
G02X68756Y107285I216J927D01*
G03X68279Y107591I-391J-85D01*
G02X68254Y109342I-192J873D01*
G03X68718Y109827I75J393D01*
G02X68716Y109838I935J176D01*
G03X68252Y110144I-390J-87D01*
G02X67281Y110635I-165J879D01*
G01X67227Y110748D01*
X51335D01*
X50494Y111589D01*
G02X46634Y111517I-1994J3411D01*
G01X46504Y111587D01*
X43865Y108948D01*
X41018D01*
G03X40786Y108222I0J-400D01*
G02X41563Y102504I-2286J-3222D01*
G03X41873Y101852I310J-252D01*
G01X43935D01*
X45089Y103006D01*
G02X46634Y101517I3411J1994D01*
G01X46504Y101587D01*
X44765Y99848D01*
X36366D01*
X33348Y102866D01*
Y102935D01*
X29237Y107046D01*
G03X28599Y106948I-283J-282D01*
G02X28414Y106678I-1199J623D01*
G02X28590Y104864I-906J-1003D01*
G03X28610Y104602I160J-120D01*
G02X28711Y102779I-945J-967D01*
G03X28712Y102525I155J-126D01*
G02X28586Y100676I-1045J-858D01*
G03X28575Y100100I272J-293D01*
G01X30893Y97781D01*
Y91461D01*
G02X29090I-901J-869D01*
G01Y97035D01*
X27327Y98798D01*
X26775D01*
X26773Y98796D01*
X26402D01*
Y98496D01*
X26202D01*
Y96962D01*
X26402D01*
Y94560D01*
X15114D01*
X15088Y94553D01*
G02Y96969I-327J1208D01*
G01X15114Y96962D01*
X17198D01*
Y98496D01*
X16998D01*
Y100365D01*
X16898D01*
Y116214D01*
X16438D01*
X16412Y116207D01*
G02Y118623I-327J1208D01*
G01X16438Y118616D01*
X16898D01*
Y126591D01*
X16998D01*
Y128324D01*
X15402D01*
X12598Y131128D01*
Y137872D01*
X14335Y139609D01*
G03X14052Y140292I-283J283D01*
G01X4568D01*
Y147294D01*
X17572D01*
Y141812D01*
G03X18254Y141529I400J0D01*
G01X19746Y143021D01*
X19752Y143095D01*
G02X21095Y141752I1248J-95D01*
G01X21021Y141746D01*
X18259Y138984D01*
G03X18542Y138302I283J-282D01*
G01X26402D01*
Y135898D01*
X26202D01*
Y134365D01*
X26590D01*
X27098Y134873D01*
Y153429D01*
X35271Y161602D01*
X35487D01*
G03X35770Y162284I0J400D01*
G02X34794Y163953I2730J2716D01*
G01X34753Y164098D01*
X34277D01*
X34269Y164106D01*
X26861D01*
G02Y165910I-869J902D01*
G01X34755D01*
X34796Y166055D01*
G02X41230Y162284I3704J-1055D01*
G03X41513Y161602I283J-282D01*
G01X45347D01*
G03X45637Y162277I0J400D01*
G02X52282Y166144I2863J2723D01*
G01X52325Y166002D01*
X56087D01*
X57587Y167502D01*
X60896D01*
G03X61179Y168184I0J400D01*
G01X52853Y176510D01*
G03X52187Y176112I-283J-282D01*
G02X51607Y172725I-3687J-1112D01*
G03X51662Y172192I323J-236D01*
G02X49618Y170922I-839J-929D01*
G03X49165Y171207I-385J-109D01*
G02X46620Y171639I-665J3793D01*
G01X46488Y171713D01*
X44673Y169898D01*
X34869D01*
G02Y171702I-869J902D01*
G01X35390D01*
G03X35683Y172374I0J400D01*
G02X41317I2817J2626D01*
G03X41610Y171702I293J-272D01*
G01X43927D01*
X45213Y172988D01*
X45139Y173120D01*
G02X51216Y177730I3361J1880D01*
G03X51898Y178013I282J283D01*
G01Y181987D01*
G03X51216Y182270I-400J0D01*
G02Y187730I-2716J2730D01*
G03X51898Y188013I282J283D01*
G01Y190327D01*
X50512Y191713D01*
X50380Y191639D01*
G02X51861Y193120I-1880J3361D01*
G01X51787Y192988D01*
X53702Y191073D01*
Y178211D01*
X54082Y177831D01*
G03X54748Y178002I282J283D01*
G02X55203Y178654I1201J-353D01*
G03X55118Y179345I-239J321D01*
G02X55470Y181745I482J1155D01*
G01X55649Y181764D01*
Y188751D01*
X63351D01*
Y181049D01*
X61072D01*
G03X60716Y180468I1J-400D01*
G02X58484I-1116J-568D01*
G03X58128Y181049I-357J181D01*
G01X57245D01*
G03X56847Y180613I0J-400D01*
G02X56347Y179496I-1247J-112D01*
G03X56432Y178805I239J-321D01*
G02X56302Y176448I-482J-1155D01*
G03X56131Y175782I112J-384D01*
G01X56303Y175610D01*
X56461Y175769D01*
X56474Y175790D01*
G02X58348Y174182I1072J-647D01*
G03X58321Y173592I256J-307D01*
G01X63311Y168602D01*
X71256D01*
G03X71656Y169003I0J400D01*
G02X73473Y167891I1252J5D01*
G03X73371Y167251I181J-357D01*
G01X93602Y147020D01*
Y144169D01*
G02X91905Y142333I-901J-869D01*
G03X91252Y142023I-253J-310D01*
G01Y140455D01*
X94385Y137321D01*
G02X92969Y135905I-708J-708D01*
G01X92558Y136316D01*
G03X91917Y136212I-283J-283D01*
G02X91041Y135722I-799J401D01*
G03X90620Y135427I-35J-398D01*
G02X90502Y135160I-920J247D01*
G03X90752Y134870I168J-108D01*
G02X91994Y133874I366J-816D01*
G03X92300Y133403I392J-80D01*
G02X92318Y133399I-198J-931D01*
G03X92802Y133870I93J389D01*
G02X94553Y133874I875J184D01*
G03X94859Y133403I392J-80D01*
G02X94877Y133399I-198J-931D01*
G03X95361Y133870I93J389D01*
G02X96056Y134930I875J184D01*
G03X96216Y135110I-39J196D01*
G02X96228Y135208I999J-73D01*
G03X95950Y135661I-394J70D01*
G02X96205Y137607I285J952D01*
G03X96398Y137806I-7J200D01*
G01Y139173D01*
X96969Y139743D01*
X96976Y139814D01*
G02X98565Y138349I1345J-135D01*
G01X98402Y138319D01*
Y138007D01*
G03X98800Y137607I400J0D01*
G02X99055Y137572I-7J-994D01*
G01X99167Y137542D01*
X101684Y140058D01*
Y141088D01*
X105497Y144902D01*
X110227D01*
X110625Y145300D01*
G03X110424Y145974I-283J283D01*
G02X109433Y147073I255J1226D01*
G03X109219Y147252I-199J-20D01*
G02X110367Y148627I-98J1248D01*
G03X110581Y148448I199J20D01*
G02X111905Y147455I98J-1248D01*
G03X112579Y147254I391J82D01*
G01X120527Y155202D01*
X175331D01*
G02X176690Y153148I869J-902D01*
G03X176572Y152923I78J-184D01*
G02X175695Y151462I-1225J-258D01*
G03X175551Y151260I55J-192D01*
G02X174870Y150085I-1251J-60D01*
G03X174773Y149837I90J-178D01*
G02X172731Y148498I-1173J-437D01*
G01X171977D01*
X171348Y149128D01*
X157272D01*
X157243Y149098D01*
X137386D01*
G03X137051Y148481I0J-400D01*
G02X134949I-1051J-681D01*
G03X134614Y149098I-335J217D01*
G01X132640D01*
G03X132243Y148650I0J-400D01*
G02X132172Y148059I-1243J-150D01*
G03X132341Y147575I374J-141D01*
G02X131795Y145252I-641J-1075D01*
G01X131721Y145246D01*
X131189Y144714D01*
X130862D01*
X126287Y140139D01*
G03X126440Y139478I283J-283D01*
G02X127348Y138095I-440J-1278D01*
G03X128029Y137781I399J-31D01*
G01X130748Y140500D01*
X131505D01*
G02X133419Y138595I908J-1002D01*
G02X133504Y136692I-916J-994D01*
G01Y135836D01*
X133502Y135833D01*
Y133650D01*
X133950Y133201D01*
Y131941D01*
X133977Y131895D01*
G02X134136Y131359I-1028J-597D01*
G03X134634Y130992I399J21D01*
G02X134739Y131012I230J-924D01*
G03X134911Y131223I-27J198D01*
G02X135460Y132301I1187J74D01*
G03X135489Y132956I-214J338D01*
G02X135098Y133750I611J794D01*
G01Y140592D01*
G02X137102I1002J908D01*
G01Y133750D01*
G02X137100Y133695I-1002J9D01*
G01X137095Y133606D01*
X137233Y133468D01*
X137383D01*
X138316Y132535D01*
G03X138998Y132818I282J283D01*
G01Y134092D01*
G02X140974Y135937I1002J908D01*
G03X141318Y136076I144J139D01*
G01Y136394D01*
X142148Y137223D01*
G03X142053Y137859I-283J283D01*
G02X143424Y138928I447J841D01*
G01X143438Y138874D01*
X143618Y138694D01*
X143837Y138912D01*
X164703D01*
X169292Y134323D01*
X169426Y134400D01*
G02X169932Y132188I599J-1027D01*
G03X169502Y131789I-30J-399D01*
G01Y128285D01*
X168037Y126821D01*
X168023Y126769D01*
G02X167992Y126670I-1149J305D01*
G03X168304Y126139I376J-136D01*
G02X168238Y124252I-155J-939D01*
G03X168058Y124034I19J-199D01*
G02X166984Y125108I-1184J-110D01*
G03X167202Y125288I19J199D01*
G02X167219Y125401I948J-85D01*
G03X166840Y125885I-391J85D01*
G02X165719Y126793I34J1189D01*
G03X165047Y126981I-389J-95D01*
G01X164887Y126821D01*
X164873Y126769D01*
G02X162542Y127205I-1149J305D01*
G03X162132Y127648I-397J43D01*
G02X162086I-23J952D01*
G01X162001Y127649D01*
X161729Y127378D01*
X161747Y127276D01*
G02X160777Y128246I-1172J-202D01*
G01X160879Y128228D01*
X161150Y128500D01*
X161149Y128585D01*
G02X161150Y128631I952J2D01*
G03X160706Y129042I-400J13D01*
G02X159426Y129919I-131J1182D01*
G01X159412Y129971D01*
X159252Y130131D01*
G03X158580Y129943I-283J-283D01*
G02X156236Y130243I-1155J281D01*
G03X155855Y130649I-400J7D01*
G02X155687Y130672I45J951D01*
G03X155445Y130441I-45J-195D01*
G02X154074Y129052I-1169J-217D01*
G01X153972Y129070D01*
X152763Y127860D01*
X152667D01*
G03X152279Y127363I0J-400D01*
G02X152281Y127355I-1152J-292D01*
G03X152953Y127167I389J95D01*
G01X153113Y127327D01*
X153127Y127379D01*
G02X154581Y125925I1149J-305D01*
G01X154529Y125911D01*
X154369Y125751D01*
G03X154557Y125079I283J-283D01*
G02X154581Y122775I-281J-1155D01*
G01X154529Y122761D01*
X154370Y122602D01*
G03X154558Y121930I283J-283D01*
G02X154246Y119586I-282J-1155D01*
G03X153841Y119250I-10J-400D01*
G02X153788Y119054I-940J149D01*
G03X154017Y118786I186J-73D01*
G02X153132Y117948I260J-1160D01*
G03X152792Y118454I-385J109D01*
G02X152725Y118464I107J946D01*
G03X152267Y117959I-74J-393D01*
G02X151460Y118766I-1141J-334D01*
G03X151965Y119224I112J384D01*
G02X151955Y119291I936J174D01*
G03X151449Y119631I-397J-45D01*
G02X150073Y120223I-323J1144D01*
G03X149436Y120320I-354J-186D01*
G01X149082Y119965D01*
Y114665D01*
X145525Y111109D01*
X145675Y110959D01*
X145685Y110951D01*
G02X145838Y110802I-584J-752D01*
G01X146599D01*
X146861Y110540D01*
X147930D01*
G03X148314Y111054I1J400D01*
G02X149766Y112110I912J272D01*
G03X150278Y112159I227J330D01*
G02X152204Y110824I848J-833D01*
G01X152185Y110784D01*
Y110540D01*
X152639D01*
X153122Y111022D01*
X153104Y111124D01*
G02X155431Y111608I1172J203D01*
G03X156103Y111420I389J95D01*
G01X156262Y111579D01*
X156276Y111631D01*
G02X157730Y110177I1149J-305D01*
G01X157678Y110163D01*
X157600Y110085D01*
G03X157774Y109417I283J-283D01*
G02X158560Y107566I-349J-1241D01*
G01X158490Y107435D01*
X158736Y107188D01*
X159421Y107872D01*
X159403Y107974D01*
G02X161730Y108458I1172J203D01*
G03X162402Y108270I389J95D01*
G01X162561Y108429D01*
X162575Y108481D01*
G02X164879Y108457I1149J-305D01*
G03X165551Y108269I389J95D01*
G01X165711Y108429D01*
X165725Y108481D01*
G02X167179Y107027I1149J-305D01*
G01X167127Y107013D01*
X156363Y96248D01*
X156151D01*
G03X155751Y95861I0J-400D01*
G02X153249I-1251J39D01*
G03X152849Y96248I-400J-13D01*
G01X121040D01*
X120036Y97253D01*
X119965Y97260D01*
G02X118752Y98505I135J1345D01*
G03X118070Y98759I-399J-29D01*
G01X117852Y98541D01*
X117845Y98470D01*
G02X116365Y99950I-1345J135D01*
G01X116436Y99957D01*
X116638Y100160D01*
X116446Y100352D01*
X116374Y100359D01*
G02X115215Y101284I126J1346D01*
G03X114552Y101443I-380J-124D01*
G01X109408Y96298D01*
X100885D01*
X100113Y97071D01*
G03X99504Y97019I-283J-283D01*
G02X97397Y96893I-1104J781D01*
G02X95405Y97115I-895J1013D01*
G03X95155Y97178I-162J-117D01*
G02X93405Y97928I-555J1122D01*
G03X93177Y98065I-191J-60D01*
G02X92442Y98229I-177J935D01*
G03X91886Y98143I-234J-324D01*
G02X91178Y97759I-765J566D01*
G03X90802Y97359I24J-399D01*
G01Y93865D01*
X91502Y93165D01*
Y92408D01*
G02X90084Y90214I-1002J-908D01*
G03X89560Y89833I-124J-381D01*
G01Y85734D01*
X52825Y48998D01*
X50946D01*
G03X50721Y48268I0J-400D01*
G02X52010Y46814I-2221J-3268D01*
G03X52648Y46715I355J184D01*
G01X90778Y84844D01*
Y85842D01*
G02X92729Y87712I1001J908D01*
G02X94680Y85842I950J-962D01*
G01Y82964D01*
X56348Y44632D01*
X56351Y44545D01*
G02X56352Y44531I-1347J-103D01*
G03X57034Y44258I400J10D01*
G01X97695Y84918D01*
X97702Y84989D01*
G02X99718Y86028I1345J-135D01*
G03X100232Y86130I198J347D01*
G02X101705Y86590I1068J-830D01*
G02X104002Y85292I1295J-390D01*
G01Y83986D01*
X78983Y58968D01*
G03X79153Y58301I283J-283D01*
G02X80008Y56773I-353J-1201D01*
G01X80002Y56747D01*
Y43253D01*
X80008Y43227D01*
G02X77592I-1208J-327D01*
G01X77598Y43253D01*
Y47703D01*
G03X77029Y48065I-400J0D01*
G02Y50335I-529J1135D01*
G03X77598Y50697I169J362D01*
G01Y56747D01*
X77592Y56773D01*
G02X77549Y57057I1208J328D01*
G01X77546Y57136D01*
X77349Y57334D01*
X56502Y36486D01*
Y31585D01*
X51911Y26994D01*
G02X46279Y28268I-3411J-1994D01*
G03X46054Y28998I-225J330D01*
G01X43915D01*
X41913Y26996D01*
X41983Y26866D01*
G37*
G54D28*
X11070Y89069D03*
G54D23*
X162500Y146500D03*
X167500Y146400D03*
X157500Y146500D03*
X154500Y84300D03*
X159500Y84500D03*
X153500Y33800D03*
X173700Y45900D03*
X161539Y29603D03*
X121000Y94300D03*
X145692Y93192D03*
X126000Y94500D03*
X131000D03*
X136000D03*
X149553Y62100D03*
X143647Y58200D03*
X145616Y60400D03*
X135300Y36600D03*
X140400D03*
X126600Y29600D03*
X143608Y9908D03*
X126600Y15779D03*
X140600Y18600D03*
X99400Y155200D03*
X92392Y169008D03*
X119500Y166800D03*
X101400Y163700D03*
X117400Y94079D03*
X103600Y64000D03*
X108108Y64392D03*
X117521Y55721D03*
X118495Y42800D03*
X108708Y24492D03*
X102380Y25520D03*
X112279Y12379D03*
X82692Y169008D03*
X87700Y60900D03*
X89000Y53000D03*
X81500Y59100D03*
X87092Y23992D03*
X21200Y155300D03*
X21500Y174500D03*
G54D26*
X179100Y46100D03*
X129500Y194900D03*
X139500D03*
X149500D03*
X99500D03*
X109500D03*
X119500D03*
X69500D03*
X79500D03*
X89500D03*
X38500Y95000D03*
G54D25*
X159500Y95800D03*
G54D24*
X173600Y114700D03*
G54D21*
X190300Y163200D03*
Y173200D03*
X160300Y163200D03*
X180300Y173200D03*
X160300D03*
X179100Y36100D03*
Y26100D03*
X129500Y184900D03*
X139500D03*
X149500D03*
X150300Y163200D03*
Y173200D03*
X109500Y184900D03*
X119500D03*
X59500Y194900D03*
X38500Y185000D03*
Y195000D03*
Y5000D03*
G54D27*
X48500Y15000D03*
X38500D03*
G54D29*
X166874Y117625D03*
X160575D03*
X166874Y114476D03*
X163724D03*
X160575D03*
X163724Y123924D03*
X160575D03*
X157425Y127074D03*
Y123924D03*
Y120775D03*
X160575Y111326D03*
X170024Y105027D03*
X157425Y117625D03*
X166874Y120775D03*
X163724D03*
X166874Y111326D03*
X163724D03*
X173173Y105027D03*
Y101877D03*
X170024D03*
X173173Y136523D03*
X170024D03*
X173173Y133373D03*
X160575Y120775D03*
X157425Y114476D03*
X154276D03*
X151126D03*
G54D30*
X163724Y117625D03*
G54D22*
X170300Y163200D03*
Y173200D03*
X179100Y16100D03*
X140300Y163200D03*
Y173200D03*
X48500Y5000D03*
%LPD*%
G75*
G36*
G01X16998Y130128D02*
X16148D01*
X14402Y131874D01*
Y135654D01*
G02X14995Y136004I400J0D01*
G03X15927Y135892I604J1096D01*
G01X15953Y135898D01*
X17198D01*
Y134365D01*
X16998D01*
Y130128D01*
G37*
G36*
G01X50177Y51757D02*
G03X51051Y57612I-1677J3243D01*
G02X51330Y58298I279J286D01*
G01X55998D01*
X68850Y71151D01*
X68873Y71164D01*
G03X67164Y72873I-623J1086D01*
G01X67151Y72850D01*
X55002Y60702D01*
X50432D01*
G02X50254Y61460I0J400D01*
G03X46746I-1754J3540D01*
G02X46568Y60702I-178J-358D01*
G01X40432D01*
G02X40254Y61460I0J400D01*
G03X41911Y66994I-1754J3540D01*
G01X44415Y69498D01*
X57115D01*
X73702Y86085D01*
Y89676D01*
G03X73326Y91782I-1002J908D01*
G02X73229Y92419I186J354D01*
G01X76739Y95929D01*
G02X77422Y95647I283J-283D01*
G01Y89169D01*
G03X79224I901J-869D01*
G01Y100787D01*
G03X78588Y101649I-902J0D01*
G02X78317Y102127I117J382D01*
G03X78343Y102290I-972J239D01*
G02X78503Y102470I199J-16D01*
G03X79198Y103530I-180J876D01*
G02X79682Y104001I391J82D01*
G03X79700Y103997I216J927D01*
G02X80006Y103526I-86J-391D01*
G03X81757Y103530I876J-180D01*
G02X82241Y104001I391J82D01*
G03X82259Y103997I216J927D01*
G02X82565Y103526I-86J-391D01*
G03X83629Y102472I876J-180D01*
G02X84101Y102182I85J-391D01*
G03X84821Y101491I921J240D01*
G02X85125Y101004I-84J-391D01*
G03X85098Y100787I875J-219D01*
G01Y86869D01*
G03X85292Y84967I902J-869D01*
G02X85348Y84355I-227J-329D01*
G01X83708Y82714D01*
G02X83044Y82877I-282J283D01*
G03X82752Y83369I-1194J-376D01*
G01Y99526D01*
G02X83241Y99916I400J0D01*
G03X82611Y101120I200J871D01*
G02X81957Y100986I-371J149D01*
G01X81519Y101424D01*
G03X80245Y100150I-637J-637D01*
G01X80948Y99446D01*
Y83369D01*
G03X81473Y81306I902J-869D01*
G02X81636Y80642I-120J-382D01*
G01X51995Y51002D01*
X50360D01*
G02X50177Y51757I1J400D01*
G37*
G36*
G01X87319Y86325D02*
X87152Y86492D01*
X87137Y86524D01*
G03X86902Y86869I-1138J-523D01*
G01Y100787D01*
G03X86223Y101661I-902J0D01*
G02X85937Y102159I98J388D01*
G03X85965Y102292I-915J262D01*
G02X86133Y102462I198J-28D01*
G03X86230Y104210I-133J884D01*
G02X85945Y104694I103J386D01*
G03X85970Y104842I-923J232D01*
G02X86138Y105022I199J-18D01*
G03X85117Y106043I-138J883D01*
G02X84937Y105875I-198J31D01*
G03X84789Y105850I84J-948D01*
G02X84305Y106135I-98J388D01*
G03X82558Y106043I-864J-230D01*
G02X82378Y105875I-198J31D01*
G03X82230Y105850I84J-948D01*
G02X81746Y106135I-98J388D01*
G03X79999Y106043I-864J-230D01*
G02X79819Y105875I-198J31D01*
G03X79671Y105850I84J-948D01*
G02X79187Y106135I-98J388D01*
G03X78553Y106769I-864J-230D01*
G02X78268Y107253I103J386D01*
G03X78293Y107401I-923J232D01*
G02X78461Y107581I199J-18D01*
G03X77440Y108602I-138J883D01*
G02X77260Y108434I-198J31D01*
G03X77112Y108409I84J-948D01*
G02X76628Y108694I-98J388D01*
G03X75944Y107588I-864J-230D01*
G02X76415Y107282I80J-392D01*
G03X76419Y107264I931J198D01*
G02X75948Y106780I-389J-93D01*
G03X74881Y106043I-184J-875D01*
G02X74701Y105875I-198J31D01*
G03X74553Y105850I84J-948D01*
G02X74069Y106135I-98J388D01*
G03X73435Y106769I-864J-230D01*
G02X73150Y107253I103J386D01*
G03X73175Y107401I-923J232D01*
G02X73343Y107581I199J-18D01*
G03X73435Y109328I-138J883D01*
G02X73150Y109812I103J386D01*
G03X73175Y109960I-923J232D01*
G02X73343Y110140I199J-18D01*
G03X74080Y111207I-138J883D01*
G02X74564Y111678I391J82D01*
G03X74582Y111674I216J927D01*
G02X74888Y111203I-86J-391D01*
G03X75994Y111887I876J-180D01*
G02X75709Y112371I103J386D01*
G03X75734Y112519I-923J232D01*
G02X75902Y112699I199J-18D01*
G03X74881Y113720I-138J883D01*
G02X74701Y113552I-198J31D01*
G03X74553Y113527I84J-948D01*
G02X74069Y113812I-98J388D01*
G03X73435Y114446I-864J-230D01*
G02X73150Y114930I103J386D01*
G03X73175Y115078I-923J232D01*
G02X73343Y115258I199J-18D01*
G03X73435Y117005I-138J883D01*
G02X73150Y117489I103J386D01*
G03X73175Y117637I-923J232D01*
G02X73343Y117817I199J-18D01*
G03X72322Y118838I-138J883D01*
G02X72142Y118670I-198J31D01*
G03X71994Y118645I84J-948D01*
G02X71510Y118930I-98J388D01*
G03X69770Y118880I-864J-230D01*
G02X69590Y118720I-196J39D01*
G03X69422Y118693I74J-999D01*
G02X68941Y118963I-99J388D01*
G03X67211Y118878I-854J-263D01*
G01X67199Y118819D01*
X67015Y118635D01*
X66749Y118902D01*
X64140D01*
G02X63743Y119350I0J400D01*
G03X61257I-1243J150D01*
G02X60860Y118902I-397J-48D01*
G01X57818D01*
X55015Y121704D01*
X51748D01*
G02X51449Y122371I-1J400D01*
G03X51911Y126994I-2949J2629D01*
G01X56209Y131292D01*
X57410D01*
G02X57772Y130723I0J-400D01*
G03X58286Y128998I1224J-574D01*
G02X58359Y128375I-210J-340D01*
G01X57998Y128015D01*
Y122608D01*
G03X60002I1002J-908D01*
G01Y127185D01*
X60427Y127611D01*
X60738Y127364D01*
G03X61705Y125452I1062J-664D01*
G01X61779Y125446D01*
X62311Y124914D01*
X64463D01*
X65024Y125476D01*
X68087D01*
G03X68538Y125596I2J901D01*
G02X68805Y125314I99J-173D01*
G03X68676Y125008I799J-517D01*
G02X68224Y124701I-390J88D01*
G03X67567Y124545I-137J-883D01*
G02X67323Y124553I-117J162D01*
G03Y123083I-605J-735D01*
G02X67567Y123091I127J-154D01*
G03X68272Y122943I521J727D01*
G02X68743Y122457I83J-391D01*
G03X68739Y122439I927J-215D01*
G02X68268Y122135I-390J88D01*
G03X68950Y121026I-181J-876D01*
G02X69434Y121309I386J-105D01*
G03X69584Y121284I231J924D01*
G02X69763Y121116I-18J-199D01*
G03X71510Y121029I883J143D01*
G02X71994Y121314I386J-103D01*
G03X72142Y121289I232J923D01*
G02X72322Y121121I-18J-199D01*
G03X73343Y122142I883J138D01*
G02X73175Y122322I31J198D01*
G03X73150Y122470I-948J-84D01*
G02X73435Y122954I388J98D01*
G03X74069Y123588I-230J864D01*
G02X74553Y123873I386J-103D01*
G03X74701Y123848I232J923D01*
G02X74881Y123680I-18J-199D01*
G03X75902Y124701I883J138D01*
G02X75734Y124881I31J198D01*
G03X75724Y124960I-949J-80D01*
G02X76016Y125416I394J69D01*
G03X74791Y126173I-252J961D01*
G02X74514Y125708I-392J-82D01*
G03X74178Y125528I272J-912D01*
G02X73896Y125809I-128J154D01*
G03X73343Y127260I-691J568D01*
G02X73175Y127440I31J198D01*
G03X73150Y127588I-948J-84D01*
G02X73435Y128072I388J98D01*
G03X74069Y128706I-230J864D01*
G02X74553Y128991I386J-103D01*
G03X74701Y128966I232J923D01*
G02X74881Y128798I-18J-199D01*
G03X75902Y129819I883J138D01*
G02X75734Y129999I31J198D01*
G03X75709Y130147I-948J-84D01*
G02X75994Y130631I388J98D01*
G03X76628Y131265I-230J864D01*
G02X77112Y131550I386J-103D01*
G03X77260Y131525I232J923D01*
G02X77440Y131357I-18J-199D01*
G03X78507Y130620I883J138D01*
G02X78978Y130136I82J-391D01*
G03X78974Y130118I927J-216D01*
G02X78503Y129812I-391J86D01*
G03X79187Y128706I-180J-876D01*
G02X79671Y128991I386J-103D01*
G03X79819Y128966I232J923D01*
G02X79999Y128798I-18J-199D01*
G03X81746Y128706I883J138D01*
G02X82230Y128991I386J-103D01*
G03X82378Y128966I232J923D01*
G02X82558Y128798I-18J-199D01*
G03X84305Y128706I883J138D01*
G02X84789Y128991I386J-103D01*
G03X84937Y128966I232J923D01*
G02X85117Y128798I-18J-199D01*
G03X86138Y129819I883J138D01*
G02X85970Y129999I31J198D01*
G03X85945Y130147I-948J-84D01*
G02X86230Y130631I388J98D01*
G03X86138Y132378I-230J864D01*
G02X85970Y132558I31J198D01*
G03X85945Y132706I-948J-84D01*
G02X86230Y133190I388J98D01*
G03X86180Y134930I-230J864D01*
G02X86020Y135110I39J196D01*
G03X85994Y135273I-998J-76D01*
G02X86265Y135751I388J96D01*
G03X86637Y135976I-267J861D01*
G01X87070Y136408D01*
G02X87723Y136275I282J-283D01*
G03X88559Y135712I836J339D01*
G01X88733D01*
X88757Y135540D01*
G03X88813Y135328I942J136D01*
G01X88860Y135206D01*
X88605Y134950D01*
X88526Y134947D01*
G03X88329Y133190I33J-893D01*
G02X88614Y132706I-103J-386D01*
G03X88589Y132558I923J-232D01*
G02X88421Y132378I-199J18D01*
G03X88329Y130631I138J-883D01*
G02X88614Y130147I-103J-386D01*
G03X88589Y129999I923J-232D01*
G02X88421Y129819I-199J18D01*
G03X89442Y128798I138J-883D01*
G02X89622Y128966I198J-31D01*
G03X89770Y128991I-84J948D01*
G02X90254Y128706I98J-388D01*
G03X92001Y128798I864J230D01*
G02X92181Y128966I198J-31D01*
G03X92329Y128991I-84J948D01*
G02X92813Y128706I98J-388D01*
G03X94560Y128798I864J230D01*
G02X94740Y128966I198J-31D01*
G03X94888Y128991I-84J948D01*
G02X95372Y128706I98J-388D01*
G03X96006Y128072I864J230D01*
G02X96291Y127588I-103J-386D01*
G03X96266Y127440I923J-232D01*
G02X96098Y127260I-199J18D01*
G03X96006Y125513I138J-883D01*
G02X96291Y125029I-103J-386D01*
G03X96266Y124881I923J-232D01*
G02X96098Y124701I-199J18D01*
G03X96006Y122954I138J-883D01*
G02X96291Y122470I-103J-386D01*
G03X96266Y122322I923J-232D01*
G02X96098Y122142I-199J18D01*
G03X97119Y121121I138J-883D01*
G02X97299Y121289I198J-31D01*
G03X97447Y121314I-84J948D01*
G02X97931Y121029I98J-388D01*
G03X99678Y121121I864J230D01*
G02X99858Y121289I198J-31D01*
G03X100006Y121314I-84J948D01*
G02X100490Y121029I98J-388D01*
G03X101616Y120404I864J230D01*
G02X102132Y119995I117J-382D01*
G03X102130Y119936I950J-62D01*
G02X101614Y119555I-400J2D01*
G03X100490Y118930I-260J-855D01*
G02X100006Y118645I-386J103D01*
G03X99858Y118670I-232J-923D01*
G02X99678Y118838I18J199D01*
G03X98657Y117817I-883J-138D01*
G02X98825Y117637I-31J-198D01*
G03X98850Y117489I948J84D01*
G02X98565Y117005I-388J-98D01*
G03X98657Y115258I230J-864D01*
G02X98825Y115078I-31J-198D01*
G03X98850Y114930I948J84D01*
G02X98565Y114446I-388J-98D01*
G03X97931Y113812I230J-864D01*
G02X97447Y113527I-386J103D01*
G03X97299Y113552I-232J-923D01*
G02X97119Y113720I18J199D01*
G03X96098Y112699I-883J-138D01*
G02X96266Y112519I-31J-198D01*
G03X96291Y112371I948J84D01*
G02X96006Y111887I-388J-98D01*
G03X97112Y111203I230J-864D01*
G02X97418Y111674I392J80D01*
G03X97436Y111678I-198J931D01*
G02X97920Y111207I93J-389D01*
G03X98657Y110140I875J-184D01*
G02X98825Y109960I-31J-198D01*
G03X98850Y109812I948J84D01*
G02X98565Y109328I-388J-98D01*
G03X97912Y108604I230J-864D01*
G02X97428Y108277I-395J63D01*
G03X97318Y108295I-208J-929D01*
G01X97248Y108303D01*
X97132Y108418D01*
X97129Y108497D01*
G03X95353Y108604I-893J-34D01*
G02X94869Y108277I-395J63D01*
G03X94759Y108295I-208J-929D01*
G01X94689Y108303D01*
X94573Y108418D01*
X94570Y108497D01*
G03X92794Y108604I-893J-34D01*
G02X92310Y108277I-395J63D01*
G03X92200Y108295I-208J-929D01*
G01X92130Y108303D01*
X92014Y108418D01*
X92011Y108497D01*
G03X90235Y108604I-893J-34D01*
G02X89751Y108277I-395J63D01*
G03X89641Y108295I-208J-929D01*
G01X89571Y108303D01*
X89455Y108418D01*
X89452Y108497D01*
G03X88418Y107581I-893J-33D01*
G02X88586Y107378I-32J-197D01*
G03X88597Y107208I952J-24D01*
G02X88312Y106764I-396J-59D01*
G03X88421Y105022I247J-859D01*
G02X88589Y104842I-31J-198D01*
G03X88614Y104694I948J84D01*
G02X88329Y104210I-388J-98D01*
G03X88379Y102470I230J-864D01*
G02X88539Y102290I-39J-196D01*
G03X88550Y102197I999J71D01*
G02X88271Y101746I-394J-68D01*
G03X87558Y100787I288J-959D01*
G01Y86564D01*
X87319Y86325D01*
G37*
G36*
G01X52148Y145145D02*
G03X50869Y147778I-3648J-145D01*
G02X51128Y148482I259J304D01*
G01X55736D01*
X55762Y148312D01*
G03X55833Y148046I1238J188D01*
G02X55460Y147502I-373J-144D01*
G01X55454D01*
X52831Y144878D01*
G02X52148Y145145I-283J283D01*
G37*
G36*
G01X41447Y142368D02*
G03X41288Y147799I-2947J2632D01*
G02X41571Y148482I283J283D01*
G01X45872D01*
G02X46131Y147778I0J-400D01*
G03X45949Y142388I2369J-2778D01*
G02X45670Y141702I-279J-286D01*
G01X41745D01*
G02X41447Y142368I0J400D01*
G37*
G36*
G01X79014Y133486D02*
G03X78451Y134939I-691J568D01*
G02X78280Y135119I28J198D01*
G03X78257Y135257I-948J-87D01*
G02X78546Y135740I389J95D01*
G03X79159Y136275I-222J874D01*
G02X79812Y136408I371J-150D01*
G01X80245Y135976D01*
G03X81519Y137250I637J637D01*
G01X80528Y138242D01*
Y143246D01*
G03X80874Y144215I-902J868D01*
G02X81024Y144425I199J16D01*
G03X79356Y145521I-333J1310D01*
G02X79223Y145300I-198J-32D01*
G03X78727Y144986I403J-1185D01*
G02X78476Y144957I-143J139D01*
G03X77077Y144920I-672J-1057D01*
G02X76825Y144936I-116J163D01*
G03X75056Y145006I-925J-986D01*
G02X74807I-124J157D01*
G03X74098Y145295I-844J-1056D01*
G01X74027Y145302D01*
X66051Y153278D01*
X60145D01*
G02X59747Y153715I0J400D01*
G03X59664Y154290I-1247J113D01*
G02X59735Y154528I186J74D01*
G03X59111Y156801I-719J1025D01*
G01X59037Y156807D01*
X54242Y161602D01*
X51653D01*
G02X51363Y162277I0J400D01*
G03X52282Y163856I-2863J2723D01*
G01X52325Y163998D01*
X56917D01*
X56946Y164028D01*
G02X57537Y164000I283J-283D01*
G03X59369Y163898I963J800D01*
G01X67684D01*
G02X68003Y163257I0J-400D01*
G03X68905Y161252I997J-757D01*
G01X68979Y161246D01*
X83727Y146498D01*
G03X83352Y145695I873J-897D01*
G01X83346Y145621D01*
X82540Y144814D01*
Y136613D01*
G03X83658Y135738I901J0D01*
G01X83682Y135744D01*
X83906D01*
Y135446D01*
G02X83488Y135047I-400J0D01*
G03X82468Y133850I-47J-993D01*
G02X82191Y133385I-392J-82D01*
G03X82030Y133321I270J-913D01*
G02X81762Y133592I-91J178D01*
G03X79909Y133850I-880J462D01*
G02X79632Y133385I-392J-82D01*
G03X79296Y133205I272J-912D01*
G02X79014Y133486I-128J154D01*
G37*
G36*
G01X112321Y121281D02*
X112056Y121546D01*
X112074Y121648D01*
G03X110510Y122972I-1172J202D01*
G01X110391Y122931D01*
X110161Y123161D01*
X110402Y123402D01*
Y123648D01*
X110598Y123845D01*
X110700Y123827D01*
G03X109730Y124797I202J1172D01*
G01X109748Y124695D01*
X109584Y124532D01*
G02X108902Y124815I-282J283D01*
G01Y125298D01*
X110598Y126995D01*
X110700Y126977D01*
G03X109730Y127947I202J1172D01*
G01X109748Y127845D01*
X107698Y125796D01*
Y124844D01*
G02X107038Y124540I-400J0D01*
G03X106603Y124752I-621J-722D01*
G02X106444Y124974I39J196D01*
G03X105293Y126029I-944J126D01*
G02X104807Y126406I-86J390D01*
G03X103040Y126187I-894J-29D01*
G02X102649Y125702I-391J-85D01*
G01X102618D01*
G02X102227Y126187I0J400D01*
G03X100479Y126193I-873J190D01*
G02X99995Y125722I-391J-82D01*
G03X99977Y125726I-216J-927D01*
G02X99671Y126197I86J391D01*
G03X98615Y127253I-876J180D01*
G02X98144Y127559I-80J392D01*
G03X98140Y127577I-931J-198D01*
G02X98611Y128061I389J93D01*
G03X99678Y128798I184J875D01*
G02X99858Y128966I198J-31D01*
G03X100006Y128991I-84J948D01*
G02X100490Y128706I98J-388D01*
G03X102243Y128840I864J230D01*
G02X102422Y129017I199J-22D01*
G03X102553Y129040I-90J897D01*
G02X103041Y128740I98J-388D01*
G03X104802Y128841I872J196D01*
G02X105200Y129198I397J-43D01*
G01X107473D01*
X109106Y130831D01*
G02X109747Y130726I283J-283D01*
G03X112191Y131286I1155J572D01*
G02X112426Y131481I200J-2D01*
G03X112513Y131469I173J936D01*
G02X112874Y131128I-35J-398D01*
G03X115240Y131297I1177J169D01*
G01Y131299D01*
G02X115433Y131499I200J0D01*
G03X115557Y131511I-29J951D01*
G02X116020Y131162I66J-395D01*
G03X116999Y132470I1181J136D01*
G01X116897Y132452D01*
X116593Y132757D01*
G02X116734Y133098I141J141D01*
G01X119246D01*
X122316Y136168D01*
G02X122998Y135885I282J-283D01*
G01Y133982D01*
G02X122361Y133661I-400J1D01*
G03X120843Y132880I-566J-766D01*
G01X120844Y132795D01*
X119898Y131849D01*
Y123910D01*
X119577Y123589D01*
X119385Y123782D01*
X119378Y123854D01*
G03X118560Y124713I-948J-84D01*
G02X118388Y124924I27J198D01*
G03X118378Y125168I-1187J74D01*
G02X118692Y125617I396J57D01*
G03X118774Y127460I-193J932D01*
G01X118726Y127475D01*
X118355Y127845D01*
X118373Y127947D01*
G03X116104Y127690I-1172J202D01*
G02X115843Y127429I-185J-76D01*
G03X115615Y127492I-366J-879D01*
G01X115549Y127501D01*
X115205Y127845D01*
X115223Y127947D01*
G03X114253Y126977I-1172J202D01*
G01X114355Y126995D01*
X114551Y126798D01*
X114536Y126698D01*
G03X114524Y126576I939J-154D01*
G02X114106Y126187I-400J10D01*
G03X114163Y123815I-54J-1188D01*
G02X114380Y123587I19J-199D01*
G03X114370Y123441I942J-138D01*
G02X113990Y123037I-400J-4D01*
G03X112865Y121761I61J-1187D01*
G02X112536Y121338I-399J-29D01*
G03X112435Y121314I169J-937D01*
G01X112321Y121281D01*
G37*
G36*
G01X115052Y103109D02*
Y105459D01*
X115079Y105505D01*
G03X113023I-1028J597D01*
G01X113050Y105459D01*
Y102773D01*
X112823Y102546D01*
G02X112234Y102571I-283J283D01*
G03X110980Y103034I-1034J-871D01*
G02X110516Y103429I-64J395D01*
G01Y104413D01*
G02X110912Y104813I400J0D01*
G03X112025Y106734I-10J1289D01*
G01X111951Y106867D01*
X113358Y108274D01*
X113489Y108203D01*
G03X113454Y110279I562J1048D01*
G01X113408Y110252D01*
X113236D01*
G02X113095Y110594I0J200D01*
G01X113747Y111247D01*
X113849Y111229D01*
G03X112879Y112199I202J1172D01*
G01X112897Y112097D01*
X112414Y111614D01*
X111961D01*
Y111859D01*
X111980Y111899D01*
G03X112055Y112690I-1078J501D01*
G02X112443Y113188I388J98D01*
G01X112539D01*
X113747Y114396D01*
X113849Y114378D01*
G03X113609Y116654I202J1172D01*
G02X113067Y116952I-149J371D01*
G03X112304Y117715I-936J-173D01*
G02X112006Y118257I73J393D01*
G03X112058Y118978I-1104J442D01*
G02X112522Y119465I389J94D01*
G03X112562Y119458I184J934D01*
G02X112893Y118971I-58J-396D01*
G03X113838Y119870I1158J-271D01*
G02X113611Y120124I-35J197D01*
G03X113647Y120302I-911J277D01*
G02X114046Y120661I398J-41D01*
G03X114253Y120678I7J1189D01*
G01X114355Y120696D01*
X115190Y119860D01*
X115693D01*
G02X116050Y119280I0J-400D01*
G03X117123Y117413I1151J-580D01*
G02X117493Y116945I-24J-399D01*
G03X117487Y116909I936J-174D01*
G02X117276Y116737I-198J27D01*
G03X118388Y115625I-75J-1187D01*
G02X118560Y115836I199J13D01*
G03X118673Y117700I-130J943D01*
G02X118402Y118232I101J387D01*
G03X118352Y119280I-1201J468D01*
G02X118681Y119860I357J181D01*
G01X122302Y123480D01*
Y128262D01*
G03X122608Y128713I-602J738D01*
G01X122652Y128853D01*
X122998D01*
Y122315D01*
X121792Y121108D01*
G03X123208Y119692I708J-708D01*
G01X125002Y121485D01*
Y124266D01*
G02X125684Y124548I400J-1D01*
G01X128636Y121597D01*
X128650Y121545D01*
G03X130242Y120746I1149J305D01*
G02X130784Y120448I149J-371D01*
G03X131547Y119685I936J173D01*
G02X131845Y119143I-73J-393D01*
G03Y118257I1104J-443D01*
G02X131547Y117715I-371J-149D01*
G03X130799Y117022I172J-936D01*
G02X130267Y116751I-387J101D01*
G03X128598Y115082I-468J-1201D01*
G02X128327Y114551I-373J-144D01*
G03X128440Y112687I243J-921D01*
G02X128612Y112476I-27J-198D01*
G03X128618Y112261I1187J-74D01*
G02X128221Y111814I-397J-47D01*
G01X127008D01*
X122840Y107646D01*
Y106362D01*
X122518Y106039D01*
G02X121911Y106087I-283J283D01*
G03X120392Y106208I-811J-587D01*
G01X117774Y103590D01*
X116969D01*
X116436Y103057D01*
X116365Y103050D01*
G03X115692Y102789I135J-1345D01*
G02X115052Y103109I-240J320D01*
G37*
G36*
G01X123815Y99452D02*
X123152Y100114D01*
X123145Y100185D01*
G03X121703Y101399I-1345J-135D01*
G02X121392Y102080I-28J399D01*
G01X124844Y105532D01*
Y106816D01*
X127838Y109810D01*
X128118D01*
G02X128516Y109373I0J-400D01*
G03X128598Y108783I1283J-122D01*
G02X128327Y108252I-373J-144D01*
G03X128440Y106388I243J-921D01*
G02X128612Y106177I-27J-198D01*
G03X130983Y106215I1187J-75D01*
G02X131416Y106652I398J39D01*
G03X131474Y106648I94J947D01*
G01X131554Y106646D01*
X131795Y106406D01*
X131777Y106304D01*
G03X132644Y104953I1172J-202D01*
G01X132696Y104939D01*
X134042Y103593D01*
G02X133900Y103252I-142J-141D01*
G01X133408D01*
G03X131317Y101595I-908J-1002D01*
G02X130967Y101002I-350J-193D01*
G01X127008D01*
G03X124753Y99885I-908J-1002D01*
G02X124354Y99452I-398J-33D01*
G01X123815D01*
G37*
G36*
G01X166114Y131874D02*
Y132703D01*
X163054Y135762D01*
X149524D01*
G02X149134Y136253I0J400D01*
G03X149165Y136513I-1158J270D01*
G02X149565Y136910I400J-3D01*
G01X163873D01*
X167498Y133284D01*
Y131898D01*
G02X167045Y131502I-400J0D01*
G03X166599Y131483I-169J-1278D01*
G02X166114Y131874I-85J391D01*
G37*
%LPC*%
G75*
G36*
G01X127858Y119302D02*
X128773D01*
G02Y118098I1026J-602D01*
G01X127858D01*
G02Y119302I-738J602D01*
G37*
G36*
G01X118388Y109326D02*
G02X117276Y110438I-1187J-75D01*
G03X117487Y110610I13J199D01*
G02X117493Y110646I942J-138D01*
G03X117123Y111114I-394J69D01*
G02X118402Y111933I78J1287D01*
G03X118673Y111401I372J-145D01*
G02X118560Y109537I-243J-921D01*
G03X118388Y109326I27J-198D01*
G37*
G54D23*
X78417Y84400D03*
G54D30*
X117201Y106102D03*
G54D31*
X88559Y113582D03*
Y116141D03*
Y118700D03*
X86000Y108464D03*
Y113582D03*
Y116141D03*
Y118700D03*
X83441Y108464D03*
Y113582D03*
Y116141D03*
Y118700D03*
X80882Y108464D03*
Y113582D03*
Y116141D03*
Y118700D03*
X75764Y116141D03*
Y118700D03*
X88559Y121259D03*
Y123818D03*
X86000Y121259D03*
Y123818D03*
X83441Y121259D03*
Y123818D03*
X80882Y121259D03*
Y123818D03*
X75764Y121259D03*
X96236Y116141D03*
Y118700D03*
X91118Y113582D03*
Y116141D03*
Y118700D03*
Y121259D03*
Y123818D03*
%LPD*%
G75*
G54D10*
X11070Y89069D03*
Y143793D03*
G54D20*
G01X4368Y89069D02*
X11070D01*
G01X4368Y143793D02*
X11070D01*
G01Y89069D02*
Y92771D01*
G01Y89069D02*
X17772D01*
G01X11070Y140091D02*
Y143793D01*
G01D02*
X17772D01*
G01X38500Y91148D02*
Y95000D01*
G01D02*
Y98852D01*
G01X34648Y95000D02*
X38500D01*
G01D02*
X42352D01*
G01X44648Y55000D02*
X48500D01*
G01D02*
X52352D01*
G01X44648Y145000D02*
X48500D01*
G01D02*
X52352D01*
G01X65648Y194900D02*
X69500D01*
G01Y191048D02*
Y194900D01*
G01D02*
Y198752D01*
G01Y194900D02*
X73352D01*
G01X75648D02*
X79500D01*
G01X81700Y138663D02*
X81622Y138741D01*
Y144078D01*
G01X79500Y191048D02*
Y194900D01*
G01D02*
Y198752D01*
G01Y194900D02*
X83352D01*
G01X89500Y191048D02*
Y194900D01*
G01D02*
Y198752D01*
G01X85648Y194900D02*
X89500D01*
G01D02*
X93352D01*
G01X100500Y141600D02*
Y139452D01*
X99668Y138620D01*
G01X94600Y143900D02*
Y138632D01*
G01X99500Y191048D02*
Y194900D01*
G01D02*
Y198752D01*
G01X95648Y194900D02*
X99500D01*
G01D02*
X103352D01*
G01X109500Y191048D02*
Y194900D01*
G01D02*
Y198752D01*
G01X105648Y194900D02*
X109500D01*
G01D02*
X113352D01*
G01X125648D02*
X129500D01*
G01X119500Y191048D02*
Y194900D01*
G01D02*
Y198752D01*
G01X115648Y194900D02*
X119500D01*
G01D02*
X123352D01*
G01X129500Y191048D02*
Y194900D01*
G01D02*
Y198752D01*
G01Y194900D02*
X133352D01*
G01X135648D02*
X139500D01*
G01Y191048D02*
Y194900D01*
G01D02*
Y198752D01*
G01Y194900D02*
X143352D01*
G01X149500Y191048D02*
Y194900D01*
G01D02*
Y198752D01*
G01X145648Y194900D02*
X149500D01*
G01D02*
X153352D01*
G01X179100Y42248D02*
Y46100D01*
G01D02*
Y49952D01*
G01Y46100D02*
X182952D01*
G54D11*
X11070Y83000D03*
X14761Y95761D03*
X14770Y97730D03*
X16085Y117415D03*
X15600Y137100D03*
X15631Y135131D03*
X11070Y149370D03*
X27667Y101667D03*
X27508Y105675D03*
X27665Y103635D03*
X27400Y107572D03*
X21000Y143000D03*
X21200Y155300D03*
X21500Y174500D03*
X25992Y165008D03*
X31000Y59500D03*
X29992Y90592D03*
X34000Y170800D03*
X42000Y111500D03*
X50150Y120703D03*
X43500Y157500D03*
X50823Y171263D03*
X62500Y28000D03*
X55000Y44500D03*
X64500Y82900D03*
X65700Y97445D03*
X62500Y93000D03*
X63300Y104500D03*
X60863Y104562D03*
X65100Y104800D03*
X65400Y110200D03*
X64953Y102753D03*
X62500Y119500D03*
X65900Y116141D03*
X59000Y121700D03*
X61800Y126700D03*
X63700Y127477D03*
X59050Y132294D03*
X58996Y130149D03*
X61400Y136100D03*
X57525Y138346D03*
X58000Y146600D03*
X57000Y148500D03*
X65500Y141355D03*
X61200Y140800D03*
X59213Y139995D03*
X56799Y140102D03*
X59500Y142000D03*
X59016Y155553D03*
X58500Y153828D03*
X61608Y161192D03*
X57546Y175143D03*
X58500Y164800D03*
X59600Y179900D03*
X55600Y180500D03*
X55950Y177650D03*
X76500Y49200D03*
X68250Y72250D03*
X67947Y84154D03*
X72700Y90584D03*
X68450Y91250D03*
X69645Y110045D03*
X74786Y112604D03*
X72227Y110045D03*
Y112604D03*
X69686Y107486D03*
X72227D03*
X77345D03*
Y104927D03*
X74786D03*
X66400Y105905D03*
X66100Y112900D03*
X72227Y122237D03*
Y117722D03*
Y115163D03*
X69604Y124796D03*
X69668Y122232D03*
X66718Y123818D03*
X74786Y124796D03*
X72227D03*
X74786Y122237D03*
Y117722D03*
Y115163D03*
X72227Y127355D03*
X77332Y135032D03*
X66806Y128822D03*
X66605Y131495D03*
X66500Y136000D03*
X74786Y127355D03*
Y129914D03*
X72227D03*
Y132473D03*
X74786D03*
X77345D03*
X72638Y142400D03*
X70806Y143106D03*
X73963Y143950D03*
X75900D03*
X77804Y143900D03*
X69100Y159564D03*
X69000Y162500D03*
X72908Y169008D03*
X72500Y175000D03*
X69800Y164800D03*
X85000Y13600D03*
X87092Y23992D03*
X80200Y18008D03*
X80500Y26000D03*
X79100Y34100D03*
X89000Y53000D03*
X78800Y42900D03*
X84192Y51392D03*
X87700Y60900D03*
X81500Y59100D03*
X78800Y57100D03*
X78417Y84400D03*
X88900Y84200D03*
X81850Y82500D03*
X86000Y86000D03*
X78323Y88300D03*
X85022Y102422D03*
X82463Y104927D03*
X85022D03*
X89538Y107349D03*
X89537Y104927D03*
X79904D03*
Y112604D03*
X79903Y107349D03*
X82463Y112604D03*
X82462Y107349D03*
X85022Y112604D03*
X85021Y107349D03*
X89537Y112604D03*
X79904Y124796D03*
Y122237D03*
X82463Y124796D03*
Y122237D03*
X85022Y124796D03*
Y122237D03*
X89537Y124796D03*
Y122237D03*
X79904Y117722D03*
Y115163D03*
X82463Y117722D03*
Y115163D03*
X85022Y117722D03*
Y115163D03*
X89537Y117722D03*
Y115163D03*
X79904Y132473D03*
X82463D03*
X85022D03*
X89700Y135673D03*
X89537Y132473D03*
X85022Y129914D03*
X89537D03*
X79904D03*
X82463D03*
X85800Y139200D03*
X81622Y144078D03*
X86100Y147300D03*
X80691Y145735D03*
X87600Y146300D03*
X84600Y145600D03*
X79626Y144115D03*
X82692Y169008D03*
X83992Y174992D03*
X80300Y163700D03*
X90500Y10050D03*
X102380Y25520D03*
X101900Y18508D03*
X101000Y34000D03*
X100500Y42700D03*
X98600Y48900D03*
X100500Y56900D03*
X96120Y62563D03*
X91992Y64792D03*
X94382Y68500D03*
X101300Y85300D03*
X93679Y86750D03*
X99047Y84854D03*
X91779Y86750D03*
X96800Y86000D03*
X98400Y97800D03*
X96502Y97906D03*
X93000Y99000D03*
X91121Y98709D03*
X94600Y98300D03*
X90500Y91500D03*
X99773Y112604D03*
Y104927D03*
X92096D03*
X99773Y110045D03*
X97215Y107349D03*
X97214Y104927D03*
X94655D03*
X94656Y107349D03*
X92097D03*
X97214Y112604D03*
X92096D03*
X99773Y117722D03*
Y115163D03*
Y124796D03*
Y122237D03*
X97214D03*
Y124796D03*
X92096D03*
Y122237D03*
Y117722D03*
Y115163D03*
X97214Y117722D03*
Y115163D03*
X92096Y129914D03*
Y132473D03*
X99773D03*
Y129914D03*
X94655D03*
Y132473D03*
X97214D03*
Y129914D03*
Y127355D03*
X98321Y139679D03*
X100500Y141600D03*
X94600Y143900D03*
X92700Y143300D03*
X99400Y155200D03*
X101500Y158700D03*
X92392Y169008D03*
X101400Y163700D03*
X92500Y175000D03*
X100492Y174992D03*
X91100Y163700D03*
X99592Y169008D03*
X112279Y12379D03*
X107300Y13600D03*
X108708Y24492D03*
X108292Y18508D03*
X111000Y36000D03*
X106500Y51292D03*
X103600Y64000D03*
X108108Y64392D03*
X114092Y64492D03*
X103000Y86200D03*
X111000Y86000D03*
X106000Y85900D03*
X111200Y101700D03*
X106100Y101000D03*
X108897Y114298D03*
X106200Y112573D03*
X107297Y106772D03*
X107032Y105295D03*
X106900Y103800D03*
X107800Y111900D03*
X112432Y107121D03*
X108592Y118498D03*
X105051Y117710D03*
X106937Y115740D03*
X108423Y117007D03*
X105500Y125100D03*
X105682Y122292D03*
X103082Y119932D03*
X106418Y123818D03*
X112700Y120400D03*
X112131Y116779D03*
X112594Y132418D03*
X112131Y130069D03*
X110679Y147200D03*
X109121Y148500D03*
X104600Y140679D03*
X109500Y156200D03*
X109000Y158500D03*
X102900Y155000D03*
X126600Y15779D03*
Y9500D03*
Y23300D03*
Y29600D03*
Y38100D03*
X118495Y42800D03*
X121200Y46900D03*
X117521Y55721D03*
X122192Y55092D03*
X122300Y59600D03*
X126000Y86200D03*
X116000Y85900D03*
X121000Y86100D03*
Y94300D03*
X126000Y94500D03*
X117400Y94079D03*
X120100Y98605D03*
X121800Y100050D03*
X126100Y100000D03*
X116500Y98605D03*
Y101705D03*
X118430Y110480D03*
X121100Y105500D03*
X118430Y107331D03*
Y113630D03*
Y116779D03*
X118499Y126549D03*
X115476Y126550D03*
X118430Y123770D03*
X115322Y123450D03*
X122500Y120400D03*
X115400Y132450D03*
X121795Y132895D03*
X121700Y129000D03*
X126000Y138200D03*
X119500Y133000D03*
X124600Y147600D03*
X122618Y148200D03*
X121000Y158300D03*
X115700Y160500D03*
X115600Y155000D03*
X119500Y166800D03*
X116000Y163700D03*
X131600Y16000D03*
Y9600D03*
X129733Y29133D03*
X134100Y24100D03*
X138300Y23900D03*
X135300Y36600D03*
X136000Y86500D03*
X131000Y86200D03*
Y94500D03*
X136000D03*
X132500Y102250D03*
X134453Y107305D03*
X128570Y107331D03*
Y113630D03*
X131500Y107600D03*
X134521Y110387D03*
X134579Y113478D03*
X131720Y113630D03*
X127900Y109662D03*
X127120Y118700D03*
X134869Y116779D03*
X131720D03*
Y123770D03*
Y120621D03*
X137900Y120400D03*
X128570Y116779D03*
X134869Y130069D03*
X127308Y131250D03*
X131720Y126920D03*
X132503Y137600D03*
X127100Y133000D03*
X134869Y126920D03*
X127300Y127750D03*
X136100Y133750D03*
X136000Y147800D03*
X136100Y141500D03*
X132413Y139498D03*
X129500Y150000D03*
X131000Y148500D03*
X131700Y146500D03*
X143608Y9908D03*
X149592Y10008D03*
X140600Y18600D03*
X141563Y24163D03*
X140400Y36600D03*
X147584Y35084D03*
X140400Y46900D03*
X149553Y62100D03*
X145616Y60400D03*
X143647Y58200D03*
X149500Y84300D03*
X145692Y93192D03*
X149226Y111326D03*
X145100Y110200D03*
X149124Y108176D03*
X148900Y123000D03*
X139900Y118700D03*
X148900Y127000D03*
X145200Y130200D03*
X140000Y135000D03*
X142500Y138700D03*
X148650Y129250D03*
X140725Y142924D03*
X140900Y144800D03*
X155500Y14000D03*
X160600Y23100D03*
X153496Y19004D03*
X151437Y24163D03*
X157700Y29800D03*
X153500Y33800D03*
X161539Y29603D03*
X158100Y58200D03*
X154500Y84300D03*
X159500Y84500D03*
Y95800D03*
X154500Y95900D03*
X158400Y105300D03*
X158900Y109651D03*
X152901Y119400D03*
X162101Y128600D03*
X155900Y131600D03*
X162500Y146500D03*
X157500D03*
Y148579D03*
X162500D03*
X165075Y29405D03*
X168275Y29468D03*
X166854Y46433D03*
X173700Y45900D03*
X163500Y46095D03*
X165075Y46075D03*
X170600Y46300D03*
X171792Y55792D03*
X170650Y90150D03*
X173600Y114700D03*
X168150Y125200D03*
X174286Y118914D03*
X174100Y117100D03*
X165300Y116049D03*
X166874Y133600D03*
X167500Y146400D03*
X173600Y149400D03*
X174300Y151200D03*
X167500Y148579D03*
X175347Y152665D03*
X180300Y156400D03*
X176200Y154300D03*
G54D12*
X21700Y95761D03*
Y97730D03*
Y99698D03*
Y101667D03*
Y103635D03*
Y105604D03*
Y107572D03*
Y109541D03*
Y111509D03*
Y113478D03*
Y115446D03*
Y117415D03*
Y119383D03*
Y121352D03*
Y123320D03*
Y125289D03*
Y127257D03*
Y129226D03*
Y131194D03*
Y133163D03*
Y135131D03*
Y137100D03*
G54D13*
X38500Y5000D03*
Y15000D03*
Y25000D03*
Y35000D03*
Y55000D03*
Y45000D03*
Y65000D03*
Y75000D03*
Y85000D03*
Y105000D03*
Y95000D03*
Y115000D03*
Y125000D03*
Y135000D03*
Y145000D03*
Y165000D03*
Y155000D03*
Y175000D03*
Y185000D03*
Y195000D03*
X48500Y15000D03*
Y25000D03*
Y35000D03*
Y55000D03*
Y45000D03*
Y65000D03*
Y75000D03*
Y85000D03*
Y105000D03*
Y95000D03*
Y115000D03*
Y125000D03*
Y135000D03*
Y145000D03*
Y165000D03*
Y155000D03*
Y175000D03*
Y185000D03*
Y195000D03*
X59500Y194900D03*
X79500Y184900D03*
X69500D03*
X79500Y194900D03*
X69500D03*
X89500Y184900D03*
Y194900D03*
X99500Y184900D03*
Y194900D03*
X109500Y184900D03*
Y194900D03*
X119500Y184900D03*
Y194900D03*
X139500Y184900D03*
X129500D03*
X139500Y194900D03*
X129500D03*
X150300Y163200D03*
Y173200D03*
X149500Y184900D03*
Y194900D03*
X160300Y163200D03*
Y173200D03*
X179100Y26100D03*
Y36100D03*
Y46100D03*
X190300Y163200D03*
X180300D03*
X190300Y173200D03*
X180300D03*
G54D14*
X48500Y5000D03*
X59500Y184900D03*
X140300Y163200D03*
Y173200D03*
X170300Y163200D03*
Y173200D03*
X179100Y16100D03*
G54D15*
X75764Y100787D03*
X73205D03*
X70646D03*
X68087D03*
X75764Y103346D03*
Y105905D03*
Y108464D03*
Y111023D03*
Y113582D03*
X73205Y103346D03*
Y105905D03*
Y108464D03*
Y111023D03*
Y113582D03*
X70646Y103346D03*
Y105905D03*
Y108464D03*
Y111023D03*
Y113582D03*
X68087Y103346D03*
Y105905D03*
Y108464D03*
Y111023D03*
Y113582D03*
X75764Y116141D03*
Y118700D03*
Y121259D03*
Y123818D03*
Y126377D03*
X73205Y116141D03*
Y118700D03*
Y121259D03*
Y123818D03*
Y126377D03*
X70646Y116141D03*
Y118700D03*
Y121259D03*
Y123818D03*
Y126377D03*
X68087Y116141D03*
Y118700D03*
Y121259D03*
Y123818D03*
Y126377D03*
X75764Y128936D03*
Y131495D03*
Y134054D03*
Y136613D03*
X73205Y128936D03*
Y131495D03*
Y134054D03*
Y136613D03*
X70646Y128936D03*
Y131495D03*
Y134054D03*
Y136613D03*
X68087Y128936D03*
Y131495D03*
Y134054D03*
Y136613D03*
X88559Y100787D03*
X86000D03*
X83441D03*
X80882D03*
X78323D03*
X88559Y103346D03*
Y105905D03*
Y108464D03*
Y113582D03*
X86000Y103346D03*
Y105905D03*
Y108464D03*
Y113582D03*
X83441Y103346D03*
Y105905D03*
Y108464D03*
Y113582D03*
X80882Y103346D03*
Y105905D03*
Y108464D03*
Y113582D03*
X78323Y103346D03*
Y105905D03*
Y108464D03*
X88559Y116141D03*
Y118700D03*
Y121259D03*
Y123818D03*
X86000Y116141D03*
Y118700D03*
Y121259D03*
Y123818D03*
X83441Y116141D03*
Y118700D03*
Y121259D03*
Y123818D03*
X80882Y116141D03*
Y118700D03*
Y121259D03*
Y123818D03*
X88559Y128936D03*
Y131495D03*
Y134054D03*
Y136613D03*
X86000Y128936D03*
Y131495D03*
Y134054D03*
Y136613D03*
X83441Y128936D03*
Y131495D03*
Y134054D03*
Y136613D03*
X80882Y128936D03*
Y131495D03*
Y134054D03*
Y136613D03*
X78323Y128936D03*
Y131495D03*
Y134054D03*
Y136613D03*
X101354Y100787D03*
X98795D03*
X96236D03*
X93677D03*
X91118D03*
X101354Y103346D03*
Y105905D03*
Y108464D03*
Y111023D03*
Y113582D03*
X98795Y103346D03*
Y105905D03*
Y108464D03*
Y111023D03*
Y113582D03*
X96236Y103346D03*
Y105905D03*
Y108464D03*
Y111023D03*
Y113582D03*
X93677Y103346D03*
Y105905D03*
Y108464D03*
X91118Y103346D03*
Y105905D03*
Y108464D03*
Y113582D03*
X101354Y116141D03*
Y118700D03*
Y121259D03*
Y123818D03*
Y126377D03*
X98795Y116141D03*
Y118700D03*
Y121259D03*
Y123818D03*
Y126377D03*
X96236Y116141D03*
Y118700D03*
Y121259D03*
Y123818D03*
Y126377D03*
X91118Y116141D03*
Y118700D03*
Y121259D03*
Y123818D03*
X101354Y128936D03*
Y131495D03*
Y134054D03*
Y136613D03*
X98795Y128936D03*
Y131495D03*
Y134054D03*
Y136613D03*
X96236Y128936D03*
Y131495D03*
Y134054D03*
Y136613D03*
X93677Y128936D03*
Y131495D03*
Y134054D03*
Y136613D03*
X91118Y128936D03*
Y131495D03*
Y134054D03*
Y136613D03*
X103913Y100787D03*
Y103346D03*
Y105905D03*
Y108464D03*
Y111023D03*
Y113582D03*
Y116141D03*
Y118700D03*
Y121259D03*
Y123818D03*
Y126377D03*
Y128936D03*
Y131495D03*
Y134054D03*
Y136613D03*
G54D16*
X114051Y112401D03*
X110902D03*
X114051Y109251D03*
X110902D03*
X114051Y106102D03*
X110902D03*
X114051Y124999D03*
X110902D03*
X114051Y121850D03*
X110902D03*
X114051Y118700D03*
X110902D03*
X114051Y115550D03*
X110902D03*
X114051Y131298D03*
X110902D03*
X114051Y128149D03*
X110902D03*
X117201Y112401D03*
Y109251D03*
Y106102D03*
Y124999D03*
Y121850D03*
Y118700D03*
Y115550D03*
Y131298D03*
Y128149D03*
X136098Y112401D03*
X132949D03*
X129799D03*
X136098Y109251D03*
X132949D03*
X129799D03*
X136098Y106102D03*
X132949D03*
X129799D03*
X136098Y124999D03*
X132949D03*
X129799D03*
X136098Y121850D03*
X132949D03*
X129799D03*
X136098Y118700D03*
X132949D03*
X129799D03*
X136098Y115550D03*
X132949D03*
X129799D03*
X136098Y131298D03*
X132949D03*
X129799D03*
X136098Y128149D03*
X132949D03*
X129799D03*
X147976Y101877D03*
X144827D03*
X151126Y114476D03*
Y111326D03*
Y108176D03*
X144827Y105027D03*
X151126Y127074D03*
Y123924D03*
Y120775D03*
Y117625D03*
X147976Y136523D03*
X144827D03*
X147976Y133373D03*
X144827D03*
X151126Y130224D03*
X160575Y114476D03*
X157425D03*
X154276D03*
X160575Y111326D03*
X157425D03*
X154276D03*
X160575Y108176D03*
X157425D03*
X154276D03*
X160575Y127074D03*
X157425D03*
X154276D03*
X160575Y123924D03*
X157425D03*
X154276D03*
X160575Y120775D03*
X157425D03*
X154276D03*
X160575Y117625D03*
X157425D03*
X154276D03*
X160575Y130224D03*
X157425D03*
X154276D03*
X173173Y101877D03*
X170024D03*
X166874Y114476D03*
X163724D03*
X166874Y111326D03*
X163724D03*
X166874Y108176D03*
X163724D03*
X173173Y105027D03*
X170024D03*
X166874Y127074D03*
X163724D03*
X166874Y123924D03*
X163724D03*
X166874Y120775D03*
X163724D03*
X166874Y117625D03*
X163724D03*
X173173Y136523D03*
X170024D03*
X173173Y133373D03*
X170024D03*
X166874Y130224D03*
X163724D03*
G54D17*
G01X11070Y89069D02*
Y83000D01*
G01X21700Y95761D02*
X14761D01*
G01X21700Y97730D02*
X14770D01*
G01X21700Y117415D02*
X16085D01*
G01X21700Y137100D02*
X15600D01*
G01X21700Y135131D02*
X15631D01*
G01X11070Y143793D02*
Y149370D01*
G01X68250Y72250D02*
X55500Y59500D01*
X31000D01*
G01X78800Y42900D02*
Y57100D01*
G01X100500Y42700D02*
Y56900D01*
G01X131600Y16000D02*
Y27266D01*
X129733Y29133D01*
G54D18*
G01X111000Y36000D02*
X105000Y30000D01*
X98000D01*
X90500Y22500D01*
Y10050D01*
G01X157700Y29800D02*
Y16200D01*
X155500Y14000D01*
G54D19*
G01X21700Y129226D02*
X15775D01*
X13500Y131501D01*
Y137499D01*
X15001Y139000D01*
X17000D01*
X21000Y143000D01*
G01X21700Y99698D02*
X26400D01*
X26402Y99700D01*
X27700D01*
X29992Y97408D01*
Y90592D01*
G01X21700Y101667D02*
X27667D01*
G01X48500Y115000D02*
X43450Y109950D01*
X36150D01*
X32622Y113478D01*
X21700D01*
G01X38500Y105000D02*
X31991Y111509D01*
X21700D01*
G01X27508Y105675D02*
X27375D01*
X27304Y105604D01*
X21700D01*
G01Y103635D02*
X27665D01*
G01X21700Y107572D02*
X27400D01*
G01X48500Y105000D02*
X44350Y100850D01*
X36781D01*
X34350Y103281D01*
Y103350D01*
X28159Y109541D01*
X21700D01*
G01X48500Y125000D02*
X45600Y122100D01*
X42800D01*
X40083Y119383D01*
X21700D01*
G01Y121352D02*
X34852D01*
X38500Y125000D01*
G01X21700Y123320D02*
X30520D01*
X36500Y129300D01*
X39300D01*
X41600Y131600D01*
X45100D01*
X48500Y135000D01*
G01X21700Y125289D02*
X28789D01*
X38500Y135000D01*
G01X21700Y115446D02*
X34204D01*
X34650Y115000D01*
X38500D01*
G01X58000Y146600D02*
X55827D01*
X50027Y140800D01*
X38431D01*
X34200Y136569D01*
Y134857D01*
X26600Y127257D01*
X21700D01*
G01Y129226D02*
X26782D01*
X30900Y133344D01*
Y143269D01*
X37015Y149384D01*
X56116D01*
X57000Y148500D01*
G01X21700Y133163D02*
X26663D01*
X28000Y134500D01*
Y153056D01*
X35644Y160700D01*
X53869D01*
X59016Y155553D01*
G01X58500Y153828D02*
X53178Y159150D01*
X36781D01*
X29500Y151869D01*
Y133500D01*
X27194Y131194D01*
X21700D01*
G01X25992Y165008D02*
X34642D01*
X34650Y165000D01*
X38500D01*
G01Y25000D02*
X43500Y30000D01*
X50101D01*
X53700Y33599D01*
Y36799D01*
X101300Y84399D01*
Y85300D01*
G01X99047Y84854D02*
X55043Y40850D01*
X44350D01*
X38500Y35000D01*
G01X88559Y100787D02*
Y86149D01*
X52410Y50000D01*
X43500D01*
X38500Y45000D01*
G01X72700Y90584D02*
Y86500D01*
X56700Y70500D01*
X44000D01*
X38500Y65000D01*
G01X64500Y82900D02*
X62100Y80500D01*
X44000D01*
X38500Y75000D01*
G01Y85000D02*
X43500Y90000D01*
X65007D01*
X74600Y99593D01*
Y102182D01*
X74786Y102368D01*
G01X38500Y125000D02*
X42800Y129300D01*
X50000D01*
X54650Y133950D01*
X59650D01*
X60600Y133000D01*
Y131651D01*
X59098Y130149D01*
X58996D01*
G01X69668Y115163D02*
X69405Y114900D01*
X66852D01*
X66543Y114591D01*
X56909D01*
X52350Y119150D01*
X42650D01*
X38500Y115000D01*
G01Y135000D02*
X42950Y139450D01*
X50375D01*
X55825Y144900D01*
X65400D01*
X72005Y138295D01*
Y135254D01*
X72227Y135032D01*
G01X70806Y143106D02*
X63062Y150850D01*
X42650D01*
X38500Y155000D01*
G01X34000Y170800D02*
X44300D01*
X48500Y175000D01*
G01X103000Y86200D02*
Y84401D01*
X55500Y36901D01*
Y32000D01*
X48500Y25000D01*
G01X91779Y86750D02*
Y84429D01*
X52350Y45000D01*
X48500D01*
G01X67947Y84154D02*
X58793Y75000D01*
X48500D01*
G01X77345Y102368D02*
X77123Y102146D01*
Y97730D01*
X64393Y85000D01*
X48500D01*
G01Y95000D02*
X66404D01*
X72113Y100709D01*
Y102254D01*
X72227Y102368D01*
G01X69668Y112604D02*
X69364Y112300D01*
X67127D01*
X66577Y111750D01*
X51750D01*
X48500Y115000D01*
G01X69668Y117722D02*
X69554Y117608D01*
X66626D01*
X66334Y117900D01*
X57403D01*
X54600Y120703D01*
X50150D01*
G01X48500Y125000D02*
X55794Y132294D01*
X59050D01*
G01X65500Y141355D02*
X64616Y142239D01*
X64597D01*
X63286Y143550D01*
X57050D01*
X48500Y135000D01*
G01X73963Y143950D02*
X65636Y152277D01*
X51223D01*
X48500Y155000D01*
G01X93677Y136613D02*
X90250Y140040D01*
Y147399D01*
X71149Y166500D01*
X58002D01*
X56502Y165000D01*
X48500D01*
G01X92700Y143300D02*
Y146647D01*
X71647Y167700D01*
X62938D01*
X52800Y177838D01*
Y190700D01*
X48500Y195000D01*
G01X62500Y28000D02*
X65000Y25500D01*
X80000D01*
X80500Y26000D01*
G01X55000Y44500D02*
Y44700D01*
X93679Y83379D01*
Y86750D01*
G01X68087Y100787D02*
X64638D01*
X60863Y104562D01*
G01X73205Y100787D02*
Y99904D01*
X71591Y98290D01*
Y98282D01*
X67109Y93800D01*
X67101D01*
X66301Y93000D01*
X62500D01*
G01X68087Y103346D02*
X66554D01*
X65100Y104800D01*
G01X59000Y121700D02*
Y127600D01*
X61800Y130400D01*
Y134298D01*
X61400Y134698D01*
Y136100D01*
G01X68087Y126377D02*
X64651D01*
X64090Y125816D01*
X62684D01*
X61800Y126700D01*
G01X63700Y127477D02*
X69546D01*
X69668Y127355D01*
G01Y135032D02*
X69500Y135200D01*
Y136901D01*
X68301Y138100D01*
X64019D01*
X63269Y138850D01*
X60259D01*
X59755Y138346D01*
X57525D01*
G01X69668Y132473D02*
X69441Y132700D01*
X66993D01*
X62043Y137650D01*
X60757D01*
X59903Y136796D01*
X56882D01*
X55915Y137763D01*
Y139218D01*
X56799Y140102D01*
G01X70646Y136613D02*
Y137855D01*
X68801Y139700D01*
X64493D01*
X61843Y142350D01*
X59850D01*
X59500Y142000D01*
G01X69800Y164800D02*
X58500D01*
G01X75764Y100787D02*
Y98564D01*
X68450Y91250D01*
G01X69668Y110045D02*
X69645D01*
G01X69668D02*
X70646Y111023D01*
G01X74786Y112604D02*
X75764Y113582D01*
G01X72227Y110045D02*
X73205Y111023D01*
G01X72227Y112604D02*
X73205Y113582D01*
G01X69668Y107486D02*
X69686D01*
G01X69668D02*
X70646Y108464D01*
G01X72227Y107486D02*
X73205Y108464D01*
G01X77345Y107486D02*
X78323Y108464D01*
G01X77345Y104927D02*
X78323Y105905D01*
G01X74786Y104927D02*
X75764Y105905D01*
G01X68087D02*
X66400D01*
G01X68087Y113582D02*
X66782D01*
X66100Y112900D01*
G01X69668Y112604D02*
X70646Y113582D01*
G01X77345Y102368D02*
X78323Y103346D01*
G01X74786Y102368D02*
X75764Y103346D01*
G01X72227Y102368D02*
X73205Y103346D01*
G01X72227Y127355D02*
X73205Y126377D01*
G01Y121259D02*
X72227Y122237D01*
G01Y117722D02*
X73205Y118700D01*
G01X72227Y115163D02*
X73205Y116141D01*
G01X69668Y124796D02*
X69604D01*
G01X70646Y123818D02*
X69668Y124796D01*
G01X70646Y123754D02*
Y123818D01*
G01X69668Y122237D02*
Y122232D01*
G01X70646Y121259D02*
X69668Y122237D01*
G01X68087Y123818D02*
X66718D01*
G01X68087Y116141D02*
X65900D01*
G01X69668Y127355D02*
X70646Y126377D01*
G01X74786Y124796D02*
X75764Y123818D01*
G01X72227Y124796D02*
X73205Y123818D01*
G01X74786Y127355D02*
X75764Y126377D01*
G01X74786Y122237D02*
X75764Y121259D01*
G01X74786Y117722D02*
X75764Y118700D01*
G01X74786Y115163D02*
X75764Y116141D01*
G01Y126377D02*
Y127571D01*
G01X74570Y126377D02*
X75764D01*
G01D02*
X76958D01*
G01X75764Y120065D02*
Y121259D01*
G01D02*
Y122453D01*
G01X74570Y121259D02*
X75764D01*
G01D02*
X76958D01*
G01X75764Y117506D02*
Y118700D01*
G01D02*
Y119894D01*
G01X74570Y118700D02*
X75764D01*
G01D02*
X76958D01*
G01X75764Y114947D02*
Y116141D01*
G01D02*
Y117335D01*
G01X74570Y116141D02*
X75764D01*
G01D02*
X76958D01*
G01X69668Y117722D02*
X70646Y118700D01*
G01X69668Y115163D02*
X70646Y116141D01*
G01X77345Y135032D02*
X77332D01*
G01X77345D02*
X78323Y134054D01*
G01X68087Y128936D02*
X66920D01*
X66806Y128822D01*
G01X68087Y131495D02*
X66605D01*
G01X68087Y134054D02*
X66500Y135641D01*
Y136000D01*
G01X73205Y136613D02*
Y140583D01*
X72638Y141150D01*
Y142400D01*
G01X74786Y129914D02*
X75764Y128936D01*
G01X72227Y129914D02*
X73205Y128936D01*
G01X72227Y132473D02*
X73205Y131495D01*
G01X72227Y135032D02*
X73205Y134054D01*
G01X74786Y132473D02*
X75764Y131495D01*
G01X77345Y132473D02*
X78323Y131495D01*
G01X69668Y135032D02*
X70646Y134054D01*
G01X69668Y132473D02*
X70646Y131495D01*
G01X78323Y136613D02*
Y141309D01*
X77804Y141828D01*
Y143900D01*
G01X88559Y136613D02*
X89050Y137104D01*
Y146901D01*
X71151Y164800D01*
X69800D01*
G01X86100Y147300D02*
X84200D01*
X69000Y162500D01*
G01X69500Y184900D02*
X72500Y181900D01*
Y175000D01*
G01X80882Y100787D02*
X81850Y99819D01*
Y82500D01*
G01X86000Y86000D02*
Y100787D01*
G01X78323D02*
Y88300D01*
G01X90500Y91500D02*
Y92750D01*
X89800Y93450D01*
Y102105D01*
X89537Y102368D01*
G01X82463Y104927D02*
X83441Y105905D01*
G01X86000D02*
X85022Y104927D01*
G01X88559Y108464D02*
X89537Y107486D01*
Y107350D01*
X89538Y107349D01*
G01X89537Y104927D02*
X88559Y105905D01*
G01X85022Y102368D02*
Y102422D01*
G01X86000Y103346D02*
X85022Y102368D01*
G01X79904Y104927D02*
X80882Y105905D01*
G01X79904Y112604D02*
X80882Y113582D01*
G01X82463Y112604D02*
X83441Y113582D01*
G01X85022Y112604D02*
X86000Y113582D01*
G01X89537Y112604D02*
X88559Y113582D01*
G01X86000Y108464D02*
X85021Y107485D01*
G01X83441Y108464D02*
X82462Y107485D01*
G01X80882Y108464D02*
X79903Y107485D01*
G01X85021D02*
Y107349D01*
G01X82462Y107485D02*
Y107349D01*
G01X79903Y107485D02*
Y107349D01*
G01X89924Y113582D02*
X91118D01*
G01X80882Y112388D02*
Y113582D01*
G01D02*
Y114776D01*
G01X79688Y113582D02*
X80882D01*
G01D02*
X82076D01*
G01X80882Y107270D02*
Y108464D01*
G01D02*
Y109658D01*
G01X79688Y108464D02*
X80882D01*
G01D02*
X82076D01*
G01X83441Y112388D02*
Y113582D01*
G01D02*
Y114776D01*
G01X82247Y113582D02*
X83441D01*
G01D02*
X84635D01*
G01X83441Y107270D02*
Y108464D01*
G01D02*
Y109658D01*
G01X82247Y108464D02*
X83441D01*
G01D02*
X84635D01*
G01X86000Y112388D02*
Y113582D01*
G01D02*
Y114776D01*
G01X84806Y113582D02*
X86000D01*
G01D02*
X87194D01*
G01X86000Y107270D02*
Y108464D01*
G01D02*
Y109658D01*
G01X84806Y108464D02*
X86000D01*
G01D02*
X87194D01*
G01X88559Y112388D02*
Y113582D01*
G01D02*
Y114776D01*
G01X87365Y113582D02*
X88559D01*
G01D02*
X89753D01*
G01X89537Y102368D02*
X88559Y103346D01*
G01X79904Y124796D02*
X80882Y123818D01*
G01X79904Y122237D02*
X80882Y121259D01*
G01X82463Y124796D02*
X83441Y123818D01*
G01X82463Y122237D02*
X83441Y121259D01*
G01X85022Y124796D02*
X86000Y123818D01*
G01X85022Y122237D02*
X86000Y121259D01*
G01X89537Y124796D02*
X88559Y123818D01*
G01X89537Y122237D02*
X88559Y121259D01*
G01X79904Y117722D02*
X80882Y118700D01*
G01X79904Y115163D02*
X80882Y116141D01*
G01X82463Y117722D02*
X83441Y118700D01*
G01X82463Y115163D02*
X83441Y116141D01*
G01X85022Y117722D02*
X86000Y118700D01*
G01X85022Y115163D02*
X86000Y116141D01*
G01X89537Y117722D02*
X88559Y118700D01*
G01X89537Y115163D02*
X88559Y116141D01*
G01X89924Y123818D02*
X91118D01*
G01X89924Y121259D02*
X91118D01*
G01X89924Y118700D02*
X91118D01*
G01X89924Y116141D02*
X91118D01*
G01X80882Y122624D02*
Y123818D01*
G01D02*
Y125012D01*
G01X79688Y123818D02*
X80882D01*
G01D02*
X82076D01*
G01X80882Y120065D02*
Y121259D01*
G01D02*
Y122453D01*
G01X79688Y121259D02*
X80882D01*
G01D02*
X82076D01*
G01X83441Y122624D02*
Y123818D01*
G01D02*
Y125012D01*
G01X82247Y123818D02*
X83441D01*
G01D02*
X84635D01*
G01X83441Y120065D02*
Y121259D01*
G01D02*
Y122453D01*
G01X82247Y121259D02*
X83441D01*
G01D02*
X84635D01*
G01X86000Y122624D02*
Y123818D01*
G01D02*
Y125012D01*
G01X84806Y123818D02*
X86000D01*
G01D02*
X87194D01*
G01X86000Y120065D02*
Y121259D01*
G01D02*
Y122453D01*
G01X84806Y121259D02*
X86000D01*
G01D02*
X87194D01*
G01X88559Y122624D02*
Y123818D01*
G01D02*
Y125012D01*
G01X87365Y123818D02*
X88559D01*
G01D02*
X89753D01*
G01X88559Y120065D02*
Y121259D01*
G01D02*
Y122453D01*
G01X87365Y121259D02*
X88559D01*
G01D02*
X89753D01*
G01X80882Y117506D02*
Y118700D01*
G01D02*
Y119894D01*
G01X79688Y118700D02*
X80882D01*
G01D02*
X82076D01*
G01X80882Y114947D02*
Y116141D01*
G01D02*
Y117335D01*
G01X79688Y116141D02*
X80882D01*
G01D02*
X82076D01*
G01X83441Y117506D02*
Y118700D01*
G01D02*
Y119894D01*
G01X82247Y118700D02*
X83441D01*
G01D02*
X84635D01*
G01X83441Y114947D02*
Y116141D01*
G01D02*
Y117335D01*
G01X82247Y116141D02*
X83441D01*
G01D02*
X84635D01*
G01X86000Y117506D02*
Y118700D01*
G01D02*
Y119894D01*
G01X84806Y118700D02*
X86000D01*
G01D02*
X87194D01*
G01X86000Y114947D02*
Y116141D01*
G01D02*
Y117335D01*
G01X84806Y116141D02*
X86000D01*
G01D02*
X87194D01*
G01X88559Y117506D02*
Y118700D01*
G01D02*
Y119894D01*
G01X87365Y118700D02*
X88559D01*
G01D02*
X89753D01*
G01X88559Y114947D02*
Y116141D01*
G01D02*
Y117335D01*
G01X87365Y116141D02*
X88559D01*
G01D02*
X89753D01*
G01X80882Y131495D02*
X79904Y132473D01*
G01X82463D02*
X83441Y131495D01*
G01X85022Y132473D02*
X86000Y131495D01*
G01X85022Y135032D02*
X86000Y134054D01*
G01X85800Y139200D02*
X84908Y138308D01*
Y135146D01*
X85022Y135032D01*
G01X89537D02*
Y135510D01*
X89700Y135673D01*
G01X89537Y135032D02*
X88559Y134054D01*
G01X89537Y132473D02*
X88559Y131495D01*
G01X82463Y135032D02*
X82349Y135146D01*
Y138014D01*
X81700Y138663D01*
G01X82463Y135032D02*
X83441Y134054D01*
G01D02*
X80882D01*
G01D02*
Y135248D01*
G01X79688Y134054D02*
X80882D01*
G01X85022Y129914D02*
X86000Y128936D01*
G01X89537Y129914D02*
X88559Y128936D01*
G01X79904Y129914D02*
X80882Y128936D01*
G01X82463Y129914D02*
X83441Y128936D01*
G01X86000Y136613D02*
X87600Y138213D01*
Y146300D01*
G01X83441Y136613D02*
Y144441D01*
X84600Y145600D01*
G01X80882Y136613D02*
X79626Y137869D01*
Y144115D01*
G01X83992Y174992D02*
Y180408D01*
X79500Y184900D01*
G01X89500D02*
X92500Y181900D01*
Y175000D01*
G01X121200Y46900D02*
X115982D01*
X94382Y68500D01*
G01X111200Y101700D02*
X108100Y98600D01*
X101996D01*
X100100Y100496D01*
Y102041D01*
X99773Y102368D01*
G01X97214D02*
X97500Y102082D01*
Y99950D01*
X98400Y99050D01*
Y97800D01*
G01X96502Y97906D02*
Y98591D01*
X95042Y100051D01*
Y101981D01*
X94655Y102368D01*
G01X93677Y100787D02*
Y99677D01*
X93000Y99000D01*
G01X92096Y102368D02*
X92210Y102254D01*
Y99837D01*
X92005Y99632D01*
Y99593D01*
X91121Y98709D01*
G01X98795Y100787D02*
Y99805D01*
X101300Y97300D01*
X108993D01*
X114051Y102358D01*
Y106102D01*
G01X101354Y100787D02*
X102446Y99695D01*
X106422D01*
X109514Y102787D01*
Y106677D01*
X110327Y107490D01*
X111158D01*
X112919Y109251D01*
X114051D01*
G01X98795Y113582D02*
X99773Y112604D01*
G01Y102368D02*
X98795Y103346D01*
G01X99773Y104927D02*
X98795Y105905D01*
G01X97214Y102368D02*
X96236Y103346D01*
G01X94655Y102368D02*
X93677Y103346D01*
G01X92096Y102368D02*
X91118Y103346D01*
G01X92096Y104927D02*
X91118Y105905D01*
G01X102332Y112604D02*
X101354Y113582D01*
G01X99773Y110045D02*
X98795Y111023D01*
G01X102332Y110045D02*
X101354Y111023D01*
G01X102332Y102368D02*
X101354Y103346D01*
G01X96236Y108464D02*
X97215Y107485D01*
Y107349D01*
G01X97214Y104927D02*
X96236Y105905D01*
G01X94655Y104927D02*
X93677Y105905D01*
G01Y108464D02*
X94656Y107485D01*
Y107349D01*
G01X91118Y108464D02*
X92097Y107485D01*
Y107349D01*
G01X102332Y107486D02*
X101354Y108464D01*
G01X102332Y104927D02*
X101354Y105905D01*
G01X97214Y112604D02*
X96236Y113582D01*
G01X92096Y112604D02*
X91118Y113582D01*
G01Y112388D02*
Y113582D01*
G01D02*
Y114776D01*
G01Y113582D02*
X92312D01*
G01X98795Y118700D02*
X99773Y117722D01*
G01Y115163D02*
X98795Y116141D01*
G01X102332Y117722D02*
X101354Y118700D01*
G01X102332Y115163D02*
X101354Y116141D01*
G01X102332Y124796D02*
X101354Y123818D01*
G01X99773Y124796D02*
X98795Y123818D01*
G01X102332Y122237D02*
X101354Y121259D01*
G01X99773Y122237D02*
X98795Y121259D01*
G01X97214Y122237D02*
X96236Y121259D01*
G01X97214Y124796D02*
X96236Y123818D01*
G01X92096Y124796D02*
X91118Y123818D01*
G01X92096Y122237D02*
X91118Y121259D01*
G01X92096Y117722D02*
X91118Y118700D01*
G01X92096Y115163D02*
X91118Y116141D01*
G01X97214Y117722D02*
X96236Y118700D01*
G01X97214Y115163D02*
X96236Y116141D01*
G01X91118Y122624D02*
Y123818D01*
G01D02*
Y125012D01*
G01Y123818D02*
X92312D01*
G01X91118Y120065D02*
Y121259D01*
G01D02*
Y122453D01*
G01Y121259D02*
X92312D01*
G01X91118Y117506D02*
Y118700D01*
G01D02*
Y119894D01*
G01Y118700D02*
X92312D01*
G01X91118Y114947D02*
Y116141D01*
G01D02*
Y117335D01*
G01Y116141D02*
X92312D01*
G01X96236Y117506D02*
Y118700D01*
G01D02*
Y119894D01*
G01X95042Y118700D02*
X96236D01*
G01D02*
X97430D01*
G01X96236Y114947D02*
Y116141D01*
G01D02*
Y117335D01*
G01X95042Y116141D02*
X96236D01*
G01D02*
X97430D01*
G01X97214Y127355D02*
X96236Y126377D01*
G01X92096Y129914D02*
X91118Y128936D01*
G01X92096Y132473D02*
X91118Y131495D01*
G01X98321Y139679D02*
X97400Y138758D01*
Y135218D01*
X97214Y135032D01*
G01X96236Y134054D02*
X97214Y135032D01*
G01X102332Y132473D02*
X101354Y131495D01*
G01X99773Y135032D02*
X100000Y135259D01*
Y137100D01*
X102585Y139685D01*
Y140715D01*
X105870Y144000D01*
X110600D01*
X120900Y154300D01*
X176200D01*
G01X99773Y135032D02*
X98795Y134054D01*
G01X99773Y132473D02*
X98795Y131495D01*
G01X102332Y135032D02*
X101354Y134054D01*
G01X99773Y129914D02*
X98795Y128936D01*
G01X102332Y129914D02*
X101354Y128936D01*
G01X94655Y129914D02*
X93677Y128936D01*
G01X101354Y136613D02*
X103913D01*
G01X99668Y138620D02*
X98795Y137747D01*
G01X94600Y138632D02*
Y138249D01*
G01X98795Y137747D02*
Y136613D01*
G01X94600Y138249D02*
X96236Y136613D01*
G01D02*
Y137807D01*
G01X95042Y136613D02*
X96236D01*
G01X94655Y132473D02*
X93677Y131495D01*
G01X97214Y132473D02*
X96236Y131495D01*
G01X97214Y129914D02*
X96236Y128936D01*
G01X100492Y174992D02*
X99500Y175984D01*
Y184900D01*
G01X102332Y102368D02*
X102446Y102254D01*
X107154D01*
X108714Y103814D01*
Y107063D01*
X110902Y109251D01*
G01X103913Y100787D02*
X105887D01*
X106100Y101000D01*
G01X102332Y112604D02*
X102446Y112490D01*
X104867D01*
X104950Y112573D01*
X106200D01*
G01X110902Y118700D02*
X109573Y117371D01*
Y116530D01*
X108897Y115854D01*
Y114298D01*
G01X103913Y113582D02*
X105616D01*
X105757Y113723D01*
X107843D01*
X108418Y113148D01*
X109375D01*
X110016Y113789D01*
X112290D01*
X114051Y115550D01*
G01X102332Y110045D02*
X102446Y109931D01*
X109619D01*
X110701Y111013D01*
X112663D01*
X114051Y112401D01*
G01X110902D02*
X109251Y110750D01*
X105378D01*
X105105Y111023D01*
X103913D01*
G01X102332Y107486D02*
X102618Y107200D01*
X105619D01*
X106047Y106772D01*
X107297D01*
G01X102332Y104927D02*
X102446Y104813D01*
X105300D01*
X105782Y105295D01*
X107032D01*
G01X103913Y103346D02*
X106446D01*
X106900Y103800D01*
G01X112432Y107121D02*
X111921D01*
X110902Y106102D01*
G01Y104612D02*
Y106102D01*
G01D02*
X112392D01*
G01X103913Y118700D02*
X104073Y118860D01*
X108230D01*
X108592Y118498D01*
G01X102332Y117722D02*
X102446Y117608D01*
X104949D01*
X105051Y117710D01*
G01X106937Y115740D02*
X106053Y114856D01*
X102639D01*
X102332Y115163D01*
G01X103913Y116141D02*
X105150D01*
X106016Y117007D01*
X108423D01*
G01X102332Y124796D02*
X102636Y125100D01*
X105500D01*
G01X103913Y121259D02*
X104030Y121142D01*
X106159D01*
X108300Y123283D01*
Y125547D01*
X110902Y128149D01*
G01X102332Y122237D02*
X102446Y122351D01*
X104373D01*
X104432Y122292D01*
X105682D01*
G01X115322Y123450D02*
Y123728D01*
X114051Y124999D01*
G01X103082Y119932D02*
X106081D01*
X109800Y123651D01*
Y123897D01*
X110902Y124999D01*
G01X103913Y123818D02*
X106418D01*
G01X115280Y120621D02*
X114051Y121850D01*
G01X112700Y120400D02*
X112352D01*
X110902Y121850D01*
G01X112131Y116779D02*
X110902Y115550D01*
G01X112594Y132418D02*
X112931D01*
X114051Y131298D01*
G01X115476Y126550D02*
Y126724D01*
X114051Y128149D01*
G01X103913Y131495D02*
X106655D01*
X110260Y135100D01*
X112100D01*
X124600Y147600D01*
G01X122618Y148200D02*
Y147882D01*
X121062D01*
X105980Y132800D01*
X102659D01*
X102332Y132473D01*
G01Y135032D02*
X102600Y135300D01*
X104400D01*
X121765Y152665D01*
X175347D01*
G01X103913Y134054D02*
X105254D01*
X122650Y151450D01*
X172650D01*
X172900Y151200D01*
X174300D01*
G01X131700Y146500D02*
X130816Y145616D01*
X130489D01*
X118873Y134000D01*
X111000D01*
X107100Y130100D01*
X102518D01*
X102332Y129914D01*
G01X103913Y136613D02*
X104600Y137300D01*
Y140679D01*
G01X112131Y130069D02*
X110902Y131298D01*
G01X121000Y158300D02*
X119600D01*
X119400Y158500D01*
X109000D01*
G01X166874Y108176D02*
X155948Y97250D01*
X121455D01*
X120100Y98605D01*
G01X121800Y100050D02*
X123400Y98450D01*
X153998D01*
X163724Y108176D01*
G01X157425Y111326D02*
X156000Y109901D01*
Y103800D01*
X152200Y100000D01*
X126100D01*
G01X131500Y110700D02*
X131388Y110812D01*
X127423D01*
X123842Y107231D01*
Y105947D01*
X116500Y98605D01*
G01X121100Y105500D02*
X118189Y102589D01*
X117384D01*
X116500Y101705D01*
G01X118430Y110480D02*
X117201Y109251D01*
G01X118430Y107331D02*
X117201Y106102D01*
G01X118430Y113630D02*
X117201Y112401D01*
G01Y104612D02*
Y106102D01*
G01D02*
Y107592D01*
G01X115711Y106102D02*
X117201D01*
G01D02*
X118691D01*
G01X117201Y110911D02*
Y112401D01*
G01D02*
Y113891D01*
G01X115711Y112401D02*
X117201D01*
G01D02*
X118691D01*
G01X117201Y115550D02*
X118430Y116779D01*
G01Y123770D02*
X117201Y124999D01*
G01X132413Y139498D02*
X131163D01*
X125600Y133935D01*
Y126049D01*
X129799Y121850D01*
G01X121795Y132895D02*
X120500Y131600D01*
Y123661D01*
X118689Y121850D01*
X117201D01*
G01X121700Y129000D02*
Y123729D01*
X118433Y120462D01*
X115439D01*
X115280Y120621D01*
G01X122500Y120400D02*
X124000Y121900D01*
Y136200D01*
X126000Y138200D01*
G01X123700Y118700D02*
X124500Y119500D01*
G01X117201Y118700D02*
X123700D01*
G01X117201Y117210D02*
Y118700D01*
G01X115711D02*
X117201D01*
G01X115400Y132450D02*
X116049D01*
X117201Y131298D01*
G01X118499Y126549D02*
Y126851D01*
X117201Y128149D01*
G01X132500Y102250D02*
X138450D01*
X142988Y106788D01*
X152888D01*
X154276Y108176D01*
G01X136098Y106102D02*
X134895Y107305D01*
X134453D01*
G01X129799Y106102D02*
X128570Y107331D01*
G01Y113630D02*
X129799Y112401D01*
G01X154276Y123924D02*
X152515Y122163D01*
X149863D01*
X148080Y120380D01*
Y115080D01*
X137600Y104600D01*
X134451D01*
X132949Y106102D01*
G01X131500Y107600D02*
Y107551D01*
X132949Y106102D01*
G01X154276Y127074D02*
X152514Y125312D01*
X149412D01*
X145700Y121600D01*
Y116440D01*
X138511Y109251D01*
X136098D01*
G01X134521Y110387D02*
X134962D01*
X136098Y109251D01*
G01X148900Y123000D02*
X146900Y121000D01*
Y115866D01*
X138897Y107863D01*
X135523D01*
X134135Y109251D01*
X132949D01*
G01X131500Y110700D02*
X132949Y109251D01*
G01X145200Y130200D02*
Y124001D01*
X144100Y122901D01*
Y117104D01*
X141346Y114350D01*
X138047D01*
X136098Y112401D01*
G01X134579Y113478D02*
X135021D01*
X136098Y112401D01*
G01X132949D02*
X134135D01*
X135523Y111013D01*
X137513D01*
X139500Y113000D01*
X141128D01*
X144900Y116772D01*
Y122101D01*
X146700Y123901D01*
Y130100D01*
X147624Y131024D01*
X149423D01*
X151199Y132800D01*
X157999D01*
X160575Y130224D01*
G01X131720Y113630D02*
X132949Y112401D01*
G01Y115550D02*
X134135D01*
X135523Y114162D01*
X136673D01*
X138061Y115550D01*
X140848D01*
X143100Y117802D01*
Y123400D01*
X144050Y124350D01*
Y130677D01*
X145358Y131985D01*
X148551D01*
X150266Y133700D01*
X160248D01*
X163724Y130224D01*
G01X129799Y109251D02*
X128311D01*
G01D02*
X127900Y109662D01*
G01X129799Y118700D02*
X127120D01*
G01X134869Y116779D02*
X136098Y115550D01*
G01X163724Y127074D02*
X165112Y128462D01*
Y132288D01*
X162639Y134761D01*
X144252D01*
X143145Y133654D01*
Y125246D01*
X142199Y124300D01*
Y118599D01*
X140350Y116750D01*
X137298D01*
X136098Y115550D01*
G01X131720Y116779D02*
X132949Y115550D01*
G01X139900Y118700D02*
X136098D01*
G01X127300Y127750D02*
X128184Y126866D01*
Y126614D01*
X129799Y124999D01*
G01X131720Y123770D02*
X132949Y124999D01*
G01X136100Y133750D02*
X136984Y132866D01*
X137134D01*
X138300Y131700D01*
Y127201D01*
X136098Y124999D01*
G01Y121850D02*
X140000Y125752D01*
Y135000D01*
G01X131720Y120621D02*
X132949Y121850D01*
G01X137900Y120400D02*
X134649D01*
X132949Y118700D01*
G01X128570Y116779D02*
X129799Y115550D01*
G01D02*
Y117040D01*
G01X128309Y115550D02*
X129799D01*
G01X134869Y130069D02*
X136098Y131298D01*
G01X127308Y131250D02*
X128192Y130366D01*
Y129756D01*
X129799Y128149D01*
G01X131720Y126920D02*
X132949Y128149D01*
G01X132503Y137600D02*
Y136251D01*
X132500Y136248D01*
Y133235D01*
X132949Y132786D01*
Y131298D01*
G01X127100Y133000D02*
X128097D01*
X129799Y131298D01*
G01X134869Y126920D02*
X136098Y128149D01*
G01X136100Y133750D02*
Y141500D01*
G01X173600Y149400D02*
X172350D01*
X171721Y150029D01*
X156899D01*
X156870Y150000D01*
X129500D01*
G01X151126Y111326D02*
X149226D01*
G01X154276D02*
X152888Y109938D01*
X146612D01*
X146350Y110200D01*
X145100D01*
G01X151126Y108176D02*
X149124D01*
G01X139900Y118700D02*
Y123601D01*
X142320Y126021D01*
Y135979D01*
X144252Y137911D01*
X164288D01*
X168500Y133699D01*
Y128700D01*
X166874Y127074D01*
G01X148900Y127000D02*
X150362Y128462D01*
X152514D01*
X154276Y130224D01*
G01X148650Y129250D02*
X149624Y130224D01*
X151126D01*
G01X158400Y105300D02*
X159284Y106184D01*
Y106885D01*
X160575Y108176D01*
G01X157425D02*
X158900Y109651D01*
G01X154276Y120775D02*
X152901Y119400D01*
G01X162234Y117625D02*
X163724D01*
G01X160575Y127074D02*
X162101Y128600D01*
G01X155900Y131600D02*
X156049D01*
X157425Y130224D01*
G01X170650Y90150D02*
X168304Y87804D01*
Y45832D01*
X168275Y45803D01*
Y29468D01*
G01X166874Y123924D02*
X168150Y125200D01*
G01X163724Y117625D02*
X165300Y116049D01*
G01X163724Y116135D02*
Y117625D01*
G01D02*
Y119115D01*
G01Y117625D02*
X165214D01*
G01X166874Y130224D02*
Y133600D01*
G01X180300Y156400D02*
Y163200D01*
M02*
