M48
INCH
T01C.008
T02C.04134
;LEADER: 12 
;HEADER: 
;CODE  : ASCII 
;FILE  : f429-1-4.drl for board #Taaaabj14332.tmp ... layers TOP and BOTTOM
;T01 Holesize 1. = 8.000000 Tolerance = +0.000000/-0.000000 PLATED MILS Quantity = 422
;T02 Holesize 2. = 41.340000 Tolerance = +0.000000/-0.000000 PLATED MILS Quantity = 76
%
G90
T01
X00126600Y00009500
X00131600Y00009600
X00143608Y00009908
X00155500Y00014000
X00153496Y00019004
X00149592Y00010008
X00140600Y00018600
X00131600Y00016000
X00126600Y00015779
X00112279Y00012379
X00108292Y00018508
X00107300Y00013600
X00101900Y00018508
X00090500Y00010050
X00085000Y00013600
X00080200Y00018008
X00062500Y00028000
X00080500Y00026000
X00087092Y00023992
X00102380Y00025520
X00108708Y00024492
X00126600Y00023300
X00126600Y00029600
X00129733Y00029133
X00134100Y00024100
X00138300Y00023900
X00141563Y00024163
X00151437Y00024163
X00157700Y00029800
X00160600Y00023100
X00161539Y00029603
X00165075Y00029405
X00168275Y00029468
X00153500Y00033800
X00147584Y00035084
X00140400Y00036600
X00135300Y00036600
X00126600Y00038100
X00111000Y00036000
X00101000Y00034000
X00079100Y00034100
X00173700Y00045900
X00170600Y00046300
X00166854Y00046433
X00165075Y00046075
X00163500Y00046095
X00140400Y00046900
X00121200Y00046900
X00118495Y00042800
X00100500Y00042700
X00098600Y00048900
X00078800Y00042900
X00076500Y00049200
X00055000Y00044500
X00031000Y00059500
X00078800Y00057100
X00081500Y00059100
X00084192Y00051392
X00089000Y00053000
X00100500Y00056900
X00106500Y00051292
X00117521Y00055721
X00122192Y00055092
X00122300Y00059600
X00143647Y00058200
X00158100Y00058200
X00171792Y00055792
X00149553Y00062100
X00145616Y00060400
X00114092Y00064492
X00108108Y00064392
X00103600Y00064000
X00096120Y00062563
X00094382Y00068500
X00091992Y00064792
X00087700Y00060900
X00068250Y00072250
X00011070Y00083000
X00064500Y00082900
X00067947Y00084154
X00078323Y00088300
X00078417Y00084400
X00081850Y00082500
X00086000Y00086000
X00088900Y00084200
X00091779Y00086750
X00093679Y00086750
X00096800Y00086000
X00099047Y00084854
X00101300Y00085300
X00103000Y00086200
X00106000Y00085900
X00111000Y00086000
X00116000Y00085900
X00121000Y00086100
X00126000Y00086200
X00131000Y00086200
X00136000Y00086500
X00149500Y00084300
X00154500Y00084300
X00159500Y00084500
X00170650Y00090150
X00159500Y00095800
X00154500Y00095900
X00145692Y00093192
X00136000Y00094500
X00131000Y00094500
X00126000Y00094500
X00121000Y00094300
X00120100Y00098605
X00117400Y00094079
X00116500Y00098605
X00098400Y00097800
X00096502Y00097906
X00094600Y00098300
X00093000Y00099000
X00091121Y00098709
X00090500Y00091500
X00072700Y00090584
X00068450Y00091250
X00065700Y00097445
X00062500Y00093000
X00029992Y00090592
X00014770Y00097730
X00014761Y00095761
X00027400Y00107572
X00027508Y00105675
X00027667Y00101667
X00027665Y00103635
X00060863Y00104562
X00063300Y00104500
X00064953Y00102753
X00065100Y00104800
X00066400Y00105905
X00069686Y00107486
X00072227Y00107486
X00074786Y00104927
X00077345Y00104927
X00077345Y00107486
X00079904Y00104927
X00079903Y00107349
X00082463Y00104927
X00082462Y00107349
X00085022Y00102422
X00085022Y00104927
X00085021Y00107349
X00089537Y00104927
X00089538Y00107349
X00092096Y00104927
X00092097Y00107349
X00094655Y00104927
X00094656Y00107349
X00097214Y00104927
X00097215Y00107349
X00099773Y00104927
X00106100Y00101000
X00106900Y00103800
X00107032Y00105295
X00107297Y00106772
X00111200Y00101700
X00112432Y00107121
X00116500Y00101705
X00118430Y00107331
X00121100Y00105500
X00121800Y00100050
X00126100Y00100000
X00127900Y00109662
X00128570Y00107331
X00131500Y00107600
X00132500Y00102250
X00134453Y00107305
X00149124Y00108176
X00158400Y00105300
X00158900Y00109651
X00174286Y00118914
X00174100Y00117100
X00173600Y00114700
X00165300Y00116049
X00152901Y00119400
X00149226Y00111326
X00145100Y00110200
X00139900Y00118700
X00134869Y00116779
X00134579Y00113478
X00134521Y00110387
X00131720Y00116779
X00131720Y00113630
X00128570Y00116779
X00128570Y00113630
X00127120Y00118700
X00118430Y00116779
X00118430Y00113630
X00118430Y00110480
X00112131Y00116779
X00108897Y00114298
X00108592Y00118498
X00108423Y00117007
X00107800Y00111900
X00106937Y00115740
X00106200Y00112573
X00105051Y00117710
X00103082Y00119932
X00099773Y00117722
R03Y-00002559
X00097214Y00117722
R02Y-00002559
X00092096Y00117722
R02Y-00002559
X00089537Y00117722
R02Y-00002559
X00085022Y00117722
R02Y-00002559
X00082463Y00117722
R02Y-00002559
X00079904Y00117722
R02Y-00002559
X00074786Y00117722
R02Y-00002559
X00072227Y00117722
R03Y-00002559
X00069645Y00110045
X00066100Y00112900
X00065900Y00116141
X00065400Y00110200
X00062500Y00119500
X00042000Y00111500
X00016085Y00117415
X00050150Y00120703
X00059000Y00121700
X00061800Y00126700
X00063700Y00127477
X00066718Y00123818
X00066806Y00128822
X00069604Y00124796
X00069668Y00122232
X00072227Y00122237
X00072227Y00124796
R02Y00002559
X00074786Y00122237
R03Y00002559
X00079904Y00122237
X00079904Y00124796
X00079904Y00129914
X00082463Y00122237
X00082463Y00124796
X00082463Y00129914
X00085022Y00122237
X00085022Y00124796
X00085022Y00129914
X00089537Y00122237
X00089537Y00124796
X00089537Y00129914
X00092096Y00122237
X00092096Y00124796
X00092096Y00129914
X00094655Y00129914
X00097214Y00122237
R03Y00002559
X00099773Y00122237
X00099773Y00124796
X00099773Y00129914
X00105500Y00125100
X00105682Y00122292
X00106418Y00123818
X00112700Y00120400
X00115322Y00123450
X00115476Y00126550
X00118430Y00123770
X00118499Y00126549
X00121700Y00129000
X00122500Y00120400
X00127300Y00127750
X00131720Y00120621
X00131720Y00123770
X00131720Y00126920
X00134869Y00126920
X00137900Y00120400
X00148650Y00129250
X00148900Y00123000
X00148900Y00127000
X00162101Y00128600
X00168150Y00125200
X00166874Y00133600
X00155900Y00131600
X00145200Y00130200
X00142500Y00138700
X00140000Y00135000
X00136100Y00133750
X00134869Y00130069
X00132503Y00137600
X00132413Y00139498
X00127308Y00131250
X00127100Y00133000
X00126000Y00138200
X00121795Y00132895
X00119500Y00133000
X00115400Y00132450
X00112594Y00132418
X00112131Y00130069
X00099773Y00132473
X00098321Y00139679
X00097214Y00132473
X00094655Y00132473
X00092096Y00132473
X00089700Y00135673
X00089537Y00132473
X00085800Y00139200
X00085022Y00132473
X00082463Y00132473
X00079904Y00132473
X00077332Y00135032
X00077345Y00132473
X00074786Y00132473
X00072227Y00132473
X00066605Y00131495
X00066500Y00136000
X00061400Y00136100
X00059050Y00132294
X00058996Y00130149
X00057525Y00138346
X00015600Y00137100
X00015631Y00135131
X00011070Y00149370
X00021000Y00143000
X00056799Y00140102
X00057000Y00148500
X00058000Y00146600
X00059213Y00139995
X00059500Y00142000
X00061200Y00140800
X00065500Y00141355
X00070806Y00143106
X00072638Y00142400
X00073963Y00143950
X00075900Y00143950
X00077804Y00143900
X00079626Y00144115
X00080691Y00145735
X00081622Y00144078
X00084600Y00145600
X00086100Y00147300
X00087600Y00146300
X00092700Y00143300
X00094600Y00143900
X00100500Y00141600
X00104600Y00140679
X00109121Y00148500
X00110679Y00147200
X00122618Y00148200
X00124600Y00147600
X00131000Y00148500
X00131700Y00146500
X00136000Y00147800
X00136100Y00141500
X00140725Y00142924
X00140900Y00144800
X00157500Y00146500
X00157500Y00148579
X00162500Y00146500
X00162500Y00148579
X00167500Y00146400
X00167500Y00148579
X00173600Y00149400
X00180300Y00156400
X00176200Y00154300
X00175347Y00152665
X00174300Y00151200
X00129500Y00150000
X00121000Y00158300
X00115600Y00155000
X00109500Y00156200
X00109000Y00158500
X00102900Y00155000
X00101500Y00158700
X00099400Y00155200
X00069100Y00159564
X00059016Y00155553
X00058500Y00153828
X00043500Y00157500
X00021200Y00155300
X00025992Y00165008
X00058500Y00164800
X00061608Y00161192
X00069000Y00162500
X00069800Y00164800
X00072908Y00169008
X00080300Y00163700
X00082692Y00169008
X00091100Y00163700
X00092392Y00169008
X00099592Y00169008
X00101400Y00163700
X00115700Y00160500
X00116000Y00163700
X00119500Y00166800
X00100492Y00174992
X00092500Y00175000
X00083992Y00174992
X00072500Y00175000
X00059600Y00179900
X00057546Y00175143
X00055950Y00177650
X00050823Y00171263
X00034000Y00170800
X00021500Y00174500
X00055600Y00180500
T02
X00038500Y00195000
R19Y-00010000
X00048500Y00005000
R19Y00010000
X00059500Y00194900
X00059500Y00184900
X00069500Y00184900
X00069500Y00194900
X00079500Y00194900
X00079500Y00184900
X00089500Y00184900
X00089500Y00194900
X00099500Y00194900
X00099500Y00184900
X00109500Y00184900
X00109500Y00194900
X00119500Y00194900
X00119500Y00184900
X00129500Y00184900
X00129500Y00194900
X00139500Y00184900
X00139500Y00194900
X00149500Y00194900
X00149500Y00184900
X00140300Y00173200
X00140300Y00163200
X00150300Y00163200
X00150300Y00173200
X00160300Y00173200
X00160300Y00163200
X00179100Y00016100
R03Y00010000
X00170300Y00163200
X00170300Y00173200
X00180300Y00173200
X00180300Y00163200
X00190300Y00163200
X00190300Y00173200
M30
