M48
INCH
T01C.008
T02C.04134
;LEADER: 12 
;HEADER: 
;CODE  : ASCII 
;FILE  : f429-1-4.drl for board #Taaabbd11792.tmp ... layers TOP and BOTTOM
;T01 Holesize 1. = 8.000000 Tolerance = +0.000000/-0.000000 PLATED MILS Quantity = 422
;T02 Holesize 2. = 41.340000 Tolerance = +0.000000/-0.000000 PLATED MILS Quantity = 76
%
G90
T01
X00126600Y00009500
X00131600Y00009600
X00143608Y00009908
X00155500Y00014000
X00149592Y00010008
X00140600Y00018600
X00131600Y00016000
X00126600Y00015779
X00112279Y00012379
X00108292Y00018508
X00107300Y00013600
X00101900Y00018508
X00090500Y00010050
X00085000Y00013600
X00080200Y00018008
X00062500Y00028000
X00080500Y00026000
X00087092Y00023992
X00102380Y00025520
X00108708Y00024492
X00126600Y00023300
X00126600Y00029600
X00129733Y00029133
X00134100Y00024100
X00138300Y00023900
X00141563Y00024163
X00151437Y00024163
X00153008Y00020008
X00157722Y00029800
X00161000Y00022000
X00161000Y00028500
X00165200Y00029529
X00171000Y00032000
X00153500Y00033800
X00147584Y00035084
X00140400Y00036600
X00135300Y00036600
X00126600Y00038100
X00111000Y00036000
X00101000Y00034000
X00079100Y00034100
X00173700Y00045500
X00172650Y00048350
X00168000Y00047500
X00165075Y00046500
X00163520Y00046433
X00140400Y00046900
X00121200Y00046900
X00118495Y00042800
X00100500Y00042700
X00098600Y00048900
X00078800Y00042900
X00076500Y00049200
X00055000Y00044500
X00031000Y00059500
X00078800Y00057100
X00081500Y00059100
X00084192Y00051392
X00089000Y00053000
X00100500Y00056900
X00106500Y00051292
X00117521Y00055721
X00122192Y00055092
X00122300Y00059600
X00143647Y00058200
X00158500Y00059500
X00173000Y00056492
X00149553Y00062100
X00145616Y00060400
X00114092Y00064492
X00108108Y00064392
X00103600Y00064000
X00096120Y00062563
X00094382Y00068500
X00091992Y00064792
X00087700Y00060900
X00068250Y00072250
X00011070Y00083000
X00064500Y00082900
X00067947Y00084154
X00078323Y00088300
X00078417Y00084400
X00081850Y00082500
X00085949Y00086000
X00088900Y00084200
X00091779Y00086750
X00093679Y00086750
X00096800Y00086000
X00099047Y00084854
X00101300Y00085300
X00103000Y00086200
X00106000Y00085900
X00111000Y00086000
X00116000Y00085900
X00121000Y00086100
X00126000Y00086200
X00131000Y00086200
X00136000Y00086500
X00149500Y00084300
X00154500Y00084300
X00159500Y00084500
X00170750Y00090250
X00159500Y00095800
X00154500Y00095500
X00145692Y00093192
X00136000Y00094500
X00131000Y00094500
X00126000Y00094500
X00122000Y00099500
X00121000Y00094300
X00120100Y00098605
X00117400Y00094079
X00116500Y00098605
X00098376Y00097590
X00096502Y00097906
X00094483Y00097500
X00093000Y00099000
X00091131Y00098698
X00090500Y00091500
X00072700Y00090584
X00068450Y00091250
X00065700Y00097445
X00062500Y00093000
X00029992Y00090592
X00014770Y00097730
X00014761Y00095761
X00027400Y00107572
X00027508Y00105675
X00027667Y00101667
X00027665Y00103635
X00060863Y00104562
X00063150Y00104650
X00064953Y00102753
X00065100Y00104800
X00066500Y00105905
X00069427Y00107365
X00072227Y00107486
X00074422Y00104729
X00077345Y00107486
X00077435Y00104985
X00079904Y00104927
X00079903Y00107349
X00082463Y00104927
X00082462Y00107349
X00085022Y00102422
X00085022Y00104927
X00085021Y00107349
X00089305Y00104894
X00089538Y00107349
X00092105Y00104721
X00092097Y00107349
X00094414Y00105060
X00094656Y00107349
X00097214Y00104927
X00097215Y00107349
X00099863Y00109794
X00100014Y00104765
X00106100Y00101000
X00106401Y00103899
X00107301Y00105401
X00107299Y00107151
X00111200Y00101700
X00115800Y00107500
X00116500Y00101705
X00118430Y00107331
X00121100Y00105500
X00126100Y00100000
X00127600Y00106700
X00127900Y00109662
X00131500Y00107600
X00132500Y00102250
X00138500Y00107000
X00147024Y00109926
X00149124Y00108176
X00158500Y00106000
X00158900Y00109651
X00174000Y00119500
X00174000Y00117000
X00173500Y00114500
X00165300Y00116049
X00152901Y00119400
X00149226Y00111326
X00140080Y00110820
X00138765Y00113665
X00134574Y00117074
X00131720Y00116779
X00131425Y00113925
X00128570Y00116779
X00128570Y00113630
X00126500Y00119500
X00124500Y00119500
X00118430Y00116779
X00118430Y00113630
X00118430Y00110480
X00112388Y00116639
X00108855Y00114573
X00108510Y00118578
X00108309Y00116839
X00108000Y00111800
X00107203Y00115308
X00106396Y00112502
X00105204Y00117605
X00099979Y00112594
X00099773Y00115163
X00097214Y00117722
R02Y-00002559
X00092096Y00117722
R02Y-00002559
X00089537Y00117722
R02Y-00002559
X00085022Y00117722
R02Y-00002559
X00082463Y00117722
R02Y-00002559
X00079904Y00117722
R02Y-00002559
X00074786Y00117722
R02Y-00002559
X00072227Y00117722
R03Y-00002559
X00069645Y00110045
X00066046Y00113191
X00065900Y00116141
X00065400Y00110200
X00062500Y00119500
X00042000Y00111500
X00016085Y00117415
X00050150Y00120703
X00059000Y00121700
X00061800Y00126700
X00063700Y00127500
X00066545Y00128936
X00066718Y00123818
X00069398Y00125233
X00069668Y00122232
X00072227Y00122237
X00072227Y00124560
X00072227Y00127360
X00072238Y00129540
X00074786Y00122237
X00074786Y00124560
X00074786Y00127360
X00074786Y00129914
X00079904Y00122237
X00079904Y00124796
X00079904Y00129914
X00082463Y00122237
X00082463Y00124796
X00082463Y00129914
X00085022Y00122237
X00085022Y00124796
X00085022Y00129914
X00089537Y00129914
X00089820Y00121259
X00089850Y00123818
X00091865Y00125745
X00092390Y00123818
X00092480Y00121259
X00094660Y00121259
X00094680Y00125810
X00094655Y00129650
X00094750Y00123818
X00097214Y00129650
X00097932Y00122122
X00099773Y00124720
X00099773Y00129650
X00102670Y00119968
X00105670Y00122500
X00106148Y00125548
X00106900Y00123818
X00109452Y00129848
X00112524Y00120024
X00115322Y00123450
X00115476Y00126550
X00118473Y00123672
X00118499Y00126549
X00121700Y00129000
X00122500Y00120400
X00127000Y00127500
X00131720Y00120621
X00131720Y00123770
X00131720Y00126920
X00134869Y00126920
X00137900Y00120400
X00139900Y00120400
X00148650Y00129250
X00148900Y00123000
X00148900Y00127000
X00162101Y00128600
X00168150Y00125200
X00166874Y00133600
X00155900Y00131600
X00145200Y00130200
X00142500Y00138700
X00140000Y00135000
X00136100Y00133500
X00134869Y00130069
X00132503Y00137600
X00132413Y00139498
X00127500Y00133000
X00127308Y00131250
X00126000Y00138200
X00121500Y00132895
X00119500Y00132500
X00115646Y00132485
X00112594Y00132418
X00100116Y00132649
X00098574Y00139927
X00097316Y00132550
X00094377Y00132513
X00092480Y00132857
X00092256Y00129977
X00089840Y00135250
X00089402Y00132338
X00086602Y00132470
X00086360Y00139470
X00082700Y00132460
X00077420Y00135140
X00077300Y00132330
X00074786Y00132340
X00072227Y00132340
X00066571Y00135570
X00066545Y00131495
X00061392Y00136107
X00059050Y00132294
X00058996Y00130149
X00057525Y00138346
X00015600Y00137100
X00015631Y00135131
X00011070Y00149370
X00021000Y00143000
X00056799Y00140102
X00057500Y00148500
X00058554Y00146919
X00059206Y00140003
X00059500Y00142000
X00061200Y00140800
X00065500Y00141355
X00069500Y00143000
X00071148Y00142054
X00072500Y00144000
X00075000Y00144000
X00077200Y00144000
X00079100Y00143998
X00081000Y00144000
X00082054Y00145581
X00084500Y00146000
X00086100Y00147300
X00087697Y00146040
X00092897Y00143703
X00094754Y00144108
X00100500Y00141600
X00105500Y00140500
X00109077Y00148534
X00110579Y00147370
X00123406Y00149288
X00124500Y00147500
X00131000Y00148500
X00131700Y00146500
X00136000Y00147800
X00136100Y00141500
X00140500Y00142500
X00140900Y00144800
X00157500Y00146500
X00157500Y00148579
X00162500Y00146500
X00162500Y00148579
X00167500Y00146400
X00167500Y00148579
X00173600Y00149400
X00180300Y00156400
X00176500Y00154500
X00176304Y00152303
X00174500Y00151500
X00133000Y00150500
X00120000Y00158500
X00115600Y00155000
X00109500Y00156200
X00109000Y00158500
X00102900Y00155000
X00101500Y00158700
X00099400Y00155200
X00069100Y00159564
X00059000Y00156000
X00058664Y00153664
X00043500Y00157500
X00021200Y00155300
X00025992Y00165008
X00059000Y00164800
X00061608Y00161192
X00069000Y00162500
X00069800Y00164800
X00072908Y00169008
X00080300Y00163700
X00082692Y00169008
X00091100Y00163700
X00092392Y00169008
X00099592Y00169008
X00101400Y00163700
X00115700Y00160500
X00116000Y00163700
X00119500Y00166800
X00100492Y00174992
X00092500Y00175000
X00083992Y00174992
X00072500Y00175000
X00059600Y00179900
X00057546Y00175143
X00055550Y00178050
X00051000Y00171000
X00034000Y00170800
X00021500Y00174500
X00055600Y00180500
T02
X00038500Y00195000
R19Y-00010000
X00048500Y00005000
R19Y00010000
X00059500Y00194900
X00059500Y00184900
X00069500Y00184900
X00069500Y00194900
X00079500Y00194900
X00079500Y00184900
X00089500Y00184900
X00089500Y00194900
X00099500Y00194900
X00099500Y00184900
X00109500Y00184900
X00109500Y00194900
X00119500Y00194900
X00119500Y00184900
X00129500Y00184900
X00129500Y00194900
X00139500Y00184900
X00139500Y00194900
X00149500Y00194900
X00149500Y00184900
X00140300Y00173200
X00140300Y00163200
X00150300Y00163200
X00150300Y00173200
X00160300Y00173200
X00160300Y00163200
X00179100Y00016100
R03Y00010000
X00170300Y00163200
X00170300Y00173200
X00180300Y00173200
X00180300Y00163200
X00190300Y00163200
X00190300Y00173200
M30
