G04 ================== begin FILE IDENTIFICATION RECORD ==================*
G04 Layout Name:  E:/material/glass/pcb/test-stm32f429/pcb/f429.brd*
G04 Film Name:    SOLDERMASK_TOP*
G04 File Format:  Gerber RS274X*
G04 File Origin:  Cadence Allegro 16.6-S049*
G04 Origin Date:  Wed Oct 14 16:51:38 2015*
G04 *
G04 Layer:  VIA CLASS/SOLDERMASK_TOP*
G04 Layer:  PIN/SOLDERMASK_TOP*
G04 Layer:  PACKAGE GEOMETRY/SOLDERMASK_TOP*
G04 Layer:  BOARD GEOMETRY/SOLDERMASK_TOP*
G04 *
G04 Offset:    (0.00 0.00)*
G04 Mirror:    No*
G04 Mode:      Positive*
G04 Rotation:  0*
G04 FullContactRelief:  No*
G04 UndefLineWidth:     0.00*
G04 ================== end FILE IDENTIFICATION RECORD ====================*
%FSLAX25Y25*MOIN*%
%IR0*IPPOS*OFA0.00000B0.00000*MIA0B0*SFA1.00000B1.00000*%
%AMMACRO21*
4,1,5,.04823,.03445,
.05217,.03051,
.05217,-.03445,
-.05217,-.03445,
-.05217,.03445,
.04823,.03445,
0.0*
%
%ADD21MACRO21*%
%AMMACRO26*
4,1,21,.00394,.01476,
.00394,-.01083,
.00388,-.011514,
.003701,-.012177,
.003411,-.0128,
.003016,-.013362,
.00253,-.013847,
.001967,-.014241,
.001345,-.01453,
.000681,-.014707,
-.000003,-.014767,
-.000687,-.014706,
-.001351,-.014528,
-.001973,-.014237,
-.002535,-.013843,
-.00302,-.013357,
-.003414,-.012794,
-.003703,-.012171,
-.003881,-.011508,
-.00394,-.01083,
-.00394,.01476,
.00394,.01476,
0.0*
%
%ADD26MACRO26*%
%AMMACRO17*
4,1,22,.00591,.01575,
.00591,-.00984,
.005821,-.010866,
.005554,-.011861,
.005119,-.012795,
.004529,-.013639,
.003801,-.014368,
.002957,-.014959,
.002024,-.015395,
.001029,-.015662,
.000003,-.015753,
-.001024,-.015663,
-.002019,-.015397,
-.002953,-.014962,
-.003797,-.014371,
-.004526,-.013643,
-.005117,-.0128,
-.005553,-.011866,
-.00582,-.010871,
-.00591,-.009845,
-.00591,-.00984,
-.00591,.01575,
.00591,.01575,
0.0*
%
%ADD17MACRO17*%
%ADD11C,.06299*%
%ADD12R,.06299X.06299*%
%AMMACRO22*
4,1,5,-.02362,-.01575,
-.02756,-.01181,
-.02756,.01575,
.02756,.01575,
.02756,-.01575,
-.02362,-.01575,
0.0*
%
%ADD22MACRO22*%
%AMMACRO16*
4,1,35,-.04232,-.0315,
-.04626,-.02756,
-.04626,.02756,
-.0462,.028244,
-.046022,.028908,
-.045732,.02953,
-.045338,.030093,
-.044853,.030578,
-.04429,.030972,
-.043668,.031262,
-.043005,.03144,
-.04232,.0315,
-.04232,.0315,
.04232,.0315,
.043004,.03144,
.043668,.031262,
.04429,.030972,
.044853,.030578,
.045338,.030093,
.045732,.02953,
.046022,.028908,
.0462,.028245,
.04626,.02756,
.04626,.02756,
.04626,-.02756,
.0462,-.028244,
.046022,-.028908,
.045732,-.02953,
.045338,-.030093,
.044853,-.030578,
.04429,-.030972,
.043668,-.031262,
.043005,-.03144,
.04232,-.0315,
.04232,-.0315,
-.04232,-.0315,
0.0*
%
%ADD16MACRO16*%
%AMMACRO24*
4,1,5,-.04331,-.03543,
-.04724,-.0315,
-.04724,.03543,
.04724,.03543,
.04724,-.03543,
-.04331,-.03543,
0.0*
%
%ADD24MACRO24*%
%ADD19R,.05512X.04331*%
%ADD14R,.02126X.03543*%
%ADD10R,.03543X.02126*%
%AMMACRO25*
4,1,21,-.00394,-.01476,
-.00394,.01083,
-.00388,.011514,
-.003701,.012177,
-.003411,.0128,
-.003016,.013362,
-.00253,.013847,
-.001967,.014241,
-.001345,.01453,
-.000681,.014707,
.000003,.014767,
.000687,.014706,
.001351,.014528,
.001973,.014237,
.002535,.013843,
.00302,.013357,
.003414,.012794,
.003703,.012171,
.003881,.011508,
.00394,.01083,
.00394,-.01476,
-.00394,-.01476,
0.0*
%
%ADD25MACRO25*%
%ADD23R,.02953X.05512*%
%AMMACRO15*
4,1,22,-.00591,-.01575,
-.00591,.00984,
-.005821,.010866,
-.005554,.011861,
-.005119,.012795,
-.004529,.013639,
-.003801,.014368,
-.002957,.014959,
-.002024,.015395,
-.001029,.015662,
-.000003,.015753,
.001024,.015663,
.002019,.015397,
.002953,.014962,
.003797,.014371,
.004526,.013643,
.005117,.0128,
.005553,.011866,
.00582,.010871,
.00591,.009845,
.00591,.00984,
.00591,-.01575,
-.00591,-.01575,
0.0*
%
%ADD15MACRO15*%
%ADD18R,.08661X.0374*%
%ADD20R,.01969X.03543*%
%ADD13R,.03543X.06496*%
%LPD*%
G75*
G54D10*
X21700Y90592D03*
Y84608D03*
X21200Y146108D03*
Y152092D03*
X21500Y170992D03*
Y165008D03*
X62500Y113492D03*
Y107508D03*
Y117508D03*
Y123492D03*
X65000Y155208D03*
Y161192D03*
X77000Y23992D03*
Y18008D03*
X72000Y23992D03*
Y18008D03*
X76500Y45408D03*
Y51392D03*
Y60892D03*
Y54908D03*
X73500Y155208D03*
Y161192D03*
X69000Y174992D03*
Y169008D03*
X79000Y174992D03*
Y169008D03*
X83500Y23992D03*
Y18008D03*
X81500Y45408D03*
Y51392D03*
Y54908D03*
Y60892D03*
X89000Y174992D03*
Y169008D03*
X99000Y24492D03*
Y18508D03*
X94000Y24492D03*
Y18508D03*
X98600Y45308D03*
Y51292D03*
X103600Y45308D03*
Y51292D03*
X98600Y60792D03*
Y54808D03*
X103600D03*
Y60792D03*
X96800Y88908D03*
Y94892D03*
X96000Y174992D03*
Y169008D03*
X105500Y24492D03*
Y18508D03*
X106000Y90208D03*
X111000D03*
X106000Y96192D03*
X111000D03*
X126600Y11908D03*
Y27392D03*
Y21408D03*
Y17892D03*
X125600Y49108D03*
Y55092D03*
X121000Y90208D03*
X126000D03*
X116000D03*
X121000Y96192D03*
X126000D03*
X116000D03*
X119500Y174992D03*
Y169008D03*
X131600Y11908D03*
X136600Y21408D03*
Y27392D03*
X131600Y17892D03*
Y21408D03*
Y27392D03*
X135300Y40592D03*
Y34608D03*
X130600Y49108D03*
Y55092D03*
X131000Y90208D03*
X136000D03*
X131000Y96192D03*
X136000D03*
Y139208D03*
Y145192D03*
X140400Y34608D03*
Y40592D03*
X149500Y87208D03*
Y93192D03*
X156000Y25992D03*
Y20008D03*
X161000Y25992D03*
Y20008D03*
X158500Y50508D03*
X163500D03*
X158500Y56492D03*
X163500D03*
X159500Y87208D03*
X154500D03*
X159500Y93192D03*
X154500D03*
X162500Y150692D03*
Y144708D03*
X157500Y150692D03*
Y144708D03*
X171000Y20008D03*
Y25992D03*
X166000Y20008D03*
Y25992D03*
X168500Y50508D03*
Y56492D03*
X167500Y150692D03*
Y144708D03*
G54D20*
X116100Y29382D03*
Y39618D03*
G54D11*
X38500Y5000D03*
Y15000D03*
Y25000D03*
Y35000D03*
Y55000D03*
Y45000D03*
Y65000D03*
Y75000D03*
Y85000D03*
Y105000D03*
Y95000D03*
Y115000D03*
Y125000D03*
Y135000D03*
Y145000D03*
Y165000D03*
Y155000D03*
Y175000D03*
Y185000D03*
Y195000D03*
X48500Y15000D03*
Y25000D03*
Y35000D03*
Y55000D03*
Y45000D03*
Y65000D03*
Y75000D03*
Y85000D03*
Y105000D03*
Y95000D03*
Y115000D03*
Y125000D03*
Y135000D03*
Y145000D03*
Y165000D03*
Y155000D03*
Y175000D03*
Y185000D03*
Y195000D03*
X59500Y194900D03*
X79500Y184900D03*
X69500D03*
X79500Y194900D03*
X69500D03*
X89500Y184900D03*
Y194900D03*
X99500Y184900D03*
Y194900D03*
X109500Y184900D03*
Y194900D03*
X119500Y184900D03*
Y194900D03*
X139500Y184900D03*
X129500D03*
X139500Y194900D03*
X129500D03*
X150300Y163200D03*
Y173200D03*
X149500Y184900D03*
Y194900D03*
X160300Y163200D03*
Y173200D03*
X179100Y26100D03*
Y36100D03*
Y46100D03*
X190300Y163200D03*
X180300D03*
X190300Y173200D03*
X180300D03*
G54D12*
X48500Y5000D03*
X59500Y184900D03*
X140300Y163200D03*
Y173200D03*
X170300Y163200D03*
Y173200D03*
X179100Y16100D03*
G54D21*
X126600Y38100D03*
G54D13*
X65079Y149700D03*
X74921D03*
G54D22*
X146600Y28100D03*
G54D23*
X162366Y14000D03*
X170634D03*
G54D14*
X76608Y13600D03*
X71508Y93700D03*
X77492D03*
X78008Y163700D03*
X82592Y13600D03*
X86008Y60900D03*
X87992Y88700D03*
X82008D03*
X87992Y93700D03*
X82008D03*
X87508Y163700D03*
X83992D03*
X98608Y13600D03*
X91992Y60900D03*
X97508Y143700D03*
Y148700D03*
Y158700D03*
X93492Y163700D03*
X97508D03*
X104592Y13600D03*
X108108Y60800D03*
X114092D03*
X103492Y143700D03*
Y148700D03*
X107008Y143700D03*
X112992D03*
Y148700D03*
X107008D03*
X112992Y158700D03*
X107008D03*
X112992Y153700D03*
X107008D03*
X103492Y158700D03*
Y163700D03*
X112992D03*
X107008D03*
X125108Y59600D03*
X131092D03*
X143608Y13600D03*
X149592D03*
Y18600D03*
X143608D03*
G54D15*
X77820Y28391D03*
X75261D03*
X82939D03*
X80380D03*
X102380D03*
X99820D03*
X97261D03*
X104939D03*
X126600Y32194D03*
X124631D03*
X122663D03*
X130537D03*
X128569D03*
X149553Y24163D03*
X147584D03*
X145616D03*
X143647D03*
G54D24*
X163500Y38000D03*
G54D25*
X161925Y32094D03*
X160350D03*
X158776D03*
X168224D03*
X166650D03*
X165075D03*
X163500D03*
G54D16*
X79100Y34100D03*
X101100D03*
G54D17*
X75261Y39809D03*
X77820D03*
X80380D03*
X82939D03*
X97261D03*
X99820D03*
X102380D03*
X104939D03*
X122663Y44006D03*
X124631D03*
X126600D03*
X128569D03*
X130537D03*
X143647Y32037D03*
X145616D03*
X147584D03*
X149553D03*
G54D26*
X158776Y43906D03*
X160350D03*
X161925D03*
X163500D03*
X165075D03*
X166650D03*
X168224D03*
G54D18*
X89000Y45979D03*
Y55821D03*
X111600Y45879D03*
Y55721D03*
X118800Y12379D03*
Y22221D03*
G54D19*
X91421Y149263D03*
X81579D03*
Y157137D03*
X91421D03*
M02*
