G04 ================== begin FILE IDENTIFICATION RECORD ==================*
G04 Layout Name:  E:/material/glass/pcb/test-stm32f429/pcb/f429.brd*
G04 Film Name:    SOLDERMASK_BOTTOM*
G04 File Format:  Gerber RS274X*
G04 File Origin:  Cadence Allegro 16.6-S049*
G04 Origin Date:  Sat Oct 10 17:08:06 2015*
G04 *
G04 Layer:  VIA CLASS/SOLDERMASK_BOTTOM*
G04 Layer:  PIN/SOLDERMASK_BOTTOM*
G04 Layer:  PACKAGE GEOMETRY/SOLDERMASK_BOTTOM*
G04 Layer:  BOARD GEOMETRY/SOLDERMASK_BOTTOM*
G04 *
G04 Offset:    (0.00 0.00)*
G04 Mirror:    No*
G04 Mode:      Positive*
G04 Rotation:  0*
G04 FullContactRelief:  No*
G04 UndefLineWidth:     0.00*
G04 ================== end FILE IDENTIFICATION RECORD ====================*
%FSLAX25Y25*MOIN*%
%IR0*IPPOS*OFA0.00000B0.00000*MIA0B0*SFA1.00000B1.00000*%
%ADD10R,.12X.06*%
%ADD15C,.01575*%
%ADD12C,.06299*%
%ADD13R,.06299X.06299*%
%ADD11R,.08X.01*%
%ADD14C,.00984*%
%LPD*%
G75*
G54D10*
X11070Y89069D03*
Y143793D03*
G54D11*
X21700Y95761D03*
Y97730D03*
Y99698D03*
Y101667D03*
Y103635D03*
Y105604D03*
Y107572D03*
Y109541D03*
Y111509D03*
Y113478D03*
Y115446D03*
Y117415D03*
Y119383D03*
Y121352D03*
Y123320D03*
Y125289D03*
Y127257D03*
Y129226D03*
Y131194D03*
Y133163D03*
Y135131D03*
Y137100D03*
G54D12*
X38500Y5000D03*
Y15000D03*
Y25000D03*
Y35000D03*
Y55000D03*
Y45000D03*
Y65000D03*
Y75000D03*
Y85000D03*
Y105000D03*
Y95000D03*
Y115000D03*
Y125000D03*
Y135000D03*
Y145000D03*
Y165000D03*
Y155000D03*
Y175000D03*
Y185000D03*
Y195000D03*
X48500Y15000D03*
Y25000D03*
Y35000D03*
Y55000D03*
Y45000D03*
Y65000D03*
Y75000D03*
Y85000D03*
Y105000D03*
Y95000D03*
Y115000D03*
Y125000D03*
Y135000D03*
Y145000D03*
Y165000D03*
Y155000D03*
Y175000D03*
Y185000D03*
Y195000D03*
X59500Y194900D03*
X79500Y184900D03*
X69500D03*
X79500Y194900D03*
X69500D03*
X89500Y184900D03*
Y194900D03*
X99500Y184900D03*
Y194900D03*
X109500Y184900D03*
Y194900D03*
X119500Y184900D03*
Y194900D03*
X139500Y184900D03*
X129500D03*
X139500Y194900D03*
X129500D03*
X150300Y163200D03*
Y173200D03*
X149500Y184900D03*
Y194900D03*
X160300Y163200D03*
Y173200D03*
X179100Y26100D03*
Y36100D03*
Y46100D03*
X190300Y163200D03*
X180300D03*
X190300Y173200D03*
X180300D03*
G54D13*
X48500Y5000D03*
X59500Y184900D03*
X140300Y163200D03*
Y173200D03*
X170300Y163200D03*
Y173200D03*
X179100Y16100D03*
G54D14*
X75764Y100787D03*
X73205D03*
X70646D03*
X68087D03*
X75764Y103346D03*
Y105905D03*
Y108464D03*
Y111023D03*
Y113582D03*
X73205Y103346D03*
Y105905D03*
Y108464D03*
Y111023D03*
Y113582D03*
X70646Y103346D03*
Y105905D03*
Y108464D03*
Y111023D03*
Y113582D03*
X68087Y103346D03*
Y105905D03*
Y108464D03*
Y111023D03*
Y113582D03*
X75764Y116141D03*
Y118700D03*
Y121259D03*
Y123818D03*
Y126377D03*
X73205Y116141D03*
Y118700D03*
Y121259D03*
Y123818D03*
Y126377D03*
X70646Y116141D03*
Y118700D03*
Y121259D03*
Y123818D03*
Y126377D03*
X68087Y116141D03*
Y118700D03*
Y121259D03*
Y123818D03*
Y126377D03*
X75764Y128936D03*
Y131495D03*
Y134054D03*
Y136613D03*
X73205Y128936D03*
Y131495D03*
Y134054D03*
Y136613D03*
X70646Y128936D03*
Y131495D03*
Y134054D03*
Y136613D03*
X68087Y128936D03*
Y131495D03*
Y134054D03*
Y136613D03*
X88559Y100787D03*
X86000D03*
X83441D03*
X80882D03*
X78323D03*
X88559Y103346D03*
Y105905D03*
Y108464D03*
Y113582D03*
X86000Y103346D03*
Y105905D03*
Y108464D03*
Y113582D03*
X83441Y103346D03*
Y105905D03*
Y108464D03*
Y113582D03*
X80882Y103346D03*
Y105905D03*
Y108464D03*
Y113582D03*
X78323Y103346D03*
Y105905D03*
Y108464D03*
X88559Y116141D03*
Y118700D03*
Y121259D03*
Y123818D03*
X86000Y116141D03*
Y118700D03*
Y121259D03*
Y123818D03*
X83441Y116141D03*
Y118700D03*
Y121259D03*
Y123818D03*
X80882Y116141D03*
Y118700D03*
Y121259D03*
Y123818D03*
X88559Y128936D03*
Y131495D03*
Y134054D03*
Y136613D03*
X86000Y128936D03*
Y131495D03*
Y134054D03*
Y136613D03*
X83441Y128936D03*
Y131495D03*
Y134054D03*
Y136613D03*
X80882Y128936D03*
Y131495D03*
Y134054D03*
Y136613D03*
X78323Y128936D03*
Y131495D03*
Y134054D03*
Y136613D03*
X101354Y100787D03*
X98795D03*
X96236D03*
X93677D03*
X91118D03*
X101354Y103346D03*
Y105905D03*
Y108464D03*
Y111023D03*
Y113582D03*
X98795Y103346D03*
Y105905D03*
Y108464D03*
Y111023D03*
Y113582D03*
X96236Y103346D03*
Y105905D03*
Y108464D03*
Y111023D03*
Y113582D03*
X93677Y103346D03*
Y105905D03*
Y108464D03*
X91118Y103346D03*
Y105905D03*
Y108464D03*
Y113582D03*
X101354Y116141D03*
Y118700D03*
Y121259D03*
Y123818D03*
Y126377D03*
X98795Y116141D03*
Y118700D03*
Y121259D03*
Y123818D03*
Y126377D03*
X96236Y116141D03*
Y118700D03*
Y121259D03*
Y123818D03*
Y126377D03*
X91118Y116141D03*
Y118700D03*
Y121259D03*
Y123818D03*
X101354Y128936D03*
Y131495D03*
Y134054D03*
Y136613D03*
X98795Y128936D03*
Y131495D03*
Y134054D03*
Y136613D03*
X96236Y128936D03*
Y131495D03*
Y134054D03*
Y136613D03*
X93677Y128936D03*
Y131495D03*
Y134054D03*
Y136613D03*
X91118Y128936D03*
Y131495D03*
Y134054D03*
Y136613D03*
X103913Y100787D03*
Y103346D03*
Y105905D03*
Y108464D03*
Y111023D03*
Y113582D03*
Y116141D03*
Y118700D03*
Y121259D03*
Y123818D03*
Y126377D03*
Y128936D03*
Y131495D03*
Y134054D03*
Y136613D03*
G54D15*
X114051Y112401D03*
X110902D03*
X114051Y109251D03*
X110902D03*
X114051Y106102D03*
X110902D03*
X114051Y124999D03*
X110902D03*
X114051Y121850D03*
X110902D03*
X114051Y118700D03*
X110902D03*
X114051Y115550D03*
X110902D03*
X114051Y131298D03*
X110902D03*
X114051Y128149D03*
X110902D03*
X117201Y112401D03*
Y109251D03*
Y106102D03*
Y124999D03*
Y121850D03*
Y118700D03*
Y115550D03*
Y131298D03*
Y128149D03*
X136098Y112401D03*
X132949D03*
X129799D03*
X136098Y109251D03*
X132949D03*
X129799D03*
X136098Y106102D03*
X132949D03*
X129799D03*
X136098Y124999D03*
X132949D03*
X129799D03*
X136098Y121850D03*
X132949D03*
X129799D03*
X136098Y118700D03*
X132949D03*
X129799D03*
X136098Y115550D03*
X132949D03*
X129799D03*
X136098Y131298D03*
X132949D03*
X129799D03*
X136098Y128149D03*
X132949D03*
X129799D03*
X147976Y101877D03*
X144827D03*
X151126Y114476D03*
Y111326D03*
Y108176D03*
X144827Y105027D03*
X151126Y127074D03*
Y123924D03*
Y120775D03*
Y117625D03*
X147976Y136523D03*
X144827D03*
X147976Y133373D03*
X144827D03*
X151126Y130224D03*
X160575Y114476D03*
X157425D03*
X154276D03*
X160575Y111326D03*
X157425D03*
X154276D03*
X160575Y108176D03*
X157425D03*
X154276D03*
X160575Y127074D03*
X157425D03*
X154276D03*
X160575Y123924D03*
X157425D03*
X154276D03*
X160575Y120775D03*
X157425D03*
X154276D03*
X160575Y117625D03*
X157425D03*
X154276D03*
X160575Y130224D03*
X157425D03*
X154276D03*
X173173Y101877D03*
X170024D03*
X166874Y114476D03*
X163724D03*
X166874Y111326D03*
X163724D03*
X166874Y108176D03*
X163724D03*
X173173Y105027D03*
X170024D03*
X166874Y127074D03*
X163724D03*
X166874Y123924D03*
X163724D03*
X166874Y120775D03*
X163724D03*
X166874Y117625D03*
X163724D03*
X173173Y136523D03*
X170024D03*
X173173Y133373D03*
X170024D03*
X166874Y130224D03*
X163724D03*
M02*
