G04 ================== begin FILE IDENTIFICATION RECORD ==================*
G04 Layout Name:  E:/material/glass/pcb/test-stm32f429/pcb/f429.brd*
G04 Film Name:    DRILL*
G04 File Format:  Gerber RS274X*
G04 File Origin:  Cadence Allegro 16.6-S049*
G04 Origin Date:  Sat Oct 10 17:08:06 2015*
G04 *
G04 Layer:  MANUFACTURING/NCLEGEND-1-4*
G04 *
G04 Offset:    (0.00 0.00)*
G04 Mirror:    No*
G04 Mode:      Positive*
G04 Rotation:  0*
G04 FullContactRelief:  No*
G04 UndefLineWidth:     1.00*
G04 ================== end FILE IDENTIFICATION RECORD ====================*
%FSLAX25Y25*MOIN*%
%IR0*IPPOS*OFA0.00000B0.00000*MIA0B0*SFA1.00000B1.00000*%
%AMMACRO10*
1,1,.001,.004,0.0*
20,1,.001,.004,0.0,-.004,0.0,0.0*
1,1,.001,-.004,0.0*
1,1,.001,0.0,.004*
20,1,.001,0.0,.004,0.0,-.004,0.0*
1,1,.001,0.0,-.004*
%
%ADD10MACRO10*%
%AMMACRO11*
1,1,.001,.02067,.02067*
20,1,.001,.02067,.02067,.02067,-.02067,0.0*
1,1,.001,.02067,-.02067*
20,1,.001,.02067,-.02067,-.02067,-.02067,0.0*
1,1,.001,-.02067,-.02067*
20,1,.001,-.02067,-.02067,-.02067,.02067,0.0*
1,1,.001,-.02067,.02067*
20,1,.001,-.02067,.02067,.02067,.02067,0.0*
1,1,.001,.02067,.02067*
%
%ADD11MACRO11*%
%ADD12C,.001*%
G75*
%LPD*%
G75*
G54D10*
X11070Y83000D03*
X14761Y95761D03*
X14770Y97730D03*
X16085Y117415D03*
X15600Y137100D03*
X15631Y135131D03*
X11070Y149370D03*
X27667Y101667D03*
X27508Y105675D03*
X27665Y103635D03*
X27400Y107572D03*
X21000Y143000D03*
X21200Y155300D03*
X21500Y174500D03*
X25992Y165008D03*
X31000Y59500D03*
X29992Y90592D03*
X34000Y170800D03*
X42000Y111500D03*
X50150Y120703D03*
X43500Y157500D03*
X50823Y171263D03*
X62500Y28000D03*
X55000Y44500D03*
X64500Y82900D03*
X65700Y97445D03*
X62500Y93000D03*
X63300Y104500D03*
X60863Y104562D03*
X65100Y104800D03*
X65400Y110200D03*
X64953Y102753D03*
X62500Y119500D03*
X65900Y116141D03*
X59000Y121700D03*
X61800Y126700D03*
X63700Y127477D03*
X59050Y132294D03*
X58996Y130149D03*
X61400Y136100D03*
X57525Y138346D03*
X58000Y146600D03*
X57000Y148500D03*
X65500Y141355D03*
X61200Y140800D03*
X59213Y139995D03*
X56799Y140102D03*
X59500Y142000D03*
X59016Y155553D03*
X58500Y153828D03*
X61608Y161192D03*
X57546Y175143D03*
X58500Y164800D03*
X59600Y179900D03*
X55600Y180500D03*
X55950Y177650D03*
X76500Y49200D03*
X68250Y72250D03*
X67947Y84154D03*
X72700Y90584D03*
X68450Y91250D03*
X69645Y110045D03*
X74786Y112604D03*
X72227Y110045D03*
Y112604D03*
X69686Y107486D03*
X72227D03*
X77345D03*
Y104927D03*
X74786D03*
X66400Y105905D03*
X66100Y112900D03*
X72227Y122237D03*
Y117722D03*
Y115163D03*
X69604Y124796D03*
X69668Y122232D03*
X66718Y123818D03*
X74786Y124796D03*
X72227D03*
X74786Y122237D03*
Y117722D03*
Y115163D03*
X72227Y127355D03*
X77332Y135032D03*
X66806Y128822D03*
X66605Y131495D03*
X66500Y136000D03*
X74786Y127355D03*
Y129914D03*
X72227D03*
Y132473D03*
X74786D03*
X77345D03*
X72638Y142400D03*
X70806Y143106D03*
X73963Y143950D03*
X75900D03*
X77804Y143900D03*
X69100Y159564D03*
X69000Y162500D03*
X72908Y169008D03*
X72500Y175000D03*
X69800Y164800D03*
X85000Y13600D03*
X87092Y23992D03*
X80200Y18008D03*
X80500Y26000D03*
X79100Y34100D03*
X89000Y53000D03*
X78800Y42900D03*
X84192Y51392D03*
X87700Y60900D03*
X81500Y59100D03*
X78800Y57100D03*
X78417Y84400D03*
X88900Y84200D03*
X81850Y82500D03*
X86000Y86000D03*
X78323Y88300D03*
X85022Y102422D03*
X82463Y104927D03*
X85022D03*
X89538Y107349D03*
X89537Y104927D03*
X79904D03*
Y112604D03*
X79903Y107349D03*
X82463Y112604D03*
X82462Y107349D03*
X85022Y112604D03*
X85021Y107349D03*
X89537Y112604D03*
X79904Y124796D03*
Y122237D03*
X82463Y124796D03*
Y122237D03*
X85022Y124796D03*
Y122237D03*
X89537Y124796D03*
Y122237D03*
X79904Y117722D03*
Y115163D03*
X82463Y117722D03*
Y115163D03*
X85022Y117722D03*
Y115163D03*
X89537Y117722D03*
Y115163D03*
X79904Y132473D03*
X82463D03*
X85022D03*
X89700Y135673D03*
X89537Y132473D03*
X85022Y129914D03*
X89537D03*
X79904D03*
X82463D03*
X85800Y139200D03*
X81622Y144078D03*
X86100Y147300D03*
X80691Y145735D03*
X87600Y146300D03*
X84600Y145600D03*
X79626Y144115D03*
X82692Y169008D03*
X83992Y174992D03*
X80300Y163700D03*
X90500Y10050D03*
X102380Y25520D03*
X101900Y18508D03*
X101000Y34000D03*
X100500Y42700D03*
X98600Y48900D03*
X100500Y56900D03*
X96120Y62563D03*
X91992Y64792D03*
X94382Y68500D03*
X101300Y85300D03*
X93679Y86750D03*
X99047Y84854D03*
X91779Y86750D03*
X96800Y86000D03*
X98400Y97800D03*
X96502Y97906D03*
X93000Y99000D03*
X91121Y98709D03*
X94600Y98300D03*
X90500Y91500D03*
X99773Y112604D03*
Y104927D03*
X92096D03*
X99773Y110045D03*
X97215Y107349D03*
X97214Y104927D03*
X94655D03*
X94656Y107349D03*
X92097D03*
X97214Y112604D03*
X92096D03*
X99773Y117722D03*
Y115163D03*
Y124796D03*
Y122237D03*
X97214D03*
Y124796D03*
X92096D03*
Y122237D03*
Y117722D03*
Y115163D03*
X97214Y117722D03*
Y115163D03*
X92096Y129914D03*
Y132473D03*
X99773D03*
Y129914D03*
X94655D03*
Y132473D03*
X97214D03*
Y129914D03*
Y127355D03*
X98321Y139679D03*
X100500Y141600D03*
X94600Y143900D03*
X92700Y143300D03*
X99400Y155200D03*
X101500Y158700D03*
X92392Y169008D03*
X101400Y163700D03*
X92500Y175000D03*
X100492Y174992D03*
X91100Y163700D03*
X99592Y169008D03*
X112279Y12379D03*
X107300Y13600D03*
X108708Y24492D03*
X108292Y18508D03*
X111000Y36000D03*
X106500Y51292D03*
X103600Y64000D03*
X108108Y64392D03*
X114092Y64492D03*
X103000Y86200D03*
X111000Y86000D03*
X106000Y85900D03*
X111200Y101700D03*
X106100Y101000D03*
X108897Y114298D03*
X106200Y112573D03*
X107297Y106772D03*
X107032Y105295D03*
X106900Y103800D03*
X107800Y111900D03*
X112432Y107121D03*
X108592Y118498D03*
X105051Y117710D03*
X106937Y115740D03*
X108423Y117007D03*
X105500Y125100D03*
X105682Y122292D03*
X103082Y119932D03*
X106418Y123818D03*
X112700Y120400D03*
X112131Y116779D03*
X112594Y132418D03*
X112131Y130069D03*
X110679Y147200D03*
X109121Y148500D03*
X104600Y140679D03*
X109500Y156200D03*
X109000Y158500D03*
X102900Y155000D03*
X126600Y15779D03*
Y9500D03*
Y23300D03*
Y29600D03*
Y38100D03*
X118495Y42800D03*
X121200Y46900D03*
X117521Y55721D03*
X122192Y55092D03*
X122300Y59600D03*
X126000Y86200D03*
X116000Y85900D03*
X121000Y86100D03*
Y94300D03*
X126000Y94500D03*
X117400Y94079D03*
X120100Y98605D03*
X121800Y100050D03*
X126100Y100000D03*
X116500Y98605D03*
Y101705D03*
X118430Y110480D03*
X121100Y105500D03*
X118430Y107331D03*
Y113630D03*
Y116779D03*
X118499Y126549D03*
X115476Y126550D03*
X118430Y123770D03*
X115322Y123450D03*
X122500Y120400D03*
X115400Y132450D03*
X121795Y132895D03*
X121700Y129000D03*
X126000Y138200D03*
X119500Y133000D03*
X124600Y147600D03*
X122618Y148200D03*
X121000Y158300D03*
X115700Y160500D03*
X115600Y155000D03*
X119500Y166800D03*
X116000Y163700D03*
X131600Y16000D03*
Y9600D03*
X129733Y29133D03*
X134100Y24100D03*
X138300Y23900D03*
X135300Y36600D03*
X136000Y86500D03*
X131000Y86200D03*
Y94500D03*
X136000D03*
X132500Y102250D03*
X134453Y107305D03*
X128570Y107331D03*
Y113630D03*
X131500Y107600D03*
X134521Y110387D03*
X134579Y113478D03*
X131720Y113630D03*
X127900Y109662D03*
X127120Y118700D03*
X134869Y116779D03*
X131720D03*
Y123770D03*
Y120621D03*
X137900Y120400D03*
X128570Y116779D03*
X134869Y130069D03*
X127308Y131250D03*
X131720Y126920D03*
X132503Y137600D03*
X127100Y133000D03*
X134869Y126920D03*
X127300Y127750D03*
X136100Y133750D03*
X136000Y147800D03*
X136100Y141500D03*
X132413Y139498D03*
X129500Y150000D03*
X131000Y148500D03*
X131700Y146500D03*
X143608Y9908D03*
X149592Y10008D03*
X140600Y18600D03*
X141563Y24163D03*
X140400Y36600D03*
X147584Y35084D03*
X140400Y46900D03*
X149553Y62100D03*
X145616Y60400D03*
X143647Y58200D03*
X149500Y84300D03*
X145692Y93192D03*
X149226Y111326D03*
X145100Y110200D03*
X149124Y108176D03*
X148900Y123000D03*
X139900Y118700D03*
X148900Y127000D03*
X145200Y130200D03*
X140000Y135000D03*
X142500Y138700D03*
X148650Y129250D03*
X140725Y142924D03*
X140900Y144800D03*
X155500Y14000D03*
X160600Y23100D03*
X153496Y19004D03*
X151437Y24163D03*
X157700Y29800D03*
X153500Y33800D03*
X161539Y29603D03*
X158100Y58200D03*
X154500Y84300D03*
X159500Y84500D03*
Y95800D03*
X154500Y95900D03*
X158400Y105300D03*
X158900Y109651D03*
X152901Y119400D03*
X162101Y128600D03*
X155900Y131600D03*
X162500Y146500D03*
X157500D03*
Y148579D03*
X162500D03*
X165075Y29405D03*
X168275Y29468D03*
X166854Y46433D03*
X173700Y45900D03*
X163500Y46095D03*
X165075Y46075D03*
X170600Y46300D03*
X171792Y55792D03*
X170650Y90150D03*
X173600Y114700D03*
X168150Y125200D03*
X174286Y118914D03*
X174100Y117100D03*
X165300Y116049D03*
X166874Y133600D03*
X167500Y146400D03*
X173600Y149400D03*
X174300Y151200D03*
X167500Y148579D03*
X175347Y152665D03*
X180300Y156400D03*
X176200Y154300D03*
X250450Y72000D03*
G54D11*
X38500Y5000D03*
Y15000D03*
Y25000D03*
Y35000D03*
Y55000D03*
Y45000D03*
Y65000D03*
Y75000D03*
Y85000D03*
Y105000D03*
Y95000D03*
Y115000D03*
Y125000D03*
Y135000D03*
Y145000D03*
Y165000D03*
Y155000D03*
Y175000D03*
Y185000D03*
Y195000D03*
X48500Y5000D03*
Y15000D03*
Y25000D03*
Y35000D03*
Y55000D03*
Y45000D03*
Y65000D03*
Y75000D03*
Y85000D03*
Y105000D03*
Y95000D03*
Y115000D03*
Y125000D03*
Y135000D03*
Y145000D03*
Y165000D03*
Y155000D03*
Y175000D03*
Y185000D03*
Y195000D03*
X59500Y184900D03*
Y194900D03*
X79500Y184900D03*
X69500D03*
X79500Y194900D03*
X69500D03*
X89500Y184900D03*
Y194900D03*
X99500Y184900D03*
Y194900D03*
X109500Y184900D03*
Y194900D03*
X119500Y184900D03*
Y194900D03*
X140300Y163200D03*
Y173200D03*
X139500Y184900D03*
X129500D03*
X139500Y194900D03*
X129500D03*
X150300Y163200D03*
Y173200D03*
X149500Y184900D03*
Y194900D03*
X160300Y163200D03*
Y173200D03*
X170300Y163200D03*
Y173200D03*
X179100Y16100D03*
Y26100D03*
Y36100D03*
Y46100D03*
X190300Y163200D03*
X180300D03*
X190300Y173200D03*
X180300D03*
X250450Y47000D03*
G54D12*
G01X205500Y34500D02*
Y159500D01*
X689100D01*
Y34500D01*
X205500D01*
G01Y59500D02*
X689100D01*
G01X205500Y84500D02*
X689100D01*
G01X205500Y109500D02*
X689100D01*
G01X205500Y134500D02*
X689100D01*
G01X216505Y90750D02*
Y103250D01*
X222395D01*
G01X220225Y97208D02*
X216505D01*
G01X229990Y103250D02*
X233710D01*
G01X231850D02*
Y90750D01*
G01X229990D02*
X233710D01*
G01X245180Y97000D02*
X248280D01*
Y93250D01*
X247350Y92000D01*
X246265Y91167D01*
X244715Y90750D01*
X243165Y91167D01*
X242080Y92000D01*
X241150Y93250D01*
X240530Y94708D01*
X240220Y96375D01*
Y97833D01*
X240530Y99083D01*
X241150Y100542D01*
X242080Y101792D01*
X243010Y102625D01*
X244250Y103250D01*
X245335D01*
X246575Y102833D01*
X247505Y102000D01*
G01X253240Y103250D02*
Y94292D01*
X253860Y92416D01*
X255100Y91167D01*
X256650Y90750D01*
X258200Y91167D01*
X259440Y92416D01*
X260060Y94292D01*
Y103250D01*
G01X265950Y90750D02*
Y103250D01*
X269825D01*
X271065Y102625D01*
X271840Y101792D01*
X272150Y100125D01*
X271840Y98458D01*
X270910Y97417D01*
X269825Y96792D01*
X265950D01*
G01X269825D02*
X272150Y90750D01*
G01X284550D02*
X278350D01*
Y103250D01*
X284550D01*
G01X282070Y97208D02*
X278350D01*
G01X295400Y109500D02*
Y34500D01*
G01X288890Y140750D02*
Y153250D01*
X291990D01*
X293230Y152625D01*
X294160Y151792D01*
X294935Y150542D01*
X295555Y149083D01*
X295710Y147000D01*
X295555Y144917D01*
X294935Y143458D01*
X294160Y142208D01*
X293230Y141375D01*
X291990Y140750D01*
X288890D01*
G01X301600D02*
Y153250D01*
X305475D01*
X306715Y152625D01*
X307490Y151792D01*
X307800Y150125D01*
X307490Y148458D01*
X306560Y147417D01*
X305475Y146792D01*
X301600D01*
G01X305475D02*
X307800Y140750D01*
G01X315240Y153250D02*
X318960D01*
G01X317100D02*
Y140750D01*
G01X315240D02*
X318960D01*
G01X326400Y153250D02*
Y140750D01*
X332600D01*
G01X338800Y153250D02*
Y140750D01*
X345000D01*
G01X370110Y152208D02*
X369180Y152833D01*
X368095Y153250D01*
X366855D01*
X365460Y152625D01*
X364375Y151583D01*
X363600Y150333D01*
X362980Y148250D01*
X362825Y146375D01*
X363135Y144500D01*
X363600Y143250D01*
X364530Y142000D01*
X365615Y141167D01*
X366700Y140750D01*
X367785D01*
X368870Y141167D01*
X369800Y141791D01*
X370575Y142625D01*
G01X375845Y140750D02*
Y153250D01*
G01X382355D02*
Y140750D01*
G01Y147000D02*
X375845D01*
G01X387625Y140750D02*
X391500Y153250D01*
X395375Y140750D01*
G01X393980Y145125D02*
X389020D01*
G01X400800Y140750D02*
Y153250D01*
X404675D01*
X405915Y152625D01*
X406690Y151792D01*
X407000Y150125D01*
X406690Y148458D01*
X405760Y147417D01*
X404675Y146792D01*
X400800D01*
G01X404675D02*
X407000Y140750D01*
G01X416300Y153250D02*
Y140750D01*
G01X412735Y153250D02*
X419865D01*
G01X428700Y140333D02*
X428390Y140542D01*
Y140958D01*
X428700Y141167D01*
X429010Y140958D01*
Y140542D01*
X428700Y140333D01*
G01Y145958D02*
X428390Y146167D01*
Y146583D01*
X428700Y146792D01*
X429010Y146583D01*
Y146167D01*
X428700Y145958D01*
G01X453500Y153250D02*
Y140750D01*
G01X449935Y153250D02*
X457065D01*
G01X465900Y140750D02*
X464660Y140958D01*
X463575Y141791D01*
X462645Y143042D01*
X462025Y144500D01*
X461715Y146167D01*
Y147833D01*
X462025Y149500D01*
X462645Y150958D01*
X463575Y152208D01*
X464660Y153042D01*
X465900Y153250D01*
X467140Y153042D01*
X468225Y152208D01*
X469155Y150958D01*
X469775Y149500D01*
X470085Y147833D01*
Y146167D01*
X469775Y144500D01*
X469155Y143042D01*
X468225Y141791D01*
X467140Y140958D01*
X465900Y140750D01*
G01X475200D02*
Y153250D01*
X478920D01*
X480160Y152625D01*
X481090Y151167D01*
X481400Y149500D01*
X481090Y147833D01*
X480315Y146583D01*
X478920Y145958D01*
X475200D01*
G01X503100Y153250D02*
Y140750D01*
G01X500930Y149083D02*
X505270D01*
G01X515500Y140750D02*
X514570Y140958D01*
X513640Y141791D01*
X513020Y143250D01*
X512710Y144917D01*
X513020Y146583D01*
X513640Y148042D01*
X514570Y148875D01*
X515500Y149083D01*
X516430Y148875D01*
X517360Y148042D01*
X517980Y146583D01*
X518135Y144917D01*
X517980Y143250D01*
X517360Y141791D01*
X516430Y140958D01*
X515500Y140750D01*
G01X541540Y147417D02*
X542160Y148042D01*
X542625Y149083D01*
X542935Y150542D01*
X542625Y151792D01*
X542005Y152625D01*
X540920Y153250D01*
X536735D01*
Y140750D01*
X541850D01*
X542935Y141583D01*
X543555Y142833D01*
X543865Y144292D01*
X543555Y145750D01*
X542625Y147000D01*
X541540Y147417D01*
X536735D01*
G01X552700Y140750D02*
X551460Y140958D01*
X550375Y141791D01*
X549445Y143042D01*
X548825Y144500D01*
X548515Y146167D01*
Y147833D01*
X548825Y149500D01*
X549445Y150958D01*
X550375Y152208D01*
X551460Y153042D01*
X552700Y153250D01*
X553940Y153042D01*
X555025Y152208D01*
X555955Y150958D01*
X556575Y149500D01*
X556885Y147833D01*
Y146167D01*
X556575Y144500D01*
X555955Y143042D01*
X555025Y141791D01*
X553940Y140958D01*
X552700Y140750D01*
G01X565100Y153250D02*
Y140750D01*
G01X561535Y153250D02*
X568665D01*
G01X577500D02*
Y140750D01*
G01X573935Y153250D02*
X581065D01*
G01X589900Y140750D02*
X588660Y140958D01*
X587575Y141791D01*
X586645Y143042D01*
X586025Y144500D01*
X585715Y146167D01*
Y147833D01*
X586025Y149500D01*
X586645Y150958D01*
X587575Y152208D01*
X588660Y153042D01*
X589900Y153250D01*
X591140Y153042D01*
X592225Y152208D01*
X593155Y150958D01*
X593775Y149500D01*
X594085Y147833D01*
Y146167D01*
X593775Y144500D01*
X593155Y143042D01*
X592225Y141791D01*
X591140Y140958D01*
X589900Y140750D01*
G01X598270D02*
Y153250D01*
X602300Y142833D01*
X606330Y153250D01*
Y140750D01*
G01X319425Y115750D02*
X323300Y128250D01*
X327175Y115750D01*
G01X325780Y120125D02*
X320820D01*
G01X332600Y128250D02*
Y115750D01*
X338800D01*
G01X345000Y128250D02*
Y115750D01*
X351200D01*
G01X369490Y128250D02*
Y119292D01*
X370110Y117416D01*
X371350Y116167D01*
X372900Y115750D01*
X374450Y116167D01*
X375690Y117416D01*
X376310Y119292D01*
Y128250D01*
G01X381735Y115750D02*
Y128250D01*
X388865Y115750D01*
Y128250D01*
G01X395840D02*
X399560D01*
G01X397700D02*
Y115750D01*
G01X395840D02*
X399560D01*
G01X410100Y128250D02*
Y115750D01*
G01X406535Y128250D02*
X413665D01*
G01X419245Y117416D02*
X420485Y116375D01*
X421880Y115750D01*
X423120D01*
X424360Y116375D01*
X425290Y117416D01*
X425755Y118875D01*
X425445Y120333D01*
X424670Y121583D01*
X423275Y122417D01*
X421415Y122833D01*
X420330Y123667D01*
X419865Y125125D01*
X420175Y126583D01*
X420950Y127625D01*
X422035Y128250D01*
X423120D01*
X424205Y127833D01*
X425135Y126792D01*
G01X443425Y115750D02*
X447300Y128250D01*
X451175Y115750D01*
G01X449780Y120125D02*
X444820D01*
G01X456600Y115750D02*
Y128250D01*
X460475D01*
X461715Y127625D01*
X462490Y126792D01*
X462800Y125125D01*
X462490Y123458D01*
X461560Y122417D01*
X460475Y121792D01*
X456600D01*
G01X460475D02*
X462800Y115750D01*
G01X475200D02*
X469000D01*
Y128250D01*
X475200D01*
G01X472720Y122208D02*
X469000D01*
G01X495040Y128250D02*
X498760D01*
G01X496900D02*
Y115750D01*
G01X495040D02*
X498760D01*
G01X505735D02*
Y128250D01*
X512865Y115750D01*
Y128250D01*
G01X530070Y115750D02*
Y128250D01*
X534100Y117833D01*
X538130Y128250D01*
Y115750D01*
G01X544640Y128250D02*
X548360D01*
G01X546500D02*
Y115750D01*
G01X544640D02*
X548360D01*
G01X555800Y128250D02*
Y115750D01*
X562000D01*
G01X568045Y117416D02*
X569285Y116375D01*
X570680Y115750D01*
X571920D01*
X573160Y116375D01*
X574090Y117416D01*
X574555Y118875D01*
X574245Y120333D01*
X573470Y121583D01*
X572075Y122417D01*
X570215Y122833D01*
X569130Y123667D01*
X568665Y125125D01*
X568975Y126583D01*
X569750Y127625D01*
X570835Y128250D01*
X571920D01*
X573005Y127833D01*
X573935Y126792D01*
G01X367010Y40750D02*
Y53250D01*
X361275Y44292D01*
X369025D01*
G01X377550Y40750D02*
Y53250D01*
X375690Y50750D01*
G01Y40750D02*
X379410D01*
G01X389950Y40333D02*
X389640Y40542D01*
Y40958D01*
X389950Y41167D01*
X390260Y40958D01*
Y40542D01*
X389950Y40333D01*
G01X398940Y43250D02*
X399870Y41791D01*
X401110Y40958D01*
X402505Y40750D01*
X403745Y40958D01*
X404985Y42000D01*
X405760Y43250D01*
X405915Y44500D01*
X405605Y45958D01*
X404520Y47000D01*
X403435Y47417D01*
X402040D01*
G01X403435D02*
X404365Y48042D01*
X405140Y49083D01*
X405450Y50333D01*
X405140Y51583D01*
X404365Y52625D01*
X402970Y53250D01*
X401575Y53042D01*
X400180Y52208D01*
G01X416610Y40750D02*
Y53250D01*
X410875Y44292D01*
X418625D01*
G01X368095Y92416D02*
X369335Y91375D01*
X370730Y90750D01*
X371970D01*
X373210Y91375D01*
X374140Y92416D01*
X374605Y93875D01*
X374295Y95333D01*
X373520Y96583D01*
X372125Y97417D01*
X370265Y97833D01*
X369180Y98667D01*
X368715Y100125D01*
X369025Y101583D01*
X369800Y102625D01*
X370885Y103250D01*
X371970D01*
X373055Y102833D01*
X373985Y101792D01*
G01X381890Y103250D02*
X385610D01*
G01X383750D02*
Y90750D01*
G01X381890D02*
X385610D01*
G01X393205Y103250D02*
X399095D01*
X393205Y90750D01*
X399095D01*
G01X411650D02*
X405450D01*
Y103250D01*
X411650D01*
G01X409170Y97208D02*
X405450D01*
G01X377550Y65750D02*
X378635Y65958D01*
X379875Y66583D01*
X380650Y67625D01*
X380960Y69083D01*
X380650Y70541D01*
X379720Y71792D01*
X378325Y72417D01*
X376775D01*
X375845Y72833D01*
X375070Y73875D01*
X374760Y75333D01*
X375225Y76792D01*
X376310Y77833D01*
X377550Y78250D01*
X378790Y77833D01*
X379875Y76792D01*
X380340Y75333D01*
X380030Y73875D01*
X379255Y72833D01*
X378325Y72417D01*
X376775D01*
X375380Y71792D01*
X374450Y70541D01*
X374140Y69083D01*
X374450Y67625D01*
X375225Y66583D01*
X376465Y65958D01*
X377550Y65750D01*
G01X389950Y65333D02*
X389640Y65542D01*
Y65958D01*
X389950Y66167D01*
X390260Y65958D01*
Y65542D01*
X389950Y65333D01*
G01X402350Y78250D02*
X401110Y77833D01*
X400180Y76792D01*
X399560Y75542D01*
X399095Y73875D01*
X398940Y72000D01*
X399095Y70125D01*
X399560Y68458D01*
X400180Y67208D01*
X401110Y66167D01*
X402350Y65750D01*
X403590Y66167D01*
X404520Y67208D01*
X405140Y68458D01*
X405605Y70125D01*
X405760Y72000D01*
X405605Y73875D01*
X405140Y75542D01*
X404520Y76792D01*
X403590Y77833D01*
X402350Y78250D01*
G01X484500Y109500D02*
Y34500D01*
G01X513950Y40750D02*
Y53250D01*
X517670D01*
X518910Y52625D01*
X519840Y51167D01*
X520150Y49500D01*
X519840Y47833D01*
X519065Y46583D01*
X517670Y45958D01*
X513950D01*
G01X526350Y53250D02*
Y40750D01*
X532550D01*
G01X537975D02*
X541850Y53250D01*
X545725Y40750D01*
G01X544330Y45125D02*
X539370D01*
G01X554250Y53250D02*
Y40750D01*
G01X550685Y53250D02*
X557815D01*
G01X569750Y40750D02*
X563550D01*
Y53250D01*
X569750D01*
G01X567270Y47208D02*
X563550D01*
G01X575640Y40750D02*
Y53250D01*
X578740D01*
X579980Y52625D01*
X580910Y51792D01*
X581685Y50542D01*
X582305Y49083D01*
X582460Y47000D01*
X582305Y44917D01*
X581685Y43458D01*
X580910Y42208D01*
X579980Y41375D01*
X578740Y40750D01*
X575640D01*
G01X513950Y65750D02*
Y78250D01*
X517670D01*
X518910Y77625D01*
X519840Y76167D01*
X520150Y74500D01*
X519840Y72833D01*
X519065Y71583D01*
X517670Y70958D01*
X513950D01*
G01X526350Y78250D02*
Y65750D01*
X532550D01*
G01X537975D02*
X541850Y78250D01*
X545725Y65750D01*
G01X544330Y70125D02*
X539370D01*
G01X554250Y78250D02*
Y65750D01*
G01X550685Y78250D02*
X557815D01*
G01X569750Y65750D02*
X563550D01*
Y78250D01*
X569750D01*
G01X567270Y72208D02*
X563550D01*
G01X575640Y65750D02*
Y78250D01*
X578740D01*
X579980Y77625D01*
X580910Y76792D01*
X581685Y75542D01*
X582305Y74083D01*
X582460Y72000D01*
X582305Y69917D01*
X581685Y68458D01*
X580910Y67208D01*
X579980Y66375D01*
X578740Y65750D01*
X575640D01*
G01X513950Y90750D02*
Y103250D01*
X517670D01*
X518910Y102625D01*
X519840Y101167D01*
X520150Y99500D01*
X519840Y97833D01*
X519065Y96583D01*
X517670Y95958D01*
X513950D01*
G01X526350Y103250D02*
Y90750D01*
X532550D01*
G01X537975D02*
X541850Y103250D01*
X545725Y90750D01*
G01X544330Y95125D02*
X539370D01*
G01X554250Y103250D02*
Y90750D01*
G01X550685Y103250D02*
X557815D01*
G01X569750Y90750D02*
X563550D01*
Y103250D01*
X569750D01*
G01X567270Y97208D02*
X563550D01*
G01X575640Y90750D02*
Y103250D01*
X578740D01*
X579980Y102625D01*
X580910Y101792D01*
X581685Y100542D01*
X582305Y99083D01*
X582460Y97000D01*
X582305Y94917D01*
X581685Y93458D01*
X580910Y92208D01*
X579980Y91375D01*
X578740Y90750D01*
X575640D01*
G01X611600Y109500D02*
Y34500D01*
G01X639810Y65750D02*
Y78250D01*
X634075Y69292D01*
X641825D01*
G01X647405Y76167D02*
X648335Y77416D01*
X649420Y78042D01*
X650660Y78250D01*
X652210Y77833D01*
X653295Y76792D01*
X653605Y75542D01*
X653450Y74291D01*
X652830Y73250D01*
X649730Y71167D01*
X648335Y69708D01*
X647405Y67625D01*
X647095Y65750D01*
X653605D01*
G01X659805Y76167D02*
X660735Y77416D01*
X661820Y78042D01*
X663060Y78250D01*
X664610Y77833D01*
X665695Y76792D01*
X666005Y75542D01*
X665850Y74291D01*
X665230Y73250D01*
X662130Y71167D01*
X660735Y69708D01*
X659805Y67625D01*
X659495Y65750D01*
X666005D01*
G01X637950Y90750D02*
X636710Y90958D01*
X635625Y91791D01*
X634695Y93042D01*
X634075Y94500D01*
X633765Y96167D01*
Y97833D01*
X634075Y99500D01*
X634695Y100958D01*
X635625Y102208D01*
X636710Y103042D01*
X637950Y103250D01*
X639190Y103042D01*
X640275Y102208D01*
X641205Y100958D01*
X641825Y99500D01*
X642135Y97833D01*
Y96167D01*
X641825Y94500D01*
X641205Y93042D01*
X640275Y91791D01*
X639190Y90958D01*
X637950Y90750D01*
G01X639190Y94083D02*
X641050Y90750D01*
G01X650350Y103250D02*
Y90750D01*
G01X646785Y103250D02*
X653915D01*
G01X662750Y90750D02*
Y96375D01*
X659650Y103250D01*
G01X665850D02*
X662750Y96375D01*
G01X643840Y40750D02*
X644150Y43458D01*
X644615Y45750D01*
X645235Y47833D01*
X646010Y50125D01*
X647250Y53250D01*
X641050D01*
G01X653605Y45958D02*
X654690Y47417D01*
X655620Y48250D01*
X656860Y48667D01*
X657945Y48250D01*
X658720Y47417D01*
X659340Y46167D01*
X659495Y44708D01*
X659340Y43458D01*
X658720Y42208D01*
X657790Y41167D01*
X656705Y40750D01*
X655465Y41167D01*
X654380Y42416D01*
X653760Y44292D01*
X653605Y46375D01*
X653915Y49083D01*
X654380Y50542D01*
X655155Y52000D01*
X656240Y53042D01*
X657325Y53250D01*
X658410Y52833D01*
X659185Y51792D01*
M02*
