G04 ================== begin FILE IDENTIFICATION RECORD ==================*
G04 Layout Name:  E:/material/glass/pcb/test-stm32f429/pcb/f429.brd*
G04 Film Name:    PASTEMASK_BOTTOM*
G04 File Format:  Gerber RS274X*
G04 File Origin:  Cadence Allegro 16.6-S049*
G04 Origin Date:  Wed Oct 14 16:51:38 2015*
G04 *
G04 Layer:  VIA CLASS/PASTEMASK_BOTTOM*
G04 Layer:  PIN/PASTEMASK_BOTTOM*
G04 Layer:  PACKAGE GEOMETRY/PASTEMASK_BOTTOM*
G04 *
G04 Offset:    (0.00 0.00)*
G04 Mirror:    No*
G04 Mode:      Positive*
G04 Rotation:  0*
G04 FullContactRelief:  No*
G04 UndefLineWidth:     0.00*
G04 ================== end FILE IDENTIFICATION RECORD ====================*
%FSLAX25Y25*MOIN*%
%IR0*IPPOS*OFA0.00000B0.00000*MIA0B0*SFA1.00000B1.00000*%
%ADD10R,.12X.06*%
%ADD11C,.011*%
%ADD16C,.01575*%
%ADD13C,.06299*%
%ADD14R,.06299X.06299*%
%ADD12R,.08X.01*%
%ADD15C,.00984*%
%LPD*%
G75*
G54D10*
X11070Y89069D03*
Y143793D03*
G54D11*
Y83000D03*
X14761Y95761D03*
X14770Y97730D03*
X16085Y117415D03*
X15600Y137100D03*
X15631Y135131D03*
X11070Y149370D03*
X27667Y101667D03*
X27508Y105675D03*
X27665Y103635D03*
X27400Y107572D03*
X21000Y143000D03*
X21200Y155300D03*
X21500Y174500D03*
X25992Y165008D03*
X31000Y59500D03*
X29992Y90592D03*
X34000Y170800D03*
X42000Y111500D03*
X50150Y120703D03*
X43500Y157500D03*
X51000Y171000D03*
X62500Y28000D03*
X55000Y44500D03*
X64500Y82900D03*
X65700Y97445D03*
X62500Y93000D03*
X63150Y104650D03*
X60863Y104562D03*
X65100Y104800D03*
X65400Y110200D03*
X64953Y102753D03*
X62500Y119500D03*
X65900Y116141D03*
X59000Y121700D03*
X61800Y126700D03*
X63700Y127500D03*
X59050Y132294D03*
X58996Y130149D03*
X61392Y136107D03*
X57525Y138346D03*
X58554Y146919D03*
X57500Y148500D03*
X65500Y141355D03*
X61200Y140800D03*
X59206Y140003D03*
X56799Y140102D03*
X59500Y142000D03*
X59000Y156000D03*
X58664Y153664D03*
X61608Y161192D03*
X57546Y175143D03*
X59000Y164800D03*
X59600Y179900D03*
X55600Y180500D03*
X55550Y178050D03*
X76500Y49200D03*
X68250Y72250D03*
X67947Y84154D03*
X72700Y90584D03*
X68450Y91250D03*
X69645Y110045D03*
X74786Y112604D03*
X72227Y110045D03*
Y112604D03*
X69427Y107365D03*
X72227Y107486D03*
X77345D03*
X77435Y104985D03*
X74422Y104729D03*
X66500Y105905D03*
X66046Y113191D03*
X72227Y115163D03*
Y117722D03*
Y122237D03*
X69398Y125233D03*
X69668Y122232D03*
X66718Y123818D03*
X74786Y124560D03*
X72227D03*
X74786Y122237D03*
Y117722D03*
Y115163D03*
X72227Y127360D03*
X77420Y135140D03*
X66545Y128936D03*
Y131495D03*
X66571Y135570D03*
X74786Y127360D03*
Y129914D03*
X72238Y129540D03*
X72227Y132340D03*
X74786D03*
X77300Y132330D03*
X71148Y142054D03*
X69500Y143000D03*
X72500Y144000D03*
X75000D03*
X77200D03*
X69100Y159564D03*
X69000Y162500D03*
X72908Y169008D03*
X72500Y175000D03*
X69800Y164800D03*
X85000Y13600D03*
X87092Y23992D03*
X80200Y18008D03*
X80500Y26000D03*
X79100Y34100D03*
X89000Y53000D03*
X78800Y42900D03*
X84192Y51392D03*
X81500Y59100D03*
X87700Y60900D03*
X78800Y57100D03*
X78417Y84400D03*
X88900Y84200D03*
X81850Y82500D03*
X85949Y86000D03*
X78323Y88300D03*
X85022Y102422D03*
X89538Y107349D03*
X85022Y104927D03*
X82463D03*
X89305Y104894D03*
X79904Y104927D03*
Y112604D03*
X79903Y107349D03*
X82463Y112604D03*
X82462Y107349D03*
X85022Y112604D03*
X85021Y107349D03*
X89537Y112604D03*
X89820Y121259D03*
X89850Y123818D03*
X79904Y124796D03*
Y122237D03*
X82463Y124796D03*
Y122237D03*
X85022Y124796D03*
Y122237D03*
X79904Y117722D03*
Y115163D03*
X82463Y117722D03*
Y115163D03*
X85022Y117722D03*
Y115163D03*
X89537Y117722D03*
Y115163D03*
X82700Y132460D03*
X86602Y132470D03*
X89840Y135250D03*
X89402Y132338D03*
X85022Y129914D03*
X89537D03*
X79904D03*
X82463D03*
X86360Y139470D03*
X81000Y144000D03*
X86100Y147300D03*
X82054Y145581D03*
X87697Y146040D03*
X84500Y146000D03*
X79100Y143998D03*
X82692Y169008D03*
X83992Y174992D03*
X80300Y163700D03*
X90500Y10050D03*
X102380Y25520D03*
X101900Y18508D03*
X101000Y34000D03*
X100500Y42700D03*
X98600Y48900D03*
X100500Y56900D03*
X91992Y64792D03*
X96120Y62563D03*
X94382Y68500D03*
X101300Y85300D03*
X93679Y86750D03*
X99047Y84854D03*
X91779Y86750D03*
X96800Y86000D03*
X98376Y97590D03*
X96502Y97906D03*
X93000Y99000D03*
X91131Y98698D03*
X94483Y97500D03*
X90500Y91500D03*
X99979Y112594D03*
X100014Y104765D03*
X92105Y104721D03*
X99863Y109794D03*
X97215Y107349D03*
X97214Y104927D03*
X94414Y105060D03*
X94656Y107349D03*
X92097D03*
X97214Y112604D03*
X92096D03*
X99773Y115163D03*
Y124720D03*
X97932Y122122D03*
X94660Y121259D03*
X91865Y125745D03*
X94750Y123818D03*
X92480Y121259D03*
X92390Y123818D03*
X92096Y117722D03*
Y115163D03*
X97214Y117722D03*
Y115163D03*
X94680Y125810D03*
X92256Y129977D03*
X92480Y132857D03*
X100116Y132649D03*
X99773Y129650D03*
X94655D03*
X94377Y132513D03*
X97316Y132550D03*
X97214Y129650D03*
X98574Y139927D03*
X94754Y144108D03*
X100500Y141600D03*
X92897Y143703D03*
X99400Y155200D03*
X101500Y158700D03*
X101400Y163700D03*
X92392Y169008D03*
X92500Y175000D03*
X100492Y174992D03*
X99592Y169008D03*
X91100Y163700D03*
X112279Y12379D03*
X107300Y13600D03*
X108708Y24492D03*
X108292Y18508D03*
X111000Y36000D03*
X106500Y51292D03*
X108108Y64392D03*
X103600Y64000D03*
X114092Y64492D03*
X103000Y86200D03*
X106000Y85900D03*
X111000Y86000D03*
X111200Y101700D03*
X106100Y101000D03*
X108855Y114573D03*
X106396Y112502D03*
X107299Y107151D03*
X107301Y105401D03*
X106401Y103899D03*
X108000Y111800D03*
X108510Y118578D03*
X105204Y117605D03*
X107203Y115308D03*
X108309Y116839D03*
X106148Y125548D03*
X105670Y122500D03*
X102670Y119968D03*
X106900Y123818D03*
X112524Y120024D03*
X112388Y116639D03*
X112594Y132418D03*
X109452Y129848D03*
X110579Y147370D03*
X109077Y148534D03*
X105500Y140500D03*
X109500Y156200D03*
X109000Y158500D03*
X102900Y155000D03*
X126600Y15779D03*
Y9500D03*
Y23300D03*
Y29600D03*
Y38100D03*
X118495Y42800D03*
X121200Y46900D03*
X117521Y55721D03*
X122300Y59600D03*
X122192Y55092D03*
X121000Y86100D03*
X116000Y85900D03*
X126000Y86200D03*
X117400Y94079D03*
X126000Y94500D03*
X121000Y94300D03*
X120100Y98605D03*
X122000Y99500D03*
X126100Y100000D03*
X116500Y98605D03*
Y101705D03*
X118430Y110480D03*
X121100Y105500D03*
X118430Y107331D03*
X115800Y107500D03*
X118430Y113630D03*
Y116779D03*
X126500Y119500D03*
X118499Y126549D03*
X115476Y126550D03*
X118473Y123672D03*
X115322Y123450D03*
X122500Y120400D03*
X124500Y119500D03*
X115646Y132485D03*
X121500Y132895D03*
X121700Y129000D03*
X126000Y138200D03*
X119500Y132500D03*
X124500Y147500D03*
X123406Y149288D03*
X120000Y158500D03*
X115600Y155000D03*
X115700Y160500D03*
X119500Y166800D03*
X116000Y163700D03*
X131600Y16000D03*
Y9600D03*
X129733Y29133D03*
X134100Y24100D03*
X138300Y23900D03*
X135300Y36600D03*
X131000Y86200D03*
X136000Y86500D03*
Y94500D03*
X131000D03*
X132500Y102250D03*
X128570Y113630D03*
X138500Y107000D03*
X127600Y106700D03*
X131500Y107600D03*
X138765Y113665D03*
X131425Y113925D03*
X127900Y109662D03*
X134574Y117074D03*
X131720Y116779D03*
Y123770D03*
Y120621D03*
X137900Y120400D03*
X128570Y116779D03*
X134869Y130069D03*
X127308Y131250D03*
X131720Y126920D03*
X132503Y137600D03*
X127500Y133000D03*
X134869Y126920D03*
X127000Y127500D03*
X136100Y133500D03*
X136000Y147800D03*
X136100Y141500D03*
X132413Y139498D03*
X133000Y150500D03*
X131000Y148500D03*
X131700Y146500D03*
X143608Y9908D03*
X149592Y10008D03*
X140600Y18600D03*
X141563Y24163D03*
X140400Y36600D03*
X147584Y35084D03*
X140400Y46900D03*
X149553Y62100D03*
X145616Y60400D03*
X143647Y58200D03*
X149500Y84300D03*
X145692Y93192D03*
X149226Y111326D03*
X147024Y109926D03*
X140080Y110820D03*
X149124Y108176D03*
X148900Y123000D03*
X139900Y120400D03*
X148900Y127000D03*
X145200Y130200D03*
X140000Y135000D03*
X142500Y138700D03*
X148650Y129250D03*
X140500Y142500D03*
X140900Y144800D03*
X155500Y14000D03*
X161000Y28500D03*
X151437Y24163D03*
X153008Y20008D03*
X161000Y22000D03*
X157722Y29800D03*
X153500Y33800D03*
X158500Y59500D03*
X159500Y84500D03*
X154500Y84300D03*
X159500Y95800D03*
X154500Y95500D03*
X158500Y106000D03*
X158900Y109651D03*
X152901Y119400D03*
X162101Y128600D03*
X155900Y131600D03*
X157500Y146500D03*
X162500D03*
Y148579D03*
X157500D03*
X171000Y32000D03*
X165200Y29529D03*
X168000Y47500D03*
X173700Y45500D03*
X163520Y46433D03*
X165075Y46500D03*
X172650Y48350D03*
X173000Y56492D03*
X170750Y90250D03*
X173500Y114500D03*
X168150Y125200D03*
X174000Y119500D03*
Y117000D03*
X165300Y116049D03*
X166874Y133600D03*
X167500Y146400D03*
X173600Y149400D03*
X167500Y148579D03*
X174500Y151500D03*
X180300Y156400D03*
X176500Y154500D03*
X176304Y152303D03*
G54D12*
X21700Y95761D03*
Y97730D03*
Y99698D03*
Y101667D03*
Y103635D03*
Y105604D03*
Y107572D03*
Y109541D03*
Y111509D03*
Y113478D03*
Y115446D03*
Y117415D03*
Y119383D03*
Y121352D03*
Y123320D03*
Y125289D03*
Y127257D03*
Y129226D03*
Y131194D03*
Y133163D03*
Y135131D03*
Y137100D03*
G54D13*
X38500Y5000D03*
Y15000D03*
Y25000D03*
Y35000D03*
Y55000D03*
Y45000D03*
Y65000D03*
Y75000D03*
Y85000D03*
Y105000D03*
Y95000D03*
Y115000D03*
Y125000D03*
Y135000D03*
Y145000D03*
Y165000D03*
Y155000D03*
Y175000D03*
Y185000D03*
Y195000D03*
X48500Y15000D03*
Y25000D03*
Y35000D03*
Y55000D03*
Y45000D03*
Y65000D03*
Y75000D03*
Y85000D03*
Y105000D03*
Y95000D03*
Y115000D03*
Y125000D03*
Y135000D03*
Y145000D03*
Y165000D03*
Y155000D03*
Y175000D03*
Y185000D03*
Y195000D03*
X59500Y194900D03*
X79500Y184900D03*
X69500D03*
X79500Y194900D03*
X69500D03*
X89500Y184900D03*
Y194900D03*
X99500Y184900D03*
Y194900D03*
X109500Y184900D03*
Y194900D03*
X119500Y184900D03*
Y194900D03*
X139500Y184900D03*
X129500D03*
X139500Y194900D03*
X129500D03*
X150300Y163200D03*
Y173200D03*
X149500Y184900D03*
Y194900D03*
X160300Y163200D03*
Y173200D03*
X179100Y26100D03*
Y36100D03*
Y46100D03*
X190300Y163200D03*
X180300D03*
X190300Y173200D03*
X180300D03*
G54D14*
X48500Y5000D03*
X59500Y184900D03*
X140300Y163200D03*
Y173200D03*
X170300Y163200D03*
Y173200D03*
X179100Y16100D03*
G54D15*
X75764Y100787D03*
X73205D03*
X70646D03*
X68087D03*
X75764Y103346D03*
Y105905D03*
Y108464D03*
Y111023D03*
Y113582D03*
X73205Y103346D03*
Y105905D03*
Y108464D03*
Y111023D03*
Y113582D03*
X70646Y103346D03*
Y105905D03*
Y108464D03*
Y111023D03*
Y113582D03*
X68087Y103346D03*
Y105905D03*
Y108464D03*
Y111023D03*
Y113582D03*
X75764Y116141D03*
Y118700D03*
Y121259D03*
Y123818D03*
Y126377D03*
X73205Y116141D03*
Y118700D03*
Y121259D03*
Y123818D03*
Y126377D03*
X70646Y116141D03*
Y118700D03*
Y121259D03*
Y123818D03*
Y126377D03*
X68087Y116141D03*
Y118700D03*
Y121259D03*
Y123818D03*
Y126377D03*
X75764Y128936D03*
Y131495D03*
Y134054D03*
Y136613D03*
X73205Y128936D03*
Y131495D03*
Y134054D03*
Y136613D03*
X70646Y128936D03*
Y131495D03*
Y134054D03*
Y136613D03*
X68087Y128936D03*
Y131495D03*
Y134054D03*
Y136613D03*
X88559Y100787D03*
X86000D03*
X83441D03*
X80882D03*
X78323D03*
X88559Y103346D03*
Y105905D03*
Y108464D03*
Y113582D03*
X86000Y103346D03*
Y105905D03*
Y108464D03*
Y113582D03*
X83441Y103346D03*
Y105905D03*
Y108464D03*
Y113582D03*
X80882Y103346D03*
Y105905D03*
Y108464D03*
Y113582D03*
X78323Y103346D03*
Y105905D03*
Y108464D03*
X88559Y116141D03*
Y118700D03*
Y121259D03*
Y123818D03*
X86000Y116141D03*
Y118700D03*
Y121259D03*
Y123818D03*
X83441Y116141D03*
Y118700D03*
Y121259D03*
Y123818D03*
X80882Y116141D03*
Y118700D03*
Y121259D03*
Y123818D03*
X88559Y128936D03*
Y131495D03*
Y134054D03*
Y136613D03*
X86000Y128936D03*
Y131495D03*
Y134054D03*
Y136613D03*
X83441Y128936D03*
Y131495D03*
Y134054D03*
Y136613D03*
X80882Y128936D03*
Y131495D03*
Y134054D03*
Y136613D03*
X78323Y128936D03*
Y131495D03*
Y134054D03*
Y136613D03*
X101354Y100787D03*
X98795D03*
X96236D03*
X93677D03*
X91118D03*
X101354Y103346D03*
Y105905D03*
Y108464D03*
Y111023D03*
Y113582D03*
X98795Y103346D03*
Y105905D03*
Y108464D03*
Y111023D03*
Y113582D03*
X96236Y103346D03*
Y105905D03*
Y108464D03*
Y111023D03*
Y113582D03*
X93677Y103346D03*
Y105905D03*
Y108464D03*
X91118Y103346D03*
Y105905D03*
Y108464D03*
Y113582D03*
X101354Y116141D03*
Y118700D03*
Y121259D03*
Y123818D03*
Y126377D03*
X98795Y116141D03*
Y118700D03*
Y121259D03*
Y123818D03*
Y126377D03*
X96236Y116141D03*
Y118700D03*
Y121259D03*
Y123818D03*
Y126377D03*
X91118Y116141D03*
Y118700D03*
Y121259D03*
Y123818D03*
X101354Y128936D03*
Y131495D03*
Y134054D03*
Y136613D03*
X98795Y128936D03*
Y131495D03*
Y134054D03*
Y136613D03*
X96236Y128936D03*
Y131495D03*
Y134054D03*
Y136613D03*
X93677Y128936D03*
Y131495D03*
Y134054D03*
Y136613D03*
X91118Y128936D03*
Y131495D03*
Y134054D03*
Y136613D03*
X103913Y100787D03*
Y103346D03*
Y105905D03*
Y108464D03*
Y111023D03*
Y113582D03*
Y116141D03*
Y118700D03*
Y121259D03*
Y123818D03*
Y126377D03*
Y128936D03*
Y131495D03*
Y134054D03*
Y136613D03*
G54D16*
X114051Y112401D03*
X110902D03*
X114051Y109251D03*
X110902D03*
X114051Y106102D03*
X110902D03*
X114051Y124999D03*
X110902D03*
X114051Y121850D03*
X110902D03*
X114051Y118700D03*
X110902D03*
X114051Y115550D03*
X110902D03*
X114051Y131298D03*
X110902D03*
X114051Y128149D03*
X110902D03*
X117201Y112401D03*
Y109251D03*
Y106102D03*
Y124999D03*
Y121850D03*
Y118700D03*
Y115550D03*
Y131298D03*
Y128149D03*
X136098Y112401D03*
X132949D03*
X129799D03*
X136098Y109251D03*
X132949D03*
X129799D03*
X136098Y106102D03*
X132949D03*
X129799D03*
X136098Y124999D03*
X132949D03*
X129799D03*
X136098Y121850D03*
X132949D03*
X129799D03*
X136098Y118700D03*
X132949D03*
X129799D03*
X136098Y115550D03*
X132949D03*
X129799D03*
X136098Y131298D03*
X132949D03*
X129799D03*
X136098Y128149D03*
X132949D03*
X129799D03*
X147976Y101877D03*
X144827D03*
X151126Y114476D03*
Y111326D03*
Y108176D03*
X144827Y105027D03*
X151126Y127074D03*
Y123924D03*
Y120775D03*
Y117625D03*
X147976Y136523D03*
X144827D03*
X147976Y133373D03*
X144827D03*
X151126Y130224D03*
X160575Y114476D03*
X157425D03*
X154276D03*
X160575Y111326D03*
X157425D03*
X154276D03*
X160575Y108176D03*
X157425D03*
X154276D03*
X160575Y127074D03*
X157425D03*
X154276D03*
X160575Y123924D03*
X157425D03*
X154276D03*
X160575Y120775D03*
X157425D03*
X154276D03*
X160575Y117625D03*
X157425D03*
X154276D03*
X160575Y130224D03*
X157425D03*
X154276D03*
X173173Y101877D03*
X170024D03*
X166874Y114476D03*
X163724D03*
X166874Y111326D03*
X163724D03*
X166874Y108176D03*
X163724D03*
X173173Y105027D03*
X170024D03*
X166874Y127074D03*
X163724D03*
X166874Y123924D03*
X163724D03*
X166874Y120775D03*
X163724D03*
X166874Y117625D03*
X163724D03*
X173173Y136523D03*
X170024D03*
X173173Y133373D03*
X170024D03*
X166874Y130224D03*
X163724D03*
M02*
