G04 ================== begin FILE IDENTIFICATION RECORD ==================*
G04 Layout Name:  E:/material/glass/pcb/test-stm32f429/pcb/f429.brd*
G04 Film Name:    SILKSCREEN_TOP*
G04 File Format:  Gerber RS274X*
G04 File Origin:  Cadence Allegro 16.6-S049*
G04 Origin Date:  Sat Oct 10 17:08:06 2015*
G04 *
G04 Layer:  REF DES/SILKSCREEN_TOP*
G04 Layer:  PACKAGE GEOMETRY/SILKSCREEN_TOP*
G04 Layer:  BOARD GEOMETRY/SILKSCREEN_TOP*
G04 *
G04 Offset:    (0.00 0.00)*
G04 Mirror:    No*
G04 Mode:      Positive*
G04 Rotation:  0*
G04 FullContactRelief:  No*
G04 UndefLineWidth:     0.00*
G04 ================== end FILE IDENTIFICATION RECORD ====================*
%FSLAX25Y25*MOIN*%
%IR0*IPPOS*OFA0.00000B0.00000*MIA0B0*SFA1.00000B1.00000*%
%ADD10C,.004*%
%ADD11C,.007*%
%ADD12C,.00394*%
%ADD13C,.00984*%
%ADD14C,.00787*%
G75*
%LPD*%
G75*
G54D10*
G01X12875Y41573D02*
X12708Y41387D01*
X12667Y41173D01*
X12708Y40987D01*
X12917Y40827D01*
X13208Y40720D01*
X15167D01*
G01X14833D02*
X15000Y40827D01*
X15125Y40987D01*
X15167Y41173D01*
X15083Y41387D01*
X14917Y41520D01*
X14625Y41627D01*
X14333Y41680D01*
X14083Y41653D01*
X13792Y41547D01*
X13583Y41387D01*
X13500Y41173D01*
X13542Y41013D01*
X13708Y40827D01*
X13875Y40720D01*
G01X13500Y39000D02*
X16000D01*
G01X13500Y36320D02*
X15167D01*
G01X14875D02*
X15042Y36427D01*
X15125Y36587D01*
X15167Y36773D01*
X15083Y36960D01*
X14917Y37120D01*
X14667Y37227D01*
X14333Y37280D01*
X14000Y37227D01*
X13750Y37120D01*
X13583Y36960D01*
X13500Y36773D01*
X13542Y36587D01*
X13667Y36427D01*
X13833Y36320D01*
G01X13792Y35000D02*
X13625Y34867D01*
X13500Y34680D01*
Y34520D01*
X13583Y34360D01*
X13708Y34253D01*
X13875Y34200D01*
X14125Y34227D01*
X14250Y34333D01*
X14500Y34813D01*
X14792Y34920D01*
X15000Y34867D01*
X15125Y34760D01*
X15167Y34600D01*
X15125Y34440D01*
X15000Y34280D01*
G01X13792Y32800D02*
X13625Y32667D01*
X13500Y32480D01*
Y32320D01*
X13583Y32160D01*
X13708Y32053D01*
X13875Y32000D01*
X14125Y32027D01*
X14250Y32133D01*
X14500Y32613D01*
X14792Y32720D01*
X15000Y32667D01*
X15125Y32560D01*
X15167Y32400D01*
X15125Y32240D01*
X15000Y32080D01*
G01X16000Y28000D02*
X13500D01*
G01X15167Y28373D02*
Y27627D01*
G01X14625Y26200D02*
Y25347D01*
X14917Y25427D01*
X15083Y25560D01*
X15167Y25747D01*
X15125Y25933D01*
X15000Y26093D01*
X14708Y26200D01*
X14458Y26253D01*
X14208D01*
X13958Y26200D01*
X13708Y26067D01*
X13542Y25907D01*
X13500Y25720D01*
X13583Y25533D01*
X13833Y25347D01*
G01X13792Y24000D02*
X13625Y23867D01*
X13500Y23680D01*
Y23520D01*
X13583Y23360D01*
X13708Y23253D01*
X13875Y23200D01*
X14125Y23227D01*
X14250Y23333D01*
X14500Y23813D01*
X14792Y23920D01*
X15000Y23867D01*
X15125Y23760D01*
X15167Y23600D01*
X15125Y23440D01*
X15000Y23280D01*
G01X16000Y21400D02*
X13500D01*
G01X15167Y21773D02*
Y21027D01*
G01Y17480D02*
X13500Y17000D01*
X15167Y16520D01*
G01X13500Y14800D02*
X16000D01*
X15500Y15120D01*
G01X13500D02*
Y14480D01*
G01X13417Y12600D02*
X13458Y12653D01*
X13542D01*
X13583Y12600D01*
X13542Y12547D01*
X13458D01*
X13417Y12600D01*
G01X16000Y10400D02*
X15917Y10613D01*
X15708Y10773D01*
X15458Y10880D01*
X15125Y10960D01*
X14750Y10987D01*
X14375Y10960D01*
X14042Y10880D01*
X13792Y10773D01*
X13583Y10613D01*
X13500Y10400D01*
X13583Y10187D01*
X13792Y10027D01*
X14042Y9920D01*
X14375Y9840D01*
X14750Y9813D01*
X15125Y9840D01*
X15458Y9920D01*
X15708Y10027D01*
X15917Y10187D01*
X16000Y10400D01*
G01X18547Y165267D02*
X16047D01*
Y165933D01*
X16172Y166147D01*
X16339Y166280D01*
X16672Y166333D01*
X17005Y166280D01*
X17214Y166120D01*
X17339Y165933D01*
Y165267D01*
G01Y165933D02*
X18547Y166333D01*
G01X18047Y167413D02*
X18339Y167573D01*
X18505Y167787D01*
X18547Y168027D01*
X18505Y168240D01*
X18297Y168453D01*
X18047Y168587D01*
X17797Y168613D01*
X17505Y168560D01*
X17297Y168373D01*
X17214Y168187D01*
Y167947D01*
G01Y168187D02*
X17089Y168347D01*
X16880Y168480D01*
X16630Y168533D01*
X16380Y168480D01*
X16172Y168347D01*
X16047Y168107D01*
X16089Y167867D01*
X16255Y167627D01*
G01X18547Y170200D02*
X16047D01*
X16547Y169880D01*
G01X18547D02*
Y170520D01*
G01X22000Y76267D02*
X19500D01*
Y76933D01*
X19625Y77147D01*
X19792Y77280D01*
X20125Y77333D01*
X20458Y77280D01*
X20667Y77120D01*
X20792Y76933D01*
Y76267D01*
G01Y76933D02*
X22000Y77333D01*
G01X21500Y78413D02*
X21792Y78573D01*
X21958Y78787D01*
X22000Y79027D01*
X21958Y79240D01*
X21750Y79453D01*
X21500Y79587D01*
X21250Y79613D01*
X20958Y79560D01*
X20750Y79373D01*
X20667Y79187D01*
Y78947D01*
G01Y79187D02*
X20542Y79347D01*
X20333Y79480D01*
X20083Y79533D01*
X19833Y79480D01*
X19625Y79347D01*
X19500Y79107D01*
X19542Y78867D01*
X19708Y78627D01*
G01X19917Y80693D02*
X19667Y80853D01*
X19542Y81040D01*
X19500Y81253D01*
X19583Y81520D01*
X19792Y81707D01*
X20042Y81760D01*
X20292Y81733D01*
X20500Y81627D01*
X20917Y81093D01*
X21208Y80853D01*
X21625Y80693D01*
X22000Y80640D01*
Y81760D01*
G01X25000Y151733D02*
X27500D01*
Y151067D01*
X27375Y150853D01*
X27208Y150720D01*
X26875Y150667D01*
X26542Y150720D01*
X26333Y150880D01*
X26208Y151067D01*
Y151733D01*
G01Y151067D02*
X25000Y150667D01*
G01X25500Y149587D02*
X25208Y149427D01*
X25042Y149213D01*
X25000Y148973D01*
X25042Y148760D01*
X25250Y148547D01*
X25500Y148413D01*
X25750Y148387D01*
X26042Y148440D01*
X26250Y148627D01*
X26333Y148813D01*
Y149053D01*
G01Y148813D02*
X26458Y148653D01*
X26667Y148520D01*
X26917Y148467D01*
X27167Y148520D01*
X27375Y148653D01*
X27500Y148893D01*
X27458Y149133D01*
X27292Y149373D01*
G01X27500Y146800D02*
X27417Y147013D01*
X27208Y147173D01*
X26958Y147280D01*
X26625Y147360D01*
X26250Y147387D01*
X25875Y147360D01*
X25542Y147280D01*
X25292Y147173D01*
X25083Y147013D01*
X25000Y146800D01*
X25083Y146587D01*
X25292Y146427D01*
X25542Y146320D01*
X25875Y146240D01*
X26250Y146213D01*
X26625Y146240D01*
X26958Y146320D01*
X27208Y146427D01*
X27417Y146587D01*
X27500Y146800D01*
G01X32000Y2867D02*
X29500D01*
Y3507D01*
X29625Y3720D01*
X29917Y3880D01*
X30250Y3933D01*
X30583Y3880D01*
X30833Y3747D01*
X30958Y3507D01*
Y2867D01*
G01X29917Y5093D02*
X29667Y5253D01*
X29542Y5440D01*
X29500Y5653D01*
X29583Y5920D01*
X29792Y6107D01*
X30042Y6160D01*
X30292Y6133D01*
X30500Y6027D01*
X30917Y5493D01*
X31208Y5253D01*
X31625Y5093D01*
X32000Y5040D01*
Y6160D01*
G01X57255Y108887D02*
X57130Y108727D01*
X57047Y108540D01*
Y108327D01*
X57172Y108087D01*
X57380Y107900D01*
X57630Y107767D01*
X58047Y107660D01*
X58422Y107633D01*
X58797Y107687D01*
X59047Y107767D01*
X59297Y107927D01*
X59464Y108113D01*
X59547Y108300D01*
Y108487D01*
X59464Y108673D01*
X59339Y108833D01*
X59172Y108967D01*
G01X59547Y110500D02*
X57047D01*
X57547Y110180D01*
G01X59547D02*
Y110820D01*
G01X57047Y112700D02*
X57130Y112487D01*
X57339Y112327D01*
X57589Y112220D01*
X57922Y112140D01*
X58297Y112113D01*
X58672Y112140D01*
X59005Y112220D01*
X59255Y112327D01*
X59464Y112487D01*
X59547Y112700D01*
X59464Y112913D01*
X59255Y113073D01*
X59005Y113180D01*
X58672Y113260D01*
X58297Y113287D01*
X57922Y113260D01*
X57589Y113180D01*
X57339Y113073D01*
X57130Y112913D01*
X57047Y112700D01*
G01X59000Y116867D02*
X56500D01*
Y117533D01*
X56625Y117747D01*
X56792Y117880D01*
X57125Y117933D01*
X57458Y117880D01*
X57667Y117720D01*
X57792Y117533D01*
Y116867D01*
G01Y117533D02*
X59000Y117933D01*
G01Y119600D02*
X58958Y119787D01*
X58833Y120000D01*
X58625Y120133D01*
X58333Y120187D01*
X58042Y120133D01*
X57792Y119973D01*
X57667Y119733D01*
Y119467D01*
X57583Y119307D01*
X57375Y119173D01*
X57083Y119120D01*
X56792Y119200D01*
X56583Y119387D01*
X56500Y119600D01*
X56583Y119813D01*
X56792Y120000D01*
X57083Y120080D01*
X57375Y120027D01*
X57583Y119893D01*
X57667Y119733D01*
Y119467D01*
X57792Y119227D01*
X58042Y119067D01*
X58333Y119013D01*
X58625Y119067D01*
X58833Y119200D01*
X58958Y119413D01*
X59000Y119600D01*
G01X64400Y143000D02*
X64187Y143042D01*
X64000Y143208D01*
X63840Y143458D01*
X63733Y143750D01*
X63680Y144083D01*
Y144417D01*
X63733Y144750D01*
X63840Y145042D01*
X64000Y145292D01*
X64187Y145458D01*
X64400Y145500D01*
X64613Y145458D01*
X64800Y145292D01*
X64960Y145042D01*
X65067Y144750D01*
X65120Y144417D01*
Y144083D01*
X65067Y143750D01*
X64960Y143458D01*
X64800Y143208D01*
X64613Y143042D01*
X64400Y143000D01*
G01X66600D02*
Y145500D01*
X66280Y145000D01*
G01Y143000D02*
X66920D01*
G01X61292Y159013D02*
X61417Y159173D01*
X61500Y159360D01*
Y159573D01*
X61375Y159813D01*
X61167Y160000D01*
X60917Y160133D01*
X60500Y160240D01*
X60125Y160267D01*
X59750Y160213D01*
X59500Y160133D01*
X59250Y159973D01*
X59083Y159787D01*
X59000Y159600D01*
Y159413D01*
X59083Y159227D01*
X59208Y159067D01*
X59375Y158933D01*
G01X61083Y157907D02*
X61333Y157747D01*
X61458Y157560D01*
X61500Y157347D01*
X61417Y157080D01*
X61208Y156893D01*
X60958Y156840D01*
X60708Y156867D01*
X60500Y156973D01*
X60083Y157507D01*
X59792Y157747D01*
X59375Y157907D01*
X59000Y157960D01*
Y156840D01*
G01X62387Y168292D02*
X62227Y168417D01*
X62040Y168500D01*
X61827D01*
X61587Y168375D01*
X61400Y168167D01*
X61267Y167917D01*
X61160Y167500D01*
X61133Y167125D01*
X61187Y166750D01*
X61267Y166500D01*
X61427Y166250D01*
X61613Y166083D01*
X61800Y166000D01*
X61987D01*
X62173Y166083D01*
X62333Y166208D01*
X62467Y166375D01*
G01X63413D02*
X63573Y166167D01*
X63760Y166042D01*
X64000Y166000D01*
X64240Y166083D01*
X64427Y166250D01*
X64560Y166542D01*
X64587Y166875D01*
X64533Y167208D01*
X64400Y167417D01*
X64213Y167583D01*
X64027Y167625D01*
X63840Y167583D01*
X63600Y167417D01*
X63680Y168500D01*
X64400D01*
G01X66200Y166000D02*
Y168500D01*
X65880Y168000D01*
G01Y166000D02*
X66520D01*
G01X57987Y168292D02*
X57827Y168417D01*
X57640Y168500D01*
X57427D01*
X57187Y168375D01*
X57000Y168167D01*
X56867Y167917D01*
X56760Y167500D01*
X56733Y167125D01*
X56787Y166750D01*
X56867Y166500D01*
X57027Y166250D01*
X57213Y166083D01*
X57400Y166000D01*
X57587D01*
X57773Y166083D01*
X57933Y166208D01*
X58067Y166375D01*
G01X59600Y166000D02*
Y168500D01*
X59280Y168000D01*
G01Y166000D02*
X59920D01*
G01X66000Y173367D02*
X63500D01*
Y174033D01*
X63625Y174247D01*
X63792Y174380D01*
X64125Y174433D01*
X64458Y174380D01*
X64667Y174220D01*
X64792Y174033D01*
Y173367D01*
G01Y174033D02*
X66000Y174433D01*
G01X65625Y175513D02*
X65833Y175673D01*
X65958Y175860D01*
X66000Y176100D01*
X65917Y176340D01*
X65750Y176527D01*
X65458Y176660D01*
X65125Y176687D01*
X64792Y176633D01*
X64583Y176500D01*
X64417Y176313D01*
X64375Y176127D01*
X64417Y175940D01*
X64583Y175700D01*
X63500Y175780D01*
Y176500D01*
G01X58367Y176000D02*
Y178500D01*
X59007D01*
X59220Y178375D01*
X59380Y178083D01*
X59433Y177750D01*
X59380Y177417D01*
X59247Y177167D01*
X59007Y177042D01*
X58367D01*
G01X61100Y176000D02*
Y178500D01*
X60780Y178000D01*
G01Y176000D02*
X61420D01*
G01X76387Y3292D02*
X76227Y3417D01*
X76040Y3500D01*
X75827D01*
X75587Y3375D01*
X75400Y3167D01*
X75267Y2917D01*
X75160Y2500D01*
X75133Y2125D01*
X75187Y1750D01*
X75267Y1500D01*
X75427Y1250D01*
X75613Y1083D01*
X75800Y1000D01*
X75987D01*
X76173Y1083D01*
X76333Y1208D01*
X76467Y1375D01*
G01X77413Y1500D02*
X77573Y1208D01*
X77787Y1042D01*
X78027Y1000D01*
X78240Y1042D01*
X78453Y1250D01*
X78587Y1500D01*
X78613Y1750D01*
X78560Y2042D01*
X78373Y2250D01*
X78187Y2333D01*
X77947D01*
G01X78187D02*
X78347Y2458D01*
X78480Y2667D01*
X78533Y2917D01*
X78480Y3167D01*
X78347Y3375D01*
X78107Y3500D01*
X77867Y3458D01*
X77627Y3292D01*
G01X80520Y1000D02*
Y3500D01*
X79533Y1708D01*
X80867D01*
G01X75708Y5887D02*
X75583Y5727D01*
X75500Y5540D01*
Y5327D01*
X75625Y5087D01*
X75833Y4900D01*
X76083Y4767D01*
X76500Y4660D01*
X76875Y4633D01*
X77250Y4687D01*
X77500Y4767D01*
X77750Y4927D01*
X77917Y5113D01*
X78000Y5300D01*
Y5487D01*
X77917Y5673D01*
X77792Y5833D01*
X77625Y5967D01*
G01X77500Y6913D02*
X77792Y7073D01*
X77958Y7287D01*
X78000Y7527D01*
X77958Y7740D01*
X77750Y7953D01*
X77500Y8087D01*
X77250Y8113D01*
X76958Y8060D01*
X76750Y7873D01*
X76667Y7687D01*
Y7447D01*
G01Y7687D02*
X76542Y7847D01*
X76333Y7980D01*
X76083Y8033D01*
X75833Y7980D01*
X75625Y7847D01*
X75500Y7607D01*
X75542Y7367D01*
X75708Y7127D01*
G01X77625Y9113D02*
X77833Y9273D01*
X77958Y9460D01*
X78000Y9700D01*
X77917Y9940D01*
X77750Y10127D01*
X77458Y10260D01*
X77125Y10287D01*
X76792Y10233D01*
X76583Y10100D01*
X76417Y9913D01*
X76375Y9727D01*
X76417Y9540D01*
X76583Y9300D01*
X75500Y9380D01*
Y10100D01*
G01X74500Y4767D02*
X72000D01*
Y5433D01*
X72125Y5647D01*
X72292Y5780D01*
X72625Y5833D01*
X72958Y5780D01*
X73167Y5620D01*
X73292Y5433D01*
Y4767D01*
G01Y5433D02*
X74500Y5833D01*
G01X72417Y6993D02*
X72167Y7153D01*
X72042Y7340D01*
X72000Y7553D01*
X72083Y7820D01*
X72292Y8007D01*
X72542Y8060D01*
X72792Y8033D01*
X73000Y7927D01*
X73417Y7393D01*
X73708Y7153D01*
X74125Y6993D01*
X74500Y6940D01*
Y8060D01*
G01Y10020D02*
X72000D01*
X73792Y9033D01*
Y10367D01*
G01X70500Y32813D02*
X72292D01*
X72667Y32920D01*
X72917Y33133D01*
X73000Y33400D01*
X72917Y33667D01*
X72667Y33880D01*
X72292Y33987D01*
X70500D01*
G01X71958Y35093D02*
X71667Y35280D01*
X71500Y35440D01*
X71417Y35653D01*
X71500Y35840D01*
X71667Y35973D01*
X71917Y36080D01*
X72208Y36107D01*
X72458Y36080D01*
X72708Y35973D01*
X72917Y35813D01*
X73000Y35627D01*
X72917Y35413D01*
X72667Y35227D01*
X72292Y35120D01*
X71875Y35093D01*
X71333Y35147D01*
X71042Y35227D01*
X70750Y35360D01*
X70542Y35547D01*
X70500Y35733D01*
X70583Y35920D01*
X70792Y36053D01*
G01X69500Y45767D02*
X67000D01*
Y46433D01*
X67125Y46647D01*
X67292Y46780D01*
X67625Y46833D01*
X67958Y46780D01*
X68167Y46620D01*
X68292Y46433D01*
Y45767D01*
G01Y46433D02*
X69500Y46833D01*
G01X67417Y47993D02*
X67167Y48153D01*
X67042Y48340D01*
X67000Y48553D01*
X67083Y48820D01*
X67292Y49007D01*
X67542Y49060D01*
X67792Y49033D01*
X68000Y48927D01*
X68417Y48393D01*
X68708Y48153D01*
X69125Y47993D01*
X69500Y47940D01*
Y49060D01*
G01Y50647D02*
X68958Y50700D01*
X68500Y50780D01*
X68083Y50887D01*
X67625Y51020D01*
X67000Y51233D01*
Y50167D01*
G01X73500Y45767D02*
X71000D01*
Y46433D01*
X71125Y46647D01*
X71292Y46780D01*
X71625Y46833D01*
X71958Y46780D01*
X72167Y46620D01*
X72292Y46433D01*
Y45767D01*
G01Y46433D02*
X73500Y46833D01*
G01X71417Y47993D02*
X71167Y48153D01*
X71042Y48340D01*
X71000Y48553D01*
X71083Y48820D01*
X71292Y49007D01*
X71542Y49060D01*
X71792Y49033D01*
X72000Y48927D01*
X72417Y48393D01*
X72708Y48153D01*
X73125Y47993D01*
X73500Y47940D01*
Y49060D01*
G01Y50700D02*
X73458Y50887D01*
X73333Y51100D01*
X73125Y51233D01*
X72833Y51287D01*
X72542Y51233D01*
X72292Y51073D01*
X72167Y50833D01*
Y50567D01*
X72083Y50407D01*
X71875Y50273D01*
X71583Y50220D01*
X71292Y50300D01*
X71083Y50487D01*
X71000Y50700D01*
X71083Y50913D01*
X71292Y51100D01*
X71583Y51180D01*
X71875Y51127D01*
X72083Y50993D01*
X72167Y50833D01*
Y50567D01*
X72292Y50327D01*
X72542Y50167D01*
X72833Y50113D01*
X73125Y50167D01*
X73333Y50300D01*
X73458Y50513D01*
X73500Y50700D01*
G01X69500Y55267D02*
X67000D01*
Y55933D01*
X67125Y56147D01*
X67292Y56280D01*
X67625Y56333D01*
X67958Y56280D01*
X68167Y56120D01*
X68292Y55933D01*
Y55267D01*
G01Y55933D02*
X69500Y56333D01*
G01X67417Y57493D02*
X67167Y57653D01*
X67042Y57840D01*
X67000Y58053D01*
X67083Y58320D01*
X67292Y58507D01*
X67542Y58560D01*
X67792Y58533D01*
X68000Y58427D01*
X68417Y57893D01*
X68708Y57653D01*
X69125Y57493D01*
X69500Y57440D01*
Y58560D01*
G01X69125Y59613D02*
X69333Y59773D01*
X69458Y59960D01*
X69500Y60200D01*
X69417Y60440D01*
X69250Y60627D01*
X68958Y60760D01*
X68625Y60787D01*
X68292Y60733D01*
X68083Y60600D01*
X67917Y60413D01*
X67875Y60227D01*
X67917Y60040D01*
X68083Y59800D01*
X67000Y59880D01*
Y60600D01*
G01X73500Y55267D02*
X71000D01*
Y55933D01*
X71125Y56147D01*
X71292Y56280D01*
X71625Y56333D01*
X71958Y56280D01*
X72167Y56120D01*
X72292Y55933D01*
Y55267D01*
G01Y55933D02*
X73500Y56333D01*
G01X71417Y57493D02*
X71167Y57653D01*
X71042Y57840D01*
X71000Y58053D01*
X71083Y58320D01*
X71292Y58507D01*
X71542Y58560D01*
X71792Y58533D01*
X72000Y58427D01*
X72417Y57893D01*
X72708Y57653D01*
X73125Y57493D01*
X73500Y57440D01*
Y58560D01*
G01X73208Y59747D02*
X73417Y59933D01*
X73500Y60147D01*
X73417Y60360D01*
X73167Y60547D01*
X72792Y60680D01*
X72417Y60733D01*
X71958D01*
X71583Y60680D01*
X71250Y60547D01*
X71083Y60387D01*
X71000Y60200D01*
X71083Y59987D01*
X71250Y59827D01*
X71500Y59720D01*
X71833Y59667D01*
X72125Y59720D01*
X72417Y59853D01*
X72583Y60013D01*
X72625Y60200D01*
X72542Y60413D01*
X72333Y60573D01*
X71958Y60733D01*
G01X72387Y89292D02*
X72227Y89417D01*
X72040Y89500D01*
X71827D01*
X71587Y89375D01*
X71400Y89167D01*
X71267Y88917D01*
X71160Y88500D01*
X71133Y88125D01*
X71187Y87750D01*
X71267Y87500D01*
X71427Y87250D01*
X71613Y87083D01*
X71800Y87000D01*
X71987D01*
X72173Y87083D01*
X72333Y87208D01*
X72467Y87375D01*
G01X73493Y89083D02*
X73653Y89333D01*
X73840Y89458D01*
X74053Y89500D01*
X74320Y89417D01*
X74507Y89208D01*
X74560Y88958D01*
X74533Y88708D01*
X74427Y88500D01*
X73893Y88083D01*
X73653Y87792D01*
X73493Y87375D01*
X73440Y87000D01*
X74560D01*
G01X76200Y89500D02*
X75987Y89417D01*
X75827Y89208D01*
X75720Y88958D01*
X75640Y88625D01*
X75613Y88250D01*
X75640Y87875D01*
X75720Y87542D01*
X75827Y87292D01*
X75987Y87083D01*
X76200Y87000D01*
X76413Y87083D01*
X76573Y87292D01*
X76680Y87542D01*
X76760Y87875D01*
X76787Y88250D01*
X76760Y88625D01*
X76680Y88958D01*
X76573Y89208D01*
X76413Y89417D01*
X76200Y89500D01*
G01X70292Y157613D02*
X70417Y157773D01*
X70500Y157960D01*
Y158173D01*
X70375Y158413D01*
X70167Y158600D01*
X69917Y158733D01*
X69500Y158840D01*
X69125Y158867D01*
X68750Y158813D01*
X68500Y158733D01*
X68250Y158573D01*
X68083Y158387D01*
X68000Y158200D01*
Y158013D01*
X68083Y157827D01*
X68208Y157667D01*
X68375Y157533D01*
G01Y156587D02*
X68167Y156427D01*
X68042Y156240D01*
X68000Y156000D01*
X68083Y155760D01*
X68250Y155573D01*
X68542Y155440D01*
X68875Y155413D01*
X69208Y155467D01*
X69417Y155600D01*
X69583Y155787D01*
X69625Y155973D01*
X69583Y156160D01*
X69417Y156400D01*
X70500Y156320D01*
Y155600D01*
G01X70083Y154307D02*
X70333Y154147D01*
X70458Y153960D01*
X70500Y153747D01*
X70417Y153480D01*
X70208Y153293D01*
X69958Y153240D01*
X69708Y153267D01*
X69500Y153373D01*
X69083Y153907D01*
X68792Y154147D01*
X68375Y154307D01*
X68000Y154360D01*
Y153240D01*
G01X76000Y172867D02*
X73500D01*
Y173533D01*
X73625Y173747D01*
X73792Y173880D01*
X74125Y173933D01*
X74458Y173880D01*
X74667Y173720D01*
X74792Y173533D01*
Y172867D01*
G01Y173533D02*
X76000Y173933D01*
G01X74958Y175093D02*
X74667Y175280D01*
X74500Y175440D01*
X74417Y175653D01*
X74500Y175840D01*
X74667Y175973D01*
X74917Y176080D01*
X75208Y176107D01*
X75458Y176080D01*
X75708Y175973D01*
X75917Y175813D01*
X76000Y175627D01*
X75917Y175413D01*
X75667Y175227D01*
X75292Y175120D01*
X74875Y175093D01*
X74333Y175147D01*
X74042Y175227D01*
X73750Y175360D01*
X73542Y175547D01*
X73500Y175733D01*
X73583Y175920D01*
X73792Y176053D01*
G01X79208Y5887D02*
X79083Y5727D01*
X79000Y5540D01*
Y5327D01*
X79125Y5087D01*
X79333Y4900D01*
X79583Y4767D01*
X80000Y4660D01*
X80375Y4633D01*
X80750Y4687D01*
X81000Y4767D01*
X81250Y4927D01*
X81417Y5113D01*
X81500Y5300D01*
Y5487D01*
X81417Y5673D01*
X81292Y5833D01*
X81125Y5967D01*
G01X81000Y6913D02*
X81292Y7073D01*
X81458Y7287D01*
X81500Y7527D01*
X81458Y7740D01*
X81250Y7953D01*
X81000Y8087D01*
X80750Y8113D01*
X80458Y8060D01*
X80250Y7873D01*
X80167Y7687D01*
Y7447D01*
G01Y7687D02*
X80042Y7847D01*
X79833Y7980D01*
X79583Y8033D01*
X79333Y7980D01*
X79125Y7847D01*
X79000Y7607D01*
X79042Y7367D01*
X79208Y7127D01*
G01X81500Y9700D02*
X81458Y9887D01*
X81333Y10100D01*
X81125Y10233D01*
X80833Y10287D01*
X80542Y10233D01*
X80292Y10073D01*
X80167Y9833D01*
Y9567D01*
X80083Y9407D01*
X79875Y9273D01*
X79583Y9220D01*
X79292Y9300D01*
X79083Y9487D01*
X79000Y9700D01*
X79083Y9913D01*
X79292Y10100D01*
X79583Y10180D01*
X79875Y10127D01*
X80083Y9993D01*
X80167Y9833D01*
Y9567D01*
X80292Y9327D01*
X80542Y9167D01*
X80833Y9113D01*
X81125Y9167D01*
X81333Y9300D01*
X81458Y9513D01*
X81500Y9700D01*
G01X87500Y39367D02*
X90000D01*
Y40433D01*
G01Y42420D02*
X87500D01*
X89292Y41433D01*
Y42767D01*
G01X86387Y66792D02*
X86227Y66917D01*
X86040Y67000D01*
X85827D01*
X85587Y66875D01*
X85400Y66667D01*
X85267Y66417D01*
X85160Y66000D01*
X85133Y65625D01*
X85187Y65250D01*
X85267Y65000D01*
X85427Y64750D01*
X85613Y64583D01*
X85800Y64500D01*
X85987D01*
X86173Y64583D01*
X86333Y64708D01*
X86467Y64875D01*
G01X87413Y65000D02*
X87573Y64708D01*
X87787Y64542D01*
X88027Y64500D01*
X88240Y64542D01*
X88453Y64750D01*
X88587Y65000D01*
X88613Y65250D01*
X88560Y65542D01*
X88373Y65750D01*
X88187Y65833D01*
X87947D01*
G01X88187D02*
X88347Y65958D01*
X88480Y66167D01*
X88533Y66417D01*
X88480Y66667D01*
X88347Y66875D01*
X88107Y67000D01*
X87867Y66958D01*
X87627Y66792D01*
G01X89747Y64792D02*
X89933Y64583D01*
X90147Y64500D01*
X90360Y64583D01*
X90547Y64833D01*
X90680Y65208D01*
X90733Y65583D01*
Y66042D01*
X90680Y66417D01*
X90547Y66750D01*
X90387Y66917D01*
X90200Y67000D01*
X89987Y66917D01*
X89827Y66750D01*
X89720Y66500D01*
X89667Y66167D01*
X89720Y65875D01*
X89853Y65583D01*
X90013Y65417D01*
X90200Y65375D01*
X90413Y65458D01*
X90573Y65667D01*
X90733Y66042D01*
G01X84987Y80292D02*
X84827Y80417D01*
X84640Y80500D01*
X84427D01*
X84187Y80375D01*
X84000Y80167D01*
X83867Y79917D01*
X83760Y79500D01*
X83733Y79125D01*
X83787Y78750D01*
X83867Y78500D01*
X84027Y78250D01*
X84213Y78083D01*
X84400Y78000D01*
X84587D01*
X84773Y78083D01*
X84933Y78208D01*
X85067Y78375D01*
G01X86093Y79042D02*
X86280Y79333D01*
X86440Y79500D01*
X86653Y79583D01*
X86840Y79500D01*
X86973Y79333D01*
X87080Y79083D01*
X87107Y78792D01*
X87080Y78542D01*
X86973Y78292D01*
X86813Y78083D01*
X86627Y78000D01*
X86413Y78083D01*
X86227Y78333D01*
X86120Y78708D01*
X86093Y79125D01*
X86147Y79667D01*
X86227Y79958D01*
X86360Y80250D01*
X86547Y80458D01*
X86733Y80500D01*
X86920Y80417D01*
X87053Y80208D01*
G01X84987Y83792D02*
X84827Y83917D01*
X84640Y84000D01*
X84427D01*
X84187Y83875D01*
X84000Y83667D01*
X83867Y83417D01*
X83760Y83000D01*
X83733Y82625D01*
X83787Y82250D01*
X83867Y82000D01*
X84027Y81750D01*
X84213Y81583D01*
X84400Y81500D01*
X84587D01*
X84773Y81583D01*
X84933Y81708D01*
X85067Y81875D01*
G01X86013D02*
X86173Y81667D01*
X86360Y81542D01*
X86600Y81500D01*
X86840Y81583D01*
X87027Y81750D01*
X87160Y82042D01*
X87187Y82375D01*
X87133Y82708D01*
X87000Y82917D01*
X86813Y83083D01*
X86627Y83125D01*
X86440Y83083D01*
X86200Y82917D01*
X86280Y84000D01*
X87000D01*
G01X86400Y141500D02*
X86187Y141542D01*
X86000Y141708D01*
X85840Y141958D01*
X85733Y142250D01*
X85680Y142583D01*
Y142917D01*
X85733Y143250D01*
X85840Y143542D01*
X86000Y143792D01*
X86187Y143958D01*
X86400Y144000D01*
X86613Y143958D01*
X86800Y143792D01*
X86960Y143542D01*
X87067Y143250D01*
X87120Y142917D01*
Y142583D01*
X87067Y142250D01*
X86960Y141958D01*
X86800Y141708D01*
X86613Y141542D01*
X86400Y141500D01*
G01X88093Y143583D02*
X88253Y143833D01*
X88440Y143958D01*
X88653Y144000D01*
X88920Y143917D01*
X89107Y143708D01*
X89160Y143458D01*
X89133Y143208D01*
X89027Y143000D01*
X88493Y142583D01*
X88253Y142292D01*
X88093Y141875D01*
X88040Y141500D01*
X89160D01*
G01X85500Y170867D02*
X83000D01*
Y171533D01*
X83125Y171747D01*
X83292Y171880D01*
X83625Y171933D01*
X83958Y171880D01*
X84167Y171720D01*
X84292Y171533D01*
Y170867D01*
G01Y171533D02*
X85500Y171933D01*
G01Y173920D02*
X83000D01*
X84792Y172933D01*
Y174267D01*
G01X98387Y3292D02*
X98227Y3417D01*
X98040Y3500D01*
X97827D01*
X97587Y3375D01*
X97400Y3167D01*
X97267Y2917D01*
X97160Y2500D01*
X97133Y2125D01*
X97187Y1750D01*
X97267Y1500D01*
X97427Y1250D01*
X97613Y1083D01*
X97800Y1000D01*
X97987D01*
X98173Y1083D01*
X98333Y1208D01*
X98467Y1375D01*
G01X99493Y3083D02*
X99653Y3333D01*
X99840Y3458D01*
X100053Y3500D01*
X100320Y3417D01*
X100507Y3208D01*
X100560Y2958D01*
X100533Y2708D01*
X100427Y2500D01*
X99893Y2083D01*
X99653Y1792D01*
X99493Y1375D01*
X99440Y1000D01*
X100560D01*
G01X102200D02*
X102387Y1042D01*
X102600Y1167D01*
X102733Y1375D01*
X102787Y1667D01*
X102733Y1958D01*
X102573Y2208D01*
X102333Y2333D01*
X102067D01*
X101907Y2417D01*
X101773Y2625D01*
X101720Y2917D01*
X101800Y3208D01*
X101987Y3417D01*
X102200Y3500D01*
X102413Y3417D01*
X102600Y3208D01*
X102680Y2917D01*
X102627Y2625D01*
X102493Y2417D01*
X102333Y2333D01*
X102067D01*
X101827Y2208D01*
X101667Y1958D01*
X101613Y1667D01*
X101667Y1375D01*
X101800Y1167D01*
X102013Y1042D01*
X102200Y1000D01*
G01X98208Y5887D02*
X98083Y5727D01*
X98000Y5540D01*
Y5327D01*
X98125Y5087D01*
X98333Y4900D01*
X98583Y4767D01*
X99000Y4660D01*
X99375Y4633D01*
X99750Y4687D01*
X100000Y4767D01*
X100250Y4927D01*
X100417Y5113D01*
X100500Y5300D01*
Y5487D01*
X100417Y5673D01*
X100292Y5833D01*
X100125Y5967D01*
G01X98417Y6993D02*
X98167Y7153D01*
X98042Y7340D01*
X98000Y7553D01*
X98083Y7820D01*
X98292Y8007D01*
X98542Y8060D01*
X98792Y8033D01*
X99000Y7927D01*
X99417Y7393D01*
X99708Y7153D01*
X100125Y6993D01*
X100500Y6940D01*
Y8060D01*
G01X100208Y9247D02*
X100417Y9433D01*
X100500Y9647D01*
X100417Y9860D01*
X100167Y10047D01*
X99792Y10180D01*
X99417Y10233D01*
X98958D01*
X98583Y10180D01*
X98250Y10047D01*
X98083Y9887D01*
X98000Y9700D01*
X98083Y9487D01*
X98250Y9327D01*
X98500Y9220D01*
X98833Y9167D01*
X99125Y9220D01*
X99417Y9353D01*
X99583Y9513D01*
X99625Y9700D01*
X99542Y9913D01*
X99333Y10073D01*
X98958Y10233D01*
G01X101208Y5887D02*
X101083Y5727D01*
X101000Y5540D01*
Y5327D01*
X101125Y5087D01*
X101333Y4900D01*
X101583Y4767D01*
X102000Y4660D01*
X102375Y4633D01*
X102750Y4687D01*
X103000Y4767D01*
X103250Y4927D01*
X103417Y5113D01*
X103500Y5300D01*
Y5487D01*
X103417Y5673D01*
X103292Y5833D01*
X103125Y5967D01*
G01X103000Y6913D02*
X103292Y7073D01*
X103458Y7287D01*
X103500Y7527D01*
X103458Y7740D01*
X103250Y7953D01*
X103000Y8087D01*
X102750Y8113D01*
X102458Y8060D01*
X102250Y7873D01*
X102167Y7687D01*
Y7447D01*
G01Y7687D02*
X102042Y7847D01*
X101833Y7980D01*
X101583Y8033D01*
X101333Y7980D01*
X101125Y7847D01*
X101000Y7607D01*
X101042Y7367D01*
X101208Y7127D01*
G01X103500Y9700D02*
X101000D01*
X101500Y9380D01*
G01X103500D02*
Y10020D01*
G01X97000Y4767D02*
X94500D01*
Y5433D01*
X94625Y5647D01*
X94792Y5780D01*
X95125Y5833D01*
X95458Y5780D01*
X95667Y5620D01*
X95792Y5433D01*
Y4767D01*
G01Y5433D02*
X97000Y5833D01*
G01Y7500D02*
X94500D01*
X95000Y7180D01*
G01X97000D02*
Y7820D01*
G01Y9647D02*
X96458Y9700D01*
X96000Y9780D01*
X95583Y9887D01*
X95125Y10020D01*
X94500Y10233D01*
Y9167D01*
G01X92500Y32313D02*
X94292D01*
X94667Y32420D01*
X94917Y32633D01*
X95000Y32900D01*
X94917Y33167D01*
X94667Y33380D01*
X94292Y33487D01*
X92500D01*
G01X95000Y35420D02*
X92500D01*
X94292Y34433D01*
Y35767D01*
G01X100000Y63767D02*
X97500D01*
Y64433D01*
X97625Y64647D01*
X97792Y64780D01*
X98125Y64833D01*
X98458Y64780D01*
X98667Y64620D01*
X98792Y64433D01*
Y63767D01*
G01Y64433D02*
X100000Y64833D01*
G01Y66500D02*
X97500D01*
X98000Y66180D01*
G01X100000D02*
Y66820D01*
G01Y68700D02*
X99958Y68887D01*
X99833Y69100D01*
X99625Y69233D01*
X99333Y69287D01*
X99042Y69233D01*
X98792Y69073D01*
X98667Y68833D01*
Y68567D01*
X98583Y68407D01*
X98375Y68273D01*
X98083Y68220D01*
X97792Y68300D01*
X97583Y68487D01*
X97500Y68700D01*
X97583Y68913D01*
X97792Y69100D01*
X98083Y69180D01*
X98375Y69127D01*
X98583Y68993D01*
X98667Y68833D01*
Y68567D01*
X98792Y68327D01*
X99042Y68167D01*
X99333Y68113D01*
X99625Y68167D01*
X99833Y68300D01*
X99958Y68513D01*
X100000Y68700D01*
G01X104500Y65267D02*
X102000D01*
Y65933D01*
X102125Y66147D01*
X102292Y66280D01*
X102625Y66333D01*
X102958Y66280D01*
X103167Y66120D01*
X103292Y65933D01*
Y65267D01*
G01Y65933D02*
X104500Y66333D01*
G01Y68000D02*
X102000D01*
X102500Y67680D01*
G01X104500D02*
Y68320D01*
G01X104208Y69747D02*
X104417Y69933D01*
X104500Y70147D01*
X104417Y70360D01*
X104167Y70547D01*
X103792Y70680D01*
X103417Y70733D01*
X102958D01*
X102583Y70680D01*
X102250Y70547D01*
X102083Y70387D01*
X102000Y70200D01*
X102083Y69987D01*
X102250Y69827D01*
X102500Y69720D01*
X102833Y69667D01*
X103125Y69720D01*
X103417Y69853D01*
X103583Y70013D01*
X103625Y70200D01*
X103542Y70413D01*
X103333Y70573D01*
X102958Y70733D01*
G01X100000Y70267D02*
X97500D01*
Y70933D01*
X97625Y71147D01*
X97792Y71280D01*
X98125Y71333D01*
X98458Y71280D01*
X98667Y71120D01*
X98792Y70933D01*
Y70267D01*
G01Y70933D02*
X100000Y71333D01*
G01Y73000D02*
X97500D01*
X98000Y72680D01*
G01X100000D02*
Y73320D01*
G01X98958Y74693D02*
X98667Y74880D01*
X98500Y75040D01*
X98417Y75253D01*
X98500Y75440D01*
X98667Y75573D01*
X98917Y75680D01*
X99208Y75707D01*
X99458Y75680D01*
X99708Y75573D01*
X99917Y75413D01*
X100000Y75227D01*
X99917Y75013D01*
X99667Y74827D01*
X99292Y74720D01*
X98875Y74693D01*
X98333Y74747D01*
X98042Y74827D01*
X97750Y74960D01*
X97542Y75147D01*
X97500Y75333D01*
X97583Y75520D01*
X97792Y75653D01*
G01X104500Y71267D02*
X102000D01*
Y71933D01*
X102125Y72147D01*
X102292Y72280D01*
X102625Y72333D01*
X102958Y72280D01*
X103167Y72120D01*
X103292Y71933D01*
Y71267D01*
G01Y71933D02*
X104500Y72333D01*
G01X102417Y73493D02*
X102167Y73653D01*
X102042Y73840D01*
X102000Y74053D01*
X102083Y74320D01*
X102292Y74507D01*
X102542Y74560D01*
X102792Y74533D01*
X103000Y74427D01*
X103417Y73893D01*
X103708Y73653D01*
X104125Y73493D01*
X104500Y73440D01*
Y74560D01*
G01X102000Y76200D02*
X102083Y75987D01*
X102292Y75827D01*
X102542Y75720D01*
X102875Y75640D01*
X103250Y75613D01*
X103625Y75640D01*
X103958Y75720D01*
X104208Y75827D01*
X104417Y75987D01*
X104500Y76200D01*
X104417Y76413D01*
X104208Y76573D01*
X103958Y76680D01*
X103625Y76760D01*
X103250Y76787D01*
X102875Y76760D01*
X102542Y76680D01*
X102292Y76573D01*
X102083Y76413D01*
X102000Y76200D01*
G01X97792Y83113D02*
X97917Y83273D01*
X98000Y83460D01*
Y83673D01*
X97875Y83913D01*
X97667Y84100D01*
X97417Y84233D01*
X97000Y84340D01*
X96625Y84367D01*
X96250Y84313D01*
X96000Y84233D01*
X95750Y84073D01*
X95583Y83887D01*
X95500Y83700D01*
Y83513D01*
X95583Y83327D01*
X95708Y83167D01*
X95875Y83033D01*
G01X95500Y81500D02*
X98000D01*
X97500Y81820D01*
G01X95500D02*
Y81180D01*
G01X95792Y79753D02*
X95583Y79567D01*
X95500Y79353D01*
X95583Y79140D01*
X95833Y78953D01*
X96208Y78820D01*
X96583Y78767D01*
X97042D01*
X97417Y78820D01*
X97750Y78953D01*
X97917Y79113D01*
X98000Y79300D01*
X97917Y79513D01*
X97750Y79673D01*
X97500Y79780D01*
X97167Y79833D01*
X96875Y79780D01*
X96583Y79647D01*
X96417Y79487D01*
X96375Y79300D01*
X96458Y79087D01*
X96667Y78927D01*
X97042Y78767D01*
G01X102000Y170867D02*
X99500D01*
Y171533D01*
X99625Y171747D01*
X99792Y171880D01*
X100125Y171933D01*
X100458Y171880D01*
X100667Y171720D01*
X100792Y171533D01*
Y170867D01*
G01Y171533D02*
X102000Y171933D01*
G01Y173547D02*
X101458Y173600D01*
X101000Y173680D01*
X100583Y173787D01*
X100125Y173920D01*
X99500Y174133D01*
Y173067D01*
G01X109813Y32500D02*
Y35000D01*
X110347D01*
X110560Y34875D01*
X110720Y34708D01*
X110853Y34458D01*
X110960Y34167D01*
X110987Y33750D01*
X110960Y33333D01*
X110853Y33042D01*
X110720Y32792D01*
X110560Y32625D01*
X110347Y32500D01*
X109813D01*
G01X112600D02*
Y35000D01*
X112280Y34500D01*
G01Y32500D02*
X112920D01*
G01X109867Y42500D02*
Y40000D01*
X110933D01*
G01X112013Y40500D02*
X112173Y40208D01*
X112387Y40042D01*
X112627Y40000D01*
X112840Y40042D01*
X113053Y40250D01*
X113187Y40500D01*
X113213Y40750D01*
X113160Y41042D01*
X112973Y41250D01*
X112787Y41333D01*
X112547D01*
G01X112787D02*
X112947Y41458D01*
X113080Y41667D01*
X113133Y41917D01*
X113080Y42167D01*
X112947Y42375D01*
X112707Y42500D01*
X112467Y42458D01*
X112227Y42292D01*
G01X109387Y68292D02*
X109227Y68417D01*
X109040Y68500D01*
X108827D01*
X108587Y68375D01*
X108400Y68167D01*
X108267Y67917D01*
X108160Y67500D01*
X108133Y67125D01*
X108187Y66750D01*
X108267Y66500D01*
X108427Y66250D01*
X108613Y66083D01*
X108800Y66000D01*
X108987D01*
X109173Y66083D01*
X109333Y66208D01*
X109467Y66375D01*
G01X110413Y66500D02*
X110573Y66208D01*
X110787Y66042D01*
X111027Y66000D01*
X111240Y66042D01*
X111453Y66250D01*
X111587Y66500D01*
X111613Y66750D01*
X111560Y67042D01*
X111373Y67250D01*
X111187Y67333D01*
X110947D01*
G01X111187D02*
X111347Y67458D01*
X111480Y67667D01*
X111533Y67917D01*
X111480Y68167D01*
X111347Y68375D01*
X111107Y68500D01*
X110867Y68458D01*
X110627Y68292D01*
G01X112693Y68083D02*
X112853Y68333D01*
X113040Y68458D01*
X113253Y68500D01*
X113520Y68417D01*
X113707Y68208D01*
X113760Y67958D01*
X113733Y67708D01*
X113627Y67500D01*
X113093Y67083D01*
X112853Y66792D01*
X112693Y66375D01*
X112640Y66000D01*
X113760D01*
G01X107292Y83013D02*
X107417Y83173D01*
X107500Y83360D01*
Y83573D01*
X107375Y83813D01*
X107167Y84000D01*
X106917Y84133D01*
X106500Y84240D01*
X106125Y84267D01*
X105750Y84213D01*
X105500Y84133D01*
X105250Y83973D01*
X105083Y83787D01*
X105000Y83600D01*
Y83413D01*
X105083Y83227D01*
X105208Y83067D01*
X105375Y82933D01*
G01X105292Y81853D02*
X105083Y81667D01*
X105000Y81453D01*
X105083Y81240D01*
X105333Y81053D01*
X105708Y80920D01*
X106083Y80867D01*
X106542D01*
X106917Y80920D01*
X107250Y81053D01*
X107417Y81213D01*
X107500Y81400D01*
X107417Y81613D01*
X107250Y81773D01*
X107000Y81880D01*
X106667Y81933D01*
X106375Y81880D01*
X106083Y81747D01*
X105917Y81587D01*
X105875Y81400D01*
X105958Y81187D01*
X106167Y81027D01*
X106542Y80867D01*
G01X117292Y83113D02*
X117417Y83273D01*
X117500Y83460D01*
Y83673D01*
X117375Y83913D01*
X117167Y84100D01*
X116917Y84233D01*
X116500Y84340D01*
X116125Y84367D01*
X115750Y84313D01*
X115500Y84233D01*
X115250Y84073D01*
X115083Y83887D01*
X115000Y83700D01*
Y83513D01*
X115083Y83327D01*
X115208Y83167D01*
X115375Y83033D01*
G01X115000Y81180D02*
X117500D01*
X115708Y82167D01*
Y80833D01*
G01X115000Y79300D02*
X115042Y79113D01*
X115167Y78900D01*
X115375Y78767D01*
X115667Y78713D01*
X115958Y78767D01*
X116208Y78927D01*
X116333Y79167D01*
Y79433D01*
X116417Y79593D01*
X116625Y79727D01*
X116917Y79780D01*
X117208Y79700D01*
X117417Y79513D01*
X117500Y79300D01*
X117417Y79087D01*
X117208Y78900D01*
X116917Y78820D01*
X116625Y78873D01*
X116417Y79007D01*
X116333Y79167D01*
Y79433D01*
X116208Y79673D01*
X115958Y79833D01*
X115667Y79887D01*
X115375Y79833D01*
X115167Y79700D01*
X115042Y79487D01*
X115000Y79300D01*
G01X111792Y83113D02*
X111917Y83273D01*
X112000Y83460D01*
Y83673D01*
X111875Y83913D01*
X111667Y84100D01*
X111417Y84233D01*
X111000Y84340D01*
X110625Y84367D01*
X110250Y84313D01*
X110000Y84233D01*
X109750Y84073D01*
X109583Y83887D01*
X109500Y83700D01*
Y83513D01*
X109583Y83327D01*
X109708Y83167D01*
X109875Y83033D01*
G01X109500Y81180D02*
X112000D01*
X110208Y82167D01*
Y80833D01*
G01X109792Y79753D02*
X109583Y79567D01*
X109500Y79353D01*
X109583Y79140D01*
X109833Y78953D01*
X110208Y78820D01*
X110583Y78767D01*
X111042D01*
X111417Y78820D01*
X111750Y78953D01*
X111917Y79113D01*
X112000Y79300D01*
X111917Y79513D01*
X111750Y79673D01*
X111500Y79780D01*
X111167Y79833D01*
X110875Y79780D01*
X110583Y79647D01*
X110417Y79487D01*
X110375Y79300D01*
X110458Y79087D01*
X110667Y78927D01*
X111042Y78767D01*
G01X116547Y170367D02*
X114047D01*
Y171033D01*
X114172Y171247D01*
X114339Y171380D01*
X114672Y171433D01*
X115005Y171380D01*
X115214Y171220D01*
X115339Y171033D01*
Y170367D01*
G01Y171033D02*
X116547Y171433D01*
G01X116255Y172647D02*
X116464Y172833D01*
X116547Y173047D01*
X116464Y173260D01*
X116214Y173447D01*
X115839Y173580D01*
X115464Y173633D01*
X115005D01*
X114630Y173580D01*
X114297Y173447D01*
X114130Y173287D01*
X114047Y173100D01*
X114130Y172887D01*
X114297Y172727D01*
X114547Y172620D01*
X114880Y172567D01*
X115172Y172620D01*
X115464Y172753D01*
X115630Y172913D01*
X115672Y173100D01*
X115589Y173313D01*
X115380Y173473D01*
X115005Y173633D01*
G01X124887Y7292D02*
X124727Y7417D01*
X124540Y7500D01*
X124327D01*
X124087Y7375D01*
X123900Y7167D01*
X123767Y6917D01*
X123660Y6500D01*
X123633Y6125D01*
X123687Y5750D01*
X123767Y5500D01*
X123927Y5250D01*
X124113Y5083D01*
X124300Y5000D01*
X124487D01*
X124673Y5083D01*
X124833Y5208D01*
X124967Y5375D01*
G01X125993Y7083D02*
X126153Y7333D01*
X126340Y7458D01*
X126553Y7500D01*
X126820Y7417D01*
X127007Y7208D01*
X127060Y6958D01*
X127033Y6708D01*
X126927Y6500D01*
X126393Y6083D01*
X126153Y5792D01*
X125993Y5375D01*
X125940Y5000D01*
X127060D01*
G01X128193Y6042D02*
X128380Y6333D01*
X128540Y6500D01*
X128753Y6583D01*
X128940Y6500D01*
X129073Y6333D01*
X129180Y6083D01*
X129207Y5792D01*
X129180Y5542D01*
X129073Y5292D01*
X128913Y5083D01*
X128727Y5000D01*
X128513Y5083D01*
X128327Y5333D01*
X128220Y5708D01*
X128193Y6125D01*
X128247Y6667D01*
X128327Y6958D01*
X128460Y7250D01*
X128647Y7458D01*
X128833Y7500D01*
X129020Y7417D01*
X129153Y7208D01*
G01X124887Y3292D02*
X124727Y3417D01*
X124540Y3500D01*
X124327D01*
X124087Y3375D01*
X123900Y3167D01*
X123767Y2917D01*
X123660Y2500D01*
X123633Y2125D01*
X123687Y1750D01*
X123767Y1500D01*
X123927Y1250D01*
X124113Y1083D01*
X124300Y1000D01*
X124487D01*
X124673Y1083D01*
X124833Y1208D01*
X124967Y1375D01*
G01X125993Y3083D02*
X126153Y3333D01*
X126340Y3458D01*
X126553Y3500D01*
X126820Y3417D01*
X127007Y3208D01*
X127060Y2958D01*
X127033Y2708D01*
X126927Y2500D01*
X126393Y2083D01*
X126153Y1792D01*
X125993Y1375D01*
X125940Y1000D01*
X127060D01*
G01X128647D02*
X128700Y1542D01*
X128780Y2000D01*
X128887Y2417D01*
X129020Y2875D01*
X129233Y3500D01*
X128167D01*
G01X116867Y9000D02*
Y6500D01*
X117933D01*
G01X119093Y8583D02*
X119253Y8833D01*
X119440Y8958D01*
X119653Y9000D01*
X119920Y8917D01*
X120107Y8708D01*
X120160Y8458D01*
X120133Y8208D01*
X120027Y8000D01*
X119493Y7583D01*
X119253Y7292D01*
X119093Y6875D01*
X119040Y6500D01*
X120160D01*
G01X119500Y54233D02*
X122000D01*
Y53567D01*
X121875Y53353D01*
X121708Y53220D01*
X121375Y53167D01*
X121042Y53220D01*
X120833Y53380D01*
X120708Y53567D01*
Y54233D01*
G01Y53567D02*
X119500Y53167D01*
G01Y51500D02*
X122000D01*
X121500Y51820D01*
G01X119500D02*
Y51180D01*
G01X120000Y49887D02*
X119708Y49727D01*
X119542Y49513D01*
X119500Y49273D01*
X119542Y49060D01*
X119750Y48847D01*
X120000Y48713D01*
X120250Y48687D01*
X120542Y48740D01*
X120750Y48927D01*
X120833Y49113D01*
Y49353D01*
G01Y49113D02*
X120958Y48953D01*
X121167Y48820D01*
X121417Y48767D01*
X121667Y48820D01*
X121875Y48953D01*
X122000Y49193D01*
X121958Y49433D01*
X121792Y49673D01*
G01X126487Y64845D02*
X126327Y64970D01*
X126140Y65053D01*
X125927D01*
X125687Y64928D01*
X125500Y64720D01*
X125367Y64470D01*
X125260Y64053D01*
X125233Y63678D01*
X125287Y63303D01*
X125367Y63053D01*
X125527Y62803D01*
X125713Y62636D01*
X125900Y62553D01*
X126087D01*
X126273Y62636D01*
X126433Y62761D01*
X126567Y62928D01*
G01X127593Y64636D02*
X127753Y64886D01*
X127940Y65011D01*
X128153Y65053D01*
X128420Y64970D01*
X128607Y64761D01*
X128660Y64511D01*
X128633Y64261D01*
X128527Y64053D01*
X127993Y63636D01*
X127753Y63345D01*
X127593Y62928D01*
X127540Y62553D01*
X128660D01*
G01X130620D02*
Y65053D01*
X129633Y63261D01*
X130967D01*
G01X122292Y83113D02*
X122417Y83273D01*
X122500Y83460D01*
Y83673D01*
X122375Y83913D01*
X122167Y84100D01*
X121917Y84233D01*
X121500Y84340D01*
X121125Y84367D01*
X120750Y84313D01*
X120500Y84233D01*
X120250Y84073D01*
X120083Y83887D01*
X120000Y83700D01*
Y83513D01*
X120083Y83327D01*
X120208Y83167D01*
X120375Y83033D01*
G01X120000Y81180D02*
X122500D01*
X120708Y82167D01*
Y80833D01*
G01X120000Y78980D02*
X122500D01*
X120708Y79967D01*
Y78633D01*
G01X127292Y83113D02*
X127417Y83273D01*
X127500Y83460D01*
Y83673D01*
X127375Y83913D01*
X127167Y84100D01*
X126917Y84233D01*
X126500Y84340D01*
X126125Y84367D01*
X125750Y84313D01*
X125500Y84233D01*
X125250Y84073D01*
X125083Y83887D01*
X125000Y83700D01*
Y83513D01*
X125083Y83327D01*
X125208Y83167D01*
X125375Y83033D01*
G01X125000Y81180D02*
X127500D01*
X125708Y82167D01*
Y80833D01*
G01X125375Y79887D02*
X125167Y79727D01*
X125042Y79540D01*
X125000Y79300D01*
X125083Y79060D01*
X125250Y78873D01*
X125542Y78740D01*
X125875Y78713D01*
X126208Y78767D01*
X126417Y78900D01*
X126583Y79087D01*
X126625Y79273D01*
X126583Y79460D01*
X126417Y79700D01*
X127500Y79620D01*
Y78900D01*
G01X116487Y145292D02*
X116327Y145417D01*
X116140Y145500D01*
X115927D01*
X115687Y145375D01*
X115500Y145167D01*
X115367Y144917D01*
X115260Y144500D01*
X115233Y144125D01*
X115287Y143750D01*
X115367Y143500D01*
X115527Y143250D01*
X115713Y143083D01*
X115900Y143000D01*
X116087D01*
X116273Y143083D01*
X116433Y143208D01*
X116567Y143375D01*
G01X118047Y143000D02*
X118100Y143542D01*
X118180Y144000D01*
X118287Y144417D01*
X118420Y144875D01*
X118633Y145500D01*
X117567D01*
G01X116987Y151292D02*
X116827Y151417D01*
X116640Y151500D01*
X116427D01*
X116187Y151375D01*
X116000Y151167D01*
X115867Y150917D01*
X115760Y150500D01*
X115733Y150125D01*
X115787Y149750D01*
X115867Y149500D01*
X116027Y149250D01*
X116213Y149083D01*
X116400Y149000D01*
X116587D01*
X116773Y149083D01*
X116933Y149208D01*
X117067Y149375D01*
G01X118600Y149000D02*
X118787Y149042D01*
X119000Y149167D01*
X119133Y149375D01*
X119187Y149667D01*
X119133Y149958D01*
X118973Y150208D01*
X118733Y150333D01*
X118467D01*
X118307Y150417D01*
X118173Y150625D01*
X118120Y150917D01*
X118200Y151208D01*
X118387Y151417D01*
X118600Y151500D01*
X118813Y151417D01*
X119000Y151208D01*
X119080Y150917D01*
X119027Y150625D01*
X118893Y150417D01*
X118733Y150333D01*
X118467D01*
X118227Y150208D01*
X118067Y149958D01*
X118013Y149667D01*
X118067Y149375D01*
X118200Y149167D01*
X118413Y149042D01*
X118600Y149000D01*
G01X120367Y145500D02*
Y143000D01*
X121433D01*
G01X123100D02*
Y145500D01*
X122780Y145000D01*
G01Y143000D02*
X123420D01*
G01X121487Y151292D02*
X121327Y151417D01*
X121140Y151500D01*
X120927D01*
X120687Y151375D01*
X120500Y151167D01*
X120367Y150917D01*
X120260Y150500D01*
X120233Y150125D01*
X120287Y149750D01*
X120367Y149500D01*
X120527Y149250D01*
X120713Y149083D01*
X120900Y149000D01*
X121087D01*
X121273Y149083D01*
X121433Y149208D01*
X121567Y149375D01*
G01X123420Y149000D02*
Y151500D01*
X122433Y149708D01*
X123767D01*
G01X122767Y157500D02*
Y160000D01*
X123433D01*
X123647Y159875D01*
X123780Y159708D01*
X123833Y159375D01*
X123780Y159042D01*
X123620Y158833D01*
X123433Y158708D01*
X122767D01*
G01X123433D02*
X123833Y157500D01*
G01X125500D02*
Y160000D01*
X125180Y159500D01*
G01Y157500D02*
X125820D01*
G01X127700Y160000D02*
X127487Y159917D01*
X127327Y159708D01*
X127220Y159458D01*
X127140Y159125D01*
X127113Y158750D01*
X127140Y158375D01*
X127220Y158042D01*
X127327Y157792D01*
X127487Y157583D01*
X127700Y157500D01*
X127913Y157583D01*
X128073Y157792D01*
X128180Y158042D01*
X128260Y158375D01*
X128287Y158750D01*
X128260Y159125D01*
X128180Y159458D01*
X128073Y159708D01*
X127913Y159917D01*
X127700Y160000D01*
G01X122367Y153500D02*
Y156000D01*
X123033D01*
X123247Y155875D01*
X123380Y155708D01*
X123433Y155375D01*
X123380Y155042D01*
X123220Y154833D01*
X123033Y154708D01*
X122367D01*
G01X123033D02*
X123433Y153500D01*
G01X124513Y154000D02*
X124673Y153708D01*
X124887Y153542D01*
X125127Y153500D01*
X125340Y153542D01*
X125553Y153750D01*
X125687Y154000D01*
X125713Y154250D01*
X125660Y154542D01*
X125473Y154750D01*
X125287Y154833D01*
X125047D01*
G01X125287D02*
X125447Y154958D01*
X125580Y155167D01*
X125633Y155417D01*
X125580Y155667D01*
X125447Y155875D01*
X125207Y156000D01*
X124967Y155958D01*
X124727Y155792D01*
G01X116867Y157500D02*
Y160000D01*
X117533D01*
X117747Y159875D01*
X117880Y159708D01*
X117933Y159375D01*
X117880Y159042D01*
X117720Y158833D01*
X117533Y158708D01*
X116867D01*
G01X117533D02*
X117933Y157500D01*
G01X119093Y159583D02*
X119253Y159833D01*
X119440Y159958D01*
X119653Y160000D01*
X119920Y159917D01*
X120107Y159708D01*
X120160Y159458D01*
X120133Y159208D01*
X120027Y159000D01*
X119493Y158583D01*
X119253Y158292D01*
X119093Y157875D01*
X119040Y157500D01*
X120160D01*
G01X118367Y162500D02*
Y165000D01*
X119033D01*
X119247Y164875D01*
X119380Y164708D01*
X119433Y164375D01*
X119380Y164042D01*
X119220Y163833D01*
X119033Y163708D01*
X118367D01*
G01X119033D02*
X119433Y162500D01*
G01X121100D02*
Y165000D01*
X120780Y164500D01*
G01Y162500D02*
X121420D01*
G01X123987Y164792D02*
X123827Y164917D01*
X123640Y165000D01*
X123427D01*
X123187Y164875D01*
X123000Y164667D01*
X122867Y164417D01*
X122760Y164000D01*
X122733Y163625D01*
X122787Y163250D01*
X122867Y163000D01*
X123027Y162750D01*
X123213Y162583D01*
X123400Y162500D01*
X123587D01*
X123773Y162583D01*
X123933Y162708D01*
X124067Y162875D01*
G01X125013Y163000D02*
X125173Y162708D01*
X125387Y162542D01*
X125627Y162500D01*
X125840Y162542D01*
X126053Y162750D01*
X126187Y163000D01*
X126213Y163250D01*
X126160Y163542D01*
X125973Y163750D01*
X125787Y163833D01*
X125547D01*
G01X125787D02*
X125947Y163958D01*
X126080Y164167D01*
X126133Y164417D01*
X126080Y164667D01*
X125947Y164875D01*
X125707Y165000D01*
X125467Y164958D01*
X125227Y164792D01*
G01X138387Y7292D02*
X138227Y7417D01*
X138040Y7500D01*
X137827D01*
X137587Y7375D01*
X137400Y7167D01*
X137267Y6917D01*
X137160Y6500D01*
X137133Y6125D01*
X137187Y5750D01*
X137267Y5500D01*
X137427Y5250D01*
X137613Y5083D01*
X137800Y5000D01*
X137987D01*
X138173Y5083D01*
X138333Y5208D01*
X138467Y5375D01*
G01X139493Y7083D02*
X139653Y7333D01*
X139840Y7458D01*
X140053Y7500D01*
X140320Y7417D01*
X140507Y7208D01*
X140560Y6958D01*
X140533Y6708D01*
X140427Y6500D01*
X139893Y6083D01*
X139653Y5792D01*
X139493Y5375D01*
X139440Y5000D01*
X140560D01*
G01X141613Y5500D02*
X141773Y5208D01*
X141987Y5042D01*
X142227Y5000D01*
X142440Y5042D01*
X142653Y5250D01*
X142787Y5500D01*
X142813Y5750D01*
X142760Y6042D01*
X142573Y6250D01*
X142387Y6333D01*
X142147D01*
G01X142387D02*
X142547Y6458D01*
X142680Y6667D01*
X142733Y6917D01*
X142680Y7167D01*
X142547Y7375D01*
X142307Y7500D01*
X142067Y7458D01*
X141827Y7292D01*
G01X131887Y3292D02*
X131727Y3417D01*
X131540Y3500D01*
X131327D01*
X131087Y3375D01*
X130900Y3167D01*
X130767Y2917D01*
X130660Y2500D01*
X130633Y2125D01*
X130687Y1750D01*
X130767Y1500D01*
X130927Y1250D01*
X131113Y1083D01*
X131300Y1000D01*
X131487D01*
X131673Y1083D01*
X131833Y1208D01*
X131967Y1375D01*
G01X132993Y3083D02*
X133153Y3333D01*
X133340Y3458D01*
X133553Y3500D01*
X133820Y3417D01*
X134007Y3208D01*
X134060Y2958D01*
X134033Y2708D01*
X133927Y2500D01*
X133393Y2083D01*
X133153Y1792D01*
X132993Y1375D01*
X132940Y1000D01*
X134060D01*
G01X135113Y1375D02*
X135273Y1167D01*
X135460Y1042D01*
X135700Y1000D01*
X135940Y1083D01*
X136127Y1250D01*
X136260Y1542D01*
X136287Y1875D01*
X136233Y2208D01*
X136100Y2417D01*
X135913Y2583D01*
X135727Y2625D01*
X135540Y2583D01*
X135300Y2417D01*
X135380Y3500D01*
X136100D01*
G01X130767Y5000D02*
Y7500D01*
X131433D01*
X131647Y7375D01*
X131780Y7208D01*
X131833Y6875D01*
X131780Y6542D01*
X131620Y6333D01*
X131433Y6208D01*
X130767D01*
G01X131433D02*
X131833Y5000D01*
G01X133500D02*
Y7500D01*
X133180Y7000D01*
G01Y5000D02*
X133820D01*
G01X136020D02*
Y7500D01*
X135033Y5708D01*
X136367D01*
G01X138000Y46687D02*
X136208D01*
X135833Y46580D01*
X135583Y46367D01*
X135500Y46100D01*
X135583Y45833D01*
X135833Y45620D01*
X136208Y45513D01*
X138000D01*
G01X137583Y44407D02*
X137833Y44247D01*
X137958Y44060D01*
X138000Y43847D01*
X137917Y43580D01*
X137708Y43393D01*
X137458Y43340D01*
X137208Y43367D01*
X137000Y43473D01*
X136583Y44007D01*
X136292Y44247D01*
X135875Y44407D01*
X135500Y44460D01*
Y43340D01*
G01X133553Y54833D02*
X136053D01*
Y54167D01*
X135928Y53953D01*
X135761Y53820D01*
X135428Y53767D01*
X135095Y53820D01*
X134886Y53980D01*
X134761Y54167D01*
Y54833D01*
G01Y54167D02*
X133553Y53767D01*
G01Y52100D02*
X136053D01*
X135553Y52420D01*
G01X133553D02*
Y51780D01*
G01X135636Y50407D02*
X135886Y50247D01*
X136011Y50060D01*
X136053Y49847D01*
X135970Y49580D01*
X135761Y49393D01*
X135511Y49340D01*
X135261Y49367D01*
X135053Y49473D01*
X134636Y50007D01*
X134345Y50247D01*
X133928Y50407D01*
X133553Y50460D01*
Y49340D01*
G01X132292Y83113D02*
X132417Y83273D01*
X132500Y83460D01*
Y83673D01*
X132375Y83913D01*
X132167Y84100D01*
X131917Y84233D01*
X131500Y84340D01*
X131125Y84367D01*
X130750Y84313D01*
X130500Y84233D01*
X130250Y84073D01*
X130083Y83887D01*
X130000Y83700D01*
Y83513D01*
X130083Y83327D01*
X130208Y83167D01*
X130375Y83033D01*
G01X130000Y81180D02*
X132500D01*
X130708Y82167D01*
Y80833D01*
G01X131042Y79807D02*
X131333Y79620D01*
X131500Y79460D01*
X131583Y79247D01*
X131500Y79060D01*
X131333Y78927D01*
X131083Y78820D01*
X130792Y78793D01*
X130542Y78820D01*
X130292Y78927D01*
X130083Y79087D01*
X130000Y79273D01*
X130083Y79487D01*
X130333Y79673D01*
X130708Y79780D01*
X131125Y79807D01*
X131667Y79753D01*
X131958Y79673D01*
X132250Y79540D01*
X132458Y79353D01*
X132500Y79167D01*
X132417Y78980D01*
X132208Y78847D01*
G01X137292Y83113D02*
X137417Y83273D01*
X137500Y83460D01*
Y83673D01*
X137375Y83913D01*
X137167Y84100D01*
X136917Y84233D01*
X136500Y84340D01*
X136125Y84367D01*
X135750Y84313D01*
X135500Y84233D01*
X135250Y84073D01*
X135083Y83887D01*
X135000Y83700D01*
Y83513D01*
X135083Y83327D01*
X135208Y83167D01*
X135375Y83033D01*
G01X135000Y81180D02*
X137500D01*
X135708Y82167D01*
Y80833D01*
G01X135000Y79353D02*
X135542Y79300D01*
X136000Y79220D01*
X136417Y79113D01*
X136875Y78980D01*
X137500Y78767D01*
Y79833D01*
G01Y149267D02*
X135000D01*
Y149933D01*
X135125Y150147D01*
X135292Y150280D01*
X135625Y150333D01*
X135958Y150280D01*
X136167Y150120D01*
X136292Y149933D01*
Y149267D01*
G01Y149933D02*
X137500Y150333D01*
G01X137000Y151413D02*
X137292Y151573D01*
X137458Y151787D01*
X137500Y152027D01*
X137458Y152240D01*
X137250Y152453D01*
X137000Y152587D01*
X136750Y152613D01*
X136458Y152560D01*
X136250Y152373D01*
X136167Y152187D01*
Y151947D01*
G01Y152187D02*
X136042Y152347D01*
X135833Y152480D01*
X135583Y152533D01*
X135333Y152480D01*
X135125Y152347D01*
X135000Y152107D01*
X135042Y151867D01*
X135208Y151627D01*
G01X137125Y153613D02*
X137333Y153773D01*
X137458Y153960D01*
X137500Y154200D01*
X137417Y154440D01*
X137250Y154627D01*
X136958Y154760D01*
X136625Y154787D01*
X136292Y154733D01*
X136083Y154600D01*
X135917Y154413D01*
X135875Y154227D01*
X135917Y154040D01*
X136083Y153800D01*
X135000Y153880D01*
Y154600D01*
G01X147387Y4792D02*
X147227Y4917D01*
X147040Y5000D01*
X146827D01*
X146587Y4875D01*
X146400Y4667D01*
X146267Y4417D01*
X146160Y4000D01*
X146133Y3625D01*
X146187Y3250D01*
X146267Y3000D01*
X146427Y2750D01*
X146613Y2583D01*
X146800Y2500D01*
X146987D01*
X147173Y2583D01*
X147333Y2708D01*
X147467Y2875D01*
G01X148413Y3000D02*
X148573Y2708D01*
X148787Y2542D01*
X149027Y2500D01*
X149240Y2542D01*
X149453Y2750D01*
X149587Y3000D01*
X149613Y3250D01*
X149560Y3542D01*
X149373Y3750D01*
X149187Y3833D01*
X148947D01*
G01X149187D02*
X149347Y3958D01*
X149480Y4167D01*
X149533Y4417D01*
X149480Y4667D01*
X149347Y4875D01*
X149107Y5000D01*
X148867Y4958D01*
X148627Y4792D01*
G01X151200Y5000D02*
X150987Y4917D01*
X150827Y4708D01*
X150720Y4458D01*
X150640Y4125D01*
X150613Y3750D01*
X150640Y3375D01*
X150720Y3042D01*
X150827Y2792D01*
X150987Y2583D01*
X151200Y2500D01*
X151413Y2583D01*
X151573Y2792D01*
X151680Y3042D01*
X151760Y3375D01*
X151787Y3750D01*
X151760Y4125D01*
X151680Y4458D01*
X151573Y4708D01*
X151413Y4917D01*
X151200Y5000D01*
G01X146267Y6000D02*
Y8500D01*
X146933D01*
X147147Y8375D01*
X147280Y8208D01*
X147333Y7875D01*
X147280Y7542D01*
X147120Y7333D01*
X146933Y7208D01*
X146267D01*
G01X146933D02*
X147333Y6000D01*
G01X149000D02*
Y8500D01*
X148680Y8000D01*
G01Y6000D02*
X149320D01*
G01X150613Y6375D02*
X150773Y6167D01*
X150960Y6042D01*
X151200Y6000D01*
X151440Y6083D01*
X151627Y6250D01*
X151760Y6542D01*
X151787Y6875D01*
X151733Y7208D01*
X151600Y7417D01*
X151413Y7583D01*
X151227Y7625D01*
X151040Y7583D01*
X150800Y7417D01*
X150880Y8500D01*
X151600D01*
G01X139500Y26313D02*
X141292D01*
X141667Y26420D01*
X141917Y26633D01*
X142000Y26900D01*
X141917Y27167D01*
X141667Y27380D01*
X141292Y27487D01*
X139500D01*
G01X141500Y28513D02*
X141792Y28673D01*
X141958Y28887D01*
X142000Y29127D01*
X141958Y29340D01*
X141750Y29553D01*
X141500Y29687D01*
X141250Y29713D01*
X140958Y29660D01*
X140750Y29473D01*
X140667Y29287D01*
Y29047D01*
G01Y29287D02*
X140542Y29447D01*
X140333Y29580D01*
X140083Y29633D01*
X139833Y29580D01*
X139625Y29447D01*
X139500Y29207D01*
X139542Y28967D01*
X139708Y28727D01*
G01X150292Y40613D02*
X150417Y40773D01*
X150500Y40960D01*
Y41173D01*
X150375Y41413D01*
X150167Y41600D01*
X149917Y41733D01*
X149500Y41840D01*
X149125Y41867D01*
X148750Y41813D01*
X148500Y41733D01*
X148250Y41573D01*
X148083Y41387D01*
X148000Y41200D01*
Y41013D01*
X148083Y40827D01*
X148208Y40667D01*
X148375Y40533D01*
G01X150083Y39507D02*
X150333Y39347D01*
X150458Y39160D01*
X150500Y38947D01*
X150417Y38680D01*
X150208Y38493D01*
X149958Y38440D01*
X149708Y38467D01*
X149500Y38573D01*
X149083Y39107D01*
X148792Y39347D01*
X148375Y39507D01*
X148000Y39560D01*
Y38440D01*
G01Y36800D02*
X150500D01*
X150000Y37120D01*
G01X148000D02*
Y36480D01*
G01X144500Y41733D02*
X147000D01*
Y41067D01*
X146875Y40853D01*
X146708Y40720D01*
X146375Y40667D01*
X146042Y40720D01*
X145833Y40880D01*
X145708Y41067D01*
Y41733D01*
G01Y41067D02*
X144500Y40667D01*
G01Y39000D02*
X147000D01*
X146500Y39320D01*
G01X144500D02*
Y38680D01*
G01Y36800D02*
X147000D01*
X146500Y37120D01*
G01X144500D02*
Y36480D01*
G01X145708Y51387D02*
X145583Y51227D01*
X145500Y51040D01*
Y50827D01*
X145625Y50587D01*
X145833Y50400D01*
X146083Y50267D01*
X146500Y50160D01*
X146875Y50133D01*
X147250Y50187D01*
X147500Y50267D01*
X147750Y50427D01*
X147917Y50613D01*
X148000Y50800D01*
Y50987D01*
X147917Y51173D01*
X147792Y51333D01*
X147625Y51467D01*
G01X147500Y52413D02*
X147792Y52573D01*
X147958Y52787D01*
X148000Y53027D01*
X147958Y53240D01*
X147750Y53453D01*
X147500Y53587D01*
X147250Y53613D01*
X146958Y53560D01*
X146750Y53373D01*
X146667Y53187D01*
Y52947D01*
G01Y53187D02*
X146542Y53347D01*
X146333Y53480D01*
X146083Y53533D01*
X145833Y53480D01*
X145625Y53347D01*
X145500Y53107D01*
X145542Y52867D01*
X145708Y52627D01*
G01X147500Y54613D02*
X147792Y54773D01*
X147958Y54987D01*
X148000Y55227D01*
X147958Y55440D01*
X147750Y55653D01*
X147500Y55787D01*
X147250Y55813D01*
X146958Y55760D01*
X146750Y55573D01*
X146667Y55387D01*
Y55147D01*
G01Y55387D02*
X146542Y55547D01*
X146333Y55680D01*
X146083Y55733D01*
X145833Y55680D01*
X145625Y55547D01*
X145500Y55307D01*
X145542Y55067D01*
X145708Y54827D01*
G01X151500Y50267D02*
X149000D01*
Y50933D01*
X149125Y51147D01*
X149292Y51280D01*
X149625Y51333D01*
X149958Y51280D01*
X150167Y51120D01*
X150292Y50933D01*
Y50267D01*
G01Y50933D02*
X151500Y51333D01*
G01X149417Y52493D02*
X149167Y52653D01*
X149042Y52840D01*
X149000Y53053D01*
X149083Y53320D01*
X149292Y53507D01*
X149542Y53560D01*
X149792Y53533D01*
X150000Y53427D01*
X150417Y52893D01*
X150708Y52653D01*
X151125Y52493D01*
X151500Y52440D01*
Y53560D01*
G01X151000Y54613D02*
X151292Y54773D01*
X151458Y54987D01*
X151500Y55227D01*
X151458Y55440D01*
X151250Y55653D01*
X151000Y55787D01*
X150750Y55813D01*
X150458Y55760D01*
X150250Y55573D01*
X150167Y55387D01*
Y55147D01*
G01Y55387D02*
X150042Y55547D01*
X149833Y55680D01*
X149583Y55733D01*
X149333Y55680D01*
X149125Y55547D01*
X149000Y55307D01*
X149042Y55067D01*
X149208Y54827D01*
G01X150292Y81613D02*
X150417Y81773D01*
X150500Y81960D01*
Y82173D01*
X150375Y82413D01*
X150167Y82600D01*
X149917Y82733D01*
X149500Y82840D01*
X149125Y82867D01*
X148750Y82813D01*
X148500Y82733D01*
X148250Y82573D01*
X148083Y82387D01*
X148000Y82200D01*
Y82013D01*
X148083Y81827D01*
X148208Y81667D01*
X148375Y81533D01*
G01X148000Y79680D02*
X150500D01*
X148708Y80667D01*
Y79333D01*
G01X148500Y78387D02*
X148208Y78227D01*
X148042Y78013D01*
X148000Y77773D01*
X148042Y77560D01*
X148250Y77347D01*
X148500Y77213D01*
X148750Y77187D01*
X149042Y77240D01*
X149250Y77427D01*
X149333Y77613D01*
Y77853D01*
G01Y77613D02*
X149458Y77453D01*
X149667Y77320D01*
X149917Y77267D01*
X150167Y77320D01*
X150375Y77453D01*
X150500Y77693D01*
X150458Y77933D01*
X150292Y78173D01*
G01X147867Y155000D02*
X148000Y154750D01*
X148160Y154583D01*
X148347Y154500D01*
X148560Y154583D01*
X148720Y154750D01*
X148880Y155000D01*
X148933Y155333D01*
Y157000D01*
G01X150013Y155000D02*
X150173Y154708D01*
X150387Y154542D01*
X150627Y154500D01*
X150840Y154542D01*
X151053Y154750D01*
X151187Y155000D01*
X151213Y155250D01*
X151160Y155542D01*
X150973Y155750D01*
X150787Y155833D01*
X150547D01*
G01X150787D02*
X150947Y155958D01*
X151080Y156167D01*
X151133Y156417D01*
X151080Y156667D01*
X150947Y156875D01*
X150707Y157000D01*
X150467Y156958D01*
X150227Y156792D01*
G01X158708Y5887D02*
X158583Y5727D01*
X158500Y5540D01*
Y5327D01*
X158625Y5087D01*
X158833Y4900D01*
X159083Y4767D01*
X159500Y4660D01*
X159875Y4633D01*
X160250Y4687D01*
X160500Y4767D01*
X160750Y4927D01*
X160917Y5113D01*
X161000Y5300D01*
Y5487D01*
X160917Y5673D01*
X160792Y5833D01*
X160625Y5967D01*
G01X160500Y6913D02*
X160792Y7073D01*
X160958Y7287D01*
X161000Y7527D01*
X160958Y7740D01*
X160750Y7953D01*
X160500Y8087D01*
X160250Y8113D01*
X159958Y8060D01*
X159750Y7873D01*
X159667Y7687D01*
Y7447D01*
G01Y7687D02*
X159542Y7847D01*
X159333Y7980D01*
X159083Y8033D01*
X158833Y7980D01*
X158625Y7847D01*
X158500Y7607D01*
X158542Y7367D01*
X158708Y7127D01*
G01X159958Y9193D02*
X159667Y9380D01*
X159500Y9540D01*
X159417Y9753D01*
X159500Y9940D01*
X159667Y10073D01*
X159917Y10180D01*
X160208Y10207D01*
X160458Y10180D01*
X160708Y10073D01*
X160917Y9913D01*
X161000Y9727D01*
X160917Y9513D01*
X160667Y9327D01*
X160292Y9220D01*
X159875Y9193D01*
X159333Y9247D01*
X159042Y9327D01*
X158750Y9460D01*
X158542Y9647D01*
X158500Y9833D01*
X158583Y10020D01*
X158792Y10153D01*
G01X162208Y5887D02*
X162083Y5727D01*
X162000Y5540D01*
Y5327D01*
X162125Y5087D01*
X162333Y4900D01*
X162583Y4767D01*
X163000Y4660D01*
X163375Y4633D01*
X163750Y4687D01*
X164000Y4767D01*
X164250Y4927D01*
X164417Y5113D01*
X164500Y5300D01*
Y5487D01*
X164417Y5673D01*
X164292Y5833D01*
X164125Y5967D01*
G01X164000Y6913D02*
X164292Y7073D01*
X164458Y7287D01*
X164500Y7527D01*
X164458Y7740D01*
X164250Y7953D01*
X164000Y8087D01*
X163750Y8113D01*
X163458Y8060D01*
X163250Y7873D01*
X163167Y7687D01*
Y7447D01*
G01Y7687D02*
X163042Y7847D01*
X162833Y7980D01*
X162583Y8033D01*
X162333Y7980D01*
X162125Y7847D01*
X162000Y7607D01*
X162042Y7367D01*
X162208Y7127D01*
G01X164500Y9647D02*
X163958Y9700D01*
X163500Y9780D01*
X163083Y9887D01*
X162625Y10020D01*
X162000Y10233D01*
Y9167D01*
G01X155000Y36313D02*
X156792D01*
X157167Y36420D01*
X157417Y36633D01*
X157500Y36900D01*
X157417Y37167D01*
X157167Y37380D01*
X156792Y37487D01*
X155000D01*
G01X157125Y38513D02*
X157333Y38673D01*
X157458Y38860D01*
X157500Y39100D01*
X157417Y39340D01*
X157250Y39527D01*
X156958Y39660D01*
X156625Y39687D01*
X156292Y39633D01*
X156083Y39500D01*
X155917Y39313D01*
X155875Y39127D01*
X155917Y38940D01*
X156083Y38700D01*
X155000Y38780D01*
Y39500D01*
G01Y50267D02*
X152500D01*
Y50933D01*
X152625Y51147D01*
X152792Y51280D01*
X153125Y51333D01*
X153458Y51280D01*
X153667Y51120D01*
X153792Y50933D01*
Y50267D01*
G01Y50933D02*
X155000Y51333D01*
G01X152917Y52493D02*
X152667Y52653D01*
X152542Y52840D01*
X152500Y53053D01*
X152583Y53320D01*
X152792Y53507D01*
X153042Y53560D01*
X153292Y53533D01*
X153500Y53427D01*
X153917Y52893D01*
X154208Y52653D01*
X154625Y52493D01*
X155000Y52440D01*
Y53560D01*
G01X153958Y54693D02*
X153667Y54880D01*
X153500Y55040D01*
X153417Y55253D01*
X153500Y55440D01*
X153667Y55573D01*
X153917Y55680D01*
X154208Y55707D01*
X154458Y55680D01*
X154708Y55573D01*
X154917Y55413D01*
X155000Y55227D01*
X154917Y55013D01*
X154667Y54827D01*
X154292Y54720D01*
X153875Y54693D01*
X153333Y54747D01*
X153042Y54827D01*
X152750Y54960D01*
X152542Y55147D01*
X152500Y55333D01*
X152583Y55520D01*
X152792Y55653D01*
G01X158500Y82733D02*
X161000D01*
Y82067D01*
X160875Y81853D01*
X160708Y81720D01*
X160375Y81667D01*
X160042Y81720D01*
X159833Y81880D01*
X159708Y82067D01*
Y82733D01*
G01Y82067D02*
X158500Y81667D01*
G01X159000Y80587D02*
X158708Y80427D01*
X158542Y80213D01*
X158500Y79973D01*
X158542Y79760D01*
X158750Y79547D01*
X159000Y79413D01*
X159250Y79387D01*
X159542Y79440D01*
X159750Y79627D01*
X159833Y79813D01*
Y80053D01*
G01Y79813D02*
X159958Y79653D01*
X160167Y79520D01*
X160417Y79467D01*
X160667Y79520D01*
X160875Y79653D01*
X161000Y79893D01*
X160958Y80133D01*
X160792Y80373D01*
G01X159000Y78387D02*
X158708Y78227D01*
X158542Y78013D01*
X158500Y77773D01*
X158542Y77560D01*
X158750Y77347D01*
X159000Y77213D01*
X159250Y77187D01*
X159542Y77240D01*
X159750Y77427D01*
X159833Y77613D01*
Y77853D01*
G01Y77613D02*
X159958Y77453D01*
X160167Y77320D01*
X160417Y77267D01*
X160667Y77320D01*
X160875Y77453D01*
X161000Y77693D01*
X160958Y77933D01*
X160792Y78173D01*
G01X153000Y82733D02*
X155500D01*
Y82067D01*
X155375Y81853D01*
X155208Y81720D01*
X154875Y81667D01*
X154542Y81720D01*
X154333Y81880D01*
X154208Y82067D01*
Y82733D01*
G01Y82067D02*
X153000Y81667D01*
G01X153500Y80587D02*
X153208Y80427D01*
X153042Y80213D01*
X153000Y79973D01*
X153042Y79760D01*
X153250Y79547D01*
X153500Y79413D01*
X153750Y79387D01*
X154042Y79440D01*
X154250Y79627D01*
X154333Y79813D01*
Y80053D01*
G01Y79813D02*
X154458Y79653D01*
X154667Y79520D01*
X154917Y79467D01*
X155167Y79520D01*
X155375Y79653D01*
X155500Y79893D01*
X155458Y80133D01*
X155292Y80373D01*
G01X153000Y77480D02*
X155500D01*
X153708Y78467D01*
Y77133D01*
G01X157867Y180000D02*
X158000Y179750D01*
X158160Y179583D01*
X158347Y179500D01*
X158560Y179583D01*
X158720Y179750D01*
X158880Y180000D01*
X158933Y180333D01*
Y182000D01*
G01X160600Y179500D02*
Y182000D01*
X160280Y181500D01*
G01Y179500D02*
X160920D01*
G01X171500Y4767D02*
X169000D01*
Y5433D01*
X169125Y5647D01*
X169292Y5780D01*
X169625Y5833D01*
X169958Y5780D01*
X170167Y5620D01*
X170292Y5433D01*
Y4767D01*
G01Y5433D02*
X171500Y5833D01*
G01X169417Y6993D02*
X169167Y7153D01*
X169042Y7340D01*
X169000Y7553D01*
X169083Y7820D01*
X169292Y8007D01*
X169542Y8060D01*
X169792Y8033D01*
X170000Y7927D01*
X170417Y7393D01*
X170708Y7153D01*
X171125Y6993D01*
X171500Y6940D01*
Y8060D01*
G01Y9700D02*
X169000D01*
X169500Y9380D01*
G01X171500D02*
Y10020D01*
G01X168000Y4767D02*
X165500D01*
Y5433D01*
X165625Y5647D01*
X165792Y5780D01*
X166125Y5833D01*
X166458Y5780D01*
X166667Y5620D01*
X166792Y5433D01*
Y4767D01*
G01Y5433D02*
X168000Y5833D01*
G01X165917Y6993D02*
X165667Y7153D01*
X165542Y7340D01*
X165500Y7553D01*
X165583Y7820D01*
X165792Y8007D01*
X166042Y8060D01*
X166292Y8033D01*
X166500Y7927D01*
X166917Y7393D01*
X167208Y7153D01*
X167625Y6993D01*
X168000Y6940D01*
Y8060D01*
G01X165917Y9193D02*
X165667Y9353D01*
X165542Y9540D01*
X165500Y9753D01*
X165583Y10020D01*
X165792Y10207D01*
X166042Y10260D01*
X166292Y10233D01*
X166500Y10127D01*
X166917Y9593D01*
X167208Y9353D01*
X167625Y9193D01*
X168000Y9140D01*
Y10260D01*
G01X167313Y500D02*
Y3000D01*
X167847D01*
X168060Y2875D01*
X168220Y2708D01*
X168353Y2458D01*
X168460Y2167D01*
X168487Y1750D01*
X168460Y1333D01*
X168353Y1042D01*
X168220Y792D01*
X168060Y625D01*
X167847Y500D01*
X167313D01*
G01X169593Y2583D02*
X169753Y2833D01*
X169940Y2958D01*
X170153Y3000D01*
X170420Y2917D01*
X170607Y2708D01*
X170660Y2458D01*
X170633Y2208D01*
X170527Y2000D01*
X169993Y1583D01*
X169753Y1292D01*
X169593Y875D01*
X169540Y500D01*
X170660D01*
G01X174208Y143887D02*
X174083Y143727D01*
X174000Y143540D01*
Y143327D01*
X174125Y143087D01*
X174333Y142900D01*
X174583Y142767D01*
X175000Y142660D01*
X175375Y142633D01*
X175750Y142687D01*
X176000Y142767D01*
X176250Y142927D01*
X176417Y143113D01*
X176500Y143300D01*
Y143487D01*
X176417Y143673D01*
X176292Y143833D01*
X176125Y143967D01*
G01X176500Y145820D02*
X174000D01*
X175792Y144833D01*
Y146167D01*
G01X176500Y147700D02*
X174000D01*
X174500Y147380D01*
G01X176500D02*
Y148020D01*
G01X170708Y143887D02*
X170583Y143727D01*
X170500Y143540D01*
Y143327D01*
X170625Y143087D01*
X170833Y142900D01*
X171083Y142767D01*
X171500Y142660D01*
X171875Y142633D01*
X172250Y142687D01*
X172500Y142767D01*
X172750Y142927D01*
X172917Y143113D01*
X173000Y143300D01*
Y143487D01*
X172917Y143673D01*
X172792Y143833D01*
X172625Y143967D01*
G01X173000Y145820D02*
X170500D01*
X172292Y144833D01*
Y146167D01*
G01X170917Y147193D02*
X170667Y147353D01*
X170542Y147540D01*
X170500Y147753D01*
X170583Y148020D01*
X170792Y148207D01*
X171042Y148260D01*
X171292Y148233D01*
X171500Y148127D01*
X171917Y147593D01*
X172208Y147353D01*
X172625Y147193D01*
X173000Y147140D01*
Y148260D01*
G01X183500Y5867D02*
X183750Y6000D01*
X183917Y6160D01*
X184000Y6347D01*
X183917Y6560D01*
X183750Y6720D01*
X183500Y6880D01*
X183167Y6933D01*
X181500D01*
G01X183625Y8013D02*
X183833Y8173D01*
X183958Y8360D01*
X184000Y8600D01*
X183917Y8840D01*
X183750Y9027D01*
X183458Y9160D01*
X183125Y9187D01*
X182792Y9133D01*
X182583Y9000D01*
X182417Y8813D01*
X182375Y8627D01*
X182417Y8440D01*
X182583Y8200D01*
X181500Y8280D01*
Y9000D01*
G01X177708Y143887D02*
X177583Y143727D01*
X177500Y143540D01*
Y143327D01*
X177625Y143087D01*
X177833Y142900D01*
X178083Y142767D01*
X178500Y142660D01*
X178875Y142633D01*
X179250Y142687D01*
X179500Y142767D01*
X179750Y142927D01*
X179917Y143113D01*
X180000Y143300D01*
Y143487D01*
X179917Y143673D01*
X179792Y143833D01*
X179625Y143967D01*
G01X180000Y145820D02*
X177500D01*
X179292Y144833D01*
Y146167D01*
G01X177500Y147700D02*
X177583Y147487D01*
X177792Y147327D01*
X178042Y147220D01*
X178375Y147140D01*
X178750Y147113D01*
X179125Y147140D01*
X179458Y147220D01*
X179708Y147327D01*
X179917Y147487D01*
X180000Y147700D01*
X179917Y147913D01*
X179708Y148073D01*
X179458Y148180D01*
X179125Y148260D01*
X178750Y148287D01*
X178375Y148260D01*
X178042Y148180D01*
X177792Y148073D01*
X177583Y147913D01*
X177500Y147700D01*
G01X182867Y155000D02*
X183000Y154750D01*
X183160Y154583D01*
X183347Y154500D01*
X183560Y154583D01*
X183720Y154750D01*
X183880Y155000D01*
X183933Y155333D01*
Y157000D01*
G01X185920Y154500D02*
Y157000D01*
X184933Y155208D01*
X186267D01*
G01X179367Y180000D02*
X179500Y179750D01*
X179660Y179583D01*
X179847Y179500D01*
X180060Y179583D01*
X180220Y179750D01*
X180380Y180000D01*
X180433Y180333D01*
Y182000D01*
G01X181593Y181583D02*
X181753Y181833D01*
X181940Y181958D01*
X182153Y182000D01*
X182420Y181917D01*
X182607Y181708D01*
X182660Y181458D01*
X182633Y181208D01*
X182527Y181000D01*
X181993Y180583D01*
X181753Y180292D01*
X181593Y179875D01*
X181540Y179500D01*
X182660D01*
G54D11*
G01X76500Y163500D02*
X75000Y165000D01*
X56500D01*
X55000Y166500D01*
G54D12*
G01X24023Y82994D02*
X19377D01*
Y92206D01*
X24023D01*
Y82994D01*
G01X18877Y153706D02*
X23523D01*
Y144494D01*
X18877D01*
Y153706D01*
G01X23823Y163394D02*
X19177D01*
Y172606D01*
X23823D01*
Y163394D01*
G01X64823Y105894D02*
X60177D01*
Y115106D01*
X64823D01*
Y105894D01*
G01X60177Y125106D02*
X64823D01*
Y115894D01*
X60177D01*
Y125106D01*
G01X76693Y146157D02*
X62913D01*
Y153243D01*
X77087D01*
Y146157D01*
X76693D01*
G01X62677Y162806D02*
X67323D01*
Y153594D01*
X62677D01*
Y162806D01*
G01X84206Y15923D02*
Y11277D01*
X74994D01*
Y15923D01*
X84206D01*
G01X79323Y16394D02*
X74677D01*
Y25606D01*
X79323D01*
Y16394D01*
G01X74323D02*
X69677D01*
Y25606D01*
X74323D01*
Y16394D01*
G01X78823Y53294D02*
X74177D01*
Y62506D01*
X78823D01*
Y53294D01*
G01X74177Y53006D02*
X78823D01*
Y43794D01*
X74177D01*
Y53006D01*
G01X79106Y96023D02*
Y91377D01*
X69894D01*
Y96023D01*
X79106D01*
G01X76394Y161377D02*
Y166023D01*
X85606D01*
Y161377D01*
X76394D01*
G01X71177Y162806D02*
X75823D01*
Y153594D01*
X71177D01*
Y162806D01*
G01X71323Y167394D02*
X66677D01*
Y176606D01*
X71323D01*
Y167394D01*
G01X81323D02*
X76677D01*
Y176606D01*
X81323D01*
Y167394D01*
G01X85823Y16394D02*
X81177D01*
Y25606D01*
X85823D01*
Y16394D01*
G01X79177Y53006D02*
X83823D01*
Y43794D01*
X79177D01*
Y53006D01*
G01Y62506D02*
X83823D01*
Y53294D01*
X79177D01*
Y62506D01*
G01X84276Y43813D02*
X93724D01*
Y57987D01*
X84276D01*
Y43813D01*
G01X93606Y63223D02*
Y58577D01*
X84394D01*
Y63223D01*
X93606D01*
G01X80394Y86377D02*
Y91023D01*
X89606D01*
Y86377D01*
X80394D01*
G01Y91377D02*
Y96023D01*
X89606D01*
Y91377D01*
X80394D01*
G01X95106Y166023D02*
Y161377D01*
X85894D01*
Y166023D01*
X95106D01*
G01X91323Y167394D02*
X86677D01*
Y176606D01*
X91323D01*
Y167394D01*
G01X106206Y15923D02*
Y11277D01*
X96994D01*
Y15923D01*
X106206D01*
G01X101323Y16894D02*
X96677D01*
Y26106D01*
X101323D01*
Y16894D01*
G01X96323D02*
X91677D01*
Y26106D01*
X96323D01*
Y16894D01*
G01X100923Y53194D02*
X96277D01*
Y62406D01*
X100923D01*
Y53194D01*
G01X96277Y52906D02*
X100923D01*
Y43694D01*
X96277D01*
Y52906D01*
G01X101277D02*
X105923D01*
Y43694D01*
X101277D01*
Y52906D01*
G01Y62406D02*
X105923D01*
Y53194D01*
X101277D01*
Y62406D01*
G01X94477Y96506D02*
X99123D01*
Y87294D01*
X94477D01*
Y96506D01*
G01X95894Y141377D02*
Y146023D01*
X105106D01*
Y141377D01*
X95894D01*
G01Y146377D02*
Y151023D01*
X105106D01*
Y146377D01*
X95894D01*
G01Y156377D02*
Y161023D01*
X105106D01*
Y156377D01*
X95894D01*
G01X105106Y166023D02*
Y161377D01*
X95894D01*
Y166023D01*
X105106D01*
G01X98323Y167394D02*
X93677D01*
Y176606D01*
X98323D01*
Y167394D01*
G01X107823Y16894D02*
X103177D01*
Y26106D01*
X107823D01*
Y16894D01*
G01X123524Y24387D02*
X114076D01*
Y10213D01*
X123524D01*
Y24387D01*
G01X106876Y43713D02*
X116324D01*
Y57887D01*
X106876D01*
Y43713D01*
G01X115706Y63123D02*
Y58477D01*
X106494D01*
Y63123D01*
X115706D01*
G01X103677Y97806D02*
X108323D01*
Y88594D01*
X103677D01*
Y97806D01*
G01X113677D02*
X118323D01*
Y88594D01*
X113677D01*
Y97806D01*
G01X108677D02*
X113323D01*
Y88594D01*
X108677D01*
Y97806D01*
G01X114606Y146023D02*
Y141377D01*
X105394D01*
Y146023D01*
X114606D01*
G01X105394Y146377D02*
Y151023D01*
X114606D01*
Y146377D01*
X105394D01*
G01Y156377D02*
Y161023D01*
X114606D01*
Y156377D01*
X105394D01*
G01Y151377D02*
Y156023D01*
X114606D01*
Y151377D01*
X105394D01*
G01Y161377D02*
Y166023D01*
X114606D01*
Y161377D01*
X105394D01*
G01X128923Y10294D02*
X124277D01*
Y19506D01*
X128923D01*
Y10294D01*
G01Y19794D02*
X124277D01*
Y29006D01*
X128923D01*
Y19794D01*
G01X123277Y56706D02*
X127923D01*
Y47494D01*
X123277D01*
Y56706D01*
G01X123494Y57277D02*
Y61923D01*
X132706D01*
Y57277D01*
X123494D01*
G01X118677Y97806D02*
X123323D01*
Y88594D01*
X118677D01*
Y97806D01*
G01X123677D02*
X128323D01*
Y88594D01*
X123677D01*
Y97806D01*
G01X121823Y167394D02*
X117177D01*
Y176606D01*
X121823D01*
Y167394D01*
G01X133923Y10294D02*
X129277D01*
Y19506D01*
X133923D01*
Y10294D01*
G01X134277Y29006D02*
X138923D01*
Y19794D01*
X134277D01*
Y29006D01*
G01X129277D02*
X133923D01*
Y19794D01*
X129277D01*
Y29006D01*
G01X138077Y42206D02*
X142723D01*
Y32994D01*
X138077D01*
Y42206D01*
G01X137623Y32994D02*
X132977D01*
Y42206D01*
X137623D01*
Y32994D01*
G01X128277Y56706D02*
X132923D01*
Y47494D01*
X128277D01*
Y56706D01*
G01X128677Y97806D02*
X133323D01*
Y88594D01*
X128677D01*
Y97806D01*
G01X133677D02*
X138323D01*
Y88594D01*
X133677D01*
Y97806D01*
G01X138323Y137594D02*
X133677D01*
Y146806D01*
X138323D01*
Y137594D01*
G01X151206Y15923D02*
Y11277D01*
X141994D01*
Y15923D01*
X151206D01*
G01X141994Y16277D02*
Y20923D01*
X151206D01*
Y16277D01*
X141994D01*
G01X147177Y94806D02*
X151823D01*
Y85594D01*
X147177D01*
Y94806D01*
G01X157923Y19494D02*
X153277D01*
Y28706D01*
X157923D01*
Y19494D01*
G01X162923D02*
X158277D01*
Y28706D01*
X162923D01*
Y19494D01*
G01X160423Y48194D02*
X155777D01*
Y57406D01*
X160423D01*
Y48194D01*
G01X165423D02*
X160777D01*
Y57406D01*
X165423D01*
Y48194D01*
G01X157177Y94806D02*
X161823D01*
Y85594D01*
X157177D01*
Y94806D01*
G01X156823Y85594D02*
X152177D01*
Y94806D01*
X156823D01*
Y85594D01*
G01X164823Y143094D02*
X160177D01*
Y152306D01*
X164823D01*
Y143094D01*
G01X159823D02*
X155177D01*
Y152306D01*
X159823D01*
Y143094D01*
G01X168277Y28706D02*
X172923D01*
Y19494D01*
X168277D01*
Y28706D01*
G01X163277D02*
X167923D01*
Y19494D01*
X163277D01*
Y28706D01*
G01X170423Y48194D02*
X165777D01*
Y57406D01*
X170423D01*
Y48194D01*
G01X169823Y143094D02*
X165177D01*
Y152306D01*
X169823D01*
Y143094D01*
G54D13*
G01X48992Y-2264D02*
G03I-492J0D01*
G01X52728Y184900D02*
G03I-492J0D01*
G01X73253Y28348D02*
G03I-492J0D01*
G01X95200Y160300D02*
X77900D01*
Y146100D01*
X95200D01*
Y160300D01*
G01X95253Y28348D02*
G03I-492J0D01*
G01X92013Y162071D02*
G03I-492J0D01*
G01X133529Y44049D02*
G03I-492J0D01*
G01X133528Y163200D02*
G03I-492J0D01*
G01Y173200D02*
G03I-492J0D01*
G01X144140Y20817D02*
G03I-493J0D01*
G01X156768Y32248D02*
G03I-492J0D01*
G01X170528Y156200D02*
G03I-492J0D01*
G01X171028Y180200D02*
G03I-492J0D01*
G01X179592Y8836D02*
G03I-492J0D01*
G54D14*
G01X53539Y0D02*
X33461D01*
Y200000D01*
X53539D01*
Y0D01*
G01X54500Y199900D02*
X154500D01*
Y179900D01*
X54500D01*
Y199900D01*
G01X99500Y179900D02*
Y174900D01*
X109500D01*
Y179900D01*
G01X113541Y36294D02*
X118659D01*
G01X113541Y37081D02*
X118659D01*
G01X113541Y37869D02*
X118659D01*
G01X113541Y37846D02*
Y31154D01*
G01X118659Y37846D02*
Y31154D01*
G01X135300Y168200D02*
X165300D01*
Y158200D01*
X135300D01*
Y168200D01*
G01Y178200D02*
X165300D01*
Y168200D01*
X135300D01*
Y178200D01*
G01X172800Y18900D02*
X159400D01*
Y11400D01*
X172800D01*
Y18900D01*
G01X184100Y41100D02*
Y11100D01*
X174100D01*
G01D02*
Y51100D01*
X184100D01*
Y41100D01*
G01X165300Y168200D02*
X195300D01*
Y158200D01*
X165300D01*
Y168200D01*
G01Y178200D02*
X195300D01*
Y168200D01*
X165300D01*
Y178200D01*
M02*
