G04 ================== begin FILE IDENTIFICATION RECORD ==================*
G04 Layout Name:  E:/material/glass/pcb/test-stm32f429/pcb/f429.brd*
G04 Film Name:    TOP*
G04 File Format:  Gerber RS274X*
G04 File Origin:  Cadence Allegro 16.6-S049*
G04 Origin Date:  Sat Oct 10 17:08:06 2015*
G04 *
G04 Layer:  ETCH/TOP*
G04 Layer:  PIN/TOP*
G04 Layer:  VIA CLASS/TOP*
G04 *
G04 Offset:    (0.00 0.00)*
G04 Mirror:    No*
G04 Mode:      Positive*
G04 Rotation:  0*
G04 FullContactRelief:  No*
G04 UndefLineWidth:     0.00*
G04 ================== end FILE IDENTIFICATION RECORD ====================*
%FSLAX25Y25*MOIN*%
%IR0*IPPOS*OFA0.00000B0.00000*MIA0B0*SFA1.00000B1.00000*%
%ADD10C,.011*%
%AMMACRO22*
4,1,5,.04823,.03445,
.05217,.03051,
.05217,-.03445,
-.05217,-.03445,
-.05217,.03445,
.04823,.03445,
0.0*
%
%ADD22MACRO22*%
%AMMACRO27*
4,1,21,.00394,.01476,
.00394,-.01083,
.00388,-.011514,
.003701,-.012177,
.003411,-.0128,
.003016,-.013362,
.00253,-.013847,
.001967,-.014241,
.001345,-.01453,
.000681,-.014707,
-.000003,-.014767,
-.000687,-.014706,
-.001351,-.014528,
-.001973,-.014237,
-.002535,-.013843,
-.00302,-.013357,
-.003414,-.012794,
-.003703,-.012171,
-.003881,-.011508,
-.00394,-.01083,
-.00394,.01476,
.00394,.01476,
0.0*
%
%ADD27MACRO27*%
%AMMACRO18*
4,1,22,.00591,.01575,
.00591,-.00984,
.005821,-.010866,
.005554,-.011861,
.005119,-.012795,
.004529,-.013639,
.003801,-.014368,
.002957,-.014959,
.002024,-.015395,
.001029,-.015662,
.000003,-.015753,
-.001024,-.015663,
-.002019,-.015397,
-.002953,-.014962,
-.003797,-.014371,
-.004526,-.013643,
-.005117,-.0128,
-.005553,-.011866,
-.00582,-.010871,
-.00591,-.009845,
-.00591,-.00984,
-.00591,.01575,
.00591,.01575,
0.0*
%
%ADD18MACRO18*%
%ADD12C,.06299*%
%ADD13R,.06299X.06299*%
%AMMACRO23*
4,1,5,-.02362,-.01575,
-.02756,-.01181,
-.02756,.01575,
.02756,.01575,
.02756,-.01575,
-.02362,-.01575,
0.0*
%
%ADD23MACRO23*%
%AMMACRO17*
4,1,35,-.04232,-.0315,
-.04626,-.02756,
-.04626,.02756,
-.0462,.028244,
-.046022,.028908,
-.045732,.02953,
-.045338,.030093,
-.044853,.030578,
-.04429,.030972,
-.043668,.031262,
-.043005,.03144,
-.04232,.0315,
-.04232,.0315,
.04232,.0315,
.043004,.03144,
.043668,.031262,
.04429,.030972,
.044853,.030578,
.045338,.030093,
.045732,.02953,
.046022,.028908,
.0462,.028245,
.04626,.02756,
.04626,.02756,
.04626,-.02756,
.0462,-.028244,
.046022,-.028908,
.045732,-.02953,
.045338,-.030093,
.044853,-.030578,
.04429,-.030972,
.043668,-.031262,
.043005,-.03144,
.04232,-.0315,
.04232,-.0315,
-.04232,-.0315,
0.0*
%
%ADD17MACRO17*%
%AMMACRO25*
4,1,5,-.04331,-.03543,
-.04724,-.0315,
-.04724,.03543,
.04724,.03543,
.04724,-.03543,
-.04331,-.03543,
0.0*
%
%ADD25MACRO25*%
%ADD20R,.05512X.04331*%
%ADD15R,.02126X.03543*%
%ADD11R,.03543X.02126*%
%AMMACRO26*
4,1,21,-.00394,-.01476,
-.00394,.01083,
-.00388,.011514,
-.003701,.012177,
-.003411,.0128,
-.003016,.013362,
-.00253,.013847,
-.001967,.014241,
-.001345,.01453,
-.000681,.014707,
.000003,.014767,
.000687,.014706,
.001351,.014528,
.001973,.014237,
.002535,.013843,
.00302,.013357,
.003414,.012794,
.003703,.012171,
.003881,.011508,
.00394,.01083,
.00394,-.01476,
-.00394,-.01476,
0.0*
%
%ADD26MACRO26*%
%ADD24R,.02953X.05512*%
%AMMACRO16*
4,1,22,-.00591,-.01575,
-.00591,.00984,
-.005821,.010866,
-.005554,.011861,
-.005119,.012795,
-.004529,.013639,
-.003801,.014368,
-.002957,.014959,
-.002024,.015395,
-.001029,.015662,
-.000003,.015753,
.001024,.015663,
.002019,.015397,
.002953,.014962,
.003797,.014371,
.004526,.013643,
.005117,.0128,
.005553,.011866,
.00582,.010871,
.00591,.009845,
.00591,.00984,
.00591,-.01575,
-.00591,-.01575,
0.0*
%
%ADD16MACRO16*%
%ADD19R,.08661X.0374*%
%ADD21R,.01969X.03543*%
%ADD14R,.03543X.06496*%
%ADD28C,.01*%
%ADD29C,.02*%
%ADD30C,.004*%
%ADD31C,.007*%
%ADD36C,.02504*%
%ADD33C,.07302*%
%ADD37C,.01904*%
%ADD34C,.07702*%
%ADD32C,.07902*%
%ADD39R,.07702X.07702*%
%ADD38R,.03128X.04546*%
%ADD35R,.04546X.03128*%
G75*
%LPD*%
G75*
G36*
G01X4Y200096D02*
X195996D01*
Y4D01*
X4D01*
Y200096D01*
G37*
%LPC*%
G75*
G36*
G01X22708Y174173D02*
X22702Y174147D01*
Y172756D01*
X23973D01*
Y169228D01*
X19027D01*
Y172756D01*
X20298D01*
Y174147D01*
X20292Y174173D01*
G02X22708I1208J327D01*
G37*
G36*
G01X25123Y164106D02*
X23973D01*
Y163244D01*
X19027D01*
Y166772D01*
X23973D01*
Y165910D01*
X25123D01*
G02Y164106I869J-902D01*
G37*
G36*
G01X22408Y154973D02*
X22402Y154947D01*
Y153856D01*
X23673D01*
Y150328D01*
X18727D01*
Y153856D01*
X19998D01*
Y154947D01*
X19992Y154973D01*
G02X22408I1208J327D01*
G37*
G36*
G01X137208Y147473D02*
X137202Y147447D01*
Y146956D01*
X138473D01*
Y143428D01*
X133527D01*
Y146956D01*
X134798D01*
Y147447D01*
X134792Y147473D01*
G02X137208I1208J327D01*
G37*
G36*
G01X20050Y143816D02*
X20098Y143872D01*
Y144344D01*
X18727D01*
Y147872D01*
X23673D01*
Y144344D01*
X21902D01*
Y143872D01*
X21950Y143816D01*
G02X20050I-950J-816D01*
G37*
G36*
G01X26621Y102523D02*
G03X26620Y102777I-155J126D01*
G02X26583Y104446I1045J858D01*
G03X26563Y104708I-160J120D01*
G02X26494Y106569I945J967D01*
G02X28414Y106678I906J1003D01*
G02X28590Y104864I-906J-1003D01*
G03X28610Y104602I160J-120D01*
G02X28711Y102779I-945J-967D01*
G03X28712Y102525I155J-126D01*
G02X26621Y102523I-1045J-858D01*
G37*
G36*
G01X29123Y89690D02*
X24173D01*
Y88828D01*
X19227D01*
Y92356D01*
X24173D01*
Y91494D01*
X29123D01*
G02Y89690I869J-902D01*
G37*
G36*
G01X93134Y68405D02*
X93128Y68479D01*
X80948Y80659D01*
Y81631D01*
G02X82800Y81684I902J869D01*
G01X82752Y81628D01*
Y81405D01*
X94403Y69754D01*
X94477Y69748D01*
G02X93134Y68405I-95J-1248D01*
G37*
G36*
G01X29914Y58877D02*
X29901Y58900D01*
X13559Y75241D01*
Y95408D01*
X13553Y95434D01*
G02X15969I1208J327D01*
G01X15962Y95408D01*
Y85366D01*
G03X16645Y85083I400J0D01*
G01X17371Y85810D01*
X19227D01*
Y86372D01*
X24173D01*
Y82844D01*
X19227D01*
Y83406D01*
X18367D01*
X15962Y81002D01*
Y76237D01*
X31600Y60599D01*
X31623Y60586D01*
G02X29914Y58877I-623J-1086D01*
G37*
G36*
G01X119118Y41714D02*
X119095Y41701D01*
X117786Y40392D01*
Y37145D01*
X114414D01*
Y42091D01*
X116087D01*
X117396Y43400D01*
X117409Y43423D01*
G02X119118Y41714I1086J-623D01*
G37*
G36*
G01X96312Y30253D02*
G03X96301Y30807I-294J271D01*
G01X95972Y31136D01*
Y36856D01*
G02X96229Y37483I896J-1D01*
G03X96254Y38014I-286J280D01*
G02X95968Y38824I1007J811D01*
G01Y42086D01*
X96060D01*
Y42767D01*
X96495Y43202D01*
G03X96354Y43544I-141J142D01*
G01X96127D01*
Y47072D01*
X106073D01*
Y44995D01*
G03X106414Y44854I200J0D01*
G01X106568Y45007D01*
Y48450D01*
X116632D01*
Y43308D01*
X108267D01*
X107440Y42480D01*
Y41594D01*
X106232Y40386D01*
Y38824D01*
G02X105946Y38014I-1293J1D01*
G03X105971Y37483I311J-251D01*
G02X106228Y36856I-639J-628D01*
G01Y31344D01*
G02X105971Y30717I-896J1D01*
G03X105946Y30186I286J-280D01*
G02X106232Y29376I-1007J-811D01*
G01Y26256D01*
X107973D01*
Y25694D01*
X108355D01*
X108381Y25700D01*
G02Y23284I327J-1208D01*
G01X108355Y23290D01*
X107973D01*
Y22728D01*
X103027D01*
Y23887D01*
G03X102567Y24282I-400J0D01*
G02X101996Y24328I-188J1238D01*
G03X101473Y23948I-123J-380D01*
G01Y22728D01*
X91527D01*
Y26256D01*
X92798D01*
Y27219D01*
X95172Y29592D01*
X95978D01*
X96020Y29737D01*
G02X96312Y30253I1241J-362D01*
G37*
G36*
G01X81027Y22228D02*
Y24353D01*
G03X80596Y24752I-400J0D01*
G02X80025Y24842I-96J1248D01*
G03X79473Y24472I-152J-370D01*
G01Y22228D01*
X69527D01*
Y25756D01*
X70798D01*
Y27298D01*
X72802Y29302D01*
X72881D01*
X73172Y29592D01*
X73978D01*
X74020Y29737D01*
G02X74312Y30253I1241J-362D01*
G03X74301Y30807I-294J271D01*
G01X73972Y31136D01*
Y36856D01*
G02X74229Y37483I896J-1D01*
G03X74254Y38014I-286J280D01*
G02X73968Y38824I1007J811D01*
G01Y42086D01*
X74060D01*
Y42882D01*
X74139Y42961D01*
G03X74027Y43605I-283J282D01*
G01Y47172D01*
X83968D01*
Y48550D01*
X94032D01*
Y43408D01*
X90302D01*
Y42302D01*
X86607Y38608D01*
X84222D01*
X84180Y38463D01*
G02X83946Y38014I-1241J361D01*
G03X83971Y37483I311J-251D01*
G02X84228Y36856I-639J-628D01*
G01Y31344D01*
G02X83971Y30717I-896J1D01*
G03X83946Y30186I286J-280D01*
G02X84232Y29376I-1007J-811D01*
G01Y25756D01*
X85973D01*
Y25194D01*
X86739D01*
X86765Y25200D01*
G02Y22784I327J-1208D01*
G01X86739Y22790D01*
X85973D01*
Y22228D01*
X81027D01*
G37*
G36*
G01X112606Y13587D02*
X112632Y13580D01*
X113768D01*
Y14950D01*
X123832D01*
Y9808D01*
X113768D01*
Y11178D01*
X112632D01*
X112606Y11171D01*
G02Y13587I-327J1208D01*
G37*
G36*
G01X96844Y15721D02*
Y16073D01*
X100372D01*
Y11127D01*
X96844D01*
Y12398D01*
X96047D01*
X95947Y12498D01*
X95702D01*
X92798Y15402D01*
Y16744D01*
X91527D01*
Y20272D01*
X96473D01*
Y20072D01*
X101273D01*
Y16944D01*
X96473D01*
Y16744D01*
X95202D01*
Y16398D01*
X96161Y15438D01*
G03X96844Y15721I283J283D01*
G37*
G36*
G01X153762Y29539D02*
X152298Y31002D01*
Y33447D01*
X152292Y33473D01*
G02X154708I1208J327D01*
G01X154702Y33447D01*
Y31998D01*
X156137Y30562D01*
G03X156730Y30592I283J283D01*
G02X157386Y31012I970J-792D01*
G01X157439Y31026D01*
X157680Y31268D01*
Y33177D01*
G02X158045Y33992I1096J-1D01*
G03X158074Y34559I-267J298D01*
G01Y41982D01*
G02X157680Y42823I702J842D01*
G01Y46084D01*
X157724D01*
Y46783D01*
X157048Y47459D01*
Y48044D01*
X155627D01*
Y51572D01*
X170573D01*
Y48044D01*
X167143D01*
X166937Y47838D01*
X167117Y47658D01*
X167170Y47645D01*
G02X168101Y46320I-316J-1212D01*
G03X168499Y45884I398J-36D01*
G01X169120D01*
Y42823D01*
G02X168961Y42315I-896J1D01*
G01X168926Y42263D01*
Y34018D01*
G02X169320Y33177I-702J-842D01*
G01Y30158D01*
G02X169523Y29563I-1045J-689D01*
G01X169529Y29489D01*
X170161Y28856D01*
X172498D01*
Y45547D01*
X172492Y45573D01*
G02X174908I1208J327D01*
G01X174902Y45547D01*
Y38008D01*
G03X175659Y37829I400J1D01*
G02Y34371I3441J-1729D01*
G03X174902Y34192I-357J-180D01*
G01Y28008D01*
G03X175659Y27829I400J1D01*
G02Y24371I3441J-1729D01*
G03X174902Y24192I-357J-180D01*
G01Y23001D01*
X173073Y21173D01*
Y19344D01*
X171436D01*
Y18558D01*
X172412D01*
Y11642D01*
X168056D01*
Y18558D01*
X169032D01*
Y19344D01*
X166802D01*
Y15759D01*
X164941Y13898D01*
X164144D01*
Y11642D01*
X159788D01*
Y18558D01*
X164398D01*
Y19344D01*
X163127D01*
Y19544D01*
X158327D01*
Y22672D01*
X163127D01*
Y22872D01*
X171374D01*
X172498Y23997D01*
Y25328D01*
X153127D01*
Y28856D01*
X153479D01*
G03X153762Y29539I0J400D01*
G37*
G36*
G01X192202Y26795D02*
X182951Y17545D01*
Y12249D01*
X175249D01*
Y19951D01*
X180545D01*
X188798Y28205D01*
Y55295D01*
X183795Y60298D01*
X166705D01*
X164802Y58395D01*
Y57556D01*
X165573D01*
Y57356D01*
X170373D01*
Y54228D01*
X165573D01*
Y54028D01*
X160627D01*
Y54228D01*
X155827D01*
Y57356D01*
X160627D01*
Y57556D01*
X161398D01*
Y59805D01*
X165295Y63702D01*
X185205D01*
X192202Y56705D01*
Y26795D01*
G37*
G36*
G01X97392Y49227D02*
X97398Y49253D01*
Y49528D01*
X96127D01*
Y56572D01*
X98665D01*
X99280Y57188D01*
X99294Y57238D01*
G02X101751Y56955I1206J-337D01*
G03X102150Y56572I400J17D01*
G01X106073D01*
Y53044D01*
X105873D01*
Y49728D01*
X101073D01*
Y49528D01*
X99802D01*
Y49253D01*
X99808Y49227D01*
G02X97392I-1208J-327D01*
G37*
G36*
G01X77752Y49221D02*
G02X75248I-1252J-21D01*
G03X74848Y49628I-400J7D01*
G01X74027D01*
Y56672D01*
X76565D01*
X78194Y58302D01*
X78447D01*
X78473Y58308D01*
G02X80052Y57079I327J-1208D01*
G03X80452Y56672I400J-7D01*
G01X83968D01*
Y58392D01*
X84244D01*
Y59128D01*
X82764D01*
X82743Y58951D01*
G02X80257I-1243J149D01*
G01X80236Y59128D01*
X79027D01*
Y59328D01*
X74227D01*
Y62456D01*
X79027D01*
Y62656D01*
X84244D01*
Y63373D01*
X87772D01*
Y62161D01*
X87935Y62130D01*
G02Y59670I-235J-1230D01*
G01X87772Y59639D01*
Y58392D01*
X90428D01*
Y63173D01*
X93556D01*
Y58392D01*
X94032D01*
Y53250D01*
X90645D01*
G03X90247Y52886I0J-400D01*
G02X87753I-1247J114D01*
G03X87355Y53250I-398J-36D01*
G01X83973D01*
Y53144D01*
X83773D01*
Y49828D01*
X78973D01*
Y49628D01*
X78152D01*
G03X77752Y49221I0J-400D01*
G37*
G36*
G01X104808Y63673D02*
X104802Y63647D01*
Y62556D01*
X106344D01*
Y63273D01*
X106906D01*
Y64039D01*
X106900Y64065D01*
G02X109316I1208J327D01*
G01X109310Y64039D01*
Y63273D01*
X109872D01*
Y58292D01*
X112528D01*
Y63073D01*
X115656D01*
Y58292D01*
X116632D01*
Y56922D01*
X117168D01*
X117194Y56929D01*
G02Y54513I327J-1208D01*
G01X117168Y54520D01*
X116632D01*
Y53150D01*
X106568D01*
Y58327D01*
X106344D01*
Y59028D01*
X101127D01*
Y59228D01*
X96327D01*
Y62356D01*
X101127D01*
Y62556D01*
X102398D01*
Y63647D01*
X102392Y63673D01*
G02X104808I1208J327D01*
G37*
G36*
G01X153292Y84627D02*
X153298Y84653D01*
Y85444D01*
X152027D01*
Y85644D01*
X147227D01*
Y88772D01*
X152027D01*
Y88972D01*
X161973D01*
Y85444D01*
X160702D01*
Y84853D01*
X160708Y84827D01*
G02X158292I-1208J-327D01*
G01X158298Y84853D01*
Y85444D01*
X155702D01*
Y84653D01*
X155708Y84627D01*
G02X153292I-1208J-327D01*
G37*
G36*
G01X77794Y85486D02*
X77817Y85499D01*
X78685Y86367D01*
G03X78383Y87049I-283J283D01*
G02X79367Y87609I-60J1251D01*
G01X79676Y87358D01*
X80244Y87926D01*
Y96173D01*
X83772D01*
Y86227D01*
X81943D01*
X79516Y83800D01*
X79503Y83777D01*
G02X77794Y85486I-1086J623D01*
G37*
G36*
G01X147027Y94956D02*
X152940D01*
G03X153318Y95488I0J400D01*
G02X155682I1182J412D01*
G03X156060Y94956I378J-132D01*
G01X156927D01*
Y95056D01*
X157782D01*
G03X158174Y95535I0J400D01*
G02X160826I1326J265D01*
G03X161218Y95056I392J-79D01*
G01X162073D01*
Y91328D01*
X156927D01*
Y91428D01*
X147027D01*
Y91990D01*
X146045D01*
X146019Y91984D01*
G02Y94400I-327J1208D01*
G01X146045Y94394D01*
X147027D01*
Y94956D01*
G37*
G36*
G01X139398Y119956D02*
G02X138580Y118993I502J-1256D01*
G03X138104Y119470I-390J86D01*
G02X138851Y120349I-204J930D01*
G03X139398Y119956I399J-22D01*
G37*
G36*
G01X117786Y31855D02*
Y28997D01*
G03X118469Y28715I400J1D01*
G01X121370Y31617D01*
Y33179D01*
G02X121447Y33618I1293J-1D01*
G03X121071Y34154I-376J136D01*
G01X120882D01*
Y42046D01*
X121286D01*
G03X121655Y42601I0J400D01*
G02X121570Y43021I1008J423D01*
G01Y45249D01*
G03X121178Y45648I-400J-1D01*
G02X122069Y47802I22J1252D01*
G01X123127D01*
Y50872D01*
X124398D01*
Y51669D01*
X125575Y52845D01*
G03X125292Y53528I-283J283D01*
G01X123327D01*
Y56656D01*
X128127D01*
Y56856D01*
X129328D01*
Y62073D01*
X132856D01*
Y56856D01*
X133073D01*
Y53302D01*
X134098D01*
X136502Y50898D01*
Y42356D01*
X137773D01*
Y42156D01*
X142746D01*
Y57331D01*
G02X144395Y59204I901J869D01*
G03X144714Y59364I119J160D01*
G01Y59528D01*
X144666Y59584D01*
G02X146518Y59531I950J816D01*
G01Y34314D01*
X146908D01*
Y34114D01*
X148260D01*
Y34314D01*
X148652D01*
Y61231D01*
G02X150454I901J869D01*
G01Y34314D01*
X150846D01*
Y31052D01*
G02X150163Y29913I-1293J1D01*
G01X150058Y29857D01*
Y26116D01*
G02X150646Y25148I-505J-969D01*
G01Y22086D01*
X148876D01*
Y21886D01*
X148786D01*
Y21118D01*
X148830Y21073D01*
X151356D01*
Y16127D01*
X151156D01*
Y11327D01*
X148028D01*
Y16127D01*
X147828D01*
Y18677D01*
X147098Y19406D01*
X146098D01*
X146055Y19450D01*
G03X145372Y19167I-283J-283D01*
G01Y11127D01*
X144810D01*
Y10261D01*
X144816Y10235D01*
G02X142400I-1208J-327D01*
G01X142406Y10261D01*
Y11127D01*
X141844D01*
Y17398D01*
X140953D01*
X140927Y17392D01*
G02Y19808I-327J1208D01*
G01X140953Y19802D01*
X141844D01*
Y21073D01*
X144414D01*
Y21886D01*
X144324D01*
Y22086D01*
X142554D01*
Y25148D01*
G02X143040Y26055I1092J-2D01*
G03X143142Y26621I-223J332D01*
G01Y29857D01*
X143037Y29913D01*
G02X142354Y31052I610J1140D01*
G01Y32844D01*
X136221D01*
G03X135938Y32161I0J-400D01*
G01X137802Y30298D01*
Y29156D01*
X139073D01*
Y25628D01*
X135307D01*
G03X135015Y24955I0J-400D01*
G02X135224Y23549I-915J-855D01*
G03X135583Y22972I359J-177D01*
G01X138873D01*
Y19844D01*
X134073D01*
Y16128D01*
X132860D01*
X132850Y15937D01*
G02X130350I-1250J63D01*
G01X130340Y16128D01*
X128251D01*
G03X127851Y15740I0J-400D01*
G02X125349I-1251J39D01*
G03X124949Y16128I-400J-12D01*
G01X124127D01*
Y19650D01*
X113768D01*
Y24792D01*
X114898D01*
Y26909D01*
X114414D01*
Y31855D01*
X117786D01*
G37*
G36*
G01X45002Y110085D02*
X41913Y106996D01*
X41983Y106865D01*
G02X40365Y108483I-3483J-1865D01*
G01X40496Y108413D01*
X41740Y109657D01*
G03X41589Y110317I-283J283D01*
G02X40788Y111186I411J1183D01*
G03X40226Y111446I-387J-100D01*
G02X41087Y117987I-1726J3554D01*
G03X41748Y118289I261J302D01*
G01Y121711D01*
G03X41087Y122013I-400J0D01*
G02Y127987I-2587J2987D01*
G03X41748Y128289I261J302D01*
G01Y131711D01*
G03X41087Y132013I-400J0D01*
G02X36947Y138633I-2586J2987D01*
G03X37073Y139284I-157J368D01*
G01X33098Y143258D01*
Y169931D01*
G02X34902I902J869D01*
G01Y167800D01*
G03X35602Y167537I400J1D01*
G02Y162463I2898J-2537D01*
G03X34902Y162200I-300J-264D01*
G01Y157950D01*
G03X35595Y157678I400J0D01*
G02Y152322I2905J-2678D01*
G03X34902Y152050I-293J-272D01*
G01Y147950D01*
G03X35595Y147678I400J0D01*
G02X40365Y148483I2905J-2678D01*
G01X40496Y148413D01*
X43635Y151552D01*
X45396D01*
G03X45681Y152232I0J400D01*
G02X51223Y157863I2820J2768D01*
G03X51898Y158153I275J290D01*
G01Y161847D01*
G03X51223Y162137I-400J0D01*
G02X47038Y168671I-2723J2863D01*
G03X47173Y169325I-148J371D01*
G01X43498Y173000D01*
Y178727D01*
X40512Y181713D01*
X40380Y181639D01*
G02X41861Y183120I-1880J3361D01*
G01X41787Y182988D01*
X45302Y179473D01*
Y178200D01*
G03X45965Y177899I400J0D01*
G02X51307Y177636I2535J-2899D01*
G03X51998Y177910I291J274D01*
G01Y182090D01*
G03X51307Y182364I-400J0D01*
G02X46602Y188351I-2807J2636D01*
G03X46404Y189098I-198J347D01*
G01X43127D01*
X40512Y191713D01*
X40380Y191639D01*
G02X41861Y193120I-1880J3361D01*
G01X41787Y192988D01*
X43873Y190902D01*
X46404D01*
G03X46602Y191649I0J400D01*
G02X49888Y191408I1898J3351D01*
G03X49750Y190752I145J-373D01*
G01X53802Y186700D01*
Y178111D01*
X54082Y177831D01*
G03X54748Y178002I282J283D01*
G02X55570Y178843I1202J-352D01*
G01X55616Y178858D01*
X55792Y179033D01*
X55579Y179246D01*
X55505Y179252D01*
G02X55470Y181745I96J1248D01*
G01X55649Y181764D01*
Y188751D01*
X63351D01*
Y181686D01*
X66314D01*
G03X66614Y182350I0J400D01*
G02X72386I2886J2550D01*
G03X72686Y181686I300J-264D01*
G01X75011D01*
X76213Y182888D01*
X76139Y183020D01*
G02X77620Y181539I3361J1880D01*
G01X77488Y181613D01*
X76959Y181084D01*
G03X77242Y180402I283J-282D01*
G01X83727D01*
X86213Y182888D01*
X86139Y183020D01*
G02X87620Y181539I3361J1880D01*
G01X87488Y181613D01*
X85859Y179984D01*
G03X86142Y179302I283J-282D01*
G01X92627D01*
X96213Y182888D01*
X96139Y183020D01*
G02X97620Y181539I3361J1880D01*
G01X97488Y181613D01*
X94759Y178884D01*
G03X95042Y178202I283J-282D01*
G01X111527D01*
X116213Y182888D01*
X116139Y183020D01*
G02X120548Y181194I3361J1880D01*
G01X120402Y181153D01*
Y176756D01*
X121973D01*
Y175597D01*
G03X122656Y175315I400J1D01*
G01X128068Y180727D01*
G03X127947Y181376I-282J283D01*
G02X130548Y181194I1553J3524D01*
G01X130402Y181153D01*
Y180511D01*
X121346Y171455D01*
G03X121629Y170772I283J-283D01*
G01X121973D01*
Y167244D01*
X121151D01*
G03X120752Y166833I1J-400D01*
G02X118248I-1252J-33D01*
G03X117849Y167244I-400J11D01*
G01X117027D01*
Y171098D01*
X114972D01*
X109572Y165698D01*
X108772D01*
Y160143D01*
G03X109131Y159745I400J0D01*
G02X110048Y157815I-131J-1245D01*
G03X110169Y157258I335J-219D01*
G02X109595Y154952I-669J-1058D01*
G01X109521Y154946D01*
X109473Y154898D01*
X108772D01*
Y150151D01*
G03X109160Y149751I400J0D01*
G02X110367Y148627I-39J-1251D01*
G03X110582Y148448I199J20D01*
G02X110943Y148424I98J-1248D01*
G03X111428Y148815I85J391D01*
G01Y150973D01*
X114556D01*
Y146173D01*
X114756D01*
Y143597D01*
G03X115439Y143314I400J0D01*
G01X116698Y144573D01*
Y160001D01*
X135949Y179252D01*
X155523D01*
X158290Y176485D01*
G02X157015Y175210I2010J-3285D01*
G01X154777Y177448D01*
X152105D01*
G03X151936Y176686I1J-400D01*
G02X147015Y175210I-1636J-3486D01*
G01X145877Y176348D01*
X144151D01*
Y169349D01*
X136449D01*
Y171209D01*
G03X135766Y171491I-400J-1D01*
G01X127652Y163377D01*
Y149142D01*
G03X128334Y148859I400J0D01*
G01X128594Y149118D01*
X128492Y149257D01*
G02X130747Y150110I1008J743D01*
G03X131110Y149747I399J36D01*
G02X132172Y148059I-110J-1247D01*
G03X132341Y147575I374J-141D01*
G02X130551Y146002I-641J-1075D01*
G03X129901Y146126I-367J-159D01*
G01X116664Y132889D01*
G03X116351Y132484I87J-391D01*
G02X116347Y132355I-951J-35D01*
G01Y132354D01*
X116345Y132332D01*
Y132120D01*
X120496D01*
G03X120880Y132631I0J400D01*
G02X122469Y133567I915J264D01*
G03X123036Y133566I284J282D01*
G01X125725Y136256D01*
G03X125570Y136918I-283J283D01*
G02X127183Y137545I430J1282D01*
G03X127533Y136952I350J-193D01*
G01X130769D01*
G03X131165Y137408I0J400D01*
G02X131497Y138503I1338J192D01*
G02X132887Y140764I916J995D01*
G03X133421Y141072I140J375D01*
G01X134348D01*
G03X134748Y141479I0J400D01*
G02X137452I1352J21D01*
G03X137852Y141072I400J-7D01*
G01X138573D01*
Y139771D01*
G03X139256Y139489I400J1D01*
G01X140619Y140852D01*
X166477D01*
X167886Y142261D01*
G03X167603Y142944I-283J283D01*
G01X155027D01*
Y146472D01*
X156236D01*
X156257Y146649D01*
G02X158743I1243J-149D01*
G01X158764Y146472D01*
X161236D01*
X161257Y146649D01*
G02X163743I1243J-149D01*
G01X163764Y146472D01*
X166239D01*
X166270Y146635D01*
G02X168730I1230J-235D01*
G01X168761Y146472D01*
X169973D01*
Y145313D01*
G03X170656Y145031I400J1D01*
G01X173226Y147601D01*
G03X173102Y148251I-283J283D01*
G02X173030Y150515I498J1149D01*
G03X173127Y150763I-90J178D01*
G02X173952Y152403I1173J437D01*
G03X174096Y152605I-56J192D01*
G02X174857Y153817I1251J60D01*
G01X175009Y153881D01*
X174975Y154042D01*
G02X175290Y155160I1225J258D01*
G01X175345Y155218D01*
Y155498D01*
X174873D01*
X172073Y152698D01*
X153024D01*
X142348Y142022D01*
X141594D01*
G02X139852Y143821I-869J902D01*
G03X139876Y144080I-139J144D01*
G02X140805Y146048I1024J720D01*
G01X140879Y146054D01*
X150427Y155602D01*
X161427D01*
X166449Y160624D01*
Y167051D01*
X174151D01*
Y159349D01*
X167724D01*
X163559Y155184D01*
G03X163842Y154502I283J-282D01*
G01X171327D01*
X174127Y157302D01*
X179431D01*
G02X181508Y156729I869J-902D01*
G03X182177Y156552I386J105D01*
G01X184198Y158573D01*
Y160785D01*
G03X183469Y161012I-400J0D01*
G02Y165388I-3169J2188D01*
G03X184198Y165615I329J227D01*
G01Y168373D01*
X187015Y171190D01*
G02X188290Y169915I3285J2010D01*
G01X186002Y167627D01*
Y157827D01*
X167223Y139048D01*
X143850D01*
G03X143451Y138664I1J-400D01*
G02X142947Y137859I-951J35D01*
G01X142920Y137845D01*
X141989Y136914D01*
X140787D01*
X140643Y136770D01*
G03X140715Y136148I283J-282D01*
G02X138852Y134285I-715J-1148D01*
G03X138230Y134357I-340J-211D01*
G01X137871Y133998D01*
X137443D01*
G03X137046Y133643I0J-400D01*
G02X135154I-946J107D01*
G03X134757Y133998I-397J-45D01*
G01X128312D01*
G03X127954Y133421I0J-400D01*
G02X127890Y132469I-854J-421D01*
G03X127952Y131951I332J-223D01*
G02X126518Y131781I-644J-701D01*
G03X126456Y132299I-332J223D01*
G02X126441Y132313I642J703D01*
G03X125882Y132307I-276J-289D01*
G01X123073Y129498D01*
X123048D01*
G03X122649Y129069I0J-400D01*
G02X120751I-949J-69D01*
G03X120352Y129498I-399J29D01*
G01X117473D01*
X115937Y127962D01*
G03X116000Y127345I283J-283D01*
G02X114738Y125948I-525J-795D01*
G01X106775D01*
G03X106398Y125416I0J-400D01*
G02X106444Y124974I-898J-317D01*
G03X106603Y124752I198J-26D01*
G02X106827Y122958I-185J-934D01*
G03X106609Y122507I172J-361D01*
G02X106628Y122187I-927J-216D01*
G03X107025Y121744I398J-43D01*
G01X107393D01*
X109701Y124052D01*
X114584D01*
G02X116268Y123345I738J-602D01*
G03X116665Y122902I398J-43D01*
G01X117162D01*
G03X117537Y123440I0J400D01*
G02X119323I893J330D01*
G03X119698Y122902I375J-138D01*
G01X123951D01*
X126851Y125802D01*
X130575D01*
G03X130914Y126414I0J400D01*
G02X132387Y126240I807J506D01*
G01X132298Y126153D01*
X132415Y125802D01*
X132900D01*
X133918Y126820D01*
X133917Y126905D01*
G02X134854Y125968I952J15D01*
G01X134769Y125969D01*
X133398Y124598D01*
X133002D01*
G03X132623Y124072I0J-400D01*
G02X130817I-903J-302D01*
G03X130438Y124598I-379J126D01*
G01X127349D01*
X124449Y121698D01*
X123510D01*
G03X123211Y121033I0J-400D01*
G02X121789I-711J-633D01*
G03X121490Y121698I-299J265D01*
G01X113710D01*
G03X113411Y121033I0J-400D01*
G02X111989I-711J-633D01*
G03X111690Y121698I-299J265D01*
G01X111047D01*
X109171Y119822D01*
G03X109199Y119231I283J-283D01*
G02X109240Y117801I-607J-733D01*
G03X109211Y117542I136J-146D01*
G02X108327Y116060I-788J-535D01*
G03X107887Y115685I-41J-398D01*
G02X107033Y116687I-950J55D01*
G03X107473Y117062I41J398D01*
G02X107775Y117704I950J-55D01*
G03X107804Y117963I-136J146D01*
G02X107708Y118850I788J534D01*
G03X107337Y119398I-372J148D01*
G01X104519D01*
X104475Y119443D01*
G03X103863Y119388I-283J-283D01*
G02X102538Y120713I-781J544D01*
G03X102593Y121325I-228J329D01*
G01X102282Y121636D01*
X100511D01*
G02X98858Y122499I-738J601D01*
G01X98890Y122613D01*
X98719Y122784D01*
X98612D01*
X98165Y122337D01*
X98166Y122252D01*
G02X97229Y123189I-952J-15D01*
G01X97314Y123188D01*
X97673Y123547D01*
X97482Y123873D01*
X97349Y123853D01*
G02X96767Y125637I-136J943D01*
G01X96794Y125651D01*
X96970Y125827D01*
G03X96843Y126478I-283J283D01*
G02X97494Y128265I370J877D01*
G01X97523Y128256D01*
X100182D01*
X101782Y129857D01*
G03X101640Y130198I-142J141D01*
G01X101332D01*
X100628Y129494D01*
X100614Y129467D01*
G02X98896Y129543I-841J447D01*
G03X98245Y129670I-368J-156D01*
G01X98069Y129494D01*
X98055Y129467D01*
G02X96337Y129543I-841J447D01*
G03X95686Y129670I-368J-156D01*
G01X95510Y129494D01*
X95496Y129467D01*
G02X94208Y130755I-841J447D01*
G01X94235Y130769D01*
X94411Y130945D01*
G03X94284Y131596I-283J283D01*
G02X93745Y132753I371J877D01*
G01X93754Y132782D01*
Y134096D01*
X97610Y137953D01*
G03X97554Y138565I-283J283D01*
G02X97300Y140565I767J1114D01*
G03X96998Y141227I-302J262D01*
G01X95744D01*
Y145150D01*
G03X95061Y145433I-400J0D01*
G01X93699Y144071D01*
X93778Y143937D01*
G02X93602Y142431I-1078J-637D01*
G01Y134927D01*
X92559Y133884D01*
G03X92621Y133267I282J-283D01*
G02X92020Y131524I-525J-794D01*
G03X91588Y131125I-32J-399D01*
G01Y130824D01*
X91792D01*
X91844Y130831D01*
G02X91219Y129543I252J-918D01*
G03X90568Y129670I-368J-156D01*
G01X90392Y129494D01*
X90378Y129467D01*
G02X88605Y129720I-841J447D01*
G03X87931Y129921I-391J-82D01*
G01X85872Y127862D01*
X79127D01*
X75641Y124376D01*
X75627Y124349D01*
G02X74339Y125637I-841J447D01*
G01X74366Y125651D01*
X78558Y129843D01*
X77752Y130649D01*
Y131072D01*
G03X77350Y131472I-400J0D01*
G02X76637Y131765I-5J1001D01*
G01X76305Y132096D01*
G03X75670Y132002I-283J-283D01*
G02X75257Y131589I-884J471D01*
G03X75163Y130954I189J-352D01*
G01X75494Y130622D01*
G02X74078Y129206I-708J-708D01*
G01X73746Y129537D01*
G03X73111Y129443I-283J-283D01*
G02X72935Y129206I-883J472D01*
G01X72567Y128838D01*
G03X72666Y128200I283J-283D01*
G02X71382Y126916I-439J-845D01*
G03X70744Y127015I-355J-184D01*
G01X70178Y126448D01*
X66092D01*
X65480Y127061D01*
G03X64834Y126947I-283J-283D01*
G02X63216Y126322I-1134J530D01*
G03X62954Y126215I-78J-184D01*
G02X62771Y125909I-1155J483D01*
G03X63081Y125256I310J-253D01*
G01X63594D01*
X64207Y125870D01*
X67905D01*
X68336Y125439D01*
G03X68910Y125448I283J283D01*
G02X70494Y125135I694J-652D01*
G03X71150Y124994I374J142D01*
G01X71372Y125216D01*
X71386Y125243D01*
G02X72674Y123955I841J-447D01*
G01X72647Y123941D01*
X72471Y123765D01*
G03X72598Y123114I283J-283D01*
G02X71278Y122313I-371J-877D01*
G03X70880Y122744I-399J31D01*
G01X70577D01*
Y122517D01*
X70584Y122490D01*
Y122489D01*
X70590Y122465D01*
G02X68746I-922J-233D01*
G01X68759Y122517D01*
Y122744D01*
X68481D01*
X68017Y123209D01*
G03X67433Y123190I-283J-283D01*
G02X65772Y123711I-715J628D01*
G03X65375Y124066I-397J-45D01*
G01X64973D01*
Y121728D01*
X60364D01*
X60344Y121550D01*
G02X60002Y120792I-1344J150D01*
G01Y119272D01*
X60857D01*
G03X61255Y119631I0J400D01*
G02X63745I1245J-131D01*
G03X64143Y119272I398J41D01*
G01X64973D01*
Y117707D01*
G03X65501Y117328I400J0D01*
G02X65349Y115017I399J-1187D01*
G03X64773Y114658I-176J-359D01*
G01Y113884D01*
G03X65447Y113593I400J0D01*
G02Y112207I653J-693D01*
G03X64773Y111928I-274J-291D01*
G01X60002D01*
Y109272D01*
X64973D01*
Y106250D01*
G03X65163Y106050I200J0D01*
G02X65270Y106040I-63J-1250D01*
G03X65489Y106181I27J198D01*
G02X66526Y104961I911J-276D01*
G03X66352Y104768I26J-198D01*
G02X65983Y103913I-1252J33D01*
G03X65973Y103640I141J-142D01*
G02X66195Y103287I-1020J-888D01*
G03X66845Y103162I367J158D01*
G01X69612Y105928D01*
X74787D01*
G02X74919Y105920I6J-1001D01*
G01X74931Y105918D01*
X75144D01*
Y106701D01*
X75900Y107457D01*
G03X75758Y107798I-142J141D01*
G01X75616D01*
X73710Y109705D01*
G03X73072Y109606I-283J-283D01*
G02X71788Y110890I-845J439D01*
G03X71887Y111528I-184J355D01*
G01X71519Y111896D01*
G02X72935Y113312I708J708D01*
G01X73267Y112981D01*
G03X73902Y113075I283J283D01*
G02X75494Y113312I884J-471D01*
G01X78105Y110702D01*
X97300D01*
G03X97583Y111384I0J400D01*
G01X97314Y111653D01*
X97229Y111652D01*
G02X98166Y112589I-15J952D01*
G01X98165Y112504D01*
X98643Y112026D01*
X98689D01*
X98890Y112228D01*
X98858Y112341D01*
G02X100717Y112478I915J263D01*
G03X101073Y112026I396J-54D01*
G01X104896D01*
G03X105254Y112468I-40J398D01*
G02X107046Y113009I946J105D01*
G03X107520Y112810I356J183D01*
G02X108647Y112336I280J-910D01*
G03X109285Y112236I355J183D01*
G01X111530Y114480D01*
Y116041D01*
G02X112732I601J738D01*
G01Y113982D01*
X109765Y111014D01*
G03X110048Y110332I283J-282D01*
G01X117470D01*
X117479Y110523D01*
G02X119073Y111182I951J-43D01*
G03X119349Y111188I135J148D01*
G01X120699Y112538D01*
X127409D01*
G03X127752Y113143I-1J400D01*
G02X129388I818J487D01*
G03X129731Y112538I344J-205D01*
G01X130559D01*
G03X130902Y113143I-1J400D01*
G02X132538I818J487D01*
G03X132881Y112538I344J-205D01*
G01X133339D01*
G03X133706Y113098I0J400D01*
G02X135452I873J380D01*
G03X135819Y112538I367J-160D01*
G01X144178D01*
X145808Y110908D01*
G02X146089Y110044I-708J-708D01*
G01X146073Y109943D01*
X147596Y108420D01*
G03X148247Y108547I283J283D01*
G02X149495Y107299I877J-371D01*
G03X149368Y106648I156J-368D01*
G01X149715Y106302D01*
X158400D01*
G02X159245Y105837I-1J-1002D01*
G03X159866Y105769I338J214D01*
G01X173431Y119334D01*
X173445Y119361D01*
G02X174920Y118204I841J-447D01*
G03X174865Y117667I266J-299D01*
G02X174547Y116259I-765J-567D01*
G01X174520Y116245D01*
X174243Y115968D01*
G03X174252Y115394I283J-283D01*
G02X174292Y115353I-661J-685D01*
G01X174298Y115347D01*
X174448Y115196D01*
X189398Y130146D01*
Y159453D01*
X189252Y159494D01*
G02X191348I1048J3706D01*
G01X191202Y159453D01*
Y129400D01*
X160800Y98998D01*
X131127D01*
X129427Y100698D01*
X127826D01*
G03X127432Y100230I0J-400D01*
G02X124768I-1332J-230D01*
G03X124374Y100698I-394J68D01*
G01X123534D01*
G03X123138Y100242I0J-400D01*
G02X121819Y98698I-1338J-192D01*
G03X121431Y98368I6J-400D01*
G02X121399Y98228I-1332J231D01*
G01X121395Y98216D01*
X121390Y98186D01*
G03X121588Y97956I198J-30D01*
G01X138473D01*
Y94428D01*
X137261D01*
X137230Y94265D01*
G02X134770I-1230J235D01*
G01X134739Y94428D01*
X132261D01*
X132230Y94265D01*
G02X129770I-1230J235D01*
G01X129739Y94428D01*
X127261D01*
X127230Y94265D01*
G02X124770I-1230J235D01*
G01X124739Y94428D01*
X122260D01*
X122250Y94237D01*
G02X119750I-1250J63D01*
G01X119740Y94428D01*
X119051D01*
G03X118651Y94040I0J-400D01*
G02X116223Y93650I-1252J39D01*
G01X116208Y93692D01*
X115473Y94428D01*
X104002D01*
Y91772D01*
X108273D01*
Y88644D01*
X104002D01*
Y87108D01*
G02X102595Y84910I-1002J-908D01*
G02X100629Y84126I-1295J390D01*
G03X100115Y84024I-198J-347D01*
G02X98046Y85762I-1067J830D01*
G01Y86519D01*
X98187Y86661D01*
G03X97905Y87344I-283J283D01*
G01X95420D01*
G03X95023Y86899I1J-400D01*
G02X92729Y85788I-1344J-149D01*
G02X90778Y87658I-950J962D01*
G01Y88415D01*
X91048Y88686D01*
Y89755D01*
G03X90615Y90153I-400J0D01*
G02X90081Y90215I-114J1347D01*
G03X89556Y89835I-125J-380D01*
G01Y86427D01*
X87652D01*
G03X87252Y86020I0J-400D01*
G02X86021Y87252I-1252J-20D01*
G03X86428Y87652I7J400D01*
G01Y90973D01*
X89182D01*
Y91196D01*
X89178Y91217D01*
G02X89169Y91261I1320J293D01*
G01X89140Y91427D01*
X86428D01*
Y95973D01*
X87586D01*
G03X87869Y96656I0J400D01*
G01X87648Y96876D01*
Y99990D01*
X91386Y103727D01*
G03X91397Y104281I-283J283D01*
G02X91596Y105737I699J646D01*
G03X91669Y106361I-210J341D01*
G01X91389Y106641D01*
G02X91096Y107384I708J708D01*
G03X90697Y107798I-400J14D01*
G01X90463D01*
Y107575D01*
X90468Y107553D01*
G02X88587Y107384I-930J-204D01*
G03X88188Y107798I-400J14D01*
G01X78744D01*
G03X78345Y107423I0J-400D01*
G02X78053Y106778I-1000J64D01*
G01X77722Y106446D01*
G03X77816Y105811I283J-283D01*
G02X78346Y104927I-472J-884D01*
G01Y98784D01*
G03X78688Y98643I200J0D01*
G01X79002Y98957D01*
Y104620D01*
X78993Y104648D01*
G02X80815I911J279D01*
G01X80806Y104620D01*
Y98211D01*
X79109Y96514D01*
G03X79251Y96173I142J-141D01*
G01X79256D01*
Y91227D01*
X75772D01*
Y89256D01*
X73415Y86898D01*
X72108D01*
X69299Y84090D01*
X69292Y84019D01*
G02X67812Y85499I-1345J135D01*
G01X67883Y85506D01*
X71278Y88902D01*
X71507D01*
G03X71779Y89594I-1J400D01*
G02X71392Y90926I921J990D01*
G03X71005Y91427I-387J101D01*
G01X69705D01*
X69702Y91230D01*
G02X69279Y92188I-1252J20D01*
G03X69944Y92488I265J300D01*
G01Y95973D01*
X72570D01*
Y96517D01*
X75144Y99091D01*
Y103936D01*
X74931D01*
X74919Y103934D01*
G02X74787Y103926I-126J993D01*
G01X70442D01*
X65152Y98635D01*
Y90665D01*
X65502Y90315D01*
Y83808D01*
G02X63961Y81660I-1002J-908D01*
G03X63402Y81294I-159J-367D01*
G01Y28869D01*
G02X61598I-902J-869D01*
G01Y92131D01*
G02X62688Y94238I902J869D01*
G03X63148Y94633I60J395D01*
G01Y99465D01*
X64544Y100861D01*
G03X64419Y101511I-283J283D01*
G02X64045Y101752I535J1241D01*
G01X59932D01*
X59434Y102249D01*
G03X58752Y101967I-282J-283D01*
G01Y23835D01*
X51911Y16994D01*
G02X51487Y12413I-3411J-1994D01*
G03X51789Y11752I302J-261D01*
G01X74844D01*
Y12398D01*
X73847D01*
X70798Y15447D01*
Y16244D01*
X69527D01*
Y19772D01*
X74473D01*
Y19572D01*
X79273D01*
Y16444D01*
X78372D01*
Y11752D01*
X81028D01*
Y15873D01*
X84156D01*
Y11752D01*
X90500D01*
G02X91703Y8847I0J-1702D01*
G01X86155Y3298D01*
X52351D01*
Y1149D01*
X44649D01*
Y8348D01*
X41562D01*
G03X41274Y7671I0J-400D01*
G02X35726I-2774J-2671D01*
G03X35438Y8348I-288J277D01*
G01X28245D01*
X6298Y30295D01*
Y109330D01*
G02X6798Y110535I1702J0D01*
G01Y132498D01*
X12602Y138302D01*
X15247D01*
X15273Y138308D01*
G02Y135892I327J-1208D01*
G01X15247Y135898D01*
X13598D01*
X9202Y131502D01*
Y113196D01*
G03X9884Y112913I400J0D01*
G01X14986Y118015D01*
X14999Y118038D01*
G02X16708Y116329I1086J-623D01*
G01X16685Y116316D01*
X9702Y109332D01*
Y31705D01*
X29655Y11752D01*
X35211D01*
G03X35513Y12413I0J400D01*
G02X40365Y18483I2986J2587D01*
G01X40496Y18413D01*
X43935Y21852D01*
X45127D01*
G03X45437Y22504I0J400D01*
G02X52425Y24550I3063J2496D01*
G03X53106Y24222I398J-46D01*
G01X55548Y26665D01*
Y39667D01*
G03X54866Y39949I-400J-1D01*
G01X51911Y36994D01*
G02X50494Y38411I-3411J-1994D01*
G01X53998Y41915D01*
Y43592D01*
G02X55115Y45847I1002J908D01*
G03X55548Y46245I33J398D01*
G01Y61667D01*
G03X54866Y61949I-400J-1D01*
G01X51915Y58998D01*
X50360D01*
G03X50177Y58243I1J-400D01*
G02X46823I-1677J-3243D01*
G03X46640Y58998I-184J355D01*
G01X43915D01*
X41911Y56994D01*
G02X40494Y58411I-3411J-1994D01*
G01X43085Y61002D01*
X46054D01*
G03X46279Y61732I0J400D01*
G02X50365Y68483I2221J3268D01*
G01X50496Y68413D01*
X52848Y70765D01*
Y73172D01*
G03X52086Y73340I-400J0D01*
G02Y76660I-3586J1660D01*
G03X52848Y76828I362J168D01*
G01Y83172D01*
G03X52086Y83340I-400J0D01*
G02Y86660I-3586J1660D01*
G03X52848Y86828I362J168D01*
G01Y93172D01*
G03X52086Y93340I-400J0D01*
G02Y96660I-3586J1660D01*
G03X52848Y96828I362J168D01*
G01Y103172D01*
G03X52086Y103340I-400J0D01*
G02X50365Y108483I-3586J1660D01*
G01X50496Y108413D01*
X51648Y109565D01*
Y111627D01*
G03X50996Y111937I-400J0D01*
G02X45686Y112226I-2496J3063D01*
G03X45002Y111945I-284J-281D01*
G01Y110085D01*
G37*
G54D36*
X68250Y72250D03*
X111000Y36000D03*
X155500Y14000D03*
X170650Y90150D03*
G54D33*
X38500Y95000D03*
X89500Y194900D03*
X79500D03*
X69500D03*
X119500D03*
X109500D03*
X99500D03*
X149500D03*
X139500D03*
X129500D03*
X179100Y46100D03*
G54D37*
X89537Y104927D03*
X85022D03*
X82463D03*
X72227Y115163D03*
Y117722D03*
X69645Y110045D03*
X69686Y107486D03*
X72227D03*
X85022Y102422D03*
X118430Y116779D03*
X99773Y115163D03*
Y117722D03*
X105051Y117710D03*
X108897Y114298D03*
X118499Y126549D03*
X127120Y118700D03*
X149226Y111326D03*
X134869Y116779D03*
X131720D03*
X134869Y130069D03*
X148900Y127000D03*
Y123000D03*
X145200Y130200D03*
X127300Y127750D03*
X131720Y120621D03*
X152901Y119400D03*
X162101Y128600D03*
X168150Y125200D03*
X155900Y131600D03*
G54D34*
X38500Y175000D03*
X59500Y194900D03*
X109500Y184900D03*
X150300Y163200D03*
X149500Y184900D03*
X139500D03*
X180300Y173200D03*
X160300Y163200D03*
G54D32*
X38500Y25000D03*
Y45000D03*
X48500D03*
X38500Y35000D03*
Y85000D03*
Y75000D03*
Y65000D03*
G54D39*
X140300Y163200D03*
X170300Y173200D03*
G54D38*
X104592Y13600D03*
X112992Y158700D03*
Y153700D03*
Y163700D03*
X125108Y59600D03*
G54D35*
X83500Y18008D03*
X105500Y18508D03*
X121000Y90208D03*
X116000D03*
X111000D03*
X131600Y11908D03*
X126600D03*
X126000Y90208D03*
X131000D03*
X136000D03*
X155600Y21108D03*
X167500Y150692D03*
X162500D03*
X157500D03*
%LPD*%
G75*
G36*
G01X43552Y120433D02*
Y137092D01*
X40242Y140402D01*
X38504D01*
X38054Y140852D01*
X38257Y141056D01*
X38344Y141052D01*
G03X41911Y146994I156J3948D01*
G01X44465Y149548D01*
X48585D01*
X48800Y149334D01*
G02X48515Y148651I-283J-283D01*
G03X52151Y145015I-15J-3651D01*
G02X52834Y145300I400J2D01*
G01X55611Y142523D01*
X51696Y138609D01*
Y138333D01*
G02X51039Y138027I-400J0D01*
G03X50992Y131934I-2539J-3027D01*
G02X51644Y131624I252J-310D01*
G01Y128376D01*
G02X50992Y128066I-400J0D01*
G03X45714Y122198I-2493J-3065D01*
G02X45715Y121632I-282J-283D01*
G01X44234Y120151D01*
G02X43552Y120433I-282J283D01*
G37*
G36*
G01X73210Y132066D02*
Y132283D01*
X73213Y132300D01*
G03X73228Y132473I-986J173D01*
G01Y135043D01*
X66852Y141419D01*
X66845Y141490D01*
G03X64838Y142534I-1345J-135D01*
G01X64706Y142460D01*
X61264Y145902D01*
X59625D01*
G02X59231Y146374I-1J400D01*
G03X58463Y147763I-1231J226D01*
G02X58221Y148223I148J372D01*
G03X55800Y148858I-1221J277D01*
G02X55134Y148690I-383J115D01*
G01X53702Y150122D01*
Y166942D01*
X51185Y169459D01*
G02X51312Y170110I283J283D01*
G03X51677Y170348I-491J1152D01*
G01X57246Y164779D01*
X57252Y164705D01*
G03X58595Y166048I1248J95D01*
G01X58521Y166054D01*
X52410Y172164D01*
X51692D01*
G03X51538Y172291I-871J-899D01*
G02X51496Y172581I114J165D01*
G03X52187Y176112I-2996J2419D01*
G02X52853Y176510I383J116D01*
G01X65924Y163439D01*
G02X65641Y162756I-283J-283D01*
G01X62727D01*
Y159628D01*
X67273D01*
Y162482D01*
X67743D01*
X67748Y162477D01*
G03X70102Y163094I1252J23D01*
G02X70296Y163650I352J189D01*
G03X71048Y164705I-496J1149D01*
G01X71054Y164779D01*
X71973Y165698D01*
X76444D01*
Y161427D01*
X79572D01*
Y165698D01*
X82228D01*
Y161227D01*
X84334D01*
Y160004D01*
X78122D01*
Y154270D01*
X84334D01*
Y152702D01*
X83761Y152130D01*
X78122D01*
Y147597D01*
G02X77780Y147456I-200J0D01*
G01X77734Y147502D01*
X77394D01*
Y153650D01*
X75973D01*
Y156972D01*
X71027D01*
Y153444D01*
X72448D01*
Y146402D01*
X68176D01*
X67552Y147026D01*
Y153650D01*
X67473D01*
Y156972D01*
X62527D01*
Y153444D01*
X62606D01*
Y145750D01*
X66278D01*
X67430Y144598D01*
X69436D01*
G02X69749Y143949I0J-400D01*
G03X69804Y142198I1057J-843D01*
G01Y139579D01*
X73784Y135599D01*
Y132473D01*
G03X73800Y132300I1002J5D01*
G01X73803Y132283D01*
Y132066D01*
X73210D01*
G37*
G36*
G01X67627Y164286D02*
X58321Y173592D01*
G02X58348Y174182I283J283D01*
G03X58415Y174242I-801J962D01*
G01X60617D01*
X62774Y176398D01*
X66527D01*
Y173228D01*
X71473D01*
Y173472D01*
G02X72025Y173842I400J0D01*
G03X73497Y175757I475J1158D01*
G02X73816Y176398I319J241D01*
G01X76527D01*
Y173228D01*
X81473D01*
Y174090D01*
X83123D01*
G03X84985Y175755I869J902D01*
G02X85302Y176398I317J243D01*
G01X86527D01*
Y173228D01*
X91473D01*
Y173472D01*
G02X92025Y173842I400J0D01*
G03X92975I475J1158D01*
G02X93527Y173472I152J-370D01*
G01Y173228D01*
X98473D01*
Y174090D01*
X99623D01*
G03X101485Y175755I869J902D01*
G02X101802Y176398I317J243D01*
G01X112273D01*
X117490Y181615D01*
G03X118453Y181194I2010J3285D01*
G01X118598Y181153D01*
Y176756D01*
X117027D01*
Y172902D01*
X114226D01*
X108826Y167502D01*
X98273D01*
Y170572D01*
X93727D01*
Y170370D01*
G02X93101Y170040I-400J0D01*
G03X92065Y170216I-708J-1032D01*
G01X92039Y170210D01*
X91473D01*
Y170772D01*
X86527D01*
Y167502D01*
X83919D01*
G02X83622Y168169I0J400D01*
G03X82365Y170216I-930J839D01*
G01X82339Y170210D01*
X81473D01*
Y170772D01*
X76527D01*
Y167502D01*
X74135D01*
G02X73838Y168169I0J400D01*
G03X72581Y170216I-930J839D01*
G01X72555Y170210D01*
X71473D01*
Y170772D01*
X66527D01*
Y167244D01*
X70003D01*
G02X70286Y166561I0J-400D01*
G01X69779Y166054D01*
X69705Y166048D01*
G03X68551Y164713I95J-1248D01*
G02X68152Y164286I-399J-27D01*
G01X67627D01*
G37*
G36*
G01X80312Y141835D02*
Y133406D01*
X80093D01*
X80075Y133409D01*
G03X79947Y133424I-175J-936D01*
G02X79756Y133624I9J200D01*
G01Y138460D01*
X76902Y141314D01*
Y142326D01*
G02X77423Y142707I400J0D01*
G03X78703Y143029I380J1193D01*
G02X78954Y143058I143J-139D01*
G03X80874Y144215I672J1057D01*
G02X81024Y144425I199J16D01*
G03X81547Y144688I-332J1311D01*
G01X81602Y144734D01*
X81818D01*
X82170Y144381D01*
Y143694D01*
X80312Y141835D01*
G37*
G36*
G01X94878Y154963D02*
Y160004D01*
X89239D01*
X88410Y160833D01*
Y161227D01*
X89272D01*
Y165698D01*
X91928D01*
Y161427D01*
X95056D01*
Y165698D01*
X95744D01*
Y156227D01*
X96606D01*
Y155725D01*
X95561Y154680D01*
G02X94878Y154963I-283J283D01*
G37*
G36*
G01X99837Y138402D02*
G02X99491Y139002I0J400D01*
G03X98991Y140853I-1170J677D01*
G01X98890Y140911D01*
Y141227D01*
X99272D01*
Y151173D01*
X98710D01*
Y152810D01*
X100000Y154101D01*
X100023Y154114D01*
G03X99463Y156450I-623J1086D01*
G02X99272Y156650I9J200D01*
G01Y164899D01*
X100072Y165698D01*
X101728D01*
Y165350D01*
G02X101345Y164951I-400J1D01*
G03Y162449I55J-1251D01*
G02X101728Y162050I-17J-400D01*
G01Y161227D01*
X101928D01*
Y156427D01*
X105244D01*
Y150973D01*
X101928D01*
Y146427D01*
X105244D01*
Y145973D01*
X101928D01*
Y141427D01*
X102985D01*
G02X103376Y140943I0J-400D01*
G03X104667Y139429I1224J-264D01*
G02X104972Y138747I22J-399D01*
G01X104627Y138402D01*
X99837D01*
G37*
G36*
G01X123832Y19656D02*
Y24792D01*
X121166D01*
G02X120883Y25475I0J400D01*
G01X123826Y28418D01*
X124127D01*
Y25628D01*
X132893D01*
G02X133185Y24955I0J-400D01*
G03X133014Y24723I916J-854D01*
G01X133001Y24700D01*
X131473Y23172D01*
X129127D01*
Y22972D01*
X124327D01*
Y19656D01*
X123832D01*
G37*
G36*
G01X121190Y110196D02*
X121529Y110536D01*
X133561D01*
X133570Y110344D01*
G03X133584Y110221I951J46D01*
G02X133190Y109752I-394J-69D01*
G01X128200D01*
X127962Y109514D01*
X121472D01*
G02X121190Y110196I1J400D01*
G37*
G36*
G01X131820Y33396D02*
X131778Y33540D01*
G03X131753Y33618I-1243J-355D01*
G02X132129Y34154I376J136D01*
G01X132318D01*
Y41359D01*
X131516Y42162D01*
X131608Y42298D01*
G03X131830Y43021I-1071J724D01*
G01Y46282D01*
X131802D01*
Y47344D01*
X133073D01*
Y49962D01*
G02X133756Y50245I400J0D01*
G01X134098Y49902D01*
Y42356D01*
X132827D01*
Y38828D01*
X137773D01*
Y39028D01*
X142746D01*
Y36372D01*
X142043D01*
G02X141645Y36731I0J400D01*
G03X139155I-1245J-131D01*
G02X138757Y36372I-398J41D01*
G01X136943D01*
G02X136545Y36731I0J400D01*
G03X134055I-1245J-131D01*
G02X133657Y36372I-398J41D01*
G01X132827D01*
Y33396D01*
X131820D01*
G37*
%LPC*%
G75*
G36*
G01X57781Y154853D02*
G03X57852Y155091I-115J164D01*
G02X59735Y154528I1164J462D01*
G03X59664Y154290I115J-164D01*
G02X57781Y154853I-1164J-462D01*
G37*
G54D35*
X73500Y161192D03*
%LPD*%
G75*
G54D10*
X11070Y83000D03*
X14761Y95761D03*
X14770Y97730D03*
X16085Y117415D03*
X15600Y137100D03*
X15631Y135131D03*
X11070Y149370D03*
X27667Y101667D03*
X27508Y105675D03*
X27665Y103635D03*
X27400Y107572D03*
X21000Y143000D03*
X21200Y155300D03*
X21500Y174500D03*
X25992Y165008D03*
X31000Y59500D03*
X29992Y90592D03*
X34000Y170800D03*
X42000Y111500D03*
X50150Y120703D03*
X43500Y157500D03*
X50823Y171263D03*
X62500Y28000D03*
X55000Y44500D03*
X64500Y82900D03*
X65700Y97445D03*
X62500Y93000D03*
X63300Y104500D03*
X60863Y104562D03*
X65100Y104800D03*
X65400Y110200D03*
X64953Y102753D03*
X62500Y119500D03*
X65900Y116141D03*
X59000Y121700D03*
X61800Y126700D03*
X63700Y127477D03*
X59050Y132294D03*
X58996Y130149D03*
X61400Y136100D03*
X57525Y138346D03*
X58000Y146600D03*
X57000Y148500D03*
X65500Y141355D03*
X61200Y140800D03*
X59213Y139995D03*
X56799Y140102D03*
X59500Y142000D03*
X59016Y155553D03*
X58500Y153828D03*
X61608Y161192D03*
X57546Y175143D03*
X58500Y164800D03*
X59600Y179900D03*
X55600Y180500D03*
X55950Y177650D03*
X76500Y49200D03*
X68250Y72250D03*
X67947Y84154D03*
X72700Y90584D03*
X68450Y91250D03*
X69645Y110045D03*
X74786Y112604D03*
X72227Y110045D03*
Y112604D03*
X69686Y107486D03*
X72227D03*
X77345D03*
Y104927D03*
X74786D03*
X66400Y105905D03*
X66100Y112900D03*
X72227Y122237D03*
Y117722D03*
Y115163D03*
X69604Y124796D03*
X69668Y122232D03*
X66718Y123818D03*
X74786Y124796D03*
X72227D03*
X74786Y122237D03*
Y117722D03*
Y115163D03*
X72227Y127355D03*
X77332Y135032D03*
X66806Y128822D03*
X66605Y131495D03*
X66500Y136000D03*
X74786Y127355D03*
Y129914D03*
X72227D03*
Y132473D03*
X74786D03*
X77345D03*
X72638Y142400D03*
X70806Y143106D03*
X73963Y143950D03*
X75900D03*
X77804Y143900D03*
X69100Y159564D03*
X69000Y162500D03*
X72908Y169008D03*
X72500Y175000D03*
X69800Y164800D03*
X85000Y13600D03*
X87092Y23992D03*
X80200Y18008D03*
X80500Y26000D03*
X79100Y34100D03*
X89000Y53000D03*
X78800Y42900D03*
X84192Y51392D03*
X87700Y60900D03*
X81500Y59100D03*
X78800Y57100D03*
X78417Y84400D03*
X88900Y84200D03*
X81850Y82500D03*
X86000Y86000D03*
X78323Y88300D03*
X85022Y102422D03*
X82463Y104927D03*
X85022D03*
X89538Y107349D03*
X89537Y104927D03*
X79904D03*
Y112604D03*
X79903Y107349D03*
X82463Y112604D03*
X82462Y107349D03*
X85022Y112604D03*
X85021Y107349D03*
X89537Y112604D03*
X79904Y124796D03*
Y122237D03*
X82463Y124796D03*
Y122237D03*
X85022Y124796D03*
Y122237D03*
X89537Y124796D03*
Y122237D03*
X79904Y117722D03*
Y115163D03*
X82463Y117722D03*
Y115163D03*
X85022Y117722D03*
Y115163D03*
X89537Y117722D03*
Y115163D03*
X79904Y132473D03*
X82463D03*
X85022D03*
X89700Y135673D03*
X89537Y132473D03*
X85022Y129914D03*
X89537D03*
X79904D03*
X82463D03*
X85800Y139200D03*
X81622Y144078D03*
X86100Y147300D03*
X80691Y145735D03*
X87600Y146300D03*
X84600Y145600D03*
X79626Y144115D03*
X82692Y169008D03*
X83992Y174992D03*
X80300Y163700D03*
X90500Y10050D03*
X102380Y25520D03*
X101900Y18508D03*
X101000Y34000D03*
X100500Y42700D03*
X98600Y48900D03*
X100500Y56900D03*
X96120Y62563D03*
X91992Y64792D03*
X94382Y68500D03*
X101300Y85300D03*
X93679Y86750D03*
X99047Y84854D03*
X91779Y86750D03*
X96800Y86000D03*
X98400Y97800D03*
X96502Y97906D03*
X93000Y99000D03*
X91121Y98709D03*
X94600Y98300D03*
X90500Y91500D03*
X99773Y112604D03*
Y104927D03*
X92096D03*
X99773Y110045D03*
X97215Y107349D03*
X97214Y104927D03*
X94655D03*
X94656Y107349D03*
X92097D03*
X97214Y112604D03*
X92096D03*
X99773Y117722D03*
Y115163D03*
Y124796D03*
Y122237D03*
X97214D03*
Y124796D03*
X92096D03*
Y122237D03*
Y117722D03*
Y115163D03*
X97214Y117722D03*
Y115163D03*
X92096Y129914D03*
Y132473D03*
X99773D03*
Y129914D03*
X94655D03*
Y132473D03*
X97214D03*
Y129914D03*
Y127355D03*
X98321Y139679D03*
X100500Y141600D03*
X94600Y143900D03*
X92700Y143300D03*
X99400Y155200D03*
X101500Y158700D03*
X92392Y169008D03*
X101400Y163700D03*
X92500Y175000D03*
X100492Y174992D03*
X91100Y163700D03*
X99592Y169008D03*
X112279Y12379D03*
X107300Y13600D03*
X108708Y24492D03*
X108292Y18508D03*
X111000Y36000D03*
X106500Y51292D03*
X103600Y64000D03*
X108108Y64392D03*
X114092Y64492D03*
X103000Y86200D03*
X111000Y86000D03*
X106000Y85900D03*
X111200Y101700D03*
X106100Y101000D03*
X108897Y114298D03*
X106200Y112573D03*
X107297Y106772D03*
X107032Y105295D03*
X106900Y103800D03*
X107800Y111900D03*
X112432Y107121D03*
X108592Y118498D03*
X105051Y117710D03*
X106937Y115740D03*
X108423Y117007D03*
X105500Y125100D03*
X105682Y122292D03*
X103082Y119932D03*
X106418Y123818D03*
X112700Y120400D03*
X112131Y116779D03*
X112594Y132418D03*
X112131Y130069D03*
X110679Y147200D03*
X109121Y148500D03*
X104600Y140679D03*
X109500Y156200D03*
X109000Y158500D03*
X102900Y155000D03*
X126600Y15779D03*
Y9500D03*
Y23300D03*
Y29600D03*
Y38100D03*
X118495Y42800D03*
X121200Y46900D03*
X117521Y55721D03*
X122192Y55092D03*
X122300Y59600D03*
X126000Y86200D03*
X116000Y85900D03*
X121000Y86100D03*
Y94300D03*
X126000Y94500D03*
X117400Y94079D03*
X120100Y98605D03*
X121800Y100050D03*
X126100Y100000D03*
X116500Y98605D03*
Y101705D03*
X118430Y110480D03*
X121100Y105500D03*
X118430Y107331D03*
Y113630D03*
Y116779D03*
X118499Y126549D03*
X115476Y126550D03*
X118430Y123770D03*
X115322Y123450D03*
X122500Y120400D03*
X115400Y132450D03*
X121795Y132895D03*
X121700Y129000D03*
X126000Y138200D03*
X119500Y133000D03*
X124600Y147600D03*
X122618Y148200D03*
X121000Y158300D03*
X115700Y160500D03*
X115600Y155000D03*
X119500Y166800D03*
X116000Y163700D03*
X131600Y16000D03*
Y9600D03*
X129733Y29133D03*
X134100Y24100D03*
X138300Y23900D03*
X135300Y36600D03*
X136000Y86500D03*
X131000Y86200D03*
Y94500D03*
X136000D03*
X132500Y102250D03*
X134453Y107305D03*
X128570Y107331D03*
Y113630D03*
X131500Y107600D03*
X134521Y110387D03*
X134579Y113478D03*
X131720Y113630D03*
X127900Y109662D03*
X127120Y118700D03*
X134869Y116779D03*
X131720D03*
Y123770D03*
Y120621D03*
X137900Y120400D03*
X128570Y116779D03*
X134869Y130069D03*
X127308Y131250D03*
X131720Y126920D03*
X132503Y137600D03*
X127100Y133000D03*
X134869Y126920D03*
X127300Y127750D03*
X136100Y133750D03*
X136000Y147800D03*
X136100Y141500D03*
X132413Y139498D03*
X129500Y150000D03*
X131000Y148500D03*
X131700Y146500D03*
X143608Y9908D03*
X149592Y10008D03*
X140600Y18600D03*
X141563Y24163D03*
X140400Y36600D03*
X147584Y35084D03*
X140400Y46900D03*
X149553Y62100D03*
X145616Y60400D03*
X143647Y58200D03*
X149500Y84300D03*
X145692Y93192D03*
X149226Y111326D03*
X145100Y110200D03*
X149124Y108176D03*
X148900Y123000D03*
X139900Y118700D03*
X148900Y127000D03*
X145200Y130200D03*
X140000Y135000D03*
X142500Y138700D03*
X148650Y129250D03*
X140725Y142924D03*
X140900Y144800D03*
X155500Y14000D03*
X160600Y23100D03*
X153496Y19004D03*
X151437Y24163D03*
X157700Y29800D03*
X153500Y33800D03*
X161539Y29603D03*
X158100Y58200D03*
X154500Y84300D03*
X159500Y84500D03*
Y95800D03*
X154500Y95900D03*
X158400Y105300D03*
X158900Y109651D03*
X152901Y119400D03*
X162101Y128600D03*
X155900Y131600D03*
X162500Y146500D03*
X157500D03*
Y148579D03*
X162500D03*
X165075Y29405D03*
X168275Y29468D03*
X166854Y46433D03*
X173700Y45900D03*
X163500Y46095D03*
X165075Y46075D03*
X170600Y46300D03*
X171792Y55792D03*
X170650Y90150D03*
X173600Y114700D03*
X168150Y125200D03*
X174286Y118914D03*
X174100Y117100D03*
X165300Y116049D03*
X166874Y133600D03*
X167500Y146400D03*
X173600Y149400D03*
X174300Y151200D03*
X167500Y148579D03*
X175347Y152665D03*
X180300Y156400D03*
X176200Y154300D03*
G54D11*
X21700Y90592D03*
Y84608D03*
X21200Y146108D03*
Y152092D03*
X21500Y170992D03*
Y165008D03*
X62500Y113492D03*
Y107508D03*
Y117508D03*
Y123492D03*
X65000Y155208D03*
Y161192D03*
X77000Y23992D03*
Y18008D03*
X72000Y23992D03*
Y18008D03*
X76500Y45408D03*
Y51392D03*
Y60892D03*
Y54908D03*
X73500Y155208D03*
Y161192D03*
X69000Y174992D03*
Y169008D03*
X79000Y174992D03*
Y169008D03*
X83500Y23992D03*
Y18008D03*
X81500Y45408D03*
Y51392D03*
Y54908D03*
Y60892D03*
X89000Y174992D03*
Y169008D03*
X99000Y24492D03*
Y18508D03*
X94000Y24492D03*
Y18508D03*
X98600Y45308D03*
Y51292D03*
X103600Y45308D03*
Y51292D03*
X98600Y60792D03*
Y54808D03*
X103600D03*
Y60792D03*
X96800Y88908D03*
Y94892D03*
X96000Y174992D03*
Y169008D03*
X105500Y24492D03*
Y18508D03*
X106000Y90208D03*
X111000D03*
X106000Y96192D03*
X111000D03*
X126600Y11908D03*
Y27392D03*
Y21408D03*
Y17892D03*
X125600Y49108D03*
Y55092D03*
X121000Y90208D03*
X126000D03*
X116000D03*
X121000Y96192D03*
X126000D03*
X116000D03*
X119500Y174992D03*
Y169008D03*
X131600Y11908D03*
X136600Y21408D03*
Y27392D03*
X131600Y17892D03*
Y21408D03*
Y27392D03*
X135300Y40592D03*
Y34608D03*
X130600Y49108D03*
Y55092D03*
X131000Y90208D03*
X136000D03*
X131000Y96192D03*
X136000D03*
Y139208D03*
Y145192D03*
X140400Y34608D03*
Y40592D03*
X149500Y87208D03*
Y93192D03*
X155600Y27092D03*
Y21108D03*
X160600Y27092D03*
Y21108D03*
X158100Y49808D03*
X163100D03*
X158100Y55792D03*
X163100D03*
X159500Y87208D03*
X154500D03*
X159500Y93192D03*
X154500D03*
X162500Y150692D03*
Y144708D03*
X157500Y150692D03*
Y144708D03*
X170600Y21108D03*
Y27092D03*
X165600Y21108D03*
Y27092D03*
X168100Y49808D03*
Y55792D03*
X167500Y150692D03*
Y144708D03*
G54D20*
X91421Y149263D03*
X81579D03*
Y157137D03*
X91421D03*
G54D30*
G01X21700Y90592D02*
X29992D01*
G01X21000Y143000D02*
Y145908D01*
X21200Y146108D01*
G01X21500Y165008D02*
X25992D01*
G01X59213Y139995D02*
Y137827D01*
X56299Y134913D01*
Y132390D01*
X56246Y132337D01*
Y128217D01*
X56250Y128213D01*
Y114812D01*
X56550Y114512D01*
Y26250D01*
X51150Y20850D01*
X44350D01*
X38500Y15000D01*
G01X57525Y138346D02*
X55098Y135919D01*
Y132887D01*
X55046Y132835D01*
Y127719D01*
X55050Y127715D01*
Y63550D01*
X51500Y60000D01*
X43500D01*
X38500Y55000D01*
G01X50150Y120703D02*
X46203D01*
X44000Y118500D01*
Y110500D01*
X38500Y105000D01*
G01X34000Y170800D02*
Y143631D01*
X38131Y139500D01*
X39869D01*
X42650Y136719D01*
Y113400D01*
X42000Y112750D01*
Y111500D01*
G01X38500Y145000D02*
X44050Y150550D01*
X49000D01*
X56000Y143550D01*
X60643D01*
X62750Y141443D01*
Y137450D01*
X61400Y136100D01*
G01X66500Y136000D02*
X63950Y138550D01*
Y141941D01*
X60891Y145000D01*
X57549D01*
X52800Y149749D01*
Y166569D01*
X49769Y169600D01*
X48173D01*
X44400Y173373D01*
Y179100D01*
X38500Y185000D01*
G01Y195000D02*
X43500Y190000D01*
X49227D01*
X52900Y186327D01*
Y177738D01*
X67254Y163384D01*
X68116D01*
X69000Y162500D01*
G01X61200Y140800D02*
Y138093D01*
X57500Y134397D01*
Y131893D01*
X57446Y131839D01*
Y128715D01*
X57450Y128711D01*
Y121057D01*
X57750Y120757D01*
Y24250D01*
X48500Y15000D01*
G01X55000Y44500D02*
Y41500D01*
X48500Y35000D01*
G01Y65000D02*
X53850Y70350D01*
Y127217D01*
X53846Y127221D01*
Y133333D01*
X53898Y133385D01*
Y137201D01*
X56799Y140102D01*
G01X48500Y105000D02*
X52650Y109150D01*
Y126719D01*
X52646Y126723D01*
Y133831D01*
X52698Y133883D01*
Y138194D01*
X56504Y142000D01*
X59500D01*
G01X50823Y171263D02*
X52037D01*
X58500Y164800D01*
G01X62500Y93000D02*
Y28000D01*
G01X74786Y104927D02*
X70027D01*
X64150Y99050D01*
Y90250D01*
X64500Y89900D01*
Y82900D01*
G01X64953Y102753D02*
X60347D01*
X59000Y104100D01*
Y121700D01*
G01X72227Y124796D02*
X71077Y123646D01*
X68854D01*
X67532Y124968D01*
X64580D01*
X63104Y123492D01*
X62500D01*
G01X59050Y132294D02*
X63362D01*
X65311Y130345D01*
X68445D01*
X69164Y131064D01*
X73636D01*
X74786Y129914D01*
G01X72227D02*
X69763Y127450D01*
X66507D01*
X64657Y129300D01*
X59845D01*
X58996Y130149D01*
G01X65500Y141355D02*
X72227Y134628D01*
Y132473D01*
G01X77804Y143900D02*
Y144494D01*
X77650Y144648D01*
Y144704D01*
X76854Y145500D01*
X67803D01*
X65079Y148224D01*
Y149700D01*
G01D02*
Y155129D01*
X65000Y155208D01*
G01X57546Y175143D02*
X60244D01*
X62401Y177300D01*
X111900D01*
X119500Y184900D01*
G01X59600Y179900D02*
X60484Y180784D01*
X75384D01*
X79500Y184900D01*
G01X55600Y180500D02*
X57650Y178450D01*
X60201D01*
X61251Y179500D01*
X84100D01*
X89500Y184900D01*
G01X55950Y177650D02*
X56834Y176766D01*
X60073D01*
X61707Y178400D01*
X93000D01*
X99500Y184900D01*
G01X77345Y104927D02*
Y97845D01*
X74771Y95271D01*
Y89671D01*
X73000Y87900D01*
X71693D01*
X67947Y84154D01*
G01X72700Y90584D02*
Y90642D01*
X73571Y91513D01*
Y96102D01*
X76145Y98676D01*
Y106286D01*
X77345Y107486D01*
G01X79904Y104927D02*
Y98584D01*
X77492Y96172D01*
Y93700D01*
G01X145100Y110200D02*
X143763Y111537D01*
X121114D01*
X118907Y109330D01*
X108831D01*
X108396Y108895D01*
X99296D01*
X98491Y109700D01*
X77690D01*
X74786Y112604D01*
G01X158400Y105300D02*
X149300D01*
X145850Y108750D01*
X128615D01*
X128377Y108512D01*
X109808D01*
X109391Y108095D01*
X98893D01*
X98188Y108800D01*
X76031D01*
X72227Y112604D01*
G01X74786Y124796D02*
X78754Y128764D01*
X85499D01*
X87500Y130765D01*
Y140151D01*
X92099Y144750D01*
X93103D01*
X95500Y147147D01*
Y153344D01*
X97508Y155352D01*
Y158700D01*
G01X70806Y143106D02*
Y139994D01*
X74786Y136014D01*
Y132473D01*
G01X73963Y143950D02*
X74188Y143725D01*
Y139613D01*
X76182Y137619D01*
Y133636D01*
X77345Y132473D01*
G01X79904Y129914D02*
X78754Y131064D01*
Y138045D01*
X75900Y140899D01*
Y143950D01*
G01X79626Y144115D02*
Y144228D01*
X78750Y145104D01*
Y145211D01*
X77361Y146600D01*
X76545D01*
X74921Y148224D01*
Y149700D01*
G01D02*
X74800Y149821D01*
Y154000D01*
X73592Y155208D01*
X73500D01*
G01X72500Y175000D02*
X69008D01*
X69000Y174992D01*
G01X69800Y164800D02*
X71600Y166600D01*
X99699D01*
G01X80500Y26000D02*
X80380Y26120D01*
Y28391D01*
G01X81850Y82500D02*
Y81032D01*
X94382Y68500D01*
G01X94655Y104927D02*
Y104056D01*
X89968Y99369D01*
Y97672D01*
X91091Y96707D01*
X93679Y94119D01*
Y86750D01*
G01X92097Y107349D02*
X93400Y106046D01*
Y104325D01*
X88650Y99575D01*
Y97291D01*
X92050Y93891D01*
Y88271D01*
X91779Y88000D01*
Y86750D01*
G01X86100Y147300D02*
Y143600D01*
X83872Y141372D01*
Y131064D01*
X85022Y129914D01*
G01X92700Y143300D02*
Y135300D01*
X90687Y133287D01*
Y131064D01*
X89537Y129914D01*
G01X80691Y145735D02*
X82233D01*
X83172Y144796D01*
Y143279D01*
X81313Y141420D01*
Y131064D01*
X82463Y129914D01*
G01X87600Y146300D02*
Y153906D01*
X90831Y157137D01*
G01X84600Y145600D02*
X83441Y146759D01*
Y147401D01*
X81579Y149263D01*
G01X83992Y163700D02*
Y162896D01*
X85235Y161653D01*
Y152329D01*
X82169Y149263D01*
X81579D01*
G01X90831Y157137D02*
X87508Y160460D01*
Y163700D01*
G01X79000Y174992D02*
X83992D01*
G01X92500Y175000D02*
X89008D01*
X89000Y174992D01*
G01X101300Y85300D02*
Y98932D01*
X97214Y103018D01*
Y104927D01*
G01X99047Y84854D02*
Y86104D01*
X100100Y87157D01*
Y99000D01*
X95900Y103200D01*
Y106105D01*
X94656Y107349D01*
G01X103000Y86200D02*
Y98364D01*
X98600Y102764D01*
Y105964D01*
X97215Y107349D01*
G01X94600Y98300D02*
Y96383D01*
X96091Y94892D01*
X96800D01*
G01X132500Y102250D02*
X131250D01*
X130645Y102855D01*
X108955D01*
X108750Y102650D01*
X102050D01*
X99773Y104927D01*
G01X112131Y116779D02*
Y114231D01*
X107945Y110045D01*
X99773D01*
G01X107800Y111900D02*
X107323Y111423D01*
X98395D01*
X97214Y112604D01*
G01X115476Y126550D02*
X104250D01*
X102496Y124796D01*
X99773D01*
G01X134869Y126920D02*
X133149Y125200D01*
X127100D01*
X124200Y122300D01*
X110798D01*
X108498Y120000D01*
X104768D01*
X102531Y122237D01*
X99773D01*
G01X115322Y123450D02*
X109950D01*
X107642Y121142D01*
X104758D01*
X102513Y123387D01*
X98364D01*
X97214Y122237D01*
G01X142500Y138700D02*
X141616Y137816D01*
X140414D01*
X137498Y134900D01*
X127200D01*
X122700Y130400D01*
X117100D01*
X114900Y128200D01*
X104200D01*
X102500Y126500D01*
X98918D01*
X97214Y124796D01*
G01X129500Y150000D02*
Y148750D01*
X115950Y135200D01*
X110700D01*
X107973Y132473D01*
X99773D01*
G01X131000Y148500D02*
X116300Y133800D01*
X111300D01*
X108600Y131100D01*
X100959D01*
X99773Y129914D01*
G01X94655D02*
X95900Y131159D01*
Y133541D01*
X98909Y136550D01*
X106050D01*
X108978Y139478D01*
X114434D01*
X119400Y144444D01*
Y156700D01*
X121000Y158300D01*
G01X160300Y173200D02*
X155150Y178350D01*
X136322D01*
X117600Y159628D01*
Y144200D01*
X114278Y140878D01*
X108378D01*
X105000Y137500D01*
X98432D01*
X94655Y133723D01*
Y132473D01*
G01X97214D02*
Y133723D01*
X98991Y135500D01*
X106980D01*
X109480Y138000D01*
X114512D01*
X121000Y144488D01*
Y156249D01*
X122450Y157699D01*
Y162922D01*
X136778Y177250D01*
X146250D01*
X150300Y173200D01*
G01X97214Y129914D02*
X98623Y131323D01*
Y132950D01*
X99673Y134000D01*
X107500D01*
X110100Y136600D01*
X115651D01*
X126750Y147699D01*
Y163750D01*
X136200Y173200D01*
X140300D01*
G01X97214Y127355D02*
X100555D01*
X103200Y130000D01*
X110000D01*
X111219Y131219D01*
X121963D01*
X126794Y136050D01*
X137092D01*
X140992Y139950D01*
X166850D01*
X185100Y158200D01*
Y168000D01*
X190300Y173200D01*
G01X91421Y157137D02*
X90831D01*
G01X96000Y174992D02*
X100492D01*
G01X99699Y166600D02*
X97508Y164409D01*
Y163700D01*
G01X105900Y166600D02*
X99699D01*
G01X190300Y163200D02*
Y129773D01*
X160427Y99900D01*
X131500D01*
X129800Y101600D01*
X120600D01*
X119155Y100155D01*
X114855D01*
X114850Y100150D01*
X110250D01*
X109400Y101000D01*
X106100D01*
G01X107297Y106772D02*
X110328D01*
X111129Y105971D01*
X118771D01*
X120250Y107450D01*
X126050D01*
X127500Y106000D01*
X146500D01*
X148350Y104150D01*
X159522D01*
X174286Y118914D01*
G01X174100Y117100D02*
X160350Y103350D01*
X140550D01*
X138700Y105200D01*
X126900D01*
X125450Y106650D01*
X120623D01*
X119144Y105171D01*
X109929D01*
X109805Y105295D01*
X107032D01*
G01X106900Y103800D02*
X138500D01*
X140050Y102250D01*
X161150D01*
X173600Y114700D01*
G01X107008Y148700D02*
Y143700D01*
G01X109121Y148500D02*
X107208D01*
X107008Y148700D01*
G01X104600Y140679D02*
X106459D01*
X107008Y141228D01*
Y143700D01*
G01X109500Y156200D02*
X109100Y155800D01*
X107800D01*
X107008Y155008D01*
Y153700D01*
G01X109000Y158500D02*
X107208D01*
X107008Y158700D01*
G01X129500Y184900D02*
Y180884D01*
X120616Y172000D01*
X114599D01*
X109199Y166600D01*
X105900D01*
G01D02*
X107008Y165492D01*
Y163700D01*
G01X121200Y46900D02*
X125331D01*
X126600Y45631D01*
Y44006D01*
G01X119500Y174992D02*
Y184900D01*
G01X136100Y141500D02*
Y139308D01*
X136000Y139208D01*
G01X149553Y32037D02*
Y62100D01*
G01X145616Y32037D02*
Y60400D01*
G01X143647Y32037D02*
Y58200D01*
G01X180300Y156400D02*
X174500D01*
X171700Y153600D01*
X152651D01*
X141975Y142924D01*
X140725D01*
G01X140900Y144800D02*
X150800Y154700D01*
X161800D01*
X170300Y163200D01*
G01X159500Y95800D02*
Y93192D01*
G01X154500Y95900D02*
Y93192D01*
G01X168275Y29468D02*
X170600Y27143D01*
Y27092D01*
G01X168224Y32094D02*
Y29494D01*
X168250Y29468D01*
X168275D01*
G54D21*
X116100Y29382D03*
Y39618D03*
G54D12*
X38500Y5000D03*
Y15000D03*
Y25000D03*
Y35000D03*
Y55000D03*
Y45000D03*
Y65000D03*
Y75000D03*
Y85000D03*
Y105000D03*
Y95000D03*
Y115000D03*
Y125000D03*
Y135000D03*
Y145000D03*
Y165000D03*
Y155000D03*
Y175000D03*
Y185000D03*
Y195000D03*
X48500Y15000D03*
Y25000D03*
Y35000D03*
Y55000D03*
Y45000D03*
Y65000D03*
Y75000D03*
Y85000D03*
Y105000D03*
Y95000D03*
Y115000D03*
Y125000D03*
Y135000D03*
Y145000D03*
Y165000D03*
Y155000D03*
Y175000D03*
Y185000D03*
Y195000D03*
X59500Y194900D03*
X79500Y184900D03*
X69500D03*
X79500Y194900D03*
X69500D03*
X89500Y184900D03*
Y194900D03*
X99500Y184900D03*
Y194900D03*
X109500Y184900D03*
Y194900D03*
X119500Y184900D03*
Y194900D03*
X139500Y184900D03*
X129500D03*
X139500Y194900D03*
X129500D03*
X150300Y163200D03*
Y173200D03*
X149500Y184900D03*
Y194900D03*
X160300Y163200D03*
Y173200D03*
X179100Y26100D03*
Y36100D03*
Y46100D03*
X190300Y163200D03*
X180300D03*
X190300Y173200D03*
X180300D03*
G54D31*
G01X38500Y91148D02*
Y95000D01*
G01D02*
Y98852D01*
G01X34648Y95000D02*
X38500D01*
G01D02*
X42352D01*
G01X48500Y51148D02*
Y55000D01*
G01X44648D02*
X48500D01*
G01D02*
X52352D01*
G01X48500Y141148D02*
Y145000D01*
G01D02*
Y148852D01*
G01X44648Y145000D02*
X48500D01*
G01D02*
X52352D01*
G01X65000Y159427D02*
Y161192D01*
G01D02*
Y162957D01*
G01Y161192D02*
X67474D01*
G01X65648Y194900D02*
X69500D01*
G01X73772Y34100D02*
X79100D01*
G01X76500Y59127D02*
Y60892D01*
G01X74026D02*
X76500D01*
G01X73500Y159427D02*
Y161192D01*
G01D02*
Y162957D01*
G01Y161192D02*
X75974D01*
G01X76243Y163700D02*
X78008D01*
G01X69500Y191048D02*
Y194900D01*
G01D02*
Y198752D01*
G01Y194900D02*
X73352D01*
G01X75648D02*
X79500D01*
G01X83500Y16243D02*
Y18008D01*
G01X82592Y13600D02*
Y16074D01*
G01X80827Y13600D02*
X82592D01*
G01X83500Y18008D02*
Y19773D01*
G01Y18008D02*
X85974D01*
G01X79100Y34100D02*
X84428D01*
G01X86227Y88700D02*
X87992D01*
G01D02*
X89757D01*
G01X78008Y161226D02*
Y163700D01*
G01X79500Y191048D02*
Y194900D01*
G01D02*
Y198752D01*
G01Y194900D02*
X83352D01*
G01X89500Y191048D02*
Y194900D01*
G01D02*
Y198752D01*
G01X85648Y194900D02*
X89500D01*
G01D02*
X93352D01*
G01X99000Y16743D02*
Y18508D01*
G01D02*
Y20273D01*
G01X95772Y34100D02*
X101100D01*
G01D02*
X106428D01*
G01X90227Y60900D02*
X91992D01*
G01D02*
X93757D01*
G01X98600Y59027D02*
Y60792D01*
G01D02*
Y62557D01*
G01X93492Y161226D02*
Y163700D01*
G01D02*
X95257D01*
G01X99500Y191048D02*
Y194900D01*
G01D02*
Y198752D01*
G01X95648Y194900D02*
X99500D01*
G01D02*
X103352D01*
G01X105500Y16743D02*
Y18508D01*
G01X104592Y11126D02*
Y13600D01*
G01D02*
Y16074D01*
G01X102827Y13600D02*
X104592D01*
G01X105500Y18508D02*
Y20273D01*
G01X103026Y18508D02*
X105500D01*
G01X112327Y60800D02*
X114092D01*
G01D02*
X115857D01*
G01X111000Y90208D02*
Y91973D01*
G01X108526Y90208D02*
X111000D01*
G01D02*
X113474D01*
G01X113526D02*
X116000D01*
G01X106000D02*
Y91973D01*
G01Y90208D02*
X108474D01*
G01X112992Y153700D02*
Y156174D01*
G01X111227Y153700D02*
X112992D01*
G01Y156226D02*
Y158700D01*
G01D02*
Y161174D01*
G01X111227Y158700D02*
X112992D01*
G01Y161226D02*
Y163700D01*
G01D02*
Y166174D01*
G01X111227Y163700D02*
X112992D01*
G01X109500Y191048D02*
Y194900D01*
G01D02*
Y198752D01*
G01X105648Y194900D02*
X109500D01*
G01D02*
X113352D01*
G01X126600Y11908D02*
Y13673D01*
G01Y11908D02*
X129074D01*
G01X120681Y38100D02*
X126600D01*
G01D02*
X132519D01*
G01X125108Y57126D02*
Y59600D01*
G01D02*
Y62074D01*
G01Y59600D02*
X126873D01*
G01X126000Y90208D02*
Y91973D01*
G01X123526Y90208D02*
X126000D01*
G01D02*
X128474D01*
G01X116000D02*
Y91973D01*
G01Y90208D02*
X118474D01*
G01X121000D02*
Y91973D01*
G01X118526Y90208D02*
X121000D01*
G01D02*
X123474D01*
G01X125648Y194900D02*
X129500D01*
G01X119500Y191048D02*
Y194900D01*
G01D02*
Y198752D01*
G01X115648Y194900D02*
X119500D01*
G01D02*
X123352D01*
G01X131600Y11908D02*
Y13673D01*
G01X129126Y11908D02*
X131600D01*
G01D02*
X134074D01*
G01X136600Y19643D02*
Y21408D01*
G01D02*
X139074D01*
G01X136000Y90208D02*
Y91973D01*
G01X133526Y90208D02*
X136000D01*
G01D02*
X138474D01*
G01X131000D02*
Y91973D01*
G01X128526Y90208D02*
X131000D01*
G01D02*
X133474D01*
G01X129500Y191048D02*
Y194900D01*
G01D02*
Y198752D01*
G01Y194900D02*
X133352D01*
G01X135648D02*
X139500D01*
G01X147827Y13600D02*
X149592D01*
G01D02*
X151357D01*
G01X149500Y87208D02*
Y88973D01*
G01X147026Y87208D02*
X149500D01*
G01X139500Y191048D02*
Y194900D01*
G01D02*
Y198752D01*
G01Y194900D02*
X143352D01*
G01X149500Y191048D02*
Y194900D01*
G01D02*
Y198752D01*
G01X145648Y194900D02*
X149500D01*
G01D02*
X153352D01*
G01X160600Y27092D02*
X161291D01*
X162778Y28579D01*
Y28590D01*
X163475Y29287D01*
Y29988D01*
X163500Y30013D01*
Y32094D01*
G01X160600Y19343D02*
Y21108D01*
G01X158126D02*
X160600D01*
G01X155600Y19343D02*
Y21108D01*
G01D02*
Y22873D01*
G01X153126Y21108D02*
X155600D01*
G01D02*
X158074D01*
G01X157700Y29800D02*
X157732Y29768D01*
X159523D01*
X160020Y30265D01*
Y30347D01*
X160350Y30677D01*
Y32094D01*
G01X158776D02*
Y30876D01*
X157700Y29800D01*
G01X161539Y29603D02*
X161583D01*
Y29584D01*
X161600D01*
Y29600D01*
X161925Y29925D01*
Y32094D01*
G01Y43906D02*
Y45112D01*
X161900Y45137D01*
Y47096D01*
X162499Y47695D01*
X165307D01*
X167420Y49808D01*
X168100D01*
G01X158776Y43906D02*
Y47219D01*
G01D02*
X158100Y47895D01*
Y49808D01*
G01X158776Y47219D02*
X159489D01*
X160350Y46358D01*
Y43906D01*
G01X158100Y54027D02*
Y55792D01*
G01X155626D02*
X158100D01*
G01X155026Y150692D02*
X157500D01*
G01D02*
X159974D01*
G01X160026D02*
X162500D01*
G01D02*
X164974D01*
G01X166650Y32094D02*
Y30013D01*
X166675Y29988D01*
Y28662D01*
X166650Y28637D01*
Y28142D01*
X165600Y27092D01*
G01X165075Y32094D02*
Y29405D01*
G01X166854Y46433D02*
X166675Y46254D01*
Y43931D01*
X166650Y43906D01*
G01X163500D02*
Y46095D01*
G01X165075Y43906D02*
Y46075D01*
G01X168224Y43906D02*
Y44989D01*
X169516Y46281D01*
G01D02*
X170581D01*
X170600Y46300D01*
G01X168100Y54027D02*
Y55792D01*
G01D02*
Y57557D01*
G01X165026Y150692D02*
X167500D01*
G01D02*
X169974D01*
G01X179100Y42248D02*
Y46100D01*
G01D02*
Y49952D01*
G01Y46100D02*
X182952D01*
G54D13*
X48500Y5000D03*
X59500Y184900D03*
X140300Y163200D03*
Y173200D03*
X170300Y163200D03*
Y173200D03*
X179100Y16100D03*
G54D22*
X126600Y38100D03*
G54D14*
X65079Y149700D03*
X74921D03*
G54D23*
X146600Y28100D03*
G54D24*
X161966Y15100D03*
X170234D03*
G54D15*
X76608Y13600D03*
X71508Y93700D03*
X77492D03*
X78008Y163700D03*
X82592Y13600D03*
X86008Y60900D03*
X87992Y88700D03*
X82008D03*
X87992Y93700D03*
X82008D03*
X87508Y163700D03*
X83992D03*
X98608Y13600D03*
X91992Y60900D03*
X97508Y143700D03*
Y148700D03*
Y158700D03*
X93492Y163700D03*
X97508D03*
X104592Y13600D03*
X108108Y60800D03*
X114092D03*
X103492Y143700D03*
Y148700D03*
X107008Y143700D03*
X112992D03*
Y148700D03*
X107008D03*
X112992Y158700D03*
X107008D03*
X112992Y153700D03*
X107008D03*
X103492Y158700D03*
Y163700D03*
X112992D03*
X107008D03*
X125108Y59600D03*
X131092D03*
X143608Y13600D03*
X149592D03*
Y18600D03*
X143608D03*
G54D16*
X77820Y28391D03*
X75261D03*
X82939D03*
X80380D03*
X102380D03*
X99820D03*
X97261D03*
X104939D03*
X126600Y32194D03*
X124631D03*
X122663D03*
X130537D03*
X128569D03*
X149553Y24163D03*
X147584D03*
X145616D03*
X143647D03*
G54D25*
X163500Y38000D03*
G54D26*
X161925Y32094D03*
X160350D03*
X158776D03*
X168224D03*
X166650D03*
X165075D03*
X163500D03*
G54D17*
X79100Y34100D03*
X101100D03*
G54D18*
X75261Y39809D03*
X77820D03*
X80380D03*
X82939D03*
X97261D03*
X99820D03*
X102380D03*
X104939D03*
X122663Y44006D03*
X124631D03*
X126600D03*
X128569D03*
X130537D03*
X143647Y32037D03*
X145616D03*
X147584D03*
X149553D03*
G54D27*
X158776Y43906D03*
X160350D03*
X161925D03*
X163500D03*
X165075D03*
X166650D03*
X168224D03*
G54D28*
G01X14761Y81500D02*
Y75739D01*
X31000Y59500D01*
G01X14761Y81500D02*
Y95761D01*
G01X21700Y84608D02*
X17869D01*
X14761Y81500D01*
G01X15600Y137100D02*
X13100D01*
X8000Y132000D01*
Y109330D01*
G01D02*
X16085Y117415D01*
G01X21200Y152092D02*
Y155300D01*
G01X21500Y170992D02*
Y174500D01*
G01X65700Y97445D02*
X69445Y93700D01*
G01X62500Y107508D02*
Y105300D01*
X63300Y104500D01*
G01X65400Y110200D02*
Y111301D01*
G01D02*
X63209Y113492D01*
X62500D01*
G01Y117508D02*
Y119500D01*
G01X65000Y161192D02*
X61608D01*
G01X72000Y18008D02*
Y15945D01*
X74345Y13600D01*
X76608D01*
G01X75261Y28391D02*
X73670D01*
X73379Y28100D01*
X73300D01*
X72000Y26800D01*
Y23992D01*
G01X77820Y28391D02*
Y24812D01*
X77000Y23992D01*
G01Y18008D02*
X80200D01*
G01X76500Y45408D02*
Y43623D01*
X75261Y42384D01*
Y39809D01*
G01X77820D02*
Y41920D01*
X78800Y42900D01*
G01X76500Y51392D02*
Y49200D01*
G01Y54908D02*
X81500D01*
G01X78800Y57100D02*
X78692D01*
X76500Y54908D01*
G01Y60892D02*
Y62955D01*
G01D02*
X79545Y66000D01*
X90784D01*
X91992Y64792D01*
G01X69445Y93700D02*
X71508D01*
G01X73500Y161192D02*
X70728D01*
G01D02*
X69100Y159564D01*
G01X69000Y169008D02*
X72908D01*
G01X78008Y163700D02*
X80300D01*
G01X82592Y13600D02*
X85000D01*
G01X83500Y23992D02*
X82939Y24553D01*
Y28391D01*
G01X83500Y23992D02*
X87092D01*
G01X80200Y18008D02*
X83500D01*
G01X89000Y45979D02*
X89100Y45879D01*
Y42800D01*
X86109Y39809D01*
X82939D01*
G01X81500Y45408D02*
X81600Y45308D01*
Y42800D01*
X80380Y41580D01*
Y39809D01*
G01X89000Y55821D02*
Y53000D01*
G01X81500Y51392D02*
X84192D01*
G01X86008Y60900D02*
X87700D01*
G01X81500Y60892D02*
Y59100D01*
G01X82008Y88700D02*
Y87991D01*
X78417Y84400D01*
G01X82008Y93700D02*
Y88700D01*
G01X87992Y93700D02*
Y88700D01*
G01X88900Y84200D02*
X87992Y85108D01*
G01D02*
Y88700D01*
G01X89000Y169008D02*
X92392D01*
G01X79000D02*
X82692D01*
G01X98608Y13600D02*
X96545D01*
X96445Y13700D01*
X96200D01*
X94000Y15900D01*
Y18508D01*
G01X99820Y28391D02*
Y25312D01*
X99000Y24492D01*
G01X102380Y28391D02*
Y25520D01*
G01X94000Y24492D02*
Y26721D01*
X95670Y28391D01*
X97261D01*
G01X99000Y18508D02*
X101900D01*
G01X99820Y39809D02*
Y42020D01*
X100500Y42700D01*
G01X102380Y39809D02*
Y44088D01*
X103600Y45308D01*
G01X98600D02*
Y43608D01*
X97261Y42269D01*
Y39809D01*
G01X98600Y48900D02*
Y51292D01*
G01X100500Y56900D02*
Y56708D01*
X98600Y54808D01*
G01X103600D02*
X98600D01*
G01Y60792D02*
X97891D01*
X96120Y62563D01*
G01X91992Y60900D02*
Y64792D01*
G01X96800Y88908D02*
Y86000D01*
G01X97508Y148700D02*
Y153308D01*
X99400Y155200D01*
G01X97508Y148700D02*
Y143700D01*
G01X103492Y158700D02*
X101500D01*
G01X103492Y163700D02*
X101400D01*
G01X93492D02*
X91100D01*
G01X96000Y169008D02*
X99592D01*
G01X118800Y12379D02*
X112279D01*
G01X104592Y13600D02*
X107300D01*
G01X105500Y24492D02*
X108708D01*
G01X105500D02*
X104939Y25053D01*
Y28391D01*
G01X105500Y18508D02*
X108292D01*
G01X104939Y39809D02*
Y40793D01*
X106238Y42092D01*
Y42978D01*
X109139Y45879D01*
X111600D01*
G01X103600Y51292D02*
X106500D01*
G01X103600Y60792D02*
Y64000D01*
G01X108108Y60800D02*
Y64392D01*
G01X111600Y55721D02*
X117521D01*
G01X114092Y60800D02*
Y64492D01*
G01X111000Y90208D02*
Y86000D01*
G01X106000Y90208D02*
Y85900D01*
G01X111000Y96192D02*
X116000D01*
G01X106000D02*
X111000D01*
G01X110679Y147200D02*
X110729Y147150D01*
Y145963D01*
X112992Y143700D01*
G01X103492Y148700D02*
Y143700D01*
G01X112992Y148700D02*
Y153700D01*
G01X103492Y148700D02*
Y154408D01*
G01X112992Y158700D02*
X113900D01*
X115700Y160500D01*
G01X112992Y153700D02*
X114300D01*
X115600Y155000D01*
G01X103492Y154408D02*
X102900Y155000D01*
G01X112992Y163700D02*
X116000D01*
G01X126600Y17892D02*
Y15779D01*
G01Y11908D02*
Y9500D01*
G01X118800Y25091D02*
X123328Y29619D01*
X123594D01*
X124631Y30656D01*
Y32194D01*
G01X118800Y22221D02*
Y25091D01*
G01X116100Y29382D02*
Y24921D01*
X118800Y22221D01*
G01Y25091D02*
Y27347D01*
X122663Y31210D01*
Y32194D01*
G01X126600Y29600D02*
Y27392D01*
G01Y21408D02*
Y23300D01*
G01X116100Y39618D02*
Y40405D01*
X118495Y42800D01*
G01X126600Y32194D02*
Y29600D01*
G01Y38100D02*
X124631Y40069D01*
G01D02*
X122663Y42037D01*
Y44006D01*
G01X124631Y40069D02*
Y44006D01*
G01X128569D02*
Y46139D01*
X125600Y49108D01*
G01X135300Y40592D02*
Y50400D01*
X133600Y52100D01*
X126529D01*
X125600Y51171D01*
Y49108D01*
G01Y55092D02*
X122192D01*
G01X125108Y59600D02*
X122300D01*
G01X126000Y90208D02*
Y86200D01*
G01X116000Y90208D02*
Y85900D01*
G01X121000Y90208D02*
Y86100D01*
G01Y96192D02*
Y94300D01*
G01X126000Y96192D02*
Y94500D01*
G01X117400Y94079D02*
Y94200D01*
X116000Y95600D01*
Y96192D01*
G01X119500Y169008D02*
Y166800D01*
G01X131600Y16000D02*
Y17892D01*
G01Y11908D02*
Y9600D01*
G01X128569Y32194D02*
Y30297D01*
X129733Y29133D01*
G01D02*
X131474Y27392D01*
X131600D01*
G01X136600D02*
Y29800D01*
X134206Y32194D01*
X130537D01*
G01X131600Y21408D02*
Y21600D01*
X134100Y24100D01*
G01X136600Y21408D02*
Y22200D01*
X138300Y23900D01*
G01X135300Y34608D02*
Y36600D01*
G01X130600Y49108D02*
Y46644D01*
X130537Y46581D01*
Y44006D01*
G01X131092Y59600D02*
Y55584D01*
X130600Y55092D01*
G01X136000Y90208D02*
Y86500D01*
G01X131000Y90208D02*
Y86200D01*
G01Y96192D02*
Y94500D01*
G01X136000Y96192D02*
Y94500D01*
G01Y145192D02*
Y147800D01*
G01X143608Y13600D02*
Y9908D01*
G01X149592Y13600D02*
Y10008D01*
G01X143608Y18600D02*
X140600D01*
G01X143647Y24163D02*
X141563D01*
G01X149553D02*
X151437D01*
G01X147584D02*
Y20608D01*
G01D02*
X147596D01*
X149592Y18612D01*
Y18600D01*
G01X147584Y20608D02*
X146596D01*
X145616Y21588D01*
Y24163D01*
G01X140400Y34608D02*
Y36600D01*
G01X147584Y32037D02*
Y35084D01*
G01X140400Y40592D02*
Y46900D01*
G01X149500Y87208D02*
Y84300D01*
G01Y93192D02*
X145692D01*
G01X161966Y15100D02*
X164443D01*
X165600Y16257D01*
Y21108D01*
G01X153500Y33800D02*
Y31500D01*
X155600Y29400D01*
Y27092D01*
G01X160600Y21108D02*
Y23100D01*
G01X155600Y21108D02*
X153496Y19004D01*
G01X158100Y49808D02*
X163100D01*
G01X158100Y55792D02*
Y58200D01*
G01X154500Y87208D02*
Y84300D01*
G01X159500Y87208D02*
Y84500D01*
G01X162500Y144708D02*
Y146500D01*
G01X157500Y144708D02*
Y146500D01*
G01Y150692D02*
Y148579D01*
G01X162500Y150692D02*
Y148579D01*
G01X170234Y15100D02*
Y20742D01*
X170600Y21108D01*
G01X173700Y45900D02*
Y23499D01*
X171309Y21108D01*
X170600D01*
G01X168100Y55792D02*
X171792D01*
G01X167500Y144708D02*
Y146400D01*
G01Y150692D02*
Y148579D01*
G54D19*
X89000Y45979D03*
Y55821D03*
X111600Y45879D03*
Y55721D03*
X118800Y12379D03*
Y22221D03*
G54D29*
G01X90500Y10050D02*
X28950D01*
X8000Y31000D01*
Y109330D01*
G01X48500Y5000D02*
X85450D01*
X90500Y10050D01*
G01X179100Y16100D02*
X190500Y27500D01*
Y56000D01*
X184500Y62000D01*
X166000D01*
X163100Y59100D01*
Y55792D01*
M02*
