G04 ================== begin FILE IDENTIFICATION RECORD ==================*
G04 Layout Name:  E:/material/glass/pcb/test-stm32f429/pcb/f429.brd*
G04 Film Name:    TOP*
G04 File Format:  Gerber RS274X*
G04 File Origin:  Cadence Allegro 16.6-S049*
G04 Origin Date:  Wed Oct 14 16:51:38 2015*
G04 *
G04 Layer:  ETCH/TOP*
G04 Layer:  PIN/TOP*
G04 Layer:  VIA CLASS/TOP*
G04 *
G04 Offset:    (0.00 0.00)*
G04 Mirror:    No*
G04 Mode:      Positive*
G04 Rotation:  0*
G04 FullContactRelief:  No*
G04 UndefLineWidth:     0.00*
G04 ================== end FILE IDENTIFICATION RECORD ====================*
%FSLAX25Y25*MOIN*%
%IR0*IPPOS*OFA0.00000B0.00000*MIA0B0*SFA1.00000B1.00000*%
%ADD10C,.011*%
%AMMACRO22*
4,1,5,.04823,.03445,
.05217,.03051,
.05217,-.03445,
-.05217,-.03445,
-.05217,.03445,
.04823,.03445,
0.0*
%
%ADD22MACRO22*%
%AMMACRO27*
4,1,21,.00394,.01476,
.00394,-.01083,
.00388,-.011514,
.003701,-.012177,
.003411,-.0128,
.003016,-.013362,
.00253,-.013847,
.001967,-.014241,
.001345,-.01453,
.000681,-.014707,
-.000003,-.014767,
-.000687,-.014706,
-.001351,-.014528,
-.001973,-.014237,
-.002535,-.013843,
-.00302,-.013357,
-.003414,-.012794,
-.003703,-.012171,
-.003881,-.011508,
-.00394,-.01083,
-.00394,.01476,
.00394,.01476,
0.0*
%
%ADD27MACRO27*%
%AMMACRO18*
4,1,22,.00591,.01575,
.00591,-.00984,
.005821,-.010866,
.005554,-.011861,
.005119,-.012795,
.004529,-.013639,
.003801,-.014368,
.002957,-.014959,
.002024,-.015395,
.001029,-.015662,
.000003,-.015753,
-.001024,-.015663,
-.002019,-.015397,
-.002953,-.014962,
-.003797,-.014371,
-.004526,-.013643,
-.005117,-.0128,
-.005553,-.011866,
-.00582,-.010871,
-.00591,-.009845,
-.00591,-.00984,
-.00591,.01575,
.00591,.01575,
0.0*
%
%ADD18MACRO18*%
%ADD12C,.06299*%
%ADD13R,.06299X.06299*%
%AMMACRO23*
4,1,5,-.02362,-.01575,
-.02756,-.01181,
-.02756,.01575,
.02756,.01575,
.02756,-.01575,
-.02362,-.01575,
0.0*
%
%ADD23MACRO23*%
%AMMACRO17*
4,1,35,-.04232,-.0315,
-.04626,-.02756,
-.04626,.02756,
-.0462,.028244,
-.046022,.028908,
-.045732,.02953,
-.045338,.030093,
-.044853,.030578,
-.04429,.030972,
-.043668,.031262,
-.043005,.03144,
-.04232,.0315,
-.04232,.0315,
.04232,.0315,
.043004,.03144,
.043668,.031262,
.04429,.030972,
.044853,.030578,
.045338,.030093,
.045732,.02953,
.046022,.028908,
.0462,.028245,
.04626,.02756,
.04626,.02756,
.04626,-.02756,
.0462,-.028244,
.046022,-.028908,
.045732,-.02953,
.045338,-.030093,
.044853,-.030578,
.04429,-.030972,
.043668,-.031262,
.043005,-.03144,
.04232,-.0315,
.04232,-.0315,
-.04232,-.0315,
0.0*
%
%ADD17MACRO17*%
%AMMACRO25*
4,1,5,-.04331,-.03543,
-.04724,-.0315,
-.04724,.03543,
.04724,.03543,
.04724,-.03543,
-.04331,-.03543,
0.0*
%
%ADD25MACRO25*%
%ADD20R,.05512X.04331*%
%ADD15R,.02126X.03543*%
%ADD11R,.03543X.02126*%
%AMMACRO26*
4,1,21,-.00394,-.01476,
-.00394,.01083,
-.00388,.011514,
-.003701,.012177,
-.003411,.0128,
-.003016,.013362,
-.00253,.013847,
-.001967,.014241,
-.001345,.01453,
-.000681,.014707,
.000003,.014767,
.000687,.014706,
.001351,.014528,
.001973,.014237,
.002535,.013843,
.00302,.013357,
.003414,.012794,
.003703,.012171,
.003881,.011508,
.00394,.01083,
.00394,-.01476,
-.00394,-.01476,
0.0*
%
%ADD26MACRO26*%
%ADD24R,.02953X.05512*%
%AMMACRO16*
4,1,22,-.00591,-.01575,
-.00591,.00984,
-.005821,.010866,
-.005554,.011861,
-.005119,.012795,
-.004529,.013639,
-.003801,.014368,
-.002957,.014959,
-.002024,.015395,
-.001029,.015662,
-.000003,.015753,
.001024,.015663,
.002019,.015397,
.002953,.014962,
.003797,.014371,
.004526,.013643,
.005117,.0128,
.005553,.011866,
.00582,.010871,
.00591,.009845,
.00591,.00984,
.00591,-.01575,
-.00591,-.01575,
0.0*
%
%ADD16MACRO16*%
%ADD19R,.08661X.0374*%
%ADD21R,.01969X.03543*%
%ADD14R,.03543X.06496*%
%ADD28C,.01*%
%ADD29C,.02*%
%ADD30C,.004*%
%ADD31C,.007*%
%ADD35C,.02404*%
%ADD33C,.06302*%
%ADD36C,.02704*%
%ADD32C,.07702*%
%ADD39C,.07902*%
%ADD38R,.02128X.03546*%
%ADD37R,.03546X.02128*%
%ADD34R,.07702X.07702*%
G75*
%LPD*%
G75*
G36*
G01X4Y4D02*
Y200096D01*
X195996D01*
Y4D01*
X4D01*
G37*
%LPC*%
G75*
G36*
G01X133073Y47344D02*
X131802D01*
Y46282D01*
X131830D01*
Y43021D01*
G02X131208Y41917I-1293J1D01*
G01X131112Y41859D01*
Y41546D01*
X131424D01*
X131818Y41152D01*
Y34653D01*
G03X131535Y33999I26J-399D01*
G02X131778Y33540I-997J-822D01*
G01X131820Y33396D01*
X132827D01*
Y36372D01*
X133557D01*
G03X133955Y36733I0J400D01*
G02X136645I1345J-133D01*
G03X137043Y36372I398J39D01*
G01X138657D01*
G03X139055Y36733I0J400D01*
G02X141745I1345J-133D01*
G03X142143Y36372I398J39D01*
G01X142746D01*
Y57192D01*
G02X143864Y59534I901J1008D01*
G03X144314Y60037I65J395D01*
G02X146518Y59392I1303J363D01*
G01Y34314D01*
X146908D01*
Y33614D01*
X148260D01*
Y34314D01*
X148652D01*
Y61092D01*
G02X150454I901J1008D01*
G01Y34314D01*
X150846D01*
Y31052D01*
G02X150163Y29913I-1293J1D01*
G01X150058Y29857D01*
Y25824D01*
X149986D01*
Y25557D01*
X150027Y25503D01*
G02X150146Y25148I-474J-356D01*
G01Y22586D01*
X148876D01*
Y21886D01*
X148786D01*
Y21118D01*
X148830Y21073D01*
X151356D01*
Y16127D01*
X147828D01*
Y18677D01*
X147098Y19406D01*
X146098D01*
X146055Y19450D01*
G03X145372Y19167I-283J-283D01*
G01Y11127D01*
X144810D01*
Y10530D01*
X144829Y10489D01*
G02X142387I-1221J-581D01*
G01X142406Y10530D01*
Y11127D01*
X141844D01*
Y17398D01*
X141222D01*
X141181Y17379D01*
G02Y19821I-581J1221D01*
G01X141222Y19802D01*
X141844D01*
Y21073D01*
X144414D01*
Y21886D01*
X144324D01*
Y22586D01*
X143054D01*
Y25148D01*
G02X143369Y25671I593J-1D01*
G03X143464Y26307I-188J353D01*
G01X143142Y26628D01*
Y29857D01*
X143037Y29913D01*
G02X142354Y31052I610J1140D01*
G01Y32844D01*
X136221D01*
G03X135938Y32161I0J-400D01*
G01X137802Y30298D01*
Y29156D01*
X139073D01*
Y25628D01*
X135441D01*
G03X135135Y24970I0J-400D01*
G02X134553Y22826I-1035J-870D01*
G01X134510Y22811D01*
X134073Y22374D01*
Y16128D01*
X132959D01*
X132951Y15937D01*
G02X130249I-1351J63D01*
G01X130241Y16128D01*
X128351D01*
G03X127951Y15739I0J-400D01*
G02X125249I-1351J40D01*
G03X124849Y16128I-400J-11D01*
G01X124127D01*
Y19650D01*
X113768D01*
Y24792D01*
X114898D01*
Y26909D01*
X114414D01*
Y31855D01*
X117786D01*
Y28997D01*
G03X118469Y28715I400J1D01*
G01X121370Y31617D01*
Y33179D01*
G02X121665Y33999I1293J-2D01*
G03X121382Y34653I-309J255D01*
G01Y41546D01*
X125294D01*
G03X125602Y42201I-1J400D01*
G02X125484Y42370I997J822D01*
G03X124934Y42512I-345J-202D01*
G02X124038Y43021I-303J509D01*
G01Y45582D01*
X124891D01*
G03X125032Y45924I0J200D01*
G01X124958Y45998D01*
X122208D01*
G02X122138Y45926I-1004J906D01*
G03X122277Y45582I139J-144D01*
G01X123256D01*
Y43021D01*
G02X122070I-593J1D01*
G01Y45213D01*
G03X121563Y45598I-400J0D01*
G02X122208Y47802I-363J1303D01*
G01X123127D01*
Y50872D01*
X124398D01*
Y51669D01*
X126031Y53302D01*
X128127D01*
Y56856D01*
X129328D01*
Y62073D01*
X132856D01*
Y56856D01*
X133073D01*
Y53302D01*
X134098D01*
X136502Y50898D01*
Y42356D01*
X137773D01*
Y38828D01*
X132827D01*
Y42356D01*
X134098D01*
Y49902D01*
X133756Y50245D01*
G03X133073Y49963I-283J-283D01*
G01Y47344D01*
G37*
G36*
G01X175174Y28474D02*
G03X175905Y28250I400J0D01*
G02Y23950I3195J-2150D01*
G03X175174Y23726I-331J-224D01*
G01Y21773D01*
X173473Y20073D01*
Y18244D01*
X171836D01*
Y17458D01*
X172812D01*
Y10542D01*
X168456D01*
Y17458D01*
X169432D01*
Y18244D01*
X167202D01*
Y14659D01*
X165341Y12798D01*
X164544D01*
Y10542D01*
X160188D01*
Y17458D01*
X164798D01*
Y18244D01*
X163527D01*
Y21772D01*
X171774D01*
X172770Y22769D01*
Y24228D01*
X153527D01*
Y27756D01*
X154798D01*
Y28407D01*
X152298Y30907D01*
Y33178D01*
X152279Y33219D01*
G02X154721I1221J581D01*
G01X154702Y33178D01*
Y31903D01*
X156037Y30567D01*
G03X156640Y30610I283J283D01*
G02X157579Y31144I1082J-810D01*
G01X157680Y31246D01*
Y33177D01*
G02X158045Y33992I1096J-1D01*
G03X158074Y34559I-267J298D01*
G01Y41982D01*
G02X157680Y42823I702J842D01*
G01Y46084D01*
X157724D01*
Y46571D01*
X157298Y46997D01*
Y48744D01*
X156027D01*
Y52272D01*
X170973D01*
Y48744D01*
X169535D01*
G03X169185Y48151I1J-400D01*
G02X168206Y46164I-1185J-651D01*
G01X168141Y46154D01*
X167826Y45839D01*
Y45384D01*
X168620D01*
Y42823D01*
G02X168609Y42734I-396J4D01*
G03X168926Y42251I390J-90D01*
G01Y34018D01*
G02X169319Y33193I-702J-841D01*
G01X169322Y32996D01*
X169691D01*
X169785Y32902D01*
X169989D01*
X170048Y32960D01*
G02X171902Y30992I952J-960D01*
G01Y27756D01*
X172770D01*
Y43180D01*
X172498Y43452D01*
Y44878D01*
X172479Y44919D01*
G02X174921I1221J581D01*
G01X174902Y44878D01*
Y44448D01*
X175174Y44176D01*
Y38474D01*
G03X175905Y38250I400J0D01*
G02Y33950I3195J-2150D01*
G03X175174Y33726I-331J-224D01*
G01Y28474D01*
G37*
G36*
G01X147027Y94956D02*
X152754D01*
G03X153153Y95389I0J400D01*
G02X155847I1347J111D01*
G03X156246Y94956I399J-33D01*
G01X156927D01*
Y95056D01*
X157782D01*
G03X158174Y95535I0J400D01*
G02X160826I1326J265D01*
G03X161218Y95056I392J-79D01*
G01X162073D01*
Y91328D01*
X156927D01*
Y91428D01*
X147027D01*
Y91990D01*
X146314D01*
X146273Y91971D01*
G02Y94413I-581J1221D01*
G01X146314Y94394D01*
X147027D01*
Y94956D01*
G37*
G36*
G01X77964Y85674D02*
X78007Y85689D01*
X78583Y86265D01*
G03X78306Y86948I-283J283D01*
G02X79581Y87806I17J1352D01*
G01X79533Y87684D01*
X79768Y87450D01*
X80244Y87926D01*
Y96173D01*
X83772D01*
Y86227D01*
X81943D01*
X79706Y83990D01*
X79691Y83947D01*
G02X77964Y85674I-1274J453D01*
G37*
G36*
G01X153279Y84881D02*
X153298Y84922D01*
Y85444D01*
X152027D01*
Y88972D01*
X161973D01*
Y85444D01*
X160702D01*
Y85122D01*
X160721Y85081D01*
G02X158279I-1221J-581D01*
G01X158298Y85122D01*
Y85444D01*
X155702D01*
Y84922D01*
X155721Y84881D01*
G02X153279I-1221J-581D01*
G37*
G36*
G01X104821Y63419D02*
X104802Y63378D01*
Y62556D01*
X106344D01*
Y63273D01*
X106906D01*
Y63770D01*
X106887Y63811D01*
G02X109329I1221J581D01*
G01X109310Y63770D01*
Y63273D01*
X109872D01*
Y58292D01*
X116632D01*
Y56922D01*
X116899D01*
X116940Y56942D01*
G02Y54500I581J-1221D01*
G01X116899Y54520D01*
X116632D01*
Y53150D01*
X106568D01*
Y58327D01*
X106344D01*
Y59028D01*
X101127D01*
Y62556D01*
X102398D01*
Y63378D01*
X102379Y63419D01*
G02X104821I1221J581D01*
G37*
G36*
G01X77852Y49221D02*
G02X75148I-1352J-21D01*
G03X74748Y49628I-400J7D01*
G01X74027D01*
Y56672D01*
X76565D01*
X77583Y57691D01*
X77598Y57718D01*
G02X80152Y57079I1202J-618D01*
G03X80552Y56672I400J-7D01*
G01X83968D01*
Y58392D01*
X84244D01*
Y59128D01*
X82864D01*
X82844Y58950D01*
G02X80156I-1344J150D01*
G01X80136Y59128D01*
X79027D01*
Y62656D01*
X84244D01*
Y63373D01*
X87772D01*
Y62260D01*
X87937Y62231D01*
G02Y59569I-237J-1331D01*
G01X87772Y59540D01*
Y58392D01*
X94032D01*
Y53250D01*
X90745D01*
G03X90347Y52884I1J-400D01*
G02X87653I-1347J116D01*
G03X87255Y53250I-399J-34D01*
G01X83973D01*
Y53144D01*
X78973D01*
Y49628D01*
X78252D01*
G03X77852Y49221I0J-400D01*
G37*
G36*
G01X107973Y22728D02*
X103027D01*
Y23786D01*
G03X102571Y24182I-400J0D01*
G02X101989Y24226I-191J1338D01*
G03X101473Y23843I-116J-383D01*
G01Y22728D01*
X91527D01*
Y26256D01*
X92798D01*
Y27219D01*
X95172Y29592D01*
X95978D01*
X96020Y29737D01*
G02X96612Y30493I1241J-362D01*
G03X96694Y31122I-201J346D01*
G01X96472Y31343D01*
Y36856D01*
G02X96591Y37138I396J-1D01*
G03X96536Y37755I-280J286D01*
G02X95968Y38824I725J1070D01*
G01Y42086D01*
X96060D01*
Y42767D01*
X96495Y43202D01*
G03X96354Y43544I-141J142D01*
G01X96127D01*
Y47072D01*
X106073D01*
Y44995D01*
G03X106414Y44854I200J0D01*
G01X106568Y45007D01*
Y48450D01*
X116632D01*
Y43308D01*
X108267D01*
X107440Y42480D01*
Y41594D01*
X106232Y40386D01*
Y38824D01*
G02X105664Y37755I-1293J1D01*
G03X105609Y37138I225J-331D01*
G02X105728Y36856I-277J-283D01*
G01Y31344D01*
G02X105609Y31062I-396J1D01*
G03X105664Y30445I280J-286D01*
G02X106232Y29376I-725J-1070D01*
G01Y26256D01*
X107973D01*
Y26211D01*
G03X108449Y25819I400J1D01*
G02Y23165I259J-1327D01*
G03X107973Y22773I-76J-393D01*
G01Y22728D01*
G37*
G36*
G01X74612Y30493D02*
G03X74694Y31122I-201J346D01*
G01X74472Y31343D01*
Y36856D01*
G02X74591Y37138I396J-1D01*
G03X74536Y37755I-280J286D01*
G02X73968Y38824I725J1070D01*
G01Y42086D01*
X74060D01*
Y42882D01*
X74139Y42961D01*
G03X74027Y43605I-283J282D01*
G01Y47172D01*
X83968D01*
Y48550D01*
X94032D01*
Y43408D01*
X90302D01*
Y42302D01*
X86607Y38608D01*
X84222D01*
X84180Y38463D01*
G02X83664Y37755I-1241J362D01*
G03X83609Y37138I225J-331D01*
G02X83728Y36856I-277J-283D01*
G01Y31344D01*
G02X83609Y31062I-396J1D01*
G03X83664Y30445I280J-286D01*
G02X84232Y29376I-725J-1070D01*
G01Y25756D01*
X85973D01*
Y25194D01*
X86470D01*
X86511Y25213D01*
G02Y22771I581J-1221D01*
G01X86470Y22790D01*
X85973D01*
Y22228D01*
X81027D01*
Y24253D01*
G03X80598Y24652I-400J0D01*
G02X80016Y24738I-98J1348D01*
G03X79473Y24365I-143J-374D01*
G01Y22228D01*
X69527D01*
Y25756D01*
X70798D01*
Y27298D01*
X72802Y29302D01*
X72881D01*
X73172Y29592D01*
X73978D01*
X74020Y29737D01*
G02X74612Y30493I1241J-362D01*
G37*
G36*
G01X112860Y13600D02*
X112901Y13580D01*
X113768D01*
Y14950D01*
X123832D01*
Y9808D01*
X113768D01*
Y11178D01*
X112901D01*
X112860Y11158D01*
G02Y13600I-581J1221D01*
G37*
G36*
G01X96844Y15721D02*
Y16073D01*
X100372D01*
Y11127D01*
X96844D01*
Y12398D01*
X96047D01*
X95947Y12498D01*
X95702D01*
X92798Y15402D01*
Y16744D01*
X91527D01*
Y20272D01*
X96473D01*
Y16744D01*
X95202D01*
Y16398D01*
X96161Y15438D01*
G03X96844Y15721I283J283D01*
G37*
G36*
G01X175249Y12249D02*
Y19951D01*
X180545D01*
X188798Y28205D01*
Y55295D01*
X183795Y60298D01*
X166705D01*
X165202Y58795D01*
Y58256D01*
X165973D01*
Y54728D01*
X161027D01*
Y58256D01*
X161798D01*
Y60205D01*
X165295Y63702D01*
X185205D01*
X192202Y56705D01*
Y26795D01*
X182951Y17545D01*
Y12249D01*
X175249D01*
G37*
G36*
G01X118948Y41526D02*
X118905Y41511D01*
X117786Y40392D01*
Y37145D01*
X114414D01*
Y42091D01*
X116087D01*
X117206Y43210D01*
X117221Y43253D01*
G02X118948Y41526I1274J-453D01*
G37*
G36*
G01X99941Y49076D02*
G02X97259I-1341J-176D01*
G03X96863Y49528I-397J52D01*
G01X96127D01*
Y56572D01*
X98665D01*
X99156Y57064D01*
X99167Y57126D01*
G02X101851Y56956I1333J-226D01*
G03X102250Y56572I400J16D01*
G01X106073D01*
Y53044D01*
X101073D01*
Y49528D01*
X100337D01*
G03X99941Y49076I1J-400D01*
G37*
G36*
G01X29726Y59047D02*
X29711Y59090D01*
X13560Y75241D01*
Y95139D01*
X13540Y95180D01*
G02X15982I1221J581D01*
G01X15962Y95139D01*
Y85366D01*
G03X16645Y85083I400J0D01*
G01X17371Y85810D01*
X19227D01*
Y86372D01*
X24173D01*
Y82844D01*
X19227D01*
Y83406D01*
X18367D01*
X15962Y81002D01*
Y76237D01*
X31410Y60789D01*
X31453Y60774D01*
G02X29726Y59047I-453J-1274D01*
G37*
G36*
G01X89056Y86927D02*
X87619D01*
G03X87238Y86407I1J-400D01*
G02X86395Y87276I-1289J-407D01*
G03X86928Y87653I133J378D01*
G01Y90473D01*
X89056D01*
Y86927D01*
G37*
G36*
G01X28984Y89690D02*
X24173D01*
Y88828D01*
X19227D01*
Y92356D01*
X24173D01*
Y91494D01*
X28984D01*
G02Y89690I1008J-902D01*
G37*
G36*
G01X26621Y102523D02*
G03X26620Y102777I-155J126D01*
G02X26583Y104446I1045J858D01*
G03X26563Y104708I-160J120D01*
G02X26494Y106569I945J967D01*
G02X28414Y106678I906J1003D01*
G02X28590Y104864I-906J-1003D01*
G03X28610Y104602I160J-120D01*
G02X28711Y102779I-945J-967D01*
G03X28712Y102525I155J-126D01*
G02X26621Y102523I-1045J-858D01*
G37*
G36*
G01X138662Y121329D02*
G03X138932Y121344I127J155D01*
G02Y119456I968J-944D01*
G03X138662Y119471I-143J-140D01*
G02Y121329I-762J929D01*
G37*
G36*
G01X20040Y143952D02*
X20098Y144011D01*
Y144344D01*
X18727D01*
Y147872D01*
X23673D01*
Y144344D01*
X21902D01*
Y144011D01*
X21960Y143952D01*
G02X20040I-960J-952D01*
G37*
G36*
G01X137695Y146956D02*
X138473D01*
Y143428D01*
X133527D01*
Y146956D01*
X134305D01*
G03X134692Y147458I0J400D01*
G02X137308I1308J342D01*
G03X137695Y146956I387J-102D01*
G37*
G36*
G01X22421Y154719D02*
X22402Y154678D01*
Y153856D01*
X23673D01*
Y150328D01*
X18727D01*
Y153856D01*
X19998D01*
Y154678D01*
X19979Y154719D01*
G02X22421I1221J581D01*
G37*
G36*
G01X24984Y164106D02*
X23973D01*
Y163244D01*
X19027D01*
Y166772D01*
X23973D01*
Y165910D01*
X24984D01*
G02Y164106I1008J-902D01*
G37*
G36*
G01X22721Y173919D02*
X22702Y173878D01*
Y172756D01*
X23973D01*
Y169228D01*
X19027D01*
Y172756D01*
X20298D01*
Y173878D01*
X20279Y173919D01*
G02X22721I1221J581D01*
G37*
G36*
G01X93030Y68495D02*
Y68577D01*
X80948Y80659D01*
Y81492D01*
G02X82844Y81584I901J1008D01*
G01X82752Y81484D01*
Y81406D01*
X94305Y69852D01*
X94387D01*
G02X93030Y68495I-5J-1352D01*
G37*
G36*
G01X45002Y110085D02*
X41913Y106996D01*
X41983Y106865D01*
G02X40365Y108483I-3483J-1865D01*
G01X40496Y108413D01*
X41662Y109579D01*
G03X41521Y110236I-283J283D01*
G02X40695Y111147I479J1264D01*
G03X40142Y111407I-386J-104D01*
G02X41087Y117987I-1642J3594D01*
G03X41748Y118289I261J302D01*
G01Y121711D01*
G03X41087Y122013I-400J0D01*
G02Y127987I-2587J2987D01*
G03X41748Y128289I261J302D01*
G01Y131711D01*
G03X41087Y132013I-400J0D01*
G02X36947Y138633I-2586J2987D01*
G03X37073Y139284I-157J368D01*
G01X33098Y143258D01*
Y169792D01*
G02X34902I902J1008D01*
G01Y167800D01*
G03X35602Y167537I400J1D01*
G02Y162463I2898J-2537D01*
G03X34902Y162200I-300J-264D01*
G01Y157950D01*
G03X35595Y157678I400J0D01*
G02Y152322I2905J-2678D01*
G03X34902Y152050I-293J-272D01*
G01Y147950D01*
G03X35595Y147678I400J0D01*
G02X40365Y148483I2905J-2678D01*
G01X40496Y148413D01*
X43635Y151552D01*
X45396D01*
G03X45681Y152232I0J400D01*
G02X51223Y157863I2820J2768D01*
G03X51898Y158153I275J290D01*
G01Y161847D01*
G03X51223Y162137I-400J0D01*
G02X47038Y168671I-2723J2863D01*
G03X47173Y169325I-148J371D01*
G01X43498Y173000D01*
Y178727D01*
X40512Y181713D01*
X40380Y181639D01*
G02X41861Y183120I-1880J3361D01*
G01X41787Y182988D01*
X45302Y179473D01*
Y178200D01*
G03X45965Y177899I400J0D01*
G02X51307Y177636I2535J-2899D01*
G03X51998Y177910I291J274D01*
G01Y182090D01*
G03X51307Y182364I-400J0D01*
G02X46602Y188351I-2807J2636D01*
G03X46404Y189098I-198J347D01*
G01X43127D01*
X40512Y191713D01*
X40380Y191639D01*
G02X41861Y193120I-1880J3361D01*
G01X41787Y192988D01*
X43873Y190902D01*
X46404D01*
G03X46602Y191649I0J400D01*
G02X49888Y191408I1898J3351D01*
G03X49750Y190752I145J-373D01*
G01X53802Y186700D01*
Y179168D01*
G03X54509Y178913I400J1D01*
G02X54603Y179015I1040J-864D01*
G03X54615Y179574I-280J286D01*
G02X55468Y181846I985J926D01*
G03X55649Y182045I-19J199D01*
G01Y188751D01*
X63351D01*
Y181686D01*
X66314D01*
G03X66614Y182350I0J400D01*
G02X72386I2886J2550D01*
G03X72686Y181686I300J-264D01*
G01X75011D01*
X76213Y182888D01*
X76139Y183020D01*
G02X77620Y181539I3361J1880D01*
G01X77488Y181613D01*
X76959Y181084D01*
G03X77242Y180402I283J-282D01*
G01X83727D01*
X86215Y182890D01*
G02X87490Y181615I3285J2010D01*
G01X85859Y179984D01*
G03X86142Y179302I283J-282D01*
G01X92627D01*
X96215Y182890D01*
G02X97490Y181615I3285J2010D01*
G01X94759Y178884D01*
G03X95042Y178202I283J-282D01*
G01X111527D01*
X116215Y182890D01*
G02X120548Y181194I3285J2010D01*
G01X120402Y181153D01*
Y176756D01*
X121973D01*
Y175597D01*
G03X122656Y175315I400J1D01*
G01X128068Y180727D01*
G03X127947Y181376I-282J283D01*
G02X130548Y181194I1553J3524D01*
G01X130402Y181153D01*
Y180511D01*
X121346Y171455D01*
G03X121629Y170772I283J-283D01*
G01X121973D01*
Y167244D01*
X121251D01*
G03X120852Y166834I1J-400D01*
G02X118148I-1352J-34D01*
G03X117749Y167244I-400J10D01*
G01X117027D01*
Y171098D01*
X114972D01*
X109572Y165698D01*
X108772D01*
Y160243D01*
G03X109133Y159845I400J0D01*
G02X110172Y157825I-133J-1345D01*
G03X110286Y157300I346J-200D01*
G02X109158Y154892I-786J-1100D01*
G01X109133Y154898D01*
X108772D01*
Y150283D01*
G03X109151Y149884I400J1D01*
G02X110386Y148872I-74J-1350D01*
G01X110425Y148722D01*
X110580D01*
G02X111311Y148507I-1J-1352D01*
G03X111928Y148843I217J336D01*
G01Y150473D01*
X114056D01*
Y146927D01*
X111930D01*
Y146461D01*
X112218Y146173D01*
X114756D01*
Y143597D01*
G03X115439Y143314I400J0D01*
G01X116698Y144573D01*
Y160001D01*
X135949Y179252D01*
X155523D01*
X158290Y176485D01*
G02X157015Y175210I2010J-3285D01*
G01X154777Y177448D01*
X152105D01*
G03X151936Y176686I1J-400D01*
G02X147015Y175210I-1636J-3486D01*
G01X145877Y176348D01*
X144151D01*
Y169349D01*
X136449D01*
Y171209D01*
G03X135766Y171491I-400J-1D01*
G01X126952Y162677D01*
Y148443D01*
G03X127634Y148160I400J0D01*
G01X128548Y149074D01*
Y149516D01*
X130434Y151402D01*
X131992D01*
G02X132793Y149164I1008J-902D01*
G03X132336Y148707I-62J-395D01*
G02X132237Y147956I-1336J-206D01*
G03X132328Y147698I183J-80D01*
G02X130472Y145935I-628J-1198D01*
G03X129826Y146051I-363J-167D01*
G01X118959Y135184D01*
G03X119242Y134502I283J-282D01*
G01X120744D01*
X121186Y134060D01*
X121289Y134078D01*
G02X122455Y133626I212J-1183D01*
G03X123055Y133586I318J243D01*
G01X125725Y136256D01*
G03X125570Y136918I-283J283D01*
G02X127183Y137545I430J1282D01*
G03X127533Y136952I350J-193D01*
G01X130769D01*
G03X131165Y137408I0J400D01*
G02X131497Y138503I1338J192D01*
G02X132887Y140764I916J995D01*
G03X133421Y141072I140J375D01*
G01X134348D01*
G03X134748Y141479I0J400D01*
G02X137452I1352J21D01*
G03X137852Y141072I400J-7D01*
G01X138573D01*
Y139771D01*
G03X139256Y139489I400J1D01*
G01X140300Y140533D01*
G03X140127Y141200I-283J283D01*
G02X139661Y143560I373J1300D01*
G03X139752Y144085I-248J313D01*
G02X140895Y146152I1148J715D01*
G01X140977D01*
X150427Y155602D01*
X161427D01*
X166449Y160624D01*
Y167051D01*
X174151D01*
Y159349D01*
X167724D01*
X163559Y155184D01*
G03X163842Y154502I283J-282D01*
G01X171327D01*
X174127Y157302D01*
X179292D01*
G02X181592Y156797I1007J-902D01*
G03X182257Y156632I382J118D01*
G01X184198Y158573D01*
Y160785D01*
G03X183469Y161012I-400J0D01*
G02Y165388I-3169J2188D01*
G03X184198Y165615I329J227D01*
G01Y168373D01*
X187015Y171190D01*
G02X188290Y169915I3285J2010D01*
G01X186002Y167627D01*
Y157827D01*
X167773Y139598D01*
X144022D01*
G03X143642Y139074I0J-400D01*
G02X141687Y137814I-1142J-374D01*
G01X140643Y136770D01*
G03X140715Y136148I283J-282D01*
G02X138852Y134285I-715J-1148D01*
G03X138230Y134357I-340J-211D01*
G01X137871Y133998D01*
X137699D01*
G03X137300Y133574I0J-400D01*
G02X134900I-1200J-74D01*
G03X134501Y133998I-399J24D01*
G01X128986D01*
G03X128615Y133449I0J-400D01*
G02X128348Y132148I-1115J-449D01*
G01X128298Y132098D01*
X128282Y131958D01*
X128320Y131898D01*
G02X126460Y132102I-1012J-648D01*
G01X126510Y132152D01*
X126526Y132293D01*
X126488Y132352D01*
G02X126421Y132470I1010J652D01*
G01Y132471D01*
X126406Y132501D01*
X126241Y132666D01*
X123073Y129498D01*
X122870D01*
Y129275D01*
X122875Y129254D01*
G02X120617Y128478I-1175J-255D01*
G03X119974Y128587I-360J-174D01*
G01X119350Y127963D01*
G03Y127398I283J-282D01*
G02X117326Y126811I-851J-849D01*
G03X116936Y127298I-390J87D01*
G01X116766D01*
G03X116582Y127020I0J-200D01*
G02X115102Y125408I-1106J-470D01*
G01X115071Y125418D01*
X107353D01*
X107316Y125265D01*
G02X107286Y125160I-1170J277D01*
G01X107261Y125088D01*
X107323Y124946D01*
X107393Y124914D01*
G02X107046Y122625I-493J-1096D01*
G03X106870Y122437I24J-199D01*
G02X106834Y122201I-1200J62D01*
G03X107221Y121702I387J-99D01*
G01X107351D01*
X109701Y124052D01*
X114281D01*
G02X116476Y123113I1041J-601D01*
G03X116860Y122602I384J-111D01*
G01X117018D01*
G03X117381Y123169I0J400D01*
G02X119565I1092J503D01*
G03X119928Y122602I363J-167D01*
G01X123651D01*
X126851Y125802D01*
X130289D01*
G03X130646Y126381I-1J400D01*
G02X132628Y126133I1074J539D01*
G01X132627Y126132D01*
G03X132779Y125802I152J-130D01*
G01X132900D01*
X133704Y126606D01*
X133686Y126709D01*
G02X134658Y125737I1183J211D01*
G01X134555Y125755D01*
X133398Y124598D01*
X133263D01*
G03X132878Y124092I0J-400D01*
G02X130562I-1158J-322D01*
G03X130177Y124598I-385J106D01*
G01X127349D01*
X124149Y121398D01*
X123986D01*
G03X123615Y120849I0J-400D01*
G02X121385I-1115J-449D01*
G03X121014Y121398I-371J149D01*
G01X113795D01*
G03X113478Y120755I0J-400D01*
G02X111570I-954J-731D01*
G03X111253Y121398I-317J243D01*
G01X110747D01*
X109351Y120002D01*
G03X109353Y119435I283J-283D01*
G02X109357Y117725I-843J-857D01*
G03X109328Y117477I141J-142D01*
G02X109316Y116182I-1019J-638D01*
G03X109452Y115616I335J-219D01*
G02X107773Y114049I-597J-1043D01*
G01X107741Y114115D01*
X107605Y114176D01*
G02X106957Y116485I-403J1132D01*
G03X107115Y116703I-41J196D01*
G02X107462Y117692I1194J136D01*
G03X107491Y117940I-141J142D01*
G02X107350Y118894I1019J638D01*
G03X106964Y119398I-386J104D01*
G01X104601D01*
X104411Y119588D01*
G03X103764Y119471I-283J-283D01*
G02X101835Y120833I-1094J497D01*
G03X101557Y121520I-278J287D01*
G01X98973D01*
G02X96796Y121730I-1041J602D01*
G03X96135Y121883I-378J-130D01*
G01X95825Y121573D01*
X95843Y121470D01*
G02X93972Y122244I-1183J-211D01*
G03X93994Y122883I-229J328D01*
G02X93875Y124642I756J935D01*
G03X93865Y124926I-146J137D01*
G02X93495Y126010I815J883D01*
G01X93512Y126112D01*
X93298Y126327D01*
X93030Y126059D01*
X93048Y125956D01*
G02X92076Y126928I-1183J-211D01*
G01X92179Y126910D01*
X93661Y128392D01*
X93935D01*
Y128683D01*
X93866Y128743D01*
G02X93649Y128993I790J905D01*
G03X93050Y129074I-335J-219D01*
G02X91251Y129318I-794J903D01*
G03X90572Y129302I-335J-219D01*
G02X88467Y129366I-1035J612D01*
G03X87829Y129466I-356J-183D01*
G01X85461Y127098D01*
X78599D01*
X75988Y124487D01*
X75980Y124418D01*
G02X73826Y123837I-1194J142D01*
G03X73187I-319J-241D01*
G02X73055Y123688I-963J720D01*
G03Y123109I275J-290D01*
G02X71268Y121512I-828J-872D01*
G03X70629Y121511I-319J-241D01*
G02X68499Y122511I-961J722D01*
G01X68525Y122620D01*
X68155Y122990D01*
G03X67584Y122985I-283J-283D01*
G02X65534Y124027I-866J833D01*
G01X65552Y124130D01*
X65366Y124316D01*
X65308D01*
X64973Y123981D01*
Y121728D01*
X60364D01*
X60344Y121550D01*
G02X60002Y120792I-1344J150D01*
G01Y119272D01*
X60757D01*
G03X61155Y119633I0J400D01*
G02X63845I1345J-133D01*
G03X64243Y119272I398J39D01*
G01X64973D01*
Y117811D01*
G03X65493Y117430I400J1D01*
G02X66571Y114967I407J-1289D01*
G03X66589Y114263I199J-347D01*
G02X65400Y114204I-543J-1072D01*
G03X65348Y114907I-215J338D01*
G02X64652Y115621I552J1234D01*
G01X64601Y115744D01*
X60002D01*
Y109272D01*
X64973D01*
Y107043D01*
G03X65654Y106759I400J1D01*
G02X66449Y104704I846J-854D01*
G02X66048Y103836I-1349J96D01*
G03X66029Y103572I140J-143D01*
G02X66195Y103287I-1077J-818D01*
G03X66845Y103162I367J158D01*
G01X69414Y105730D01*
X73757D01*
G02X74472Y105930I665J-1001D01*
G03X74888Y106329I16J399D01*
G01Y106446D01*
X75986Y107543D01*
G03X75844Y107884I-142J141D01*
G01X75530D01*
X73894Y109521D01*
G03X73265Y109440I-283J-283D01*
G02X72950Y109085I-1039J604D01*
G03Y108446I241J-319D01*
G02X71202Y106859I-723J-960D01*
G03X70503Y106828I-341J-209D01*
G02X68857Y108423I-1076J537D01*
G03X68912Y109093I-189J353D01*
G02X70614Y110757I733J952D01*
G03X71258I322J236D01*
G02X71504Y111005I967J-714D01*
G03Y111644I-241J319D01*
G02Y113564I723J960D01*
G03Y114203I-241J319D01*
G02Y116123I723J960D01*
G03Y116762I-241J320D01*
G02X72950I723J960D01*
G03Y116123I241J-319D01*
G02Y114203I-723J-960D01*
G03Y113564I241J-320D01*
G02X73187Y113327I-723J-960D01*
G03X73826I320J241D01*
G02X75952Y112896I960J-723D01*
G01X75965Y112842D01*
X78119Y110688D01*
X97796D01*
G03X97938Y111029I0J200D01*
G01X97528Y111439D01*
X97425Y111421D01*
G02X98254Y113207I-211J1183D01*
G03X98944Y113205I346J201D01*
G02X99190Y113501I1036J-610D01*
G03X99138Y114142I-263J301D01*
G02X100562Y114256I635J1021D01*
G03X100614Y113615I263J-301D01*
G02X101123Y112226I-635J-1021D01*
G03X101504Y111704I381J-122D01*
G01X104845D01*
G03X105232Y112203I0J400D01*
G02X107460Y113061I1164J299D01*
G01X107493Y112999D01*
X107624Y112942D01*
G02X109035Y112412I376J-1142D01*
G03X109662Y112332I345J203D01*
G01X111786Y114457D01*
Y115598D01*
G02X112990I602J1041D01*
G01Y113959D01*
X112595Y113564D01*
G03X112878Y112882I283J-282D01*
G01X127007D01*
G03X127397Y113368I0J400D01*
G02X129743I1173J262D01*
G03X130133Y112882I390J-86D01*
G01X130305D01*
G03X130465Y113202I0J200D01*
G02X132526Y113442I960J723D01*
G03X132892Y112882I366J-160D01*
G01X137210D01*
G03X137598Y113377I0J400D01*
G02X139964Y113745I1167J289D01*
G03X140363Y113372I399J27D01*
G01X144995D01*
X147262Y111105D01*
X147316Y111091D01*
G02X147476Y111040I-284J-1168D01*
G03X148026Y111389I151J371D01*
G02X148774Y110212I1200J-63D01*
G03X148224Y109863I-151J-371D01*
G02X148213Y109751I-1200J61D01*
G03X148738Y109314I396J-58D01*
G02X150176Y107595I386J-1138D01*
G03X150526Y107002I350J-193D01*
G01X157835D01*
G02X159408Y106788I665J-1002D01*
G03X159992Y106767I302J262D01*
G01X172798Y119573D01*
X172806Y119642D01*
G02X174752Y118562I1194J-142D01*
G03Y117938I250J-312D01*
G02X174526Y115919I-752J-938D01*
G03X174401Y115295I175J-360D01*
G02X174510Y115151I-901J-795D01*
G01X174522Y115132D01*
X174680Y114975D01*
X189398Y129693D01*
Y159453D01*
X189252Y159494D01*
G02X191348I1048J3706D01*
G01X191202Y159453D01*
Y128947D01*
X162053Y99798D01*
X130327D01*
X129477Y100648D01*
X127834D01*
G03X127438Y100192I0J-400D01*
G02X124748Y99999I-1338J-193D01*
G03X124348Y100398I-400J-1D01*
G01X123679D01*
G03X123296Y99885I0J-400D01*
G02X123024Y98618I-1296J-384D01*
G03X123327Y97956I303J-262D01*
G01X138473D01*
Y94428D01*
X137360D01*
X137331Y94263D01*
G02X134669I-1331J237D01*
G01X134640Y94428D01*
X132360D01*
X132331Y94263D01*
G02X129669I-1331J237D01*
G01X129640Y94428D01*
X127360D01*
X127331Y94263D01*
G02X124669I-1331J237D01*
G01X124640Y94428D01*
X122360D01*
X122351Y94237D01*
G02X119649I-1351J63D01*
G01X119640Y94428D01*
X119151D01*
G03X118751Y94039I0J-400D01*
G02X116083Y93775I-1351J41D01*
G01X116070Y93831D01*
X115473Y94428D01*
X104002D01*
Y91272D01*
X107773D01*
Y89144D01*
X104002D01*
Y87108D01*
G02X102595Y84910I-1002J-908D01*
G02X100629Y84126I-1295J390D01*
G03X100115Y84024I-198J-347D01*
G02X98046Y85762I-1067J830D01*
G01Y86519D01*
X99098Y87572D01*
Y93128D01*
X94680D01*
Y89972D01*
X98573D01*
Y87844D01*
X95288D01*
G03X94921Y87285I0J-400D01*
G02X92729Y85788I-1242J-535D01*
G02X90778Y87658I-950J962D01*
G01Y88415D01*
X91048Y88686D01*
Y89755D01*
G03X90615Y90153I-400J0D01*
G02X89148Y91521I-115J1347D01*
G03X88748Y91927I-400J6D01*
G01X86928D01*
Y95473D01*
X88086D01*
G03X88369Y96156I0J400D01*
G01X87380Y97145D01*
Y99647D01*
X89704Y101971D01*
Y103292D01*
G03X89304Y103692I-400J0D01*
G02X88628Y105888I1J1202D01*
G03X88687Y106500I-225J331D01*
G02X88340Y107451I851J849D01*
G03X87942Y107884I-398J33D01*
G01X78947D01*
G03X78547Y107485I0J-400D01*
G02X78129Y106575I-1202J1D01*
G03X78151Y105950I260J-304D01*
G02X78379Y105729I-715J-966D01*
G03X78996Y105714I315J247D01*
G02X80864Y105650I908J-787D01*
G03X81503I320J241D01*
G02X83423I960J-723D01*
G03X84062I319J241D01*
G02X85771Y103987I960J-723D01*
G03Y103362I250J-313D01*
G02X84273I-749J-940D01*
G03Y103987I-250J312D01*
G02X84062Y104204I749J940D01*
G03X83423I-320J-241D01*
G02X81503I-960J723D01*
G03X80864I-319J-241D01*
G02X80806Y104132I-964J718D01*
G01Y98211D01*
X79109Y96514D01*
G03X79251Y96173I142J-141D01*
G01X79256D01*
Y91227D01*
X75772D01*
Y89256D01*
X69669Y83152D01*
X68855D01*
G02X68847Y85163I-908J1002D01*
G01X72351Y88667D01*
G03X72212Y89323I-283J283D01*
G02X71561Y91312I488J1261D01*
G03X71224Y91927I-337J215D01*
G01X70444D01*
Y95473D01*
X72570D01*
Y96517D01*
X74888Y98836D01*
Y103129D01*
G03X74472Y103528I-400J0D01*
G02X73757Y103728I-50J1201D01*
G01X70244D01*
X65152Y98635D01*
Y90665D01*
X65502Y90315D01*
Y83808D01*
G02X63961Y81660I-1002J-908D01*
G03X63402Y81294I-159J-367D01*
G01Y29008D01*
G02X61598I-902J-1008D01*
G01Y91992D01*
G02X62692Y94338I902J1008D01*
G03X63148Y94734I56J396D01*
G01Y99465D01*
X64544Y100861D01*
G03X64419Y101511I-283J283D01*
G02X64045Y101752I535J1241D01*
G01X59932D01*
X59434Y102249D01*
G03X58752Y101967I-282J-283D01*
G01Y23835D01*
X51911Y16994D01*
G02X51487Y12413I-3411J-1994D01*
G03X51789Y11752I302J-261D01*
G01X74844D01*
Y12398D01*
X73847D01*
X70798Y15447D01*
Y16244D01*
X69527D01*
Y19772D01*
X74473D01*
Y16073D01*
X78372D01*
Y11752D01*
X81528D01*
Y15373D01*
X83656D01*
Y11752D01*
X90500D01*
G02X91703Y8847I0J-1702D01*
G01X86155Y3298D01*
X52351D01*
Y1149D01*
X44649D01*
Y8348D01*
X41562D01*
G03X41274Y7671I0J-400D01*
G02X35726I-2774J-2671D01*
G03X35438Y8348I-288J277D01*
G01X28245D01*
X6298Y30295D01*
Y109330D01*
G02X6798Y110535I1702J0D01*
G01Y132498D01*
X12602Y138302D01*
X14934D01*
X15018Y138321D01*
X15019D01*
G02Y135879I581J-1221D01*
G01X14978Y135898D01*
X13598D01*
X9202Y131502D01*
Y113196D01*
G03X9884Y112913I400J0D01*
G01X14796Y117825D01*
X14811Y117868D01*
G02X16538Y116141I1274J-453D01*
G01X16495Y116126D01*
X9702Y109332D01*
Y31705D01*
X29655Y11752D01*
X35211D01*
G03X35513Y12413I0J400D01*
G02X40365Y18483I2986J2587D01*
G01X40496Y18413D01*
X43935Y21852D01*
X45127D01*
G03X45437Y22504I0J400D01*
G02X52425Y24550I3063J2496D01*
G03X53106Y24222I398J-46D01*
G01X55548Y26665D01*
Y39667D01*
G03X54866Y39949I-400J-1D01*
G01X51911Y36994D01*
G02X50494Y38411I-3411J-1994D01*
G01X53998Y41915D01*
Y43592D01*
G02X55115Y45847I1002J908D01*
G03X55548Y46245I33J398D01*
G01Y61667D01*
G03X54866Y61949I-400J-1D01*
G01X51915Y58998D01*
X43915D01*
X41911Y56994D01*
G02X40494Y58411I-3411J-1994D01*
G01X43085Y61002D01*
X46054D01*
G03X46279Y61732I0J400D01*
G02X50365Y68483I2221J3268D01*
G01X50496Y68413D01*
X52848Y70765D01*
Y73172D01*
G03X52086Y73340I-400J0D01*
G02Y76660I-3586J1660D01*
G03X52848Y76828I362J168D01*
G01Y83172D01*
G03X52086Y83340I-400J0D01*
G02Y86660I-3586J1660D01*
G03X52848Y86828I362J168D01*
G01Y93172D01*
G03X52086Y93340I-400J0D01*
G02Y96660I-3586J1660D01*
G03X52848Y96828I362J168D01*
G01Y103172D01*
G03X52086Y103340I-400J0D01*
G02X50365Y108483I-3586J1660D01*
G01X50496Y108413D01*
X51648Y109565D01*
Y111627D01*
G03X50996Y111937I-400J0D01*
G02X45686Y112226I-2496J3063D01*
G03X45002Y111945I-284J-281D01*
G01Y110085D01*
G37*
G54D35*
X168150Y125200D03*
X155900Y131600D03*
X162101Y128600D03*
X152901Y119400D03*
X145200Y130200D03*
X148900Y127000D03*
Y123000D03*
X134869Y130069D03*
X127000Y127500D03*
X131720Y120621D03*
Y116779D03*
X134574Y117074D03*
X118430Y116779D03*
X126500Y119500D03*
X105204Y117605D03*
G54D33*
X179100Y46100D03*
X149500Y194900D03*
X129500D03*
X139500D03*
X119500D03*
X109500D03*
X99500D03*
X89500D03*
X69500D03*
X79500D03*
X48500Y55000D03*
X38500Y95000D03*
G54D36*
X170750Y90250D03*
X155500Y14000D03*
X111000Y36000D03*
X68450Y91250D03*
X68250Y72250D03*
G54D32*
X180300Y173200D03*
X160300Y163200D03*
X149500Y184900D03*
X150300Y163200D03*
X139500Y184900D03*
X109500D03*
X59500Y194900D03*
X38500Y175000D03*
G54D39*
X48500Y45000D03*
X38500Y85000D03*
Y75000D03*
Y65000D03*
Y45000D03*
Y35000D03*
Y25000D03*
G54D38*
X149592Y13600D03*
X125108Y59600D03*
X112992Y163700D03*
Y153700D03*
Y158700D03*
X114092Y60800D03*
X104592Y13600D03*
X91992Y60900D03*
G54D37*
X168500Y56492D03*
X158500D03*
X161000Y20008D03*
X156000D03*
X149500Y87208D03*
X140400Y40592D03*
X136000Y90208D03*
X131000D03*
X131600Y11908D03*
X116000Y90208D03*
X126000D03*
X121000D03*
X125600Y55092D03*
X126600Y11908D03*
X111000Y90208D03*
X105500Y18508D03*
X98600Y60792D03*
X103600Y51292D03*
X99000Y18508D03*
X81500Y51392D03*
X83500Y18008D03*
X76500Y60892D03*
X77000Y18008D03*
X62500Y113492D03*
X136600Y21408D03*
G54D34*
X170300Y173200D03*
X140300Y163200D03*
%LPD*%
G75*
G36*
G01X44234Y120151D02*
G02X43552Y120433I-282J283D01*
G01Y137092D01*
X40242Y140402D01*
X38504D01*
X38054Y140852D01*
X38257Y141056D01*
X38344Y141052D01*
G03X41911Y146994I156J3948D01*
G01X44465Y149548D01*
X48585D01*
X49345Y148789D01*
G02X48998Y148111I-283J-283D01*
G03X51611Y145498I-498J-3111D01*
G02X52289Y145845I395J64D01*
G01X55611Y142523D01*
X51696Y138609D01*
Y138333D01*
G02X51039Y138027I-400J0D01*
G03X50992Y131934I-2539J-3027D01*
G02X51644Y131624I252J-310D01*
G01Y128376D01*
G02X50992Y128066I-400J0D01*
G03X45714Y122198I-2493J-3065D01*
G02X45715Y121632I-282J-283D01*
G01X44234Y120151D01*
G37*
G36*
G01X73324Y132831D02*
G03X73228Y133005I-1097J-492D01*
G01Y135043D01*
X66852Y141419D01*
X66845Y141490D01*
G03X64838Y142534I-1345J-135D01*
G01X64706Y142460D01*
X61264Y145902D01*
X60194D01*
G02X59819Y146442I-1J400D01*
G03X58827Y148243I-1265J477D01*
G03X56267Y149054I-1327J256D01*
G02X55619Y148936I-365J164D01*
G01X53702Y150853D01*
Y166942D01*
X51496Y169148D01*
G02X51601Y169789I283J283D01*
G03X51952Y170040I-601J1211D01*
G01X52011Y170098D01*
X52427D01*
X57648Y164877D01*
Y164795D01*
G03X59005Y166152I1352J5D01*
G01X58923D01*
X53173Y171902D01*
X52008D01*
G03X51716Y172147I-1007J-903D01*
G02X51605Y172723I212J339D01*
G03X52236Y175934I-3105J2278D01*
G02X52907Y176314I388J97D01*
G01X66282Y162939D01*
G02X65999Y162256I-283J-283D01*
G01X63227D01*
Y160128D01*
X66773D01*
Y161482D01*
G02X67456Y161765I400J0D01*
G01X67623Y161598D01*
X67992D01*
G03X70227Y163068I1008J901D01*
G02X70409Y163593I363J168D01*
G03X71152Y164795I-609J1207D01*
G01Y164877D01*
X71973Y165698D01*
X76944D01*
Y161927D01*
X79072D01*
Y165698D01*
X82228D01*
Y161227D01*
X84334D01*
Y160004D01*
X78122D01*
Y154270D01*
X84334D01*
Y152702D01*
X83761Y152130D01*
X78122D01*
Y147484D01*
G02X77780Y147343I-200J0D01*
G01X77571Y147552D01*
X77394D01*
Y153650D01*
X75973D01*
Y156972D01*
X71027D01*
Y153444D01*
X72448D01*
Y146452D01*
X68126D01*
X67552Y147026D01*
Y153650D01*
X67473D01*
Y156972D01*
X62527D01*
Y153444D01*
X62606D01*
Y145750D01*
X66278D01*
X67380Y144648D01*
X68271D01*
G02X68552Y143963I0J-400D01*
G03X68498Y142092I948J-964D01*
G01Y140885D01*
X73784Y135599D01*
Y133005D01*
G03X73689Y132831I1004J-661D01*
G02X73324I-182J82D01*
G37*
G36*
G01X68183Y163588D02*
X58313Y173458D01*
G02X58356Y174061I283J283D01*
G03X58554Y174242I-809J1083D01*
G01X60617D01*
X62774Y176398D01*
X66527D01*
Y173228D01*
X71473D01*
Y173364D01*
G02X72016Y173738I400J0D01*
G03X73611Y175771I484J1262D01*
G02X73940Y176398I329J227D01*
G01X76527D01*
Y173228D01*
X81473D01*
Y174090D01*
X82984D01*
G03X85099Y175769I1008J902D01*
G02X85426Y176398I327J229D01*
G01X86527D01*
Y173228D01*
X91473D01*
Y173364D01*
G02X92016Y173738I400J0D01*
G03X92984I484J1262D01*
G02X93527Y173364I143J-374D01*
G01Y173228D01*
X98473D01*
Y174090D01*
X99484D01*
G03X101599Y175769I1008J902D01*
G02X101926Y176398I327J229D01*
G01X112273D01*
X117490Y181615D01*
G03X118453Y181194I2010J3285D01*
G01X118598Y181153D01*
Y176756D01*
X117027D01*
Y172902D01*
X114226D01*
X108826Y167502D01*
X93750D01*
G02X93440Y168154I0J400D01*
G03X91811Y170229I-1048J854D01*
G01X91770Y170210D01*
X91473D01*
Y170772D01*
X86527D01*
Y167502D01*
X84050D01*
G02X83740Y168154I0J400D01*
G03X82111Y170229I-1048J854D01*
G01X82070Y170210D01*
X81473D01*
Y170772D01*
X76527D01*
Y167502D01*
X74266D01*
G02X73956Y168154I0J400D01*
G03X72327Y170229I-1048J854D01*
G01X72286Y170210D01*
X71473D01*
Y170772D01*
X66527D01*
Y167244D01*
X70003D01*
G02X70286Y166561I0J-400D01*
G01X69877Y166152D01*
X69795D01*
G03X68573Y164232I5J-1352D01*
G02X68391Y163707I-363J-168D01*
G03X68316Y163666I611J-1206D01*
G01X68183Y163588D01*
G37*
G36*
G01X73187Y125283D02*
G03X72811Y125610I-959J-724D01*
G02Y126310I195J350D01*
G03X73112Y128173I-584J1050D01*
G02X73115Y128718I294J271D01*
G03X73298Y128973I-877J822D01*
G02X73934Y129066I352J-189D01*
G03X75571Y130824I852J848D01*
G02Y131430I261J303D01*
G03X75726Y131591I-785J910D01*
G02X76354Y131589I313J-249D01*
G03X77590Y133496I946J741D01*
G01X77537Y133510D01*
X77299Y133747D01*
X77490Y133938D01*
X77559Y133946D01*
G03X78232Y134254I-139J1194D01*
G02X78902Y133959I270J-295D01*
G01Y130579D01*
G03X78793Y129454I1002J-665D01*
G02X78424Y128902I-369J-152D01*
G01X77853D01*
X74713Y125762D01*
X74644Y125754D01*
G03X73826Y125283I143J-1194D01*
G02X73187I-319J241D01*
G37*
G36*
G01X80002Y145009D02*
Y145121D01*
X79410Y145713D01*
G02X79693Y146396I283J283D01*
G01X80352D01*
G02X80740Y145901I0J-400D01*
G03X81777Y144258I1314J-320D01*
G01X81936Y144224D01*
Y143460D01*
X80248Y141772D01*
Y141133D01*
G02X79566Y140851I-400J1D01*
G01X77877Y142540D01*
G02X77913Y142851I141J141D01*
G03X78149Y143037I-714J1148D01*
G03X80060Y144950I951J961D01*
G01X80002Y145009D01*
G37*
G36*
G01X94878Y154963D02*
Y160004D01*
X89239D01*
X88410Y160833D01*
Y161227D01*
X89272D01*
Y165698D01*
X92428D01*
Y161927D01*
X94556D01*
Y165698D01*
X95744D01*
Y156227D01*
X96606D01*
Y155725D01*
X95561Y154680D01*
G02X94878Y154963I-283J283D01*
G37*
G36*
G01X93301Y133735D02*
G03X92916Y133977I-821J-878D01*
G02X92778Y134633I145J373D01*
G01X93798Y135654D01*
Y142695D01*
G03X93535Y144895I-901J1008D01*
G01X93509Y144909D01*
X93347Y145071D01*
X93571Y145296D01*
X94923D01*
X95061Y145433D01*
G02X95744Y145150I283J-283D01*
G01Y141227D01*
X97071D01*
G02X97414Y140622I0J-400D01*
G03X97891Y138760I1160J-695D01*
G02X97971Y138132I-202J-345D01*
G01X93579Y133740D01*
G02X93301Y133735I-142J141D01*
G37*
G36*
G01X99610Y139058D02*
G03X99272Y141085I-1036J869D01*
G01Y151173D01*
X98710D01*
Y152810D01*
X99810Y153911D01*
X99853Y153926D01*
G03X99463Y156551I-453J1274D01*
G02X99272Y156750I9J200D01*
G01Y164899D01*
X100072Y165698D01*
X101728D01*
Y165450D01*
G02X101344Y165051I-400J1D01*
G03Y162349I56J-1351D01*
G02X101728Y161950I-16J-400D01*
G01Y161227D01*
X105244D01*
Y141836D01*
X105102Y141792D01*
G03X105081Y141785I417J-1286D01*
G02X104556Y142166I-125J380D01*
G01Y145473D01*
X102428D01*
Y141927D01*
X104081D01*
G02X104405Y141293I0J-400D01*
G03X104833Y139324I1095J-793D01*
G02X104918Y138693I-197J-348D01*
G01X104627Y138402D01*
X99917D01*
G02X99610Y139058I0J400D01*
G37*
G36*
G01X111542Y106832D02*
X111167Y107208D01*
G02X111308Y107550I141J142D01*
G01X115286D01*
X115635Y107898D01*
X118737D01*
G02X119020Y107216I0J-400D01*
G01X118637Y106832D01*
X111542D01*
G37*
G36*
G01X115114Y130823D02*
X114862Y130572D01*
X113971D01*
X112449Y129050D01*
X109031D01*
X108210Y129871D01*
X110738Y132399D01*
G02X111414Y132192I283J-283D01*
G03X113644Y133004I1181J226D01*
G02X113993Y133598I349J194D01*
G01X114212D01*
G02X114570Y133020I0J-400D01*
G03X115034Y131450I1076J-536D01*
G02X115114Y130823I-203J-345D01*
G37*
G36*
G01X123832Y19656D02*
Y24792D01*
X121166D01*
G02X120883Y25475I0J400D01*
G01X123826Y28418D01*
X124127D01*
Y25628D01*
X132759D01*
G02X133065Y24970I0J-400D01*
G03X132826Y24553I1035J-870D01*
G01X132811Y24510D01*
X131473Y23172D01*
X129127D01*
Y19656D01*
X123832D01*
G37*
G36*
G01X124154Y109264D02*
X123516Y109902D01*
X120022D01*
G02X119625Y110346I0J400D01*
G03X119632Y110479I-1195J130D01*
G02X120032Y110878I400J-1D01*
G01X138717D01*
X138734Y110697D01*
G03X138767Y110497I1347J119D01*
G02X138379Y110002I-388J-95D01*
G01X130505D01*
X129767Y109264D01*
X124154D01*
G37*
G36*
G01X142892Y141402D02*
G02X142609Y142084I0J400D01*
G01X153223Y152698D01*
X172073D01*
X174873Y155498D01*
X175169D01*
G02X175341Y155196I0J-200D01*
G03X175467Y153628I1159J-696D01*
G02X175442Y153344I-153J-130D01*
G03X175094Y152906I862J-1042D01*
G02X174862Y152803I-179J90D01*
G03X173211Y151094I-362J-1303D01*
G02X173005Y150614I-382J-120D01*
G03X173035Y148172I595J-1214D01*
G02X173151Y147526I-167J-363D01*
G01X170656Y145031D01*
G02X169973Y145314I-283J283D01*
G01Y146472D01*
X168860D01*
X168831Y146637D01*
G03X166169I-1331J-237D01*
G01X166140Y146472D01*
X163864D01*
X163844Y146650D01*
G03X161156I-1344J-150D01*
G01X161136Y146472D01*
X158864D01*
X158844Y146650D01*
G03X156156I-1344J-150D01*
G01X156136Y146472D01*
X155027D01*
Y142944D01*
X167603D01*
G02X167886Y142261I0J-400D01*
G01X167027Y141402D01*
X142892D01*
G37*
G36*
G01X163885Y42734D02*
G03X163896Y42823I-385J93D01*
G01Y45384D01*
X163020D01*
Y46084D01*
X162872D01*
Y46702D01*
X163251Y47082D01*
X164088D01*
X164350Y47344D01*
X165391D01*
G02X165724Y46721I0J-400D01*
G01Y46084D01*
X165554D01*
Y45384D01*
X164680D01*
Y42823D01*
G03X164690Y42734I395J-1D01*
G02X164300Y42244I-390J-90D01*
G01X164275D01*
G02X163885Y42734I0J400D01*
G37*
%LPC*%
G75*
G36*
G01X57804Y154708D02*
G03X57881Y155241I-254J309D01*
G02X59860Y154956I1119J759D01*
G03X59783Y154423I254J-309D01*
G02X57804Y154708I-1119J-759D01*
G37*
G54D38*
X103492Y148700D03*
Y158700D03*
G54D37*
X73500Y161192D03*
X96000Y169008D03*
X126600Y21408D03*
X162500Y150692D03*
X157500D03*
X167500D03*
%LPD*%
G75*
G54D10*
X11070Y83000D03*
X14761Y95761D03*
X14770Y97730D03*
X16085Y117415D03*
X15600Y137100D03*
X15631Y135131D03*
X11070Y149370D03*
X27667Y101667D03*
X27508Y105675D03*
X27665Y103635D03*
X27400Y107572D03*
X21000Y143000D03*
X21200Y155300D03*
X21500Y174500D03*
X25992Y165008D03*
X31000Y59500D03*
X29992Y90592D03*
X34000Y170800D03*
X42000Y111500D03*
X50150Y120703D03*
X43500Y157500D03*
X51000Y171000D03*
X62500Y28000D03*
X55000Y44500D03*
X64500Y82900D03*
X65700Y97445D03*
X62500Y93000D03*
X63150Y104650D03*
X60863Y104562D03*
X65100Y104800D03*
X65400Y110200D03*
X64953Y102753D03*
X62500Y119500D03*
X65900Y116141D03*
X59000Y121700D03*
X61800Y126700D03*
X63700Y127500D03*
X59050Y132294D03*
X58996Y130149D03*
X61392Y136107D03*
X57525Y138346D03*
X58554Y146919D03*
X57500Y148500D03*
X65500Y141355D03*
X61200Y140800D03*
X59206Y140003D03*
X56799Y140102D03*
X59500Y142000D03*
X59000Y156000D03*
X58664Y153664D03*
X61608Y161192D03*
X57546Y175143D03*
X59000Y164800D03*
X59600Y179900D03*
X55600Y180500D03*
X55550Y178050D03*
X76500Y49200D03*
X68250Y72250D03*
X67947Y84154D03*
X72700Y90584D03*
X68450Y91250D03*
X69645Y110045D03*
X74786Y112604D03*
X72227Y110045D03*
Y112604D03*
X69427Y107365D03*
X72227Y107486D03*
X77345D03*
X77435Y104985D03*
X74422Y104729D03*
X66500Y105905D03*
X66046Y113191D03*
X72227Y115163D03*
Y117722D03*
Y122237D03*
X69398Y125233D03*
X69668Y122232D03*
X66718Y123818D03*
X74786Y124560D03*
X72227D03*
X74786Y122237D03*
Y117722D03*
Y115163D03*
X72227Y127360D03*
X77420Y135140D03*
X66545Y128936D03*
Y131495D03*
X66571Y135570D03*
X74786Y127360D03*
Y129914D03*
X72238Y129540D03*
X72227Y132340D03*
X74786D03*
X77300Y132330D03*
X71148Y142054D03*
X69500Y143000D03*
X72500Y144000D03*
X75000D03*
X77200D03*
X69100Y159564D03*
X69000Y162500D03*
X72908Y169008D03*
X72500Y175000D03*
X69800Y164800D03*
X85000Y13600D03*
X87092Y23992D03*
X80200Y18008D03*
X80500Y26000D03*
X79100Y34100D03*
X89000Y53000D03*
X78800Y42900D03*
X84192Y51392D03*
X81500Y59100D03*
X87700Y60900D03*
X78800Y57100D03*
X78417Y84400D03*
X88900Y84200D03*
X81850Y82500D03*
X85949Y86000D03*
X78323Y88300D03*
X85022Y102422D03*
X89538Y107349D03*
X85022Y104927D03*
X82463D03*
X89305Y104894D03*
X79904Y104927D03*
Y112604D03*
X79903Y107349D03*
X82463Y112604D03*
X82462Y107349D03*
X85022Y112604D03*
X85021Y107349D03*
X89537Y112604D03*
X89820Y121259D03*
X89850Y123818D03*
X79904Y124796D03*
Y122237D03*
X82463Y124796D03*
Y122237D03*
X85022Y124796D03*
Y122237D03*
X79904Y117722D03*
Y115163D03*
X82463Y117722D03*
Y115163D03*
X85022Y117722D03*
Y115163D03*
X89537Y117722D03*
Y115163D03*
X82700Y132460D03*
X86602Y132470D03*
X89840Y135250D03*
X89402Y132338D03*
X85022Y129914D03*
X89537D03*
X79904D03*
X82463D03*
X86360Y139470D03*
X81000Y144000D03*
X86100Y147300D03*
X82054Y145581D03*
X87697Y146040D03*
X84500Y146000D03*
X79100Y143998D03*
X82692Y169008D03*
X83992Y174992D03*
X80300Y163700D03*
X90500Y10050D03*
X102380Y25520D03*
X101900Y18508D03*
X101000Y34000D03*
X100500Y42700D03*
X98600Y48900D03*
X100500Y56900D03*
X91992Y64792D03*
X96120Y62563D03*
X94382Y68500D03*
X101300Y85300D03*
X93679Y86750D03*
X99047Y84854D03*
X91779Y86750D03*
X96800Y86000D03*
X98376Y97590D03*
X96502Y97906D03*
X93000Y99000D03*
X91131Y98698D03*
X94483Y97500D03*
X90500Y91500D03*
X99979Y112594D03*
X100014Y104765D03*
X92105Y104721D03*
X99863Y109794D03*
X97215Y107349D03*
X97214Y104927D03*
X94414Y105060D03*
X94656Y107349D03*
X92097D03*
X97214Y112604D03*
X92096D03*
X99773Y115163D03*
Y124720D03*
X97932Y122122D03*
X94660Y121259D03*
X91865Y125745D03*
X94750Y123818D03*
X92480Y121259D03*
X92390Y123818D03*
X92096Y117722D03*
Y115163D03*
X97214Y117722D03*
Y115163D03*
X94680Y125810D03*
X92256Y129977D03*
X92480Y132857D03*
X100116Y132649D03*
X99773Y129650D03*
X94655D03*
X94377Y132513D03*
X97316Y132550D03*
X97214Y129650D03*
X98574Y139927D03*
X94754Y144108D03*
X100500Y141600D03*
X92897Y143703D03*
X99400Y155200D03*
X101500Y158700D03*
X101400Y163700D03*
X92392Y169008D03*
X92500Y175000D03*
X100492Y174992D03*
X99592Y169008D03*
X91100Y163700D03*
X112279Y12379D03*
X107300Y13600D03*
X108708Y24492D03*
X108292Y18508D03*
X111000Y36000D03*
X106500Y51292D03*
X108108Y64392D03*
X103600Y64000D03*
X114092Y64492D03*
X103000Y86200D03*
X106000Y85900D03*
X111000Y86000D03*
X111200Y101700D03*
X106100Y101000D03*
X108855Y114573D03*
X106396Y112502D03*
X107299Y107151D03*
X107301Y105401D03*
X106401Y103899D03*
X108000Y111800D03*
X108510Y118578D03*
X105204Y117605D03*
X107203Y115308D03*
X108309Y116839D03*
X106148Y125548D03*
X105670Y122500D03*
X102670Y119968D03*
X106900Y123818D03*
X112524Y120024D03*
X112388Y116639D03*
X112594Y132418D03*
X109452Y129848D03*
X110579Y147370D03*
X109077Y148534D03*
X105500Y140500D03*
X109500Y156200D03*
X109000Y158500D03*
X102900Y155000D03*
X126600Y15779D03*
Y9500D03*
Y23300D03*
Y29600D03*
Y38100D03*
X118495Y42800D03*
X121200Y46900D03*
X117521Y55721D03*
X122300Y59600D03*
X122192Y55092D03*
X121000Y86100D03*
X116000Y85900D03*
X126000Y86200D03*
X117400Y94079D03*
X126000Y94500D03*
X121000Y94300D03*
X120100Y98605D03*
X122000Y99500D03*
X126100Y100000D03*
X116500Y98605D03*
Y101705D03*
X118430Y110480D03*
X121100Y105500D03*
X118430Y107331D03*
X115800Y107500D03*
X118430Y113630D03*
Y116779D03*
X126500Y119500D03*
X118499Y126549D03*
X115476Y126550D03*
X118473Y123672D03*
X115322Y123450D03*
X122500Y120400D03*
X124500Y119500D03*
X115646Y132485D03*
X121500Y132895D03*
X121700Y129000D03*
X126000Y138200D03*
X119500Y132500D03*
X124500Y147500D03*
X123406Y149288D03*
X120000Y158500D03*
X115600Y155000D03*
X115700Y160500D03*
X119500Y166800D03*
X116000Y163700D03*
X131600Y16000D03*
Y9600D03*
X129733Y29133D03*
X134100Y24100D03*
X138300Y23900D03*
X135300Y36600D03*
X131000Y86200D03*
X136000Y86500D03*
Y94500D03*
X131000D03*
X132500Y102250D03*
X128570Y113630D03*
X138500Y107000D03*
X127600Y106700D03*
X131500Y107600D03*
X138765Y113665D03*
X131425Y113925D03*
X127900Y109662D03*
X134574Y117074D03*
X131720Y116779D03*
Y123770D03*
Y120621D03*
X137900Y120400D03*
X128570Y116779D03*
X134869Y130069D03*
X127308Y131250D03*
X131720Y126920D03*
X132503Y137600D03*
X127500Y133000D03*
X134869Y126920D03*
X127000Y127500D03*
X136100Y133500D03*
X136000Y147800D03*
X136100Y141500D03*
X132413Y139498D03*
X133000Y150500D03*
X131000Y148500D03*
X131700Y146500D03*
X143608Y9908D03*
X149592Y10008D03*
X140600Y18600D03*
X141563Y24163D03*
X140400Y36600D03*
X147584Y35084D03*
X140400Y46900D03*
X149553Y62100D03*
X145616Y60400D03*
X143647Y58200D03*
X149500Y84300D03*
X145692Y93192D03*
X149226Y111326D03*
X147024Y109926D03*
X140080Y110820D03*
X149124Y108176D03*
X148900Y123000D03*
X139900Y120400D03*
X148900Y127000D03*
X145200Y130200D03*
X140000Y135000D03*
X142500Y138700D03*
X148650Y129250D03*
X140500Y142500D03*
X140900Y144800D03*
X155500Y14000D03*
X161000Y28500D03*
X151437Y24163D03*
X153008Y20008D03*
X161000Y22000D03*
X157722Y29800D03*
X153500Y33800D03*
X158500Y59500D03*
X159500Y84500D03*
X154500Y84300D03*
X159500Y95800D03*
X154500Y95500D03*
X158500Y106000D03*
X158900Y109651D03*
X152901Y119400D03*
X162101Y128600D03*
X155900Y131600D03*
X157500Y146500D03*
X162500D03*
Y148579D03*
X157500D03*
X171000Y32000D03*
X165200Y29529D03*
X168000Y47500D03*
X173700Y45500D03*
X163520Y46433D03*
X165075Y46500D03*
X172650Y48350D03*
X173000Y56492D03*
X170750Y90250D03*
X173500Y114500D03*
X168150Y125200D03*
X174000Y119500D03*
Y117000D03*
X165300Y116049D03*
X166874Y133600D03*
X167500Y146400D03*
X173600Y149400D03*
X167500Y148579D03*
X174500Y151500D03*
X180300Y156400D03*
X176500Y154500D03*
X176304Y152303D03*
G54D11*
X21700Y90592D03*
Y84608D03*
X21200Y146108D03*
Y152092D03*
X21500Y170992D03*
Y165008D03*
X62500Y113492D03*
Y107508D03*
Y117508D03*
Y123492D03*
X65000Y155208D03*
Y161192D03*
X77000Y23992D03*
Y18008D03*
X72000Y23992D03*
Y18008D03*
X76500Y45408D03*
Y51392D03*
Y60892D03*
Y54908D03*
X73500Y155208D03*
Y161192D03*
X69000Y174992D03*
Y169008D03*
X79000Y174992D03*
Y169008D03*
X83500Y23992D03*
Y18008D03*
X81500Y45408D03*
Y51392D03*
Y54908D03*
Y60892D03*
X89000Y174992D03*
Y169008D03*
X99000Y24492D03*
Y18508D03*
X94000Y24492D03*
Y18508D03*
X98600Y45308D03*
Y51292D03*
X103600Y45308D03*
Y51292D03*
X98600Y60792D03*
Y54808D03*
X103600D03*
Y60792D03*
X96800Y88908D03*
Y94892D03*
X96000Y174992D03*
Y169008D03*
X105500Y24492D03*
Y18508D03*
X106000Y90208D03*
X111000D03*
X106000Y96192D03*
X111000D03*
X126600Y11908D03*
Y27392D03*
Y21408D03*
Y17892D03*
X125600Y49108D03*
Y55092D03*
X121000Y90208D03*
X126000D03*
X116000D03*
X121000Y96192D03*
X126000D03*
X116000D03*
X119500Y174992D03*
Y169008D03*
X131600Y11908D03*
X136600Y21408D03*
Y27392D03*
X131600Y17892D03*
Y21408D03*
Y27392D03*
X135300Y40592D03*
Y34608D03*
X130600Y49108D03*
Y55092D03*
X131000Y90208D03*
X136000D03*
X131000Y96192D03*
X136000D03*
Y139208D03*
Y145192D03*
X140400Y34608D03*
Y40592D03*
X149500Y87208D03*
Y93192D03*
X156000Y25992D03*
Y20008D03*
X161000Y25992D03*
Y20008D03*
X158500Y50508D03*
X163500D03*
X158500Y56492D03*
X163500D03*
X159500Y87208D03*
X154500D03*
X159500Y93192D03*
X154500D03*
X162500Y150692D03*
Y144708D03*
X157500Y150692D03*
Y144708D03*
X171000Y20008D03*
Y25992D03*
X166000Y20008D03*
Y25992D03*
X168500Y50508D03*
Y56492D03*
X167500Y150692D03*
Y144708D03*
G54D20*
X91421Y149263D03*
X81579D03*
Y157137D03*
X91421D03*
G54D30*
G01X21700Y90592D02*
X29992D01*
G01X21000Y143000D02*
Y145908D01*
X21200Y146108D01*
G01X21500Y165008D02*
X25992D01*
G01X59206Y140003D02*
Y137820D01*
X56299Y134913D01*
Y132390D01*
X56246Y132337D01*
Y128217D01*
X56250Y128213D01*
Y114812D01*
X56550Y114512D01*
Y26250D01*
X51150Y20850D01*
X44350D01*
X38500Y15000D01*
G01X57525Y138346D02*
X55098Y135919D01*
Y132887D01*
X55046Y132835D01*
Y127719D01*
X55050Y127715D01*
Y63550D01*
X51500Y60000D01*
X43500D01*
X38500Y55000D01*
G01X50150Y120703D02*
X46203D01*
X44000Y118500D01*
Y110500D01*
X38500Y105000D01*
G01X34000Y170800D02*
Y143631D01*
X38131Y139500D01*
X39869D01*
X42650Y136719D01*
Y113400D01*
X42000Y112750D01*
Y111500D01*
G01X61392Y136107D02*
X62750Y137465D01*
Y141443D01*
X60643Y143550D01*
X56000D01*
X49000Y150550D01*
X44050D01*
X38500Y145000D01*
G01X66571Y135570D02*
X63950Y138191D01*
Y141941D01*
X60891Y145000D01*
X58280D01*
X52800Y150480D01*
Y166569D01*
X49769Y169600D01*
X48173D01*
X44400Y173373D01*
Y179100D01*
X38500Y185000D01*
G01X69000Y162500D02*
X67996D01*
X52900Y177596D01*
Y186327D01*
X49227Y190000D01*
X43500D01*
X38500Y195000D01*
G01X61200Y140800D02*
Y138111D01*
X57500Y134411D01*
Y131893D01*
X57446Y131839D01*
Y128715D01*
X57450Y128711D01*
Y121057D01*
X57750Y120757D01*
Y24250D01*
X48500Y15000D01*
G01X55000Y44500D02*
Y41500D01*
X48500Y35000D01*
G01Y65000D02*
X53850Y70350D01*
Y127217D01*
X53846Y127221D01*
Y133333D01*
X53898Y133385D01*
Y137201D01*
X56799Y140102D01*
G01X48500Y105000D02*
X52650Y109150D01*
Y126719D01*
X52646Y126723D01*
Y133831D01*
X52698Y133883D01*
Y138194D01*
X56504Y142000D01*
X59500D01*
G01X51000Y171000D02*
X52800D01*
X59000Y164800D01*
G01X62500Y93000D02*
Y28000D01*
G01X74422Y104729D02*
X69829D01*
X64150Y99050D01*
Y90250D01*
X64500Y89900D01*
Y82900D01*
G01X64953Y102753D02*
X60347D01*
X59000Y104100D01*
Y121700D01*
G01X72227Y124560D02*
X71696Y124029D01*
X71460D01*
X71063Y123632D01*
X69088D01*
X68992Y123536D01*
X68884D01*
X68204Y124216D01*
Y124312D01*
X67298Y125218D01*
X64935D01*
X63209Y123492D01*
X62500D01*
G01X59050Y132294D02*
X59651Y132895D01*
X69692D01*
X71647Y130940D01*
X73760D01*
X74786Y129914D01*
G01X72238Y129540D02*
X71707Y129009D01*
X71573D01*
X69986Y127422D01*
X65971D01*
X63244Y130149D01*
X58996D01*
G01X72227Y132340D02*
Y134628D01*
X65500Y141355D01*
G01X77200Y144000D02*
X75650Y145550D01*
X67753D01*
X65079Y148224D01*
Y149700D01*
G01D02*
Y155129D01*
X65000Y155208D01*
G01X57546Y175143D02*
X60244D01*
X62401Y177300D01*
X111900D01*
X119500Y184900D01*
G01X59600Y179900D02*
X60484Y180784D01*
X75384D01*
X79500Y184900D01*
G01X55600Y180500D02*
X57750Y178350D01*
X60243D01*
X61393Y179500D01*
X84100D01*
X89500Y184900D01*
G01X55550Y178050D02*
X56350Y177250D01*
X60699D01*
X61849Y178400D01*
X93000D01*
X99500Y184900D01*
G01X77435Y104985D02*
Y97935D01*
X74771Y95271D01*
Y89671D01*
X69254Y84154D01*
X67947D01*
G01X72700Y90584D02*
X73571Y91455D01*
Y96102D01*
X75890Y98421D01*
Y106031D01*
X77345Y107486D01*
G01X79904Y104927D02*
Y98584D01*
X77492Y96172D01*
Y93700D01*
G01X74786Y112604D02*
X77704Y109686D01*
X97990D01*
X99282Y108394D01*
X105430D01*
X106387Y109351D01*
X108852D01*
X111381Y111880D01*
X138947D01*
X139437Y112370D01*
X144580D01*
X147024Y109926D01*
G01X158500Y106000D02*
X148600D01*
X145600Y109000D01*
X130920D01*
X130182Y108262D01*
X123739D01*
X123101Y108900D01*
X115220D01*
X114871Y108551D01*
X106719D01*
X105762Y107594D01*
X98950D01*
X97658Y108886D01*
X75945D01*
X72227Y112604D01*
G01X74786Y124560D02*
X78226Y128000D01*
X85088D01*
X88002Y130914D01*
Y141001D01*
X93198Y146197D01*
X94550D01*
X95500Y147147D01*
Y153344D01*
X97508Y155352D01*
Y158700D01*
G01X74786Y132340D02*
Y136014D01*
X69500Y141300D01*
Y143000D01*
G01X77300Y132330D02*
X75932Y133698D01*
Y140568D01*
X72500Y144000D01*
G01X75000D02*
X79904Y139096D01*
Y129914D01*
G01X74921Y149700D02*
X74800Y149821D01*
Y154000D01*
X73592Y155208D01*
X73500D01*
G01X79100Y143998D02*
Y144748D01*
X77198Y146650D01*
X76495D01*
X74921Y148224D01*
Y149700D01*
G01X72500Y175000D02*
X69008D01*
X69000Y174992D01*
G01X69800Y164800D02*
X71600Y166600D01*
X99699D01*
G01X80500Y26000D02*
X80380Y26120D01*
Y28391D01*
G01X81850Y82500D02*
Y81032D01*
X94382Y68500D01*
G01X94414Y105060D02*
Y103961D01*
X89581Y99128D01*
Y98059D01*
X93679Y93960D01*
Y86750D01*
G01X92097Y107349D02*
X90705Y105957D01*
Y101556D01*
X88381Y99232D01*
Y97560D01*
X92050Y93891D01*
Y88271D01*
X91779Y88000D01*
Y86750D01*
G01X85022Y129914D02*
Y138315D01*
X84810Y138527D01*
Y142310D01*
X86100Y143600D01*
Y147300D01*
G01X92897Y143703D02*
Y136027D01*
X90950Y134080D01*
Y131327D01*
X89537Y129914D01*
G01X82463D02*
X81250Y131127D01*
Y141357D01*
X82938Y143045D01*
Y144697D01*
X82054Y145581D01*
G01X87697Y146040D02*
Y154003D01*
X90831Y157137D01*
G01X84500Y146000D02*
X83441Y147059D01*
Y147401D01*
X81579Y149263D01*
G01X83992Y163700D02*
Y162896D01*
X85235Y161653D01*
Y152329D01*
X82169Y149263D01*
X81579D01*
G01X90831Y157137D02*
X87508Y160460D01*
Y163700D01*
G01X79000Y174992D02*
X83992D01*
G01X92500Y175000D02*
X89008D01*
X89000Y174992D01*
G01X101300Y85300D02*
Y98932D01*
X97214Y103018D01*
Y104927D01*
G01X94656Y107349D02*
X95814Y106191D01*
Y103286D01*
X100100Y99000D01*
Y87157D01*
X99047Y86104D01*
Y84854D01*
G01X97215Y107349D02*
X98510Y106054D01*
X98614Y105949D01*
Y102750D01*
X103000Y98364D01*
Y86200D01*
G01X94483Y97500D02*
Y96823D01*
X94600Y96706D01*
Y96383D01*
X96091Y94892D01*
X96800D01*
G01X100014Y104765D02*
X102280Y102499D01*
X108599D01*
X109205Y103105D01*
X119251D01*
X119856Y102500D01*
X122344D01*
X122544Y102700D01*
X130800D01*
X131250Y102250D01*
X132500D01*
G01X99863Y109794D02*
X105698D01*
X106055Y110151D01*
X108331D01*
X112388Y114208D01*
Y116639D01*
G01X97214Y112604D02*
X98624Y111194D01*
X100468D01*
X100560Y111102D01*
X107302D01*
X108000Y111800D01*
G01X115476Y126550D02*
X114945Y126019D01*
X107658D01*
X107193Y126483D01*
X106728Y126948D01*
X104648D01*
X102420Y124720D01*
X99773D01*
G01X97932Y122122D02*
X102728D01*
X104850Y120000D01*
X108498D01*
X110498Y122000D01*
X123900D01*
X127100Y125200D01*
X133149D01*
X134869Y126920D01*
G01X94660Y121259D02*
X96923Y123522D01*
X98991D01*
X99193Y123320D01*
X102830D01*
X105050Y121100D01*
X107600D01*
X109950Y123450D01*
X115322D01*
G01X121500Y132895D02*
X120495Y133900D01*
X118920D01*
X117650Y132630D01*
Y132509D01*
X115111Y129970D01*
X114220D01*
X112698Y128448D01*
X108782D01*
X107882Y129348D01*
X102413D01*
X100855Y127790D01*
X93910D01*
X91865Y125745D01*
G01X142500Y138700D02*
X141298D01*
X137498Y134900D01*
X127200D01*
X122700Y130400D01*
X120512D01*
X118312Y128200D01*
X114714D01*
X113362Y126848D01*
X108118D01*
X107218Y127748D01*
X103748D01*
X102190Y126190D01*
X97122D01*
X94750Y123818D01*
G01X190300Y173200D02*
X185100Y168000D01*
Y158200D01*
X167400Y140500D01*
X141542D01*
X137092Y136050D01*
X126794D01*
X121963Y131219D01*
X120199D01*
X117980Y129000D01*
X114382D01*
X113030Y127648D01*
X108450D01*
X107550Y128548D01*
X102745D01*
X101187Y126990D01*
X95860D01*
X94680Y125810D01*
G01X100116Y132649D02*
X108581D01*
X111232Y135300D01*
X116049D01*
X129450Y148701D01*
Y149143D01*
X130807Y150500D01*
X133000D01*
G01X99773Y129650D02*
X100749Y130626D01*
X107690D01*
X111564Y134500D01*
X117000D01*
X131000Y148500D01*
G01X120000Y158500D02*
X119400Y157900D01*
Y144444D01*
X114434Y139478D01*
X108978D01*
X106050Y136550D01*
X99336D01*
X95810Y133024D01*
Y130805D01*
X94655Y129650D01*
G01X94377Y132513D02*
Y133263D01*
X98614Y137500D01*
X105000D01*
X108378Y140878D01*
X114278D01*
X117600Y144200D01*
Y159628D01*
X136322Y178350D01*
X155150D01*
X160300Y173200D01*
G01X150300D02*
X146250Y177250D01*
X136778D01*
X122450Y162922D01*
Y157699D01*
X121290Y156539D01*
Y144778D01*
X114512Y138000D01*
X109480D01*
X106980Y135500D01*
X99516D01*
X97316Y133300D01*
Y132550D01*
G01X97214Y129650D02*
X98716Y131152D01*
Y133229D01*
X99987Y134500D01*
X108000D01*
X110100Y136600D01*
X115793D01*
X126050Y146857D01*
Y163050D01*
X136200Y173200D01*
X140300D01*
G01X91421Y157137D02*
X90831D01*
G01X96000Y174992D02*
X100492D01*
G01X99699Y166600D02*
X97508Y164409D01*
Y163700D01*
G01X105900Y166600D02*
X99699D01*
G01X106100Y101000D02*
X106950Y100150D01*
X114850D01*
X114855Y100155D01*
X119155D01*
X120300Y101300D01*
X125207D01*
X125457Y101550D01*
X129850D01*
X130700Y100700D01*
X161680D01*
X190300Y129320D01*
Y163200D01*
G01X107299Y107151D02*
X109949D01*
X111169Y105931D01*
X119010D01*
X119979Y106900D01*
X122812D01*
X124412Y105300D01*
X129651D01*
X129851Y105500D01*
X147000D01*
X147900Y104600D01*
X159100D01*
X174000Y119500D01*
G01Y117000D02*
X160800Y103800D01*
X140100D01*
X139450Y104450D01*
X122030D01*
X121680Y104100D01*
X120520D01*
X119914Y104706D01*
X107996D01*
X107301Y105401D01*
G01X173500Y114500D02*
X161700Y102700D01*
X139600D01*
X138650Y103650D01*
X122362D01*
X122012Y103300D01*
X120188D01*
X119583Y103905D01*
X108307D01*
X108301Y103899D01*
X106401D01*
G01X107008Y148700D02*
Y143700D01*
G01X105500Y140500D02*
X107008Y142008D01*
Y143700D01*
G01X109077Y148534D02*
X108327D01*
X108293Y148500D01*
X107208D01*
X107008Y148700D01*
G01X109500Y156200D02*
X109100Y155800D01*
X107800D01*
X107008Y155008D01*
Y153700D01*
G01X109000Y158500D02*
X107208D01*
X107008Y158700D01*
G01X129500Y184900D02*
Y180884D01*
X120616Y172000D01*
X114599D01*
X109199Y166600D01*
X105900D01*
G01D02*
X107008Y165492D01*
Y163700D01*
G01X121200Y46900D02*
X125331D01*
X126600Y45631D01*
Y44006D01*
G01X119500Y174992D02*
Y184900D01*
G01X136100Y141500D02*
Y139308D01*
X136000Y139208D01*
G01X149553Y32037D02*
Y62100D01*
G01X145616Y32037D02*
Y60400D01*
G01X143647Y32037D02*
Y58200D01*
G01X140500Y142500D02*
X141750D01*
X152850Y153600D01*
X171700D01*
X174500Y156400D01*
X180300D01*
G01X140900Y144800D02*
X150800Y154700D01*
X161800D01*
X170300Y163200D01*
G01X159500Y95800D02*
Y93192D01*
G01X154500Y95500D02*
Y93192D01*
G01X171000Y25992D02*
Y32000D01*
G01D02*
X169412D01*
X169318Y32094D01*
X168224D01*
G54D21*
X116100Y29382D03*
Y39618D03*
G54D12*
X38500Y5000D03*
Y15000D03*
Y25000D03*
Y35000D03*
Y55000D03*
Y45000D03*
Y65000D03*
Y75000D03*
Y85000D03*
Y105000D03*
Y95000D03*
Y115000D03*
Y125000D03*
Y135000D03*
Y145000D03*
Y165000D03*
Y155000D03*
Y175000D03*
Y185000D03*
Y195000D03*
X48500Y15000D03*
Y25000D03*
Y35000D03*
Y55000D03*
Y45000D03*
Y65000D03*
Y75000D03*
Y85000D03*
Y105000D03*
Y95000D03*
Y115000D03*
Y125000D03*
Y135000D03*
Y145000D03*
Y165000D03*
Y155000D03*
Y175000D03*
Y185000D03*
Y195000D03*
X59500Y194900D03*
X79500Y184900D03*
X69500D03*
X79500Y194900D03*
X69500D03*
X89500Y184900D03*
Y194900D03*
X99500Y184900D03*
Y194900D03*
X109500Y184900D03*
Y194900D03*
X119500Y184900D03*
Y194900D03*
X139500Y184900D03*
X129500D03*
X139500Y194900D03*
X129500D03*
X150300Y163200D03*
Y173200D03*
X149500Y184900D03*
Y194900D03*
X160300Y163200D03*
Y173200D03*
X179100Y26100D03*
Y36100D03*
Y46100D03*
X190300Y163200D03*
X180300D03*
X190300Y173200D03*
X180300D03*
G54D31*
G01X38500Y91648D02*
Y95000D01*
G01D02*
Y98352D01*
G01X35148Y95000D02*
X38500D01*
G01D02*
X41852D01*
G01X48500Y51648D02*
Y55000D01*
G01D02*
Y58352D01*
G01X45148Y55000D02*
X48500D01*
G01D02*
X51852D01*
G01X48500Y141648D02*
Y145000D01*
G01D02*
Y148352D01*
G01X45148Y145000D02*
X48500D01*
G01D02*
X51852D01*
G01X62500Y113492D02*
Y114757D01*
G01X60526Y113492D02*
X62500D01*
G01D02*
X64474D01*
G01X65000Y159927D02*
Y161192D01*
G01D02*
Y162457D01*
G01Y161192D02*
X66974D01*
G01X77000Y16743D02*
Y18008D01*
G01D02*
Y19273D01*
G01X75026Y18008D02*
X77000D01*
G01X74272Y34100D02*
X79100D01*
G01X76500Y59627D02*
Y60892D01*
G01X74526D02*
X76500D01*
G01D02*
X78474D01*
G01X73500Y159927D02*
Y161192D01*
G01D02*
Y162457D01*
G01Y161192D02*
X75474D01*
G01X76743Y163700D02*
X78008D01*
G01X69500Y191548D02*
Y194900D01*
G01D02*
Y198252D01*
G01X66148Y194900D02*
X69500D01*
G01D02*
X72852D01*
G01X76148D02*
X79500D01*
G01X83500Y16743D02*
Y18008D01*
G01X82592Y13600D02*
Y15574D01*
G01X81327Y13600D02*
X82592D01*
G01X83500Y18008D02*
Y19273D01*
G01Y18008D02*
X85474D01*
G01X79100Y34100D02*
X83928D01*
G01X81500Y50127D02*
Y51392D01*
G01D02*
Y52657D01*
G01X79526Y51392D02*
X81500D01*
G01X86727Y88700D02*
X87992D01*
G01D02*
X89257D01*
G01X87992Y93700D02*
Y95674D01*
G01X86727Y93700D02*
X87992D01*
G01X78008Y161726D02*
Y163700D01*
G01X89500Y191548D02*
Y194900D01*
G01D02*
Y198252D01*
G01X86148Y194900D02*
X89500D01*
G01D02*
X92852D01*
G01X79500Y191548D02*
Y194900D01*
G01D02*
Y198252D01*
G01Y194900D02*
X82852D01*
G01X99000Y17243D02*
Y18508D01*
G01D02*
Y19773D01*
G01X97026Y18508D02*
X99000D01*
G01X96272Y34100D02*
X101100D01*
G01D02*
X105928D01*
G01X101626Y51292D02*
X103600D01*
G01X91992Y58926D02*
Y60900D01*
G01X90727D02*
X91992D01*
G01D02*
X93257D01*
G01X98600Y59527D02*
Y60792D01*
G01D02*
Y62057D01*
G01Y60792D02*
X100574D01*
G01X102227Y148700D02*
X103492D01*
G01X102227Y143700D02*
X103492D01*
G01X93492Y161726D02*
Y163700D01*
G01D02*
X94757D01*
G01X99500Y191548D02*
Y194900D01*
G01D02*
Y198252D01*
G01X96148Y194900D02*
X99500D01*
G01D02*
X102852D01*
G01X104592Y11626D02*
Y13600D01*
G01D02*
Y15574D01*
G01X103327Y13600D02*
X104592D01*
G01X105500Y17243D02*
Y18508D01*
G01D02*
Y19773D01*
G01X103526Y18508D02*
X105500D01*
G01X103600Y50027D02*
Y51292D01*
G01D02*
Y52557D01*
G01X114092Y58826D02*
Y60800D01*
G01X112827D02*
X114092D01*
G01D02*
X115357D01*
G01X114026Y90208D02*
X116000D01*
G01X111000D02*
Y91473D01*
G01X109026Y90208D02*
X111000D01*
G01D02*
X112974D01*
G01X106000D02*
Y91473D01*
G01Y90208D02*
X107974D01*
G01X103492Y148700D02*
X104757D01*
G01X103492Y141726D02*
Y143700D01*
G01D02*
X104757D01*
G01X112992Y146726D02*
Y148700D01*
G01X111727D02*
X112992D01*
G01D02*
X114257D01*
G01X112992Y153700D02*
Y155674D01*
G01X111727Y153700D02*
X112992D01*
G01Y156726D02*
Y158700D01*
G01D02*
Y160674D01*
G01X111727Y158700D02*
X112992D01*
G01X103492Y156726D02*
Y158700D01*
G01D02*
Y160674D01*
G01Y158700D02*
X104757D01*
G01X112992Y161726D02*
Y163700D01*
G01D02*
Y165674D01*
G01X111727Y163700D02*
X112992D01*
G01X109500Y191548D02*
Y194900D01*
G01D02*
Y198252D01*
G01X106148Y194900D02*
X109500D01*
G01D02*
X112852D01*
G01X126600Y11908D02*
Y13173D01*
G01X124626Y11908D02*
X126600D01*
G01D02*
X128574D01*
G01X126600Y20143D02*
Y21408D01*
G01X124626D02*
X126600D01*
G01D02*
X128574D01*
G01X121181Y38100D02*
X126600D01*
G01D02*
X132019D01*
G01X121870Y44006D02*
X122663D01*
G01D02*
X123456D01*
G01X125600Y53827D02*
Y55092D01*
G01D02*
Y56357D01*
G01Y55092D02*
X127574D01*
G01X125108Y57626D02*
Y59600D01*
G01D02*
Y61574D01*
G01Y59600D02*
X126373D01*
G01X116000Y90208D02*
Y91473D01*
G01Y90208D02*
X117974D01*
G01X126000D02*
Y91473D01*
G01X124026Y90208D02*
X126000D01*
G01D02*
X127974D01*
G01X121000D02*
Y91473D01*
G01X119026Y90208D02*
X121000D01*
G01D02*
X122974D01*
G01X126148Y194900D02*
X129500D01*
G01X119500Y191548D02*
Y194900D01*
G01D02*
Y198252D01*
G01X116148Y194900D02*
X119500D01*
G01D02*
X122852D01*
G01X131600Y11908D02*
Y13173D01*
G01X129626Y11908D02*
X131600D01*
G01D02*
X133574D01*
G01X136600Y20143D02*
Y21408D01*
G01X134626D02*
X136600D01*
G01D02*
X138574D01*
G01X138426Y40592D02*
X140400D01*
G01X136000Y90208D02*
Y91473D01*
G01X134026Y90208D02*
X136000D01*
G01D02*
X137974D01*
G01X131000D02*
Y91473D01*
G01X129026Y90208D02*
X131000D01*
G01D02*
X132974D01*
G01X129500Y191548D02*
Y194900D01*
G01D02*
Y198252D01*
G01Y194900D02*
X132852D01*
G01X136148D02*
X139500D01*
G01X149592Y13600D02*
Y15574D01*
G01X148327Y13600D02*
X149592D01*
G01D02*
X150857D01*
G01X140400Y39327D02*
Y40592D01*
G01D02*
X142374D01*
G01X149500Y87208D02*
Y88473D01*
G01X147526Y87208D02*
X149500D01*
G01D02*
X151474D01*
G01X149500Y191548D02*
Y194900D01*
G01D02*
Y198252D01*
G01X146148Y194900D02*
X149500D01*
G01D02*
X152852D01*
G01X139500Y191548D02*
Y194900D01*
G01D02*
Y198252D01*
G01Y194900D02*
X142852D01*
G01X163500Y32094D02*
Y28492D01*
X161000Y25992D01*
G01X161925Y32094D02*
Y29425D01*
X161000Y28500D01*
G01Y18743D02*
Y20008D01*
G01X159026D02*
X161000D01*
G01D02*
X162974D01*
G01X156000Y18743D02*
Y20008D01*
G01D02*
Y21273D01*
G01Y20008D02*
X157974D01*
G01X157722Y29800D02*
X157755Y29768D01*
X159523D01*
X160350Y30595D01*
Y32094D01*
G01X158776D02*
Y30854D01*
X157722Y29800D01*
G01X161925Y43906D02*
Y45170D01*
X161800Y45295D01*
Y46705D01*
X161820Y46725D01*
Y47138D01*
X162815Y48133D01*
X163652D01*
X163914Y48395D01*
X166387D01*
X168500Y50508D01*
G01X160350Y43906D02*
Y46358D01*
X159489Y47219D01*
X158776D01*
G01D02*
Y43906D01*
G01X158500Y55227D02*
Y56492D01*
G01X156526D02*
X158500D01*
G01D02*
X160474D01*
G01X157500Y150692D02*
Y151957D01*
G01X155526Y150692D02*
X157500D01*
G01D02*
X159474D01*
G01X162500D02*
Y151957D01*
G01X160526Y150692D02*
X162500D01*
G01D02*
X164474D01*
G01X166000Y25992D02*
X167963Y27955D01*
Y29000D01*
X166780Y30183D01*
Y31964D01*
X166650Y32094D01*
G01X165200Y29529D02*
X165075Y29654D01*
Y32094D01*
G01X166650Y43906D02*
X166775Y44031D01*
Y46275D01*
X168000Y47500D01*
G01X165075Y43906D02*
Y46500D01*
G01X172650Y48350D02*
X170581Y46281D01*
X169516D01*
X169163Y45928D01*
Y45795D01*
G01X163520Y46433D02*
X163500D01*
G01X169163Y45795D02*
X168224Y44856D01*
Y43906D01*
G01X163500Y46433D02*
Y43906D01*
G01X168500Y55227D02*
Y56492D01*
G01D02*
Y57757D01*
G01X166526Y56492D02*
X168500D01*
G01X167500Y150692D02*
Y151957D01*
G01X165526Y150692D02*
X167500D01*
G01D02*
X169474D01*
G01X179100Y42748D02*
Y46100D01*
G01D02*
Y49452D01*
G01X175748Y46100D02*
X179100D01*
G01D02*
X182452D01*
G54D13*
X48500Y5000D03*
X59500Y184900D03*
X140300Y163200D03*
Y173200D03*
X170300Y163200D03*
Y173200D03*
X179100Y16100D03*
G54D22*
X126600Y38100D03*
G54D14*
X65079Y149700D03*
X74921D03*
G54D23*
X146600Y28100D03*
G54D24*
X162366Y14000D03*
X170634D03*
G54D15*
X76608Y13600D03*
X71508Y93700D03*
X77492D03*
X78008Y163700D03*
X82592Y13600D03*
X86008Y60900D03*
X87992Y88700D03*
X82008D03*
X87992Y93700D03*
X82008D03*
X87508Y163700D03*
X83992D03*
X98608Y13600D03*
X91992Y60900D03*
X97508Y143700D03*
Y148700D03*
Y158700D03*
X93492Y163700D03*
X97508D03*
X104592Y13600D03*
X108108Y60800D03*
X114092D03*
X103492Y143700D03*
Y148700D03*
X107008Y143700D03*
X112992D03*
Y148700D03*
X107008D03*
X112992Y158700D03*
X107008D03*
X112992Y153700D03*
X107008D03*
X103492Y158700D03*
Y163700D03*
X112992D03*
X107008D03*
X125108Y59600D03*
X131092D03*
X143608Y13600D03*
X149592D03*
Y18600D03*
X143608D03*
G54D16*
X77820Y28391D03*
X75261D03*
X82939D03*
X80380D03*
X102380D03*
X99820D03*
X97261D03*
X104939D03*
X126600Y32194D03*
X124631D03*
X122663D03*
X130537D03*
X128569D03*
X149553Y24163D03*
X147584D03*
X145616D03*
X143647D03*
G54D25*
X163500Y38000D03*
G54D26*
X161925Y32094D03*
X160350D03*
X158776D03*
X168224D03*
X166650D03*
X165075D03*
X163500D03*
G54D17*
X79100Y34100D03*
X101100D03*
G54D18*
X75261Y39809D03*
X77820D03*
X80380D03*
X82939D03*
X97261D03*
X99820D03*
X102380D03*
X104939D03*
X122663Y44006D03*
X124631D03*
X126600D03*
X128569D03*
X130537D03*
X143647Y32037D03*
X145616D03*
X147584D03*
X149553D03*
G54D27*
X158776Y43906D03*
X160350D03*
X161925D03*
X163500D03*
X165075D03*
X166650D03*
X168224D03*
G54D28*
G01X14761Y81500D02*
Y75739D01*
X31000Y59500D01*
G01X14761Y81500D02*
Y95761D01*
G01X21700Y84608D02*
X17869D01*
X14761Y81500D01*
G01X15600Y137100D02*
X13100D01*
X8000Y132000D01*
Y109330D01*
G01D02*
X16085Y117415D01*
G01X21200Y152092D02*
Y155300D01*
G01X21500Y170992D02*
Y174500D01*
G01X65700Y97445D02*
X69445Y93700D01*
G01X63150Y104650D02*
Y104892D01*
X62500Y105542D01*
Y107508D01*
G01X65400Y110200D02*
X63729D01*
X62500Y111429D01*
G01D02*
Y113492D01*
G01Y117508D02*
Y119500D01*
G01X65000Y161192D02*
X61608D01*
G01X72000Y18008D02*
Y15945D01*
X74345Y13600D01*
X76608D01*
G01X75261Y28391D02*
X73670D01*
X73379Y28100D01*
X73300D01*
X72000Y26800D01*
Y23992D01*
G01X77820Y28391D02*
Y24812D01*
X77000Y23992D01*
G01Y18008D02*
X80200D01*
G01X76500Y45408D02*
Y43623D01*
X75261Y42384D01*
Y39809D01*
G01X77820D02*
Y41920D01*
X78800Y42900D01*
G01X76500Y51392D02*
Y49200D01*
G01Y54908D02*
X81500D01*
G01X78800Y57100D02*
X78692D01*
X76500Y54908D01*
G01Y60892D02*
Y62955D01*
G01D02*
X79545Y66000D01*
X90784D01*
X91992Y64792D01*
G01X69445Y93700D02*
X71508D01*
G01X73500Y161192D02*
X70728D01*
G01D02*
X69100Y159564D01*
G01X69000Y169008D02*
X72908D01*
G01X78008Y163700D02*
X80300D01*
G01X82592Y13600D02*
X85000D01*
G01X83500Y23992D02*
X82939Y24553D01*
Y28391D01*
G01X83500Y23992D02*
X87092D01*
G01X80200Y18008D02*
X83500D01*
G01X89000Y45979D02*
X89100Y45879D01*
Y42800D01*
X86109Y39809D01*
X82939D01*
G01X81500Y45408D02*
X81600Y45308D01*
Y42800D01*
X80380Y41580D01*
Y39809D01*
G01X89000Y55821D02*
Y53000D01*
G01X81500Y51392D02*
X84192D01*
G01X81500Y60892D02*
Y59100D01*
G01X86008Y60900D02*
X87700D01*
G01X82008Y88700D02*
Y87991D01*
X78417Y84400D01*
G01X82008Y93700D02*
Y88700D01*
G01X88900Y84200D02*
X87992Y85108D01*
G01D02*
Y88700D01*
G01Y93700D02*
Y88700D01*
G01X89000Y169008D02*
X92392D01*
G01X79000D02*
X82692D01*
G01X98608Y13600D02*
X96545D01*
X96445Y13700D01*
X96200D01*
X94000Y15900D01*
Y18508D01*
G01X99820Y28391D02*
Y25312D01*
X99000Y24492D01*
G01X102380Y28391D02*
Y25520D01*
G01X94000Y24492D02*
Y26721D01*
X95670Y28391D01*
X97261D01*
G01X99000Y18508D02*
X101900D01*
G01X99820Y39809D02*
Y42020D01*
X100500Y42700D01*
G01X102380Y39809D02*
Y44088D01*
X103600Y45308D01*
G01X98600D02*
Y43608D01*
X97261Y42269D01*
Y39809D01*
G01X98600Y48900D02*
Y51292D01*
G01X100500Y56900D02*
Y56708D01*
X98600Y54808D01*
G01X103600D02*
X98600D01*
G01X91992Y60900D02*
Y64792D01*
G01X98600Y60792D02*
X97891D01*
X96120Y62563D01*
G01X96800Y88908D02*
Y86000D01*
G01X97508Y148700D02*
Y153308D01*
X99400Y155200D01*
G01X97508Y148700D02*
Y143700D01*
G01X103492Y158700D02*
X101500D01*
G01X103492Y163700D02*
X101400D01*
G01X96000Y169008D02*
X99592D01*
G01X93492Y163700D02*
X91100D01*
G01X118800Y12379D02*
X112279D01*
G01X104592Y13600D02*
X107300D01*
G01X105500Y24492D02*
X108708D01*
G01X105500D02*
X104939Y25053D01*
Y28391D01*
G01X105500Y18508D02*
X108292D01*
G01X104939Y39809D02*
Y40793D01*
X106238Y42092D01*
Y42978D01*
X109139Y45879D01*
X111600D01*
G01X103600Y51292D02*
X106500D01*
G01X111600Y55721D02*
X117521D01*
G01X108108Y60800D02*
Y64392D01*
G01X103600Y60792D02*
Y64000D01*
G01X114092Y60800D02*
Y64492D01*
G01X106000Y90208D02*
Y85900D01*
G01X111000Y90208D02*
Y86000D01*
G01Y96192D02*
X116000D01*
G01X106000D02*
X111000D01*
G01X110579Y147370D02*
Y146320D01*
X110729Y146170D01*
Y145963D01*
X112992Y143700D01*
G01X103492Y148700D02*
Y154408D01*
G01Y148700D02*
Y143700D01*
G01X112992Y153700D02*
Y148700D01*
G01Y158700D02*
X113900D01*
X115700Y160500D01*
G01X115600Y155000D02*
X114300Y153700D01*
G01D02*
X112992D01*
G01X103492Y154408D02*
X102900Y155000D01*
G01X112992Y163700D02*
X116000D01*
G01X126600Y17892D02*
Y15779D01*
G01Y11908D02*
Y9500D01*
G01X118800Y25091D02*
X123328Y29619D01*
X123594D01*
X124631Y30656D01*
Y32194D01*
G01X118800Y22221D02*
Y25091D01*
G01X116100Y29382D02*
Y24921D01*
X118800Y22221D01*
G01Y25091D02*
Y27347D01*
X122663Y31210D01*
Y32194D01*
G01X126600Y29600D02*
Y27392D01*
G01Y21408D02*
Y23300D01*
G01X116100Y39618D02*
Y40405D01*
X118495Y42800D01*
G01X126600Y32194D02*
Y29600D01*
G01X124631Y40069D02*
Y44006D01*
G01Y40069D02*
X126600Y38100D01*
G01X122663Y42037D02*
X124631Y40069D01*
G01X122663Y44006D02*
Y42037D01*
G01X128569Y44006D02*
Y46139D01*
X125600Y49108D01*
G01X135300Y40592D02*
Y50400D01*
X133600Y52100D01*
X126529D01*
X125600Y51171D01*
Y49108D01*
G01X125108Y59600D02*
X122300D01*
G01X125600Y55092D02*
X122192D01*
G01X121000Y90208D02*
Y86100D01*
G01X116000Y90208D02*
Y85900D01*
G01X126000Y90208D02*
Y86200D01*
G01X117400Y94079D02*
Y94200D01*
X116000Y95600D01*
Y96192D01*
G01X126000D02*
Y94500D01*
G01X121000Y96192D02*
Y94300D01*
G01X119500Y169008D02*
Y166800D01*
G01X131600Y16000D02*
Y17892D01*
G01Y11908D02*
Y9600D01*
G01X128569Y32194D02*
Y30297D01*
X129733Y29133D01*
G01D02*
X131474Y27392D01*
X131600D01*
G01X136600D02*
Y29800D01*
X134206Y32194D01*
X130537D01*
G01X131600Y21408D02*
Y21600D01*
X134100Y24100D01*
G01X136600Y21408D02*
Y22200D01*
X138300Y23900D01*
G01X135300Y34608D02*
Y36600D01*
G01X130600Y49108D02*
Y46644D01*
X130537Y46581D01*
Y44006D01*
G01X131092Y59600D02*
Y55584D01*
X130600Y55092D01*
G01X131000Y90208D02*
Y86200D01*
G01X136000Y90208D02*
Y86500D01*
G01Y96192D02*
Y94500D01*
G01X131000Y96192D02*
Y94500D01*
G01X136000Y145192D02*
Y147800D01*
G01X143608Y13600D02*
Y9908D01*
G01X149592Y13600D02*
Y10008D01*
G01X143608Y18600D02*
X140600D01*
G01X149553Y24163D02*
X151437D01*
G01X143647D02*
X141563D01*
G01X147584D02*
Y20608D01*
G01D02*
X147596D01*
X149592Y18612D01*
Y18600D01*
G01X147584Y20608D02*
X146596D01*
X145616Y21588D01*
Y24163D01*
G01X140400Y34608D02*
Y36600D01*
G01Y40592D02*
Y46900D01*
G01X147584Y32037D02*
Y35084D01*
G01X149500Y87208D02*
Y84300D01*
G01Y93192D02*
X145692D01*
G01X166000Y20008D02*
Y15157D01*
X164843Y14000D01*
X162366D01*
G01X156000Y25992D02*
Y28905D01*
X153500Y31405D01*
Y33800D01*
G01X156000Y20008D02*
X153008D01*
G01X161000D02*
Y22000D01*
G01X158500Y50508D02*
Y47495D01*
X158776Y47219D01*
G01X158500Y50508D02*
X163500D01*
G01X158500Y56492D02*
Y59500D01*
G01X159500Y87208D02*
Y84500D01*
G01X154500Y87208D02*
Y84300D01*
G01X157500Y144708D02*
Y146500D01*
G01X162500Y144708D02*
Y146500D01*
G01Y150692D02*
Y148579D01*
G01X157500Y150692D02*
Y148579D01*
G01X170634Y14000D02*
Y19642D01*
X171000Y20008D01*
G01X173700Y45500D02*
Y43950D01*
X173972Y43678D01*
Y22271D01*
X171709Y20008D01*
X171000D01*
G01X168500Y56492D02*
X173000D01*
G01X167500Y144708D02*
Y146400D01*
G01Y150692D02*
Y148579D01*
G54D19*
X89000Y45979D03*
Y55821D03*
X111600Y45879D03*
Y55721D03*
X118800Y12379D03*
Y22221D03*
G54D29*
G01X90500Y10050D02*
X28950D01*
X8000Y31000D01*
Y109330D01*
G01X48500Y5000D02*
X85450D01*
X90500Y10050D01*
G01X163500Y56492D02*
Y59500D01*
X166000Y62000D01*
X184500D01*
X190500Y56000D01*
Y27500D01*
X179100Y16100D01*
M02*
