G04 ================== begin FILE IDENTIFICATION RECORD ==================*
G04 Layout Name:  extend-pcb.brd*
G04 Film Name:    SILKSCREEN_BOTTOM*
G04 File Format:  Gerber RS274X*
G04 File Origin:  Cadence Allegro 16.6-2015-S065*
G04 Origin Date:  Tue Aug 30 00:07:13 2016*
G04 *
G04 Layer:  REF DES/SILKSCREEN_BOTTOM*
G04 Layer:  PACKAGE GEOMETRY/SILKSCREEN_BOTTOM*
G04 Layer:  BOARD GEOMETRY/SILKSCREEN_BOTTOM*
G04 *
G04 Offset:    (0.000 0.000)*
G04 Mirror:    No*
G04 Mode:      Positive*
G04 Rotation:  0*
G04 FullContactRelief:  No*
G04 UndefLineWidth:     1.000*
G04 ================== end FILE IDENTIFICATION RECORD ====================*
%FSLAX25Y25*MOIN*%
%IR0*IPPOS*OFA0.00000B0.00000*MIA0B0*SFA1.00000B1.00000*%
%ADD10C,.004*%
%ADD11C,.008*%
%ADD12C,.003937*%
%ADD13C,.009843*%
%ADD14C,.007874*%
G75*
%LPD*%
G75*
G36*
G01X33723Y16284D02*
G03I-880J0D01*
G37*
G36*
G01X37787Y41000D02*
G03I-787J0D01*
G37*
G36*
G01X45988Y49000D02*
G03I-488J0D01*
G37*
G36*
G01X155287Y18000D02*
G03I-787J0D01*
G37*
G54D10*
G01X6357Y23792D02*
X6587Y23947D01*
X6855Y24050D01*
X7162D01*
X7507Y23895D01*
X7775Y23637D01*
X7967Y23327D01*
X8120Y22810D01*
X8158Y22345D01*
X8082Y21880D01*
X7967Y21570D01*
X7737Y21260D01*
X7468Y21053D01*
X7200Y20950D01*
X6932D01*
X6663Y21053D01*
X6433Y21208D01*
X6242Y21415D01*
G01X4500Y20950D02*
Y24050D01*
X4960Y23430D01*
G01Y20950D02*
X4040D01*
G01X2528Y22242D02*
X2260Y22603D01*
X2030Y22810D01*
X1723Y22913D01*
X1455Y22810D01*
X1263Y22603D01*
X1110Y22293D01*
X1072Y21932D01*
X1110Y21622D01*
X1263Y21312D01*
X1493Y21053D01*
X1762Y20950D01*
X2068Y21053D01*
X2337Y21363D01*
X2490Y21828D01*
X2528Y22345D01*
X2452Y23017D01*
X2337Y23378D01*
X2145Y23740D01*
X1877Y23998D01*
X1608Y24050D01*
X1340Y23947D01*
X1148Y23688D01*
G01X6357Y33292D02*
X6587Y33447D01*
X6855Y33550D01*
X7162D01*
X7507Y33395D01*
X7775Y33137D01*
X7967Y32827D01*
X8120Y32310D01*
X8158Y31845D01*
X8082Y31380D01*
X7967Y31070D01*
X7737Y30760D01*
X7468Y30553D01*
X7200Y30450D01*
X6932D01*
X6663Y30553D01*
X6433Y30708D01*
X6242Y30915D01*
G01X4500Y30450D02*
Y33550D01*
X4960Y32930D01*
G01Y30450D02*
X4040D01*
G01X1800D02*
X1532Y30502D01*
X1225Y30657D01*
X1033Y30915D01*
X957Y31277D01*
X1033Y31638D01*
X1263Y31948D01*
X1608Y32103D01*
X1992D01*
X2222Y32207D01*
X2413Y32465D01*
X2490Y32827D01*
X2375Y33188D01*
X2107Y33447D01*
X1800Y33550D01*
X1493Y33447D01*
X1225Y33188D01*
X1110Y32827D01*
X1187Y32465D01*
X1378Y32207D01*
X1608Y32103D01*
X1992D01*
X2337Y31948D01*
X2567Y31638D01*
X2643Y31277D01*
X2567Y30915D01*
X2375Y30657D01*
X2068Y30502D01*
X1800Y30450D01*
G01X6357Y45792D02*
X6587Y45947D01*
X6855Y46050D01*
X7162D01*
X7507Y45895D01*
X7775Y45637D01*
X7967Y45327D01*
X8120Y44810D01*
X8158Y44345D01*
X8082Y43880D01*
X7967Y43570D01*
X7737Y43260D01*
X7468Y43053D01*
X7200Y42950D01*
X6932D01*
X6663Y43053D01*
X6433Y43208D01*
X6242Y43415D01*
G01X4500Y42950D02*
Y46050D01*
X4960Y45430D01*
G01Y42950D02*
X4040D01*
G01X2452Y43312D02*
X2183Y43053D01*
X1877Y42950D01*
X1570Y43053D01*
X1302Y43363D01*
X1110Y43828D01*
X1033Y44293D01*
Y44862D01*
X1110Y45327D01*
X1302Y45740D01*
X1532Y45947D01*
X1800Y46050D01*
X2107Y45947D01*
X2337Y45740D01*
X2490Y45430D01*
X2567Y45017D01*
X2490Y44655D01*
X2298Y44293D01*
X2068Y44087D01*
X1800Y44035D01*
X1493Y44138D01*
X1263Y44397D01*
X1033Y44862D01*
G01X14792Y8493D02*
X14947Y8263D01*
X15050Y7995D01*
Y7688D01*
X14895Y7343D01*
X14637Y7075D01*
X14327Y6883D01*
X13810Y6730D01*
X13345Y6692D01*
X12880Y6768D01*
X12570Y6883D01*
X12260Y7113D01*
X12053Y7382D01*
X11950Y7650D01*
Y7918D01*
X12053Y8187D01*
X12208Y8417D01*
X12415Y8608D01*
G01X12312Y9698D02*
X12053Y9967D01*
X11950Y10273D01*
X12053Y10580D01*
X12363Y10848D01*
X12828Y11040D01*
X13293Y11117D01*
X13862D01*
X14327Y11040D01*
X14740Y10848D01*
X14947Y10618D01*
X15050Y10350D01*
X14947Y10043D01*
X14740Y9813D01*
X14430Y9660D01*
X14017Y9583D01*
X13655Y9660D01*
X13293Y9852D01*
X13087Y10082D01*
X13035Y10350D01*
X13138Y10657D01*
X13397Y10887D01*
X13862Y11117D01*
G01X14693Y18050D02*
Y15828D01*
X14540Y15363D01*
X14233Y15053D01*
X13850Y14950D01*
X13467Y15053D01*
X13160Y15363D01*
X13007Y15828D01*
Y18050D01*
G01X11993Y15415D02*
X11763Y15157D01*
X11495Y15002D01*
X11150Y14950D01*
X10805Y15053D01*
X10537Y15260D01*
X10345Y15622D01*
X10307Y16035D01*
X10383Y16448D01*
X10575Y16707D01*
X10843Y16913D01*
X11112Y16965D01*
X11380Y16913D01*
X11725Y16707D01*
X11610Y18050D01*
X10575D01*
G01X14693Y56450D02*
Y59550D01*
X13927D01*
X13620Y59395D01*
X13390Y59188D01*
X13198Y58878D01*
X13045Y58517D01*
X13007Y58000D01*
X13045Y57483D01*
X13198Y57122D01*
X13390Y56812D01*
X13620Y56605D01*
X13927Y56450D01*
X14693D01*
G01X11150D02*
Y59550D01*
X11610Y58930D01*
G01Y56450D02*
X10690D01*
G01X19050Y1307D02*
X16828D01*
X16363Y1460D01*
X16053Y1767D01*
X15950Y2150D01*
X16053Y2533D01*
X16363Y2840D01*
X16828Y2993D01*
X19050D01*
G01X16570Y4007D02*
X16208Y4237D01*
X16002Y4543D01*
X15950Y4888D01*
X16002Y5195D01*
X16260Y5502D01*
X16570Y5693D01*
X16880Y5732D01*
X17242Y5655D01*
X17500Y5387D01*
X17603Y5118D01*
Y4773D01*
G01Y5118D02*
X17758Y5348D01*
X18017Y5540D01*
X18327Y5617D01*
X18637Y5540D01*
X18895Y5348D01*
X19050Y5003D01*
X18998Y4658D01*
X18792Y4313D01*
G01X42193Y47050D02*
Y44828D01*
X42040Y44363D01*
X41733Y44053D01*
X41350Y43950D01*
X40967Y44053D01*
X40660Y44363D01*
X40507Y44828D01*
Y47050D01*
G01X38190Y43950D02*
Y47050D01*
X39608Y44828D01*
X37692D01*
G01X53007Y11292D02*
X53237Y11447D01*
X53505Y11550D01*
X53812D01*
X54157Y11395D01*
X54425Y11137D01*
X54617Y10827D01*
X54770Y10310D01*
X54808Y9845D01*
X54732Y9380D01*
X54617Y9070D01*
X54387Y8760D01*
X54118Y8553D01*
X53850Y8450D01*
X53582D01*
X53313Y8553D01*
X53083Y8708D01*
X52892Y8915D01*
G01X51878Y9742D02*
X51610Y10103D01*
X51380Y10310D01*
X51073Y10413D01*
X50805Y10310D01*
X50613Y10103D01*
X50460Y9793D01*
X50422Y9432D01*
X50460Y9122D01*
X50613Y8812D01*
X50843Y8553D01*
X51112Y8450D01*
X51418Y8553D01*
X51687Y8863D01*
X51840Y9328D01*
X51878Y9845D01*
X51802Y10517D01*
X51687Y10878D01*
X51495Y11240D01*
X51227Y11498D01*
X50958Y11550D01*
X50690Y11447D01*
X50498Y11188D01*
G01X54617Y12450D02*
Y15550D01*
X53658D01*
X53352Y15395D01*
X53160Y15188D01*
X53083Y14775D01*
X53160Y14362D01*
X53390Y14103D01*
X53658Y13948D01*
X54617D01*
G01X53658D02*
X53083Y12450D01*
G01X51878Y15033D02*
X51648Y15343D01*
X51380Y15498D01*
X51073Y15550D01*
X50690Y15447D01*
X50422Y15188D01*
X50345Y14878D01*
X50383Y14568D01*
X50537Y14310D01*
X51303Y13793D01*
X51648Y13432D01*
X51878Y12915D01*
X51955Y12450D01*
X50345D01*
G01X53857Y19292D02*
X54087Y19447D01*
X54355Y19550D01*
X54662D01*
X55007Y19395D01*
X55275Y19137D01*
X55467Y18827D01*
X55620Y18310D01*
X55658Y17845D01*
X55582Y17380D01*
X55467Y17070D01*
X55237Y16760D01*
X54968Y16553D01*
X54700Y16450D01*
X54432D01*
X54163Y16553D01*
X53933Y16708D01*
X53742Y16915D01*
G01X52000Y16450D02*
Y19550D01*
X52460Y18930D01*
G01Y16450D02*
X51540D01*
G01X49300Y19550D02*
X49607Y19447D01*
X49837Y19188D01*
X49990Y18878D01*
X50105Y18465D01*
X50143Y18000D01*
X50105Y17535D01*
X49990Y17122D01*
X49837Y16812D01*
X49607Y16553D01*
X49300Y16450D01*
X48993Y16553D01*
X48763Y16812D01*
X48610Y17122D01*
X48495Y17535D01*
X48457Y18000D01*
X48495Y18465D01*
X48610Y18878D01*
X48763Y19188D01*
X48993Y19447D01*
X49300Y19550D01*
G01X53857Y28292D02*
X54087Y28447D01*
X54355Y28550D01*
X54662D01*
X55007Y28395D01*
X55275Y28137D01*
X55467Y27827D01*
X55620Y27310D01*
X55658Y26845D01*
X55582Y26380D01*
X55467Y26070D01*
X55237Y25760D01*
X54968Y25553D01*
X54700Y25450D01*
X54432D01*
X54163Y25553D01*
X53933Y25708D01*
X53742Y25915D01*
G01X52728Y28033D02*
X52498Y28343D01*
X52230Y28498D01*
X51923Y28550D01*
X51540Y28447D01*
X51272Y28188D01*
X51195Y27878D01*
X51233Y27568D01*
X51387Y27310D01*
X52153Y26793D01*
X52498Y26432D01*
X52728Y25915D01*
X52805Y25450D01*
X51195D01*
G01X49300D02*
Y28550D01*
X49760Y27930D01*
G01Y25450D02*
X48840D01*
G01X53857Y32292D02*
X54087Y32447D01*
X54355Y32550D01*
X54662D01*
X55007Y32395D01*
X55275Y32137D01*
X55467Y31827D01*
X55620Y31310D01*
X55658Y30845D01*
X55582Y30380D01*
X55467Y30070D01*
X55237Y29760D01*
X54968Y29553D01*
X54700Y29450D01*
X54432D01*
X54163Y29553D01*
X53933Y29708D01*
X53742Y29915D01*
G01X52728Y32033D02*
X52498Y32343D01*
X52230Y32498D01*
X51923Y32550D01*
X51540Y32447D01*
X51272Y32188D01*
X51195Y31878D01*
X51233Y31568D01*
X51387Y31310D01*
X52153Y30793D01*
X52498Y30432D01*
X52728Y29915D01*
X52805Y29450D01*
X51195D01*
G01X49300Y32550D02*
X49607Y32447D01*
X49837Y32188D01*
X49990Y31878D01*
X50105Y31465D01*
X50143Y31000D01*
X50105Y30535D01*
X49990Y30122D01*
X49837Y29812D01*
X49607Y29553D01*
X49300Y29450D01*
X48993Y29553D01*
X48763Y29812D01*
X48610Y30122D01*
X48495Y30535D01*
X48457Y31000D01*
X48495Y31465D01*
X48610Y31878D01*
X48763Y32188D01*
X48993Y32447D01*
X49300Y32550D01*
G01X53617Y33450D02*
Y36550D01*
X52658D01*
X52352Y36395D01*
X52160Y36188D01*
X52083Y35775D01*
X52160Y35362D01*
X52390Y35103D01*
X52658Y34948D01*
X53617D01*
G01X52658D02*
X52083Y33450D01*
G01X50993Y33915D02*
X50763Y33657D01*
X50495Y33502D01*
X50150Y33450D01*
X49805Y33553D01*
X49537Y33760D01*
X49345Y34122D01*
X49307Y34535D01*
X49383Y34948D01*
X49575Y35207D01*
X49843Y35413D01*
X50112Y35465D01*
X50380Y35413D01*
X50725Y35207D01*
X50610Y36550D01*
X49575D01*
G01X53617Y37450D02*
Y40550D01*
X52658D01*
X52352Y40395D01*
X52160Y40188D01*
X52083Y39775D01*
X52160Y39362D01*
X52390Y39103D01*
X52658Y38948D01*
X53617D01*
G01X52658D02*
X52083Y37450D01*
G01X50878Y38742D02*
X50610Y39103D01*
X50380Y39310D01*
X50073Y39413D01*
X49805Y39310D01*
X49613Y39103D01*
X49460Y38793D01*
X49422Y38432D01*
X49460Y38122D01*
X49613Y37812D01*
X49843Y37553D01*
X50112Y37450D01*
X50418Y37553D01*
X50687Y37863D01*
X50840Y38328D01*
X50878Y38845D01*
X50802Y39517D01*
X50687Y39878D01*
X50495Y40240D01*
X50227Y40498D01*
X49958Y40550D01*
X49690Y40447D01*
X49498Y40188D01*
G01X62792Y39143D02*
X62947Y38913D01*
X63050Y38645D01*
Y38338D01*
X62895Y37993D01*
X62637Y37725D01*
X62327Y37533D01*
X61810Y37380D01*
X61345Y37342D01*
X60880Y37418D01*
X60570Y37533D01*
X60260Y37763D01*
X60053Y38032D01*
X59950Y38300D01*
Y38568D01*
X60053Y38837D01*
X60208Y39067D01*
X60415Y39258D01*
G01X59950Y41000D02*
X63050D01*
X62430Y40540D01*
G01X59950D02*
Y41460D01*
G01X60415Y42857D02*
X60157Y43087D01*
X60002Y43355D01*
X59950Y43700D01*
X60053Y44045D01*
X60260Y44313D01*
X60622Y44505D01*
X61035Y44543D01*
X61448Y44467D01*
X61707Y44275D01*
X61913Y44007D01*
X61965Y43738D01*
X61913Y43470D01*
X61707Y43125D01*
X63050Y43240D01*
Y44275D01*
G01X70792Y47143D02*
X70947Y46913D01*
X71050Y46645D01*
Y46338D01*
X70895Y45993D01*
X70637Y45725D01*
X70327Y45533D01*
X69810Y45380D01*
X69345Y45342D01*
X68880Y45418D01*
X68570Y45533D01*
X68260Y45763D01*
X68053Y46032D01*
X67950Y46300D01*
Y46568D01*
X68053Y46837D01*
X68208Y47067D01*
X68415Y47258D01*
G01X67950Y49000D02*
X71050D01*
X70430Y48540D01*
G01X67950D02*
Y49460D01*
G01X70533Y50972D02*
X70843Y51202D01*
X70998Y51470D01*
X71050Y51777D01*
X70947Y52160D01*
X70688Y52428D01*
X70378Y52505D01*
X70068Y52467D01*
X69810Y52313D01*
X69293Y51547D01*
X68932Y51202D01*
X68415Y50972D01*
X67950Y50895D01*
Y52505D01*
G01X70792Y39143D02*
X70947Y38913D01*
X71050Y38645D01*
Y38338D01*
X70895Y37993D01*
X70637Y37725D01*
X70327Y37533D01*
X69810Y37380D01*
X69345Y37342D01*
X68880Y37418D01*
X68570Y37533D01*
X68260Y37763D01*
X68053Y38032D01*
X67950Y38300D01*
Y38568D01*
X68053Y38837D01*
X68208Y39067D01*
X68415Y39258D01*
G01X67950Y41000D02*
X71050D01*
X70430Y40540D01*
G01X67950D02*
Y41460D01*
G01X68570Y42857D02*
X68208Y43087D01*
X68002Y43393D01*
X67950Y43738D01*
X68002Y44045D01*
X68260Y44352D01*
X68570Y44543D01*
X68880Y44582D01*
X69242Y44505D01*
X69500Y44237D01*
X69603Y43968D01*
Y43623D01*
G01Y43968D02*
X69758Y44198D01*
X70017Y44390D01*
X70327Y44467D01*
X70637Y44390D01*
X70895Y44198D01*
X71050Y43853D01*
X70998Y43508D01*
X70792Y43163D01*
G01X66792Y39143D02*
X66947Y38913D01*
X67050Y38645D01*
Y38338D01*
X66895Y37993D01*
X66637Y37725D01*
X66327Y37533D01*
X65810Y37380D01*
X65345Y37342D01*
X64880Y37418D01*
X64570Y37533D01*
X64260Y37763D01*
X64053Y38032D01*
X63950Y38300D01*
Y38568D01*
X64053Y38837D01*
X64208Y39067D01*
X64415Y39258D01*
G01X63950Y41000D02*
X67050D01*
X66430Y40540D01*
G01X63950D02*
Y41460D01*
G01Y43623D02*
X64622Y43700D01*
X65190Y43815D01*
X65707Y43968D01*
X66275Y44160D01*
X67050Y44467D01*
Y42933D01*
G01X150007Y35792D02*
X150237Y35947D01*
X150505Y36050D01*
X150812D01*
X151157Y35895D01*
X151425Y35637D01*
X151617Y35327D01*
X151770Y34810D01*
X151808Y34345D01*
X151732Y33880D01*
X151617Y33570D01*
X151387Y33260D01*
X151118Y33053D01*
X150850Y32950D01*
X150582D01*
X150313Y33053D01*
X150083Y33208D01*
X149892Y33415D01*
G01X148878Y35533D02*
X148648Y35843D01*
X148380Y35998D01*
X148073Y36050D01*
X147690Y35947D01*
X147422Y35688D01*
X147345Y35378D01*
X147383Y35068D01*
X147537Y34810D01*
X148303Y34293D01*
X148648Y33932D01*
X148878Y33415D01*
X148955Y32950D01*
X147345D01*
G01X150007Y39292D02*
X150237Y39447D01*
X150505Y39550D01*
X150812D01*
X151157Y39395D01*
X151425Y39137D01*
X151617Y38827D01*
X151770Y38310D01*
X151808Y37845D01*
X151732Y37380D01*
X151617Y37070D01*
X151387Y36760D01*
X151118Y36553D01*
X150850Y36450D01*
X150582D01*
X150313Y36553D01*
X150083Y36708D01*
X149892Y36915D01*
G01X147690Y36450D02*
Y39550D01*
X149108Y37328D01*
X147192D01*
G01X150007Y42792D02*
X150237Y42947D01*
X150505Y43050D01*
X150812D01*
X151157Y42895D01*
X151425Y42637D01*
X151617Y42327D01*
X151770Y41810D01*
X151808Y41345D01*
X151732Y40880D01*
X151617Y40570D01*
X151387Y40260D01*
X151118Y40053D01*
X150850Y39950D01*
X150582D01*
X150313Y40053D01*
X150083Y40208D01*
X149892Y40415D01*
G01X148993D02*
X148763Y40157D01*
X148495Y40002D01*
X148150Y39950D01*
X147805Y40053D01*
X147537Y40260D01*
X147345Y40622D01*
X147307Y41035D01*
X147383Y41448D01*
X147575Y41707D01*
X147843Y41913D01*
X148112Y41965D01*
X148380Y41913D01*
X148725Y41707D01*
X148610Y43050D01*
X147575D01*
G01X150007Y46292D02*
X150237Y46447D01*
X150505Y46550D01*
X150812D01*
X151157Y46395D01*
X151425Y46137D01*
X151617Y45827D01*
X151770Y45310D01*
X151808Y44845D01*
X151732Y44380D01*
X151617Y44070D01*
X151387Y43760D01*
X151118Y43553D01*
X150850Y43450D01*
X150582D01*
X150313Y43553D01*
X150083Y43708D01*
X149892Y43915D01*
G01X148227Y43450D02*
X148150Y44122D01*
X148035Y44690D01*
X147882Y45207D01*
X147690Y45775D01*
X147383Y46550D01*
X148917D01*
G01X151617Y47450D02*
Y50550D01*
X150658D01*
X150352Y50395D01*
X150160Y50188D01*
X150083Y49775D01*
X150160Y49362D01*
X150390Y49103D01*
X150658Y48948D01*
X151617D01*
G01X150658D02*
X150083Y47450D01*
G01X148227D02*
X148150Y48122D01*
X148035Y48690D01*
X147882Y49207D01*
X147690Y49775D01*
X147383Y50550D01*
X148917D01*
G01X158693Y14050D02*
Y11828D01*
X158540Y11363D01*
X158233Y11053D01*
X157850Y10950D01*
X157467Y11053D01*
X157160Y11363D01*
X157007Y11828D01*
Y14050D01*
G01X155878Y13533D02*
X155648Y13843D01*
X155380Y13998D01*
X155073Y14050D01*
X154690Y13947D01*
X154422Y13688D01*
X154345Y13378D01*
X154383Y13068D01*
X154537Y12810D01*
X155303Y12293D01*
X155648Y11932D01*
X155878Y11415D01*
X155955Y10950D01*
X154345D01*
G01X152450Y4883D02*
X155550D01*
Y5842D01*
X155395Y6148D01*
X155188Y6340D01*
X154775Y6417D01*
X154362Y6340D01*
X154103Y6110D01*
X153948Y5842D01*
Y4883D01*
G01Y5842D02*
X152450Y6417D01*
G01Y8350D02*
X152502Y8618D01*
X152657Y8925D01*
X152915Y9117D01*
X153277Y9193D01*
X153638Y9117D01*
X153948Y8887D01*
X154103Y8542D01*
Y8158D01*
X154207Y7928D01*
X154465Y7737D01*
X154827Y7660D01*
X155188Y7775D01*
X155447Y8043D01*
X155550Y8350D01*
X155447Y8657D01*
X155188Y8925D01*
X154827Y9040D01*
X154465Y8963D01*
X154207Y8772D01*
X154103Y8542D01*
Y8158D01*
X153948Y7813D01*
X153638Y7583D01*
X153277Y7507D01*
X152915Y7583D01*
X152657Y7775D01*
X152502Y8082D01*
X152450Y8350D01*
G01X156950Y38383D02*
X160050D01*
Y39342D01*
X159895Y39648D01*
X159688Y39840D01*
X159275Y39917D01*
X158862Y39840D01*
X158603Y39610D01*
X158448Y39342D01*
Y38383D01*
G01Y39342D02*
X156950Y39917D01*
G01X157570Y41007D02*
X157208Y41237D01*
X157002Y41543D01*
X156950Y41888D01*
X157002Y42195D01*
X157260Y42502D01*
X157570Y42693D01*
X157880Y42732D01*
X158242Y42655D01*
X158500Y42387D01*
X158603Y42118D01*
Y41773D01*
G01Y42118D02*
X158758Y42348D01*
X159017Y42540D01*
X159327Y42617D01*
X159637Y42540D01*
X159895Y42348D01*
X160050Y42003D01*
X159998Y41658D01*
X159792Y41313D01*
G01X166792Y1993D02*
X166947Y1763D01*
X167050Y1495D01*
Y1188D01*
X166895Y843D01*
X166637Y575D01*
X166327Y383D01*
X165810Y230D01*
X165345Y192D01*
X164880Y268D01*
X164570Y383D01*
X164260Y613D01*
X164053Y882D01*
X163950Y1150D01*
Y1418D01*
X164053Y1687D01*
X164208Y1917D01*
X164415Y2108D01*
G01X163950Y3850D02*
X167050D01*
X166430Y3390D01*
G01X163950D02*
Y4310D01*
G01X174292Y13493D02*
X174447Y13263D01*
X174550Y12995D01*
Y12688D01*
X174395Y12343D01*
X174137Y12075D01*
X173827Y11883D01*
X173310Y11730D01*
X172845Y11692D01*
X172380Y11768D01*
X172070Y11883D01*
X171760Y12113D01*
X171553Y12382D01*
X171450Y12650D01*
Y12918D01*
X171553Y13187D01*
X171708Y13417D01*
X171915Y13608D01*
G01X172070Y14507D02*
X171708Y14737D01*
X171502Y15043D01*
X171450Y15388D01*
X171502Y15695D01*
X171760Y16002D01*
X172070Y16193D01*
X172380Y16232D01*
X172742Y16155D01*
X173000Y15887D01*
X173103Y15618D01*
Y15273D01*
G01Y15618D02*
X173258Y15848D01*
X173517Y16040D01*
X173827Y16117D01*
X174137Y16040D01*
X174395Y15848D01*
X174550Y15503D01*
X174498Y15158D01*
X174292Y14813D01*
G01X173792Y40143D02*
X173947Y39913D01*
X174050Y39645D01*
Y39338D01*
X173895Y38993D01*
X173637Y38725D01*
X173327Y38533D01*
X172810Y38380D01*
X172345Y38342D01*
X171880Y38418D01*
X171570Y38533D01*
X171260Y38763D01*
X171053Y39032D01*
X170950Y39300D01*
Y39568D01*
X171053Y39837D01*
X171208Y40067D01*
X171415Y40258D01*
G01X170950Y42000D02*
X174050D01*
X173430Y41540D01*
G01X170950D02*
Y42460D01*
G01Y44700D02*
X174050D01*
X173430Y44240D01*
G01X170950D02*
Y45160D01*
G01X166950Y38383D02*
X170050D01*
Y39342D01*
X169895Y39648D01*
X169688Y39840D01*
X169275Y39917D01*
X168862Y39840D01*
X168603Y39610D01*
X168448Y39342D01*
Y38383D01*
G01Y39342D02*
X166950Y39917D01*
G01Y42310D02*
X170050D01*
X167828Y40892D01*
Y42808D01*
G01X176950Y4883D02*
X180050D01*
Y5842D01*
X179895Y6148D01*
X179688Y6340D01*
X179275Y6417D01*
X178862Y6340D01*
X178603Y6110D01*
X178448Y5842D01*
Y4883D01*
G01Y5842D02*
X176950Y6417D01*
G01Y8350D02*
X180050D01*
X179430Y7890D01*
G01X176950D02*
Y8810D01*
G01X178792Y28993D02*
X178947Y28763D01*
X179050Y28495D01*
Y28188D01*
X178895Y27843D01*
X178637Y27575D01*
X178327Y27383D01*
X177810Y27230D01*
X177345Y27192D01*
X176880Y27268D01*
X176570Y27383D01*
X176260Y27613D01*
X176053Y27882D01*
X175950Y28150D01*
Y28418D01*
X176053Y28687D01*
X176208Y28917D01*
X176415Y29108D01*
G01X175950Y30850D02*
X176002Y31118D01*
X176157Y31425D01*
X176415Y31617D01*
X176777Y31693D01*
X177138Y31617D01*
X177448Y31387D01*
X177603Y31042D01*
Y30658D01*
X177707Y30428D01*
X177965Y30237D01*
X178327Y30160D01*
X178688Y30275D01*
X178947Y30543D01*
X179050Y30850D01*
X178947Y31157D01*
X178688Y31425D01*
X178327Y31540D01*
X177965Y31463D01*
X177707Y31272D01*
X177603Y31042D01*
Y30658D01*
X177448Y30313D01*
X177138Y30083D01*
X176777Y30007D01*
X176415Y30083D01*
X176157Y30275D01*
X176002Y30582D01*
X175950Y30850D01*
G54D11*
G01X71000Y35500D02*
X60500D01*
X54500Y41500D01*
X40000D01*
X35000Y46500D01*
X22500D01*
G01X37000Y22500D02*
X43500D01*
X45500Y24500D01*
X56000D01*
G01X37000Y15500D02*
X43500D01*
X48500Y20500D01*
X55500D01*
G54D12*
G01X7256Y24925D02*
X1744D01*
Y28075D01*
X7256D01*
Y24925D01*
G01X1744Y37575D02*
X7256D01*
Y34425D01*
X1744D01*
Y37575D01*
G01Y41575D02*
X7256D01*
Y38425D01*
X1744D01*
Y41575D01*
G01X19075Y11756D02*
Y6244D01*
X15925D01*
Y11756D01*
X19075D01*
G01X25275Y52856D02*
Y47344D01*
X22125D01*
Y52856D01*
X25275D01*
G01X30925Y47344D02*
Y52856D01*
X34075D01*
Y47344D01*
X30925D01*
G01X29075Y52856D02*
Y47344D01*
X25925D01*
Y52856D01*
X29075D01*
G01X34075Y58756D02*
Y53244D01*
X30925D01*
Y58756D01*
X34075D01*
G01X43256Y3425D02*
X37744D01*
Y6575D01*
X43256D01*
Y3425D01*
G01Y11425D02*
X37744D01*
Y14575D01*
X43256D01*
Y11425D01*
G01X37744Y10575D02*
X43256D01*
Y7425D01*
X37744D01*
Y10575D01*
G01X43256Y23425D02*
X37744D01*
Y26575D01*
X43256D01*
Y23425D01*
G01Y27425D02*
X37744D01*
Y30575D01*
X43256D01*
Y27425D01*
G01Y31425D02*
X37744D01*
Y34575D01*
X43256D01*
Y31425D01*
G01Y35425D02*
X37744D01*
Y38575D01*
X43256D01*
Y35425D01*
G01X147244Y16575D02*
X152756D01*
Y13425D01*
X147244D01*
Y16575D01*
G01Y20575D02*
X152756D01*
Y17425D01*
X147244D01*
Y20575D01*
G01Y24575D02*
X152756D01*
Y21425D01*
X147244D01*
Y24575D01*
G01Y28575D02*
X152756D01*
Y25425D01*
X147244D01*
Y28575D01*
G01X152756Y28925D02*
X147244D01*
Y32075D01*
X152756D01*
Y28925D01*
G01X159575Y9756D02*
Y4244D01*
X156425D01*
Y9756D01*
X159575D01*
G01X156925Y31744D02*
Y37256D01*
X160075D01*
Y31744D01*
X156925D01*
G01X171968Y10937D02*
X167638D01*
Y3063D01*
X172362D01*
Y10937D01*
X171968D01*
G01X172925Y4244D02*
Y9756D01*
X176075D01*
Y4244D01*
X172925D01*
G01X170925Y31744D02*
Y37256D01*
X174075D01*
Y31744D01*
X170925D01*
G01X166925D02*
Y37256D01*
X170075D01*
Y31744D01*
X166925D01*
G01X179468Y19437D02*
X175138D01*
Y11563D01*
X179862D01*
Y19437D01*
X179468D01*
G01X179075Y25756D02*
Y20244D01*
X175925D01*
Y25756D01*
X179075D01*
G01X208902Y26618D02*
Y16382D01*
X184098D01*
Y26618D01*
X208902D01*
G54D13*
G01X4421Y47957D02*
G03I-492J0D01*
G54D14*
G01X12559Y19689D02*
X10689D01*
Y21559D01*
G01X12559Y43311D02*
X10689D01*
Y41441D01*
G01X10032Y54650D02*
Y48350D01*
G01X9244Y54650D02*
Y48350D01*
G01X8457Y54650D02*
Y48350D01*
G01X6685Y54650D02*
X17315D01*
G01X6685Y48350D02*
X17315D01*
G01X35402Y3094D02*
Y14906D01*
X20598D01*
Y3094D01*
X35402D01*
G01X30272Y8803D02*
G03I-1761J0D01*
G01X34311Y21559D02*
Y19689D01*
X32441D01*
G01X34311Y41441D02*
Y43311D01*
X32441D01*
G01X36063Y57921D02*
Y48079D01*
X43937D01*
Y57921D01*
X36063D01*
G01X51118Y4425D02*
X47181D01*
Y57575D01*
X51118D01*
G01X120016Y4425D02*
X144819D01*
Y57575D01*
X120016D01*
G01X158094Y15980D02*
Y15094D01*
X158980D01*
G01X158094Y26020D02*
Y26906D01*
X158980D01*
G01X169020Y15094D02*
X169906D01*
Y15980D01*
G01X169020Y26906D02*
X169906D01*
Y26020D01*
M02*
