G04 ================== begin FILE IDENTIFICATION RECORD ==================*
G04 Layout Name:  E:/material/glass/workspace/hardware/6.glass v1.1/core-pcb/core.brd*
G04 Film Name:    SILKSCREEN_TOP*
G04 File Format:  Gerber RS274X*
G04 File Origin:  Cadence Allegro 16.6-2015-S065*
G04 Origin Date:  Fri Dec 16 12:07:49 2016*
G04 *
G04 Layer:  PACKAGE GEOMETRY/SILKSCREEN_TOP*
G04 Layer:  BOARD GEOMETRY/SILKSCREEN_TOP*
G04 *
G04 Offset:    (0.000 0.000)*
G04 Mirror:    No*
G04 Mode:      Positive*
G04 Rotation:  0*
G04 FullContactRelief:  No*
G04 UndefLineWidth:     1.000*
G04 ================== end FILE IDENTIFICATION RECORD ====================*
%FSLAX25Y25*MOIN*%
%IR0*IPPOS*OFA0.00000B0.00000*MIA0B0*SFA1.00000B1.00000*%
%ADD10C,.002*%
%ADD11C,.003937*%
%ADD12C,.009843*%
%ADD13C,.007874*%
G75*
%LPD*%
G75*
G36*
G01X7640Y24224D02*
X7220D01*
Y19259D01*
X7640D01*
Y21742D01*
Y24224D01*
G37*
G36*
G01X10756Y22836D02*
G03X10343Y22923I-646J-2042D01*
G03X9918Y22928I-234J-2148D01*
G03X9545Y22844I125J-1424D01*
G03X8807Y22294I574J-1542D01*
G03X8421Y21397I1630J-1233D01*
G03X8492Y20413I2068J-345D01*
G03X9008Y19625I1681J538D01*
G03X9690Y19251I1184J1349D01*
G03X10452Y19210I467J1602D01*
G03X11158Y19514I-299J1666D01*
G03X11680Y20104I-1110J1506D01*
G03X11852Y20557I-1443J809D01*
G03X11906Y21082I-2241J494D01*
G03X11838Y21606I-2307J-31D01*
G03X11654Y22059I-1650J-408D01*
G03X11540Y22228I-1450J-853D01*
G03X11392Y22405I-2164J-1655D01*
G03X11236Y22564I-1924J-1748D01*
G03X11095Y22674I-747J-805D01*
G03X10756Y22836I-748J-1130D01*
G37*
G36*
G01X19776Y58140D02*
G03X19597Y58186I-321J-868D01*
G03X19338Y58210I-329J-2119D01*
G03X18916Y58218I-446J-13588D01*
G03X18456Y58212I-32J-16907D01*
G03X18214Y58187I39J-1565D01*
G03X18048Y58132I113J-614D01*
G03X17894Y58030I344J-691D01*
G03X17577Y57625I816J-965D01*
G01X12412Y47173D01*
X7240Y36696D01*
G03X7136Y36247I911J-449D01*
G03X7186Y35935I983J0D01*
G03X7368Y35460I5699J1907D01*
G03X7588Y35003I5581J2410D01*
G03X7776Y34764I776J415D01*
G01X7986Y34574D01*
X18412D01*
Y30509D01*
G03X18416Y28466I451908J18D01*
G03X18434Y27277I57872J261D01*
G03X18460Y26466I59679J1495D01*
G03X18517Y26317I249J10D01*
G03X18583Y26247I568J471D01*
G03X18720Y26123I5920J6370D01*
G03X18885Y25979I6213J6978D01*
G03X19061Y25833I7206J8487D01*
G03X19300Y25649I3302J4057D01*
G03X19470Y25550I582J806D01*
G03X19620Y25506I230J503D01*
G03X19786Y25502I102J699D01*
G03X20062Y25604I-52J564D01*
G03X21206Y26428I-66945J94141D01*
G03X22922Y27702I-75977J104135D01*
G03X26050Y30072I-765681J1013669D01*
G03X29590Y32770I-1169103J1537917D01*
G03X31081Y33935I-51664J67635D01*
G03X31930Y34636I-22653J28334D01*
G03X32106Y34916I-359J422D01*
G03X32071Y35280I-507J134D01*
G03X31350Y36726I-73166J-35602D01*
G03X30019Y39280I-169840J-86851D01*
G01X26151Y46562D01*
G03X23697Y51161I-1712584J-910823D01*
G03X21737Y54800I-686775J-367624D01*
G01X20054Y57900D01*
G03X19916Y58062I-451J-245D01*
G03X19776Y58140I-325J-423D01*
G37*
G36*
G01X17234Y24224D02*
X16729D01*
Y19259D01*
X17234D01*
Y21742D01*
Y24224D01*
G37*
G36*
G01X18929Y21996D02*
G03X18652Y22041I-269J-785D01*
G03X18372Y21990I8J-847D01*
G03X18162Y21852I181J-503D01*
G03X18030Y21630I446J-415D01*
G03X17989Y21354I767J-256D01*
G03X18043Y21083I797J19D01*
G03X18186Y20873I537J210D01*
G03X18388Y20745I432J460D01*
G03X18632Y20696I262J672D01*
G03X18879Y20732I19J734D01*
G03X19094Y20849I-211J643D01*
G03X19238Y21048I-296J365D01*
G03X19296Y21334I-849J321D01*
G03X19260Y21631I-950J36D01*
G03X19133Y21861I-557J-159D01*
G03X18929Y21996I-363J-329D01*
G37*
G36*
G01X14908Y22822D02*
G03X14506Y22914I-754J-2361D01*
G03X14095Y22938I-348J-2437D01*
G03X13757Y22881I31J-1206D01*
G03X13286Y22624I435J-1357D01*
G03X12885Y22185I1344J-1630D01*
G03X12614Y21640I1829J-1249D01*
G03X12522Y21073I1681J-564D01*
G03X12567Y20693I1643J3D01*
G03X12702Y20276I2733J655D01*
G03X12897Y19894I2513J1038D01*
G03X13121Y19621I1087J665D01*
G03X13700Y19279I1092J1188D01*
G03X14388Y19188I576J1718D01*
G03X15058Y19363I-111J1803D01*
G03X15588Y19773I-691J1440D01*
G03X15825Y20102I-2042J1721D01*
G03X15969Y20419I-1233J753D01*
G03X16037Y20768I-1462J464D01*
G03X16041Y21200I-3291J247D01*
G03X15970Y21661I-2404J-136D01*
G03X15813Y22054I-1596J-408D01*
G03X15565Y22388I-1384J-770D01*
G03X15222Y22672I-1487J-1444D01*
G03X14908Y22822I-699J-1056D01*
G37*
G36*
G01X20431Y24140D02*
X19926D01*
Y19259D01*
X22198D01*
Y19764D01*
X20431D01*
Y21952D01*
Y24140D01*
G37*
G36*
G01X28749Y22947D02*
G03X28352Y22937I-169J-1156D01*
G03X27967Y22793I246J-1240D01*
G03X27605Y22520I925J-1604D01*
G01X27331Y22256D01*
Y22566D01*
G03X27324Y22744I-2326J-1D01*
G03X27296Y22825I-168J-13D01*
G03X27237Y22866I-79J-54D01*
G03X27121Y22878I-116J-546D01*
G01X26911D01*
Y19259D01*
X27109D01*
G03X27224Y19300I0J182D01*
G03X27287Y19404I-115J142D01*
G03X27318Y19642I-1434J308D01*
G03X27350Y20380I-77659J3707D01*
G02X27379Y20936I22064J-843D01*
G02X27417Y21324I5492J-348D01*
G02X27470Y21608I2844J-384D01*
G02X27545Y21820I1053J-252D01*
G02X27832Y22198I1038J-493D01*
G02X28243Y22419I706J-818D01*
G02X28688Y22439I264J-932D01*
G02X29073Y22254I-154J-812D01*
G01X29309Y22051D01*
X29362Y19259D01*
X29870D01*
X29842Y20669D01*
G03X29820Y21510I-67727J-1350D01*
G03X29788Y21906I-4200J-136D01*
G03X29730Y22160I-1291J-165D01*
G03X29623Y22385I-1032J-351D01*
G03X29529Y22512I-854J-531D01*
G03X29405Y22641I-1251J-1083D01*
G03X29270Y22753I-1085J-1168D01*
G03X29148Y22826I-437J-588D01*
G03X28749Y22947I-602J-1269D01*
G37*
G36*
G01X24964Y22843D02*
G03X24518Y22937I-629J-1874D01*
G03X24064Y22927I-181J-1949D01*
G03X23665Y22808I195J-1383D01*
G03X23018Y22277I726J-1545D01*
G03X22661Y21477I1633J-1207D01*
G03X22672Y20590I2050J-419D01*
G03X23053Y19816I1828J420D01*
G03X23651Y19349I1355J1118D01*
G03X24386Y19182I736J1540D01*
G03X25120Y19348I1J1704D01*
G03X25717Y19814I-752J1579D01*
G03X25909Y20067I-3143J2590D01*
G03X25971Y20220I-298J209D01*
G03X25935Y20323I-116J18D01*
G03X25808Y20398I-229J-244D01*
G03X25709Y20409I-77J-244D01*
G03X25617Y20381I19J-224D01*
G03X25518Y20305I218J-387D01*
G03X25390Y20163I1591J-1559D01*
G02X25280Y20044I-1070J882D01*
G02X25146Y19926I-1387J1447D01*
G02X25009Y19826I-1160J1450D01*
G02X24894Y19765I-378J572D01*
G02X24574Y19690I-391J944D01*
G02X24190Y19702I-133J1896D01*
G02X23826Y19789I241J1802D01*
G02X23573Y19941I243J690D01*
G02X23404Y20134I809J877D01*
G02X23258Y20381I1528J1070D01*
G02X23157Y20637I1574J774D01*
G02X23124Y20855I707J218D01*
G02X23180Y20952I112J0D01*
G02X23332Y21003I196J-335D01*
G02X23668Y21023I358J-3183D01*
G02X24642Y21026I980J-141322D01*
G01X26161D01*
X26108Y21342D01*
G03X26006Y21723I-2033J-341D01*
G03X25829Y22094I-2248J-842D01*
G03X25600Y22416I-1932J-1130D01*
G03X25341Y22652I-1061J-905D01*
G03X24964Y22843I-845J-1202D01*
G37*
G36*
G01X31497Y22946D02*
G03X31041Y22820I-12J-850D01*
G03X30727Y22472I434J-707D01*
G03X30613Y21973I1041J-499D01*
G03X30626Y21756I1787J0D01*
G03X30669Y21608I480J59D01*
G03X30760Y21471I517J245D01*
G03X30936Y21290I2253J2014D01*
G03X31085Y21156I2632J2783D01*
G03X31267Y21007I4705J5525D01*
G03X31451Y20865I4455J5594D01*
G03X31607Y20755I1970J2644D01*
G02X31875Y20537I-926J-1406D01*
G02X32005Y20318I-373J-372D01*
G02X32001Y20101I-337J-102D01*
G02X31871Y19886I-569J198D01*
G02X31672Y19741I-477J449D01*
G02X31439Y19686I-250J533D01*
G02X31188Y19726I-21J679D01*
G02X30937Y19858I355J984D01*
G03X30776Y19966I-2517J-3533D01*
G03X30705Y19990I-80J-123D01*
G03X30647Y19968I-4J-76D01*
G03X30569Y19878I567J-579D01*
G03X30474Y19735I1005J-762D01*
G03X30464Y19647I99J-56D01*
G03X30519Y19564I162J47D01*
G03X30701Y19425I2127J2593D01*
G03X31289Y19192I763J1072D01*
G03X31876Y19283I140J1041D01*
G03X32305Y19673I-420J893D01*
G03X32464Y20254I-982J581D01*
G03X32417Y20540I-879J0D01*
G03X32279Y20808I-985J-338D01*
G03X32047Y21058I-1107J-793D01*
G03X31724Y21288I-1597J-1901D01*
G02X31591Y21372I1809J3026D01*
G02X31449Y21469I2821J4271D01*
G02X31318Y21566I2751J3879D01*
G02X31223Y21644I951J1246D01*
G02X31052Y21989I346J387D01*
G02X31187Y22315I387J31D01*
G02X31569Y22445I354J-413D01*
G02X31979Y22291I-38J-724D01*
G03X32118Y22188I1976J2515D01*
G03X32182Y22167I65J92D01*
G03X32240Y22190I0J85D01*
G03X32339Y22289I-1045J1134D01*
G03X32417Y22430I-265J240D01*
G03X32400Y22557I-152J44D01*
G03X32274Y22683I-328J-203D01*
G03X32006Y22828I-1487J-2425D01*
G03X31497Y22946I-526J-1108D01*
G37*
G36*
G01X164887Y29400D02*
G03I-787J0D01*
G37*
G36*
G01X233387Y37300D02*
G03I-787J0D01*
G37*
G36*
G01X275380Y24870D02*
G03I-880J0D01*
G37*
%LPC*%
G75*
G36*
G01X10268Y22448D02*
G02X10815Y22233I-167J-1227D01*
G02X11226Y21774I-795J-1124D01*
G02X11408Y21171I-1318J-728D01*
G02X11354Y20591I-1654J-137D01*
G02X11100Y20109I-1233J342D01*
G02X10681Y19792I-900J757D01*
G02X10155Y19680I-525J1170D01*
G02X9581Y19815I1J1292D01*
G02X9138Y20190I540J1087D01*
G02X8904Y20747I1081J783D01*
G02X8917Y21390I1677J289D01*
G02X9022Y21679I1080J-230D01*
G02X9217Y21977I1728J-921D01*
G02X9458Y22228I1484J-1179D01*
G02X9701Y22377I569J-655D01*
G02X10268Y22448I417J-1028D01*
G37*
G36*
G01X17576Y55524D02*
G02X17976Y56319I81643J-40540D01*
G01X18335Y57025D01*
G02X18363Y57042I28J-14D01*
G02X18383Y57022I0J-20D01*
G01X18397Y53878D01*
G02X18408Y50401I-1245031J-5570D01*
G01X18412Y46271D01*
Y35500D01*
X8350D01*
X8211Y35875D01*
X8072Y36251D01*
X11989Y44185D01*
X13578Y47403D01*
X15110Y50512D01*
X16416Y53164D01*
G03X17111Y54581I-592099J291411D01*
G02X17576Y55524I159731J-78136D01*
G37*
G36*
G01X14294Y22443D02*
G02X14914Y22253I-28J-1199D01*
G02X15381Y21749I-743J-1156D01*
G02X15550Y21077I-1247J-671D01*
G02X15461Y20516I-1806J1D01*
G02X15202Y20068I-1193J390D01*
G02X14799Y19781I-839J753D01*
G02X14297Y19680I-501J1194D01*
G02X13766Y19792I1J1327D01*
G02X13348Y20104I460J1050D01*
G02X13098Y20585I957J803D01*
G02X13045Y21171I1658J444D01*
G02X13106Y21515I1909J-158D01*
G02X13225Y21797I1090J-296D01*
G02X13418Y22040I1001J-596D01*
G02X13698Y22268I1484J-1540D01*
G02X14294Y22443I571J-840D01*
G37*
G36*
G01X24013Y22409D02*
G02X24326Y22449I317J-1216D01*
G02X24649Y22411I5J-1348D01*
G02X24958Y22296I-331J-1359D01*
G02X25169Y22152I-473J-921D01*
G02X25370Y21942I-1114J-1263D01*
G02X25518Y21719I-1193J-955D01*
G02X25564Y21539I-329J-179D01*
G02X25526Y21496I-44J0D01*
G02X25274Y21470I-654J5119D01*
G02X24915Y21452I-478J6118D01*
G02X24386Y21447I-532J27208D01*
G02X23874Y21452I4J25060D01*
G02X23510Y21470I136J6713D01*
G02X23244Y21495I514J6853D01*
G02X23208Y21535I5J41D01*
G02X23248Y21710I401J0D01*
G02X23379Y21933I1459J-707D01*
G02X23554Y22145I1418J-993D01*
G02X23738Y22292I668J-648D01*
G02X24013Y22409I535J-877D01*
G37*
%LPD*%
G75*
G54D10*
G01X174162Y19950D02*
X174638D01*
G01X174098Y25650D02*
X174538D01*
G01X174300Y25975D02*
Y25325D01*
G54D11*
G01X17256Y15575D02*
X11744D01*
Y12425D01*
X17256D01*
Y15575D01*
G01X34925Y7256D02*
Y1744D01*
X38075D01*
Y7256D01*
X34925D01*
G01X45075Y1744D02*
Y7256D01*
X41925D01*
Y1744D01*
X45075D01*
G01X41575D02*
Y7256D01*
X38425D01*
Y1744D01*
X41575D01*
G01X48575D02*
Y7256D01*
X45425D01*
Y1744D01*
X48575D01*
G01X55575D02*
Y7256D01*
X52425D01*
Y1744D01*
X55575D01*
G01X52075D02*
Y7256D01*
X48925D01*
Y1744D01*
X52075D01*
G01X47425Y58756D02*
Y53244D01*
X50575D01*
Y58756D01*
X47425D01*
G01X50925D02*
Y53244D01*
X54075D01*
Y58756D01*
X50925D01*
G01X130256Y14575D02*
X124744D01*
Y11425D01*
X130256D01*
Y14575D01*
G01Y11075D02*
X124744D01*
Y7925D01*
X130256D01*
Y11075D01*
G01Y18075D02*
X124744D01*
Y14925D01*
X130256D01*
Y18075D01*
G01Y31075D02*
X124744D01*
Y27925D01*
X130256D01*
Y31075D01*
G01X138937Y44968D02*
Y40638D01*
X131063D01*
Y45362D01*
X138937D01*
Y44968D01*
G01Y49968D02*
Y45638D01*
X131063D01*
Y50362D01*
X138937D01*
Y49968D01*
G01X142575Y21744D02*
Y27256D01*
X139425D01*
Y21744D01*
X142575D01*
G01X132563Y29032D02*
Y33362D01*
X140437D01*
Y28638D01*
X132563D01*
Y29032D01*
G01X138256Y40075D02*
X132744D01*
Y36925D01*
X138256D01*
Y40075D01*
G01Y36575D02*
X132744D01*
Y33425D01*
X138256D01*
Y36575D01*
G01X143075Y53744D02*
Y59256D01*
X139925D01*
Y53744D01*
X143075D01*
G01X144532Y25937D02*
X148862D01*
Y18063D01*
X144138D01*
Y25937D01*
X144532D01*
G01X146575Y53744D02*
Y59256D01*
X143425D01*
Y53744D01*
X146575D01*
G01X150075D02*
Y59256D01*
X146925D01*
Y53744D01*
X150075D01*
G01X152925Y25756D02*
Y20244D01*
X156075D01*
Y25756D01*
X152925D01*
G01X152575Y20244D02*
Y25756D01*
X149425D01*
Y20244D01*
X152575D01*
G01X150425Y59256D02*
Y53744D01*
X153575D01*
Y59256D01*
X150425D01*
G01X160575Y53744D02*
Y59256D01*
X157425D01*
Y53744D01*
X160575D01*
G01X157075D02*
Y59256D01*
X153925D01*
Y53744D01*
X157075D01*
G01X168575Y20244D02*
Y25756D01*
X165425D01*
Y20244D01*
X168575D01*
G01X158425Y25756D02*
Y20244D01*
X161575D01*
Y25756D01*
X158425D01*
G01X161925D02*
Y20244D01*
X165075D01*
Y25756D01*
X161925D01*
G01X160925Y59256D02*
Y53744D01*
X164075D01*
Y59256D01*
X160925D01*
G01X165032Y60937D02*
X169362D01*
Y53063D01*
X164638D01*
Y60937D01*
X165032D01*
G01X173468Y18063D02*
X169138D01*
Y25937D01*
X173862D01*
Y18063D01*
X173468D01*
G01X168744Y27425D02*
X174256D01*
Y30575D01*
X168744D01*
Y27425D01*
G01Y30925D02*
X174256D01*
Y34075D01*
X168744D01*
Y30925D01*
G01X174256Y41075D02*
X168744D01*
Y37925D01*
X174256D01*
Y41075D01*
G01X168744Y34425D02*
X174256D01*
Y37575D01*
X168744D01*
Y34425D01*
G01X174256Y48075D02*
X168744D01*
Y44925D01*
X174256D01*
Y48075D01*
G01X168744Y48425D02*
X174256D01*
Y51575D01*
X168744D01*
Y48425D01*
G01X174256Y44575D02*
X168744D01*
Y41425D01*
X174256D01*
Y44575D01*
G01X177205Y47642D02*
Y65358D01*
X202795D01*
Y47642D01*
X177205D01*
G01X185425Y37256D02*
Y31744D01*
X188575D01*
Y37256D01*
X185425D01*
G01X189425D02*
Y31744D01*
X192575D01*
Y37256D01*
X189425D01*
G01X196575Y10744D02*
Y16256D01*
X193425D01*
Y10744D01*
X196575D01*
G01X219756Y51075D02*
X214244D01*
Y47925D01*
X219756D01*
Y51075D01*
G01X223744Y32425D02*
X229256D01*
Y35575D01*
X223744D01*
Y32425D01*
G01Y28425D02*
X229256D01*
Y31575D01*
X223744D01*
Y28425D01*
G01Y24425D02*
X229256D01*
Y27575D01*
X223744D01*
Y24425D01*
G01Y36425D02*
X229256D01*
Y39575D01*
X223744D01*
Y36425D01*
G01X234425Y21256D02*
Y15744D01*
X237575D01*
Y21256D01*
X234425D01*
G01X234063Y44532D02*
Y48862D01*
X241937D01*
Y44138D01*
X234063D01*
Y44532D01*
G01X243425Y21256D02*
Y15744D01*
X246575D01*
Y21256D01*
X243425D01*
G01X238925D02*
Y15744D01*
X242075D01*
Y21256D01*
X238925D01*
G01X242925Y49256D02*
Y43744D01*
X246075D01*
Y49256D01*
X242925D01*
G01X257256Y28575D02*
X251744D01*
Y25425D01*
X257256D01*
Y28575D01*
G01X256468Y29563D02*
X252138D01*
Y37437D01*
X256862D01*
Y29563D01*
X256468D01*
G01X272756Y22575D02*
X267244D01*
Y19425D01*
X272756D01*
Y22575D01*
G01X263425Y46256D02*
Y40744D01*
X266575D01*
Y46256D01*
X263425D01*
G01X271575Y40744D02*
Y46256D01*
X268425D01*
Y40744D01*
X271575D01*
G01X273425Y46256D02*
Y40744D01*
X276575D01*
Y46256D01*
X273425D01*
G54D12*
G01X37592Y51600D02*
G03I-492J0D01*
G01X119292Y44200D02*
G03I-492J0D01*
G01X137192Y19100D02*
G03I-492J0D01*
G54D13*
G01X39094Y11118D02*
Y50882D01*
X78858D01*
Y11118D01*
X39094D01*
G01X90752Y40748D02*
X122248D01*
Y9252D01*
X90752D01*
Y40748D01*
G01X145417Y-4842D02*
Y14843D01*
X172583D01*
Y-4842D01*
X145417D01*
G01X143945Y30658D02*
X143158D01*
Y31445D01*
G01X143945Y50342D02*
X143158D01*
Y49555D01*
G01X162842Y31445D02*
Y30658D01*
X162055D01*
G01X162842Y49555D02*
Y50342D01*
X162055D01*
G01X185472Y43705D02*
X183898Y45280D01*
Y42130D01*
X185472Y43705D01*
G01X218343Y1362D02*
Y-8480D01*
X198658D01*
Y1362D01*
G01X208500D02*
X219524D01*
Y46638D01*
X197476D01*
Y1362D01*
X208500D01*
G01X234595Y26980D02*
Y26094D01*
X235480D01*
G01X234595Y37020D02*
Y37906D01*
X235480D01*
G01X245520Y26094D02*
X246406D01*
Y26980D01*
G01X245520Y37906D02*
X246406D01*
Y37020D01*
G01X271930Y32350D02*
G03I-1761J0D01*
G01X277059Y38059D02*
Y26248D01*
X262256D01*
Y38059D01*
X277059D01*
M02*
