G04 ================== begin FILE IDENTIFICATION RECORD ==================*
G04 Layout Name:  E:/material/glass/workspace/hardware/6.glass v1.1/core-pcb/core.brd*
G04 Film Name:    SILKSCREEN_BOTTOM*
G04 File Format:  Gerber RS274X*
G04 File Origin:  Cadence Allegro 16.6-2015-S065*
G04 Origin Date:  Fri Dec 16 12:07:49 2016*
G04 *
G04 Layer:  PACKAGE GEOMETRY/SILKSCREEN_BOTTOM*
G04 Layer:  BOARD GEOMETRY/SILKSCREEN_BOTTOM*
G04 *
G04 Offset:    (0.000 0.000)*
G04 Mirror:    No*
G04 Mode:      Positive*
G04 Rotation:  0*
G04 FullContactRelief:  No*
G04 UndefLineWidth:     1.000*
G04 ================== end FILE IDENTIFICATION RECORD ====================*
%FSLAX25Y25*MOIN*%
%IR0*IPPOS*OFA0.00000B0.00000*MIA0B0*SFA1.00000B1.00000*%
%ADD10C,.003937*%
%ADD11C,.009843*%
%ADD12C,.007874*%
G75*
%LPD*%
G75*
G36*
G01X29998Y22348D02*
G03I-591J0D01*
G37*
G36*
G01X96287Y40600D02*
G03I-787J0D01*
G37*
G36*
G01X116488Y44100D02*
G03I-787J0D01*
G37*
G36*
G01X193639Y57303D02*
G03I-488J0D01*
G37*
G36*
G01X206087Y43600D02*
G03I-787J0D01*
G37*
G54D10*
G01X642Y61512D02*
Y488D01*
X18358D01*
Y61512D01*
X642D01*
G01X29244Y23575D02*
X34756D01*
Y20425D01*
X29244D01*
Y23575D01*
G01X36937Y24169D02*
Y32831D01*
X29063D01*
Y24169D01*
X36937D01*
G01X34256Y33425D02*
X28744D01*
Y36575D01*
X34256D01*
Y33425D01*
G01X34925Y33244D02*
Y38756D01*
X38075D01*
Y33244D01*
X34925D01*
G01Y39244D02*
Y44756D01*
X38075D01*
Y39244D01*
X34925D01*
G01X34256Y37276D02*
X28744D01*
Y46724D01*
X34256D01*
Y37276D01*
G01X28744Y50575D02*
X34256D01*
Y47425D01*
X28744D01*
Y50575D01*
G01X49756Y30925D02*
X44244D01*
Y34075D01*
X49756D01*
Y30925D01*
G01X62075Y21256D02*
Y15744D01*
X58925D01*
Y21256D01*
X62075D01*
G01Y27256D02*
Y21744D01*
X58925D01*
Y27256D01*
X62075D01*
G01X58925Y40744D02*
Y46256D01*
X62075D01*
Y40744D01*
X58925D01*
G01Y34744D02*
Y40256D01*
X62075D01*
Y34744D01*
X58925D01*
G01X69575Y25256D02*
Y19744D01*
X66425D01*
Y25256D01*
X69575D01*
G01X63244Y34075D02*
X68756D01*
Y30925D01*
X63244D01*
Y34075D01*
G01X69244D02*
X74756D01*
Y30925D01*
X69244D01*
Y34075D01*
G01X68744Y41575D02*
X74256D01*
Y38425D01*
X68744D01*
Y41575D01*
G01X95744Y5075D02*
X101256D01*
Y1925D01*
X95744D01*
Y5075D01*
G01X92244Y49575D02*
X97756D01*
Y46425D01*
X92244D01*
Y49575D01*
G01Y53075D02*
X97756D01*
Y49925D01*
X92244D01*
Y53075D01*
G01X97756Y54925D02*
X92244D01*
Y58075D01*
X97756D01*
Y54925D01*
G01X108756Y1925D02*
X103244D01*
Y5075D01*
X108756D01*
Y1925D01*
G01X122563Y59968D02*
Y55638D01*
X130437D01*
Y60362D01*
X122563D01*
Y59968D01*
G01Y54968D02*
Y50638D01*
X130437D01*
Y55362D01*
X122563D01*
Y54968D01*
G01X129744Y5075D02*
X135256D01*
Y1925D01*
X129744D01*
Y5075D01*
G01X139224Y38457D02*
Y45937D01*
X129776D01*
Y38063D01*
X139224D01*
Y38457D01*
G01X142256Y1925D02*
X136744D01*
Y5075D01*
X142256D01*
Y1925D01*
G01X132957Y27276D02*
X140437D01*
Y36724D01*
X132563D01*
Y27276D01*
X132957D01*
G01X148968Y25937D02*
X144638D01*
Y18063D01*
X149362D01*
Y25937D01*
X148968D01*
G01X153968D02*
X149638D01*
Y18063D01*
X154362D01*
Y25937D01*
X153968D01*
G01X159968Y25437D02*
X155638D01*
Y17563D01*
X160362D01*
Y25437D01*
X159968D01*
G01X160244Y8575D02*
X165756D01*
Y5425D01*
X160244D01*
Y8575D01*
G01Y12075D02*
X165756D01*
Y8925D01*
X160244D01*
Y12075D01*
G01X168043Y26724D02*
X160563D01*
Y17276D01*
X168437D01*
Y26724D01*
X168043D01*
G01X169244Y24575D02*
X174756D01*
Y21425D01*
X169244D01*
Y24575D01*
G01X174756Y24925D02*
X169244D01*
Y28075D01*
X174756D01*
Y24925D01*
G01X168744Y35075D02*
X174256D01*
Y31925D01*
X168744D01*
Y35075D01*
G01X168063Y44968D02*
Y40638D01*
X175937D01*
Y45362D01*
X168063D01*
Y44968D01*
G01X175937Y36032D02*
Y40362D01*
X168063D01*
Y35638D01*
X175937D01*
Y36032D01*
G01X166776Y53043D02*
Y45563D01*
X176224D01*
Y53437D01*
X166776D01*
Y53043D01*
G01X182425Y11744D02*
Y17256D01*
X185575D01*
Y11744D01*
X182425D01*
G01X181575Y54756D02*
Y49244D01*
X178425D01*
Y54756D01*
X181575D01*
G01X187925Y11744D02*
Y17256D01*
X191075D01*
Y11744D01*
X187925D01*
G01X192925D02*
Y17256D01*
X196075D01*
Y11744D01*
X192925D01*
G01X194925Y49244D02*
Y54756D01*
X198075D01*
Y49244D01*
X194925D01*
G01X213256Y20925D02*
X207744D01*
Y24075D01*
X213256D01*
Y20925D01*
G01Y28925D02*
X207744D01*
Y32075D01*
X213256D01*
Y28925D01*
G01Y24925D02*
X207744D01*
Y28075D01*
X213256D01*
Y24925D01*
G54D11*
G01X181421Y4457D02*
G03I-492J0D01*
G54D12*
G01X22295Y53244D02*
X20720Y54819D01*
X23870D01*
X22295Y53244D01*
G01X98736Y39642D02*
X96295D01*
Y7358D01*
X98736D01*
G01X101512Y43626D02*
X100626D01*
Y44512D01*
G01Y58488D02*
Y59374D01*
X101512D01*
G01X118264Y39642D02*
X120705D01*
Y7358D01*
X118264D01*
G01X116374Y58488D02*
Y59374D01*
X115488D01*
G01X181559Y20689D02*
X179689D01*
Y22559D01*
G01X181559Y44311D02*
X179689D01*
Y42441D01*
G01X187032Y11150D02*
Y4850D01*
G01X186244Y11150D02*
Y4850D01*
G01X185457Y11150D02*
Y4850D01*
G01X183685D02*
X194315D01*
G01X183685Y11150D02*
X194315D01*
G01X184079Y48063D02*
X193921D01*
Y55937D01*
X184079D01*
Y48063D01*
G01X203311Y22559D02*
Y20689D01*
X201441D01*
G01X203311Y42441D02*
Y44311D01*
X201441D01*
G01X224618Y4425D02*
X220681D01*
Y57575D01*
X224618D01*
G01X293516Y4425D02*
X318319D01*
Y57575D01*
X293516D01*
M02*
