G04 ================== begin FILE IDENTIFICATION RECORD ==================*
G04 Layout Name:  E:/material/glass/workspace/hardware/5.glass v1.0/core-pcb/core.brd*
G04 Film Name:    BOTTOM*
G04 File Format:  Gerber RS274X*
G04 File Origin:  Cadence Allegro 16.6-2015-S065*
G04 Origin Date:  Tue May 31 01:46:40 2016*
G04 *
G04 Layer:  ETCH/BOTTOM*
G04 Layer:  PIN/BOTTOM*
G04 Layer:  VIA CLASS/BOTTOM*
G04 *
G04 Offset:    (0.000 0.000)*
G04 Mirror:    No*
G04 Mode:      Positive*
G04 Rotation:  0*
G04 FullContactRelief:  No*
G04 UndefLineWidth:     1.000*
G04 ================== end FILE IDENTIFICATION RECORD ====================*
%FSLAX25Y25*MOIN*%
%IR0*IPPOS*OFA0.00000B0.00000*MIA0B0*SFA1.00000B1.00000*%
%ADD10R,.12X.06*%
%ADD25R,.068898X.026575*%
%ADD22R,.026575X.068898*%
%ADD13C,.003937*%
%ADD24R,.009449X.017717*%
%ADD12R,.08X.01*%
%ADD11C,.012*%
%ADD20O,.011811X.033465*%
%ADD19O,.033465X.011811*%
%ADD27C,.000394*%
%ADD26R,.037402X.016732*%
%ADD23R,.016732X.037402*%
%ADD18O,.017717X.037402*%
%ADD17R,.05315X.025591*%
%ADD16R,.025197X.014764*%
%ADD21R,.018504X.019685*%
%ADD14R,.014764X.025197*%
%ADD15R,.027559X.031496*%
%ADD28C,.004*%
%ADD29C,.008*%
G75*
%LPD*%
G75*
G36*
G01X26700Y32295D02*
Y43195D01*
X27032D01*
X27760Y43922D01*
G02X28442Y43639I283J-283D01*
G01Y43519D01*
X30932D01*
X33287Y41164D01*
G02X33005Y40481I-283J-283D01*
G01X28442D01*
Y37121D01*
X28608D01*
Y33240D01*
X28907D01*
Y32712D01*
G02X28432Y32319I-400J0D01*
G03X27377Y32006I-225J-1179D01*
G02X26700Y32295I-277J289D01*
G37*
G36*
G01Y45043D02*
Y48701D01*
X26795D01*
Y50701D01*
X26700D01*
Y52100D01*
X33707D01*
G02X34011Y51440I0J-400D01*
G03X33734Y50831I911J-782D01*
G01X33709Y50660D01*
X32015D01*
Y47340D01*
X34292D01*
Y48896D01*
X34852Y49457D01*
X34934Y49458D01*
G03X35832Y51440I-12J1200D01*
G02X36136Y52100I304J260D01*
G01X38200D01*
Y47375D01*
G03X38063Y45539I700J-975D01*
G02X38078Y45268I-139J-143D01*
G03X37912Y45007I922J-768D01*
G01X37858Y44892D01*
X34558D01*
Y46879D01*
X28400D01*
Y47340D01*
X30985D01*
Y50660D01*
X28708D01*
Y49600D01*
X28151D01*
X27200Y48649D01*
Y45060D01*
X27041Y44902D01*
G02X26700Y45043I-141J141D01*
G37*
G36*
G01X41334Y19067D02*
G03X42239Y18270I1139J380D01*
G01X42400Y18238D01*
Y17200D01*
X38572D01*
X37771Y16400D01*
X29049D01*
X28764Y16685D01*
X28915Y16836D01*
X28926Y16844D01*
G03X29239Y18400I-726J956D01*
G02X29586Y19000I346J200D01*
G01X35011D01*
G02X35397Y18493I0J-400D01*
G03X37710I1156J-321D01*
G02X38095Y19000I385J107D01*
G01X40449D01*
X40672Y19223D01*
G02X41334Y19067I283J-283D01*
G37*
G36*
G01X34892Y20200D02*
Y23817D01*
X37093D01*
Y27900D01*
X37248D01*
X39405Y30056D01*
X39444Y30071D01*
G03X39948Y31942I-432J1120D01*
G02X40005Y32501I312J250D01*
G03X38805Y34545I-764J925D01*
G02X38260Y34918I-145J373D01*
G01Y35106D01*
G02X38580Y35266I200J0D01*
G03X40063Y37153I720J960D01*
G02X40058Y37765I254J309D01*
G03X39878Y39716I-780J912D01*
G02X39859Y40397I200J346D01*
G03X38795Y42530I-659J1003D01*
G02X38260Y42906I-135J377D01*
G01Y42936D01*
G02X38745Y43327I400J0D01*
G03X39827Y43630I255J1173D01*
G02X40386Y43624I276J-290D01*
G01X42400Y41609D01*
Y41167D01*
X42222Y41148D01*
G03Y38762I133J-1193D01*
G01X42400Y38742D01*
Y31183D01*
X42229Y31157D01*
G03Y28783I176J-1187D01*
G01X42400Y28758D01*
Y28497D01*
G02X42214Y28297I-200J0D01*
G03Y25903I86J-1197D01*
G02X42400Y25703I-14J-199D01*
G01Y22649D01*
X39951Y20200D01*
X34892D01*
G37*
G36*
G01X143933Y26964D02*
X141900Y24932D01*
Y23300D01*
X138600D01*
Y19500D01*
X137949D01*
X136449Y21000D01*
X131225D01*
X126900Y25325D01*
Y28400D01*
X132655D01*
Y27023D01*
X140345D01*
Y27700D01*
X143751D01*
G03X143898Y27560I894J800D01*
G02X143933Y26964I-249J-313D01*
G37*
G36*
G01X168345Y23300D02*
Y26977D01*
X163155D01*
X162301Y27831D01*
X162300Y27912D01*
G03X161649Y28967I-1200J-12D01*
G02X161549Y29606I183J356D01*
G01X163800Y31857D01*
Y37336D01*
X164037Y37574D01*
G02X164665Y37493I283J-283D01*
G03X166876Y38342I1035J607D01*
G02X167005Y38570I196J40D01*
G03X167223Y38674I-405J1130D01*
G01X167357Y38756D01*
X168007Y38105D01*
Y35797D01*
G02X167820Y35598I-200J0D01*
G03X167100Y33506I79J-1198D01*
G01Y32385D01*
X165993Y31278D01*
X165911Y31277D01*
G03X167123Y30064I12J-1200D01*
G01X167124Y30146D01*
X168700Y31722D01*
Y33506D01*
G03X168877Y35097I-800J895D01*
G02X169202Y35730I326J232D01*
G01X170481D01*
Y40270D01*
X168106D01*
X167988Y40388D01*
G02X168129Y40730I141J141D01*
G01X170481D01*
Y45270D01*
X169981D01*
Y53345D01*
X166523D01*
Y51072D01*
G02X166048Y50679I-400J0D01*
G03X166252Y48379I-225J-1179D01*
G01X166286Y48392D01*
X166523D01*
Y47974D01*
G02X165967Y47606I-400J0D01*
G03X164700Y45606I-467J-1105D01*
G01Y43968D01*
X165498Y43170D01*
G02X165286Y42494I-283J-283D01*
G03X164544Y40588I213J-1181D01*
G01X164649Y40449D01*
X162200Y38000D01*
Y32520D01*
X158581Y28901D01*
X158500Y28900D01*
G03X157355Y28021I12J-1200D01*
G02X156687Y27845I-385J107D01*
G01X156563Y27968D01*
X156562Y28050D01*
G03X154302Y28601I-1200J-12D01*
G02X153712Y28466I-353J188D01*
G03X152114Y28310I-712J-966D01*
G02X151524I-295J270D01*
G03X149438Y27512I-886J-810D01*
G01X149437Y27431D01*
X149306Y27300D01*
X148996D01*
G02X148615Y27820I0J400D01*
G03X146325I-1145J360D01*
G02X145943Y27300I-382J-120D01*
G01X145625D01*
G02X145485Y27643I0J200D01*
G03X143751Y29300I-840J857D01*
G01X140345D01*
Y30462D01*
X140465Y30515D01*
G03X140529Y30550I-161J366D01*
G02X140822Y30473I113J-165D01*
G03X142700Y31894I1078J527D01*
G01Y33832D01*
X140484Y36048D01*
X140345D01*
Y36977D01*
X133600D01*
Y48900D01*
X152508D01*
X155316Y51708D01*
X155399D01*
G03X154584Y53788I1J1200D01*
G02X154327Y53776I-136J147D01*
G03X152419Y52609I-727J-955D01*
G01X152437Y52506D01*
X150831Y50900D01*
X133600D01*
Y59300D01*
X169986D01*
G02X170277Y58626I0J-400D01*
G03X172856Y54791I1723J-1625D01*
G02X173400Y54418I144J-373D01*
G01Y53345D01*
X173019D01*
Y53154D01*
X172707D01*
X172648Y53249D01*
G03X171612Y51424I-1024J-625D01*
G01X171693Y51423D01*
X173019Y50097D01*
Y45655D01*
X173400D01*
Y23300D01*
X168345D01*
G37*
%LPC*%
G75*
G36*
G01X139477Y38155D02*
X136019D01*
Y45845D01*
X139063D01*
G03X139422Y46421I0J400D01*
G02X141306Y46060I1078J529D01*
G03X141350Y45432I268J-297D01*
G02X141546Y43607I-671J-995D01*
G03Y43330I144J-138D01*
G02X140078Y41462I-867J-830D01*
G03X139477Y41116I-201J-346D01*
G01Y38155D01*
G37*
%LPD*%
G75*
G54D10*
X11665Y3638D03*
Y58362D03*
G54D20*
X103579Y43823D03*
X105547D03*
Y59177D03*
X103579D03*
X107516Y43823D03*
X109484D03*
X111453D03*
X113421D03*
Y59177D03*
X111453D03*
X109484D03*
X107516D03*
G54D11*
X8186Y27866D03*
X10400Y30494D03*
X8883Y29525D03*
X10400Y47732D03*
X10499Y49701D03*
X3762Y58362D03*
X19400Y3638D03*
X15700Y17900D03*
X14600Y19800D03*
X16100Y20800D03*
X12000Y16500D03*
X14300Y30000D03*
X16500Y25000D03*
X14300Y28200D03*
X15000Y26400D03*
X13200Y26700D03*
X14900Y37700D03*
X15000Y39800D03*
Y34000D03*
Y35800D03*
X12400Y51800D03*
X28300Y14200D03*
X28200Y17800D03*
X28000Y19800D03*
Y21700D03*
X28270Y29150D03*
X28207Y31140D03*
X27968Y24503D03*
X27900Y36100D03*
X33761Y5539D03*
X33146Y2846D03*
X28600Y8300D03*
X32350Y8600D03*
X36553Y18171D03*
X36300Y49500D03*
X34922Y50658D03*
X40000Y800D03*
X43500Y900D03*
X44600Y8600D03*
X39400Y13000D03*
X39300Y15100D03*
X42473Y19447D03*
X44977Y22280D03*
X44787Y19438D03*
X38705Y18200D03*
X38279Y21005D03*
X44818Y24519D03*
X44900Y27000D03*
X42406Y29970D03*
X42300Y27100D03*
X45000Y29900D03*
X39012Y31191D03*
X39277Y38677D03*
X44914Y39944D03*
X39241Y33426D03*
X39200Y41400D03*
X42355Y39955D03*
Y37385D03*
Y34826D03*
X44914Y37385D03*
Y34826D03*
X39300Y36226D03*
X39000Y44500D03*
X38900Y46400D03*
X43800Y51600D03*
X44000Y54500D03*
X54000Y800D03*
X50500D03*
X47000D03*
X50953Y10803D03*
X53858Y10808D03*
X46700Y8750D03*
X48500Y9300D03*
X50076Y19725D03*
X52587Y16937D03*
X47587Y19443D03*
X49959Y16819D03*
X52591Y19496D03*
X47563Y22252D03*
X47473Y29733D03*
X47600Y27200D03*
X52591Y29733D03*
Y27174D03*
Y24615D03*
X47600Y24600D03*
X52591Y34826D03*
Y37385D03*
X47473Y42504D03*
X50032D03*
X49882Y45045D03*
X52591Y42504D03*
X46192Y54412D03*
X53705Y51868D03*
X52100Y51000D03*
X48900Y52163D03*
X47500Y50900D03*
X57200Y1700D03*
X57110Y9810D03*
X55258Y9600D03*
X55150Y19496D03*
X55387Y16988D03*
X62803Y19496D03*
X57709D03*
X62803Y16937D03*
X57709D03*
X57800Y22600D03*
X57709Y29733D03*
X62803D03*
X55150D03*
X62803Y24615D03*
X57709D03*
Y27174D03*
X62803D03*
X55150Y24615D03*
Y27174D03*
X62803Y37385D03*
Y34826D03*
X57709Y37385D03*
Y34826D03*
X55150Y37385D03*
Y34826D03*
X57700Y39900D03*
X62803Y42504D03*
X57709D03*
X55150D03*
X62803Y45063D03*
X57709D03*
X55150D03*
X55500Y52000D03*
X57300Y54400D03*
X67921Y16937D03*
X65362D03*
Y19496D03*
X70480Y29733D03*
X65362D03*
Y27174D03*
Y24615D03*
X67654Y29800D03*
X70480Y27174D03*
X65362Y37385D03*
X70480D03*
Y34826D03*
X65362D03*
X70480Y45063D03*
Y47622D03*
X70500Y54400D03*
X66500Y54000D03*
X64700D03*
X78000Y2500D03*
X73039Y24615D03*
X75552Y27220D03*
X73039Y29733D03*
Y27174D03*
Y37385D03*
X79800Y36000D03*
X73039Y34826D03*
X75500Y50100D03*
X77922Y50126D03*
X83788Y4994D03*
X85807Y3053D03*
X80431Y4148D03*
X82028Y1681D03*
X82600Y14900D03*
X82200Y12200D03*
X83200Y16700D03*
X84421Y18023D03*
X84500Y20000D03*
X87769Y27392D03*
X83980Y30106D03*
X82569Y28579D03*
X87600Y25592D03*
X81010Y37890D03*
X82700Y35600D03*
X81350Y39658D03*
X82573Y40978D03*
X86300Y35500D03*
X81032Y54700D03*
X90545Y2320D03*
X89518Y3799D03*
X96846Y900D03*
X90934Y13367D03*
X89000Y11113D03*
X95378Y14075D03*
Y10926D03*
X95369Y20100D03*
X96600Y24582D03*
X93542Y26085D03*
X95261Y32659D03*
X94760Y24740D03*
X97200Y28182D03*
X93300Y27997D03*
X95378Y35925D03*
X95252Y38948D03*
X95300Y43700D03*
X91800Y44800D03*
X93450Y43850D03*
X91795Y58500D03*
X89600D03*
X97000Y59000D03*
X103921Y6400D03*
X98295Y6515D03*
X104346Y900D03*
X101677Y14075D03*
X104827D03*
X98527Y11000D03*
Y14075D03*
X98550Y24050D03*
X100390Y23910D03*
X98933Y17081D03*
X98527Y20177D03*
X104827D03*
X101700D03*
X103100Y26700D03*
X104900Y29823D03*
X98527D03*
X101677D03*
X98527Y35925D03*
X103300Y39800D03*
X98527Y38800D03*
X101846Y35747D03*
X98724Y43447D03*
X101000Y43300D03*
X104000Y47700D03*
X99900Y59300D03*
X107654Y900D03*
X114275Y14075D03*
X113900Y7000D03*
X107976Y14075D03*
X111097Y11216D03*
X107976Y11000D03*
X111126Y14075D03*
Y20177D03*
X114275D03*
X107800D03*
X114275Y29823D03*
X107976D03*
X111126D03*
X108250Y36050D03*
X122264Y6996D03*
X117425Y14075D03*
X118300Y7000D03*
X120574Y14075D03*
Y10926D03*
X117425Y20177D03*
X120574D03*
X122000Y32000D03*
X120574Y29823D03*
X117425D03*
X120500Y26582D03*
X117425Y35925D03*
X120326Y35882D03*
X121974Y34000D03*
X119100Y40300D03*
X115949Y42000D03*
X119500Y57100D03*
X121600Y57300D03*
X123802Y6059D03*
X129500Y1000D03*
X127500Y6795D03*
X131800Y1000D03*
X125600Y6900D03*
X131636Y24020D03*
Y22020D03*
X127700Y32200D03*
X131636Y26020D03*
X128723Y33700D03*
X126275Y37855D03*
X127301Y39334D03*
X126856Y41078D03*
X131200Y36100D03*
X128300Y45500D03*
X129463Y46874D03*
X131900Y54100D03*
X136000Y9500D03*
X134600Y14100D03*
X140400Y14000D03*
X133000Y9800D03*
X137500Y11500D03*
X132500Y14100D03*
X133336Y24020D03*
Y22020D03*
Y26020D03*
X140500Y46950D03*
X133000Y56200D03*
X135700Y52500D03*
X137300Y59400D03*
X148578Y3622D03*
X145000Y13600D03*
X144700Y11400D03*
X143124Y9600D03*
X141575Y10800D03*
X146500Y21346D03*
X142700Y20600D03*
X147470Y28180D03*
X144645Y28500D03*
X141900Y31000D03*
X140700Y40400D03*
X146713Y40484D03*
Y37985D03*
Y35484D03*
Y45485D03*
Y42984D03*
X140680Y42500D03*
Y44437D03*
X152374Y10294D03*
X151000Y15000D03*
X149252Y13900D03*
Y10052D03*
X154400Y9600D03*
X156500Y9000D03*
X155362Y28038D03*
X153000Y27500D03*
X150638D03*
X156713Y40484D03*
X154213D03*
X151713D03*
X149213D03*
X156713Y37985D03*
X154213D03*
X151713D03*
X149213D03*
X156713Y35484D03*
X154213D03*
X151713D03*
X149213D03*
X156713Y45485D03*
X154213D03*
X151713D03*
X149213D03*
X156713Y42984D03*
X154213D03*
X151713D03*
X149213D03*
X153600Y52820D03*
X155400Y52908D03*
X158278Y3622D03*
X159000Y9000D03*
X166197Y14163D03*
X165923Y30077D03*
X158512Y27700D03*
X161100Y27900D03*
X165500Y41313D03*
X159213Y40484D03*
Y37985D03*
Y35484D03*
X165701Y38100D03*
X165823Y49500D03*
X159213Y45485D03*
Y42984D03*
X165500Y46500D03*
X162500Y60300D03*
X160100Y60400D03*
X168315Y5817D03*
X167878Y3622D03*
X168315Y8383D03*
X173370Y7830D03*
X170400Y16000D03*
X167500Y15600D03*
X174900Y19200D03*
X167900Y34400D03*
X166600Y39700D03*
X171624Y52624D03*
X171700Y60600D03*
X175250Y24750D03*
X175700Y32500D03*
X175500Y29000D03*
X175800Y34300D03*
X175400Y54800D03*
G54D21*
X130748Y6795D03*
Y16205D03*
X149252Y6795D03*
Y16205D03*
G54D12*
X22295Y10331D03*
Y12299D03*
Y14268D03*
Y16236D03*
Y18205D03*
Y20173D03*
Y22142D03*
Y24110D03*
Y26079D03*
Y28047D03*
Y30016D03*
Y31984D03*
Y33953D03*
Y35921D03*
Y37890D03*
Y39858D03*
Y41827D03*
Y43795D03*
Y45764D03*
Y47732D03*
Y49701D03*
Y51669D03*
G54D13*
X30000Y5000D03*
X172000Y57000D03*
G54D22*
X131252Y42000D03*
X137748D03*
X174748Y49500D03*
X168252D03*
G54D14*
X33654Y22000D03*
X30346D03*
X29846Y35000D03*
X33154D03*
Y49000D03*
X29846D03*
X45346Y32500D03*
X48654D03*
X67654D03*
X64347D03*
X70346D03*
X69846Y40000D03*
X73654Y32500D03*
X73154Y40000D03*
X96846Y3500D03*
X96654Y48000D03*
X93347D03*
X96654Y51500D03*
X93347D03*
Y56500D03*
X96654D03*
X104346Y3500D03*
X100154D03*
X107654D03*
X130846D03*
X137846D03*
X134154D03*
X141154D03*
X165154Y5500D03*
X161846D03*
X165154Y9000D03*
X161846D03*
G54D23*
X129256Y58000D03*
X123744D03*
X129256Y53000D03*
X123744D03*
X169244Y38000D03*
X174756D03*
Y43000D03*
X169244D03*
G54D15*
X35215Y25892D03*
Y31108D03*
X30785D03*
Y25892D03*
G54D24*
X133701Y6677D03*
X135276D03*
X136850D03*
X138425D03*
X140000D03*
X133701Y16323D03*
X135276D03*
X136850D03*
X138425D03*
X140000D03*
X141575Y6677D03*
X143150D03*
X144724D03*
X146299D03*
Y16323D03*
X144724D03*
X143150D03*
X141575D03*
G54D16*
X36500Y37654D03*
Y34346D03*
Y40346D03*
Y43654D03*
X60500Y16846D03*
Y20154D03*
Y22846D03*
Y26154D03*
Y39154D03*
Y35846D03*
Y45154D03*
Y41846D03*
X68000Y20846D03*
Y24154D03*
G54D25*
X136500Y28752D03*
Y35248D03*
X164500Y18752D03*
Y25248D03*
G54D17*
X31500Y38801D03*
Y45199D03*
G54D26*
X147000Y19244D03*
Y24756D03*
X152000Y19244D03*
X158000Y18744D03*
Y24256D03*
X152000Y24756D03*
G54D18*
X101000Y8146D03*
X106000D03*
Y38854D03*
X101000D03*
X111000Y8146D03*
Y38854D03*
X116000Y8146D03*
Y38854D03*
G54D27*
X151126Y12087D03*
X166874D03*
G54D28*
G01X8186Y27866D02*
Y28030D01*
X7400Y28816D01*
Y41600D01*
X11564Y45764D01*
X22295D01*
G01Y41827D02*
X13727D01*
X10400Y38500D01*
Y30494D01*
G01X22295Y43795D02*
X12595D01*
X8883Y40083D01*
Y29525D01*
G01X22295Y47732D02*
X10400D01*
G01X15700Y17900D02*
X16005Y18205D01*
X22295D01*
G01Y20173D02*
X17473D01*
X16600Y19300D01*
X15100D01*
X14600Y19800D01*
G01X22295Y22142D02*
X17442D01*
X16100Y20800D01*
G01X14300Y30000D02*
X22279D01*
X22295Y30016D01*
G01X16500Y25000D02*
X17390Y24110D01*
X22295D01*
G01X14300Y28200D02*
X14453Y28047D01*
X22295D01*
G01Y26079D02*
X17401D01*
X17080Y26400D01*
X15000D01*
G01X14900Y37700D02*
X22105D01*
X22295Y37890D01*
G01X15000Y39800D02*
X22237D01*
X22295Y39858D01*
G01X15000Y34000D02*
X22248D01*
X22295Y33953D01*
G01X15000Y35800D02*
X22174D01*
X22295Y35921D01*
G01Y16236D02*
X28364D01*
X30200Y14400D01*
Y8770D01*
X31852Y7118D01*
X45098D01*
X46700Y8720D01*
Y8750D01*
G01X22295Y43795D02*
X26784D01*
X27800Y44811D01*
Y48400D01*
X28400Y49000D01*
X29846D01*
G01X47563Y22252D02*
X46187Y20876D01*
Y18858D01*
X43929Y16600D01*
X38820D01*
X32350Y10130D01*
Y8600D01*
G01X28000Y19800D02*
X28200Y19600D01*
X40200D01*
X42880Y22280D01*
X44977D01*
G01X30785Y25892D02*
X30346Y25453D01*
Y22000D01*
G01X33154Y35000D02*
Y33169D01*
X35215Y31108D01*
G01D02*
X36949D01*
X39241Y33400D01*
Y33426D01*
G01X30785Y25892D02*
X33394Y28500D01*
X37000D01*
X39012Y30512D01*
Y31191D01*
G01X39277Y38677D02*
X37608Y40346D01*
X36500D01*
G01D02*
X34954D01*
X31500Y43800D01*
Y45199D01*
G01X38150Y34826D02*
X42355D01*
G01X39300Y36226D02*
X39192D01*
X37765Y37654D01*
X36500D01*
G01D02*
X35146D01*
X33999Y38801D01*
X31500D01*
G01X39300Y15100D02*
Y13100D01*
X39400Y13000D01*
G01X44600Y8600D02*
X43800D01*
X39400Y13000D01*
G01X38150Y21133D02*
X38279Y21005D01*
G01X39000Y44500D02*
X40358D01*
X44914Y39944D01*
G01X45346Y32500D02*
Y34394D01*
X44914Y34826D01*
G01X43800Y51600D02*
Y47700D01*
X47473Y44027D01*
Y42504D01*
G01X97000Y59000D02*
X96000Y60000D01*
X46200D01*
X38800Y52600D01*
Y46500D01*
X38900Y46400D01*
G01X49959Y16819D02*
X49553Y16413D01*
Y10227D01*
X49900Y9880D01*
Y9000D01*
X57200Y1700D01*
G01X96600Y24582D02*
X95358Y23340D01*
X91914D01*
X88500Y19926D01*
Y15176D01*
X86000Y12676D01*
Y10626D01*
X82474Y7100D01*
X54600D01*
X52458Y9242D01*
Y16808D01*
X52587Y16937D01*
G01X98550Y24050D02*
X97040Y22540D01*
X92246D01*
X89300Y19594D01*
Y14844D01*
X86800Y12344D01*
Y10294D01*
X82506Y6000D01*
X54300D01*
X50953Y9347D01*
Y10803D01*
G01X48500Y9300D02*
Y17340D01*
X49380Y18219D01*
X51314D01*
X52591Y19496D01*
G01X52537Y16937D02*
X52587D01*
G01X47433Y29733D02*
X47473D01*
G01X48654Y32500D02*
X50264D01*
X52591Y34826D01*
G01X47473Y42504D02*
X47396D01*
G01X52591D02*
Y45809D01*
X47500Y50900D01*
G01X93542Y26085D02*
X92397D01*
X86900Y20589D01*
Y15839D01*
X84400Y13339D01*
Y11289D01*
X82611Y9500D01*
X57420D01*
X57110Y9810D01*
G01X94760Y24740D02*
X94705Y24685D01*
X92128D01*
X87700Y20257D01*
Y15507D01*
X85200Y13007D01*
Y10957D01*
X82653Y8410D01*
X56448D01*
X55258Y9600D01*
G01X55150Y19496D02*
X53987Y18334D01*
Y14913D01*
X58600Y10300D01*
X82280D01*
X83600Y11620D01*
Y13800D01*
X86100Y16300D01*
Y20920D01*
X93177Y27997D01*
X93300D01*
G01X82200Y12200D02*
X58100D01*
X55387Y14913D01*
Y16988D01*
G01X60500Y20154D02*
X62146D01*
X62803Y19496D01*
G01X60500Y16846D02*
X62712D01*
X62803Y16937D01*
G01X60500Y22846D02*
X58046D01*
X57800Y22600D01*
G01X60500Y26154D02*
X61264D01*
X62803Y24615D01*
G01X60500Y35846D02*
X59248D01*
X57709Y37385D01*
G01X60500Y39154D02*
X58446D01*
X57700Y39900D01*
G01X60500Y41846D02*
X62146D01*
X62803Y42504D01*
G01X60500Y45154D02*
X57800D01*
X57709Y45063D01*
G01X65362Y19496D02*
X66712Y20846D01*
X68000D01*
G01Y24154D02*
X65823D01*
X65362Y24615D01*
G01X67654Y32500D02*
Y29800D01*
G01X69846Y40000D02*
Y38019D01*
X70480Y37385D01*
G01X70346Y32500D02*
Y34693D01*
X70480Y34826D01*
G01X64347Y32500D02*
Y33811D01*
X65362Y34826D01*
G01X75500Y50100D02*
X71200Y54400D01*
X70500D01*
G01X78000Y2500D02*
X80820D01*
X81401Y3081D01*
X82590D01*
X82877Y2794D01*
X84086D01*
X85227Y1653D01*
X86387D01*
X87207Y2473D01*
Y5007D01*
X95378Y13178D01*
Y14075D01*
G01X101677D02*
Y17423D01*
X100300Y18800D01*
Y21300D01*
X101900Y22900D01*
Y24500D01*
X100418Y25982D01*
X96288D01*
X94700Y27570D01*
Y28577D01*
X93880Y29397D01*
X86597D01*
X81815Y24615D01*
X73039D01*
G01Y37385D02*
Y39885D01*
X73154Y40000D01*
G01X73654Y32500D02*
Y34212D01*
X73039Y34826D01*
G01X81032Y54700D02*
X77922Y51590D01*
Y50126D01*
G01X100390Y23910D02*
X98057Y21577D01*
X92477D01*
X90200Y19300D01*
Y14613D01*
X87600Y12013D01*
Y8806D01*
X83788Y4994D01*
G01X85807Y3053D02*
X86400Y3646D01*
Y5331D01*
X93700Y12631D01*
Y14420D01*
X96362Y17081D01*
X98933D01*
G01X80431Y4148D02*
X82654D01*
X83208Y3594D01*
X84368D01*
X85188Y4414D01*
Y5251D01*
X92400Y12463D01*
Y17131D01*
X95369Y20100D01*
G01X82028Y1681D02*
X84068D01*
X84896Y853D01*
X86718D01*
X88118Y2253D01*
Y4418D01*
X91400Y7700D01*
X94500D01*
X97100Y10300D01*
Y12648D01*
X98527Y14075D01*
G01X101700Y20177D02*
X102900Y21377D01*
Y24900D01*
X101018Y26782D01*
X96620D01*
X95800Y27602D01*
Y29700D01*
X90000Y35500D01*
X86300D01*
G01X104827Y14075D02*
X102951Y12200D01*
X101769D01*
X93368Y3799D01*
X89518D01*
G01X93450Y43850D02*
Y42750D01*
X95100Y41100D01*
X99984D01*
X101000Y40084D01*
Y38854D01*
G01X95300Y43700D02*
Y43200D01*
X96500Y42000D01*
X100300D01*
X100900Y41400D01*
X105100D01*
X106000Y40500D01*
Y38854D01*
G01X91795Y58500D02*
X93347Y56948D01*
Y56500D01*
G01X96654Y51500D02*
X98000D01*
X98984Y52484D01*
X100823D01*
G01X96654Y56500D02*
X96704Y56450D01*
X100795D01*
X100823Y56421D01*
G01X100154Y3500D02*
Y5347D01*
X98985Y6515D01*
X98295D01*
G01X101000Y8400D02*
Y9900D01*
X102200Y11100D01*
X104700D01*
X106000Y9800D01*
Y8400D01*
G01X97200Y28182D02*
X102182D01*
X103500Y29500D01*
Y34092D01*
X101846Y35747D01*
G01X111000Y8146D02*
Y6200D01*
X112600Y4600D01*
X122342D01*
X123801Y6059D01*
X123802D01*
G01X111000Y29949D02*
X111126Y29823D01*
G01X113421Y41500D02*
Y41433D01*
X116000Y38854D01*
G01X108250Y36050D02*
X109850D01*
X111000Y37200D01*
Y38854D01*
G01X122264Y6996D02*
X122190Y6921D01*
Y6910D01*
X120880Y5600D01*
X116718D01*
X116000Y6319D01*
Y8146D01*
G01X138425Y6677D02*
Y10025D01*
X138900Y10500D01*
Y12080D01*
X138080Y12900D01*
X136800D01*
X135800Y11900D01*
X131068D01*
X122000Y20968D01*
Y32000D01*
G01X140000Y6677D02*
Y12350D01*
X138650Y13700D01*
X136300D01*
X135300Y12700D01*
X131495D01*
X123500Y20695D01*
Y32480D01*
X121980Y34000D01*
X121974D01*
G01X116000Y38854D02*
X118084D01*
X119100Y39870D01*
Y40300D01*
G01X153600Y52820D02*
X151080Y50300D01*
X129500D01*
X127747Y48547D01*
X116177D01*
G01X155400Y52908D02*
X155000Y52508D01*
Y52240D01*
X152260Y49500D01*
X129831D01*
X128078Y47747D01*
X128047D01*
X126879Y46579D01*
X116177D01*
G01X123744Y53000D02*
X119600D01*
X118147Y54453D01*
X116177D01*
G01X135276Y16323D02*
Y17684D01*
X134260Y18700D01*
X130413D01*
X124700Y24413D01*
Y36280D01*
X126275Y37855D01*
G01X136850Y16323D02*
Y18250D01*
X135500Y19600D01*
X130645D01*
X125500Y24745D01*
Y35100D01*
X127675Y37275D01*
Y38960D01*
X127301Y39334D01*
G01X138425Y16323D02*
Y18175D01*
X136200Y20400D01*
X130976D01*
X126300Y25076D01*
Y34700D01*
X128701Y37101D01*
Y39914D01*
X127537Y41078D01*
X126856D01*
G01X134154Y3500D02*
Y4554D01*
X135276Y5676D01*
Y6677D01*
G01X137846Y3500D02*
Y4554D01*
X136850Y5550D01*
Y6677D01*
G01X136000Y9500D02*
X135276Y8776D01*
Y6677D01*
G01X134600Y14100D02*
X133701Y14999D01*
Y16323D01*
G01X140400Y14000D02*
X140000Y14400D01*
Y16323D01*
G01X133701Y6677D02*
Y9099D01*
X133000Y9800D01*
G01X137500Y11500D02*
Y9020D01*
X136850Y8370D01*
Y6677D01*
G01X156500Y9000D02*
Y7500D01*
X158500Y5500D01*
X161846D01*
G01X168315Y5817D02*
X165471D01*
X165154Y5500D01*
G01X168315Y8383D02*
X165771D01*
X165154Y9000D01*
G01X161846D02*
X159000D01*
G54D19*
X100823Y48547D03*
Y46579D03*
Y56421D03*
Y54453D03*
Y52484D03*
Y50516D03*
X116177Y46579D03*
Y48547D03*
Y50516D03*
Y52484D03*
Y54453D03*
Y56421D03*
G54D29*
G01X99900Y59300D02*
X98983Y59300D01*
X97183Y61100D01*
X26100D01*
X18400Y53400D01*
X11637D01*
X5800Y47563D01*
Y22700D01*
X12000Y16500D01*
G01X22295Y49701D02*
X10499D01*
G01X11665Y58362D02*
X3762D01*
G01X11665Y3638D02*
X19400D01*
G01X22295Y10331D02*
X16169D01*
X14000Y12500D01*
Y14500D01*
X12000Y16500D01*
G01X13200Y26700D02*
X12700Y27200D01*
Y30700D01*
X13984Y31984D01*
X22295D01*
G01Y51669D02*
X12531D01*
X12400Y51800D01*
G01X28300Y14200D02*
X28232Y14268D01*
X22295D01*
G01X28600Y8300D02*
Y10600D01*
X26901Y12299D01*
X22295D01*
G01X29846Y35000D02*
X29000D01*
X27900Y36100D01*
G01X33654Y22000D02*
Y23953D01*
X35215Y25514D01*
Y25892D01*
G01X33654Y22000D02*
X37283D01*
G01X29846Y35000D02*
Y32047D01*
X30785Y31108D01*
G01X36500Y34346D02*
X36854Y34700D01*
X38024D01*
X38150Y34826D01*
G01X36500Y43654D02*
Y45200D01*
G01D02*
X35200Y46500D01*
Y48400D01*
X36300Y49500D01*
G01X34922Y50658D02*
X33264Y49000D01*
X33154D01*
G01X37283Y22000D02*
X38150Y21133D01*
G01X96846Y3500D02*
Y900D01*
G01D02*
X97046Y1100D01*
G01X93347Y48000D02*
Y51500D01*
G01X96654Y48000D02*
X98292D01*
X98839Y48547D01*
X100823D01*
G01X91592Y54440D02*
X93347Y52686D01*
Y51500D01*
G01X91592Y54440D02*
X89600Y56432D01*
Y58500D01*
G01X91592Y54440D02*
X100810D01*
X100823Y54453D01*
G01X104346Y3500D02*
Y900D01*
G01Y3500D02*
X102546Y5300D01*
X102500D01*
X101000Y6800D01*
Y8146D01*
G01D02*
Y8400D01*
G01X106000D02*
Y8146D01*
G01X104000Y47700D02*
X105700Y49400D01*
Y55300D01*
X103579Y57421D01*
Y59177D01*
G01X104000Y47700D02*
X103153Y48547D01*
X100823D01*
G01Y54453D02*
X102647D01*
X103886Y53214D01*
Y51633D01*
X102769Y50516D01*
X100823D01*
G01X107654Y3500D02*
Y900D01*
G01X113421Y43823D02*
Y41500D01*
G01X119500Y57100D02*
Y57145D01*
X117468Y59177D01*
X113421D01*
G01X121600Y57300D02*
X122300Y58000D01*
X123744D01*
G01X131800Y1000D02*
Y2546D01*
X130846Y3500D01*
G01X130748Y6795D02*
X127500D01*
G01X132500Y14100D02*
Y14453D01*
X130748Y16205D01*
G01X129463Y46874D02*
X131252Y45085D01*
Y42000D01*
G01X131900Y54100D02*
X130800Y53000D01*
X129256D01*
G01X133000Y56200D02*
X131200Y58000D01*
X129256D01*
G01X136500Y28752D02*
X136752Y28500D01*
X144645D01*
G01X141900Y31000D02*
Y33500D01*
X140152Y35248D01*
X136500D01*
G01X140680Y44437D02*
X139780D01*
X137748Y42405D01*
Y42000D01*
G01X146299Y6677D02*
Y9801D01*
X144750Y11350D01*
G01X144724Y6677D02*
Y11325D01*
X144750Y11350D01*
G01X141575Y10800D02*
Y6677D01*
G01X143124Y9600D02*
X143150Y9575D01*
Y6677D01*
G01D02*
Y5496D01*
X141575Y3921D01*
G01D02*
Y6677D01*
G01X141154Y3500D02*
X141575Y3921D01*
G01X146299Y16323D02*
Y15101D01*
X147500Y13900D01*
X149252D01*
G01X144724Y16323D02*
Y13876D01*
X145000Y13600D01*
G01X143150Y13650D02*
X141575Y15225D01*
Y16323D01*
G01X143150Y13650D02*
X143200Y13600D01*
X145000D01*
G01X143150Y16323D02*
Y13650D01*
G01X144750Y11350D02*
X144700Y11400D01*
G01X147000Y19244D02*
X152000D01*
G01X150638Y27500D02*
X149638Y26500D01*
X144600D01*
X142700Y24600D01*
Y20600D01*
G01X147000Y24756D02*
X152000D01*
G01X140680Y44432D02*
Y44437D01*
G01X152374Y10294D02*
X155000Y12920D01*
Y22000D01*
X157256Y24256D01*
X158000D01*
G01X149252Y6795D02*
Y10052D01*
G01X152000Y19244D02*
Y16000D01*
X151000Y15000D01*
G01X154400Y9600D02*
X158000Y13200D01*
Y18744D01*
G01X149252Y16205D02*
Y13900D01*
G01X155362Y28038D02*
X158000Y25400D01*
Y24256D01*
G01X152000Y24756D02*
Y26500D01*
X153000Y27500D01*
G01X167500Y15600D02*
X164500Y18600D01*
Y18752D01*
G01X165923Y30077D02*
X167900Y32054D01*
Y34400D01*
G01X166600Y39700D02*
X165032D01*
X163000Y37668D01*
Y32188D01*
X158512Y27700D01*
G01X161100Y27900D02*
X163752Y25248D01*
X164500D01*
G01X168252Y49500D02*
X165823D01*
G01X165500Y46500D02*
Y44300D01*
X166800Y43000D01*
X169244D01*
G01X166600Y39700D02*
X167544D01*
X169244Y38000D01*
G01X174756Y43000D02*
Y38000D01*
G01D02*
Y35344D01*
X175800Y34300D01*
G01X171624Y52624D02*
X174748Y49500D01*
M02*
