G04 ================== begin FILE IDENTIFICATION RECORD ==================*
G04 Layout Name:  E:/material/glass/workspace/hardware/5.glass v1.0/core-pcb/core.brd*
G04 Film Name:    PASTEMASK_BOTTOM*
G04 File Format:  Gerber RS274X*
G04 File Origin:  Cadence Allegro 16.6-2015-S065*
G04 Origin Date:  Tue May 31 01:46:28 2016*
G04 *
G04 Layer:  VIA CLASS/PASTEMASK_BOTTOM*
G04 Layer:  PIN/PASTEMASK_BOTTOM*
G04 *
G04 Offset:    (0.000 0.000)*
G04 Mirror:    No*
G04 Mode:      Positive*
G04 Rotation:  0*
G04 FullContactRelief:  No*
G04 UndefLineWidth:     1.000*
G04 ================== end FILE IDENTIFICATION RECORD ====================*
%FSLAX25Y25*MOIN*%
%IR0*IPPOS*OFA0.00000B0.00000*MIA0B0*SFA1.00000B1.00000*%
%ADD10R,.12X.06*%
%ADD23R,.068898X.026575*%
%ADD20R,.026575X.068898*%
%ADD22R,.009449X.017717*%
%ADD11R,.08X.01*%
%ADD18O,.011811X.033465*%
%ADD17O,.033465X.011811*%
%ADD24R,.037402X.016732*%
%ADD21R,.016732X.037402*%
%ADD16O,.017717X.037402*%
%ADD15R,.05315X.025591*%
%ADD14R,.025197X.014764*%
%ADD19R,.018504X.019685*%
%ADD12R,.014764X.025197*%
%ADD13R,.027559X.031496*%
%LPD*%
G75*
G54D10*
X11665Y3638D03*
Y58362D03*
G54D11*
X22295Y10331D03*
Y12299D03*
Y14268D03*
Y16236D03*
Y18205D03*
Y20173D03*
Y22142D03*
Y24110D03*
Y26079D03*
Y28047D03*
Y30016D03*
Y31984D03*
Y33953D03*
Y35921D03*
Y37890D03*
Y39858D03*
Y41827D03*
Y43795D03*
Y45764D03*
Y47732D03*
Y49701D03*
Y51669D03*
G54D20*
X131252Y42000D03*
X137748D03*
X174748Y49500D03*
X168252D03*
G54D12*
X33654Y22000D03*
X30346D03*
X29846Y35000D03*
X33154D03*
Y49000D03*
X29846D03*
X45346Y32500D03*
X48654D03*
X67654D03*
X64347D03*
X70346D03*
X69846Y40000D03*
X73654Y32500D03*
X73154Y40000D03*
X96846Y3500D03*
X96654Y48000D03*
X93347D03*
X96654Y51500D03*
X93347D03*
Y56500D03*
X96654D03*
X104346Y3500D03*
X100154D03*
X107654D03*
X130846D03*
X137846D03*
X134154D03*
X141154D03*
X165154Y5500D03*
X161846D03*
X165154Y9000D03*
X161846D03*
G54D21*
X129256Y58000D03*
X123744D03*
X129256Y53000D03*
X123744D03*
X169244Y38000D03*
X174756D03*
Y43000D03*
X169244D03*
G54D13*
X35215Y25892D03*
Y31108D03*
X30785D03*
Y25892D03*
G54D22*
X133701Y6677D03*
X135276D03*
X136850D03*
X138425D03*
X140000D03*
X133701Y16323D03*
X135276D03*
X136850D03*
X138425D03*
X140000D03*
X141575Y6677D03*
X143150D03*
X144724D03*
X146299D03*
Y16323D03*
X144724D03*
X143150D03*
X141575D03*
G54D14*
X36500Y37654D03*
Y34346D03*
Y40346D03*
Y43654D03*
X60500Y16846D03*
Y20154D03*
Y22846D03*
Y26154D03*
Y39154D03*
Y35846D03*
Y45154D03*
Y41846D03*
X68000Y20846D03*
Y24154D03*
G54D23*
X136500Y28752D03*
Y35248D03*
X164500Y18752D03*
Y25248D03*
G54D15*
X31500Y38801D03*
Y45199D03*
G54D24*
X147000Y19244D03*
Y24756D03*
X152000Y19244D03*
X158000Y18744D03*
Y24256D03*
X152000Y24756D03*
G54D16*
X101000Y8146D03*
X106000D03*
Y38854D03*
X101000D03*
X111000Y8146D03*
Y38854D03*
X116000Y8146D03*
Y38854D03*
G54D17*
X100823Y48547D03*
Y46579D03*
Y56421D03*
Y54453D03*
Y52484D03*
Y50516D03*
X116177Y46579D03*
Y48547D03*
Y50516D03*
Y52484D03*
Y54453D03*
Y56421D03*
G54D18*
X103579Y43823D03*
X105547D03*
Y59177D03*
X103579D03*
X107516Y43823D03*
X109484D03*
X111453D03*
X113421D03*
Y59177D03*
X111453D03*
X109484D03*
X107516D03*
G54D19*
X130748Y6795D03*
Y16205D03*
X149252Y6795D03*
Y16205D03*
M02*
