G04 ================== begin FILE IDENTIFICATION RECORD ==================*
G04 Layout Name:  E:/material/glass/workspace/hardware/5.glass v1.0/core-pcb/core.brd*
G04 Film Name:    PASTEMASK_TOP*
G04 File Format:  Gerber RS274X*
G04 File Origin:  Cadence Allegro 16.6-2015-S065*
G04 Origin Date:  Tue May 31 01:46:40 2016*
G04 *
G04 Layer:  VIA CLASS/PASTEMASK_TOP*
G04 Layer:  PIN/PASTEMASK_TOP*
G04 *
G04 Offset:    (0.000 0.000)*
G04 Mirror:    No*
G04 Mode:      Positive*
G04 Rotation:  0*
G04 FullContactRelief:  No*
G04 UndefLineWidth:     1.000*
G04 ================== end FILE IDENTIFICATION RECORD ====================*
%FSLAX25Y25*MOIN*%
%IR0*IPPOS*OFA0.00000B0.00000*MIA0B0*SFA1.00000B1.00000*%
%AMMACRO17*
4,1,21,.015748,-.005906,
-.009843,-.005906,
-.010869,-.005816,
-.011863,-.00555,
-.012796,-.005115,
-.013639,-.004524,
-.014367,-.003796,
-.014958,-.002953,
-.015393,-.00202,
-.015659,-.001025,
-.015749,0.0,
-.015659,.001026,
-.015392,.00202,
-.014957,.002953,
-.014366,.003797,
-.013638,.004525,
-.012795,.005115,
-.011862,.00555,
-.010868,.005816,
-.009843,.005906,
.015748,.005906,
.015748,-.005906,
0.0*
%
%ADD17MACRO17*%
%ADD12C,.009843*%
%ADD21O,.009843X.031496*%
%ADD23O,.031496X.009843*%
%AMMACRO15*
4,1,4,.008524,-.020335,
-.008523,-.020335,
-.008523,.020335,
.008524,.020335,
.008524,-.020335,
0.0*
%
%ADD15MACRO15*%
%ADD13C,.035433*%
%ADD20R,.037402X.016732*%
%ADD18R,.016732X.037402*%
%ADD24R,.015748X.05315*%
%AMMACRO16*
4,1,21,-.015748,.005906,
.009843,.005906,
.010869,.005816,
.011863,.00555,
.012796,.005115,
.013639,.004524,
.014367,.003796,
.014958,.002953,
.015393,.00202,
.015659,.001025,
.015749,0.0,
.015659,-.001026,
.015392,-.00202,
.014957,-.002953,
.014366,-.003797,
.013638,-.004525,
.012795,-.005115,
.011862,-.00555,
.010868,-.005816,
.009843,-.005906,
-.015748,-.005906,
-.015748,.005906,
0.0*
%
%ADD16MACRO16*%
%ADD14C,.015748*%
%AMMACRO22*
4,1,5,.068898,-.060039,
.064961,-.063976,
-.068898,-.063976,
-.068898,.063976,
.068898,.063976,
.068898,-.060039,
0.0*
%
%ADD22MACRO22*%
%ADD19R,.055118X.055118*%
%ADD11R,.025197X.014764*%
%ADD10R,.014764X.025197*%
%LPD*%
G75*
G54D10*
X12846Y14000D03*
X16154D03*
X125846Y13000D03*
X129154D03*
X125846Y9500D03*
X129154D03*
X125846Y16500D03*
X129154D03*
X125846Y29500D03*
X129154D03*
X133846Y38500D03*
X137154D03*
X133846Y35000D03*
X137154D03*
X173154Y29000D03*
X169846D03*
X173154Y32500D03*
X169846D03*
Y39500D03*
X173154D03*
Y36000D03*
X169846D03*
Y46500D03*
X173154D03*
Y50000D03*
X169846D03*
Y43000D03*
X173154D03*
G54D11*
X36500Y2846D03*
Y6154D03*
X43500D03*
Y2846D03*
X40000Y6154D03*
Y2846D03*
X47000Y6154D03*
Y2846D03*
X54000Y6154D03*
Y2846D03*
X50500Y6154D03*
Y2846D03*
X49000Y54347D03*
Y57654D03*
X52500Y54347D03*
Y57654D03*
X77500D03*
Y54347D03*
X74000Y57654D03*
Y54347D03*
X141000Y22846D03*
Y26154D03*
X145000Y58154D03*
Y54847D03*
X141500Y58154D03*
Y54847D03*
X148500Y58154D03*
Y54847D03*
X154500Y21346D03*
X151000D03*
X154500Y24654D03*
X151000D03*
X152000Y54847D03*
Y58154D03*
X155500D03*
Y54847D03*
X167000Y21346D03*
X160000D03*
X163500D03*
X167000Y24654D03*
X160000D03*
X163500D03*
X162500Y54847D03*
Y58154D03*
X159000D03*
Y54847D03*
G54D20*
X146500Y19244D03*
Y24756D03*
X167000Y54244D03*
Y59756D03*
X171500Y19244D03*
Y24756D03*
G54D21*
X149063Y30854D03*
X147488D03*
X145913D03*
Y50146D03*
X147488D03*
X149063D03*
X156937Y30854D03*
X155362D03*
X153787D03*
X152213D03*
X150638D03*
Y50146D03*
X152213D03*
X153787D03*
X155362D03*
X156937D03*
X160087Y30854D03*
X158512D03*
Y50146D03*
X160087D03*
G54D12*
X43622Y13087D03*
X41063D03*
X43622Y15646D03*
X41063D03*
X43622Y18205D03*
X41063D03*
X43622Y20764D03*
X41063D03*
X43622Y23323D03*
X41063D03*
X43622Y25882D03*
X41063D03*
X43622Y28441D03*
X41063D03*
X43622Y31000D03*
X41063D03*
X43622Y33559D03*
X41063D03*
X43622Y36118D03*
X41063D03*
X43622Y38677D03*
X41063D03*
X43622Y41236D03*
X41063D03*
X43622Y43795D03*
X41063D03*
X43622Y46354D03*
X41063D03*
X43622Y48913D03*
X41063D03*
X53858Y13087D03*
X51299D03*
X48740D03*
X46181D03*
X53858Y15646D03*
X51299D03*
X48740D03*
X46181D03*
X53858Y18205D03*
X51299D03*
X48740D03*
X46181D03*
X53858Y20764D03*
X51299D03*
X48740D03*
X46181D03*
X48740Y23323D03*
X46181D03*
X53858Y25882D03*
X48740D03*
X46181D03*
X53858Y28441D03*
X48740D03*
X46181D03*
X53858Y31000D03*
X48740D03*
X46181D03*
X53858Y33559D03*
X48740D03*
X46181D03*
X53858Y36118D03*
X48740D03*
X46181D03*
X48740Y38677D03*
X46181D03*
X53858Y41236D03*
X51299D03*
X48740D03*
X46181D03*
X53858Y43795D03*
X51299D03*
X48740D03*
X46181D03*
X53858Y46354D03*
X51299D03*
X48740D03*
X46181D03*
X53858Y48913D03*
X51299D03*
X48740D03*
X46181D03*
X61535Y13087D03*
X58976D03*
X56417D03*
X61535Y15646D03*
X58976D03*
X56417D03*
X61535Y18205D03*
X58976D03*
X56417D03*
X61535Y20764D03*
X58976D03*
X56417D03*
X61535Y25882D03*
X58976D03*
X56417D03*
X61535Y28441D03*
X58976D03*
X56417D03*
X61535Y31000D03*
X58976D03*
X56417D03*
X61535Y33559D03*
X58976D03*
X56417D03*
X61535Y36118D03*
X58976D03*
X56417D03*
X61535Y41236D03*
X58976D03*
X56417D03*
X61535Y43795D03*
X58976D03*
X56417D03*
X61535Y46354D03*
X58976D03*
X56417D03*
X61535Y48913D03*
X58976D03*
X56417D03*
X69212Y13087D03*
X66654D03*
X64094D03*
X69212Y15646D03*
X66654D03*
X64094D03*
X69212Y18205D03*
X66654D03*
X64094D03*
X69212Y20764D03*
X66654D03*
X64094D03*
X69212Y23323D03*
Y25882D03*
X64094D03*
X69212Y28441D03*
X64094D03*
X69212Y31000D03*
X64094D03*
X69212Y33559D03*
X64094D03*
X69212Y36118D03*
X64094D03*
X69212Y38677D03*
Y41236D03*
X66654D03*
X64094D03*
X69212Y43795D03*
X66654D03*
X64094D03*
X69212Y46354D03*
X66654D03*
X64094D03*
X69212Y48913D03*
X66654D03*
X64094D03*
X76890Y13087D03*
X74331D03*
X71772D03*
X76890Y15646D03*
X74331D03*
X71772D03*
X76890Y18205D03*
X74331D03*
X71772D03*
X76890Y20764D03*
X74331D03*
X71772D03*
X76890Y23323D03*
X74331D03*
X71772D03*
X76890Y25882D03*
X74331D03*
X71772D03*
X76890Y28441D03*
X74331D03*
X71772D03*
X76890Y31000D03*
X74331D03*
X71772D03*
X76890Y33559D03*
X74331D03*
X71772D03*
X76890Y36118D03*
X74331D03*
X71772D03*
X76890Y38677D03*
X74331D03*
X71772D03*
X76890Y41236D03*
X74331D03*
X71772D03*
X76890Y43795D03*
X74331D03*
X71772D03*
X76890Y46354D03*
X74331D03*
X71772D03*
X76890Y48913D03*
X74331D03*
X71772D03*
G54D22*
X153000Y40500D03*
G54D13*
X70468Y54347D03*
X81032Y54700D03*
G54D14*
X93902Y12402D03*
Y15551D03*
X97051Y12402D03*
Y15551D03*
X93902Y18701D03*
X97051D03*
X93902Y31299D03*
X97051D03*
X93902Y34449D03*
Y37598D03*
X97051Y34449D03*
Y37598D03*
X100201Y12402D03*
Y15551D03*
X103350Y12402D03*
Y15551D03*
X100201Y18701D03*
X103350D03*
X100201Y31299D03*
X103350D03*
X100201Y34449D03*
Y37598D03*
X103350Y34449D03*
Y37598D03*
X106500Y12402D03*
Y15551D03*
X109650Y12402D03*
Y15551D03*
X112799Y12402D03*
Y15551D03*
X106500Y18701D03*
X109650D03*
X112799D03*
X106500Y31299D03*
X109650D03*
X112799D03*
X106500Y34449D03*
Y37598D03*
X109650Y34449D03*
Y37598D03*
X112799Y34449D03*
Y37598D03*
X115949Y12402D03*
Y15551D03*
X119098Y12402D03*
Y15551D03*
X115949Y18701D03*
X119098D03*
X115949Y31299D03*
X119098D03*
X115949Y34449D03*
Y37598D03*
X119098Y34449D03*
Y37598D03*
G54D23*
X143354Y33413D03*
Y34988D03*
Y36563D03*
Y38138D03*
Y39713D03*
Y41287D03*
Y42862D03*
Y44437D03*
Y46012D03*
Y47587D03*
X162646Y41287D03*
Y39713D03*
Y38138D03*
Y36563D03*
Y34988D03*
Y33413D03*
Y47587D03*
Y46012D03*
Y44437D03*
Y42862D03*
G54D24*
X153882Y14154D03*
X156441D03*
X164118D03*
X161559D03*
X159000D03*
G54D15*
X132501Y23999D03*
G54D16*
X128563Y21047D03*
Y23016D03*
Y24984D03*
Y26953D03*
G54D17*
X136437Y23016D03*
Y21047D03*
Y26953D03*
Y24984D03*
G54D18*
X139256Y31000D03*
X133744D03*
X132244Y48000D03*
X137756D03*
X132244Y43000D03*
X137756D03*
G54D19*
X144630Y3622D03*
X154276D03*
X163724D03*
X173370D03*
M02*
