G04 ================== begin FILE IDENTIFICATION RECORD ==================*
G04 Layout Name:  E:/material/glass/pcb/test-stm32f429/pcb/f429.brd*
G04 Film Name:    BOTTOM*
G04 File Format:  Gerber RS274X*
G04 File Origin:  Cadence Allegro 16.6-S049*
G04 Origin Date:  Wed Oct 14 16:51:38 2015*
G04 *
G04 Layer:  ETCH/BOTTOM*
G04 Layer:  PIN/BOTTOM*
G04 Layer:  VIA CLASS/BOTTOM*
G04 *
G04 Offset:    (0.00 0.00)*
G04 Mirror:    No*
G04 Mode:      Positive*
G04 Rotation:  0*
G04 FullContactRelief:  No*
G04 UndefLineWidth:     0.00*
G04 ================== end FILE IDENTIFICATION RECORD ====================*
%FSLAX25Y25*MOIN*%
%IR0*IPPOS*OFA0.00000B0.00000*MIA0B0*SFA1.00000B1.00000*%
%ADD10R,.12X.06*%
%ADD11C,.011*%
%ADD16C,.01575*%
%ADD13C,.06299*%
%ADD14R,.06299X.06299*%
%ADD12R,.08X.01*%
%ADD15C,.00984*%
%ADD17C,.01*%
%ADD18C,.02*%
%ADD19C,.004*%
%ADD20C,.007*%
%ADD21R,.12004X.06002*%
%ADD25C,.06302*%
%ADD22C,.02704*%
%ADD23C,.07702*%
%ADD24C,.07902*%
%ADD27C,.02378*%
%ADD28C,.01578*%
%ADD26R,.07702X.07702*%
%ADD29C,.00988*%
G75*
%LPD*%
G75*
G36*
G01X4Y4D02*
Y200096D01*
X195996D01*
Y4D01*
X4D01*
G37*
%LPC*%
G75*
G36*
G01X100105Y28298D02*
X92202Y20395D01*
Y10050D01*
G02X88798I-1702J0D01*
G01Y21805D01*
X98695Y31702D01*
X104295D01*
X109797Y37203D01*
G02X112203Y34797I1203J-1203D01*
G01X105705Y28298D01*
X100105D01*
G37*
G36*
G01X93402Y182273D02*
Y176008D01*
G02X91598I-902J-1008D01*
G01Y181003D01*
G03X91039Y181370I-400J0D01*
G02X92861Y183020I-1539J3530D01*
G01X92787Y182888D01*
X93402Y182273D01*
G37*
G36*
G01X73402D02*
Y176008D01*
G02X71598I-902J-1008D01*
G01Y181003D01*
G03X71039Y181370I-400J0D01*
G02X72861Y183020I-1539J3530D01*
G01X72787Y182888D01*
X73402Y182273D01*
G37*
G36*
G01X99140Y175069D02*
X98598Y175611D01*
Y181153D01*
X98453Y181194D01*
G02X100547I1047J3706D01*
G01X100402Y181153D01*
Y176540D01*
G03X100587Y176341I200J0D01*
G02X99140Y174987I-95J-1349D01*
G01Y175069D01*
G37*
G36*
G01X84894Y180781D02*
Y176000D01*
G02X83090I-902J-1008D01*
G01Y180035D01*
X81512Y181613D01*
X81380Y181539D01*
G02X82861Y183020I-1880J3361D01*
G01X82787Y182888D01*
X84894Y180781D01*
G37*
G36*
G01X179398Y157408D02*
Y159453D01*
X179253Y159494D01*
G02X181347I1047J3706D01*
G01X181202Y159453D01*
Y157408D01*
G02X179398I-902J-1008D01*
G37*
G36*
G01X108328Y156875D02*
G03X108214Y157400I-346J200D01*
G02X110008Y159402I787J1100D01*
G01X118992D01*
G02Y157598I1008J-902D01*
G01X110940D01*
G03X110611Y156971I0J-400D01*
G02X108328Y156875I-1111J-771D01*
G37*
G36*
G01X139661Y143560D02*
G03X139752Y144085I-248J313D01*
G02X141739Y143740I1148J715D01*
G03X141648Y143215I248J-313D01*
G02X139661Y143560I-1148J-715D01*
G37*
G36*
G01X95734Y68423D02*
X116355Y47802D01*
X120192D01*
G02Y45998I1008J-902D01*
G01X115609D01*
X94459Y67148D01*
X94377D01*
G02X95734Y68505I5J1352D01*
G01Y68423D01*
G37*
G36*
G01X101702Y56278D02*
Y43322D01*
X101721Y43281D01*
G02X99279I-1221J-581D01*
G01X99298Y43322D01*
Y47174D01*
G03X98830Y47568I-400J0D01*
G02Y50232I-230J1332D01*
G03X99298Y50626I68J394D01*
G01Y56278D01*
X99279Y56319D01*
G02X101721I1221J581D01*
G01X101702Y56278D01*
G37*
G36*
G01X171902Y89123D02*
Y33008D01*
G02X170098I-902J-1008D01*
G01Y88377D01*
X169848Y88627D01*
Y89242D01*
G02X171831Y89437I902J1008D01*
G01X171726Y89299D01*
X171902Y89123D01*
G37*
G36*
G01X63852Y27923D02*
X65373Y26402D01*
X79202D01*
X79254Y26524D01*
G02X80505Y24648I1246J-524D01*
G01X80423D01*
X80373Y24598D01*
X64627D01*
X62577Y26648D01*
X62495D01*
G02X63852Y28005I5J1352D01*
G01Y27923D01*
G37*
G36*
G01X130398Y26768D02*
X129323Y27844D01*
X129280Y27859D01*
G02X131007Y29586I453J1274D01*
G01X131022Y29543D01*
X132802Y27764D01*
Y25604D01*
G03X133407Y25261I400J0D01*
G02Y22939I693J-1161D01*
G03X132802Y22596I-205J-343D01*
G01Y16622D01*
X132821Y16581D01*
G02X130379I-1221J-581D01*
G01X130398Y16622D01*
Y26768D01*
G37*
G36*
G01X156703Y12797D02*
G02X154297Y15203I-1203J1203D01*
G01X156020Y16927D01*
Y29800D01*
G02X159424I1702J0D01*
G01Y29798D01*
G03X160092Y29502I400J0D01*
G02Y27498I908J-1002D01*
G03X159424Y27202I-268J-296D01*
G01Y15517D01*
X156703Y12797D01*
G37*
G36*
G01X144949Y58563D02*
G02X143864Y59534I-1302J-363D01*
G03X144314Y60037I65J395D01*
G02X145399Y59066I1302J363D01*
G03X144949Y58563I-65J-395D01*
G37*
G36*
G01X174401Y115295D02*
G02X172974Y115581I-901J-795D01*
G03X173099Y116205I-175J360D01*
G02X173248Y117938I901J795D01*
G03Y118562I-250J312D01*
G02X174752I752J938D01*
G03Y117938I250J-312D01*
G02X174526Y115919I-752J-938D01*
G03X174401Y115295I175J-360D01*
G37*
G36*
G01X41983Y26866D02*
G02X40366Y28483I-3483J-1866D01*
G01X40496Y28413D01*
X43085Y31002D01*
X46054D01*
G03X46279Y31732I0J400D01*
G02X51949Y36927I2221J3268D01*
G03X52698Y37122I349J195D01*
G01Y37214D01*
X54650Y39166D01*
G03X54368Y39848I-283J282D01*
G01X44765D01*
X41913Y36996D01*
X41983Y36866D01*
G02X40494Y38411I-3483J-1866D01*
G01X43935Y41852D01*
X45127D01*
G03X45437Y42504I0J400D01*
G02X46279Y48268I3063J2496D01*
G03X46054Y48998I-225J330D01*
G01X43915D01*
X41911Y46994D01*
G02X40494Y48411I-3411J-1994D01*
G01X43085Y51002D01*
X51995D01*
X81556Y80563D01*
G03X81405Y81223I-283J283D01*
G02X80948Y83508I445J1277D01*
G01Y99446D01*
X80245Y100150D01*
G02X81519Y101424I637J637D01*
G01X81957Y100986D01*
G03X82611Y101120I283J283D01*
G02X83692Y101645I830J-333D01*
G03X83930Y101921I56J192D01*
G02X83852Y102145I1090J505D01*
G03X83456Y102452I-389J-93D01*
G02X82547Y103353I-15J894D01*
G03X82226Y103749I-400J4D01*
G02X82014Y103812I235J1179D01*
G03X81746Y103575I-75J-186D01*
G02X79988Y103353I-864J-229D01*
G03X79667Y103749I-400J4D01*
G02X79455Y103812I235J1179D01*
G03X79187Y103575I-75J-186D01*
G02X78503Y102470I-864J-229D01*
G03X78343Y102290I39J-196D01*
G02X78317Y102127I-998J76D01*
G03X78588Y101649I388J-96D01*
G02X79224Y100787I-266J-862D01*
G01Y89308D01*
G02X77422I-901J-1008D01*
G01Y95647D01*
G03X76739Y95929I-400J-1D01*
G01X73229Y92419D01*
G03X73326Y91782I283J-283D01*
G02X73702Y89676I-626J-1198D01*
G01Y86085D01*
X57115Y69498D01*
X44415D01*
X41911Y66994D01*
G02X40254Y61460I-3411J-1994D01*
G03X40432Y60702I178J-358D01*
G01X46568D01*
G03X46746Y61460I0J400D01*
G02X50254I1754J3540D01*
G03X50432Y60702I178J-358D01*
G01X55002D01*
X66961Y72660D01*
X66976Y72703D01*
G02X68703Y70976I1274J-453D01*
G01X68660Y70961D01*
X55998Y58298D01*
X50551D01*
G03X50320Y57572I0J-400D01*
G02X46680I-1820J-2572D01*
G03X46449Y58298I-231J326D01*
G01X41745D01*
G03X41447Y57632I0J-400D01*
G02X35553I-2947J-2632D01*
G03X35255Y58298I-298J266D01*
G01X31622D01*
X31581Y58279D01*
G02Y60721I-581J1221D01*
G01X31622Y60702D01*
X36568D01*
G03X36746Y61460I0J400D01*
G02X40366Y68483I1755J3540D01*
G01X40496Y68413D01*
X43585Y71502D01*
X45445D01*
G03X45726Y72186I0J400D01*
G02X52282Y76144I2774J2814D01*
G01X52325Y76002D01*
X58378D01*
X61192Y78816D01*
G03X60910Y79498I-283J282D01*
G01X44415D01*
X41911Y76994D01*
G02X40366Y78483I-3411J-1994D01*
G01X40496Y78413D01*
X43585Y81502D01*
X45445D01*
G03X45726Y82186I0J400D01*
G02X46279Y88268I2774J2814D01*
G03X46054Y88998I-225J330D01*
G01X43915D01*
X41911Y86994D01*
G02X40366Y88483I-3411J-1994D01*
G01X40496Y88413D01*
X43085Y91002D01*
X46054D01*
G03X46279Y91732I0J400D01*
G02X52282Y96144I2221J3268D01*
G01X52325Y96002D01*
X65989D01*
X70069Y100081D01*
X69954Y100221D01*
G02X70691Y101680I692J566D01*
G03X71112Y102079I21J400D01*
G01Y102485D01*
X70887D01*
X70863Y102479D01*
G02X71500Y103609I-217J867D01*
G03X71981Y103339I382J118D01*
G02X72149Y103366I242J-972D01*
G03X72329Y103526I-16J199D01*
G02X72944Y104201I876J-180D01*
G03X73225Y104620I-117J382D01*
G02X73223Y104812I1197J108D01*
G03X73057Y105023I-199J14D01*
G02X72311Y105912I148J882D01*
G03X71990Y106308I-400J4D01*
G02X71778Y106371I235J1179D01*
G03X71510Y106134I-75J-186D01*
G02X69757Y105808I-864J-229D01*
G03X69376Y106164I-397J-44D01*
G02X69214Y106182I51J1201D01*
G03X68979Y105971I-36J-197D01*
G02X67636Y105133I-892J-66D01*
G03X67388Y105095I-100J-173D01*
G02X66841Y104752I-889J810D01*
G01X66792Y104738D01*
X66614Y104560D01*
X66927Y104248D01*
X68087D01*
G02Y102444I0J-902D01*
G01X66277D01*
X66230Y102310D01*
G02X66204Y102240I-1280J436D01*
G03X66574Y101688I370J-152D01*
G01X68087D01*
G02Y99886I0J-901D01*
G01X64265D01*
X60940Y103210D01*
X60858D01*
G02X61706Y105619I5J1352D01*
G03X62228Y105639I249J313D01*
G02X63919Y105762I922J-989D01*
G03X64170Y105781I114J165D01*
G02X65320Y106134I930J-981D01*
G02X67388Y106715I1180J-229D01*
G03X67636Y106677I148J135D01*
G02X67914Y106782I450J-772D01*
G03X68234Y107222I-77J393D01*
G02X68225Y107371I1193J147D01*
G03X68036Y107571I-200J0D01*
G02X68295Y109333I51J893D01*
G03X68528Y109602I47J195D01*
G02X68467Y109808I1117J443D01*
G03X68078Y110129I-392J-79D01*
G02X67266Y110669I9J894D01*
G01X67214Y110790D01*
X51294D01*
X50494Y111589D01*
G02X46634Y111517I-1994J3411D01*
G01X46504Y111587D01*
X43865Y108948D01*
X41018D01*
G03X40786Y108222I0J-400D01*
G02X41563Y102504I-2286J-3222D01*
G03X41873Y101852I310J-252D01*
G01X43935D01*
X45089Y103006D01*
G02X46634Y101517I3411J1994D01*
G01X46504Y101587D01*
X44765Y99848D01*
X36366D01*
X33348Y102866D01*
Y102935D01*
X29237Y107046D01*
G03X28599Y106948I-283J-282D01*
G02X28414Y106678I-1199J623D01*
G02X28590Y104864I-906J-1003D01*
G03X28610Y104602I160J-120D01*
G02X28711Y102779I-945J-967D01*
G03X28712Y102525I155J-126D01*
G02X28586Y100676I-1045J-858D01*
G03X28575Y100100I272J-293D01*
G01X30894Y97781D01*
Y91600D01*
G02X29090I-902J-1008D01*
G01Y97035D01*
X27327Y98798D01*
X26775D01*
X26773Y98796D01*
X26402D01*
Y98496D01*
X25702D01*
Y96962D01*
X26402D01*
Y94560D01*
X15383D01*
X15342Y94540D01*
G02Y96982I-581J1221D01*
G01X15383Y96962D01*
X17698D01*
Y98496D01*
X16998D01*
Y100365D01*
X16898D01*
Y115712D01*
G03X16404Y116101I-400J0D01*
G02Y118729I-319J1314D01*
G03X16898Y119118I94J389D01*
G01Y126591D01*
X16998D01*
Y128324D01*
X15402D01*
X13148Y130578D01*
Y138116D01*
X14934Y139902D01*
X16627D01*
X16834Y140109D01*
G03X16551Y140792I-283J283D01*
G01X5068D01*
Y146794D01*
X17072D01*
Y141312D01*
G03X17754Y141029I400J0D01*
G01X19648Y142923D01*
Y143005D01*
G02X21005Y141648I1352J-5D01*
G01X20923D01*
X18259Y138984D01*
G03X18542Y138302I283J-282D01*
G01X26402D01*
Y135898D01*
X25702D01*
Y134365D01*
X26590D01*
X27098Y134873D01*
Y152298D01*
X35952Y161152D01*
X36014D01*
G03X36248Y161876I0J400D01*
G02X34794Y163953I2252J3124D01*
G01X34753Y164098D01*
X34277D01*
X34269Y164106D01*
X27000D01*
G02Y165910I-1008J902D01*
G01X34755D01*
X34796Y166055D01*
G02X40752Y161876I3704J-1055D01*
G03X40986Y161152I234J-324D01*
G01X45847D01*
G03X46091Y161868I0J400D01*
G02X52282Y166144I2409J3132D01*
G01X52325Y166002D01*
X55585D01*
X56935Y167352D01*
X60904D01*
G03X61187Y168034I0J400D01*
G01X52907Y176314D01*
G03X52236Y175934I-283J-283D01*
G02X51605Y172723I-3736J-933D01*
G03X51716Y172147I323J-237D01*
G02X49655Y170859I-716J-1147D01*
G03X49186Y171211I-398J-42D01*
G02X46620Y171639I-687J3789D01*
G01X46488Y171713D01*
X44673Y169898D01*
X35008D01*
G02Y171702I-1008J902D01*
G01X35390D01*
G03X35683Y172374I0J400D01*
G02X41317I2817J2626D01*
G03X41610Y171702I293J-272D01*
G01X43927D01*
X45213Y172988D01*
X45139Y173120D01*
G02X51216Y177730I3361J1880D01*
G03X51898Y178013I282J283D01*
G01Y181987D01*
G03X51216Y182270I-400J0D01*
G02Y187730I-2716J2730D01*
G03X51898Y188013I282J283D01*
G01Y190327D01*
X50512Y191713D01*
X50380Y191639D01*
G02X51861Y193120I-1880J3361D01*
G01X51787Y192988D01*
X53702Y191073D01*
Y178069D01*
X53998Y177773D01*
X54198Y177973D01*
Y178055D01*
G02X54603Y179015I1352J-5D01*
G03X54615Y179574I-280J286D01*
G02X55468Y181846I985J926D01*
G03X55649Y182045I-19J199D01*
G01Y188751D01*
X63351D01*
Y181049D01*
X61184D01*
G03X60822Y180478I0J-400D01*
G02X58378I-1222J-578D01*
G03X58016Y181049I-362J171D01*
G01X57346D01*
G03X56947Y180615I0J-400D01*
G02X56547Y179535I-1347J-115D01*
G03X56535Y178976I280J-286D01*
G02X55885Y176740I-985J-926D01*
G03X55701Y176070I99J-387D01*
G01X55861Y175910D01*
G03X56464Y175953I283J283D01*
G02X58356Y174061I1082J-810D01*
G03X58313Y173458I240J-320D01*
G01X63168Y168602D01*
X71156D01*
G03X71556Y169004I0J400D01*
G02X73628Y167863I1352J4D01*
G03X73558Y167242I213J-338D01*
G01X93798Y147001D01*
Y144711D01*
G02X92090Y142618I-901J-1009D01*
G03X91452Y142297I-238J-321D01*
G01Y140255D01*
X94385Y137321D01*
G02X92969Y135905I-708J-708D01*
G01X92558Y136316D01*
G03X91917Y136212I-283J-283D01*
G02X91339Y135747I-799J401D01*
G03X91039Y135332I99J-388D01*
G02X91038Y135157I-1199J-81D01*
G03X91216Y134943I199J-15D01*
G02X91968Y134330I-98J-889D01*
G03X92382Y134055I380J124D01*
G02X92584Y134054I95J-1198D01*
G03X92798Y134217I17J199D01*
G02X94557Y133898I879J-163D01*
G03X94700Y133671I197J-34D01*
G02X94801Y133638I-322J-1158D01*
G03X95342Y134025I141J374D01*
G02X96056Y134930I894J29D01*
G03X96216Y135110I-39J196D01*
G02X96368Y135567I998J-78D01*
G01X96398Y135616D01*
Y135920D01*
G03X96209Y136120I-200J0D01*
G02Y137106I27J493D01*
G03X96398Y137306I-11J200D01*
G01Y139168D01*
X97222Y139991D01*
X97229Y140062D01*
G02X98709Y138582I1345J-135D01*
G01X98638Y138575D01*
X98402Y138338D01*
Y137507D01*
G03X98799Y137107I400J0D01*
G02X98869Y137101I-7J-494D01*
G01X98884Y137099D01*
X99098D01*
Y137473D01*
X101684Y140058D01*
Y141298D01*
X105287Y144902D01*
X110227D01*
X110671Y145346D01*
G03X110432Y146026I-283J282D01*
G02X109239Y147192I147J1344D01*
G02X110417Y148712I-162J1342D01*
G02X111923Y147517I162J-1342D01*
G03X112603Y147278I398J44D01*
G01X121611Y156286D01*
X175989D01*
X176423Y155852D01*
X176505D01*
G02X177362Y153459I-5J-1352D01*
G03X177337Y153175I128J-154D01*
G02X175942Y151000I-1033J-872D01*
G03X175710Y150897I-53J-193D01*
G02X175095Y150286I-1210J603D01*
G03X174889Y149806I176J-360D01*
G02X172248Y149395I-1289J-407D01*
G01Y149477D01*
X172127Y149598D01*
X134008D01*
G02X132793Y149164I-1007J902D01*
G03X132336Y148707I-62J-395D01*
G02X132237Y147955I-1336J-207D01*
G03X132328Y147698I183J-80D01*
G02X131705Y145148I-628J-1198D01*
G01X131623D01*
X126517Y140042D01*
G03X126617Y139403I282J-283D01*
G02X126135Y136855I-617J-1203D01*
G01X126064Y136848D01*
X125002Y135785D01*
Y135218D01*
G03X125684Y134936I400J1D01*
G01X131248Y140500D01*
X131502D01*
X131557Y140545D01*
G02X133419Y138595I856J-1046D01*
G02X133504Y136692I-916J-994D01*
G01Y133647D01*
X133950Y133201D01*
Y131941D01*
X133977Y131895D01*
G02X134112Y131545I-1028J-597D01*
G03X134595Y131239I391J83D01*
G02X134740Y131264I276J-1170D01*
G03X134917Y131439I-21J199D01*
G02X135235Y132116I1181J-141D01*
G03X135233Y132668I-291J275D01*
G02X135098Y134165I867J833D01*
G01Y140592D01*
G02X137102I1002J908D01*
G01Y134165D01*
G02X137283Y133289I-1002J-664D01*
G01X137265Y133186D01*
X138088Y132363D01*
Y126138D01*
X137252Y125303D01*
X137270Y125201D01*
G02X137286Y124946I-1172J-202D01*
G01X137282Y124858D01*
X137486Y124654D01*
X138998Y126167D01*
Y134092D01*
G02X140870Y136035I1001J908D01*
G03X141198Y136188I128J153D01*
G01Y136274D01*
X141965Y137040D01*
G03X141886Y137667I-283J283D01*
G02X143649Y139054I614J1033D01*
G01X143692Y138912D01*
X165003D01*
X169478Y134437D01*
X169599Y134484D01*
G02X169932Y132188I425J-1111D01*
G03X169502Y131789I-30J-399D01*
G01Y128285D01*
X168037Y126821D01*
X168023Y126769D01*
G02X167992Y126670I-1149J305D01*
G03X168176Y126402I188J-68D01*
G02X168242Y124002I-27J-1202D01*
G03X168058Y123820I16J-200D01*
G02X166770Y125108I-1184J104D01*
G03X166952Y125292I-18J200D01*
G02X166971Y125435I1199J-87D01*
G03X166653Y125906I-392J78D01*
G02X165719Y126793I221J1168D01*
G03X165047Y126981I-389J-95D01*
G01X164887Y126821D01*
X164873Y126769D01*
G02X162536Y127017I-1149J305D01*
G03X162128Y127398I-399J-19D01*
G02X161978Y127404I-27J1202D01*
G03X161759Y127186I-20J-199D01*
G02X160519Y128262I-1184J-112D01*
G03X160900Y128646I-19J399D01*
G02X160917Y128808I1201J-44D01*
G03X160699Y129042I-197J35D01*
G02X159426Y129919I-124J1182D01*
G01X159412Y129971D01*
X159252Y130131D01*
G03X158580Y129943I-283J-283D01*
G02X156248Y130055I-1155J281D01*
G03X155864Y130399I-396J-56D01*
G01X155862D01*
G03X155453Y130056I-13J-400D01*
G02X154074Y129052I-1177J168D01*
G01X153972Y129070D01*
X152763Y127860D01*
X152667D01*
G03X152279Y127363I0J-400D01*
G02X152281Y127355I-1152J-292D01*
G03X152953Y127167I389J95D01*
G01X153113Y127327D01*
X153127Y127379D01*
G02X154581Y125925I1149J-305D01*
G01X154529Y125911D01*
X154369Y125751D01*
G03X154557Y125079I283J-283D01*
G02X154581Y122775I-281J-1155D01*
G01X154529Y122761D01*
X154370Y122602D01*
G03X154558Y121930I283J-283D01*
G02X154299Y119586I-282J-1155D01*
G03X154103Y119388I4J-200D01*
G02X154094Y119250I-1202J9D01*
G03X154436Y118803I397J-51D01*
G02X153095Y117764I-160J-1178D01*
G03X152749Y118208I-397J47D01*
G02X152506Y118265I151J1192D01*
G03X152251Y118011I-66J-189D01*
G02X151512Y118750I-1125J-386D01*
G03X151766Y119005I65J189D01*
G02X151709Y119248I1135J394D01*
G03X151265Y119594I-397J-51D01*
G02X150159Y120084I-138J1181D01*
G03X149550Y120134I-326J-233D01*
G01X149082Y119665D01*
Y114185D01*
X146707Y111810D01*
G03X146998Y111128I283J-282D01*
G02X147476Y111040I26J-1202D01*
G03X148026Y111389I151J371D01*
G02X150049Y112202I1200J-63D01*
G03X150321Y112201I137J146D01*
G02X152199Y110814I805J-875D01*
G01X152179Y110773D01*
Y110528D01*
X152627D01*
X153122Y111022D01*
X153104Y111124D01*
G02X155431Y111608I1172J203D01*
G03X156103Y111420I389J95D01*
G01X156262Y111579D01*
X156276Y111631D01*
G02X157730Y110177I1149J-305D01*
G01X157678Y110163D01*
X157002Y109486D01*
Y109365D01*
G03X157409Y108965I400J0D01*
G02Y107387I16J-789D01*
G03X157002Y106987I-7J-400D01*
G01Y106329D01*
X157336D01*
X157387Y106453D01*
G02X158636Y107194I1113J-453D01*
G01X158732Y107183D01*
X159421Y107872D01*
X159403Y107974D01*
G02X161730Y108458I1172J203D01*
G03X162402Y108270I389J95D01*
G01X162561Y108429D01*
X162575Y108481D01*
G02X164879Y108457I1149J-305D01*
G03X165551Y108269I389J95D01*
G01X165711Y108429D01*
X165725Y108481D01*
G02X167179Y107027I1149J-305D01*
G01X167127Y107013D01*
X156363Y96248D01*
X156217D01*
G03X155825Y95769I0J-400D01*
G02X153175I-1325J-269D01*
G03X152783Y96248I-392J79D01*
G01X137118D01*
G03X136863Y95541I1J-400D01*
G02X135137I-863J-1041D01*
G03X134882Y96248I-256J307D01*
G01X132118D01*
G03X131863Y95541I1J-400D01*
G02X130137I-863J-1041D01*
G03X129882Y96248I-256J307D01*
G01X127118D01*
G03X126863Y95541I1J-400D01*
G02X125137I-863J-1041D01*
G03X124882Y96248I-256J307D01*
G01X121040D01*
X120036Y97253D01*
X119965Y97260D01*
G02X118752Y98505I135J1345D01*
G03X118070Y98759I-399J-29D01*
G01X117852Y98541D01*
X117845Y98470D01*
G02X116365Y99950I-1345J135D01*
G01X116436Y99957D01*
X116638Y100160D01*
X116446Y100352D01*
X116374Y100359D01*
G02X115215Y101284I126J1346D01*
G03X114552Y101443I-380J-124D01*
G01X109408Y96298D01*
X101175D01*
X100276Y97198D01*
G03X99624Y97069I-283J-283D01*
G02X97279Y96800I-1248J521D01*
G02X95822Y96737I-778J1106D01*
G03X95562Y96685I-101J-173D01*
G02X93134Y97587I-1079J815D01*
G03X92944Y97799I-200J12D01*
G02X92340Y97995I56J1201D01*
G03X92074Y97952I-109J-167D01*
G02X91020Y97501I-943J746D01*
G03X90582Y97103I-38J-398D01*
G01Y92860D01*
X90746Y92829D01*
G02X89946Y90267I-245J-1329D01*
G03X89382Y89902I-164J-365D01*
G01Y85556D01*
X52825Y48998D01*
X50946D01*
G03X50721Y48268I0J-400D01*
G02X52010Y46814I-2221J-3268D01*
G03X52648Y46715I355J184D01*
G01X90778Y84844D01*
Y85842D01*
G02X92729Y87712I1001J908D01*
G02X94680Y85842I950J-962D01*
G01Y82764D01*
X56352Y44436D01*
X56345Y44365D01*
G02X56268Y44031I-1345J134D01*
G01X56224Y43911D01*
X56456Y43679D01*
X97695Y84918D01*
X97702Y84989D01*
G02X99718Y86028I1345J-135D01*
G03X100232Y86130I198J347D01*
G02X101705Y86590I1068J-830D01*
G02X104002Y85292I1295J-390D01*
G01Y83986D01*
X81149Y61133D01*
G03X81447Y60451I283J-282D01*
G02X80149Y59153I53J-1351D01*
G03X79467Y59451I-400J15D01*
G01X79063Y59048D01*
G03X79221Y58385I283J-283D01*
G02X80021Y56519I-421J-1285D01*
G01X80002Y56478D01*
Y43522D01*
X80021Y43481D01*
G02X77579I-1221J-581D01*
G01X77598Y43522D01*
Y47593D01*
G03X77039Y47960I-400J0D01*
G02Y50440I-539J1240D01*
G03X77598Y50807I159J367D01*
G01Y56478D01*
X77579Y56519D01*
G02X77515Y56679I1221J581D01*
G03X76852Y56837I-380J-125D01*
G01X56502Y36486D01*
Y31585D01*
X51911Y26994D01*
G02X46279Y28268I-3411J-1994D01*
G03X46054Y28998I-225J330D01*
G01X43915D01*
X41913Y26996D01*
X41983Y26866D01*
G37*
G54D21*
X11070Y89069D03*
G54D25*
X38500Y95000D03*
X79500Y194900D03*
X69500D03*
X89500D03*
X99500D03*
X109500D03*
X119500D03*
X139500D03*
X129500D03*
X149500D03*
X179100Y46100D03*
G54D22*
X21200Y155300D03*
X21500Y174500D03*
X87092Y23992D03*
X89000Y53000D03*
X87700Y60900D03*
X78417Y84400D03*
X82692Y169008D03*
X102380Y25520D03*
X99400Y155200D03*
X92392Y169008D03*
X101400Y163700D03*
X112279Y12379D03*
X108708Y24492D03*
X103600Y64000D03*
X108108Y64392D03*
X126600Y15779D03*
Y29600D03*
X118495Y42800D03*
X117521Y55721D03*
X121000Y94300D03*
X117400Y94079D03*
X119500Y166800D03*
X135300Y36600D03*
X136000Y147800D03*
X143608Y9908D03*
X140600Y18600D03*
X140400Y36600D03*
X149553Y62100D03*
X145692Y93192D03*
X153500Y33800D03*
X154500Y84300D03*
X159500Y84500D03*
Y95800D03*
X162500Y146500D03*
X157500D03*
X173700Y45500D03*
X168000Y47500D03*
X167500Y146400D03*
G54D23*
X38500Y5000D03*
Y185000D03*
Y195000D03*
X59500Y194900D03*
X109500Y184900D03*
X119500D03*
X139500D03*
X129500D03*
X150300Y163200D03*
Y173200D03*
X149500Y184900D03*
X160300Y163200D03*
Y173200D03*
X179100Y26100D03*
Y36100D03*
X190300Y163200D03*
Y173200D03*
X180300D03*
G54D24*
X38500Y15000D03*
X48500D03*
G54D27*
X151126Y114476D03*
X160575D03*
X157425D03*
X154276D03*
X160575Y111326D03*
X157425Y127074D03*
X160575Y123924D03*
X157425D03*
X160575Y120775D03*
X157425D03*
X160575Y117625D03*
X157425D03*
X173173Y101877D03*
X170024D03*
X166874Y114476D03*
X163724D03*
X166874Y111326D03*
X163724D03*
X173173Y105027D03*
X170024D03*
X163724Y123924D03*
X166874Y120775D03*
X163724D03*
X166874Y117625D03*
X173173Y136523D03*
X170024D03*
X173173Y133373D03*
G54D28*
X163724Y117625D03*
G54D26*
X48500Y5000D03*
X140300Y163200D03*
Y173200D03*
X170300Y163200D03*
Y173200D03*
X179100Y16100D03*
%LPD*%
G75*
G36*
G01X16148Y130128D02*
X14952Y131324D01*
Y135366D01*
G02X15408Y135762I400J0D01*
G03X16181Y135879I193J1338D01*
G01X16222Y135898D01*
X17698D01*
Y134365D01*
X16998D01*
Y130128D01*
X16148D01*
G37*
G36*
G01X110598Y123845D02*
X110700Y123827D01*
G03X109730Y124797I202J1172D01*
G01X109748Y124695D01*
X109584Y124532D01*
G02X108902Y124815I-282J283D01*
G01Y125298D01*
X110598Y126995D01*
X110700Y126977D01*
G03X109730Y127947I202J1172D01*
G01X109748Y127845D01*
X107870Y125968D01*
G02X107228Y126075I-283J283D01*
G03X105391Y126481I-1080J-527D01*
G02X104760Y126664I-252J311D01*
G03X103040Y126187I-846J-288D01*
G02X102649Y125702I-391J-85D01*
G01X102618D01*
G02X102227Y126187I0J400D01*
G03X100512Y126077I-873J190D01*
G02X100245Y125825I-188J-68D01*
G03X100008Y125899I-475J-1104D01*
G02X99687Y126318I78J392D01*
G03X98416Y125567I-892J59D01*
G02X98627Y125084I-170J-362D01*
G03X98572Y124684I1146J-361D01*
G03X97907Y123714I223J-866D01*
G02X97615Y123282I-397J-46D01*
G03X97315Y123154I317J-1160D01*
G02X97034Y123416I-103J172D01*
G03X95710Y124541I-798J402D01*
G03X95565Y124702I-962J-721D01*
G02X95555Y124986I136J147D01*
G03X95721Y125208I-873J826D01*
G01X95918D01*
X96190Y125481D01*
X96269Y125484D01*
G03X95522Y126915I-33J893D01*
G02X95265Y126860I-160J120D01*
G03X93865Y124926I-585J-1050D01*
G02X93875Y124642I-136J-147D01*
G03X93994Y122883I875J-824D01*
G02X93972Y122244I-251J-311D01*
G03X95545Y120445I688J-985D01*
G02X95791Y120483I147J-136D01*
G03X97015Y120820I445J776D01*
G02X97506Y120998I349J-196D01*
G03X97968Y120921I425J1124D01*
G03X99133Y122086I827J338D01*
G03X99056Y122548I-1201J37D01*
G02X99234Y123039I374J142D01*
G03X99640Y123525I-439J779D01*
G03X100113Y123567I132J1195D01*
G02X100575Y123380I114J-384D01*
G03X101255Y122929I780J437D01*
G02X101494Y122249I-44J-398D01*
G01X101400Y122155D01*
X101321Y122152D01*
G03X101157Y120387I34J-893D01*
G02X101468Y119990I-89J-390D01*
G03Y119963I1202J-13D01*
G02X101156Y119572I-400J-1D01*
G03X101321Y117807I198J-872D01*
G01X101400Y117804D01*
X101494Y117710D01*
G02X101255Y117030I-283J-282D01*
G03X100551Y116534I99J-889D01*
G02X100087Y116323I-360J175D01*
G03X99662Y116360I-315J-1160D01*
G03X99396Y116802I-866J-220D01*
G01Y118039D01*
G03X98194I-601J661D01*
G01Y116802D01*
G03X98576Y115274I601J-661D01*
G03X98613Y114849I1197J-110D01*
G02X98402Y114385I-386J-104D01*
G03X97992Y113975I393J-803D01*
G02X97528Y113764I-360J175D01*
G03X97103Y113801I-315J-1160D01*
G03X96017Y112715I-867J-219D01*
G03X96054Y112290I1197J-110D01*
G02X95843Y111826I-386J-104D01*
G03X97130Y111030I393J-803D01*
G02X97451Y111426I400J4D01*
G03X97773Y111539I-233J1179D01*
G01X97963Y111371D01*
X97931Y111252D01*
G03X98532Y110169I864J-229D01*
G01X98602Y110147D01*
X98681Y110024D01*
X98671Y109952D01*
G03X98685Y109554I1192J-157D01*
G02X98545Y109322I-196J-40D01*
G03X97955Y108771I249J-858D01*
G02X97489Y108519I-376J138D01*
G03X97126Y108548I-276J-1170D01*
G03X95396Y108771I-890J-84D01*
G02X94930Y108519I-376J138D01*
G03X94567Y108548I-276J-1170D01*
G03X92837Y108771I-890J-84D01*
G02X92371Y108519I-376J138D01*
G03X92008Y108548I-276J-1170D01*
G03X90278Y108771I-890J-84D01*
G02X89812Y108519I-376J138D01*
G03X89449Y108548I-276J-1170D01*
G03X88361Y107592I-890J-84D01*
G03X88389Y106996I1177J-243D01*
G02X88264Y106749I-191J-58D01*
G03X88125Y105123I295J-844D01*
G03X88214Y104389I1180J-229D01*
G02X88129Y104130I-182J-84D01*
G03X88380Y102470I430J-784D01*
G01X88445Y102457D01*
X88534Y102356D01*
X88539Y102288D01*
G03X88550Y102197I999J75D01*
G02X88271Y101746I-394J-68D01*
G03X87558Y100787I288J-959D01*
G01Y99910D01*
X87380Y99732D01*
Y86946D01*
X87166Y86873D01*
G02X86902Y87063I-64J190D01*
G01Y100787D01*
G03X86386Y101602I-902J0D01*
G02X86174Y102078I171J361D01*
G03X86223Y102480I-1152J344D01*
G03X86393Y104149I-223J866D01*
G02X86182Y104613I175J360D01*
G03X86219Y105038I-1160J315D01*
G03X85133Y106124I-219J867D01*
G03X84708Y106087I-110J-1197D01*
G02X84244Y106298I-104J386D01*
G03X82574Y106124I-803J-393D01*
G03X82149Y106087I-110J-1197D01*
G02X81685Y106298I-104J386D01*
G03X80015Y106124I-803J-393D01*
G03X79590Y106087I-110J-1197D01*
G02X79126Y106298I-104J386D01*
G03X78716Y106708I-803J-393D01*
G02X78505Y107172I175J360D01*
G03X78542Y107597I-1160J315D01*
G03X77456Y108683I-219J867D01*
G03X77031Y108646I-110J-1197D01*
G02X76567Y108857I-104J386D01*
G03X75771Y107570I-803J-393D01*
G02X76167Y107249I4J-400D01*
G03X76230Y107037I1179J235D01*
G02X75993Y106769I-185J-75D01*
G03X74885Y106069I-229J-864D01*
G02X74650Y105909I-197J36D01*
G03X74297Y105925I-230J-1180D01*
G02X74081Y106084I-20J199D01*
G03X73598Y106708I-876J-179D01*
G02X73387Y107172I175J360D01*
G03X73424Y107597I-1160J315D01*
G03X73598Y109267I-219J867D01*
G02X73387Y109731I175J360D01*
G03X73424Y110156I-1160J315D01*
G03X74069Y111252I-219J867D01*
G01X74037Y111371D01*
X74227Y111539D01*
G03X74549Y111426I555J1066D01*
G02X74870Y111030I-79J-392D01*
G03X76157Y111826I894J-7D01*
G02X75946Y112290I175J360D01*
G03X75983Y112715I-1160J315D01*
G03X74897Y113801I-219J867D01*
G03X74472Y113764I-110J-1197D01*
G02X74008Y113975I-104J386D01*
G03X73598Y114385I-803J-393D01*
G02X73387Y114849I175J360D01*
G03X73424Y115274I-1160J315D01*
G03X73598Y116944I-219J867D01*
G02X73387Y117408I175J360D01*
G03X73424Y117833I-1160J315D01*
G03X72338Y118919I-219J867D01*
G03X71913Y118882I-110J-1197D01*
G02X71449Y119093I-104J386D01*
G03X69770Y118879I-803J-393D01*
G02X69589Y118720I-196J40D01*
G03X69422Y118693I76J-999D01*
G02X68941Y118963I-99J388D01*
G03X67211Y118878I-854J-263D01*
G01X67199Y118819D01*
X67015Y118635D01*
X66749Y118902D01*
X64240D01*
G02X63843Y119347I0J400D01*
G03X61157I-1343J153D01*
G02X60760Y118902I-397J-45D01*
G01X57818D01*
X55015Y121704D01*
X51747D01*
G02X51449Y122371I0J400D01*
G03X51911Y126994I-2949J2629D01*
G01X56209Y131292D01*
X57410D01*
G02X57772Y130723I0J-400D01*
G03X58286Y128998I1224J-574D01*
G02X58359Y128375I-210J-340D01*
G01X57998Y128015D01*
Y122608D01*
G03X60002I1002J-908D01*
G01Y127185D01*
X60348Y127532D01*
X60581Y127299D01*
X60536Y127178D01*
G03X61795Y125348I1264J-478D01*
G01X61877D01*
X62177Y125048D01*
X64716D01*
X65143Y125476D01*
X68197D01*
Y125266D01*
G03X68201Y125119I1201J-41D01*
G02X67891Y124690I-398J-39D01*
G03X67638Y124591I195J-872D01*
G03Y123045I-920J-773D01*
G03X68318Y122954I450J773D01*
G02X68555Y122685I52J-193D01*
G03X68490Y122473I1112J-457D01*
G02X68095Y122153I-392J80D01*
G03X68889Y120863I-8J-894D01*
G02X69352Y121072I358J-177D01*
G03X69780Y121035I316J1160D01*
G03X71449Y120866I866J224D01*
G02X71913Y121077I360J-175D01*
G03X72338Y121040I315J1160D01*
G03X73424Y122126I867J219D01*
G03X73387Y122551I-1197J110D01*
G02X73598Y123015I386J104D01*
G03X73993Y123396I-393J803D01*
G02X74257Y123481I176J-95D01*
G03X74987Y123375I529J1079D01*
G03X75981Y124685I777J443D01*
G03X75741Y125290I-1195J-124D01*
G02X75927Y125911I318J243D01*
G03X75285Y126256I-163J466D01*
G02X74869Y125759I-388J-98D01*
G03X74553Y125739I-83J-1199D01*
G02X74083Y126207I-77J392D01*
G03X73423Y127244I-878J170D01*
G03X73388Y127671I-1196J117D01*
G02X73598Y128133I386J103D01*
G03X74008Y128543I-393J803D01*
G02X74472Y128754I360J-175D01*
G03X74897Y128717I315J1160D01*
G03X75983Y129803I867J219D01*
G03X75946Y130228I-1197J110D01*
G02X76157Y130692I386J104D01*
G03X76576Y131121I-393J803D01*
G02X76835Y131222I182J-84D01*
G03X77500Y131145I465J1108D01*
G03X78552Y130631I823J350D01*
G01X78671Y130663D01*
X78835Y130478D01*
X78789Y130363D01*
G03X78726Y130151I1116J-447D01*
G02X78330Y129830I-392J79D01*
G03X79126Y128543I-7J-894D01*
G02X79590Y128754I360J-175D01*
G03X80015Y128717I315J1160D01*
G03X81685Y128543I867J219D01*
G02X82149Y128754I360J-175D01*
G03X82574Y128717I315J1160D01*
G03X84244Y128543I867J219D01*
G02X84708Y128754I360J-175D01*
G03X85133Y128717I315J1160D01*
G03X86219Y129803I867J219D01*
G03X86182Y130228I-1197J110D01*
G02X86393Y130692I386J104D01*
G03X86872Y131299I-393J803D01*
G03X87159Y131405I-270J1171D01*
G02X87719Y131188I185J-355D01*
G03X88166Y130692I840J307D01*
G02X88377Y130228I-175J-360D01*
G03X88340Y129803I1160J-315D01*
G03X89426Y128717I219J-867D01*
G03X89851Y128754I110J1197D01*
G02X90315Y128543I104J-386D01*
G03X91963Y128644I803J393D01*
G02X92167Y128778I189J-65D01*
G03X92651Y128842I88J1199D01*
G01X92797Y128760D01*
X92820Y128682D01*
G03X94439Y128468I857J254D01*
G03X95194Y128576I216J1182D01*
G02X95458Y128496I90J-179D01*
G03X96998Y128468I778J440D01*
G03X97753Y128576I216J1182D01*
G02X98017Y128496I90J-179D01*
G03X99557Y128468I778J440D01*
G03X100312Y128576I216J1182D01*
G02X100576Y128496I90J-179D01*
G03X102243Y128840I778J440D01*
G02X102422Y129017I199J-22D01*
G03X102553Y129040I-90J897D01*
G02X103041Y128740I98J-388D01*
G03X104802Y128841I872J196D01*
G02X105199Y129198I397J-43D01*
G01X107473D01*
X109488Y131213D01*
G02X110152Y131054I283J-282D01*
G03X111650Y131046I750J244D01*
G02X112170Y131293I379J-127D01*
G03X112676Y131219I423J1125D01*
G02X112886Y131059I14J-200D01*
G03X115228Y131129I1165J239D01*
G02X115457Y131298I198J-29D01*
G03X115879Y131306I189J1187D01*
G01X116013Y131205D01*
X116025Y131124D01*
G03X117059Y132478I1176J174D01*
G02X116837Y132649I-24J199D01*
G03X116795Y132839I-1191J-164D01*
G01X116786Y132868D01*
Y133098D01*
X119573D01*
X119616Y133141D01*
G02X120298Y132867I282J-283D01*
G03X120898Y131854I1202J28D01*
G01Y131029D01*
X119698Y129829D01*
Y127937D01*
G02X119099Y127591I-400J0D01*
G03X118717Y127731I-599J-1042D01*
G02X118390Y128131I73J393D01*
G03X116030Y127941I-1189J17D01*
G02X115782Y127712I-197J-36D01*
G03X115599Y127746I-310J-1161D01*
G02X115240Y128145I41J398D01*
G03X114084Y126960I-1189J4D01*
G02X114288Y126730I6J-200D01*
G03X114274Y126571I1188J-185D01*
G02X113919Y126181I-400J7D01*
G03X113803Y123836I131J-1182D01*
G02X114120Y123446I-83J-391D01*
G01Y123416D01*
G02X113804Y123013I-400J-12D01*
G03X112874Y121682I247J-1163D01*
G02X112489Y121226I-396J-56D01*
G03X112473Y121225I67J-1200D01*
G01X112383Y121220D01*
X112056Y121546D01*
X112074Y121648D01*
G03X110827Y123037I-1172J202D01*
G02X110402Y123436I-25J399D01*
G01Y123648D01*
X110598Y123845D01*
G37*
G36*
G01X52316Y144364D02*
G02X51635Y144687I-283J283D01*
G03X50381Y147528I-3135J313D01*
G02X50620Y148248I239J320D01*
G01X56163D01*
X56206Y148107D01*
G03X56214Y148082I1292J400D01*
G01X56224Y148052D01*
Y147820D01*
X55773D01*
X52316Y144364D01*
G37*
G36*
G01X41745Y141702D02*
G02X41447Y142368I0J400D01*
G03X41487Y147587I-2947J2632D01*
G02X41789Y148248I302J261D01*
G01X46380D01*
G02X46619Y147528I0J-400D01*
G03X46680Y142428I1881J-2528D01*
G02X46449Y141702I-231J-326D01*
G01X41745D01*
G37*
G36*
G01X43065Y151852D02*
X41911Y153006D01*
G03X41487Y157587I-3411J1994D01*
G02X41789Y158248I302J261D01*
G01X45211D01*
G02X45513Y157587I0J-400D01*
G03X45437Y152504I2987J-2587D01*
G02X45127Y151852I-310J-252D01*
G01X43065D01*
G37*
G36*
G01X67560Y163898D02*
G02X67889Y163271I0J-400D01*
G03X70008Y161598I1111J-771D01*
G01X70527D01*
X84193Y147932D01*
G02X84109Y147303I-283J-282D01*
G03X83350Y146725I392J-1302D01*
G02X82837Y146683I-282J284D01*
G03X83225Y144906I-783J-1102D01*
G01X83283Y145006D01*
X83572D01*
G03X83598Y144982I935J987D01*
G01Y144373D01*
X82540Y143314D01*
Y136613D01*
G03X83486Y135713I901J0D01*
G02X83906Y135314I20J-399D01*
G01Y134945D01*
G02X83477Y134547I-400J1D01*
G03X82947Y134054I-36J-493D01*
G02X82585Y133657I-400J1D01*
G03X81520Y132689I115J-1197D01*
G02X81052Y132373I-392J77D01*
G03X79988Y131488I-170J-878D01*
G02X79667Y131092I-400J-4D01*
G03X79455Y131029I235J-1179D01*
G02X79187Y131266I-75J186D01*
G03X78501Y132371I-864J229D01*
G03X78435Y132725I-1201J-41D01*
G02X78662Y133227I378J131D01*
G03X78599Y134904I-339J827D01*
G03X78557Y135531I-1179J236D01*
G02X78669Y135781I189J65D01*
G03X79159Y136275I-345J833D01*
G02X79812Y136408I371J-150D01*
G01X80245Y135976D01*
G03X81519Y137250I637J637D01*
G01X80002Y138768D01*
Y142990D01*
G03X78151Y144961I-902J1008D01*
G03X76242Y144954I-951J-961D01*
G01X76100Y144895D01*
X75958Y144954D01*
G03X74035Y144947I-958J-954D01*
G02X73465I-285J281D01*
G03X72635Y145345I-965J-947D01*
G01X72564Y145352D01*
X64801Y153116D01*
X60409D01*
G02X60011Y153549I0J400D01*
G03X59783Y154423I-1347J115D01*
G02X59860Y154956I331J224D01*
G03X59005Y157352I-860J1044D01*
G01X58923D01*
X55123Y161152D01*
X51153D01*
G02X50909Y161868I0J400D01*
G03X52282Y163856I-2409J3132D01*
G01X52325Y163998D01*
X56415D01*
X57029Y164613D01*
G02X57698Y164437I283J-283D01*
G03X60008Y163898I1303J363D01*
G01X67560D01*
G37*
G36*
G01X115052Y103109D02*
Y105459D01*
X115079Y105505D01*
G03X113023I-1028J597D01*
G01X113050Y105459D01*
Y102773D01*
X112823Y102546D01*
G02X112234Y102571I-283J283D01*
G03X110980Y103034I-1034J-871D01*
G02X110516Y103429I-64J395D01*
G01Y104913D01*
G02X110911Y105313I400J0D01*
G03X111638Y106386I-9J789D01*
G01X111591Y106507D01*
X113358Y108274D01*
X113489Y108203D01*
G03X113454Y110279I562J1048D01*
G01X113408Y110252D01*
X113236D01*
G02X113095Y110594I0J200D01*
G01X113747Y111247D01*
X113849Y111229D01*
G03X112879Y112199I202J1172D01*
G01X112897Y112097D01*
X112414Y111614D01*
X111961D01*
Y111859D01*
X111980Y111899D01*
G03X112055Y112690I-1078J501D01*
G02X112443Y113188I388J98D01*
G01X112539D01*
X113747Y114396D01*
X113849Y114378D01*
G03X113805Y116713I202J1172D01*
G02X113568Y116870I-41J196D01*
G03X113535Y116997I-1178J-238D01*
G02X113951Y117515I382J119D01*
G03X113943Y119884I100J1185D01*
G02X113725Y120075I-18J199D01*
G03X113713Y120203I-1201J-48D01*
G02X114094Y120662I395J59D01*
G03X114253Y120678I-39J1188D01*
G01X114355Y120696D01*
X115190Y119860D01*
X116287D01*
G02X116595Y119205I0J-400D01*
G03X117076Y117921I606J-505D01*
G02X117367Y117340I-63J-395D01*
G03X117235Y116908I1063J-561D01*
G02X117060Y116731I-199J21D01*
G03X118382Y115409I141J-1181D01*
G02X118559Y115584I198J-24D01*
G03X118367Y117979I-129J1195D01*
G02X117961Y118487I-21J399D01*
G03X117807Y119205I-760J213D01*
G02X118115Y119860I308J255D01*
G01X118682D01*
X122302Y123480D01*
Y127959D01*
G03X122642Y128253I-603J1040D01*
G01X122998Y128129D01*
Y122315D01*
X122263Y121580D01*
X122210Y121566D01*
G03X123666Y120110I290J-1166D01*
G01X123680Y120163D01*
X125002Y121485D01*
Y124266D01*
G02X125684Y124548I400J-1D01*
G01X128636Y121597D01*
X128650Y121545D01*
G03X130062Y120690I1149J305D01*
G02X130542Y120380I88J-390D01*
G03X130551Y120340I1177J244D01*
G02X130071Y119857I-389J-93D01*
G03X128773Y119302I-273J-1157D01*
G01X127702D01*
Y119501D01*
G03X126711Y118317I-1202J-1D01*
G01X126814Y118335D01*
X127051Y118098D01*
X128773D01*
G03X130071Y117543I1025J602D01*
G02X130551Y117060I91J-390D01*
G03X130520Y116716I1169J-279D01*
G02X130012Y116310I-399J-21D01*
G03X129039Y115337I-213J-760D01*
G02X128633Y114830I-385J-108D01*
G03X127746Y112755I-63J-1200D01*
G02X127472Y112064I-274J-291D01*
G01X126905D01*
X122840Y107999D01*
Y106362D01*
X122661Y106183D01*
G02X122059Y106224I-283J282D01*
G03X119934Y105790I-959J-724D01*
G01X119920Y105737D01*
X117774Y103590D01*
X116969D01*
X116436Y103057D01*
X116365Y103050D01*
G03X115692Y102789I135J-1345D01*
G02X115052Y103109I-240J320D01*
G37*
G36*
G01X123465Y99452D02*
X123352Y99564D01*
X123345Y99635D01*
G03X120748Y100011I-1345J-135D01*
G02X120503Y99895I-185J75D01*
G03X120200Y99953I-404J-1290D01*
G02X119946Y100635I29J399D01*
G01X124844Y105532D01*
Y107169D01*
X127735Y110060D01*
X128065D01*
X128315Y109810D01*
X128621D01*
G02X129017Y109357I0J-400D01*
G03X129912Y108470I782J-106D01*
G02X130352Y107956I58J-396D01*
G03X130300Y107666I1148J-356D01*
G02X129875Y107289I-399J22D01*
G03X129597Y107274I-75J-1187D01*
G01X129495Y107256D01*
X129450Y107302D01*
X128641D01*
G03X128212Y105665I-1041J-602D01*
G02X128764Y105518I204J-344D01*
G03X130983Y106216I1035J584D01*
G02X131227Y106429I199J18D01*
G03X131397Y106402I273J1171D01*
G02X131762Y106029I-34J-398D01*
G03X132644Y104953I1187J73D01*
G01X132696Y104939D01*
X134042Y103593D01*
G02X133900Y103252I-142J-141D01*
G01X133408D01*
G03X131317Y101595I-908J-1002D01*
G02X130967Y101002I-350J-193D01*
G01X127008D01*
G03X124753Y99885I-908J-1002D01*
G02X124354Y99452I-398J-33D01*
G01X123465D01*
G37*
G36*
G01X166114Y131357D02*
Y132703D01*
X163054Y135762D01*
X149524D01*
G02X149134Y136253I0J400D01*
G03X149165Y136513I-1158J270D01*
G02X149565Y136910I400J-3D01*
G01X164173D01*
X167498Y133584D01*
Y131392D01*
G02X167023Y130999I-400J0D01*
G03X166635Y130976I-149J-775D01*
G02X166114Y131357I-121J381D01*
G37*
%LPC*%
G75*
G36*
G01X91578Y123999D02*
G02X90900Y124261I-460J-181D01*
G03X91009Y124901I-176J359D01*
G02X91929Y124545I856J844D01*
G03X91578Y123999I21J-399D01*
G37*
G36*
G01X118382Y109110D02*
G02X117060Y110432I-1181J141D01*
G03X117235Y110609I-24J198D01*
G02X117367Y111041I1195J-129D01*
G03X117076Y111622I-354J186D01*
G02X117961Y112188I125J779D01*
G03X118367Y111680I385J-109D01*
G02X118559Y109285I63J-1200D01*
G03X118382Y109110I21J-199D01*
G37*
G54D28*
X117201Y106102D03*
G54D29*
X91118Y121259D03*
Y118700D03*
Y116141D03*
X96236Y118700D03*
Y116141D03*
X91118Y113582D03*
X80882Y123818D03*
Y121259D03*
Y118700D03*
Y116141D03*
X83441Y123818D03*
Y121259D03*
Y118700D03*
Y116141D03*
X86000Y123818D03*
Y121259D03*
Y118700D03*
Y116141D03*
X88559Y123818D03*
Y121259D03*
Y118700D03*
Y116141D03*
X80882Y113582D03*
Y108464D03*
X83441Y113582D03*
Y108464D03*
X86000Y113582D03*
Y108464D03*
X88559Y113582D03*
X75764Y121259D03*
Y118700D03*
Y116141D03*
X80882Y134054D03*
%LPD*%
G75*
G54D10*
X11070Y89069D03*
Y143793D03*
G54D20*
G01X4868Y89069D02*
X11070D01*
G01X4868Y143793D02*
X11070D01*
G01Y89069D02*
Y92271D01*
G01Y89069D02*
X17272D01*
G01X11070Y140591D02*
Y143793D01*
G01D02*
X17272D01*
G01X38500Y91648D02*
Y95000D01*
G01D02*
Y98352D01*
G01X35148Y95000D02*
X38500D01*
G01D02*
X41852D01*
G01X48500Y51648D02*
Y55000D01*
G01X45148D02*
X48500D01*
G01D02*
X51852D01*
G01X45148Y145000D02*
X48500D01*
G01D02*
X51852D01*
G01X69500Y191548D02*
Y194900D01*
G01D02*
Y198252D01*
G01X66148Y194900D02*
X69500D01*
G01D02*
X72852D01*
G01X76148D02*
X79500D01*
G01X81700Y138663D02*
X81000Y139363D01*
Y144000D01*
G01X89500Y191548D02*
Y194900D01*
G01D02*
Y198252D01*
G01X86148Y194900D02*
X89500D01*
G01D02*
X92852D01*
G01X79500Y191548D02*
Y194900D01*
G01D02*
Y198252D01*
G01Y194900D02*
X82852D01*
G01X94754Y138632D02*
Y144108D01*
G01X99672Y138620D02*
X100500Y139448D01*
Y141600D01*
G01X99500Y191548D02*
Y194900D01*
G01D02*
Y198252D01*
G01X96148Y194900D02*
X99500D01*
G01D02*
X102852D01*
G01X109500Y191548D02*
Y194900D01*
G01D02*
Y198252D01*
G01X106148Y194900D02*
X109500D01*
G01D02*
X112852D01*
G01X126148D02*
X129500D01*
G01X119500Y191548D02*
Y194900D01*
G01D02*
Y198252D01*
G01X116148Y194900D02*
X119500D01*
G01D02*
X122852D01*
G01X129500Y191548D02*
Y194900D01*
G01D02*
Y198252D01*
G01Y194900D02*
X132852D01*
G01X136148D02*
X139500D01*
G01X149500Y191548D02*
Y194900D01*
G01D02*
Y198252D01*
G01X146148Y194900D02*
X149500D01*
G01D02*
X152852D01*
G01X139500Y191548D02*
Y194900D01*
G01D02*
Y198252D01*
G01Y194900D02*
X142852D01*
G01X179100Y42748D02*
Y46100D01*
G01D02*
Y49452D01*
G01X175748Y46100D02*
X179100D01*
G01D02*
X182452D01*
G54D11*
X11070Y83000D03*
X14761Y95761D03*
X14770Y97730D03*
X16085Y117415D03*
X15600Y137100D03*
X15631Y135131D03*
X11070Y149370D03*
X27667Y101667D03*
X27508Y105675D03*
X27665Y103635D03*
X27400Y107572D03*
X21000Y143000D03*
X21200Y155300D03*
X21500Y174500D03*
X25992Y165008D03*
X31000Y59500D03*
X29992Y90592D03*
X34000Y170800D03*
X42000Y111500D03*
X50150Y120703D03*
X43500Y157500D03*
X51000Y171000D03*
X62500Y28000D03*
X55000Y44500D03*
X64500Y82900D03*
X65700Y97445D03*
X62500Y93000D03*
X63150Y104650D03*
X60863Y104562D03*
X65100Y104800D03*
X65400Y110200D03*
X64953Y102753D03*
X62500Y119500D03*
X65900Y116141D03*
X59000Y121700D03*
X61800Y126700D03*
X63700Y127500D03*
X59050Y132294D03*
X58996Y130149D03*
X61392Y136107D03*
X57525Y138346D03*
X58554Y146919D03*
X57500Y148500D03*
X65500Y141355D03*
X61200Y140800D03*
X59206Y140003D03*
X56799Y140102D03*
X59500Y142000D03*
X59000Y156000D03*
X58664Y153664D03*
X61608Y161192D03*
X57546Y175143D03*
X59000Y164800D03*
X59600Y179900D03*
X55600Y180500D03*
X55550Y178050D03*
X76500Y49200D03*
X68250Y72250D03*
X67947Y84154D03*
X72700Y90584D03*
X68450Y91250D03*
X69645Y110045D03*
X74786Y112604D03*
X72227Y110045D03*
Y112604D03*
X69427Y107365D03*
X72227Y107486D03*
X77345D03*
X77435Y104985D03*
X74422Y104729D03*
X66500Y105905D03*
X66046Y113191D03*
X72227Y115163D03*
Y117722D03*
Y122237D03*
X69398Y125233D03*
X69668Y122232D03*
X66718Y123818D03*
X74786Y124560D03*
X72227D03*
X74786Y122237D03*
Y117722D03*
Y115163D03*
X72227Y127360D03*
X77420Y135140D03*
X66545Y128936D03*
Y131495D03*
X66571Y135570D03*
X74786Y127360D03*
Y129914D03*
X72238Y129540D03*
X72227Y132340D03*
X74786D03*
X77300Y132330D03*
X71148Y142054D03*
X69500Y143000D03*
X72500Y144000D03*
X75000D03*
X77200D03*
X69100Y159564D03*
X69000Y162500D03*
X72908Y169008D03*
X72500Y175000D03*
X69800Y164800D03*
X85000Y13600D03*
X87092Y23992D03*
X80200Y18008D03*
X80500Y26000D03*
X79100Y34100D03*
X89000Y53000D03*
X78800Y42900D03*
X84192Y51392D03*
X81500Y59100D03*
X87700Y60900D03*
X78800Y57100D03*
X78417Y84400D03*
X88900Y84200D03*
X81850Y82500D03*
X85949Y86000D03*
X78323Y88300D03*
X85022Y102422D03*
X89538Y107349D03*
X85022Y104927D03*
X82463D03*
X89305Y104894D03*
X79904Y104927D03*
Y112604D03*
X79903Y107349D03*
X82463Y112604D03*
X82462Y107349D03*
X85022Y112604D03*
X85021Y107349D03*
X89537Y112604D03*
X89820Y121259D03*
X89850Y123818D03*
X79904Y124796D03*
Y122237D03*
X82463Y124796D03*
Y122237D03*
X85022Y124796D03*
Y122237D03*
X79904Y117722D03*
Y115163D03*
X82463Y117722D03*
Y115163D03*
X85022Y117722D03*
Y115163D03*
X89537Y117722D03*
Y115163D03*
X82700Y132460D03*
X86602Y132470D03*
X89840Y135250D03*
X89402Y132338D03*
X85022Y129914D03*
X89537D03*
X79904D03*
X82463D03*
X86360Y139470D03*
X81000Y144000D03*
X86100Y147300D03*
X82054Y145581D03*
X87697Y146040D03*
X84500Y146000D03*
X79100Y143998D03*
X82692Y169008D03*
X83992Y174992D03*
X80300Y163700D03*
X90500Y10050D03*
X102380Y25520D03*
X101900Y18508D03*
X101000Y34000D03*
X100500Y42700D03*
X98600Y48900D03*
X100500Y56900D03*
X91992Y64792D03*
X96120Y62563D03*
X94382Y68500D03*
X101300Y85300D03*
X93679Y86750D03*
X99047Y84854D03*
X91779Y86750D03*
X96800Y86000D03*
X98376Y97590D03*
X96502Y97906D03*
X93000Y99000D03*
X91131Y98698D03*
X94483Y97500D03*
X90500Y91500D03*
X99979Y112594D03*
X100014Y104765D03*
X92105Y104721D03*
X99863Y109794D03*
X97215Y107349D03*
X97214Y104927D03*
X94414Y105060D03*
X94656Y107349D03*
X92097D03*
X97214Y112604D03*
X92096D03*
X99773Y115163D03*
Y124720D03*
X97932Y122122D03*
X94660Y121259D03*
X91865Y125745D03*
X94750Y123818D03*
X92480Y121259D03*
X92390Y123818D03*
X92096Y117722D03*
Y115163D03*
X97214Y117722D03*
Y115163D03*
X94680Y125810D03*
X92256Y129977D03*
X92480Y132857D03*
X100116Y132649D03*
X99773Y129650D03*
X94655D03*
X94377Y132513D03*
X97316Y132550D03*
X97214Y129650D03*
X98574Y139927D03*
X94754Y144108D03*
X100500Y141600D03*
X92897Y143703D03*
X99400Y155200D03*
X101500Y158700D03*
X101400Y163700D03*
X92392Y169008D03*
X92500Y175000D03*
X100492Y174992D03*
X99592Y169008D03*
X91100Y163700D03*
X112279Y12379D03*
X107300Y13600D03*
X108708Y24492D03*
X108292Y18508D03*
X111000Y36000D03*
X106500Y51292D03*
X108108Y64392D03*
X103600Y64000D03*
X114092Y64492D03*
X103000Y86200D03*
X106000Y85900D03*
X111000Y86000D03*
X111200Y101700D03*
X106100Y101000D03*
X108855Y114573D03*
X106396Y112502D03*
X107299Y107151D03*
X107301Y105401D03*
X106401Y103899D03*
X108000Y111800D03*
X108510Y118578D03*
X105204Y117605D03*
X107203Y115308D03*
X108309Y116839D03*
X106148Y125548D03*
X105670Y122500D03*
X102670Y119968D03*
X106900Y123818D03*
X112524Y120024D03*
X112388Y116639D03*
X112594Y132418D03*
X109452Y129848D03*
X110579Y147370D03*
X109077Y148534D03*
X105500Y140500D03*
X109500Y156200D03*
X109000Y158500D03*
X102900Y155000D03*
X126600Y15779D03*
Y9500D03*
Y23300D03*
Y29600D03*
Y38100D03*
X118495Y42800D03*
X121200Y46900D03*
X117521Y55721D03*
X122300Y59600D03*
X122192Y55092D03*
X121000Y86100D03*
X116000Y85900D03*
X126000Y86200D03*
X117400Y94079D03*
X126000Y94500D03*
X121000Y94300D03*
X120100Y98605D03*
X122000Y99500D03*
X126100Y100000D03*
X116500Y98605D03*
Y101705D03*
X118430Y110480D03*
X121100Y105500D03*
X118430Y107331D03*
X115800Y107500D03*
X118430Y113630D03*
Y116779D03*
X126500Y119500D03*
X118499Y126549D03*
X115476Y126550D03*
X118473Y123672D03*
X115322Y123450D03*
X122500Y120400D03*
X124500Y119500D03*
X115646Y132485D03*
X121500Y132895D03*
X121700Y129000D03*
X126000Y138200D03*
X119500Y132500D03*
X124500Y147500D03*
X123406Y149288D03*
X120000Y158500D03*
X115600Y155000D03*
X115700Y160500D03*
X119500Y166800D03*
X116000Y163700D03*
X131600Y16000D03*
Y9600D03*
X129733Y29133D03*
X134100Y24100D03*
X138300Y23900D03*
X135300Y36600D03*
X131000Y86200D03*
X136000Y86500D03*
Y94500D03*
X131000D03*
X132500Y102250D03*
X128570Y113630D03*
X138500Y107000D03*
X127600Y106700D03*
X131500Y107600D03*
X138765Y113665D03*
X131425Y113925D03*
X127900Y109662D03*
X134574Y117074D03*
X131720Y116779D03*
Y123770D03*
Y120621D03*
X137900Y120400D03*
X128570Y116779D03*
X134869Y130069D03*
X127308Y131250D03*
X131720Y126920D03*
X132503Y137600D03*
X127500Y133000D03*
X134869Y126920D03*
X127000Y127500D03*
X136100Y133500D03*
X136000Y147800D03*
X136100Y141500D03*
X132413Y139498D03*
X133000Y150500D03*
X131000Y148500D03*
X131700Y146500D03*
X143608Y9908D03*
X149592Y10008D03*
X140600Y18600D03*
X141563Y24163D03*
X140400Y36600D03*
X147584Y35084D03*
X140400Y46900D03*
X149553Y62100D03*
X145616Y60400D03*
X143647Y58200D03*
X149500Y84300D03*
X145692Y93192D03*
X149226Y111326D03*
X147024Y109926D03*
X140080Y110820D03*
X149124Y108176D03*
X148900Y123000D03*
X139900Y120400D03*
X148900Y127000D03*
X145200Y130200D03*
X140000Y135000D03*
X142500Y138700D03*
X148650Y129250D03*
X140500Y142500D03*
X140900Y144800D03*
X155500Y14000D03*
X161000Y28500D03*
X151437Y24163D03*
X153008Y20008D03*
X161000Y22000D03*
X157722Y29800D03*
X153500Y33800D03*
X158500Y59500D03*
X159500Y84500D03*
X154500Y84300D03*
X159500Y95800D03*
X154500Y95500D03*
X158500Y106000D03*
X158900Y109651D03*
X152901Y119400D03*
X162101Y128600D03*
X155900Y131600D03*
X157500Y146500D03*
X162500D03*
Y148579D03*
X157500D03*
X171000Y32000D03*
X165200Y29529D03*
X168000Y47500D03*
X173700Y45500D03*
X163520Y46433D03*
X165075Y46500D03*
X172650Y48350D03*
X173000Y56492D03*
X170750Y90250D03*
X173500Y114500D03*
X168150Y125200D03*
X174000Y119500D03*
Y117000D03*
X165300Y116049D03*
X166874Y133600D03*
X167500Y146400D03*
X173600Y149400D03*
X167500Y148579D03*
X174500Y151500D03*
X180300Y156400D03*
X176500Y154500D03*
X176304Y152303D03*
G54D12*
X21700Y95761D03*
Y97730D03*
Y99698D03*
Y101667D03*
Y103635D03*
Y105604D03*
Y107572D03*
Y109541D03*
Y111509D03*
Y113478D03*
Y115446D03*
Y117415D03*
Y119383D03*
Y121352D03*
Y123320D03*
Y125289D03*
Y127257D03*
Y129226D03*
Y131194D03*
Y133163D03*
Y135131D03*
Y137100D03*
G54D13*
X38500Y5000D03*
Y15000D03*
Y25000D03*
Y35000D03*
Y55000D03*
Y45000D03*
Y65000D03*
Y75000D03*
Y85000D03*
Y105000D03*
Y95000D03*
Y115000D03*
Y125000D03*
Y135000D03*
Y145000D03*
Y165000D03*
Y155000D03*
Y175000D03*
Y185000D03*
Y195000D03*
X48500Y15000D03*
Y25000D03*
Y35000D03*
Y55000D03*
Y45000D03*
Y65000D03*
Y75000D03*
Y85000D03*
Y105000D03*
Y95000D03*
Y115000D03*
Y125000D03*
Y135000D03*
Y145000D03*
Y165000D03*
Y155000D03*
Y175000D03*
Y185000D03*
Y195000D03*
X59500Y194900D03*
X79500Y184900D03*
X69500D03*
X79500Y194900D03*
X69500D03*
X89500Y184900D03*
Y194900D03*
X99500Y184900D03*
Y194900D03*
X109500Y184900D03*
Y194900D03*
X119500Y184900D03*
Y194900D03*
X139500Y184900D03*
X129500D03*
X139500Y194900D03*
X129500D03*
X150300Y163200D03*
Y173200D03*
X149500Y184900D03*
Y194900D03*
X160300Y163200D03*
Y173200D03*
X179100Y26100D03*
Y36100D03*
Y46100D03*
X190300Y163200D03*
X180300D03*
X190300Y173200D03*
X180300D03*
G54D14*
X48500Y5000D03*
X59500Y184900D03*
X140300Y163200D03*
Y173200D03*
X170300Y163200D03*
Y173200D03*
X179100Y16100D03*
G54D15*
X75764Y100787D03*
X73205D03*
X70646D03*
X68087D03*
X75764Y103346D03*
Y105905D03*
Y108464D03*
Y111023D03*
Y113582D03*
X73205Y103346D03*
Y105905D03*
Y108464D03*
Y111023D03*
Y113582D03*
X70646Y103346D03*
Y105905D03*
Y108464D03*
Y111023D03*
Y113582D03*
X68087Y103346D03*
Y105905D03*
Y108464D03*
Y111023D03*
Y113582D03*
X75764Y116141D03*
Y118700D03*
Y121259D03*
Y123818D03*
Y126377D03*
X73205Y116141D03*
Y118700D03*
Y121259D03*
Y123818D03*
Y126377D03*
X70646Y116141D03*
Y118700D03*
Y121259D03*
Y123818D03*
Y126377D03*
X68087Y116141D03*
Y118700D03*
Y121259D03*
Y123818D03*
Y126377D03*
X75764Y128936D03*
Y131495D03*
Y134054D03*
Y136613D03*
X73205Y128936D03*
Y131495D03*
Y134054D03*
Y136613D03*
X70646Y128936D03*
Y131495D03*
Y134054D03*
Y136613D03*
X68087Y128936D03*
Y131495D03*
Y134054D03*
Y136613D03*
X88559Y100787D03*
X86000D03*
X83441D03*
X80882D03*
X78323D03*
X88559Y103346D03*
Y105905D03*
Y108464D03*
Y113582D03*
X86000Y103346D03*
Y105905D03*
Y108464D03*
Y113582D03*
X83441Y103346D03*
Y105905D03*
Y108464D03*
Y113582D03*
X80882Y103346D03*
Y105905D03*
Y108464D03*
Y113582D03*
X78323Y103346D03*
Y105905D03*
Y108464D03*
X88559Y116141D03*
Y118700D03*
Y121259D03*
Y123818D03*
X86000Y116141D03*
Y118700D03*
Y121259D03*
Y123818D03*
X83441Y116141D03*
Y118700D03*
Y121259D03*
Y123818D03*
X80882Y116141D03*
Y118700D03*
Y121259D03*
Y123818D03*
X88559Y128936D03*
Y131495D03*
Y134054D03*
Y136613D03*
X86000Y128936D03*
Y131495D03*
Y134054D03*
Y136613D03*
X83441Y128936D03*
Y131495D03*
Y134054D03*
Y136613D03*
X80882Y128936D03*
Y131495D03*
Y134054D03*
Y136613D03*
X78323Y128936D03*
Y131495D03*
Y134054D03*
Y136613D03*
X101354Y100787D03*
X98795D03*
X96236D03*
X93677D03*
X91118D03*
X101354Y103346D03*
Y105905D03*
Y108464D03*
Y111023D03*
Y113582D03*
X98795Y103346D03*
Y105905D03*
Y108464D03*
Y111023D03*
Y113582D03*
X96236Y103346D03*
Y105905D03*
Y108464D03*
Y111023D03*
Y113582D03*
X93677Y103346D03*
Y105905D03*
Y108464D03*
X91118Y103346D03*
Y105905D03*
Y108464D03*
Y113582D03*
X101354Y116141D03*
Y118700D03*
Y121259D03*
Y123818D03*
Y126377D03*
X98795Y116141D03*
Y118700D03*
Y121259D03*
Y123818D03*
Y126377D03*
X96236Y116141D03*
Y118700D03*
Y121259D03*
Y123818D03*
Y126377D03*
X91118Y116141D03*
Y118700D03*
Y121259D03*
Y123818D03*
X101354Y128936D03*
Y131495D03*
Y134054D03*
Y136613D03*
X98795Y128936D03*
Y131495D03*
Y134054D03*
Y136613D03*
X96236Y128936D03*
Y131495D03*
Y134054D03*
Y136613D03*
X93677Y128936D03*
Y131495D03*
Y134054D03*
Y136613D03*
X91118Y128936D03*
Y131495D03*
Y134054D03*
Y136613D03*
X103913Y100787D03*
Y103346D03*
Y105905D03*
Y108464D03*
Y111023D03*
Y113582D03*
Y116141D03*
Y118700D03*
Y121259D03*
Y123818D03*
Y126377D03*
Y128936D03*
Y131495D03*
Y134054D03*
Y136613D03*
G54D16*
X114051Y112401D03*
X110902D03*
X114051Y109251D03*
X110902D03*
X114051Y106102D03*
X110902D03*
X114051Y124999D03*
X110902D03*
X114051Y121850D03*
X110902D03*
X114051Y118700D03*
X110902D03*
X114051Y115550D03*
X110902D03*
X114051Y131298D03*
X110902D03*
X114051Y128149D03*
X110902D03*
X117201Y112401D03*
Y109251D03*
Y106102D03*
Y124999D03*
Y121850D03*
Y118700D03*
Y115550D03*
Y131298D03*
Y128149D03*
X136098Y112401D03*
X132949D03*
X129799D03*
X136098Y109251D03*
X132949D03*
X129799D03*
X136098Y106102D03*
X132949D03*
X129799D03*
X136098Y124999D03*
X132949D03*
X129799D03*
X136098Y121850D03*
X132949D03*
X129799D03*
X136098Y118700D03*
X132949D03*
X129799D03*
X136098Y115550D03*
X132949D03*
X129799D03*
X136098Y131298D03*
X132949D03*
X129799D03*
X136098Y128149D03*
X132949D03*
X129799D03*
X147976Y101877D03*
X144827D03*
X151126Y114476D03*
Y111326D03*
Y108176D03*
X144827Y105027D03*
X151126Y127074D03*
Y123924D03*
Y120775D03*
Y117625D03*
X147976Y136523D03*
X144827D03*
X147976Y133373D03*
X144827D03*
X151126Y130224D03*
X160575Y114476D03*
X157425D03*
X154276D03*
X160575Y111326D03*
X157425D03*
X154276D03*
X160575Y108176D03*
X157425D03*
X154276D03*
X160575Y127074D03*
X157425D03*
X154276D03*
X160575Y123924D03*
X157425D03*
X154276D03*
X160575Y120775D03*
X157425D03*
X154276D03*
X160575Y117625D03*
X157425D03*
X154276D03*
X160575Y130224D03*
X157425D03*
X154276D03*
X173173Y101877D03*
X170024D03*
X166874Y114476D03*
X163724D03*
X166874Y111326D03*
X163724D03*
X166874Y108176D03*
X163724D03*
X173173Y105027D03*
X170024D03*
X166874Y127074D03*
X163724D03*
X166874Y123924D03*
X163724D03*
X166874Y120775D03*
X163724D03*
X166874Y117625D03*
X163724D03*
X173173Y136523D03*
X170024D03*
X173173Y133373D03*
X170024D03*
X166874Y130224D03*
X163724D03*
G54D17*
G01X11070Y89069D02*
Y83000D01*
G01X21700Y95761D02*
X14761D01*
G01X21700Y97730D02*
X14770D01*
G01X21700Y117415D02*
X16085D01*
G01X21700Y137100D02*
X15600D01*
G01X21700Y135131D02*
X15631D01*
G01X11070Y143793D02*
Y149370D01*
G01X68250Y72250D02*
X55500Y59500D01*
X31000D01*
G01X78800Y42900D02*
Y57100D01*
G01X100500Y42700D02*
Y56900D01*
G01X131600Y16000D02*
Y27266D01*
X129733Y29133D01*
G54D18*
G01X90500Y10050D02*
Y21100D01*
X99400Y30000D01*
X105000D01*
X111000Y36000D01*
G01X157722Y29800D02*
Y16222D01*
X155500Y14000D01*
G54D19*
G01X21000Y143000D02*
X17000Y139000D01*
X15307D01*
X14050Y137743D01*
Y130951D01*
X15775Y129226D01*
X21700D01*
G01Y99698D02*
X26400D01*
X26402Y99700D01*
X27700D01*
X29992Y97408D01*
Y90592D01*
G01X21700Y101667D02*
X27667D01*
G01X48500Y115000D02*
X43450Y109950D01*
X36150D01*
X32622Y113478D01*
X21700D01*
G01X38500Y105000D02*
X31991Y111509D01*
X21700D01*
G01X27508Y105675D02*
X27375D01*
X27304Y105604D01*
X21700D01*
G01Y103635D02*
X27665D01*
G01X21700Y107572D02*
X27400D01*
G01X48500Y105000D02*
X44350Y100850D01*
X36781D01*
X34350Y103281D01*
Y103350D01*
X28159Y109541D01*
X21700D01*
G01X48500Y125000D02*
X45600Y122100D01*
X42800D01*
X40083Y119383D01*
X21700D01*
G01Y121352D02*
X34852D01*
X38500Y125000D01*
G01X48500Y135000D02*
X45000D01*
X39300Y129300D01*
X36500D01*
X30520Y123320D01*
X21700D01*
G01Y125289D02*
X28789D01*
X38500Y135000D01*
G01X21700Y115446D02*
X34204D01*
X34650Y115000D01*
X38500D01*
G01X58554Y146919D02*
X56146D01*
X50027Y140800D01*
X38431D01*
X34200Y136569D01*
Y134857D01*
X26600Y127257D01*
X21700D01*
G01X57500Y148500D02*
X56850Y149150D01*
X36781D01*
X30900Y143269D01*
Y133344D01*
X26782Y129226D01*
X21700D01*
G01X59000Y156000D02*
X54750Y160250D01*
X36325D01*
X28000Y151925D01*
Y134500D01*
X26663Y133163D01*
X21700D01*
G01X58664Y153664D02*
X53178Y159150D01*
X36781D01*
X29500Y151869D01*
Y133500D01*
X27194Y131194D01*
X21700D01*
G01X25992Y165008D02*
X34642D01*
X34650Y165000D01*
X38500D01*
G01Y25000D02*
X43500Y30000D01*
X50101D01*
X53700Y33599D01*
Y36799D01*
X101300Y84399D01*
Y85300D01*
G01X99047Y84854D02*
X55043Y40850D01*
X44350D01*
X38500Y35000D01*
G01Y45000D02*
X43500Y50000D01*
X52410D01*
X88381Y85971D01*
Y99317D01*
X88559Y99495D01*
Y100787D01*
G01X72700Y90584D02*
Y86500D01*
X56700Y70500D01*
X44000D01*
X38500Y65000D01*
G01X64500Y82900D02*
X62100Y80500D01*
X44000D01*
X38500Y75000D01*
G01Y85000D02*
X43500Y90000D01*
X65007D01*
X74600Y99593D01*
Y102182D01*
X74786Y102368D01*
G01X38500Y125000D02*
X42800Y129300D01*
X50000D01*
X54650Y133950D01*
X59650D01*
X60600Y133000D01*
Y131651D01*
X59098Y130149D01*
X58996D01*
G01X38500Y115000D02*
X42650Y119150D01*
X52350D01*
X56909Y114591D01*
X66543D01*
X66852Y114900D01*
X69405D01*
X69668Y115163D01*
G01X38500Y135000D02*
X42950Y139450D01*
X50375D01*
X55825Y144900D01*
X65400D01*
X72005Y138295D01*
Y135254D01*
X72227Y135032D01*
G01X69500Y143000D02*
X61650Y150850D01*
X42650D01*
X38500Y155000D01*
G01X34000Y170800D02*
X44300D01*
X48500Y175000D01*
G01X103000Y86200D02*
Y84401D01*
X55500Y36901D01*
Y32000D01*
X48500Y25000D01*
G01X91779Y86750D02*
Y84429D01*
X52350Y45000D01*
X48500D01*
G01X67947Y84154D02*
X58793Y75000D01*
X48500D01*
G01X77345Y102368D02*
X77123Y102146D01*
Y97730D01*
X64393Y85000D01*
X48500D01*
G01Y95000D02*
X66404D01*
X72113Y100709D01*
Y102254D01*
X72227Y102368D01*
G01X48500Y115000D02*
X51709Y111791D01*
X66626D01*
X67135Y112300D01*
X69364D01*
X69668Y112604D01*
G01Y117722D02*
X69554Y117608D01*
X66626D01*
X66334Y117900D01*
X57403D01*
X54600Y120703D01*
X50150D01*
G01X48500Y125000D02*
X55794Y132294D01*
X59050D01*
G01X65500Y141355D02*
X63305Y143550D01*
X57050D01*
X48500Y135000D01*
G01X72500Y144000D02*
X64386Y152114D01*
X51386D01*
X48500Y155000D01*
G01Y165000D02*
X56000D01*
X57350Y166350D01*
X71477D01*
X90450Y147377D01*
Y139840D01*
X93677Y136613D01*
G01X92897Y143703D02*
Y146628D01*
X71824Y167701D01*
X62795D01*
X52800Y177696D01*
Y190700D01*
X48500Y195000D01*
G01X62500Y28000D02*
X65000Y25500D01*
X80000D01*
X80500Y26000D01*
G01X55000Y44500D02*
X93679Y83179D01*
Y86750D01*
G01X68087Y100787D02*
X64638D01*
X60863Y104562D01*
G01X62500Y93000D02*
X66110D01*
X73205Y100095D01*
Y100787D01*
G01X68087Y103346D02*
X66554D01*
X65100Y104800D01*
G01X61392Y136107D02*
Y134706D01*
X61800Y134298D01*
Y130400D01*
X59000Y127600D01*
Y121700D01*
G01X61800Y126700D02*
X62550Y125950D01*
X64343D01*
X64770Y126377D01*
X68087D01*
G01X63700Y127500D02*
X69523D01*
X69668Y127355D01*
G01X57525Y138346D02*
X59740D01*
X60251Y138857D01*
X62533D01*
X62540Y138850D01*
X63269D01*
X64019Y138100D01*
X68301D01*
X69500Y136901D01*
Y135200D01*
X69668Y135032D01*
G01Y132473D02*
X69441Y132700D01*
X67775D01*
X67580Y132895D01*
X66798D01*
X62043Y137650D01*
X62042D01*
X62035Y137657D01*
X60749D01*
X59888Y136796D01*
X56882D01*
X55915Y137763D01*
Y139218D01*
X56799Y140102D01*
G01X70646Y136613D02*
Y137855D01*
X68801Y139700D01*
X64493D01*
X61843Y142350D01*
X59850D01*
X59500Y142000D01*
G01X69800Y164800D02*
X59000D01*
G01X75764Y100787D02*
Y98564D01*
X68450Y91250D01*
G01X69668Y110045D02*
X69645D01*
G01X69668D02*
X70646Y111023D01*
G01X74786Y112604D02*
X75764Y113582D01*
G01X72227Y110045D02*
X73205Y111023D01*
G01X72227Y112604D02*
X73205Y113582D01*
G01X69427Y107365D02*
X69958Y107896D01*
X70078D01*
X70646Y108464D01*
G01X69668Y107486D02*
X69547Y107365D01*
X69427D01*
G01X73205Y108464D02*
X72227Y107486D01*
G01X77345D02*
X78323Y108464D01*
G01Y105905D02*
Y105873D01*
X77435Y104985D01*
G01X74422Y104729D02*
X74558Y104865D01*
X74724D01*
X75764Y105905D01*
G01X68087D02*
X66500D01*
G01X66046Y113191D02*
X66437Y113582D01*
X68087D01*
G01X69668Y112604D02*
X70646Y113582D01*
G01X77345Y102368D02*
X78323Y103346D01*
G01X74786Y102368D02*
X75764Y103346D01*
G01X72227Y102368D02*
X73205Y103346D01*
G01X72227Y127360D02*
Y127355D01*
X73205Y126377D01*
G01X72227Y115163D02*
X73205Y116141D01*
G01X72227Y117722D02*
X73205Y118700D01*
G01Y121259D02*
X72227Y122237D01*
G01X69398Y125233D02*
X69668Y124963D01*
Y124796D01*
X70646Y123818D01*
G01Y123754D02*
Y123818D01*
G01X69668Y122237D02*
Y122232D01*
G01X70646Y121259D02*
X69668Y122237D01*
G01X68087Y123818D02*
X66718D01*
G01X68087Y116141D02*
X65900D01*
G01X69668Y127355D02*
X70646Y126377D01*
G01X74786Y124560D02*
Y124796D01*
X75764Y123818D01*
G01X72227Y124560D02*
Y124796D01*
X73205Y123818D01*
G01X74786Y122237D02*
X75764Y121259D01*
G01X74786Y117722D02*
X75764Y118700D01*
G01X74786Y115163D02*
X75764Y116141D01*
G01Y126377D02*
X74786Y127355D01*
G01X75764Y125683D02*
Y126377D01*
G01D02*
Y127071D01*
G01X75070Y126377D02*
X75764D01*
G01D02*
X76458D01*
G01X75764Y120565D02*
Y121259D01*
G01D02*
Y121953D01*
G01X75070Y121259D02*
X75764D01*
G01D02*
X76458D01*
G01X75764Y118006D02*
Y118700D01*
G01D02*
Y119394D01*
G01X75070Y118700D02*
X75764D01*
G01D02*
X76458D01*
G01X75764Y115447D02*
Y116141D01*
G01D02*
Y116835D01*
G01X75070Y116141D02*
X75764D01*
G01D02*
X76458D01*
G01X69668Y117722D02*
X70646Y118700D01*
G01X69668Y115163D02*
X70646Y116141D01*
G01X77420Y135140D02*
Y134957D01*
X78323Y134054D01*
G01X68087Y128936D02*
X66545D01*
G01X68087Y131495D02*
X66545D01*
G01X68087Y134054D02*
X66571Y135570D01*
G01X71148Y142054D02*
X73205Y139997D01*
Y136613D01*
G01X74786Y127355D02*
Y127360D01*
G01Y129914D02*
X75764Y128936D01*
G01X72238Y129540D02*
X72601D01*
X73205Y128936D01*
G01X72227Y132340D02*
X72360D01*
X73205Y131495D01*
G01X72227Y135032D02*
X73205Y134054D01*
G01X74786Y132340D02*
X74919D01*
X75764Y131495D01*
G01X77300Y132330D02*
X77488D01*
X78323Y131495D01*
G01X69668Y135032D02*
X70646Y134054D01*
G01X69668Y132473D02*
X70646Y131495D01*
G01X77200Y144000D02*
Y137736D01*
X78323Y136613D01*
G01X69800Y164800D02*
X71130D01*
X89247Y146683D01*
Y137301D01*
X88559Y136613D01*
G01X86100Y147300D02*
X70900Y162500D01*
X69000D01*
G01X69500Y184900D02*
X72500Y181900D01*
Y175000D01*
G01X80882Y100787D02*
X81850Y99819D01*
Y82500D01*
G01X85949Y86000D02*
Y87250D01*
X86000Y87301D01*
Y100787D01*
G01X78323D02*
Y88300D01*
G01X90500Y91500D02*
X89581Y92419D01*
Y99362D01*
X89651Y99432D01*
Y102254D01*
X89537Y102368D01*
G01X88559Y108464D02*
X89537Y107486D01*
Y107350D01*
X89538Y107349D01*
G01X86000Y105905D02*
X85022Y104927D01*
G01X82463D02*
X83441Y105905D01*
G01X89305Y104894D02*
X89434Y105023D01*
Y105030D01*
X88559Y105905D01*
G01X85022Y102368D02*
Y102422D01*
G01X86000Y103346D02*
X85022Y102368D01*
G01X79904Y104927D02*
X80882Y105905D01*
G01X79904Y112604D02*
X80882Y113582D01*
G01X82463Y112604D02*
X83441Y113582D01*
G01X85022Y112604D02*
X86000Y113582D01*
G01X89537Y112604D02*
X88559Y113582D01*
G01X85021Y107349D02*
Y107485D01*
G01X82462Y107349D02*
Y107485D01*
G01X79903Y107349D02*
Y107485D01*
G01X85021D02*
X86000Y108464D01*
G01X82462Y107485D02*
X83441Y108464D01*
G01X79903Y107485D02*
X80882Y108464D01*
G01Y112888D02*
Y113582D01*
G01D02*
Y114276D01*
G01X80188Y113582D02*
X80882D01*
G01D02*
X81576D01*
G01X80882Y107770D02*
Y108464D01*
G01D02*
Y109158D01*
G01X80188Y108464D02*
X80882D01*
G01D02*
X81576D01*
G01X83441Y112888D02*
Y113582D01*
G01D02*
Y114276D01*
G01X82747Y113582D02*
X83441D01*
G01D02*
X84135D01*
G01X83441Y107770D02*
Y108464D01*
G01D02*
Y109158D01*
G01X82747Y108464D02*
X83441D01*
G01D02*
X84135D01*
G01X86000Y112888D02*
Y113582D01*
G01D02*
Y114276D01*
G01X85306Y113582D02*
X86000D01*
G01D02*
X86694D01*
G01X86000Y107770D02*
Y108464D01*
G01D02*
Y109158D01*
G01X85306Y108464D02*
X86000D01*
G01D02*
X86694D01*
G01X88559Y112888D02*
Y113582D01*
G01D02*
Y114276D01*
G01X87865Y113582D02*
X88559D01*
G01D02*
X89253D01*
G01X89537Y102368D02*
X88559Y103346D01*
G01X89820Y121259D02*
X88559D01*
G01X89850Y123818D02*
X88559D01*
G01X79904Y124796D02*
X80882Y123818D01*
G01X79904Y122237D02*
X80882Y121259D01*
G01X82463Y124796D02*
X83441Y123818D01*
G01X82463Y122237D02*
X83441Y121259D01*
G01X85022Y124796D02*
X86000Y123818D01*
G01X85022Y122237D02*
X86000Y121259D01*
G01X79904Y117722D02*
X80882Y118700D01*
G01X79904Y115163D02*
X80882Y116141D01*
G01X82463Y117722D02*
X83441Y118700D01*
G01X82463Y115163D02*
X83441Y116141D01*
G01X85022Y117722D02*
X86000Y118700D01*
G01X85022Y115163D02*
X86000Y116141D01*
G01X89537Y117722D02*
X88559Y118700D01*
G01X89537Y115163D02*
X88559Y116141D01*
G01X80882Y123124D02*
Y123818D01*
G01D02*
Y124512D01*
G01X80188Y123818D02*
X80882D01*
G01D02*
X81576D01*
G01X80882Y120565D02*
Y121259D01*
G01D02*
Y121953D01*
G01X80188Y121259D02*
X80882D01*
G01D02*
X81576D01*
G01X80882Y118006D02*
Y118700D01*
G01D02*
Y119394D01*
G01X80188Y118700D02*
X80882D01*
G01D02*
X81576D01*
G01X80882Y115447D02*
Y116141D01*
G01D02*
Y116835D01*
G01X80188Y116141D02*
X80882D01*
G01D02*
X81576D01*
G01X83441Y123124D02*
Y123818D01*
G01D02*
Y124512D01*
G01X82747Y123818D02*
X83441D01*
G01D02*
X84135D01*
G01X83441Y120565D02*
Y121259D01*
G01D02*
Y121953D01*
G01X82747Y121259D02*
X83441D01*
G01D02*
X84135D01*
G01X83441Y118006D02*
Y118700D01*
G01D02*
Y119394D01*
G01X82747Y118700D02*
X83441D01*
G01D02*
X84135D01*
G01X83441Y115447D02*
Y116141D01*
G01D02*
Y116835D01*
G01X82747Y116141D02*
X83441D01*
G01D02*
X84135D01*
G01X86000Y123124D02*
Y123818D01*
G01D02*
Y124512D01*
G01X85306Y123818D02*
X86000D01*
G01D02*
X86694D01*
G01X86000Y120565D02*
Y121259D01*
G01D02*
Y121953D01*
G01X85306Y121259D02*
X86000D01*
G01D02*
X86694D01*
G01X86000Y118006D02*
Y118700D01*
G01D02*
Y119394D01*
G01X85306Y118700D02*
X86000D01*
G01D02*
X86694D01*
G01X86000Y115447D02*
Y116141D01*
G01D02*
Y116835D01*
G01X85306Y116141D02*
X86000D01*
G01D02*
X86694D01*
G01X88559Y123124D02*
Y123818D01*
G01D02*
Y124512D01*
G01X87865Y123818D02*
X88559D01*
G01Y120565D02*
Y121259D01*
G01D02*
Y121953D01*
G01X87865Y121259D02*
X88559D01*
G01Y118006D02*
Y118700D01*
G01D02*
Y119394D01*
G01X87865Y118700D02*
X88559D01*
G01D02*
X89253D01*
G01X88559Y115447D02*
Y116141D01*
G01D02*
Y116835D01*
G01X87865Y116141D02*
X88559D01*
G01D02*
X89253D01*
G01X82700Y132460D02*
X82900Y132260D01*
Y132036D01*
X83441Y131495D01*
G01X80882D02*
X83441D01*
G01X86602Y132470D02*
Y132397D01*
X86000Y131795D01*
Y131495D01*
G01X86360Y139470D02*
X85610D01*
X84908Y138768D01*
Y135146D01*
X85022Y135032D01*
G01D02*
X86000Y134054D01*
G01X88559D02*
X89224Y134719D01*
X89309D01*
X89840Y135250D01*
G01X89402Y132338D02*
X88559Y131495D01*
G01X82463Y135032D02*
X82349Y135146D01*
Y138014D01*
X81700Y138663D01*
G01X82463Y135032D02*
X83441Y134054D01*
G01X80882Y133360D02*
Y134054D01*
G01D02*
Y134748D01*
G01X80188Y134054D02*
X80882D01*
G01X83441D02*
X80882D01*
G01X85022Y129914D02*
X86000Y128936D01*
G01X89537Y129914D02*
X88559Y128936D01*
G01X79904Y129914D02*
X80882Y128936D01*
G01X82463Y129914D02*
X83441Y128936D01*
G01X87697Y146040D02*
Y144753D01*
X87700Y144750D01*
Y140323D01*
X87910Y140113D01*
Y138827D01*
X87880Y138797D01*
Y138557D01*
X87700Y138377D01*
Y138313D01*
X86000Y136613D01*
G01X83441D02*
Y142941D01*
X84500Y144000D01*
Y146000D01*
G01X79100Y143998D02*
Y138395D01*
X80882Y136613D01*
G01X83992Y174992D02*
Y180408D01*
X79500Y184900D01*
G01X89500D02*
X92500Y181900D01*
Y175000D01*
G01X121200Y46900D02*
X115982D01*
X94382Y68500D01*
G01X111200Y101700D02*
X108100Y98600D01*
X101996D01*
X100100Y100496D01*
Y102041D01*
X99773Y102368D01*
G01X98376Y97590D02*
Y99074D01*
X97500Y99950D01*
Y102082D01*
X97214Y102368D01*
G01X96502Y97906D02*
X95042Y99366D01*
Y101981D01*
X94655Y102368D01*
G01X93677Y100787D02*
Y99677D01*
X93000Y99000D01*
G01X91131Y98698D02*
Y99111D01*
X92210Y100190D01*
Y102254D01*
X92096Y102368D01*
G01X98795Y100787D02*
Y100095D01*
X101590Y97300D01*
X108993D01*
X114051Y102358D01*
Y106102D01*
G01Y109251D02*
X112919D01*
X111158Y107490D01*
X110327D01*
X109514Y106677D01*
Y102434D01*
X106680Y99600D01*
X102541D01*
X101354Y100787D01*
G01X98795Y113582D02*
X99783Y112594D01*
X99979D01*
G01X99773Y102368D02*
X98795Y103346D01*
G01X100014Y104765D02*
X99935D01*
X98795Y105905D01*
G01X97214Y102368D02*
X96236Y103346D01*
G01X94655Y102368D02*
X93677Y103346D01*
G01X92096Y102368D02*
X91118Y103346D01*
G01X92105Y104721D02*
X91207Y105619D01*
Y105816D01*
X91118Y105905D01*
G01X102332Y112604D02*
X101354Y113582D01*
G01X99863Y109794D02*
Y109819D01*
X99773Y109909D01*
Y110045D01*
X98795Y111023D01*
G01X102332Y110045D02*
X101354Y111023D01*
G01X102332Y102368D02*
X101354Y103346D01*
G01X96236Y108464D02*
X97215Y107485D01*
Y107349D01*
G01X97214Y104927D02*
X96236Y105905D01*
G01X94414Y105060D02*
Y105168D01*
X93677Y105905D01*
G01Y108464D02*
X94656Y107485D01*
Y107349D01*
G01X91118Y108464D02*
X92097Y107485D01*
Y107349D01*
G01X102332Y107486D02*
X101354Y108464D01*
G01X102332Y104927D02*
X101354Y105905D01*
G01X97214Y112604D02*
X96236Y113582D01*
G01X92096Y112604D02*
X91118Y113582D01*
G01Y112888D02*
Y113582D01*
G01D02*
Y114276D01*
G01X90424Y113582D02*
X91118D01*
G01D02*
X91812D01*
G01X99773Y115163D02*
X98795Y116141D01*
G01Y118700D02*
Y116141D01*
G01X102332Y117722D02*
X101354Y118700D01*
G01X102332Y115163D02*
X101354Y116141D01*
G01X102332Y124796D02*
X101354Y123818D01*
G01X99773Y124720D02*
X99697D01*
X98795Y123818D01*
G01X102332Y122237D02*
X101354Y121259D01*
G01X97932Y122122D02*
X98795Y121259D01*
G01X94660D02*
X96236D01*
G01X94750Y123818D02*
X96236D01*
G01X92480Y121259D02*
X91118D01*
G01X92390Y123818D02*
X91118D01*
G01X92096Y117722D02*
X91118Y118700D01*
G01X92096Y115163D02*
X91118Y116141D01*
G01X97214Y117722D02*
X96236Y118700D01*
G01X97214Y115163D02*
X96236Y116141D01*
G01X91118Y123124D02*
Y123818D01*
G01X90424D02*
X91118D01*
G01Y120565D02*
Y121259D01*
G01D02*
Y121953D01*
G01X90424Y121259D02*
X91118D01*
G01Y118006D02*
Y118700D01*
G01D02*
Y119394D01*
G01X90424Y118700D02*
X91118D01*
G01D02*
X91812D01*
G01X91118Y115447D02*
Y116141D01*
G01D02*
Y116835D01*
G01X90424Y116141D02*
X91118D01*
G01D02*
X91812D01*
G01X96236Y118006D02*
Y118700D01*
G01D02*
Y119394D01*
G01X95542Y118700D02*
X96236D01*
G01D02*
X96930D01*
G01X96236Y115447D02*
Y116141D01*
G01D02*
Y116835D01*
G01X95542Y116141D02*
X96236D01*
G01D02*
X96930D01*
G01X94680Y125810D02*
X95669D01*
X96236Y126377D01*
G01X92256Y129977D02*
X92159D01*
X91118Y128936D01*
G01X92480Y132857D02*
X91118Y131495D01*
G01X98574Y139927D02*
X97400Y138753D01*
Y135218D01*
X97214Y135032D01*
G01X96236Y134054D02*
X97214Y135032D01*
G01X102332Y132473D02*
X101354Y131495D01*
G01X99773Y135032D02*
X100000Y135259D01*
Y137100D01*
X102585Y139685D01*
Y140925D01*
X105660Y144000D01*
X110600D01*
X121984Y155384D01*
X175616D01*
X176500Y154500D01*
G01X99773Y135032D02*
X98795Y134054D01*
G01X100116Y132649D02*
X99585Y132118D01*
X99418D01*
X98795Y131495D01*
G01X102332Y135032D02*
X101354Y134054D01*
G01X99773Y129650D02*
X99509D01*
X98795Y128936D01*
G01X102332Y129914D02*
X101354Y128936D01*
G01X94655Y129650D02*
X94391D01*
X93677Y128936D01*
G01X101354Y136613D02*
X103913D01*
G01X96236D02*
X94754Y138095D01*
G01X98795Y136613D02*
Y137743D01*
G01X94754Y138095D02*
Y138632D01*
G01X98795Y137743D02*
X99672Y138620D01*
G01X96236Y135919D02*
Y136613D01*
G01D02*
Y137307D01*
G01X95542Y136613D02*
X96236D01*
G01X94377Y132513D02*
X94310Y132446D01*
Y132128D01*
X93677Y131495D01*
G01X97316Y132550D02*
X96785Y132019D01*
X96760D01*
X96236Y131495D01*
G01X97214Y129650D02*
X96950D01*
X96236Y128936D01*
G01X100492Y174992D02*
X99500Y175984D01*
Y184900D01*
G01X102332Y102368D02*
X102446Y102254D01*
X105374D01*
X105520Y102400D01*
X107300D01*
X108714Y103814D01*
Y107063D01*
X110902Y109251D01*
G01X103913Y100787D02*
X105887D01*
X106100Y101000D01*
G01X106396Y112502D02*
X104879D01*
X104867Y112490D01*
X102446D01*
X102332Y112604D01*
G01X103913Y113582D02*
X105229D01*
X105549Y113902D01*
X106978D01*
X107680Y113200D01*
X108580D01*
X108607Y113173D01*
X109711D01*
X110327Y113789D01*
X112290D01*
X114051Y115550D01*
G01X102332Y110045D02*
X102777Y109600D01*
X109288D01*
X110701Y111013D01*
X112663D01*
X114051Y112401D01*
G01X103913Y111023D02*
X104536Y110400D01*
X108901D01*
X110902Y112401D01*
G01X107299Y107151D02*
X102667D01*
X102332Y107486D01*
G01X107301Y105401D02*
X105888D01*
X105300Y104813D01*
X102446D01*
X102332Y104927D01*
G01X106401Y103899D02*
X105848Y103346D01*
X103913D01*
G01X115800Y107500D02*
X112300D01*
X110902Y106102D01*
G01Y105112D02*
Y106102D01*
G01D02*
X111892D01*
G01X103913Y118700D02*
X104218Y119005D01*
X106833D01*
X107260Y118578D01*
X108510D01*
G01X105204Y117605D02*
X102449D01*
X102332Y117722D01*
G01X107203Y115308D02*
X105953D01*
X105694Y115049D01*
X102446D01*
X102332Y115163D01*
G01X103913Y116141D02*
X105720D01*
X106418Y116839D01*
X108309D01*
G01X106148Y125548D02*
X104898D01*
X104450Y125100D01*
X102636D01*
X102332Y124796D01*
G01X110902Y128149D02*
X108300Y125547D01*
Y123150D01*
X106250Y121100D01*
X104764D01*
X104605Y121259D01*
X103913D01*
G01X105670Y122500D02*
X104150D01*
X104001Y122351D01*
X102446D01*
X102332Y122237D01*
G01X115322Y123450D02*
Y123728D01*
X114051Y124999D01*
G01X102670Y119968D02*
X106250D01*
X109800Y123518D01*
Y123897D01*
X110902Y124999D01*
G01X103913Y123818D02*
X103995Y123900D01*
X106818D01*
X106900Y123818D01*
G01X115280Y120621D02*
X114051Y121850D01*
G01X112524Y120024D02*
Y120228D01*
X110902Y121850D01*
G01Y118700D02*
Y117513D01*
X109514Y116125D01*
Y115232D01*
X108855Y114573D01*
G01X112388Y116639D02*
X112249Y116500D01*
X111852D01*
X110902Y115550D01*
G01X112594Y132418D02*
X112931D01*
X114051Y131298D01*
G01X115476Y126550D02*
Y126724D01*
X114051Y128149D01*
G01X124500Y147500D02*
X112100Y135100D01*
X110260D01*
X106655Y131495D01*
X103913D01*
G01X123406Y149288D02*
X122000Y147882D01*
X121062D01*
X105980Y132800D01*
X102659D01*
X102332Y132473D01*
G01X176304Y152303D02*
X175107Y153500D01*
X122600D01*
X104400Y135300D01*
X102600D01*
X102332Y135032D01*
G01X174500Y151500D02*
X173616Y152384D01*
X123584D01*
X105254Y134054D01*
X103913D01*
G01X131700Y146500D02*
X119200Y134000D01*
X111000D01*
X107100Y130100D01*
X102518D01*
X102332Y129914D01*
G01X105500Y140500D02*
X104600Y139600D01*
Y137300D01*
X103913Y136613D01*
G01X109452Y129848D02*
X110902Y131298D01*
G01Y130308D02*
Y131298D01*
G01X109912D02*
X110902D01*
G01X120000Y158500D02*
X109000D01*
G01X166874Y108176D02*
X155948Y97250D01*
X121455D01*
X120100Y98605D01*
G01X122000Y99500D02*
X123050Y98450D01*
X153998D01*
X163724Y108176D01*
G01X157425Y111326D02*
X156000Y109901D01*
Y103800D01*
X152200Y100000D01*
X126100D01*
G01X131500Y110700D02*
X131388Y110812D01*
X128730D01*
X128480Y111062D01*
X127320D01*
X123842Y107584D01*
Y105947D01*
X116500Y98605D01*
G01X121100Y105500D02*
X118189Y102589D01*
X117384D01*
X116500Y101705D01*
G01X118430Y110480D02*
X117201Y109251D01*
G01X118430Y107331D02*
X117201Y106102D01*
G01X118430Y113630D02*
X117201Y112401D01*
G01Y105112D02*
Y106102D01*
G01D02*
Y107092D01*
G01X116211Y106102D02*
X117201D01*
G01D02*
X118191D01*
G01X117201Y111411D02*
Y112401D01*
G01D02*
Y113391D01*
G01X116211Y112401D02*
X117201D01*
G01D02*
X118191D01*
G01X117201Y115550D02*
X118430Y116779D01*
G01X129799Y118700D02*
X127300D01*
X126500Y119500D01*
G01X118473Y123672D02*
X118400Y123745D01*
Y123800D01*
X117201Y124999D01*
G01X132413Y139498D02*
X131663D01*
X125600Y133435D01*
Y126049D01*
X129799Y121850D01*
G01X117201D02*
X118631D01*
X120300Y123519D01*
Y129580D01*
X121500Y130780D01*
Y132895D01*
G01X121700Y129000D02*
Y123729D01*
X118433Y120462D01*
X115439D01*
X115280Y120621D01*
G01X122500Y120400D02*
X124000Y121900D01*
Y136200D01*
X126000Y138200D01*
G01X117201Y118700D02*
X123700D01*
G01D02*
X124500Y119500D01*
G01X117201Y117710D02*
Y118700D01*
G01X116211D02*
X117201D01*
G01X115646Y132485D02*
X115681Y132450D01*
X116049D01*
X117201Y131298D01*
G01X118499Y126549D02*
Y126851D01*
X117201Y128149D01*
G01X154276Y108176D02*
X152600Y106500D01*
X142700D01*
X138450Y102250D01*
X132500D01*
G01X128570Y113630D02*
X129799Y112401D01*
G01X138500Y107000D02*
X137602Y106102D01*
X136098D01*
G01X127600Y106700D02*
X129201D01*
X129799Y106102D01*
G01X132949D02*
X134451Y104600D01*
X138080D01*
X148080Y114600D01*
Y120080D01*
X150163Y122163D01*
X152515D01*
X154276Y123924D01*
G01X131500Y107600D02*
Y107551D01*
X132949Y106102D01*
G01X136098Y109251D02*
X138511D01*
X140080Y110820D01*
G01X132949Y109251D02*
X134337Y107863D01*
X137383D01*
X137920Y108400D01*
X139828D01*
X146900Y115472D01*
Y121000D01*
X148900Y123000D01*
G01X131500Y110700D02*
X132949Y109251D01*
G01X136098Y112401D02*
X137362Y113665D01*
X138765D01*
G01D02*
X139784Y114684D01*
X139880D01*
X144100Y118904D01*
Y122901D01*
X145200Y124001D01*
Y130200D01*
G01X160575Y130224D02*
X157799Y133000D01*
X151399D01*
X149423Y131024D01*
X147624D01*
X146700Y130100D01*
Y124201D01*
X144900Y122401D01*
Y117820D01*
X138093Y111013D01*
X134337D01*
X132949Y112401D01*
G01X131425Y113925D02*
X132949Y112401D01*
G01Y115550D02*
X134337Y114162D01*
X136673D01*
X138061Y115550D01*
X139048D01*
X143100Y119602D01*
Y123400D01*
X143800Y124100D01*
Y130780D01*
X145005Y131985D01*
X148551D01*
X150366Y133800D01*
X160148D01*
X163724Y130224D01*
G01X127900Y109662D02*
X128311Y109251D01*
G01D02*
X129799D01*
G01X136098Y115550D02*
X137298Y116750D01*
X138550D01*
X142199Y120399D01*
Y124300D01*
X143000Y125101D01*
Y133509D01*
X144252Y134761D01*
X162639D01*
X165112Y132288D01*
Y128462D01*
X163724Y127074D01*
G01X134574Y117074D02*
X136098Y115550D01*
G01X131720Y116779D02*
X132949Y115550D01*
G01X136098Y118700D02*
X138200D01*
X139900Y120400D01*
G01X127000Y127500D02*
X127298D01*
X129799Y124999D01*
G01X131720Y123770D02*
X132949Y124999D01*
G01X136098D02*
X137486Y126387D01*
Y132114D01*
X136100Y133500D01*
G01X136098Y121850D02*
X140000Y125752D01*
Y135000D01*
G01X131720Y120621D02*
X132949Y121850D01*
G01X137900Y120400D02*
X134649D01*
X132949Y118700D01*
G01X128570Y116779D02*
X129799Y115550D01*
G01D02*
Y116540D01*
G01X128809Y115550D02*
X129799D01*
G01X134869Y130069D02*
X136098Y131298D01*
G01X127308Y131250D02*
X128192Y130366D01*
Y129756D01*
X129799Y128149D01*
G01X131720Y126920D02*
X132949Y128149D01*
G01X132503Y137600D02*
Y133232D01*
X132949Y132786D01*
Y131298D01*
G01X127500Y133000D02*
X128097D01*
X129799Y131298D01*
G01X134869Y126920D02*
X136098Y128149D01*
G01X136100Y133500D02*
Y141500D01*
G01X133000Y150500D02*
X172500D01*
X173600Y149400D01*
G01X151126Y111326D02*
X149226D01*
G01X154276D02*
X152876Y109926D01*
X147024D01*
G01X140080Y110820D02*
X145700Y116440D01*
Y121780D01*
X149232Y125312D01*
X152514D01*
X154276Y127074D01*
G01X151126Y108176D02*
X149124D01*
G01X139900Y120400D02*
Y123601D01*
X142200Y125901D01*
Y135859D01*
X144252Y137911D01*
X164588D01*
X168500Y133999D01*
Y128700D01*
X166874Y127074D01*
G01X148900Y127000D02*
X150362Y128462D01*
X152514D01*
X154276Y130224D01*
G01X148650Y129250D02*
X149624Y130224D01*
X151126D01*
G01X158500Y106000D02*
X159384Y106884D01*
Y106985D01*
X160575Y108176D01*
G01X157425D02*
X158900Y109651D01*
G01X157425Y107186D02*
Y108176D01*
G01D02*
Y109166D01*
G01Y108176D02*
X158415D01*
G01X154276Y120775D02*
X152901Y119400D01*
G01X162734Y117625D02*
X163724D01*
G01X160575Y127074D02*
X162101Y128600D01*
G01X155900Y131600D02*
X156049D01*
X157425Y130224D01*
G01X171000Y32000D02*
Y88750D01*
X170750Y89000D01*
Y90250D01*
G01X166874Y123924D02*
X168150Y125200D01*
G01X163724Y117625D02*
X165300Y116049D01*
G01X163724Y116635D02*
Y117625D01*
G01D02*
Y118615D01*
G01Y117625D02*
X164714D01*
G01X166874Y130224D02*
Y133600D01*
G01X180300Y156400D02*
Y163200D01*
M02*
