G04 ================== begin FILE IDENTIFICATION RECORD ==================*
G04 Layout Name:  E:/material/glass/pcb/test-stm32f429/pcb/f429.brd*
G04 Film Name:    PASTEMASK_TOP*
G04 File Format:  Gerber RS274X*
G04 File Origin:  Cadence Allegro 16.6-S049*
G04 Origin Date:  Wed Oct 14 16:51:38 2015*
G04 *
G04 Layer:  VIA CLASS/PASTEMASK_TOP*
G04 Layer:  PIN/PASTEMASK_TOP*
G04 Layer:  PACKAGE GEOMETRY/PASTEMASK_TOP*
G04 *
G04 Offset:    (0.00 0.00)*
G04 Mirror:    No*
G04 Mode:      Positive*
G04 Rotation:  0*
G04 FullContactRelief:  No*
G04 UndefLineWidth:     0.00*
G04 ================== end FILE IDENTIFICATION RECORD ====================*
%FSLAX25Y25*MOIN*%
%IR0*IPPOS*OFA0.00000B0.00000*MIA0B0*SFA1.00000B1.00000*%
%ADD10C,.011*%
%AMMACRO23*
4,1,4,-.02033,-.00852,
-.02033,.00853,
.02034,.00853,
.02034,-.00852,
-.02033,-.00852,
0.0*
%
%ADD23MACRO23*%
%AMMACRO25*
4,1,4,-.03244,-.02063,
-.03244,.02063,
.03244,.02063,
.03244,-.02063,
-.03244,-.02063,
0.0*
%
%ADD25MACRO25*%
%AMMACRO27*
4,1,21,.00394,.01476,
.00394,-.01083,
.00388,-.011514,
.003701,-.012177,
.003411,-.0128,
.003016,-.013362,
.00253,-.013847,
.001967,-.014241,
.001345,-.01453,
.000681,-.014707,
-.000003,-.014767,
-.000687,-.014706,
-.001351,-.014528,
-.001973,-.014237,
-.002535,-.013843,
-.00302,-.013357,
-.003414,-.012794,
-.003703,-.012171,
-.003881,-.011508,
-.00394,-.01083,
-.00394,.01476,
.00394,.01476,
0.0*
%
%ADD27MACRO27*%
%AMMACRO18*
4,1,22,.00591,.01575,
.00591,-.00984,
.005821,-.010866,
.005554,-.011861,
.005119,-.012795,
.004529,-.013639,
.003801,-.014368,
.002957,-.014959,
.002024,-.015395,
.001029,-.015662,
.000003,-.015753,
-.001024,-.015663,
-.002019,-.015397,
-.002953,-.014962,
-.003797,-.014371,
-.004526,-.013643,
-.005117,-.0128,
-.005553,-.011866,
-.00582,-.010871,
-.00591,-.009845,
-.00591,-.00984,
-.00591,.01575,
.00591,.01575,
0.0*
%
%ADD18MACRO18*%
%ADD12C,.06299*%
%ADD13R,.06299X.06299*%
%ADD20R,.05512X.04331*%
%AMMACRO17*
4,1,4,-.03262,-.01786,
-.03262,.01785,
.03262,.01785,
.03262,-.01786,
-.03262,-.01786,
0.0*
%
%ADD17MACRO17*%
%AMMACRO22*
4,1,4,.03709,.01937,
.03709,-.01937,
-.03708,-.01937,
-.03708,.01937,
.03709,.01937,
0.0*
%
%ADD22MACRO22*%
%ADD15R,.02126X.03543*%
%ADD11R,.03543X.02126*%
%AMMACRO26*
4,1,21,-.00394,-.01476,
-.00394,.01083,
-.00388,.011514,
-.003701,.012177,
-.003411,.0128,
-.003016,.013362,
-.00253,.013847,
-.001967,.014241,
-.001345,.01453,
-.000681,.014707,
.000003,.014767,
.000687,.014706,
.001351,.014528,
.001973,.014237,
.002535,.013843,
.00302,.013357,
.003414,.012794,
.003703,.012171,
.003881,.011508,
.00394,.01083,
.00394,-.01476,
-.00394,-.01476,
0.0*
%
%ADD26MACRO26*%
%ADD24R,.02953X.05512*%
%AMMACRO16*
4,1,22,-.00591,-.01575,
-.00591,.00984,
-.005821,.010866,
-.005554,.011861,
-.005119,.012795,
-.004529,.013639,
-.003801,.014368,
-.002957,.014959,
-.002024,.015395,
-.001029,.015662,
-.000003,.015753,
.001024,.015663,
.002019,.015397,
.002953,.014962,
.003797,.014371,
.004526,.013643,
.005117,.0128,
.005553,.011866,
.00582,.010871,
.00591,.009845,
.00591,.00984,
.00591,-.01575,
-.00591,-.01575,
0.0*
%
%ADD16MACRO16*%
%ADD19R,.08661X.0374*%
%ADD21R,.01969X.03543*%
%ADD14R,.03543X.06496*%
G75*
%LPD*%
G75*
G36*
G01X75837Y32314D02*
Y35885D01*
X82361D01*
Y32314D01*
X75837D01*
G37*
G36*
G01X97837D02*
Y35885D01*
X104361D01*
Y32314D01*
X97837D01*
G37*
G36*
G01X130309Y40038D02*
Y36164D01*
X122892D01*
Y40038D01*
X130309D01*
G37*
G36*
G01X144566Y27247D02*
Y28952D01*
X148633D01*
Y27247D01*
X144566D01*
G37*
G36*
G01X160255Y35936D02*
Y40062D01*
X166743D01*
Y35936D01*
X160255D01*
G37*
G54D10*
X11070Y83000D03*
X14761Y95761D03*
X14770Y97730D03*
X16085Y117415D03*
X15600Y137100D03*
X15631Y135131D03*
X11070Y149370D03*
X27667Y101667D03*
X27508Y105675D03*
X27665Y103635D03*
X27400Y107572D03*
X21000Y143000D03*
X21200Y155300D03*
X21500Y174500D03*
X25992Y165008D03*
X31000Y59500D03*
X29992Y90592D03*
X34000Y170800D03*
X42000Y111500D03*
X50150Y120703D03*
X43500Y157500D03*
X51000Y171000D03*
X62500Y28000D03*
X55000Y44500D03*
X64500Y82900D03*
X65700Y97445D03*
X62500Y93000D03*
X63150Y104650D03*
X60863Y104562D03*
X65100Y104800D03*
X65400Y110200D03*
X64953Y102753D03*
X62500Y119500D03*
X65900Y116141D03*
X59000Y121700D03*
X61800Y126700D03*
X63700Y127500D03*
X59050Y132294D03*
X58996Y130149D03*
X61392Y136107D03*
X57525Y138346D03*
X58554Y146919D03*
X57500Y148500D03*
X65500Y141355D03*
X61200Y140800D03*
X59206Y140003D03*
X56799Y140102D03*
X59500Y142000D03*
X59000Y156000D03*
X58664Y153664D03*
X61608Y161192D03*
X57546Y175143D03*
X59000Y164800D03*
X59600Y179900D03*
X55600Y180500D03*
X55550Y178050D03*
X76500Y49200D03*
X68250Y72250D03*
X67947Y84154D03*
X72700Y90584D03*
X68450Y91250D03*
X69645Y110045D03*
X74786Y112604D03*
X72227Y110045D03*
Y112604D03*
X69427Y107365D03*
X72227Y107486D03*
X77345D03*
X77435Y104985D03*
X74422Y104729D03*
X66500Y105905D03*
X66046Y113191D03*
X72227Y115163D03*
Y117722D03*
Y122237D03*
X69398Y125233D03*
X69668Y122232D03*
X66718Y123818D03*
X74786Y124560D03*
X72227D03*
X74786Y122237D03*
Y117722D03*
Y115163D03*
X72227Y127360D03*
X77420Y135140D03*
X66545Y128936D03*
Y131495D03*
X66571Y135570D03*
X74786Y127360D03*
Y129914D03*
X72238Y129540D03*
X72227Y132340D03*
X74786D03*
X77300Y132330D03*
X71148Y142054D03*
X69500Y143000D03*
X72500Y144000D03*
X75000D03*
X77200D03*
X69100Y159564D03*
X69000Y162500D03*
X72908Y169008D03*
X72500Y175000D03*
X69800Y164800D03*
X85000Y13600D03*
X87092Y23992D03*
X80200Y18008D03*
X80500Y26000D03*
X79100Y34100D03*
X89000Y53000D03*
X78800Y42900D03*
X84192Y51392D03*
X81500Y59100D03*
X87700Y60900D03*
X78800Y57100D03*
X78417Y84400D03*
X88900Y84200D03*
X81850Y82500D03*
X85949Y86000D03*
X78323Y88300D03*
X85022Y102422D03*
X89538Y107349D03*
X85022Y104927D03*
X82463D03*
X89305Y104894D03*
X79904Y104927D03*
Y112604D03*
X79903Y107349D03*
X82463Y112604D03*
X82462Y107349D03*
X85022Y112604D03*
X85021Y107349D03*
X89537Y112604D03*
X89820Y121259D03*
X89850Y123818D03*
X79904Y124796D03*
Y122237D03*
X82463Y124796D03*
Y122237D03*
X85022Y124796D03*
Y122237D03*
X79904Y117722D03*
Y115163D03*
X82463Y117722D03*
Y115163D03*
X85022Y117722D03*
Y115163D03*
X89537Y117722D03*
Y115163D03*
X82700Y132460D03*
X86602Y132470D03*
X89840Y135250D03*
X89402Y132338D03*
X85022Y129914D03*
X89537D03*
X79904D03*
X82463D03*
X86360Y139470D03*
X81000Y144000D03*
X86100Y147300D03*
X82054Y145581D03*
X87697Y146040D03*
X84500Y146000D03*
X79100Y143998D03*
X82692Y169008D03*
X83992Y174992D03*
X80300Y163700D03*
X90500Y10050D03*
X102380Y25520D03*
X101900Y18508D03*
X101000Y34000D03*
X100500Y42700D03*
X98600Y48900D03*
X100500Y56900D03*
X91992Y64792D03*
X96120Y62563D03*
X94382Y68500D03*
X101300Y85300D03*
X93679Y86750D03*
X99047Y84854D03*
X91779Y86750D03*
X96800Y86000D03*
X98376Y97590D03*
X96502Y97906D03*
X93000Y99000D03*
X91131Y98698D03*
X94483Y97500D03*
X90500Y91500D03*
X99979Y112594D03*
X100014Y104765D03*
X92105Y104721D03*
X99863Y109794D03*
X97215Y107349D03*
X97214Y104927D03*
X94414Y105060D03*
X94656Y107349D03*
X92097D03*
X97214Y112604D03*
X92096D03*
X99773Y115163D03*
Y124720D03*
X97932Y122122D03*
X94660Y121259D03*
X91865Y125745D03*
X94750Y123818D03*
X92480Y121259D03*
X92390Y123818D03*
X92096Y117722D03*
Y115163D03*
X97214Y117722D03*
Y115163D03*
X94680Y125810D03*
X92256Y129977D03*
X92480Y132857D03*
X100116Y132649D03*
X99773Y129650D03*
X94655D03*
X94377Y132513D03*
X97316Y132550D03*
X97214Y129650D03*
X98574Y139927D03*
X94754Y144108D03*
X100500Y141600D03*
X92897Y143703D03*
X99400Y155200D03*
X101500Y158700D03*
X101400Y163700D03*
X92392Y169008D03*
X92500Y175000D03*
X100492Y174992D03*
X99592Y169008D03*
X91100Y163700D03*
X112279Y12379D03*
X107300Y13600D03*
X108708Y24492D03*
X108292Y18508D03*
X111000Y36000D03*
X106500Y51292D03*
X108108Y64392D03*
X103600Y64000D03*
X114092Y64492D03*
X103000Y86200D03*
X106000Y85900D03*
X111000Y86000D03*
X111200Y101700D03*
X106100Y101000D03*
X108855Y114573D03*
X106396Y112502D03*
X107299Y107151D03*
X107301Y105401D03*
X106401Y103899D03*
X108000Y111800D03*
X108510Y118578D03*
X105204Y117605D03*
X107203Y115308D03*
X108309Y116839D03*
X106148Y125548D03*
X105670Y122500D03*
X102670Y119968D03*
X106900Y123818D03*
X112524Y120024D03*
X112388Y116639D03*
X112594Y132418D03*
X109452Y129848D03*
X110579Y147370D03*
X109077Y148534D03*
X105500Y140500D03*
X109500Y156200D03*
X109000Y158500D03*
X102900Y155000D03*
X126600Y15779D03*
Y9500D03*
Y23300D03*
Y29600D03*
Y38100D03*
X118495Y42800D03*
X121200Y46900D03*
X117521Y55721D03*
X122300Y59600D03*
X122192Y55092D03*
X121000Y86100D03*
X116000Y85900D03*
X126000Y86200D03*
X117400Y94079D03*
X126000Y94500D03*
X121000Y94300D03*
X120100Y98605D03*
X122000Y99500D03*
X126100Y100000D03*
X116500Y98605D03*
Y101705D03*
X118430Y110480D03*
X121100Y105500D03*
X118430Y107331D03*
X115800Y107500D03*
X118430Y113630D03*
Y116779D03*
X126500Y119500D03*
X118499Y126549D03*
X115476Y126550D03*
X118473Y123672D03*
X115322Y123450D03*
X122500Y120400D03*
X124500Y119500D03*
X115646Y132485D03*
X121500Y132895D03*
X121700Y129000D03*
X126000Y138200D03*
X119500Y132500D03*
X124500Y147500D03*
X123406Y149288D03*
X120000Y158500D03*
X115600Y155000D03*
X115700Y160500D03*
X119500Y166800D03*
X116000Y163700D03*
X131600Y16000D03*
Y9600D03*
X129733Y29133D03*
X134100Y24100D03*
X138300Y23900D03*
X135300Y36600D03*
X131000Y86200D03*
X136000Y86500D03*
Y94500D03*
X131000D03*
X132500Y102250D03*
X128570Y113630D03*
X138500Y107000D03*
X127600Y106700D03*
X131500Y107600D03*
X138765Y113665D03*
X131425Y113925D03*
X127900Y109662D03*
X134574Y117074D03*
X131720Y116779D03*
Y123770D03*
Y120621D03*
X137900Y120400D03*
X128570Y116779D03*
X134869Y130069D03*
X127308Y131250D03*
X131720Y126920D03*
X132503Y137600D03*
X127500Y133000D03*
X134869Y126920D03*
X127000Y127500D03*
X136100Y133500D03*
X136000Y147800D03*
X136100Y141500D03*
X132413Y139498D03*
X133000Y150500D03*
X131000Y148500D03*
X131700Y146500D03*
X143608Y9908D03*
X149592Y10008D03*
X140600Y18600D03*
X141563Y24163D03*
X140400Y36600D03*
X147584Y35084D03*
X140400Y46900D03*
X149553Y62100D03*
X145616Y60400D03*
X143647Y58200D03*
X149500Y84300D03*
X145692Y93192D03*
X149226Y111326D03*
X147024Y109926D03*
X140080Y110820D03*
X149124Y108176D03*
X148900Y123000D03*
X139900Y120400D03*
X148900Y127000D03*
X145200Y130200D03*
X140000Y135000D03*
X142500Y138700D03*
X148650Y129250D03*
X140500Y142500D03*
X140900Y144800D03*
X155500Y14000D03*
X161000Y28500D03*
X151437Y24163D03*
X153008Y20008D03*
X161000Y22000D03*
X157722Y29800D03*
X153500Y33800D03*
X158500Y59500D03*
X159500Y84500D03*
X154500Y84300D03*
X159500Y95800D03*
X154500Y95500D03*
X158500Y106000D03*
X158900Y109651D03*
X152901Y119400D03*
X162101Y128600D03*
X155900Y131600D03*
X157500Y146500D03*
X162500D03*
Y148579D03*
X157500D03*
X171000Y32000D03*
X165200Y29529D03*
X168000Y47500D03*
X173700Y45500D03*
X163520Y46433D03*
X165075Y46500D03*
X172650Y48350D03*
X173000Y56492D03*
X170750Y90250D03*
X173500Y114500D03*
X168150Y125200D03*
X174000Y119500D03*
Y117000D03*
X165300Y116049D03*
X166874Y133600D03*
X167500Y146400D03*
X173600Y149400D03*
X167500Y148579D03*
X174500Y151500D03*
X180300Y156400D03*
X176500Y154500D03*
X176304Y152303D03*
G54D11*
X21700Y90592D03*
Y84608D03*
X21200Y146108D03*
Y152092D03*
X21500Y170992D03*
Y165008D03*
X62500Y113492D03*
Y107508D03*
Y117508D03*
Y123492D03*
X65000Y155208D03*
Y161192D03*
X77000Y23992D03*
Y18008D03*
X72000Y23992D03*
Y18008D03*
X76500Y45408D03*
Y51392D03*
Y60892D03*
Y54908D03*
X73500Y155208D03*
Y161192D03*
X69000Y174992D03*
Y169008D03*
X79000Y174992D03*
Y169008D03*
X83500Y23992D03*
Y18008D03*
X81500Y45408D03*
Y51392D03*
Y54908D03*
Y60892D03*
X89000Y174992D03*
Y169008D03*
X99000Y24492D03*
Y18508D03*
X94000Y24492D03*
Y18508D03*
X98600Y45308D03*
Y51292D03*
X103600Y45308D03*
Y51292D03*
X98600Y60792D03*
Y54808D03*
X103600D03*
Y60792D03*
X96800Y88908D03*
Y94892D03*
X96000Y174992D03*
Y169008D03*
X105500Y24492D03*
Y18508D03*
X106000Y90208D03*
X111000D03*
X106000Y96192D03*
X111000D03*
X126600Y11908D03*
Y27392D03*
Y21408D03*
Y17892D03*
X125600Y49108D03*
Y55092D03*
X121000Y90208D03*
X126000D03*
X116000D03*
X121000Y96192D03*
X126000D03*
X116000D03*
X119500Y174992D03*
Y169008D03*
X131600Y11908D03*
X136600Y21408D03*
Y27392D03*
X131600Y17892D03*
Y21408D03*
Y27392D03*
X135300Y40592D03*
Y34608D03*
X130600Y49108D03*
Y55092D03*
X131000Y90208D03*
X136000D03*
X131000Y96192D03*
X136000D03*
Y139208D03*
Y145192D03*
X140400Y34608D03*
Y40592D03*
X149500Y87208D03*
Y93192D03*
X156000Y25992D03*
Y20008D03*
X161000Y25992D03*
Y20008D03*
X158500Y50508D03*
X163500D03*
X158500Y56492D03*
X163500D03*
X159500Y87208D03*
X154500D03*
X159500Y93192D03*
X154500D03*
X162500Y150692D03*
Y144708D03*
X157500Y150692D03*
Y144708D03*
X171000Y20008D03*
Y25992D03*
X166000Y20008D03*
Y25992D03*
X168500Y50508D03*
Y56492D03*
X167500Y150692D03*
Y144708D03*
G54D20*
X91421Y149263D03*
X81579D03*
Y157137D03*
X91421D03*
G54D21*
X116100Y29382D03*
Y39618D03*
G54D12*
X38500Y5000D03*
Y15000D03*
Y25000D03*
Y35000D03*
Y55000D03*
Y45000D03*
Y65000D03*
Y75000D03*
Y85000D03*
Y105000D03*
Y95000D03*
Y115000D03*
Y125000D03*
Y135000D03*
Y145000D03*
Y165000D03*
Y155000D03*
Y175000D03*
Y185000D03*
Y195000D03*
X48500Y15000D03*
Y25000D03*
Y35000D03*
Y55000D03*
Y45000D03*
Y65000D03*
Y75000D03*
Y85000D03*
Y105000D03*
Y95000D03*
Y115000D03*
Y125000D03*
Y135000D03*
Y145000D03*
Y165000D03*
Y155000D03*
Y175000D03*
Y185000D03*
Y195000D03*
X59500Y194900D03*
X79500Y184900D03*
X69500D03*
X79500Y194900D03*
X69500D03*
X89500Y184900D03*
Y194900D03*
X99500Y184900D03*
Y194900D03*
X109500Y184900D03*
Y194900D03*
X119500Y184900D03*
Y194900D03*
X139500Y184900D03*
X129500D03*
X139500Y194900D03*
X129500D03*
X150300Y163200D03*
Y173200D03*
X149500Y184900D03*
Y194900D03*
X160300Y163200D03*
Y173200D03*
X179100Y26100D03*
Y36100D03*
Y46100D03*
X190300Y163200D03*
X180300D03*
X190300Y173200D03*
X180300D03*
G54D22*
X126600Y38101D03*
G54D13*
X48500Y5000D03*
X59500Y184900D03*
X140300Y163200D03*
Y173200D03*
X170300Y163200D03*
Y173200D03*
X179100Y16100D03*
G54D14*
X65079Y149700D03*
X74921D03*
G54D23*
X146599Y28099D03*
G54D24*
X162366Y14000D03*
X170634D03*
G54D15*
X76608Y13600D03*
X71508Y93700D03*
X77492D03*
X78008Y163700D03*
X82592Y13600D03*
X86008Y60900D03*
X87992Y88700D03*
X82008D03*
X87992Y93700D03*
X82008D03*
X87508Y163700D03*
X83992D03*
X98608Y13600D03*
X91992Y60900D03*
X97508Y143700D03*
Y148700D03*
Y158700D03*
X93492Y163700D03*
X97508D03*
X104592Y13600D03*
X108108Y60800D03*
X114092D03*
X103492Y143700D03*
Y148700D03*
X107008Y143700D03*
X112992D03*
Y148700D03*
X107008D03*
X112992Y158700D03*
X107008D03*
X112992Y153700D03*
X107008D03*
X103492Y158700D03*
Y163700D03*
X112992D03*
X107008D03*
X125108Y59600D03*
X131092D03*
X143608Y13600D03*
X149592D03*
Y18600D03*
X143608D03*
G54D16*
X77820Y28391D03*
X75261D03*
X82939D03*
X80380D03*
X102380D03*
X99820D03*
X97261D03*
X104939D03*
X126600Y32194D03*
X124631D03*
X122663D03*
X130537D03*
X128569D03*
X149553Y24163D03*
X147584D03*
X145616D03*
X143647D03*
G54D25*
X163499Y37999D03*
G54D26*
X161925Y32094D03*
X160350D03*
X158776D03*
X168224D03*
X166650D03*
X165075D03*
X163500D03*
G54D17*
X79099Y34100D03*
X101099D03*
G54D18*
X75261Y39809D03*
X77820D03*
X80380D03*
X82939D03*
X97261D03*
X99820D03*
X102380D03*
X104939D03*
X122663Y44006D03*
X124631D03*
X126600D03*
X128569D03*
X130537D03*
X143647Y32037D03*
X145616D03*
X147584D03*
X149553D03*
G54D27*
X158776Y43906D03*
X160350D03*
X161925D03*
X163500D03*
X165075D03*
X166650D03*
X168224D03*
G54D19*
X89000Y45979D03*
Y55821D03*
X111600Y45879D03*
Y55721D03*
X118800Y12379D03*
Y22221D03*
M02*
