G04 ================== begin FILE IDENTIFICATION RECORD ==================*
G04 Layout Name:  E:/material/glass/pcb/ssd1963test/pcb/test.brd*
G04 Film Name:    SILKSCREEN_TOP*
G04 File Format:  Gerber RS274X*
G04 File Origin:  Cadence Allegro 16.6-S049*
G04 Origin Date:  Tue Sep 15 14:33:14 2015*
G04 *
G04 Layer:  REF DES/SILKSCREEN_TOP*
G04 Layer:  PACKAGE GEOMETRY/SILKSCREEN_TOP*
G04 Layer:  BOARD GEOMETRY/SILKSCREEN_TOP*
G04 *
G04 Offset:    (0.0 0.0)*
G04 Mirror:    No*
G04 Mode:      Positive*
G04 Rotation:  0*
G04 FullContactRelief:  No*
G04 UndefLineWidth:     0.0*
G04 ================== end FILE IDENTIFICATION RECORD ====================*
%FSLAX25Y25*MOIN*%
%IR0*IPPOS*OFA0.00000B0.00000*MIA0B0*SFA1.00000B1.00000*%
%ADD10C,.004*%
%ADD11C,.0039*%
%ADD12C,.0079*%
%ADD13C,.0098*%
%ADD14C,.0197*%
G75*
%LPD*%
G75*
G54D10*
G01X12970Y225000D02*
X13100Y224750D01*
X13260Y224580D01*
X13450Y224500D01*
X13660Y224580D01*
X13820Y224750D01*
X13980Y225000D01*
X14030Y225330D01*
Y227000D01*
G01X15700Y224500D02*
Y227000D01*
X15380Y226500D01*
G01Y224500D02*
X16020D01*
G01X28000Y52290D02*
X25500D01*
Y53310D01*
G01X26710Y52930D02*
Y52290D01*
G01X25920Y54490D02*
X25670Y54650D01*
X25540Y54840D01*
X25500Y55050D01*
X25580Y55320D01*
X25790Y55510D01*
X26040Y55560D01*
X26290Y55530D01*
X26500Y55430D01*
X26920Y54890D01*
X27210Y54650D01*
X27630Y54490D01*
X28000Y54440D01*
Y55560D01*
G01X31310Y184000D02*
Y186500D01*
X31850D01*
X32060Y186370D01*
X32220Y186210D01*
X32350Y185960D01*
X32460Y185670D01*
X32490Y185250D01*
X32460Y184830D01*
X32350Y184540D01*
X32220Y184290D01*
X32060Y184120D01*
X31850Y184000D01*
X31310D01*
G01X34100D02*
Y186500D01*
X33780Y186000D01*
G01Y184000D02*
X34420D01*
G01X32570Y227300D02*
Y224800D01*
X33630D01*
G01X35300D02*
Y227300D01*
X34980Y226800D01*
G01Y224800D02*
X35620D01*
G01X44390Y187290D02*
X44230Y187420D01*
X44040Y187500D01*
X43830D01*
X43590Y187370D01*
X43400Y187170D01*
X43270Y186920D01*
X43160Y186500D01*
X43130Y186120D01*
X43190Y185750D01*
X43270Y185500D01*
X43430Y185250D01*
X43610Y185080D01*
X43800Y185000D01*
X43990D01*
X44170Y185080D01*
X44330Y185210D01*
X44470Y185370D01*
G01X46000Y185000D02*
Y187500D01*
X45680Y187000D01*
G01Y185000D02*
X46320D01*
G01X47610Y185370D02*
X47770Y185170D01*
X47960Y185040D01*
X48200Y185000D01*
X48440Y185080D01*
X48630Y185250D01*
X48760Y185540D01*
X48790Y185870D01*
X48730Y186210D01*
X48600Y186420D01*
X48410Y186580D01*
X48230Y186620D01*
X48040Y186580D01*
X47800Y186420D01*
X47880Y187500D01*
X48600D01*
G01X60390Y122290D02*
X60230Y122420D01*
X60040Y122500D01*
X59830D01*
X59590Y122370D01*
X59400Y122170D01*
X59270Y121920D01*
X59160Y121500D01*
X59130Y121120D01*
X59190Y120750D01*
X59270Y120500D01*
X59430Y120250D01*
X59610Y120080D01*
X59800Y120000D01*
X59990D01*
X60170Y120080D01*
X60330Y120210D01*
X60470Y120370D01*
G01X62000Y120000D02*
Y122500D01*
X61680Y122000D01*
G01Y120000D02*
X62320D01*
G01X63690Y122080D02*
X63850Y122330D01*
X64040Y122460D01*
X64250Y122500D01*
X64520Y122420D01*
X64710Y122210D01*
X64760Y121960D01*
X64730Y121710D01*
X64630Y121500D01*
X64090Y121080D01*
X63850Y120790D01*
X63690Y120370D01*
X63640Y120000D01*
X64760D01*
G01X54370Y184000D02*
Y186500D01*
X55030D01*
X55250Y186370D01*
X55380Y186210D01*
X55430Y185870D01*
X55380Y185540D01*
X55220Y185330D01*
X55030Y185210D01*
X54370D01*
G01X55030D02*
X55430Y184000D01*
G01X56510Y184500D02*
X56670Y184210D01*
X56890Y184040D01*
X57130Y184000D01*
X57340Y184040D01*
X57550Y184250D01*
X57690Y184500D01*
X57710Y184750D01*
X57660Y185040D01*
X57470Y185250D01*
X57290Y185330D01*
X57050D01*
G01X57290D02*
X57450Y185460D01*
X57580Y185670D01*
X57630Y185920D01*
X57580Y186170D01*
X57450Y186370D01*
X57210Y186500D01*
X56970Y186460D01*
X56730Y186290D01*
G01X60310Y199500D02*
Y197710D01*
X60420Y197330D01*
X60630Y197080D01*
X60900Y197000D01*
X61170Y197080D01*
X61380Y197330D01*
X61490Y197710D01*
Y199500D01*
G01X63420Y197000D02*
Y199500D01*
X62430Y197710D01*
X63770D01*
G01X52390Y222290D02*
X52230Y222420D01*
X52040Y222500D01*
X51830D01*
X51590Y222370D01*
X51400Y222170D01*
X51270Y221920D01*
X51160Y221500D01*
X51130Y221120D01*
X51190Y220750D01*
X51270Y220500D01*
X51430Y220250D01*
X51610Y220080D01*
X51800Y220000D01*
X51990D01*
X52170Y220080D01*
X52330Y220210D01*
X52470Y220370D01*
G01X54000Y220000D02*
Y222500D01*
X53680Y222000D01*
G01Y220000D02*
X54320D01*
G01X56520D02*
Y222500D01*
X55530Y220710D01*
X56870D01*
G01X68390Y112290D02*
X68230Y112420D01*
X68040Y112500D01*
X67830D01*
X67590Y112370D01*
X67400Y112170D01*
X67270Y111920D01*
X67160Y111500D01*
X67130Y111120D01*
X67190Y110750D01*
X67270Y110500D01*
X67430Y110250D01*
X67610Y110080D01*
X67800Y110000D01*
X67990D01*
X68170Y110080D01*
X68330Y110210D01*
X68470Y110370D01*
G01X70000Y110000D02*
Y112500D01*
X69680Y112000D01*
G01Y110000D02*
X70320D01*
G01X72200D02*
Y112500D01*
X71880Y112000D01*
G01Y110000D02*
X72520D01*
G01X79500Y190310D02*
X81290D01*
X81670Y190420D01*
X81920Y190630D01*
X82000Y190900D01*
X81920Y191170D01*
X81670Y191380D01*
X81290Y191490D01*
X79500D01*
G01X82000Y193100D02*
X79500D01*
X80000Y192780D01*
G01X82000D02*
Y193420D01*
G01X96710Y26000D02*
Y23500D01*
X95690D01*
G01X96070Y24710D02*
X96710D01*
G01X94000Y26000D02*
Y23500D01*
X94320Y24000D01*
G01Y26000D02*
X93680D01*
G01X97760Y164490D02*
X97630Y164330D01*
X97550Y164140D01*
Y163930D01*
X97680Y163690D01*
X97880Y163500D01*
X98130Y163370D01*
X98550Y163260D01*
X98930Y163230D01*
X99300Y163290D01*
X99550Y163370D01*
X99800Y163530D01*
X99970Y163710D01*
X100050Y163900D01*
Y164090D01*
X99970Y164270D01*
X99840Y164430D01*
X99680Y164570D01*
G01X97970Y165590D02*
X97720Y165750D01*
X97590Y165940D01*
X97550Y166150D01*
X97630Y166420D01*
X97840Y166610D01*
X98090Y166660D01*
X98340Y166630D01*
X98550Y166530D01*
X98970Y165990D01*
X99260Y165750D01*
X99680Y165590D01*
X100050Y165540D01*
Y166660D01*
G01X108900Y175000D02*
X108690Y175040D01*
X108500Y175210D01*
X108340Y175460D01*
X108230Y175750D01*
X108180Y176080D01*
Y176420D01*
X108230Y176750D01*
X108340Y177040D01*
X108500Y177290D01*
X108690Y177460D01*
X108900Y177500D01*
X109110Y177460D01*
X109300Y177290D01*
X109460Y177040D01*
X109570Y176750D01*
X109620Y176420D01*
Y176080D01*
X109570Y175750D01*
X109460Y175460D01*
X109300Y175210D01*
X109110Y175040D01*
X108900Y175000D01*
G01X111100D02*
Y177500D01*
X110780Y177000D01*
G01Y175000D02*
X111420D01*
G01X105490Y191290D02*
X105330Y191420D01*
X105140Y191500D01*
X104930D01*
X104690Y191370D01*
X104500Y191170D01*
X104370Y190920D01*
X104260Y190500D01*
X104230Y190120D01*
X104290Y189750D01*
X104370Y189500D01*
X104530Y189250D01*
X104710Y189080D01*
X104900Y189000D01*
X105090D01*
X105270Y189080D01*
X105430Y189210D01*
X105570Y189370D01*
G01X106510D02*
X106670Y189170D01*
X106860Y189040D01*
X107100Y189000D01*
X107340Y189080D01*
X107530Y189250D01*
X107660Y189540D01*
X107690Y189870D01*
X107630Y190210D01*
X107500Y190420D01*
X107310Y190580D01*
X107130Y190620D01*
X106940Y190580D01*
X106700Y190420D01*
X106780Y191500D01*
X107500D01*
G01X110490Y210290D02*
X110330Y210420D01*
X110140Y210500D01*
X109930D01*
X109690Y210370D01*
X109500Y210170D01*
X109370Y209920D01*
X109260Y209500D01*
X109230Y209120D01*
X109290Y208750D01*
X109370Y208500D01*
X109530Y208250D01*
X109710Y208080D01*
X109900Y208000D01*
X110090D01*
X110270Y208080D01*
X110430Y208210D01*
X110570Y208370D01*
G01X112420Y208000D02*
Y210500D01*
X111430Y208710D01*
X112770D01*
G01X110490Y205290D02*
X110330Y205420D01*
X110140Y205500D01*
X109930D01*
X109690Y205370D01*
X109500Y205170D01*
X109370Y204920D01*
X109260Y204500D01*
X109230Y204120D01*
X109290Y203750D01*
X109370Y203500D01*
X109530Y203250D01*
X109710Y203080D01*
X109900Y203000D01*
X110090D01*
X110270Y203080D01*
X110430Y203210D01*
X110570Y203370D01*
G01X111590Y204040D02*
X111780Y204330D01*
X111940Y204500D01*
X112150Y204580D01*
X112340Y204500D01*
X112470Y204330D01*
X112580Y204080D01*
X112610Y203790D01*
X112580Y203540D01*
X112470Y203290D01*
X112310Y203080D01*
X112130Y203000D01*
X111910Y203080D01*
X111730Y203330D01*
X111620Y203710D01*
X111590Y204120D01*
X111650Y204670D01*
X111730Y204960D01*
X111860Y205250D01*
X112050Y205460D01*
X112230Y205500D01*
X112420Y205420D01*
X112550Y205210D01*
G01X104490Y223290D02*
X104330Y223420D01*
X104140Y223500D01*
X103930D01*
X103690Y223370D01*
X103500Y223170D01*
X103370Y222920D01*
X103260Y222500D01*
X103230Y222120D01*
X103290Y221750D01*
X103370Y221500D01*
X103530Y221250D01*
X103710Y221080D01*
X103900Y221000D01*
X104090D01*
X104270Y221080D01*
X104430Y221210D01*
X104570Y221370D01*
G01X105510Y221500D02*
X105670Y221210D01*
X105890Y221040D01*
X106130Y221000D01*
X106340Y221040D01*
X106550Y221250D01*
X106690Y221500D01*
X106710Y221750D01*
X106660Y222040D01*
X106470Y222250D01*
X106290Y222330D01*
X106050D01*
G01X106290D02*
X106450Y222460D01*
X106580Y222670D01*
X106630Y222920D01*
X106580Y223170D01*
X106450Y223370D01*
X106210Y223500D01*
X105970Y223460D01*
X105730Y223290D01*
G01X122290Y67610D02*
X122420Y67770D01*
X122500Y67960D01*
Y68170D01*
X122370Y68410D01*
X122170Y68600D01*
X121920Y68730D01*
X121500Y68840D01*
X121120Y68870D01*
X120750Y68810D01*
X120500Y68730D01*
X120250Y68570D01*
X120080Y68390D01*
X120000Y68200D01*
Y68010D01*
X120080Y67830D01*
X120210Y67670D01*
X120370Y67530D01*
G01X120000Y66000D02*
X122500D01*
X122000Y66320D01*
G01X120000D02*
Y65680D01*
G01Y63800D02*
X120040Y63610D01*
X120170Y63400D01*
X120370Y63270D01*
X120670Y63210D01*
X120960Y63270D01*
X121210Y63430D01*
X121330Y63670D01*
Y63930D01*
X121420Y64090D01*
X121620Y64230D01*
X121920Y64280D01*
X122210Y64200D01*
X122420Y64010D01*
X122500Y63800D01*
X122420Y63590D01*
X122210Y63400D01*
X121920Y63320D01*
X121620Y63370D01*
X121420Y63510D01*
X121330Y63670D01*
Y63930D01*
X121210Y64170D01*
X120960Y64330D01*
X120670Y64390D01*
X120370Y64330D01*
X120170Y64200D01*
X120040Y63990D01*
X120000Y63800D01*
G01X117290Y67610D02*
X117420Y67770D01*
X117500Y67960D01*
Y68170D01*
X117370Y68410D01*
X117170Y68600D01*
X116920Y68730D01*
X116500Y68840D01*
X116120Y68870D01*
X115750Y68810D01*
X115500Y68730D01*
X115250Y68570D01*
X115080Y68390D01*
X115000Y68200D01*
Y68010D01*
X115080Y67830D01*
X115210Y67670D01*
X115370Y67530D01*
G01X115000Y66000D02*
X117500D01*
X117000Y66320D01*
G01X115000D02*
Y65680D01*
G01X115290Y64250D02*
X115080Y64070D01*
X115000Y63850D01*
X115080Y63640D01*
X115330Y63450D01*
X115710Y63320D01*
X116080Y63270D01*
X116540D01*
X116920Y63320D01*
X117250Y63450D01*
X117420Y63610D01*
X117500Y63800D01*
X117420Y64010D01*
X117250Y64170D01*
X117000Y64280D01*
X116670Y64330D01*
X116380Y64280D01*
X116080Y64150D01*
X115920Y63990D01*
X115870Y63800D01*
X115960Y63590D01*
X116170Y63430D01*
X116540Y63270D01*
G01X118370Y154000D02*
Y156500D01*
X119030D01*
X119250Y156370D01*
X119380Y156210D01*
X119430Y155870D01*
X119380Y155540D01*
X119220Y155330D01*
X119030Y155210D01*
X118370D01*
G01X119030D02*
X119430Y154000D01*
G01X120590Y156080D02*
X120750Y156330D01*
X120940Y156460D01*
X121150Y156500D01*
X121420Y156420D01*
X121610Y156210D01*
X121660Y155960D01*
X121630Y155710D01*
X121530Y155500D01*
X120990Y155080D01*
X120750Y154790D01*
X120590Y154370D01*
X120540Y154000D01*
X121660D01*
G01X125710Y171490D02*
X125580Y171330D01*
X125500Y171140D01*
Y170930D01*
X125630Y170690D01*
X125830Y170500D01*
X126080Y170370D01*
X126500Y170260D01*
X126880Y170230D01*
X127250Y170290D01*
X127500Y170370D01*
X127750Y170530D01*
X127920Y170710D01*
X128000Y170900D01*
Y171090D01*
X127920Y171270D01*
X127790Y171430D01*
X127630Y171570D01*
G01X128000Y173100D02*
X125500D01*
X126000Y172780D01*
G01X128000D02*
Y173420D01*
G01X139310Y154500D02*
Y152710D01*
X139420Y152330D01*
X139630Y152080D01*
X139900Y152000D01*
X140170Y152080D01*
X140380Y152330D01*
X140490Y152710D01*
Y154500D01*
G01X141510Y152500D02*
X141670Y152210D01*
X141890Y152040D01*
X142130Y152000D01*
X142340Y152040D01*
X142550Y152250D01*
X142690Y152500D01*
X142710Y152750D01*
X142660Y153040D01*
X142470Y153250D01*
X142290Y153330D01*
X142050D01*
G01X142290D02*
X142450Y153460D01*
X142580Y153670D01*
X142630Y153920D01*
X142580Y154170D01*
X142450Y154370D01*
X142210Y154500D01*
X141970Y154460D01*
X141730Y154290D01*
G01X130710Y171390D02*
X130580Y171230D01*
X130500Y171040D01*
Y170830D01*
X130630Y170590D01*
X130830Y170400D01*
X131080Y170270D01*
X131500Y170160D01*
X131880Y170130D01*
X132250Y170190D01*
X132500Y170270D01*
X132750Y170430D01*
X132920Y170610D01*
X133000Y170800D01*
Y170990D01*
X132920Y171170D01*
X132790Y171330D01*
X132630Y171470D01*
G01X133000Y173000D02*
X130500D01*
X131000Y172680D01*
G01X133000D02*
Y173320D01*
G01X132500Y174610D02*
X132790Y174770D01*
X132960Y174990D01*
X133000Y175230D01*
X132960Y175440D01*
X132750Y175650D01*
X132500Y175790D01*
X132250Y175810D01*
X131960Y175760D01*
X131750Y175570D01*
X131670Y175390D01*
Y175150D01*
G01Y175390D02*
X131540Y175550D01*
X131330Y175680D01*
X131080Y175730D01*
X130830Y175680D01*
X130630Y175550D01*
X130500Y175310D01*
X130540Y175070D01*
X130710Y174830D01*
G01X133500Y189310D02*
X135290D01*
X135670Y189420D01*
X135920Y189630D01*
X136000Y189900D01*
X135920Y190170D01*
X135670Y190380D01*
X135290Y190490D01*
X133500D01*
G01X133920Y191590D02*
X133670Y191750D01*
X133540Y191940D01*
X133500Y192150D01*
X133580Y192420D01*
X133790Y192610D01*
X134040Y192660D01*
X134290Y192630D01*
X134500Y192530D01*
X134920Y191990D01*
X135210Y191750D01*
X135630Y191590D01*
X136000Y191540D01*
Y192660D01*
G01X156390Y132040D02*
X156230Y132170D01*
X156040Y132250D01*
X155830D01*
X155590Y132120D01*
X155400Y131920D01*
X155270Y131670D01*
X155160Y131250D01*
X155130Y130870D01*
X155190Y130500D01*
X155270Y130250D01*
X155430Y130000D01*
X155610Y129830D01*
X155800Y129750D01*
X155990D01*
X156170Y129830D01*
X156330Y129960D01*
X156470Y130120D01*
G01X158000Y129750D02*
Y132250D01*
X157680Y131750D01*
G01Y129750D02*
X158320D01*
G01X159690Y130790D02*
X159880Y131080D01*
X160040Y131250D01*
X160250Y131330D01*
X160440Y131250D01*
X160570Y131080D01*
X160680Y130830D01*
X160710Y130540D01*
X160680Y130290D01*
X160570Y130040D01*
X160410Y129830D01*
X160230Y129750D01*
X160010Y129830D01*
X159830Y130080D01*
X159720Y130460D01*
X159690Y130870D01*
X159750Y131420D01*
X159830Y131710D01*
X159960Y132000D01*
X160150Y132210D01*
X160330Y132250D01*
X160520Y132170D01*
X160650Y131960D01*
G01X156390Y117240D02*
X156230Y117370D01*
X156040Y117450D01*
X155830D01*
X155590Y117320D01*
X155400Y117120D01*
X155270Y116870D01*
X155160Y116450D01*
X155130Y116070D01*
X155190Y115700D01*
X155270Y115450D01*
X155430Y115200D01*
X155610Y115030D01*
X155800Y114950D01*
X155990D01*
X156170Y115030D01*
X156330Y115160D01*
X156470Y115320D01*
G01X158000Y114950D02*
Y117450D01*
X157680Y116950D01*
G01Y114950D02*
X158320D01*
G01X160150D02*
X160200Y115490D01*
X160280Y115950D01*
X160390Y116370D01*
X160520Y116820D01*
X160730Y117450D01*
X159670D01*
G01X156370Y144950D02*
Y147450D01*
X157030D01*
X157250Y147320D01*
X157380Y147160D01*
X157430Y146820D01*
X157380Y146490D01*
X157220Y146280D01*
X157030Y146160D01*
X156370D01*
G01X157030D02*
X157430Y144950D01*
G01X159100D02*
Y147450D01*
X158780Y146950D01*
G01Y144950D02*
X159420D01*
G01X163490Y205290D02*
X163330Y205420D01*
X163140Y205500D01*
X162930D01*
X162690Y205370D01*
X162500Y205170D01*
X162370Y204920D01*
X162260Y204500D01*
X162230Y204120D01*
X162290Y203750D01*
X162370Y203500D01*
X162530Y203250D01*
X162710Y203080D01*
X162900Y203000D01*
X163090D01*
X163270Y203080D01*
X163430Y203210D01*
X163570Y203370D01*
G01X165100Y203000D02*
X165290Y203040D01*
X165500Y203170D01*
X165630Y203370D01*
X165690Y203670D01*
X165630Y203960D01*
X165470Y204210D01*
X165230Y204330D01*
X164970D01*
X164810Y204420D01*
X164670Y204620D01*
X164620Y204920D01*
X164700Y205210D01*
X164890Y205420D01*
X165100Y205500D01*
X165310Y205420D01*
X165500Y205210D01*
X165580Y204920D01*
X165530Y204620D01*
X165390Y204420D01*
X165230Y204330D01*
X164970D01*
X164730Y204210D01*
X164570Y203960D01*
X164510Y203670D01*
X164570Y203370D01*
X164700Y203170D01*
X164910Y203040D01*
X165100Y203000D01*
G01X163390Y210290D02*
X163230Y210420D01*
X163040Y210500D01*
X162830D01*
X162590Y210370D01*
X162400Y210170D01*
X162270Y209920D01*
X162160Y209500D01*
X162130Y209120D01*
X162190Y208750D01*
X162270Y208500D01*
X162430Y208250D01*
X162610Y208080D01*
X162800Y208000D01*
X162990D01*
X163170Y208080D01*
X163330Y208210D01*
X163470Y208370D01*
G01X165000Y208000D02*
Y210500D01*
X164680Y210000D01*
G01Y208000D02*
X165320D01*
G01X167200Y210500D02*
X166990Y210420D01*
X166830Y210210D01*
X166720Y209960D01*
X166640Y209620D01*
X166610Y209250D01*
X166640Y208870D01*
X166720Y208540D01*
X166830Y208290D01*
X166990Y208080D01*
X167200Y208000D01*
X167410Y208080D01*
X167570Y208290D01*
X167680Y208540D01*
X167760Y208870D01*
X167790Y209250D01*
X167760Y209620D01*
X167680Y209960D01*
X167570Y210210D01*
X167410Y210420D01*
X167200Y210500D01*
G01X167490Y197290D02*
X167330Y197420D01*
X167140Y197500D01*
X166930D01*
X166690Y197370D01*
X166500Y197170D01*
X166370Y196920D01*
X166260Y196500D01*
X166230Y196120D01*
X166290Y195750D01*
X166370Y195500D01*
X166530Y195250D01*
X166710Y195080D01*
X166900Y195000D01*
X167090D01*
X167270Y195080D01*
X167430Y195210D01*
X167570Y195370D01*
G01X169050Y195000D02*
X169100Y195540D01*
X169180Y196000D01*
X169290Y196420D01*
X169420Y196870D01*
X169630Y197500D01*
X168570D01*
G01X167490Y217290D02*
X167330Y217420D01*
X167140Y217500D01*
X166930D01*
X166690Y217370D01*
X166500Y217170D01*
X166370Y216920D01*
X166260Y216500D01*
X166230Y216120D01*
X166290Y215750D01*
X166370Y215500D01*
X166530Y215250D01*
X166710Y215080D01*
X166900Y215000D01*
X167090D01*
X167270Y215080D01*
X167430Y215210D01*
X167570Y215370D01*
G01X168650Y215290D02*
X168830Y215080D01*
X169050Y215000D01*
X169260Y215080D01*
X169450Y215330D01*
X169580Y215710D01*
X169630Y216080D01*
Y216540D01*
X169580Y216920D01*
X169450Y217250D01*
X169290Y217420D01*
X169100Y217500D01*
X168890Y217420D01*
X168730Y217250D01*
X168620Y217000D01*
X168570Y216670D01*
X168620Y216380D01*
X168750Y216080D01*
X168910Y215920D01*
X169100Y215870D01*
X169310Y215960D01*
X169470Y216170D01*
X169630Y216540D01*
G01X197340Y217000D02*
Y219500D01*
G01X198460D02*
Y217000D01*
G01Y218250D02*
X197340D01*
G01X200100Y217000D02*
Y219500D01*
X199780Y219000D01*
G01Y217000D02*
X200420D01*
G54D11*
G01X41390Y187680D02*
Y192320D01*
X50610D01*
Y187680D01*
X41390D01*
G01X74610Y118320D02*
Y113680D01*
X65390D01*
Y118320D01*
X74610D01*
G01Y123320D02*
Y118680D01*
X65390D01*
Y123320D01*
X74610D01*
G01X60610Y192320D02*
Y187680D01*
X51390D01*
Y192320D01*
X60610D01*
G01X108390Y152680D02*
Y157320D01*
X117610D01*
Y152680D01*
X108390D01*
G01X105320Y160390D02*
X100680D01*
Y169610D01*
X105320D01*
Y160390D01*
G01X108610Y211320D02*
Y206680D01*
X99390D01*
Y211320D01*
X108610D01*
G01Y206320D02*
Y201680D01*
X99390D01*
Y206320D01*
X108610D01*
G01X118680Y78610D02*
X123320D01*
Y69390D01*
X118680D01*
Y78610D01*
G01X113680D02*
X118320D01*
Y69390D01*
X113680D01*
Y78610D01*
G01X124680Y169610D02*
X129320D01*
Y160390D01*
X124680D01*
Y169610D01*
G01X134320Y160390D02*
X129680D01*
Y169610D01*
X134320D01*
Y160390D01*
G01X153390Y109680D02*
Y114320D01*
X162610D01*
Y109680D01*
X153390D01*
G01Y124480D02*
Y129120D01*
X162610D01*
Y124480D01*
X153390D01*
G01Y139680D02*
Y144320D01*
X162610D01*
Y139680D01*
X153390D01*
G01X161610Y206320D02*
Y201680D01*
X152390D01*
Y206320D01*
X161610D01*
G01Y211320D02*
Y206680D01*
X152390D01*
Y211320D01*
X161610D01*
G54D12*
G01X23060Y61000D02*
Y44860D01*
X5350D01*
Y153910D01*
X23060D01*
Y137770D01*
G01X16000Y223000D02*
Y193000D01*
X6000D01*
Y223000D01*
X16000D01*
G01X84000Y22060D02*
X100140D01*
Y4350D01*
X26520D01*
Y22060D01*
X42660D01*
G01X27000Y59820D02*
X25030Y57850D01*
X28970D01*
X27000Y59820D01*
G01X36350Y192560D02*
X29650D01*
G01X36350Y187440D02*
X29650D01*
G01X22190Y197190D02*
Y220810D01*
G01X34790Y192560D02*
Y187440D01*
G01X35580Y192560D02*
Y187440D01*
G01X36370Y192560D02*
Y187440D01*
G01X59710Y200230D02*
X48290D01*
Y203770D01*
X59710D01*
Y200230D01*
G01X45810Y197190D02*
Y220810D01*
G01X60700Y218800D02*
X47300D01*
Y211300D01*
X60700D01*
Y218800D01*
G01X86100Y219800D02*
Y194200D01*
X73900D01*
Y219800D01*
X86100D01*
G01X85570Y26000D02*
X87150Y24430D01*
Y27570D01*
X85570Y26000D01*
G01X87430Y144570D02*
X140570D01*
Y91430D01*
X87430D01*
Y144570D01*
G01X99300Y193200D02*
X112700D01*
Y200700D01*
X99300D01*
Y193200D01*
G01Y212200D02*
X112700D01*
Y219700D01*
X99300D01*
Y212200D01*
G01X139100Y219800D02*
Y194200D01*
X126900D01*
Y219800D01*
X139100D01*
G01X152300Y193200D02*
X165700D01*
Y200700D01*
X152300D01*
Y193200D01*
G01Y212200D02*
X165700D01*
Y219700D01*
X152300D01*
Y212200D01*
G01X189960Y216000D02*
X210040D01*
Y16000D01*
X189960D01*
Y216000D01*
G54D13*
G01X11490Y225260D02*
G03I-490J4D01*
G01X47600Y195900D02*
G03I-490J-2D01*
G01X95650Y194010D02*
G03I-493J-2D01*
G01X123700Y173100D02*
X106400D01*
Y158900D01*
X123700D01*
Y173100D01*
G01X120510Y174870D02*
G03I-489J1D01*
G01X141270Y150090D02*
G03I-498J-3D01*
G01X148640Y194010D02*
G03I-483J-2D01*
G01X195490Y218260D02*
G03I-490J4D01*
G54D14*
G01X83150Y198140D02*
G03I-985J2D01*
G01X138010Y141030D02*
G03I-979J1D01*
G01X136150Y198140D02*
G03I-985J2D01*
M02*
