G04 ================== begin FILE IDENTIFICATION RECORD ==================*
G04 Layout Name:  E:/material/glass/workspace/hardware/6.glass v1.1/core-pcb/core.brd*
G04 Film Name:    DILL*
G04 File Format:  Gerber RS274X*
G04 File Origin:  Cadence Allegro 16.6-2015-S065*
G04 Origin Date:  Fri Dec 16 12:07:49 2016*
G04 *
G04 Layer:  MANUFACTURING/NCLEGEND-1-6*
G04 Layer:  BOARD GEOMETRY/OUTLINE*
G04 *
G04 Offset:    (0.000 0.000)*
G04 Mirror:    No*
G04 Mode:      Positive*
G04 Rotation:  0*
G04 FullContactRelief:  No*
G04 UndefLineWidth:     1.000*
G04 ================== end FILE IDENTIFICATION RECORD ====================*
%FSLAX25Y25*MOIN*%
%IR0*IPPOS*OFA0.00000B0.00000*MIA0B0*SFA1.00000B1.00000*%
%AMMACRO14*
1,1,.001,.027559,0.0*
20,1,.001,.027559,0.0,.01378,.023867,0.0*
1,1,.001,.01378,.023867*
20,1,.001,.01378,.023867,-.013779,.023867,0.0*
1,1,.001,-.013779,.023867*
20,1,.001,-.013779,.023867,-.027559,0.0,0.0*
1,1,.001,-.027559,0.0*
20,1,.001,-.027559,0.0,-.01378,-.023867,0.0*
1,1,.001,-.01378,-.023867*
20,1,.001,-.01378,-.023867,.013779,-.023867,0.0*
1,1,.001,.013779,-.023867*
20,1,.001,.013779,-.023867,.027559,0.0,0.0*
1,1,.001,.027559,0.0*
1,1,.001,-.011483,-.013779*
20,1,.001,-.011483,-.013779,0.0,.01378,0.0*
1,1,.001,0.0,.01378*
20,1,.001,0.0,.01378,.011484,-.013779,0.0*
1,1,.001,.011484,-.013779*
1,1,.001,.007349,-.004134*
20,1,.001,.007349,-.004134,-.007349,-.004134,0.0*
1,1,.001,-.007349,-.004134*
%
%ADD14MACRO14*%
%AMMACRO12*
1,1,.001,.02067,0.0*
20,1,.001,.02067,0.0,.010335,.0179,0.0*
1,1,.001,.010335,.0179*
20,1,.001,.010335,.0179,-.010335,.0179,0.0*
1,1,.001,-.010335,.0179*
20,1,.001,-.010335,.0179,-.02067,0.0,0.0*
1,1,.001,-.02067,0.0*
20,1,.001,-.02067,0.0,-.010335,-.0179,0.0*
1,1,.001,-.010335,-.0179*
20,1,.001,-.010335,-.0179,.010335,-.0179,0.0*
1,1,.001,.010335,-.0179*
20,1,.001,.010335,-.0179,.02067,0.0,0.0*
1,1,.001,.02067,0.0*
1,1,.001,-.008612,-.010334*
20,1,.001,-.008612,-.010334,0.0,.010335,0.0*
1,1,.001,0.0,.010335*
20,1,.001,0.0,.010335,.008613,-.010334,0.0*
1,1,.001,.008613,-.010334*
1,1,.001,.005512,-.0031*
20,1,.001,.005512,-.0031,-.005512,-.0031,0.0*
1,1,.001,-.005512,-.0031*
%
%ADD12MACRO12*%
%AMMACRO11*
1,1,.001,.019685,0.0*
20,1,.001,.019685,0.0,.009843,.017048,0.0*
1,1,.001,.009843,.017048*
20,1,.001,.009843,.017048,-.009842,.017048,0.0*
1,1,.001,-.009842,.017048*
20,1,.001,-.009842,.017048,-.019685,0.0,0.0*
1,1,.001,-.019685,0.0*
20,1,.001,-.019685,0.0,-.009843,-.017048,0.0*
1,1,.001,-.009843,-.017048*
20,1,.001,-.009843,-.017048,.009842,-.017048,0.0*
1,1,.001,.009842,-.017048*
20,1,.001,.009842,-.017048,.019685,0.0,0.0*
1,1,.001,.019685,0.0*
1,1,.001,-.008202,-.009842*
20,1,.001,-.008202,-.009842,0.0,.009843,0.0*
1,1,.001,0.0,.009843*
20,1,.001,0.0,.009843,.008203,-.009842,0.0*
1,1,.001,.008203,-.009842*
1,1,.001,.00525,-.002953*
20,1,.001,.00525,-.002953,-.005249,-.002953,0.0*
1,1,.001,-.005249,-.002953*
%
%ADD11MACRO11*%
%AMMACRO13*
1,1,.001,.009842,0.0*
20,1,.001,.009842,0.0,.004921,.008524,0.0*
1,1,.001,.004921,.008524*
20,1,.001,.004921,.008524,-.004921,.008524,0.0*
1,1,.001,-.004921,.008524*
20,1,.001,-.004921,.008524,-.009842,0.0,0.0*
1,1,.001,-.009842,0.0*
20,1,.001,-.009842,0.0,-.004921,-.008524,0.0*
1,1,.001,-.004921,-.008524*
20,1,.001,-.004921,-.008524,.004921,-.008524,0.0*
1,1,.001,.004921,-.008524*
20,1,.001,.004921,-.008524,.009842,0.0,0.0*
1,1,.001,.009842,0.0*
1,1,.001,-.004101,-.004921*
20,1,.001,-.004101,-.004921,0.0,.004921,0.0*
1,1,.001,0.0,.004921*
20,1,.001,0.0,.004921,.004101,-.004921,0.0*
1,1,.001,.004101,-.004921*
1,1,.001,.002624,-.001476*
20,1,.001,.002624,-.001476,-.002625,-.001476,0.0*
1,1,.001,-.002625,-.001476*
%
%ADD13MACRO13*%
%AMMACRO10*
1,1,.001,.004,0.0*
20,1,.001,.004,0.0,.002,.003464,0.0*
1,1,.001,.002,.003464*
20,1,.001,.002,.003464,-.002,.003464,0.0*
1,1,.001,-.002,.003464*
20,1,.001,-.002,.003464,-.004,0.0,0.0*
1,1,.001,-.004,0.0*
20,1,.001,-.004,0.0,-.002,-.003464,0.0*
1,1,.001,-.002,-.003464*
20,1,.001,-.002,-.003464,.002,-.003464,0.0*
1,1,.001,.002,-.003464*
20,1,.001,.002,-.003464,.004,0.0,0.0*
1,1,.001,.004,0.0*
1,1,.001,-.001667,-.002*
20,1,.001,-.001667,-.002,0.0,.002,0.0*
1,1,.001,0.0,.002*
20,1,.001,0.0,.002,.001667,-.002,0.0*
1,1,.001,.001667,-.002*
1,1,.001,.001067,-.0006*
20,1,.001,.001067,-.0006,-.001067,-.0006,0.0*
1,1,.001,-.001067,-.0006*
%
%ADD10MACRO10*%
%ADD15C,.001*%
G75*
%LPD*%
G75*
G54D10*
X8186Y27866D03*
X10400Y30494D03*
X8883Y29525D03*
X10400Y47732D03*
X10499Y49701D03*
X3762Y58362D03*
X19400Y3638D03*
X15700Y17900D03*
X14600Y19800D03*
X16100Y20800D03*
X12000Y16500D03*
X14300Y30000D03*
X16500Y25000D03*
X14300Y28200D03*
X15000Y26400D03*
X13200Y26700D03*
X14900Y37700D03*
X15000Y39800D03*
Y34000D03*
Y35800D03*
X12400Y51800D03*
X28300Y14200D03*
X28200Y17800D03*
X28000Y19800D03*
Y21700D03*
X28270Y29150D03*
X28207Y31140D03*
X27968Y24503D03*
X27900Y36100D03*
X33761Y5539D03*
X33146Y2846D03*
X28600Y8300D03*
X32350Y8600D03*
X36553Y18171D03*
X36300Y49500D03*
X34922Y50658D03*
X40000Y800D03*
X43500Y900D03*
X44600Y8600D03*
X39400Y13000D03*
X39300Y15100D03*
X42473Y19447D03*
X44977Y22280D03*
X38705Y18200D03*
X38279Y21005D03*
X44787Y19438D03*
X44818Y24519D03*
X44900Y27000D03*
X42406Y29970D03*
X42300Y27100D03*
X45000Y29900D03*
X39012Y31191D03*
X39277Y38677D03*
X44914Y39944D03*
X39241Y33426D03*
X42355Y39955D03*
Y34826D03*
Y37385D03*
X44914Y34826D03*
Y37385D03*
X39300Y36226D03*
X39200Y41400D03*
X39000Y44500D03*
X38900Y46400D03*
X43800Y51600D03*
X44000Y54500D03*
X47000Y800D03*
X50500D03*
X54000D03*
X50953Y10803D03*
X53858Y10808D03*
X46700Y8750D03*
X48500Y9300D03*
X50076Y19725D03*
X52587Y16937D03*
X49959Y16819D03*
X52591Y19496D03*
X47563Y22252D03*
X47587Y19443D03*
X47473Y29733D03*
X47600Y27200D03*
X52591Y24615D03*
Y27174D03*
Y29733D03*
X47600Y24600D03*
X52591Y37385D03*
Y34826D03*
X47473Y42504D03*
X50032D03*
X49882Y45045D03*
X52591Y42504D03*
X46192Y54412D03*
X53705Y51868D03*
X52100Y51000D03*
X48900Y52163D03*
X47500Y50900D03*
X57200Y1700D03*
X57110Y9810D03*
X55258Y9600D03*
X55150Y19496D03*
X55387Y16988D03*
X57709Y19496D03*
X62803D03*
X57800Y22600D03*
X57709Y16937D03*
X62803D03*
X55150Y27174D03*
Y24615D03*
X62803Y27174D03*
X57709D03*
Y24615D03*
X62803D03*
X55150Y29733D03*
X62803D03*
X57709D03*
X55150Y34826D03*
Y37385D03*
X57709Y34826D03*
Y37385D03*
X62803Y34826D03*
Y37385D03*
X57700Y39900D03*
X55150Y42504D03*
X57709D03*
X62803D03*
X55150Y45063D03*
X57709D03*
X62803D03*
X55500Y52000D03*
X57000Y53000D03*
X67921Y16937D03*
X65362D03*
Y19496D03*
Y24615D03*
Y27174D03*
Y29733D03*
X70480D03*
Y27174D03*
X67654Y29800D03*
X65362Y34826D03*
X70480D03*
Y37385D03*
X65362D03*
X70480Y45063D03*
Y47622D03*
X78000Y2500D03*
X73039Y24615D03*
X75552Y27220D03*
X73039Y27174D03*
Y29733D03*
Y37385D03*
X79800Y36000D03*
X73039Y34826D03*
X75500Y50100D03*
X77922Y54378D03*
Y50126D03*
X75500Y54100D03*
X83788Y4994D03*
X85807Y3053D03*
X80431Y4148D03*
X82028Y1681D03*
X82600Y14900D03*
X82200Y12200D03*
X83200Y16700D03*
X84421Y18023D03*
X84500Y20000D03*
X87769Y27392D03*
X83980Y30106D03*
X82569Y28579D03*
X87600Y25592D03*
X81010Y37890D03*
X82700Y35600D03*
X81350Y39658D03*
X82573Y40978D03*
X86300Y35500D03*
X90545Y2320D03*
X89518Y3799D03*
X96846Y900D03*
X90934Y13367D03*
X89000Y11113D03*
X95378Y14075D03*
Y10926D03*
X95369Y20100D03*
X96600Y24582D03*
X93542Y26085D03*
X95261Y32659D03*
X94760Y24740D03*
X97200Y28182D03*
X93300Y27997D03*
X95378Y35925D03*
X95252Y38948D03*
X95300Y43700D03*
X91800Y44700D03*
X93450Y43850D03*
X91795Y58500D03*
X89700D03*
X103921Y6400D03*
X98295Y6515D03*
X104346Y900D03*
X101677Y14075D03*
X104827D03*
X98527Y11000D03*
Y14075D03*
X98550Y24050D03*
X100390Y23910D03*
X98933Y17081D03*
X98527Y20177D03*
X104827D03*
X101700D03*
X103100Y26700D03*
X104900Y29823D03*
X98527D03*
X101677D03*
X98527Y35925D03*
X103300Y39800D03*
X98527Y38800D03*
X101846Y35747D03*
X98724Y43447D03*
X101000Y43300D03*
X104700Y46700D03*
X99100Y58400D03*
X101100Y58800D03*
X107654Y900D03*
X114275Y14075D03*
X113900Y7000D03*
X107976Y14075D03*
X111097Y11216D03*
X107976Y11000D03*
X111126Y14075D03*
Y20177D03*
X107800D03*
X114275D03*
X107976Y29823D03*
X114275D03*
X111126D03*
X108250Y36050D03*
X122264Y6996D03*
X117425Y14075D03*
X118300Y7000D03*
X120574Y14075D03*
Y10926D03*
X117425Y20177D03*
X120574D03*
Y29823D03*
X120500Y26582D03*
X117425Y29823D03*
X122000Y32500D03*
X117425Y35925D03*
X120326Y35882D03*
X119100Y40300D03*
X121974Y34800D03*
X115949Y42000D03*
X117800Y58400D03*
X120500Y55900D03*
X123802Y6059D03*
X129500Y1000D03*
X127500Y6795D03*
X125600Y6900D03*
X131800Y1000D03*
X131636Y22020D03*
Y24020D03*
X127700Y32200D03*
X131636Y26020D03*
X128723Y33700D03*
X131200Y36100D03*
X126310Y39290D03*
X126856Y41078D03*
X126100Y37100D03*
X126847Y48547D03*
X125700Y46800D03*
X128330Y45472D03*
X129463Y46874D03*
X131300Y53500D03*
X131400Y58000D03*
X133030Y5870D03*
X140200Y1161D03*
X134600Y7500D03*
X132600Y9498D03*
X132300Y13600D03*
X139273Y20192D03*
X133336Y22020D03*
Y24020D03*
Y26020D03*
X140500Y46950D03*
X135700Y52500D03*
X133950Y57850D03*
X136850Y58950D03*
X146500Y21346D03*
X147470Y28180D03*
X144645Y28500D03*
X141900Y31000D03*
X140700Y40400D03*
X146713Y40484D03*
Y37985D03*
Y35484D03*
Y45485D03*
Y42984D03*
X140680Y42500D03*
Y44437D03*
X143400Y52300D03*
X152374Y10294D03*
X154400Y9600D03*
X155600Y7478D03*
X156500Y9100D03*
X149600Y16500D03*
X155362Y28038D03*
X153000Y27500D03*
X150638D03*
X156713Y40484D03*
X154213D03*
X151713D03*
X149213D03*
X156713Y37985D03*
X154213D03*
X151713D03*
X149213D03*
X156713Y35484D03*
X154213D03*
X151713D03*
X149213D03*
X156713Y45485D03*
X154213D03*
X151713D03*
X149213D03*
X156713Y42984D03*
X154213D03*
X151713D03*
X149213D03*
X153600Y52820D03*
X155400Y52908D03*
X159000Y9100D03*
X166197Y14163D03*
X165923Y30077D03*
X158512Y27700D03*
X161100Y27900D03*
X166200Y27800D03*
X164200Y31100D03*
X165500Y41313D03*
X159213Y40484D03*
Y37985D03*
Y35484D03*
X165701Y38100D03*
X165823Y49500D03*
X159213Y45485D03*
Y42984D03*
X165500Y46500D03*
X168600Y10100D03*
Y7534D03*
X173370Y8300D03*
X170400Y16000D03*
X167500Y15600D03*
X174900Y19200D03*
X167900Y34400D03*
X166600Y39700D03*
X171624Y52624D03*
X174600Y59200D03*
X170900Y59600D03*
X181446Y12846D03*
X178500Y8000D03*
X177600Y23900D03*
X176100Y26000D03*
X175700Y32500D03*
X177241Y29941D03*
X175200Y29800D03*
X176922Y40563D03*
X177506Y37618D03*
X177300Y46500D03*
X179100D03*
X181300Y43800D03*
X176000Y54700D03*
X187046Y12846D03*
X192054D03*
X191800Y8000D03*
X183823Y18400D03*
X186854Y16154D03*
X191900D03*
X188941Y18641D03*
X192187Y30238D03*
X190187D03*
X188187D03*
X186187D03*
X192187Y28238D03*
X190187D03*
X188187D03*
X186187D03*
X185161Y50839D03*
X189700Y51800D03*
X187720Y51200D03*
X189400Y56700D03*
X197500Y16800D03*
X196399Y32303D03*
X194399D03*
X196399Y30303D03*
X194399D03*
X196399Y28303D03*
X194399D03*
X196399Y36303D03*
X194399D03*
X196399Y34303D03*
X194399D03*
X199177Y46494D03*
X196618D03*
X194200Y52200D03*
X192839Y50761D03*
X195000Y56200D03*
X194900Y59100D03*
X208400Y19800D03*
X205459Y29941D03*
X217100Y2700D03*
X217300Y12900D03*
X217600Y20700D03*
X211300Y19900D03*
X217100Y24700D03*
Y31900D03*
X217000Y37200D03*
X217400Y41500D03*
X219600Y2800D03*
X226800Y14600D03*
X225300Y20700D03*
X220000Y26700D03*
Y29700D03*
X219900Y37300D03*
Y34300D03*
X224700Y45300D03*
X218300Y53800D03*
X218400Y57600D03*
X226700Y52500D03*
X231900Y14200D03*
X235244Y50344D03*
X240500Y14300D03*
X236000Y14400D03*
X242470Y31900D03*
X240470D03*
X238470D03*
X242470Y29900D03*
X240470D03*
X238470D03*
X242470Y33900D03*
X240470D03*
X238470D03*
X239516Y42600D03*
X241484Y42500D03*
X240756Y50556D03*
X242700Y52400D03*
X249400Y13600D03*
X245000Y14200D03*
X248500Y21900D03*
X252000Y39200D03*
X247200Y46600D03*
X251390Y52710D03*
X247059Y52959D03*
X257400Y12900D03*
X257900Y21200D03*
X260707Y28807D03*
X257944Y30744D03*
X254100Y41200D03*
X260300Y35500D03*
X265200Y12000D03*
X265400Y17200D03*
X265700Y21000D03*
X265000Y39500D03*
X262100Y52200D03*
X276900Y11700D03*
X274300Y16200D03*
X270200Y32300D03*
X272400Y45154D03*
X273000Y52300D03*
X277374Y52226D03*
X285700Y11500D03*
X279700Y23000D03*
X284200Y18500D03*
X285100Y25800D03*
X283900Y34100D03*
X282600Y48400D03*
X287100Y48700D03*
X284800Y41500D03*
X291500Y12000D03*
X290200Y21900D03*
X290500Y31900D03*
X291200Y38100D03*
X290100Y44500D03*
X290366Y52134D03*
X374150Y109500D03*
G54D11*
X30000Y5000D03*
X316500Y59000D03*
X374150Y34500D03*
G54D12*
X141000Y16200D03*
X176800Y14800D03*
X374150Y84500D03*
G54D13*
X151126Y12087D03*
X166874D03*
X374150Y59500D03*
G54D14*
X208500Y8055D03*
Y35614D03*
X374150Y9500D03*
G54D15*
G01X0Y0D02*
Y62000D01*
X320000D01*
Y0D01*
X0D01*
G01X329200Y-3000D02*
Y197000D01*
X812800D01*
Y-3000D01*
X329200D01*
G01Y22000D02*
X812800D01*
G01X329200Y47000D02*
X812800D01*
G01X329200Y72000D02*
X812800D01*
G01X329200Y97000D02*
X812800D01*
G01X329200Y122000D02*
X812800D01*
G01X329200Y147000D02*
X812800D01*
G01X329200Y172000D02*
X812800D01*
G01X340205Y128250D02*
Y140750D01*
X346095D01*
G01X343925Y134708D02*
X340205D01*
G01X353690Y140750D02*
X357410D01*
G01X355550D02*
Y128250D01*
G01X353690D02*
X357410D01*
G01X368880Y134500D02*
X371980D01*
Y130750D01*
X371050Y129500D01*
X369965Y128667D01*
X368415Y128250D01*
X366865Y128667D01*
X365780Y129500D01*
X364850Y130750D01*
X364230Y132208D01*
X363920Y133875D01*
Y135333D01*
X364230Y136583D01*
X364850Y138042D01*
X365780Y139292D01*
X366710Y140125D01*
X367950Y140750D01*
X369035D01*
X370275Y140333D01*
X371205Y139500D01*
G01X376940Y140750D02*
Y131792D01*
X377560Y129916D01*
X378800Y128667D01*
X380350Y128250D01*
X381900Y128667D01*
X383140Y129916D01*
X383760Y131792D01*
Y140750D01*
G01X389650Y128250D02*
Y140750D01*
X393525D01*
X394765Y140125D01*
X395540Y139292D01*
X395850Y137625D01*
X395540Y135958D01*
X394610Y134917D01*
X393525Y134292D01*
X389650D01*
G01X393525D02*
X395850Y128250D01*
G01X408250D02*
X402050D01*
Y140750D01*
X408250D01*
G01X405770Y134708D02*
X402050D01*
G01X412590Y178250D02*
Y190750D01*
X415690D01*
X416930Y190125D01*
X417860Y189292D01*
X418635Y188042D01*
X419255Y186583D01*
X419410Y184500D01*
X419255Y182416D01*
X418635Y180958D01*
X417860Y179708D01*
X416930Y178875D01*
X415690Y178250D01*
X412590D01*
G01X425300D02*
Y190750D01*
X429175D01*
X430415Y190125D01*
X431190Y189292D01*
X431500Y187625D01*
X431190Y185958D01*
X430260Y184917D01*
X429175Y184292D01*
X425300D01*
G01X429175D02*
X431500Y178250D01*
G01X438940Y190750D02*
X442660D01*
G01X440800D02*
Y178250D01*
G01X438940D02*
X442660D01*
G01X450100Y190750D02*
Y178250D01*
X456300D01*
G01X462500Y190750D02*
Y178250D01*
X468700D01*
G01X493810Y189708D02*
X492880Y190333D01*
X491795Y190750D01*
X490555D01*
X489160Y190125D01*
X488075Y189083D01*
X487300Y187833D01*
X486680Y185750D01*
X486525Y183875D01*
X486835Y182000D01*
X487300Y180750D01*
X488230Y179500D01*
X489315Y178667D01*
X490400Y178250D01*
X491485D01*
X492570Y178667D01*
X493500Y179291D01*
X494275Y180125D01*
G01X499545Y178250D02*
Y190750D01*
G01X506055D02*
Y178250D01*
G01Y184500D02*
X499545D01*
G01X511325Y178250D02*
X515200Y190750D01*
X519075Y178250D01*
G01X517680Y182625D02*
X512720D01*
G01X524500Y178250D02*
Y190750D01*
X528375D01*
X529615Y190125D01*
X530390Y189292D01*
X530700Y187625D01*
X530390Y185958D01*
X529460Y184917D01*
X528375Y184292D01*
X524500D01*
G01X528375D02*
X530700Y178250D01*
G01X540000Y190750D02*
Y178250D01*
G01X536435Y190750D02*
X543565D01*
G01X552400Y177833D02*
X552090Y178042D01*
Y178458D01*
X552400Y178667D01*
X552710Y178458D01*
Y178042D01*
X552400Y177833D01*
G01Y183458D02*
X552090Y183667D01*
Y184083D01*
X552400Y184292D01*
X552710Y184083D01*
Y183667D01*
X552400Y183458D01*
G01X577200Y190750D02*
Y178250D01*
G01X573635Y190750D02*
X580765D01*
G01X589600Y178250D02*
X588360Y178458D01*
X587275Y179291D01*
X586345Y180542D01*
X585725Y182000D01*
X585415Y183667D01*
Y185333D01*
X585725Y187000D01*
X586345Y188458D01*
X587275Y189708D01*
X588360Y190542D01*
X589600Y190750D01*
X590840Y190542D01*
X591925Y189708D01*
X592855Y188458D01*
X593475Y187000D01*
X593785Y185333D01*
Y183667D01*
X593475Y182000D01*
X592855Y180542D01*
X591925Y179291D01*
X590840Y178458D01*
X589600Y178250D01*
G01X598900D02*
Y190750D01*
X602620D01*
X603860Y190125D01*
X604790Y188667D01*
X605100Y187000D01*
X604790Y185333D01*
X604015Y184083D01*
X602620Y183458D01*
X598900D01*
G01X626800Y190750D02*
Y178250D01*
G01X624630Y186583D02*
X628970D01*
G01X639200Y178250D02*
X638270Y178458D01*
X637340Y179291D01*
X636720Y180750D01*
X636410Y182416D01*
X636720Y184083D01*
X637340Y185542D01*
X638270Y186375D01*
X639200Y186583D01*
X640130Y186375D01*
X641060Y185542D01*
X641680Y184083D01*
X641835Y182416D01*
X641680Y180750D01*
X641060Y179291D01*
X640130Y178458D01*
X639200Y178250D01*
G01X665240Y184917D02*
X665860Y185542D01*
X666325Y186583D01*
X666635Y188042D01*
X666325Y189292D01*
X665705Y190125D01*
X664620Y190750D01*
X660435D01*
Y178250D01*
X665550D01*
X666635Y179083D01*
X667255Y180333D01*
X667565Y181792D01*
X667255Y183250D01*
X666325Y184500D01*
X665240Y184917D01*
X660435D01*
G01X676400Y178250D02*
X675160Y178458D01*
X674075Y179291D01*
X673145Y180542D01*
X672525Y182000D01*
X672215Y183667D01*
Y185333D01*
X672525Y187000D01*
X673145Y188458D01*
X674075Y189708D01*
X675160Y190542D01*
X676400Y190750D01*
X677640Y190542D01*
X678725Y189708D01*
X679655Y188458D01*
X680275Y187000D01*
X680585Y185333D01*
Y183667D01*
X680275Y182000D01*
X679655Y180542D01*
X678725Y179291D01*
X677640Y178458D01*
X676400Y178250D01*
G01X688800Y190750D02*
Y178250D01*
G01X685235Y190750D02*
X692365D01*
G01X701200D02*
Y178250D01*
G01X697635Y190750D02*
X704765D01*
G01X713600Y178250D02*
X712360Y178458D01*
X711275Y179291D01*
X710345Y180542D01*
X709725Y182000D01*
X709415Y183667D01*
Y185333D01*
X709725Y187000D01*
X710345Y188458D01*
X711275Y189708D01*
X712360Y190542D01*
X713600Y190750D01*
X714840Y190542D01*
X715925Y189708D01*
X716855Y188458D01*
X717475Y187000D01*
X717785Y185333D01*
Y183667D01*
X717475Y182000D01*
X716855Y180542D01*
X715925Y179291D01*
X714840Y178458D01*
X713600Y178250D01*
G01X721970D02*
Y190750D01*
X726000Y180333D01*
X730030Y190750D01*
Y178250D01*
G01X419100Y147000D02*
Y-3000D01*
G01X443125Y153250D02*
X447000Y165750D01*
X450875Y153250D01*
G01X449480Y157625D02*
X444520D01*
G01X456300Y165750D02*
Y153250D01*
X462500D01*
G01X468700Y165750D02*
Y153250D01*
X474900D01*
G01X493190Y165750D02*
Y156792D01*
X493810Y154916D01*
X495050Y153667D01*
X496600Y153250D01*
X498150Y153667D01*
X499390Y154916D01*
X500010Y156792D01*
Y165750D01*
G01X505435Y153250D02*
Y165750D01*
X512565Y153250D01*
Y165750D01*
G01X519540D02*
X523260D01*
G01X521400D02*
Y153250D01*
G01X519540D02*
X523260D01*
G01X533800Y165750D02*
Y153250D01*
G01X530235Y165750D02*
X537365D01*
G01X542945Y154916D02*
X544185Y153875D01*
X545580Y153250D01*
X546820D01*
X548060Y153875D01*
X548990Y154916D01*
X549455Y156375D01*
X549145Y157833D01*
X548370Y159083D01*
X546975Y159917D01*
X545115Y160333D01*
X544030Y161166D01*
X543565Y162625D01*
X543875Y164083D01*
X544650Y165125D01*
X545735Y165750D01*
X546820D01*
X547905Y165333D01*
X548835Y164292D01*
G01X567125Y153250D02*
X571000Y165750D01*
X574875Y153250D01*
G01X573480Y157625D02*
X568520D01*
G01X580300Y153250D02*
Y165750D01*
X584175D01*
X585415Y165125D01*
X586190Y164292D01*
X586500Y162625D01*
X586190Y160958D01*
X585260Y159917D01*
X584175Y159292D01*
X580300D01*
G01X584175D02*
X586500Y153250D01*
G01X598900D02*
X592700D01*
Y165750D01*
X598900D01*
G01X596420Y159708D02*
X592700D01*
G01X618740Y165750D02*
X622460D01*
G01X620600D02*
Y153250D01*
G01X618740D02*
X622460D01*
G01X629435D02*
Y165750D01*
X636565Y153250D01*
Y165750D01*
G01X653770Y153250D02*
Y165750D01*
X657800Y155333D01*
X661830Y165750D01*
Y153250D01*
G01X668340Y165750D02*
X672060D01*
G01X670200D02*
Y153250D01*
G01X668340D02*
X672060D01*
G01X679500Y165750D02*
Y153250D01*
X685700D01*
G01X691745Y154916D02*
X692985Y153875D01*
X694380Y153250D01*
X695620D01*
X696860Y153875D01*
X697790Y154916D01*
X698255Y156375D01*
X697945Y157833D01*
X697170Y159083D01*
X695775Y159917D01*
X693915Y160333D01*
X692830Y161166D01*
X692365Y162625D01*
X692675Y164083D01*
X693450Y165125D01*
X694535Y165750D01*
X695620D01*
X696705Y165333D01*
X697635Y164292D01*
G01X479240Y5125D02*
X480170Y4083D01*
X481255Y3458D01*
X482650Y3250D01*
X484045Y3667D01*
X485130Y4500D01*
X485905Y5958D01*
X486060Y7625D01*
X485750Y9292D01*
X484975Y10333D01*
X483890Y11167D01*
X482805Y11375D01*
X481720Y11167D01*
X480325Y10333D01*
X480790Y15750D01*
X484975D01*
G01X491640Y5125D02*
X492570Y4083D01*
X493655Y3458D01*
X495050Y3250D01*
X496445Y3667D01*
X497530Y4500D01*
X498305Y5958D01*
X498460Y7625D01*
X498150Y9292D01*
X497375Y10333D01*
X496290Y11167D01*
X495205Y11375D01*
X494120Y11167D01*
X492725Y10333D01*
X493190Y15750D01*
X497375D01*
G01X507450Y2833D02*
X507140Y3042D01*
Y3458D01*
X507450Y3667D01*
X507760Y3458D01*
Y3042D01*
X507450Y2833D01*
G01X519850Y3250D02*
Y15750D01*
X517990Y13250D01*
G01Y3250D02*
X521710D01*
G01X532250D02*
Y15750D01*
X530390Y13250D01*
G01Y3250D02*
X534110D01*
G01X544650D02*
X545735Y3458D01*
X546975Y4083D01*
X547750Y5125D01*
X548060Y6583D01*
X547750Y8041D01*
X546820Y9292D01*
X545425Y9917D01*
X543875D01*
X542945Y10333D01*
X542170Y11375D01*
X541860Y12833D01*
X542325Y14292D01*
X543410Y15333D01*
X544650Y15750D01*
X545890Y15333D01*
X546975Y14292D01*
X547440Y12833D01*
X547130Y11375D01*
X546355Y10333D01*
X545425Y9917D01*
X543875D01*
X542480Y9292D01*
X541550Y8041D01*
X541240Y6583D01*
X541550Y5125D01*
X542325Y4083D01*
X543565Y3458D01*
X544650Y3250D01*
G01X485440Y30750D02*
X486370Y29291D01*
X487610Y28458D01*
X489005Y28250D01*
X490245Y28458D01*
X491485Y29500D01*
X492260Y30750D01*
X492415Y32000D01*
X492105Y33458D01*
X491020Y34500D01*
X489935Y34917D01*
X488540D01*
G01X489935D02*
X490865Y35542D01*
X491640Y36583D01*
X491950Y37833D01*
X491640Y39083D01*
X490865Y40125D01*
X489470Y40750D01*
X488075Y40542D01*
X486680Y39708D01*
G01X498615Y29708D02*
X499700Y28667D01*
X500940Y28250D01*
X502180Y28667D01*
X503265Y29916D01*
X504040Y31792D01*
X504350Y33667D01*
Y35958D01*
X504040Y37833D01*
X503265Y39500D01*
X502335Y40333D01*
X501250Y40750D01*
X500010Y40333D01*
X499080Y39500D01*
X498460Y38250D01*
X498150Y36583D01*
X498460Y35125D01*
X499235Y33667D01*
X500165Y32833D01*
X501250Y32625D01*
X502490Y33041D01*
X503420Y34083D01*
X504350Y35958D01*
G01X513650Y27833D02*
X513340Y28042D01*
Y28458D01*
X513650Y28667D01*
X513960Y28458D01*
Y28042D01*
X513650Y27833D01*
G01X522640Y30750D02*
X523570Y29291D01*
X524810Y28458D01*
X526205Y28250D01*
X527445Y28458D01*
X528685Y29500D01*
X529460Y30750D01*
X529615Y32000D01*
X529305Y33458D01*
X528220Y34500D01*
X527135Y34917D01*
X525740D01*
G01X527135D02*
X528065Y35542D01*
X528840Y36583D01*
X529150Y37833D01*
X528840Y39083D01*
X528065Y40125D01*
X526670Y40750D01*
X525275Y40542D01*
X523880Y39708D01*
G01X538140Y28250D02*
X538450Y30958D01*
X538915Y33250D01*
X539535Y35333D01*
X540310Y37625D01*
X541550Y40750D01*
X535350D01*
G01X482650Y53250D02*
Y65750D01*
X480790Y63250D01*
G01Y53250D02*
X484510D01*
G01X492415Y54708D02*
X493500Y53667D01*
X494740Y53250D01*
X495980Y53667D01*
X497065Y54916D01*
X497840Y56792D01*
X498150Y58667D01*
Y60958D01*
X497840Y62833D01*
X497065Y64500D01*
X496135Y65333D01*
X495050Y65750D01*
X493810Y65333D01*
X492880Y64500D01*
X492260Y63250D01*
X491950Y61583D01*
X492260Y60125D01*
X493035Y58667D01*
X493965Y57833D01*
X495050Y57625D01*
X496290Y58041D01*
X497220Y59083D01*
X498150Y60958D01*
G01X507450Y52833D02*
X507140Y53042D01*
Y53458D01*
X507450Y53667D01*
X507760Y53458D01*
Y53042D01*
X507450Y52833D01*
G01X516905Y58458D02*
X517990Y59917D01*
X518920Y60750D01*
X520160Y61166D01*
X521245Y60750D01*
X522020Y59917D01*
X522640Y58667D01*
X522795Y57208D01*
X522640Y55958D01*
X522020Y54708D01*
X521090Y53667D01*
X520005Y53250D01*
X518765Y53667D01*
X517680Y54916D01*
X517060Y56792D01*
X516905Y58875D01*
X517215Y61583D01*
X517680Y63042D01*
X518455Y64500D01*
X519540Y65542D01*
X520625Y65750D01*
X521710Y65333D01*
X522485Y64292D01*
G01X532250Y53250D02*
X533335Y53458D01*
X534575Y54083D01*
X535350Y55125D01*
X535660Y56583D01*
X535350Y58041D01*
X534420Y59292D01*
X533025Y59917D01*
X531475D01*
X530545Y60333D01*
X529770Y61375D01*
X529460Y62833D01*
X529925Y64292D01*
X531010Y65333D01*
X532250Y65750D01*
X533490Y65333D01*
X534575Y64292D01*
X535040Y62833D01*
X534730Y61375D01*
X533955Y60333D01*
X533025Y59917D01*
X531475D01*
X530080Y59292D01*
X529150Y58041D01*
X528840Y56583D01*
X529150Y55125D01*
X529925Y54083D01*
X531165Y53458D01*
X532250Y53250D01*
G01X541240Y55125D02*
X542170Y54083D01*
X543255Y53458D01*
X544650Y53250D01*
X546045Y53667D01*
X547130Y54500D01*
X547905Y55958D01*
X548060Y57625D01*
X547750Y59292D01*
X546975Y60333D01*
X545890Y61166D01*
X544805Y61375D01*
X543720Y61166D01*
X542325Y60333D01*
X542790Y65750D01*
X546975D01*
G01X484510Y78250D02*
Y90750D01*
X478775Y81792D01*
X486525D01*
G01X495050Y78250D02*
Y90750D01*
X493190Y88250D01*
G01Y78250D02*
X496910D01*
G01X507450Y77833D02*
X507140Y78042D01*
Y78458D01*
X507450Y78667D01*
X507760Y78458D01*
Y78042D01*
X507450Y77833D01*
G01X516440Y80750D02*
X517370Y79291D01*
X518610Y78458D01*
X520005Y78250D01*
X521245Y78458D01*
X522485Y79500D01*
X523260Y80750D01*
X523415Y82000D01*
X523105Y83458D01*
X522020Y84500D01*
X520935Y84917D01*
X519540D01*
G01X520935D02*
X521865Y85542D01*
X522640Y86583D01*
X522950Y87833D01*
X522640Y89083D01*
X521865Y90125D01*
X520470Y90750D01*
X519075Y90542D01*
X517680Y89708D01*
G01X528840Y80750D02*
X529770Y79291D01*
X531010Y78458D01*
X532405Y78250D01*
X533645Y78458D01*
X534885Y79500D01*
X535660Y80750D01*
X535815Y82000D01*
X535505Y83458D01*
X534420Y84500D01*
X533335Y84917D01*
X531940D01*
G01X533335D02*
X534265Y85542D01*
X535040Y86583D01*
X535350Y87833D01*
X535040Y89083D01*
X534265Y90125D01*
X532870Y90750D01*
X531475Y90542D01*
X530080Y89708D01*
G01X542015Y79708D02*
X543100Y78667D01*
X544340Y78250D01*
X545580Y78667D01*
X546665Y79916D01*
X547440Y81792D01*
X547750Y83667D01*
Y85958D01*
X547440Y87833D01*
X546665Y89500D01*
X545735Y90333D01*
X544650Y90750D01*
X543410Y90333D01*
X542480Y89500D01*
X541860Y88250D01*
X541550Y86583D01*
X541860Y85125D01*
X542635Y83667D01*
X543565Y82833D01*
X544650Y82625D01*
X545890Y83041D01*
X546820Y84083D01*
X547750Y85958D01*
G01X491795Y129916D02*
X493035Y128875D01*
X494430Y128250D01*
X495670D01*
X496910Y128875D01*
X497840Y129916D01*
X498305Y131375D01*
X497995Y132833D01*
X497220Y134083D01*
X495825Y134917D01*
X493965Y135333D01*
X492880Y136166D01*
X492415Y137625D01*
X492725Y139083D01*
X493500Y140125D01*
X494585Y140750D01*
X495670D01*
X496755Y140333D01*
X497685Y139292D01*
G01X505590Y140750D02*
X509310D01*
G01X507450D02*
Y128250D01*
G01X505590D02*
X509310D01*
G01X516905Y140750D02*
X522795D01*
X516905Y128250D01*
X522795D01*
G01X535350D02*
X529150D01*
Y140750D01*
X535350D01*
G01X532870Y134708D02*
X529150D01*
G01X501250Y103250D02*
X502335Y103458D01*
X503575Y104083D01*
X504350Y105125D01*
X504660Y106583D01*
X504350Y108041D01*
X503420Y109292D01*
X502025Y109917D01*
X500475D01*
X499545Y110333D01*
X498770Y111375D01*
X498460Y112833D01*
X498925Y114292D01*
X500010Y115333D01*
X501250Y115750D01*
X502490Y115333D01*
X503575Y114292D01*
X504040Y112833D01*
X503730Y111375D01*
X502955Y110333D01*
X502025Y109917D01*
X500475D01*
X499080Y109292D01*
X498150Y108041D01*
X497840Y106583D01*
X498150Y105125D01*
X498925Y104083D01*
X500165Y103458D01*
X501250Y103250D01*
G01X513650Y102833D02*
X513340Y103042D01*
Y103458D01*
X513650Y103667D01*
X513960Y103458D01*
Y103042D01*
X513650Y102833D01*
G01X526050Y115750D02*
X524810Y115333D01*
X523880Y114292D01*
X523260Y113042D01*
X522795Y111375D01*
X522640Y109500D01*
X522795Y107625D01*
X523260Y105958D01*
X523880Y104708D01*
X524810Y103667D01*
X526050Y103250D01*
X527290Y103667D01*
X528220Y104708D01*
X528840Y105958D01*
X529305Y107625D01*
X529460Y109500D01*
X529305Y111375D01*
X528840Y113042D01*
X528220Y114292D01*
X527290Y115333D01*
X526050Y115750D01*
G01X608200Y147000D02*
Y-3000D01*
G01X612385Y3250D02*
Y15750D01*
X619515Y3250D01*
Y15750D01*
G01X628350Y3250D02*
X627110Y3458D01*
X626025Y4291D01*
X625095Y5542D01*
X624475Y7000D01*
X624165Y8667D01*
Y10333D01*
X624475Y12000D01*
X625095Y13458D01*
X626025Y14708D01*
X627110Y15542D01*
X628350Y15750D01*
X629590Y15542D01*
X630675Y14708D01*
X631605Y13458D01*
X632225Y12000D01*
X632535Y10333D01*
Y8667D01*
X632225Y7000D01*
X631605Y5542D01*
X630675Y4291D01*
X629590Y3458D01*
X628350Y3250D01*
G01X637185D02*
Y15750D01*
X644315Y3250D01*
Y15750D01*
G01X651135Y7417D02*
X655165D01*
G01X662450Y3250D02*
Y15750D01*
X666170D01*
X667410Y15125D01*
X668340Y13667D01*
X668650Y12000D01*
X668340Y10333D01*
X667565Y9083D01*
X666170Y8458D01*
X662450D01*
G01X674850Y15750D02*
Y3250D01*
X681050D01*
G01X686475D02*
X690350Y15750D01*
X694225Y3250D01*
G01X692830Y7625D02*
X687870D01*
G01X702750Y15750D02*
Y3250D01*
G01X699185Y15750D02*
X706315D01*
G01X718250Y3250D02*
X712050D01*
Y15750D01*
X718250D01*
G01X715770Y9708D02*
X712050D01*
G01X724140Y3250D02*
Y15750D01*
X727240D01*
X728480Y15125D01*
X729410Y14292D01*
X730185Y13042D01*
X730805Y11583D01*
X730960Y9500D01*
X730805Y7417D01*
X730185Y5958D01*
X729410Y4708D01*
X728480Y3875D01*
X727240Y3250D01*
X724140D01*
G01X612385Y28250D02*
Y40750D01*
X619515Y28250D01*
Y40750D01*
G01X628350Y28250D02*
X627110Y28458D01*
X626025Y29291D01*
X625095Y30542D01*
X624475Y32000D01*
X624165Y33667D01*
Y35333D01*
X624475Y37000D01*
X625095Y38458D01*
X626025Y39708D01*
X627110Y40542D01*
X628350Y40750D01*
X629590Y40542D01*
X630675Y39708D01*
X631605Y38458D01*
X632225Y37000D01*
X632535Y35333D01*
Y33667D01*
X632225Y32000D01*
X631605Y30542D01*
X630675Y29291D01*
X629590Y28458D01*
X628350Y28250D01*
G01X637185D02*
Y40750D01*
X644315Y28250D01*
Y40750D01*
G01X651135Y32417D02*
X655165D01*
G01X662450Y28250D02*
Y40750D01*
X666170D01*
X667410Y40125D01*
X668340Y38667D01*
X668650Y37000D01*
X668340Y35333D01*
X667565Y34083D01*
X666170Y33458D01*
X662450D01*
G01X674850Y40750D02*
Y28250D01*
X681050D01*
G01X686475D02*
X690350Y40750D01*
X694225Y28250D01*
G01X692830Y32625D02*
X687870D01*
G01X702750Y40750D02*
Y28250D01*
G01X699185Y40750D02*
X706315D01*
G01X718250Y28250D02*
X712050D01*
Y40750D01*
X718250D01*
G01X715770Y34708D02*
X712050D01*
G01X724140Y28250D02*
Y40750D01*
X727240D01*
X728480Y40125D01*
X729410Y39292D01*
X730185Y38042D01*
X730805Y36583D01*
X730960Y34500D01*
X730805Y32417D01*
X730185Y30958D01*
X729410Y29708D01*
X728480Y28875D01*
X727240Y28250D01*
X724140D01*
G01X612385Y53250D02*
Y65750D01*
X619515Y53250D01*
Y65750D01*
G01X628350Y53250D02*
X627110Y53458D01*
X626025Y54291D01*
X625095Y55542D01*
X624475Y57000D01*
X624165Y58667D01*
Y60333D01*
X624475Y62000D01*
X625095Y63458D01*
X626025Y64708D01*
X627110Y65542D01*
X628350Y65750D01*
X629590Y65542D01*
X630675Y64708D01*
X631605Y63458D01*
X632225Y62000D01*
X632535Y60333D01*
Y58667D01*
X632225Y57000D01*
X631605Y55542D01*
X630675Y54291D01*
X629590Y53458D01*
X628350Y53250D01*
G01X637185D02*
Y65750D01*
X644315Y53250D01*
Y65750D01*
G01X651135Y57416D02*
X655165D01*
G01X662450Y53250D02*
Y65750D01*
X666170D01*
X667410Y65125D01*
X668340Y63667D01*
X668650Y62000D01*
X668340Y60333D01*
X667565Y59083D01*
X666170Y58458D01*
X662450D01*
G01X674850Y65750D02*
Y53250D01*
X681050D01*
G01X686475D02*
X690350Y65750D01*
X694225Y53250D01*
G01X692830Y57625D02*
X687870D01*
G01X702750Y65750D02*
Y53250D01*
G01X699185Y65750D02*
X706315D01*
G01X718250Y53250D02*
X712050D01*
Y65750D01*
X718250D01*
G01X715770Y59709D02*
X712050D01*
G01X724140Y53250D02*
Y65750D01*
X727240D01*
X728480Y65125D01*
X729410Y64292D01*
X730185Y63042D01*
X730805Y61583D01*
X730960Y59500D01*
X730805Y57416D01*
X730185Y55958D01*
X729410Y54708D01*
X728480Y53875D01*
X727240Y53250D01*
X724140D01*
G01X637650Y78250D02*
Y90750D01*
X641370D01*
X642610Y90125D01*
X643540Y88667D01*
X643850Y87000D01*
X643540Y85333D01*
X642765Y84083D01*
X641370Y83458D01*
X637650D01*
G01X650050Y90750D02*
Y78250D01*
X656250D01*
G01X661675D02*
X665550Y90750D01*
X669425Y78250D01*
G01X668030Y82625D02*
X663070D01*
G01X677950Y90750D02*
Y78250D01*
G01X674385Y90750D02*
X681515D01*
G01X693450Y78250D02*
X687250D01*
Y90750D01*
X693450D01*
G01X690970Y84709D02*
X687250D01*
G01X699340Y78250D02*
Y90750D01*
X702440D01*
X703680Y90125D01*
X704610Y89292D01*
X705385Y88042D01*
X706005Y86583D01*
X706160Y84500D01*
X706005Y82416D01*
X705385Y80958D01*
X704610Y79708D01*
X703680Y78875D01*
X702440Y78250D01*
X699340D01*
G01X637650Y103250D02*
Y115750D01*
X641370D01*
X642610Y115125D01*
X643540Y113667D01*
X643850Y112000D01*
X643540Y110333D01*
X642765Y109083D01*
X641370Y108458D01*
X637650D01*
G01X650050Y115750D02*
Y103250D01*
X656250D01*
G01X661675D02*
X665550Y115750D01*
X669425Y103250D01*
G01X668030Y107625D02*
X663070D01*
G01X677950Y115750D02*
Y103250D01*
G01X674385Y115750D02*
X681515D01*
G01X693450Y103250D02*
X687250D01*
Y115750D01*
X693450D01*
G01X690970Y109709D02*
X687250D01*
G01X699340Y103250D02*
Y115750D01*
X702440D01*
X703680Y115125D01*
X704610Y114292D01*
X705385Y113042D01*
X706005Y111583D01*
X706160Y109500D01*
X706005Y107416D01*
X705385Y105958D01*
X704610Y104708D01*
X703680Y103875D01*
X702440Y103250D01*
X699340D01*
G01X637650Y128250D02*
Y140750D01*
X641370D01*
X642610Y140125D01*
X643540Y138667D01*
X643850Y137000D01*
X643540Y135333D01*
X642765Y134083D01*
X641370Y133458D01*
X637650D01*
G01X650050Y140750D02*
Y128250D01*
X656250D01*
G01X661675D02*
X665550Y140750D01*
X669425Y128250D01*
G01X668030Y132625D02*
X663070D01*
G01X677950Y140750D02*
Y128250D01*
G01X674385Y140750D02*
X681515D01*
G01X693450Y128250D02*
X687250D01*
Y140750D01*
X693450D01*
G01X690970Y134708D02*
X687250D01*
G01X699340Y128250D02*
Y140750D01*
X702440D01*
X703680Y140125D01*
X704610Y139292D01*
X705385Y138042D01*
X706005Y136583D01*
X706160Y134500D01*
X706005Y132416D01*
X705385Y130958D01*
X704610Y129708D01*
X703680Y128875D01*
X702440Y128250D01*
X699340D01*
G01X735300Y147000D02*
Y-3000D01*
G01X763510Y103250D02*
Y115750D01*
X757775Y106792D01*
X765525D01*
G01X774050Y103250D02*
X775135Y103458D01*
X776375Y104083D01*
X777150Y105125D01*
X777460Y106583D01*
X777150Y108041D01*
X776220Y109292D01*
X774825Y109917D01*
X773275D01*
X772345Y110333D01*
X771570Y111375D01*
X771260Y112833D01*
X771725Y114292D01*
X772810Y115333D01*
X774050Y115750D01*
X775290Y115333D01*
X776375Y114292D01*
X776840Y112833D01*
X776530Y111375D01*
X775755Y110333D01*
X774825Y109917D01*
X773275D01*
X771880Y109292D01*
X770950Y108041D01*
X770640Y106583D01*
X770950Y105125D01*
X771725Y104083D01*
X772965Y103458D01*
X774050Y103250D01*
G01X783505Y113667D02*
X784435Y114916D01*
X785520Y115542D01*
X786760Y115750D01*
X788310Y115333D01*
X789395Y114292D01*
X789705Y113042D01*
X789550Y111791D01*
X788930Y110750D01*
X785830Y108667D01*
X784435Y107208D01*
X783505Y105125D01*
X783195Y103250D01*
X789705D01*
G01X761650Y128250D02*
X760410Y128458D01*
X759325Y129291D01*
X758395Y130542D01*
X757775Y132000D01*
X757465Y133667D01*
Y135333D01*
X757775Y137000D01*
X758395Y138458D01*
X759325Y139708D01*
X760410Y140542D01*
X761650Y140750D01*
X762890Y140542D01*
X763975Y139708D01*
X764905Y138458D01*
X765525Y137000D01*
X765835Y135333D01*
Y133667D01*
X765525Y132000D01*
X764905Y130542D01*
X763975Y129291D01*
X762890Y128458D01*
X761650Y128250D01*
G01X762890Y131583D02*
X764750Y128250D01*
G01X774050Y140750D02*
Y128250D01*
G01X770485Y140750D02*
X777615D01*
G01X786450Y128250D02*
Y133875D01*
X783350Y140750D01*
G01X789550D02*
X786450Y133875D01*
G01X771105Y13667D02*
X772035Y14916D01*
X773120Y15542D01*
X774360Y15750D01*
X775910Y15333D01*
X776995Y14292D01*
X777305Y13042D01*
X777150Y11791D01*
X776530Y10750D01*
X773430Y8667D01*
X772035Y7208D01*
X771105Y5125D01*
X770795Y3250D01*
X777305D01*
G01X771105Y38667D02*
X772035Y39917D01*
X773120Y40542D01*
X774360Y40750D01*
X775910Y40333D01*
X776995Y39292D01*
X777305Y38042D01*
X777150Y36791D01*
X776530Y35750D01*
X773430Y33667D01*
X772035Y32208D01*
X771105Y30125D01*
X770795Y28250D01*
X777305D01*
G01X771105Y63667D02*
X772035Y64916D01*
X773120Y65542D01*
X774360Y65750D01*
X775910Y65333D01*
X776995Y64292D01*
X777305Y63042D01*
X777150Y61791D01*
X776530Y60750D01*
X773430Y58667D01*
X772035Y57208D01*
X771105Y55125D01*
X770795Y53250D01*
X777305D01*
G01X771105Y88667D02*
X772035Y89916D01*
X773120Y90542D01*
X774360Y90750D01*
X775910Y90333D01*
X776995Y89292D01*
X777305Y88042D01*
X777150Y86791D01*
X776530Y85750D01*
X773430Y83667D01*
X772035Y82208D01*
X771105Y80125D01*
X770795Y78250D01*
X777305D01*
M02*
