G04 ================== begin FILE IDENTIFICATION RECORD ==================*
G04 Layout Name:  E:/material/glass/workspace/hardware/6.glass v1.1/core-pcb/core.brd*
G04 Film Name:    POWER*
G04 File Format:  Gerber RS274X*
G04 File Origin:  Cadence Allegro 16.6-2015-S065*
G04 Origin Date:  Fri Dec 16 11:26:07 2016*
G04 *
G04 Layer:  ETCH/POWER*
G04 Layer:  PIN/POWER*
G04 Layer:  VIA CLASS/POWER*
G04 *
G04 Offset:    (0.000 0.000)*
G04 Mirror:    No*
G04 Mode:      Positive*
G04 Rotation:  0*
G04 FullContactRelief:  No*
G04 UndefLineWidth:     1.000*
G04 ================== end FILE IDENTIFICATION RECORD ====================*
%FSLAX25Y25*MOIN*%
%IR0*IPPOS*OFA0.00000B0.00000*MIA0B0*SFA1.00000B1.00000*%
%ADD11C,.003937*%
%ADD10C,.012*%
%ADD13C,.000394*%
%ADD12C,.062992*%
%ADD14C,.024004*%
%ADD16C,.063122*%
%ADD15C,.047374*%
G75*
%LPD*%
G75*
G36*
G01X55588Y200D02*
G02X55191Y650I0J400D01*
G03X52809I-1191J150D01*
G02X52412Y200I-397J-50D01*
G01X52088D01*
G02X51691Y650I0J400D01*
G03X49309I-1191J150D01*
G02X48912Y200I-397J-50D01*
G01X48588D01*
G02X48191Y650I0J400D01*
G03X45809I-1191J150D01*
G02X45412Y200I-397J-50D01*
G01X41588D01*
G02X41191Y650I0J400D01*
G03X38809I-1191J150D01*
G02X38412Y200I-397J-50D01*
G01X200D01*
Y61800D01*
X319800D01*
Y200D01*
X131050D01*
G02X130662Y700I0J400D01*
G03X128338I-1162J300D01*
G02X127951Y200I-387J-100D01*
G01X109225D01*
G02X108832Y675I0J400D01*
G03X106474I-1179J225D01*
G02X106082Y200I-393J-75D01*
G01X83209D01*
G02X82914Y871I0J400D01*
G03X81143I-885J810D01*
G02X80848Y200I-295J-270D01*
G01X58363D01*
G02X58072Y875I0J400D01*
G03X56328I-872J825D01*
G02X56037Y200I-291J-275D01*
G01X55588D01*
G37*
%LPC*%
G75*
G36*
G01X218068Y1990D02*
G02X218008Y3485I-967J710D01*
G03X218632Y3510I302J262D01*
G02X218692Y2015I967J-710D01*
G03X218068Y1990I-302J-262D01*
G37*
G36*
G01X32302Y4443D02*
G02X28234Y6578I-2302J557D01*
G03X28101Y7208I-298J266D01*
G02X29732Y7900I499J1092D01*
G03X30093Y7367I377J-133D01*
G02X32053Y6181I-93J-2367D01*
G03X32740Y6170I347J200D01*
G02X32958Y4647I1021J-631D01*
G03X32302Y4443I-267J-297D01*
G37*
G36*
G01X183966Y4400D02*
X178334D01*
X175900Y6834D01*
Y11363D01*
X175759Y11406D01*
G02X174455Y17465I1041J3394D01*
G03X174368Y18124I-264J300D01*
G02X175350Y20313I532J1076D01*
G03X175900Y20684I150J371D01*
G01Y24807D01*
X175757Y24850D01*
G02Y27150I343J1150D01*
G01X175900Y27193D01*
Y31100D01*
G03X175700Y31300I-200J0D01*
G02Y33700I0J1200D01*
G03X175900Y33900I0J200D01*
G01Y39932D01*
X175875Y39978D01*
G02Y41149I1048J586D01*
G01X175900Y41194D01*
Y41566D01*
X183634Y49300D01*
X184037D01*
G03X184318Y49985I0J400D01*
G02X186005I843J854D01*
G03X186286Y49300I281J-285D01*
G01X207766D01*
X214200Y42866D01*
Y17534D01*
X208545Y11879D01*
G03X208791Y11198I283J-283D01*
G02X205983Y9959I-291J-3143D01*
G03X205664Y10600I-319J241D01*
G01X190166D01*
X183966Y4400D01*
G37*
G36*
G01X156772Y7737D02*
G02X154473Y7891I-1172J-259D01*
G03X154173Y8421I-376J138D01*
G02X153351Y9016I227J1179D01*
G03X152845Y9190I-350J-195D01*
G02X151174Y10326I-471J1104D01*
G03X150853Y10729I-400J11D01*
G02X152494Y11871I273J1357D01*
G03X152760Y11430I395J-62D01*
G02X153423Y10877I-386J-1136D01*
G03X153929Y10704I350J195D01*
G02X155393Y10274I471J-1104D01*
G03X155918Y10150I331J225D01*
G02X157438Y9849I582J-1049D01*
G03X158062I313J250D01*
G02Y8351I938J-749D01*
G03X157438I-312J-250D01*
G02X156901Y7969I-938J749D01*
G03X156772Y7737I67J-189D01*
G37*
G36*
G01X169317Y8496D02*
G02X167883I-717J-962D01*
G03Y9138I-239J321D01*
G02X167410Y10256I717J962D01*
G03X166982Y10706I-397J52D01*
G02X165702Y12824I-108J1380D01*
G03X165628Y13107I-169J106D01*
G02X165481Y13200I569J1057D01*
G01X163334D01*
X161000Y15534D01*
Y21234D01*
X159334Y22900D01*
X147609D01*
G03X147332Y22212I0J-400D01*
G02X146193Y22507I-832J-865D01*
G01X146341Y22546D01*
Y22900D01*
X146134D01*
X144300Y24734D01*
Y27343D01*
X144178Y27394D01*
G02Y29606I467J1106D01*
G01X144300Y29657D01*
Y31834D01*
X138100Y38034D01*
Y52666D01*
X140434Y55000D01*
X168066D01*
X170000Y53066D01*
Y17600D01*
G03X170400Y17200I400J0D01*
G02X170062Y14848I0J-1200D01*
G01X169948Y14882D01*
X168266Y13200D01*
X168169D01*
G03X168005Y12885I0J-200D01*
G02X168226Y11787I-1131J-798D01*
G03X168612Y11300I391J-87D01*
G02X169317Y9138I-12J-1200D01*
G03Y8496I239J-321D01*
G37*
G36*
G01X82970Y13121D02*
G02X81730Y13304I-770J-921D01*
G03X81830Y13979I-157J368D01*
G02X82020Y15950I770J921D01*
G03X82105Y16208I-97J175D01*
G02X83048Y17890I1095J492D01*
G03X83222Y18079I-25J198D01*
G02X83606Y18904I1199J-57D01*
G03X83618Y19186I-136J147D01*
G02X85315Y19119I882J814D01*
G03X85303Y18836I136J-147D01*
G02X84573Y16832I-882J-814D01*
G03X84399Y16643I25J-198D01*
G02X83780Y15650I-1199J57D01*
G03X83695Y15392I97J-175D01*
G02X83070Y13796I-1095J-492D01*
G03X82970Y13121I157J-368D01*
G37*
G36*
G01X50976Y16181D02*
G02X50914Y17546I-1016J638D01*
G03X51571Y17576I318J242D01*
G02X51868Y17898I1016J-639D01*
G03X51869Y18538I-240J320D01*
G02X51581Y18848I722J959D01*
G03X50952Y18905I-337J-216D01*
G02X49227Y18877I-876J820D01*
G03X48604Y18807I-283J-283D01*
G02X46538Y18860I-1017J637D01*
G03X45838Y18858I-350J-194D01*
G02X43916Y18612I-1051J579D01*
G03X43337Y18614I-290J-275D01*
G02X43344Y20272I-864J833D01*
G03X43923Y20270I290J275D01*
G02X45836Y20021I864J-833D01*
G03X46536Y20022I350J194D01*
G02X48436Y20291I1051J-579D01*
G03X49058Y20362I283J283D01*
G02X51086Y20374I1017J-637D01*
G03X51714Y20316I337J216D01*
G02X53551Y20217I876J-820D01*
G03X54190I320J240D01*
G02X56110Y20217I960J-721D01*
G03X56749I320J240D01*
G02Y18776I960J-721D01*
G03X56110I-320J-240D01*
G02X55976Y18626I-960J720D01*
G03X56035Y17999I275J-290D01*
G02X54561Y17859I-648J-1010D01*
G03X54502Y18486I-275J290D01*
G02X54190Y18776I648J1010D01*
G03X53551I-320J-240D01*
G02X53310Y18536I-960J721D01*
G03X53309Y17896I240J-320D01*
G02X51633Y16210I-722J-959D01*
G03X50976Y16181I-318J-242D01*
G37*
G36*
G01X63762Y18776D02*
G02Y20217I-960J721D01*
G03X64402I320J240D01*
G02Y18776I960J-721D01*
G03X63762I-320J-240D01*
G37*
G36*
G01X46601Y22970D02*
G02X46585Y21555I962J-718D01*
G03X45939Y21562I-326J-232D01*
G02X44064Y23060I-962J718D01*
G03X44025Y23619I-304J260D01*
G02X44092Y25474I794J900D01*
G03X44112Y26095I-242J318D01*
G02X43898Y26339I788J905D01*
G03X43248Y26364I-334J-220D01*
G02X43302Y27761I-948J736D01*
G03X43952Y27736I334J220D01*
G02X45865Y27713I948J-736D01*
G03X46540Y27763I322J238D01*
G02X46821Y28113I1060J-563D01*
G03X46789Y28746I-260J304D01*
G02X46494Y29038I683J987D01*
G03X45876Y29080I-326J-232D01*
G02X44008Y29224I-876J820D01*
G03X43360Y29242I-331J-225D01*
G02X43398Y30646I-954J728D01*
G03X44046Y30628I331J225D01*
G02X45979Y30595I954J-728D01*
G03X46597Y30553I326J232D01*
G02X48252Y28820I876J-820D01*
G03X48284Y28187I260J-304D01*
G02X46635Y26487I-684J-987D01*
G03X45960Y26437I-322J-238D01*
G02X45627Y26045I-1060J563D01*
G03X45606Y25425I242J-318D01*
G02X45732Y23740I-788J-905D01*
G03X45771Y23181I304J-260D01*
G02X45955Y22977I-794J-900D01*
G03X46601Y22970I326J232D01*
G37*
G36*
G01X53551Y23894D02*
G02X51870Y25574I-960J721D01*
G03Y26214I-240J320D01*
G02X51870Y28133I721J960D01*
G03Y28773I-240J320D01*
G02X53551Y30454I721J960D01*
G03X54190I320J240D01*
G02X56110Y30453I960J-721D01*
G03X56749I320J240D01*
G02X58430Y28773I960J-721D01*
G03Y28133I240J-320D01*
G02X58430Y26214I-721J-960D01*
G03Y25574I240J-320D01*
G02X56749Y23894I-721J-960D01*
G03X56110I-320J-240D01*
G02X54190Y23894I-960J721D01*
G03X53551I-320J-240D01*
G37*
G36*
G01X63762D02*
G02X62082Y25574I-960J721D01*
G03Y26214I-240J320D01*
G02X62082Y28133I721J960D01*
G03Y28773I-240J320D01*
G02X63762Y30454I721J960D01*
G03X64402I320J240D01*
G02X66082Y28773I960J-721D01*
G03Y28133I240J-320D01*
G02X66083Y26214I-721J-960D01*
G03Y25574I240J-320D01*
G02X64402Y23894I-721J-960D01*
G03X63762I-320J-240D01*
G37*
G36*
G01X43076Y35786D02*
G02X41634I-721J-960D01*
G03Y36426I-240J320D01*
G02X41639Y38349I721J960D01*
G03Y38991I-238J321D01*
G02X43317Y40672I716J964D01*
G03X43957Y40669I321J239D01*
G02X43951Y39228I957J-725D01*
G03X43312Y39230I-321J-239D01*
G02X43070Y38991I-957J725D01*
G03Y38349I238J-321D01*
G02X43076Y36426I-716J-964D01*
G03Y35786I240J-320D01*
G37*
G36*
G01X53551Y34106D02*
G02X51870Y35786I-960J721D01*
G03Y36426I-240J320D01*
G02X53551Y38106I721J960D01*
G03X54190I320J240D01*
G02X56110Y38106I960J-721D01*
G03X56749I320J240D01*
G02X58430Y36426I960J-721D01*
G03Y35786I240J-320D01*
G02X56749Y34106I-721J-960D01*
G03X56110I-320J-240D01*
G02X54190Y34106I-960J721D01*
G03X53551I-320J-240D01*
G37*
G36*
G01X63762D02*
G02X62082Y35786I-960J721D01*
G03Y36426I-240J320D01*
G02X63762Y38106I721J960D01*
G03X64402I320J240D01*
G02X66083Y36426I960J-721D01*
G03Y35786I240J-320D01*
G02X64402Y34106I-721J-960D01*
G03X63762I-320J-240D01*
G37*
G36*
G01X71201Y35786D02*
G02X69759I-721J-960D01*
G03Y36426I-240J320D01*
G02X71440Y38106I721J960D01*
G03X72079I320J240D01*
G02Y36665I960J-721D01*
G03X71440I-320J-240D01*
G02X71201Y36426I-960J721D01*
G03Y35786I240J-320D01*
G37*
G36*
G01X40063Y37153D02*
G02X38520Y37138I-763J-926D01*
G03X38514Y37751I-260J304D01*
G02X38618Y39680I763J926D01*
G03X38599Y40361I-220J334D01*
G02X39859Y40397I601J1039D01*
G03X39878Y39716I220J-334D01*
G02X40058Y37765I-601J-1039D01*
G03X40063Y37153I260J-304D01*
G37*
G36*
G01X48432Y41783D02*
G02Y43224I-960J721D01*
G03X49072I320J240D01*
G02X50992Y43224I960J-721D01*
G03X51631I320J240D01*
G02X53551Y43224I960J-721D01*
G03X54190I320J240D01*
G02X56110Y43224I960J-721D01*
G03X56749I320J240D01*
G02Y41783I960J-721D01*
G03X56110I-320J-240D01*
G02X54190Y41783I-960J721D01*
G03X53551I-320J-240D01*
G02X51631Y41783I-960J721D01*
G03X50992I-320J-240D01*
G02X49072Y41783I-960J721D01*
G03X48432I-320J-240D01*
G37*
G36*
G01X71201Y46022D02*
G02X69759I-721J-960D01*
G03Y46662I-240J320D01*
G02X71201I721J960D01*
G03Y46022I240J-320D01*
G37*
G36*
G01X76417Y49325D02*
G02X76400Y50894I-917J775D01*
G03X77005Y50901I300J265D01*
G02X77022Y49332I917J-775D01*
G03X76417Y49325I-300J-265D01*
G37*
G36*
G01X241937Y50771D02*
G02X241033Y51724I-1181J-215D01*
G03X241519Y52185I93J389D01*
G02X242423Y51232I1181J215D01*
G03X241937Y50771I-93J-389D01*
G37*
G36*
G01X76497Y53432D02*
G02X76320Y54977I-997J668D01*
G03X76925Y55046I273J292D01*
G02X77102Y53501I997J-668D01*
G03X76497Y53432I-273J-292D01*
G37*
G36*
G01X133036Y58628D02*
G02X132951Y57184I914J-778D01*
G03X132314Y57222I-333J-222D01*
G02X132399Y58666I-914J778D01*
G03X133036Y58628I333J222D01*
G37*
G36*
G01X90714Y3689D02*
G03X90860Y3478I199J-18D01*
G02X89349Y2430I-316J-1158D01*
G03X89203Y2641I-199J18D01*
G02X90714Y3689I316J1158D01*
G37*
G36*
G01X134622Y6300D02*
G03X134230Y5893I8J-400D01*
G02X133008Y7070I-1200J-23D01*
G03X133400Y7477I-8J400D01*
G02X134622Y6300I1200J23D01*
G37*
G36*
G01X123402Y7379D02*
G03X123621Y7245I190J64D01*
G02X122664Y5675I180J-1187D01*
G03X122445Y5809I-190J-64D01*
G02X123402Y7379I-180J1187D01*
G37*
G36*
G01X45977Y7792D02*
G03X45452Y7755I-241J-319D01*
G02X45323Y9558I-852J845D01*
G03X45848Y9595I241J319D01*
G02X47212Y9836I852J-845D01*
G03X47469Y9914I85J181D01*
G02X47988Y8214I1031J-614D01*
G03X47731Y8136I-85J-181D01*
G02X45977Y7792I-1031J614D01*
G37*
G36*
G01X56417Y8830D02*
G03X56153Y8800I-115J-163D01*
G02X54069Y9436I-895J800D01*
G03X53869Y9608I-198J-27D01*
G02X55047Y10973I-11J1200D01*
G03X55247Y10800I198J27D01*
G02X55951Y10580I11J-1200D01*
G03X56215Y10610I115J163D01*
G02X56417Y8830I895J-800D01*
G37*
G36*
G01X40241Y14356D02*
G03X40266Y13831I314J-248D01*
G02X38459Y13744I-866J-831D01*
G03X38434Y14269I-314J248D01*
G02X40241Y14356I866J831D01*
G37*
G36*
G01X29004Y19143D02*
G03X29054Y18643I335J-219D01*
G02X27196Y18457I-854J-843D01*
G03X27146Y18957I-335J219D01*
G02X27118Y20614I854J843D01*
G03Y20886I-147J136D01*
G02X28882I882J814D01*
G03Y20614I147J-136D01*
G02X29004Y19143I-882J-814D01*
G37*
G36*
G01X14532Y18175D02*
G03X14257Y18650I-389J92D01*
G02X14733Y20993I343J1150D01*
G03X14948Y21136I22J199D01*
G02X15967Y19607I1152J-336D01*
G03X15752Y19464I-22J-199D01*
G02X15716Y19359I-1152J336D01*
G03X15873Y19088I186J-73D01*
G02X14532Y18175I-173J-1188D01*
G37*
G36*
G01X37910Y17301D02*
G03X37372Y17294I-265J-300D01*
G02X37348Y19070I-819J878D01*
G03X37886Y19078I265J300D01*
G02X37910Y17301I819J-878D01*
G37*
G36*
G01X134273Y22770D02*
G02X132486Y21173I-937J-750D01*
G02X130699Y22770I-850J847D01*
G03Y23270I-312J250D01*
G02Y24770I937J750D01*
G03Y25270I-312J250D01*
G02X132486Y26867I937J750D01*
G02X134273Y25270I850J-847D01*
G03Y24770I312J-250D01*
G02Y23270I-937J-750D01*
G03Y22770I312J-250D01*
G37*
G36*
G01X99407Y24890D02*
G03X99670Y24870I143J140D01*
G02X99533Y23070I720J-960D01*
G03X99270Y23090I-143J-140D01*
G02X97574Y23352I-720J960D01*
G03X97087Y23484I-325J-233D01*
G02X95734Y23750I-487J1097D01*
G03X95471Y23773I-144J-138D01*
G02X93560Y24703I-711J967D01*
G03X93386Y24895I-200J-6D01*
G02X92574Y26795I156J1190D01*
G03X92540Y27068I-161J118D01*
G02X94268Y27287I760J929D01*
G03X94302Y27014I161J-118D01*
G02X94742Y26122I-760J-929D01*
G03X94916Y25930I200J6D01*
G02X95626Y25571I-156J-1190D01*
G03X95889Y25548I144J138D01*
G02X97576Y25280I711J-967D01*
G03X98063Y25147I325J233D01*
G02X99407Y24890I487J-1097D01*
G37*
G36*
G01X12948Y27873D02*
G03X13105Y28088I-42J196D01*
G02X13381Y28971I1195J112D01*
G03Y29229I-153J129D01*
G02X15219I919J771D01*
G03Y28971I153J-129D01*
G02X15410Y27744I-919J-771D01*
G03X15510Y27487I185J-76D01*
G02X16191Y26548I-510J-1086D01*
G03X16566Y26198I397J49D01*
G02X15309Y24852I-66J-1198D01*
G03X14934Y25202I-397J-49D01*
G02X14079Y25631I66J1198D01*
G03X13822Y25673I-153J-128D01*
G02X12948Y27873I-622J1027D01*
G37*
G36*
G01X88609Y26535D02*
G03X88585Y26278I140J-143D01*
G02X86760Y26449I-985J-686D01*
G03X86784Y26706I-140J143D01*
G02X88609Y26535I985J686D01*
G37*
G36*
G01X7637Y28933D02*
G03X7736Y29170I-91J178D01*
G02X9038Y30715I1146J355D01*
G03X9255Y30854I26J198D01*
G02X10245Y29304I1145J-359D01*
G03X10028Y29166I-26J-198D01*
G02X9432Y28458I-1145J360D01*
G03X9332Y28221I91J-178D01*
G02X7637Y28933I-1146J-355D01*
G37*
G36*
G01X98731Y28640D02*
G03X98399Y28230I68J-394D01*
G02X96996Y29364I-1199J-48D01*
G03X97328Y29775I-68J394D01*
G02X98731Y28640I1199J48D01*
G37*
G36*
G01X84121Y28914D02*
G03X83768Y28532I47J-397D01*
G02X82428Y29771I-1199J46D01*
G03X82780Y30152I-47J397D01*
G02X84121Y28914I1199J-46D01*
G37*
G36*
G01X29078Y30314D02*
G03X29087Y30030I145J-138D01*
G02X27400Y29976I-817J-880D01*
G03X27391Y30260I-145J138D01*
G02X29078Y30314I817J880D01*
G37*
G36*
G01X239720Y28963D02*
G03X239220I-250J-312D01*
G02X237533Y30650I-750J937D01*
G03Y31150I-312J250D01*
G02Y32650I937J750D01*
G03Y33150I-312J250D01*
G02X239220Y34837I937J750D01*
G03X239720I250J312D01*
G02X241220I750J-937D01*
G03X241720I250J312D01*
G02X243407Y33150I750J-937D01*
G03Y32650I312J-250D01*
G02Y31150I-937J-750D01*
G03Y30650I312J-250D01*
G02X241720Y28963I-937J-750D01*
G03X241220I-250J-312D01*
G02X239720I-750J937D01*
G37*
G36*
G01X38248Y32116D02*
G03X38305Y32675I-255J308D01*
G02X40005Y32501I936J751D01*
G03X39948Y31942I255J-308D01*
G02X38248Y32116I-936J-751D01*
G37*
G36*
G01X129040Y32542D02*
G03X128893Y32328I53J-193D01*
G02X127384Y33358I-1193J-128D01*
G03X127530Y33572I-53J193D01*
G02X129040Y32542I1193J128D01*
G37*
G36*
G01X122818Y33947D02*
G03X122825Y33372I281J-284D01*
G02X121156Y33353I-825J-872D01*
G03X121150Y33928I-281J284D01*
G02X120800Y34552I825J872D01*
G03X120565Y34706I-196J-41D01*
G02X121500Y36131I-239J1176D01*
G03X121736Y35976I196J41D01*
G02X122818Y33947I239J-1176D01*
G37*
G36*
G01X14078Y36568D02*
G03X14063Y36839I-154J128D01*
G02X14034Y38531I837J861D01*
G03X14059Y39056I-289J277D01*
G02X15866Y38969I941J744D01*
G03X15841Y38444I289J-277D01*
G02X15822Y36932I-941J-744D01*
G03X15837Y36661I154J-128D01*
G02X15919Y35029I-837J-861D01*
G03Y34771I153J-129D01*
G02X14081I-919J-771D01*
G03Y35029I-153J129D01*
G02X14078Y36568I919J771D01*
G37*
G36*
G01X80253Y38821D02*
G03X80301Y39074I-126J155D01*
G02X81199Y40848I1048J584D01*
G03X81374Y41037I-25J198D01*
G02X82723Y39788I1199J-59D01*
G03X82548Y39599I25J-198D01*
G02X82107Y38727I-1199J59D01*
G03X82058Y38474I126J-155D01*
G02X81277Y36720I-1048J-584D01*
G03X80974Y36247I89J-390D01*
G02X79533Y37170I-1174J-247D01*
G03X79836Y37643I-89J390D01*
G02X80253Y38821I1174J247D01*
G37*
G36*
G01X127099Y38386D02*
G03X127046Y37838I263J-301D01*
G02X125311Y38004I-946J-738D01*
G03X125364Y38552I-263J301D01*
G02X125689Y40317I946J738D01*
G03X125767Y40573I-103J171D01*
G02X127477Y40051I1089J506D01*
G03X127398Y39796I103J-171D01*
G02X127099Y38386I-1089J-506D01*
G37*
G36*
G01X99632Y44232D02*
G03X100201Y44196I302J262D01*
G02X100092Y42515I799J-896D01*
G03X99524Y42552I-302J-262D01*
G02X99632Y44232I-799J896D01*
G37*
G36*
G01X94316Y44682D02*
G03X94580Y44660I144J139D01*
G02X94435Y42869I720J-960D01*
G03X94170Y42890I-144J-139D01*
G02X92331Y43415I-720J960D01*
G03X92096Y43537I-186J-72D01*
G02X92919Y45135I-296J1163D01*
G03X93154Y45013I186J72D01*
G02X94316Y44682I296J-1163D01*
G37*
G36*
G01X39822Y45632D02*
G03X39837Y45361I154J-128D01*
G02X38078Y45268I-837J-861D01*
G03X38063Y45539I-154J128D01*
G02X39822Y45632I837J861D01*
G37*
G36*
G01X127177Y47393D02*
G03X126890Y46956I110J-385D01*
G02X125370Y47954I-1190J-156D01*
G03X125657Y48391I-110J385D01*
G02X127177Y47393I1190J156D01*
G37*
G36*
G01X9591Y48619D02*
G03X9605Y48900I-135J148D01*
G02X11308Y48814I894J801D01*
G03X11294Y48533I135J-148D01*
G02X9591Y48619I-894J-801D01*
G37*
G36*
G01X48894Y50963D02*
G03X48694Y50783I-1J-200D01*
G02X47506Y52100I-1194J117D01*
G03X47706Y52281I1J200D01*
G02X48894Y50963I1194J-117D01*
G37*
G36*
G01X53450Y50695D02*
G03X53221Y50571I-42J-195D01*
G02X52355Y52173I-1121J429D01*
G03X52584Y52297I42J195D01*
G02X54407Y52842I1121J-429D01*
G03X54663Y52860I117J162D01*
G02X54798Y51026I837J-860D01*
G03X54542Y51008I-117J-162D01*
G02X53450Y50695I-837J860D01*
G37*
G36*
G01X44857Y55340D02*
G03X45405Y55318I286J280D01*
G02X45335Y53572I787J-906D01*
G03X44787Y53594I-286J-280D01*
G02X44857Y55340I-787J906D01*
G37*
G36*
G01X100531Y57743D02*
G03X100031Y57643I-190J-352D01*
G02X99669Y59457I-931J757D01*
G03X100169Y59557I190J352D01*
G02X100531Y57743I931J-757D01*
G37*
G36*
G01X91009Y57592D02*
G03X90486I-262J-302D01*
G02Y59408I-786J907D01*
G03X91009I262J302D01*
G02Y57592I786J-908D01*
G37*
G36*
G01X140473Y20159D02*
G03X140886Y19748I400J-11D01*
G02X138493Y18713I114J-3548D01*
G03X138476Y19295I-283J283D01*
G02X140473Y20159I797J897D01*
G37*
G54D14*
X219900Y34300D03*
Y37300D03*
X217000Y37200D03*
X273000Y52300D03*
X279700Y23000D03*
X282600Y48400D03*
X291200Y38100D03*
X290500Y31900D03*
X290200Y21900D03*
X284200Y18500D03*
X285700Y11500D03*
X274300Y16200D03*
X265200Y12000D03*
X257900Y21200D03*
X252000Y39200D03*
X254100Y41200D03*
X248500Y21900D03*
X225300Y20700D03*
X220000Y26700D03*
X217100Y24700D03*
X217400Y41500D03*
X226700Y52500D03*
X290366Y52134D03*
X272400Y45154D03*
X265000Y39500D03*
X265700Y21000D03*
X260300Y35500D03*
X260707Y28807D03*
X257944Y30744D03*
X247059Y52959D03*
X251390Y52710D03*
X245000Y14200D03*
X239516Y42600D03*
X240500Y14300D03*
X226800Y14600D03*
X194900Y59100D03*
X194200Y52200D03*
X189700Y51800D03*
X176000Y54700D03*
X177300Y46500D03*
X170900Y59600D03*
X171624Y52624D03*
X173370Y8300D03*
X149600Y16500D03*
X136850Y58950D03*
X135700Y52500D03*
X132300Y13600D03*
X132600Y9498D03*
X131300Y53500D03*
X129463Y46874D03*
X131200Y36100D03*
X127500Y6795D03*
X117800Y58400D03*
X115949Y42000D03*
X119100Y40300D03*
X117425Y35925D03*
X120574Y29823D03*
X117425Y20177D03*
X120574Y14075D03*
X118300Y7000D03*
X117425Y14075D03*
X107976Y29823D03*
X114275D03*
X111126Y20177D03*
Y14075D03*
X107976Y11000D03*
X111097Y11216D03*
X107976Y14075D03*
X113900Y7000D03*
X114275Y14075D03*
X101846Y35747D03*
X98527Y38800D03*
X103300Y39800D03*
X98527Y35925D03*
X101677Y29823D03*
X104900D03*
X103100Y26700D03*
X101700Y20177D03*
X104827D03*
X98527D03*
X98933Y17081D03*
X98527Y14075D03*
Y11000D03*
X104827Y14075D03*
X101677D03*
X98295Y6515D03*
X103921Y6400D03*
X95252Y38948D03*
X95378Y35925D03*
X95261Y32659D03*
X95369Y20100D03*
X95378Y14075D03*
X89000Y11113D03*
X90934Y13367D03*
X86300Y35500D03*
X82700Y35600D03*
X80431Y4148D03*
X85807Y3053D03*
X83788Y4994D03*
X75552Y27220D03*
X73039Y24615D03*
X78000Y2500D03*
X70480Y29733D03*
X67921Y16937D03*
X62803Y42504D03*
X50953Y10803D03*
X43800Y51600D03*
X38279Y21005D03*
X36300Y49500D03*
X32350Y8600D03*
X27900Y36100D03*
X27968Y24503D03*
X28300Y14200D03*
X12400Y51800D03*
X12000Y16500D03*
X19400Y3638D03*
X3762Y58362D03*
X224700Y45300D03*
X218400Y57600D03*
X217100Y31900D03*
X220000Y29700D03*
X217600Y20700D03*
X231900Y14200D03*
X249400Y13600D03*
X262100Y52200D03*
X257400Y12900D03*
X265400Y17200D03*
X276900Y11700D03*
X291500Y12000D03*
X285100Y25800D03*
X283900Y34100D03*
X284800Y41500D03*
X287100Y48700D03*
X290100Y44500D03*
X270200Y32300D03*
X218300Y53800D03*
X217300Y12900D03*
X174600Y59200D03*
G54D15*
X316500Y59000D03*
%LPD*%
G75*
G36*
G01X156729Y54200D02*
X167734D01*
X169200Y52734D01*
Y35723D01*
G02X168575Y35392I-400J0D01*
G03Y33408I-675J-992D01*
G02X169200Y33077I225J-331D01*
G01Y16013D01*
G03Y15987I1200J-13D01*
G01Y15266D01*
X167934Y14000D01*
X167402D01*
X167397Y14195D01*
G03X164997I-1200J-31D01*
G01X164992Y14000D01*
X163666D01*
X161800Y15866D01*
Y21566D01*
X159666Y23700D01*
X146466D01*
X145100Y25066D01*
Y27383D01*
X145207Y27439D01*
G03Y29561I-561J1061D01*
G01X145100Y29617D01*
Y32166D01*
X138900Y38366D01*
Y52334D01*
X140766Y54200D01*
X152335D01*
G02X152651Y53555I0J-400D01*
G03X154391Y51918I949J-735D01*
G01X154418Y51941D01*
X154552Y51994D01*
X154672Y51954D01*
X154697Y51936D01*
G03X156397Y53577I703J972D01*
G02X156729Y54200I332J223D01*
G37*
G36*
G01X178666Y5200D02*
X176700Y7166D01*
Y11052D01*
G02X176895Y11252I200J0D01*
G03X179602Y12620I-95J3549D01*
G02X180300Y12493I316J-246D01*
G03X180897Y13914I1147J354D01*
G02X180318Y14323I-183J356D01*
G03X176895Y18348I-3518J477D01*
G02X176700Y18548I5J200D01*
G01Y24960D01*
G03Y27040I-600J1040D01*
G01Y28347D01*
G02X177135Y28745I400J0D01*
G03Y31136I106J1195D01*
G02X176700Y31535I-35J398D01*
G01Y31834D01*
X176729Y31882D01*
G03X176700Y33164I-1029J618D01*
G01Y39163D01*
G02X176903Y39363I200J0D01*
G03X177639Y41526I19J1200D01*
G02X177595Y42129I239J321D01*
G01X179422Y43956D01*
G02X180104Y43705I283J-283D01*
G03X181395Y44996I1196J95D01*
G02X181144Y45678I32J399D01*
G01X183966Y48500D01*
X207434D01*
X213400Y42534D01*
Y17866D01*
X206934Y11400D01*
X193264D01*
G02X192962Y12062I0J400D01*
G03X191146I-908J785D01*
G02X190843Y11400I-303J-262D01*
G01X189834D01*
X183634Y5200D01*
X178666D01*
G37*
%LPC*%
G75*
G36*
G01X167005Y38570D02*
G03X166876Y38342I67J-188D01*
G02X165296Y39230I-1176J-242D01*
G03X165424Y39458I-67J188D01*
G02X165418Y39906I1176J242D01*
G03X165260Y40136I-197J34D01*
G02X166682Y41106I240J1176D01*
G03X166840Y40876I197J-34D01*
G02X167005Y38570I-239J-1176D01*
G37*
G36*
G01X147651Y34735D02*
G02X145964Y36422I-938J749D01*
G03Y37047I-250J312D01*
G02Y38922I749J938D01*
G03Y39547I-250J313D01*
G02Y41422I749J937D01*
G03Y42047I-250J312D01*
G02Y43922I749J938D01*
G03Y44547I-250J312D01*
G02X147651Y46234I749J938D01*
G03X148276I313J250D01*
G02X150150I938J-749D01*
G03X150776I313J250D01*
G02X152651I937J-749D01*
G03X153276I312J250D01*
G02X155150I938J-749D01*
G03X155776I313J250D01*
G02X157650I937J-749D01*
G03X158276I313J250D01*
G02X159962Y44547I937J-749D01*
G03Y43922I250J-312D01*
G02Y42047I-749J-938D01*
G03Y41422I250J-312D01*
G02Y39547I-749J-938D01*
G03Y38922I250J-312D01*
G02Y37047I-749J-937D01*
G03Y36422I250J-312D01*
G02X158276Y34735I-749J-938D01*
G03X157650I-313J-250D01*
G02X155776I-937J749D01*
G03X155150I-313J-250D01*
G02X153276I-937J749D01*
G03X152651I-313J-250D01*
G02X150776I-938J749D01*
G03X150150I-313J-250D01*
G02X148276I-937J749D01*
G03X147651I-312J-250D01*
G37*
G36*
G01X160184Y27125D02*
G03X159536Y27075I-305J-258D01*
G02X159428Y28475I-1025J625D01*
G03X160075Y28525I305J258D01*
G02X160184Y27125I1025J-625D01*
G37*
G36*
G01X166858Y29324D02*
G03X166927Y28755I312J-251D01*
G02X165265Y28553I-727J-955D01*
G03X165196Y29122I-312J251D01*
G02X164799Y29656I727J955D01*
G03X164368Y29912I-375J-140D01*
G02X165324Y31521I-168J1188D01*
G03X165755Y31265I375J140D01*
G02X166858Y29324I169J-1188D01*
G37*
G36*
G01X187437Y27301D02*
G03X186937I-250J-312D01*
G02X185250Y28988I-750J937D01*
G03Y29488I-312J250D01*
G02X186937Y31175I937J750D01*
G03X187437I250J312D01*
G02X188937I750J-937D01*
G03X189437I250J312D01*
G02X190937I750J-937D01*
G03X191437I250J312D01*
G02X192991Y31129I750J-937D01*
G03X193544Y31145I268J297D01*
G02X193558Y31160I856J-841D01*
G03Y31445I-140J143D01*
G02X193462Y33053I840J857D01*
G03Y33553I-312J250D01*
G02Y35053I937J750D01*
G03Y35553I-312J250D01*
G02X195149Y37240I937J750D01*
G03X195649I250J312D01*
G02X197336Y35553I750J-937D01*
G03Y35053I312J-250D01*
G02Y33553I-937J-750D01*
G03Y33053I312J-250D01*
G02Y31553I-937J-750D01*
G03Y31053I312J-250D01*
G02Y29553I-937J-750D01*
G03Y29053I312J-250D01*
G02X195649Y27366I-937J-750D01*
G03X195149I-250J-312D01*
G02X193594Y27412I-750J937D01*
G03X193042Y27396I-268J-297D01*
G02X191437Y27301I-855J843D01*
G03X190937I-250J-312D01*
G02X189437I-750J937D01*
G03X188937I-250J-312D01*
G02X187437I-750J937D01*
G37*
G54D14*
X143400Y52300D03*
X140700Y40400D03*
X140680Y44437D03*
X155362Y28038D03*
X150638Y27500D03*
X165823Y49500D03*
X187046Y12846D03*
X197500Y16800D03*
X199177Y46494D03*
X211300Y19900D03*
G54D16*
X208500Y35614D03*
%LPD*%
G75*
G54D10*
X8186Y27866D03*
X10400Y30494D03*
X8883Y29525D03*
X10400Y47732D03*
X10499Y49701D03*
X3762Y58362D03*
X19400Y3638D03*
X15700Y17900D03*
X14600Y19800D03*
X16100Y20800D03*
X12000Y16500D03*
X14300Y30000D03*
X16500Y25000D03*
X14300Y28200D03*
X15000Y26400D03*
X13200Y26700D03*
X14900Y37700D03*
X15000Y39800D03*
Y34000D03*
Y35800D03*
X12400Y51800D03*
X28300Y14200D03*
X28200Y17800D03*
X28000Y19800D03*
Y21700D03*
X28270Y29150D03*
X28207Y31140D03*
X27968Y24503D03*
X27900Y36100D03*
X33761Y5539D03*
X33146Y2846D03*
X28600Y8300D03*
X32350Y8600D03*
X36553Y18171D03*
X36300Y49500D03*
X34922Y50658D03*
X40000Y800D03*
X43500Y900D03*
X44600Y8600D03*
X39400Y13000D03*
X39300Y15100D03*
X42473Y19447D03*
X44977Y22280D03*
X38705Y18200D03*
X38279Y21005D03*
X44787Y19438D03*
X44818Y24519D03*
X44900Y27000D03*
X42406Y29970D03*
X42300Y27100D03*
X45000Y29900D03*
X39012Y31191D03*
X39277Y38677D03*
X44914Y39944D03*
X39241Y33426D03*
X42355Y39955D03*
Y34826D03*
Y37385D03*
X44914Y34826D03*
Y37385D03*
X39300Y36226D03*
X39200Y41400D03*
X39000Y44500D03*
X38900Y46400D03*
X43800Y51600D03*
X44000Y54500D03*
X47000Y800D03*
X50500D03*
X54000D03*
X50953Y10803D03*
X53858Y10808D03*
X46700Y8750D03*
X48500Y9300D03*
X50076Y19725D03*
X52587Y16937D03*
X49959Y16819D03*
X52591Y19496D03*
X47563Y22252D03*
X47587Y19443D03*
X47473Y29733D03*
X47600Y27200D03*
X52591Y24615D03*
Y27174D03*
Y29733D03*
X47600Y24600D03*
X52591Y37385D03*
Y34826D03*
X47473Y42504D03*
X50032D03*
X49882Y45045D03*
X52591Y42504D03*
X46192Y54412D03*
X53705Y51868D03*
X52100Y51000D03*
X48900Y52163D03*
X47500Y50900D03*
X57200Y1700D03*
X57110Y9810D03*
X55258Y9600D03*
X55150Y19496D03*
X55387Y16988D03*
X57709Y19496D03*
X62803D03*
X57800Y22600D03*
X57709Y16937D03*
X62803D03*
X55150Y27174D03*
Y24615D03*
X62803Y27174D03*
X57709D03*
Y24615D03*
X62803D03*
X55150Y29733D03*
X62803D03*
X57709D03*
X55150Y34826D03*
Y37385D03*
X57709Y34826D03*
Y37385D03*
X62803Y34826D03*
Y37385D03*
X57700Y39900D03*
X55150Y42504D03*
X57709D03*
X62803D03*
X55150Y45063D03*
X57709D03*
X62803D03*
X55500Y52000D03*
X57000Y53000D03*
X67921Y16937D03*
X65362D03*
Y19496D03*
Y24615D03*
Y27174D03*
Y29733D03*
X70480D03*
Y27174D03*
X67654Y29800D03*
X65362Y34826D03*
X70480D03*
Y37385D03*
X65362D03*
X70480Y45063D03*
Y47622D03*
X78000Y2500D03*
X73039Y24615D03*
X75552Y27220D03*
X73039Y27174D03*
Y29733D03*
Y37385D03*
X79800Y36000D03*
X73039Y34826D03*
X75500Y50100D03*
X77922Y54378D03*
Y50126D03*
X75500Y54100D03*
X83788Y4994D03*
X85807Y3053D03*
X80431Y4148D03*
X82028Y1681D03*
X82600Y14900D03*
X82200Y12200D03*
X83200Y16700D03*
X84421Y18023D03*
X84500Y20000D03*
X87769Y27392D03*
X83980Y30106D03*
X82569Y28579D03*
X87600Y25592D03*
X81010Y37890D03*
X82700Y35600D03*
X81350Y39658D03*
X82573Y40978D03*
X86300Y35500D03*
X90545Y2320D03*
X89518Y3799D03*
X96846Y900D03*
X90934Y13367D03*
X89000Y11113D03*
X95378Y14075D03*
Y10926D03*
X95369Y20100D03*
X96600Y24582D03*
X93542Y26085D03*
X95261Y32659D03*
X94760Y24740D03*
X97200Y28182D03*
X93300Y27997D03*
X95378Y35925D03*
X95252Y38948D03*
X95300Y43700D03*
X91800Y44700D03*
X93450Y43850D03*
X91795Y58500D03*
X89700D03*
X103921Y6400D03*
X98295Y6515D03*
X104346Y900D03*
X101677Y14075D03*
X104827D03*
X98527Y11000D03*
Y14075D03*
X98550Y24050D03*
X100390Y23910D03*
X98933Y17081D03*
X98527Y20177D03*
X104827D03*
X101700D03*
X103100Y26700D03*
X104900Y29823D03*
X98527D03*
X101677D03*
X98527Y35925D03*
X103300Y39800D03*
X98527Y38800D03*
X101846Y35747D03*
X98724Y43447D03*
X101000Y43300D03*
X104700Y46700D03*
X99100Y58400D03*
X101100Y58800D03*
X107654Y900D03*
X114275Y14075D03*
X113900Y7000D03*
X107976Y14075D03*
X111097Y11216D03*
X107976Y11000D03*
X111126Y14075D03*
Y20177D03*
X107800D03*
X114275D03*
X107976Y29823D03*
X114275D03*
X111126D03*
X108250Y36050D03*
X122264Y6996D03*
X117425Y14075D03*
X118300Y7000D03*
X120574Y14075D03*
Y10926D03*
X117425Y20177D03*
X120574D03*
Y29823D03*
X120500Y26582D03*
X117425Y29823D03*
X122000Y32500D03*
X117425Y35925D03*
X120326Y35882D03*
X119100Y40300D03*
X121974Y34800D03*
X115949Y42000D03*
X117800Y58400D03*
X120500Y55900D03*
X123802Y6059D03*
X129500Y1000D03*
X127500Y6795D03*
X125600Y6900D03*
X131800Y1000D03*
X131636Y22020D03*
Y24020D03*
X127700Y32200D03*
X131636Y26020D03*
X128723Y33700D03*
X131200Y36100D03*
X126310Y39290D03*
X126856Y41078D03*
X126100Y37100D03*
X126847Y48547D03*
X125700Y46800D03*
X128330Y45472D03*
X129463Y46874D03*
X131300Y53500D03*
X131400Y58000D03*
X133030Y5870D03*
X140200Y1161D03*
X134600Y7500D03*
X132600Y9498D03*
X132300Y13600D03*
X139273Y20192D03*
X133336Y22020D03*
Y24020D03*
Y26020D03*
X140500Y46950D03*
X135700Y52500D03*
X133950Y57850D03*
X136850Y58950D03*
X146500Y21346D03*
X147470Y28180D03*
X144645Y28500D03*
X141900Y31000D03*
X140700Y40400D03*
X146713Y40484D03*
Y37985D03*
Y35484D03*
Y45485D03*
Y42984D03*
X140680Y42500D03*
Y44437D03*
X143400Y52300D03*
X152374Y10294D03*
X154400Y9600D03*
X155600Y7478D03*
X156500Y9100D03*
X149600Y16500D03*
X155362Y28038D03*
X153000Y27500D03*
X150638D03*
X156713Y40484D03*
X154213D03*
X151713D03*
X149213D03*
X156713Y37985D03*
X154213D03*
X151713D03*
X149213D03*
X156713Y35484D03*
X154213D03*
X151713D03*
X149213D03*
X156713Y45485D03*
X154213D03*
X151713D03*
X149213D03*
X156713Y42984D03*
X154213D03*
X151713D03*
X149213D03*
X153600Y52820D03*
X155400Y52908D03*
X159000Y9100D03*
X166197Y14163D03*
X165923Y30077D03*
X158512Y27700D03*
X161100Y27900D03*
X166200Y27800D03*
X164200Y31100D03*
X165500Y41313D03*
X159213Y40484D03*
Y37985D03*
Y35484D03*
X165701Y38100D03*
X165823Y49500D03*
X159213Y45485D03*
Y42984D03*
X165500Y46500D03*
X168600Y10100D03*
Y7534D03*
X173370Y8300D03*
X170400Y16000D03*
X167500Y15600D03*
X174900Y19200D03*
X167900Y34400D03*
X166600Y39700D03*
X171624Y52624D03*
X174600Y59200D03*
X170900Y59600D03*
X181446Y12846D03*
X178500Y8000D03*
X177600Y23900D03*
X176100Y26000D03*
X175700Y32500D03*
X177241Y29941D03*
X175200Y29800D03*
X176922Y40563D03*
X177506Y37618D03*
X177300Y46500D03*
X179100D03*
X181300Y43800D03*
X176000Y54700D03*
X187046Y12846D03*
X192054D03*
X191800Y8000D03*
X183823Y18400D03*
X186854Y16154D03*
X191900D03*
X188941Y18641D03*
X192187Y30238D03*
X190187D03*
X188187D03*
X186187D03*
X192187Y28238D03*
X190187D03*
X188187D03*
X186187D03*
X185161Y50839D03*
X189700Y51800D03*
X187720Y51200D03*
X189400Y56700D03*
X197500Y16800D03*
X196399Y32303D03*
X194399D03*
X196399Y30303D03*
X194399D03*
X196399Y28303D03*
X194399D03*
X196399Y36303D03*
X194399D03*
X196399Y34303D03*
X194399D03*
X199177Y46494D03*
X196618D03*
X194200Y52200D03*
X192839Y50761D03*
X195000Y56200D03*
X194900Y59100D03*
X208400Y19800D03*
X205459Y29941D03*
X217100Y2700D03*
X217300Y12900D03*
X217600Y20700D03*
X211300Y19900D03*
X217100Y24700D03*
Y31900D03*
X217000Y37200D03*
X217400Y41500D03*
X219600Y2800D03*
X226800Y14600D03*
X225300Y20700D03*
X220000Y26700D03*
Y29700D03*
X219900Y37300D03*
Y34300D03*
X224700Y45300D03*
X218300Y53800D03*
X218400Y57600D03*
X226700Y52500D03*
X231900Y14200D03*
X235244Y50344D03*
X240500Y14300D03*
X236000Y14400D03*
X242470Y31900D03*
X240470D03*
X238470D03*
X242470Y29900D03*
X240470D03*
X238470D03*
X242470Y33900D03*
X240470D03*
X238470D03*
X239516Y42600D03*
X241484Y42500D03*
X240756Y50556D03*
X242700Y52400D03*
X249400Y13600D03*
X245000Y14200D03*
X248500Y21900D03*
X252000Y39200D03*
X247200Y46600D03*
X251390Y52710D03*
X247059Y52959D03*
X257400Y12900D03*
X257900Y21200D03*
X260707Y28807D03*
X257944Y30744D03*
X254100Y41200D03*
X260300Y35500D03*
X265200Y12000D03*
X265400Y17200D03*
X265700Y21000D03*
X265000Y39500D03*
X262100Y52200D03*
X276900Y11700D03*
X274300Y16200D03*
X270200Y32300D03*
X272400Y45154D03*
X273000Y52300D03*
X277374Y52226D03*
X285700Y11500D03*
X279700Y23000D03*
X284200Y18500D03*
X285100Y25800D03*
X283900Y34100D03*
X282600Y48400D03*
X287100Y48700D03*
X284800Y41500D03*
X291500Y12000D03*
X290200Y21900D03*
X290500Y31900D03*
X291200Y38100D03*
X290100Y44500D03*
X290366Y52134D03*
G54D11*
X30000Y5000D03*
X316500Y59000D03*
G54D12*
X141000Y16200D03*
X176800Y14800D03*
G54D13*
X151126Y12087D03*
X166874D03*
X208500Y8055D03*
Y35614D03*
M02*
