G04 ================== begin FILE IDENTIFICATION RECORD ==================*
G04 Layout Name:  E:/material/glass/workspace/hardware/6.glass v1.1/core-pcb/core.brd*
G04 Film Name:    SIG1*
G04 File Format:  Gerber RS274X*
G04 File Origin:  Cadence Allegro 16.6-2015-S065*
G04 Origin Date:  Fri Dec 16 11:26:07 2016*
G04 *
G04 Layer:  ETCH/SIG1*
G04 Layer:  PIN/SIG1*
G04 Layer:  VIA CLASS/SIG1*
G04 *
G04 Offset:    (0.000 0.000)*
G04 Mirror:    No*
G04 Mode:      Positive*
G04 Rotation:  0*
G04 FullContactRelief:  No*
G04 UndefLineWidth:     1.000*
G04 ================== end FILE IDENTIFICATION RECORD ====================*
%FSLAX25Y25*MOIN*%
%IR0*IPPOS*OFA0.00000B0.00000*MIA0B0*SFA1.00000B1.00000*%
%ADD11C,.003937*%
%ADD10C,.012*%
%ADD13C,.000394*%
%ADD12C,.062992*%
%ADD14C,.004*%
%ADD15C,.008*%
G75*
%LPD*%
G75*
G54D10*
X8186Y27866D03*
X10400Y30494D03*
X8883Y29525D03*
X10400Y47732D03*
X10499Y49701D03*
X3762Y58362D03*
X19400Y3638D03*
X15700Y17900D03*
X14600Y19800D03*
X16100Y20800D03*
X12000Y16500D03*
X14300Y30000D03*
X16500Y25000D03*
X14300Y28200D03*
X15000Y26400D03*
X13200Y26700D03*
X14900Y37700D03*
X15000Y39800D03*
Y34000D03*
Y35800D03*
X12400Y51800D03*
X28300Y14200D03*
X28200Y17800D03*
X28000Y19800D03*
Y21700D03*
X28270Y29150D03*
X28207Y31140D03*
X27968Y24503D03*
X27900Y36100D03*
X33761Y5539D03*
X33146Y2846D03*
X28600Y8300D03*
X32350Y8600D03*
X36553Y18171D03*
X36300Y49500D03*
X34922Y50658D03*
X40000Y800D03*
X43500Y900D03*
X44600Y8600D03*
X39400Y13000D03*
X39300Y15100D03*
X42473Y19447D03*
X44977Y22280D03*
X38705Y18200D03*
X38279Y21005D03*
X44787Y19438D03*
X44818Y24519D03*
X44900Y27000D03*
X42406Y29970D03*
X42300Y27100D03*
X45000Y29900D03*
X39012Y31191D03*
X39277Y38677D03*
X44914Y39944D03*
X39241Y33426D03*
X42355Y39955D03*
Y34826D03*
Y37385D03*
X44914Y34826D03*
Y37385D03*
X39300Y36226D03*
X39200Y41400D03*
X39000Y44500D03*
X38900Y46400D03*
X43800Y51600D03*
X44000Y54500D03*
X47000Y800D03*
X50500D03*
X54000D03*
X50953Y10803D03*
X53858Y10808D03*
X46700Y8750D03*
X48500Y9300D03*
X50076Y19725D03*
X52587Y16937D03*
X49959Y16819D03*
X52591Y19496D03*
X47563Y22252D03*
X47587Y19443D03*
X47473Y29733D03*
X47600Y27200D03*
X52591Y24615D03*
Y27174D03*
Y29733D03*
X47600Y24600D03*
X52591Y37385D03*
Y34826D03*
X47473Y42504D03*
X50032D03*
X49882Y45045D03*
X52591Y42504D03*
X46192Y54412D03*
X53705Y51868D03*
X52100Y51000D03*
X48900Y52163D03*
X47500Y50900D03*
X57200Y1700D03*
X57110Y9810D03*
X55258Y9600D03*
X55150Y19496D03*
X55387Y16988D03*
X57709Y19496D03*
X62803D03*
X57800Y22600D03*
X57709Y16937D03*
X62803D03*
X55150Y27174D03*
Y24615D03*
X62803Y27174D03*
X57709D03*
Y24615D03*
X62803D03*
X55150Y29733D03*
X62803D03*
X57709D03*
X55150Y34826D03*
Y37385D03*
X57709Y34826D03*
Y37385D03*
X62803Y34826D03*
Y37385D03*
X57700Y39900D03*
X55150Y42504D03*
X57709D03*
X62803D03*
X55150Y45063D03*
X57709D03*
X62803D03*
X55500Y52000D03*
X57000Y53000D03*
X67921Y16937D03*
X65362D03*
Y19496D03*
Y24615D03*
Y27174D03*
Y29733D03*
X70480D03*
Y27174D03*
X67654Y29800D03*
X65362Y34826D03*
X70480D03*
Y37385D03*
X65362D03*
X70480Y45063D03*
Y47622D03*
X78000Y2500D03*
X73039Y24615D03*
X75552Y27220D03*
X73039Y27174D03*
Y29733D03*
Y37385D03*
X79800Y36000D03*
X73039Y34826D03*
X75500Y50100D03*
X77922Y54378D03*
Y50126D03*
X75500Y54100D03*
X83788Y4994D03*
X85807Y3053D03*
X80431Y4148D03*
X82028Y1681D03*
X82600Y14900D03*
X82200Y12200D03*
X83200Y16700D03*
X84421Y18023D03*
X84500Y20000D03*
X87769Y27392D03*
X83980Y30106D03*
X82569Y28579D03*
X87600Y25592D03*
X81010Y37890D03*
X82700Y35600D03*
X81350Y39658D03*
X82573Y40978D03*
X86300Y35500D03*
X90545Y2320D03*
X89518Y3799D03*
X96846Y900D03*
X90934Y13367D03*
X89000Y11113D03*
X95378Y14075D03*
Y10926D03*
X95369Y20100D03*
X96600Y24582D03*
X93542Y26085D03*
X95261Y32659D03*
X94760Y24740D03*
X97200Y28182D03*
X93300Y27997D03*
X95378Y35925D03*
X95252Y38948D03*
X95300Y43700D03*
X91800Y44700D03*
X93450Y43850D03*
X91795Y58500D03*
X89700D03*
X103921Y6400D03*
X98295Y6515D03*
X104346Y900D03*
X101677Y14075D03*
X104827D03*
X98527Y11000D03*
Y14075D03*
X98550Y24050D03*
X100390Y23910D03*
X98933Y17081D03*
X98527Y20177D03*
X104827D03*
X101700D03*
X103100Y26700D03*
X104900Y29823D03*
X98527D03*
X101677D03*
X98527Y35925D03*
X103300Y39800D03*
X98527Y38800D03*
X101846Y35747D03*
X98724Y43447D03*
X101000Y43300D03*
X104700Y46700D03*
X99100Y58400D03*
X101100Y58800D03*
X107654Y900D03*
X114275Y14075D03*
X113900Y7000D03*
X107976Y14075D03*
X111097Y11216D03*
X107976Y11000D03*
X111126Y14075D03*
Y20177D03*
X107800D03*
X114275D03*
X107976Y29823D03*
X114275D03*
X111126D03*
X108250Y36050D03*
X122264Y6996D03*
X117425Y14075D03*
X118300Y7000D03*
X120574Y14075D03*
Y10926D03*
X117425Y20177D03*
X120574D03*
Y29823D03*
X120500Y26582D03*
X117425Y29823D03*
X122000Y32500D03*
X117425Y35925D03*
X120326Y35882D03*
X119100Y40300D03*
X121974Y34800D03*
X115949Y42000D03*
X117800Y58400D03*
X120500Y55900D03*
X123802Y6059D03*
X129500Y1000D03*
X127500Y6795D03*
X125600Y6900D03*
X131800Y1000D03*
X131636Y22020D03*
Y24020D03*
X127700Y32200D03*
X131636Y26020D03*
X128723Y33700D03*
X131200Y36100D03*
X126310Y39290D03*
X126856Y41078D03*
X126100Y37100D03*
X126847Y48547D03*
X125700Y46800D03*
X128330Y45472D03*
X129463Y46874D03*
X131300Y53500D03*
X131400Y58000D03*
X133030Y5870D03*
X140200Y1161D03*
X134600Y7500D03*
X132600Y9498D03*
X132300Y13600D03*
X139273Y20192D03*
X133336Y22020D03*
Y24020D03*
Y26020D03*
X140500Y46950D03*
X135700Y52500D03*
X133950Y57850D03*
X136850Y58950D03*
X146500Y21346D03*
X147470Y28180D03*
X144645Y28500D03*
X141900Y31000D03*
X140700Y40400D03*
X146713Y40484D03*
Y37985D03*
Y35484D03*
Y45485D03*
Y42984D03*
X140680Y42500D03*
Y44437D03*
X143400Y52300D03*
X152374Y10294D03*
X154400Y9600D03*
X155600Y7478D03*
X156500Y9100D03*
X149600Y16500D03*
X155362Y28038D03*
X153000Y27500D03*
X150638D03*
X156713Y40484D03*
X154213D03*
X151713D03*
X149213D03*
X156713Y37985D03*
X154213D03*
X151713D03*
X149213D03*
X156713Y35484D03*
X154213D03*
X151713D03*
X149213D03*
X156713Y45485D03*
X154213D03*
X151713D03*
X149213D03*
X156713Y42984D03*
X154213D03*
X151713D03*
X149213D03*
X153600Y52820D03*
X155400Y52908D03*
X159000Y9100D03*
X166197Y14163D03*
X165923Y30077D03*
X158512Y27700D03*
X161100Y27900D03*
X166200Y27800D03*
X164200Y31100D03*
X165500Y41313D03*
X159213Y40484D03*
Y37985D03*
Y35484D03*
X165701Y38100D03*
X165823Y49500D03*
X159213Y45485D03*
Y42984D03*
X165500Y46500D03*
X168600Y10100D03*
Y7534D03*
X173370Y8300D03*
X170400Y16000D03*
X167500Y15600D03*
X174900Y19200D03*
X167900Y34400D03*
X166600Y39700D03*
X171624Y52624D03*
X174600Y59200D03*
X170900Y59600D03*
X181446Y12846D03*
X178500Y8000D03*
X177600Y23900D03*
X176100Y26000D03*
X175700Y32500D03*
X177241Y29941D03*
X175200Y29800D03*
X176922Y40563D03*
X177506Y37618D03*
X177300Y46500D03*
X179100D03*
X181300Y43800D03*
X176000Y54700D03*
X187046Y12846D03*
X192054D03*
X191800Y8000D03*
X183823Y18400D03*
X186854Y16154D03*
X191900D03*
X188941Y18641D03*
X192187Y30238D03*
X190187D03*
X188187D03*
X186187D03*
X192187Y28238D03*
X190187D03*
X188187D03*
X186187D03*
X185161Y50839D03*
X189700Y51800D03*
X187720Y51200D03*
X189400Y56700D03*
X197500Y16800D03*
X196399Y32303D03*
X194399D03*
X196399Y30303D03*
X194399D03*
X196399Y28303D03*
X194399D03*
X196399Y36303D03*
X194399D03*
X196399Y34303D03*
X194399D03*
X199177Y46494D03*
X196618D03*
X194200Y52200D03*
X192839Y50761D03*
X195000Y56200D03*
X194900Y59100D03*
X208400Y19800D03*
X205459Y29941D03*
X217100Y2700D03*
X217300Y12900D03*
X217600Y20700D03*
X211300Y19900D03*
X217100Y24700D03*
Y31900D03*
X217000Y37200D03*
X217400Y41500D03*
X219600Y2800D03*
X226800Y14600D03*
X225300Y20700D03*
X220000Y26700D03*
Y29700D03*
X219900Y37300D03*
Y34300D03*
X224700Y45300D03*
X218300Y53800D03*
X218400Y57600D03*
X226700Y52500D03*
X231900Y14200D03*
X235244Y50344D03*
X240500Y14300D03*
X236000Y14400D03*
X242470Y31900D03*
X240470D03*
X238470D03*
X242470Y29900D03*
X240470D03*
X238470D03*
X242470Y33900D03*
X240470D03*
X238470D03*
X239516Y42600D03*
X241484Y42500D03*
X240756Y50556D03*
X242700Y52400D03*
X249400Y13600D03*
X245000Y14200D03*
X248500Y21900D03*
X252000Y39200D03*
X247200Y46600D03*
X251390Y52710D03*
X247059Y52959D03*
X257400Y12900D03*
X257900Y21200D03*
X260707Y28807D03*
X257944Y30744D03*
X254100Y41200D03*
X260300Y35500D03*
X265200Y12000D03*
X265400Y17200D03*
X265700Y21000D03*
X265000Y39500D03*
X262100Y52200D03*
X276900Y11700D03*
X274300Y16200D03*
X270200Y32300D03*
X272400Y45154D03*
X273000Y52300D03*
X277374Y52226D03*
X285700Y11500D03*
X279700Y23000D03*
X284200Y18500D03*
X285100Y25800D03*
X283900Y34100D03*
X282600Y48400D03*
X287100Y48700D03*
X284800Y41500D03*
X291500Y12000D03*
X290200Y21900D03*
X290500Y31900D03*
X291200Y38100D03*
X290100Y44500D03*
X290366Y52134D03*
G54D11*
X30000Y5000D03*
X316500Y59000D03*
G54D12*
X141000Y16200D03*
X176800Y14800D03*
G54D13*
X151126Y12087D03*
X166874D03*
X208500Y8055D03*
Y35614D03*
G54D14*
G01X91795Y58500D02*
X90295Y57000D01*
X88100D01*
X85800Y59300D01*
X34900D01*
X29800Y54200D01*
Y35100D01*
X24700Y30000D01*
Y22700D01*
X26000Y21400D01*
Y19200D01*
X27400Y17800D01*
X28200D01*
G01X95300Y43700D02*
Y44100D01*
X95532Y44332D01*
Y45768D01*
X84600Y56700D01*
X36300D01*
X32200Y52600D01*
Y29700D01*
X28500Y26000D01*
X27100D01*
X26400Y25300D01*
Y24000D01*
X27300Y23100D01*
X28884D01*
X29592Y22392D01*
Y20955D01*
X28437Y19800D01*
X28000D01*
G01X122264Y6996D02*
X122276D01*
X123400Y8120D01*
Y38600D01*
X112900Y49100D01*
X93500D01*
X85100Y57500D01*
X35900D01*
X31400Y53000D01*
Y30031D01*
X28569Y27200D01*
X26716D01*
X25500Y25984D01*
Y23769D01*
X27569Y21700D01*
X28000D01*
G01X47473Y29733D02*
X45835Y31370D01*
X41826D01*
X34353Y23898D01*
Y8947D01*
X39100Y4200D01*
X76300D01*
X79294Y7194D01*
X90906D01*
X94900Y3200D01*
X119800D01*
X120900Y2100D01*
X128620D01*
X132390Y5870D01*
X133030D01*
G01X47600Y27200D02*
X46300Y28500D01*
X41720D01*
X35153Y21933D01*
Y13804D01*
X43707Y5250D01*
X76150D01*
X78894Y7994D01*
X91606D01*
X95500Y4100D01*
X120400D01*
X121600Y2900D01*
X128080D01*
X132450Y7270D01*
X134370D01*
X134600Y7500D01*
G01X50076Y19725D02*
X48950Y20851D01*
X42948D01*
X41300Y22500D01*
X37794D01*
X36553Y21259D01*
Y18171D01*
G01X28270Y29150D02*
X30600Y31480D01*
Y53331D01*
X35669Y58400D01*
X85400D01*
X93200Y50600D01*
X113500D01*
X124200Y39900D01*
Y6457D01*
X123802Y6059D01*
G01X27968Y24503D02*
X28134D01*
X33000Y29369D01*
Y52269D01*
X36631Y55900D01*
X84000D01*
X93450Y46450D01*
Y43850D01*
G01X132600Y9498D02*
Y9497D01*
X132100Y8997D01*
Y8189D01*
X127611Y3700D01*
X122300D01*
X121000Y5000D01*
X96200D01*
X92406Y8794D01*
X78394D01*
X75650Y6050D01*
X44039D01*
X42400Y7689D01*
Y17050D01*
X44787Y19438D01*
G01X132300Y13600D02*
Y12200D01*
X131200Y11100D01*
Y8515D01*
X127185Y4500D01*
X122780D01*
X118880Y8400D01*
X94100D01*
X92906Y9594D01*
X77894D01*
X75150Y6850D01*
X44370D01*
X43200Y8020D01*
Y15056D01*
X47587Y19443D01*
G01X75552Y27220D02*
X78720D01*
X80100Y25840D01*
Y13200D01*
X74550Y7650D01*
X47800D01*
X46700Y8750D01*
G01X47473Y29673D02*
Y29733D01*
G01X47553Y27200D02*
X47526Y27174D01*
G01X47553Y27200D02*
X47400D01*
X47374Y27174D01*
G01X47600Y27200D02*
X47553D01*
G01X129500Y1000D02*
X120868D01*
X119568Y2300D01*
X94380D01*
X90286Y6394D01*
X79694D01*
X76400Y3100D01*
X58600D01*
X57200Y1700D01*
G01X126847Y48547D02*
X127300Y48094D01*
Y46420D01*
X126800Y45920D01*
Y44900D01*
X136000Y35700D01*
Y6920D01*
X135180Y6100D01*
X135084D01*
X134984Y6000D01*
X133160D01*
X133030Y5870D01*
G01X125700Y46800D02*
Y44782D01*
X134736Y35746D01*
Y7636D01*
X134600Y7500D01*
G54D15*
G01X12400Y51800D02*
Y27500D01*
X13200Y26700D01*
G01X12400Y51800D02*
X21200Y60600D01*
X157400D01*
X162500Y55500D01*
Y41500D01*
X164300Y39700D01*
X166600D01*
M02*
