G04 ================== begin FILE IDENTIFICATION RECORD ==================*
G04 Layout Name:  E:/material/glass/workspace/hardware/6.glass v1.1/core-pcb/core.brd*
G04 Film Name:    SIG2*
G04 File Format:  Gerber RS274X*
G04 File Origin:  Cadence Allegro 16.6-2015-S065*
G04 Origin Date:  Fri Dec 16 11:26:07 2016*
G04 *
G04 Layer:  ETCH/SIG2*
G04 Layer:  PIN/SIG2*
G04 Layer:  VIA CLASS/SIG2*
G04 *
G04 Offset:    (0.000 0.000)*
G04 Mirror:    No*
G04 Mode:      Positive*
G04 Rotation:  0*
G04 FullContactRelief:  No*
G04 UndefLineWidth:     1.000*
G04 ================== end FILE IDENTIFICATION RECORD ====================*
%FSLAX25Y25*MOIN*%
%IR0*IPPOS*OFA0.00000B0.00000*MIA0B0*SFA1.00000B1.00000*%
%ADD11C,.003937*%
%ADD10C,.012*%
%ADD13C,.000394*%
%ADD12C,.062992*%
%ADD14C,.004*%
%ADD15C,.008*%
G75*
%LPD*%
G75*
G54D10*
X8186Y27866D03*
X10400Y30494D03*
X8883Y29525D03*
X10400Y47732D03*
X10499Y49701D03*
X3762Y58362D03*
X19400Y3638D03*
X15700Y17900D03*
X14600Y19800D03*
X16100Y20800D03*
X12000Y16500D03*
X14300Y30000D03*
X16500Y25000D03*
X14300Y28200D03*
X15000Y26400D03*
X13200Y26700D03*
X14900Y37700D03*
X15000Y39800D03*
Y34000D03*
Y35800D03*
X12400Y51800D03*
X28300Y14200D03*
X28200Y17800D03*
X28000Y19800D03*
Y21700D03*
X28270Y29150D03*
X28207Y31140D03*
X27968Y24503D03*
X27900Y36100D03*
X33761Y5539D03*
X33146Y2846D03*
X28600Y8300D03*
X32350Y8600D03*
X36553Y18171D03*
X36300Y49500D03*
X34922Y50658D03*
X40000Y800D03*
X43500Y900D03*
X44600Y8600D03*
X39400Y13000D03*
X39300Y15100D03*
X42473Y19447D03*
X44977Y22280D03*
X38705Y18200D03*
X38279Y21005D03*
X44787Y19438D03*
X44818Y24519D03*
X44900Y27000D03*
X42406Y29970D03*
X42300Y27100D03*
X45000Y29900D03*
X39012Y31191D03*
X39277Y38677D03*
X44914Y39944D03*
X39241Y33426D03*
X42355Y39955D03*
Y34826D03*
Y37385D03*
X44914Y34826D03*
Y37385D03*
X39300Y36226D03*
X39200Y41400D03*
X39000Y44500D03*
X38900Y46400D03*
X43800Y51600D03*
X44000Y54500D03*
X47000Y800D03*
X50500D03*
X54000D03*
X50953Y10803D03*
X53858Y10808D03*
X46700Y8750D03*
X48500Y9300D03*
X50076Y19725D03*
X52587Y16937D03*
X49959Y16819D03*
X52591Y19496D03*
X47563Y22252D03*
X47587Y19443D03*
X47473Y29733D03*
X47600Y27200D03*
X52591Y24615D03*
Y27174D03*
Y29733D03*
X47600Y24600D03*
X52591Y37385D03*
Y34826D03*
X47473Y42504D03*
X50032D03*
X49882Y45045D03*
X52591Y42504D03*
X46192Y54412D03*
X53705Y51868D03*
X52100Y51000D03*
X48900Y52163D03*
X47500Y50900D03*
X57200Y1700D03*
X57110Y9810D03*
X55258Y9600D03*
X55150Y19496D03*
X55387Y16988D03*
X57709Y19496D03*
X62803D03*
X57800Y22600D03*
X57709Y16937D03*
X62803D03*
X55150Y27174D03*
Y24615D03*
X62803Y27174D03*
X57709D03*
Y24615D03*
X62803D03*
X55150Y29733D03*
X62803D03*
X57709D03*
X55150Y34826D03*
Y37385D03*
X57709Y34826D03*
Y37385D03*
X62803Y34826D03*
Y37385D03*
X57700Y39900D03*
X55150Y42504D03*
X57709D03*
X62803D03*
X55150Y45063D03*
X57709D03*
X62803D03*
X55500Y52000D03*
X57000Y53000D03*
X67921Y16937D03*
X65362D03*
Y19496D03*
Y24615D03*
Y27174D03*
Y29733D03*
X70480D03*
Y27174D03*
X67654Y29800D03*
X65362Y34826D03*
X70480D03*
Y37385D03*
X65362D03*
X70480Y45063D03*
Y47622D03*
X78000Y2500D03*
X73039Y24615D03*
X75552Y27220D03*
X73039Y27174D03*
Y29733D03*
Y37385D03*
X79800Y36000D03*
X73039Y34826D03*
X75500Y50100D03*
X77922Y54378D03*
Y50126D03*
X75500Y54100D03*
X83788Y4994D03*
X85807Y3053D03*
X80431Y4148D03*
X82028Y1681D03*
X82600Y14900D03*
X82200Y12200D03*
X83200Y16700D03*
X84421Y18023D03*
X84500Y20000D03*
X87769Y27392D03*
X83980Y30106D03*
X82569Y28579D03*
X87600Y25592D03*
X81010Y37890D03*
X82700Y35600D03*
X81350Y39658D03*
X82573Y40978D03*
X86300Y35500D03*
X90545Y2320D03*
X89518Y3799D03*
X96846Y900D03*
X90934Y13367D03*
X89000Y11113D03*
X95378Y14075D03*
Y10926D03*
X95369Y20100D03*
X96600Y24582D03*
X93542Y26085D03*
X95261Y32659D03*
X94760Y24740D03*
X97200Y28182D03*
X93300Y27997D03*
X95378Y35925D03*
X95252Y38948D03*
X95300Y43700D03*
X91800Y44700D03*
X93450Y43850D03*
X91795Y58500D03*
X89700D03*
X103921Y6400D03*
X98295Y6515D03*
X104346Y900D03*
X101677Y14075D03*
X104827D03*
X98527Y11000D03*
Y14075D03*
X98550Y24050D03*
X100390Y23910D03*
X98933Y17081D03*
X98527Y20177D03*
X104827D03*
X101700D03*
X103100Y26700D03*
X104900Y29823D03*
X98527D03*
X101677D03*
X98527Y35925D03*
X103300Y39800D03*
X98527Y38800D03*
X101846Y35747D03*
X98724Y43447D03*
X101000Y43300D03*
X104700Y46700D03*
X99100Y58400D03*
X101100Y58800D03*
X107654Y900D03*
X114275Y14075D03*
X113900Y7000D03*
X107976Y14075D03*
X111097Y11216D03*
X107976Y11000D03*
X111126Y14075D03*
Y20177D03*
X107800D03*
X114275D03*
X107976Y29823D03*
X114275D03*
X111126D03*
X108250Y36050D03*
X122264Y6996D03*
X117425Y14075D03*
X118300Y7000D03*
X120574Y14075D03*
Y10926D03*
X117425Y20177D03*
X120574D03*
Y29823D03*
X120500Y26582D03*
X117425Y29823D03*
X122000Y32500D03*
X117425Y35925D03*
X120326Y35882D03*
X119100Y40300D03*
X121974Y34800D03*
X115949Y42000D03*
X117800Y58400D03*
X120500Y55900D03*
X123802Y6059D03*
X129500Y1000D03*
X127500Y6795D03*
X125600Y6900D03*
X131800Y1000D03*
X131636Y22020D03*
Y24020D03*
X127700Y32200D03*
X131636Y26020D03*
X128723Y33700D03*
X131200Y36100D03*
X126310Y39290D03*
X126856Y41078D03*
X126100Y37100D03*
X126847Y48547D03*
X125700Y46800D03*
X128330Y45472D03*
X129463Y46874D03*
X131300Y53500D03*
X131400Y58000D03*
X133030Y5870D03*
X140200Y1161D03*
X134600Y7500D03*
X132600Y9498D03*
X132300Y13600D03*
X139273Y20192D03*
X133336Y22020D03*
Y24020D03*
Y26020D03*
X140500Y46950D03*
X135700Y52500D03*
X133950Y57850D03*
X136850Y58950D03*
X146500Y21346D03*
X147470Y28180D03*
X144645Y28500D03*
X141900Y31000D03*
X140700Y40400D03*
X146713Y40484D03*
Y37985D03*
Y35484D03*
Y45485D03*
Y42984D03*
X140680Y42500D03*
Y44437D03*
X143400Y52300D03*
X152374Y10294D03*
X154400Y9600D03*
X155600Y7478D03*
X156500Y9100D03*
X149600Y16500D03*
X155362Y28038D03*
X153000Y27500D03*
X150638D03*
X156713Y40484D03*
X154213D03*
X151713D03*
X149213D03*
X156713Y37985D03*
X154213D03*
X151713D03*
X149213D03*
X156713Y35484D03*
X154213D03*
X151713D03*
X149213D03*
X156713Y45485D03*
X154213D03*
X151713D03*
X149213D03*
X156713Y42984D03*
X154213D03*
X151713D03*
X149213D03*
X153600Y52820D03*
X155400Y52908D03*
X159000Y9100D03*
X166197Y14163D03*
X165923Y30077D03*
X158512Y27700D03*
X161100Y27900D03*
X166200Y27800D03*
X164200Y31100D03*
X165500Y41313D03*
X159213Y40484D03*
Y37985D03*
Y35484D03*
X165701Y38100D03*
X165823Y49500D03*
X159213Y45485D03*
Y42984D03*
X165500Y46500D03*
X168600Y10100D03*
Y7534D03*
X173370Y8300D03*
X170400Y16000D03*
X167500Y15600D03*
X174900Y19200D03*
X167900Y34400D03*
X166600Y39700D03*
X171624Y52624D03*
X174600Y59200D03*
X170900Y59600D03*
X181446Y12846D03*
X178500Y8000D03*
X177600Y23900D03*
X176100Y26000D03*
X175700Y32500D03*
X177241Y29941D03*
X175200Y29800D03*
X176922Y40563D03*
X177506Y37618D03*
X177300Y46500D03*
X179100D03*
X181300Y43800D03*
X176000Y54700D03*
X187046Y12846D03*
X192054D03*
X191800Y8000D03*
X183823Y18400D03*
X186854Y16154D03*
X191900D03*
X188941Y18641D03*
X192187Y30238D03*
X190187D03*
X188187D03*
X186187D03*
X192187Y28238D03*
X190187D03*
X188187D03*
X186187D03*
X185161Y50839D03*
X189700Y51800D03*
X187720Y51200D03*
X189400Y56700D03*
X197500Y16800D03*
X196399Y32303D03*
X194399D03*
X196399Y30303D03*
X194399D03*
X196399Y28303D03*
X194399D03*
X196399Y36303D03*
X194399D03*
X196399Y34303D03*
X194399D03*
X199177Y46494D03*
X196618D03*
X194200Y52200D03*
X192839Y50761D03*
X195000Y56200D03*
X194900Y59100D03*
X208400Y19800D03*
X205459Y29941D03*
X217100Y2700D03*
X217300Y12900D03*
X217600Y20700D03*
X211300Y19900D03*
X217100Y24700D03*
Y31900D03*
X217000Y37200D03*
X217400Y41500D03*
X219600Y2800D03*
X226800Y14600D03*
X225300Y20700D03*
X220000Y26700D03*
Y29700D03*
X219900Y37300D03*
Y34300D03*
X224700Y45300D03*
X218300Y53800D03*
X218400Y57600D03*
X226700Y52500D03*
X231900Y14200D03*
X235244Y50344D03*
X240500Y14300D03*
X236000Y14400D03*
X242470Y31900D03*
X240470D03*
X238470D03*
X242470Y29900D03*
X240470D03*
X238470D03*
X242470Y33900D03*
X240470D03*
X238470D03*
X239516Y42600D03*
X241484Y42500D03*
X240756Y50556D03*
X242700Y52400D03*
X249400Y13600D03*
X245000Y14200D03*
X248500Y21900D03*
X252000Y39200D03*
X247200Y46600D03*
X251390Y52710D03*
X247059Y52959D03*
X257400Y12900D03*
X257900Y21200D03*
X260707Y28807D03*
X257944Y30744D03*
X254100Y41200D03*
X260300Y35500D03*
X265200Y12000D03*
X265400Y17200D03*
X265700Y21000D03*
X265000Y39500D03*
X262100Y52200D03*
X276900Y11700D03*
X274300Y16200D03*
X270200Y32300D03*
X272400Y45154D03*
X273000Y52300D03*
X277374Y52226D03*
X285700Y11500D03*
X279700Y23000D03*
X284200Y18500D03*
X285100Y25800D03*
X283900Y34100D03*
X282600Y48400D03*
X287100Y48700D03*
X284800Y41500D03*
X291500Y12000D03*
X290200Y21900D03*
X290500Y31900D03*
X291200Y38100D03*
X290100Y44500D03*
X290366Y52134D03*
G54D11*
X30000Y5000D03*
X316500Y59000D03*
G54D12*
X141000Y16200D03*
X176800Y14800D03*
G54D13*
X151126Y12087D03*
X166874D03*
X208500Y8055D03*
Y35614D03*
G54D14*
G01X33761Y5539D02*
Y6239D01*
X33750Y6250D01*
Y10250D01*
X30800Y13200D01*
Y28700D01*
X28360Y31140D01*
X28207D01*
G01X83788Y4994D02*
X82383Y6400D01*
X43600D01*
X35100Y14900D01*
Y20069D01*
X39551Y24519D01*
X44818D01*
G01X85807Y3053D02*
X83507D01*
X80960Y5600D01*
X43269D01*
X34300Y14569D01*
Y20400D01*
X39600Y25700D01*
X43600D01*
X44900Y27000D01*
G01X42406Y29970D02*
X40270D01*
X31800Y21500D01*
Y13674D01*
X42374Y3100D01*
X77400D01*
X78000Y2500D01*
G01X80431Y4148D02*
X79780Y4800D01*
X42937D01*
X33500Y14237D01*
Y20937D01*
X39663Y27100D01*
X42300D01*
G01X82028Y1681D02*
X80799D01*
X78580Y3900D01*
X42706D01*
X32700Y13906D01*
Y21269D01*
X40002Y28570D01*
X43670D01*
X45000Y29900D01*
G01X42473Y19447D02*
Y8747D01*
X44020Y7200D01*
X83640D01*
X88520Y2320D01*
X90545D01*
G01X98527Y20177D02*
X97204Y21500D01*
X93300D01*
X90785Y24015D01*
Y30585D01*
X92500Y32300D01*
Y40500D01*
X88000Y45000D01*
Y55200D01*
X83900Y59300D01*
X53500D01*
X47212Y53012D01*
X43232D01*
X37500Y47280D01*
Y43816D01*
X38516Y42800D01*
X39780D01*
X42355Y40225D01*
Y39955D01*
G01X197500Y16800D02*
Y4716D01*
X196484Y3700D01*
X144800D01*
X124300Y24200D01*
Y39631D01*
X103031Y60900D01*
X48420D01*
X40700Y53180D01*
Y51920D01*
X36700Y47920D01*
Y42600D01*
X37900Y41400D01*
X39200D01*
G01X89518Y3799D02*
X88356D01*
X84032Y8123D01*
X54755D01*
X53858Y9020D01*
Y10808D01*
G01X103300Y39800D02*
X102700Y40400D01*
X94200D01*
X91300Y43300D01*
X91220D01*
X90400Y44120D01*
Y44200D01*
X89200Y45400D01*
Y56200D01*
X85300Y60100D01*
X51880D01*
X46192Y54412D01*
G01X87769Y27392D02*
X88200Y27823D01*
Y31394D01*
X90100Y33294D01*
Y39306D01*
X84900Y44506D01*
Y54031D01*
X82031Y56900D01*
X56689D01*
X53705Y53916D01*
Y51868D01*
G01X98295Y6515D02*
X93308D01*
X90247Y9577D01*
X88556D01*
X87450Y10683D01*
Y13750D01*
X89185Y15485D01*
Y31247D01*
X90900Y32963D01*
Y39637D01*
X86000Y44537D01*
Y54131D01*
X82431Y57700D01*
X55900D01*
X52100Y53900D01*
Y51000D01*
G01X107976Y14075D02*
X109500Y12551D01*
Y10400D01*
X107826Y8726D01*
X93367D01*
X89400Y12692D01*
Y14400D01*
X89985Y14985D01*
Y30916D01*
X91700Y32631D01*
Y39969D01*
X87000Y44669D01*
Y54263D01*
X82763Y58500D01*
X54937D01*
X48900Y52463D01*
Y52163D01*
G01X55500Y52000D02*
Y53484D01*
X58116Y56100D01*
X80800D01*
X83800Y53100D01*
Y44475D01*
X89300Y38975D01*
Y33626D01*
X87400Y31726D01*
Y29180D01*
X86369Y28149D01*
Y26812D01*
X87589Y25592D01*
X87600D01*
G01X79800Y36000D02*
X77800Y34000D01*
Y21600D01*
X80600Y18800D01*
Y13179D01*
X79400Y11979D01*
X69121D01*
X67921Y13179D01*
Y16937D01*
G01X113900Y7000D02*
X111100Y4200D01*
X93361D01*
X89584Y7976D01*
X87573D01*
X85700Y9849D01*
Y14300D01*
X87569Y16169D01*
Y22120D01*
X84769Y24920D01*
Y28812D01*
X85800Y29843D01*
Y32820D01*
X87700Y34720D01*
Y38000D01*
X80637Y45063D01*
X70480D01*
G01X117425Y14075D02*
Y12625D01*
X109800Y5000D01*
X93692D01*
X89916Y8777D01*
X87904D01*
X86500Y10181D01*
Y13969D01*
X88369Y15837D01*
Y22451D01*
X85569Y25251D01*
Y28480D01*
X86600Y29511D01*
Y32057D01*
X88500Y33957D01*
Y38400D01*
X79278Y47622D01*
X70480D01*
G01X82600Y14900D02*
X81500Y16000D01*
Y19300D01*
X78600Y22200D01*
Y30101D01*
X81200Y32701D01*
Y37700D01*
X81010Y37890D01*
G01X83200Y16700D02*
X82300Y17600D01*
Y20060D01*
X79400Y22960D01*
Y29769D01*
X82700Y33069D01*
Y35600D01*
G01X82569Y28579D02*
Y24857D01*
X85936Y21490D01*
Y16936D01*
X84100Y15100D01*
Y9186D01*
X86910Y6376D01*
X88921D01*
X92698Y2600D01*
X115900D01*
X120863Y7563D01*
Y7574D01*
X122100Y8811D01*
Y12550D01*
X120574Y14075D01*
G01X118300Y7000D02*
X115000Y3700D01*
X114836Y3634D01*
X114602Y3400D01*
X93029D01*
X89253Y7176D01*
X87242D01*
X84900Y9518D01*
Y14680D01*
X86769Y16549D01*
Y21788D01*
X83969Y24588D01*
Y30095D01*
X83980Y30106D01*
G01X84421Y18023D02*
X83100Y19344D01*
Y21000D01*
X80200Y23900D01*
Y29438D01*
X84100Y33338D01*
Y36907D01*
X81350Y39658D01*
G01X82573Y40978D02*
X84900Y38651D01*
Y33006D01*
X81169Y29275D01*
Y24931D01*
X84500Y21600D01*
Y20000D01*
G01X90934Y13367D02*
X94775Y9526D01*
X106502D01*
X107976Y11000D01*
G01X111126Y14075D02*
X112600Y12601D01*
Y10531D01*
X109994Y7925D01*
X93029D01*
X89842Y11113D01*
X89000D01*
G01X95261Y32659D02*
X91800Y29198D01*
Y25016D01*
X94016Y22800D01*
X97884D01*
X100200Y20484D01*
Y18349D01*
X98933Y17081D01*
G01X100390Y23910D02*
X100000Y24300D01*
Y31303D01*
X95378Y35925D01*
G01X91800Y44700D02*
X92350Y45250D01*
X117550D01*
X121400Y41400D01*
Y36956D01*
X120326Y35882D01*
G01X103921Y6400D02*
X109600D01*
X114275Y11075D01*
Y14075D01*
G01X103100Y26700D02*
Y31352D01*
X98527Y35925D01*
G01X98550Y24050D02*
X98800Y24300D01*
Y29550D01*
X98527Y29823D01*
G01X100510Y23910D02*
X100390D01*
G01X98724Y43447D02*
Y43376D01*
X100318Y41782D01*
X115730D01*
X115949Y42000D01*
G01X117425Y35925D02*
X117600Y36100D01*
Y42900D01*
X116400Y44100D01*
X101800D01*
X101000Y43300D01*
G01X168600Y10100D02*
X167784Y9284D01*
X164016D01*
X163000Y10300D01*
Y14900D01*
X158423Y19477D01*
Y20184D01*
X158070Y20538D01*
X157362D01*
X157009Y20891D01*
Y21598D01*
X156655Y21952D01*
X155948D01*
X155595Y22305D01*
Y23012D01*
X155241Y23366D01*
X154534D01*
X154180Y23720D01*
Y24427D01*
X153827Y24780D01*
X153120D01*
X152700Y25200D01*
X151650D01*
X151150Y25700D01*
X150650D01*
X150150Y25200D01*
X149250D01*
X148750Y25700D01*
X148250D01*
X147750Y25200D01*
X147250D01*
X146750Y25700D01*
X146250D01*
X145750Y25200D01*
X145250D01*
X144750Y25700D01*
X144250D01*
X143750Y25200D01*
X143250D01*
X142750Y25700D01*
X142250D01*
X141750Y25200D01*
X141250D01*
X140750Y25700D01*
X140250D01*
X139750Y25200D01*
X137463D01*
X128963Y33700D01*
X128723D01*
G01X127700Y32200D02*
X129332D01*
X137132Y24400D01*
X152369D01*
X162200Y14569D01*
Y9969D01*
X163685Y8484D01*
X167650D01*
X168600Y7534D01*
G01X181300Y43800D02*
Y46280D01*
X171380Y56200D01*
X135600D01*
X133950Y57850D01*
G54D15*
G01X176100Y26000D02*
X173000Y29100D01*
Y37500D01*
X169213Y41287D01*
X167275D01*
X167263Y41300D01*
X165937D01*
X165925Y41287D01*
X165525D01*
X165500Y41313D01*
G01X165701Y38100D02*
X166700D01*
X170600Y34200D01*
Y23500D01*
X174900Y19200D01*
M02*
