M48
INCH
T01C.012
T02C.04134
;LEADER: 12 
;HEADER: 
;CODE  : ASCII 
;FILE  : test-bluetooth-1-2.drl for board #Taaaaat02440.tmp ... layers TOP and BOTTOM
;T01 Holesize 1. = 12.000000 Tolerance = +0.000000/-0.000000 PLATED MILS Quantity = 53
;T02 Holesize 2. = 41.340000 Tolerance = +0.000000/-0.000000 PLATED MILS Quantity = 24
%
G90
T01
X0085108Y0026508
X0089900Y0034000
X0067740Y0035631
X0067740Y0030631
X0062740Y0035631
X0062740Y0030631
X0057740Y0035631
X0057740Y0030631
X0052740Y0035631
X0052740Y0030631
X0047740Y0035631
X0047740Y0030631
X0042740Y0035631
X0042740Y0030631
X0028213Y0032413
X0028976Y0044224
X0042740Y0040631
X0042740Y0045631
X0047740Y0040631
X0047740Y0045631
X0052740Y0040631
X0052740Y0045631
X0057740Y0040631
X0057740Y0045631
X0062740Y0040631
X0062740Y0045631
X0067740Y0040631
X0067740Y0045631
X0067740Y0055631
X0067740Y0050631
X0062740Y0055631
X0062740Y0050631
X0057740Y0055631
X0057740Y0050631
X0052740Y0055631
X0052740Y0050631
X0047740Y0055631
X0047740Y0050631
X0042740Y0055631
X0042740Y0050631
X0028470Y0050130
X0042740Y0060631
X0042740Y0065631
X0047740Y0060631
X0047740Y0065631
X0052740Y0060631
X0052740Y0065631
X0057740Y0060631
X0057740Y0065631
X0062740Y0060631
X0062740Y0065631
X0067740Y0060631
X0067740Y0065631
T02
X0007000Y0091500
R07Y-0010000
X0021500Y0009000
R07X0010000
X0109500Y0019000
R07Y0010000
M30
