G04 ================== begin FILE IDENTIFICATION RECORD ==================*
G04 Layout Name:  E:/material/glass/pcb/test-stm32f429/pcb/f429.brd*
G04 Film Name:    POWER*
G04 File Format:  Gerber RS274X*
G04 File Origin:  Cadence Allegro 16.6-S049*
G04 Origin Date:  Wed Oct 14 16:51:38 2015*
G04 *
G04 Layer:  ETCH/POWER*
G04 Layer:  PIN/POWER*
G04 Layer:  VIA CLASS/POWER*
G04 *
G04 Offset:    (0.00 0.00)*
G04 Mirror:    No*
G04 Mode:      Positive*
G04 Rotation:  0*
G04 FullContactRelief:  No*
G04 UndefLineWidth:     0.00*
G04 ================== end FILE IDENTIFICATION RECORD ====================*
%FSLAX25Y25*MOIN*%
%IR0*IPPOS*OFA0.00000B0.00000*MIA0B0*SFA1.00000B1.00000*%
%ADD10C,.011*%
%ADD11C,.06299*%
%ADD12C,.004*%
%ADD13C,.007*%
%ADD16C,.02404*%
%ADD18C,.06302*%
%ADD15C,.02704*%
%ADD14C,.07702*%
%ADD17C,.07902*%
G75*
%LPD*%
G75*
G36*
G01X122496Y46514D02*
G03X119904I-1296J386D01*
G02X119521Y46000I-383J-114D01*
G01X106207D01*
X100500Y51707D01*
Y55536D01*
X100674Y55559D01*
G03X99496Y57806I-174J1341D01*
G02X98916Y57791I-297J268D01*
G01X96151Y60556D01*
G02X96362Y61233I282J283D01*
G03X94790Y62805I-242J1330D01*
G02X94113Y62594I-394J71D01*
G01X92917Y63790D01*
X93033Y63930D01*
G03X91130Y65833I-1041J862D01*
G02X90861Y65846I-127J154D01*
G01X76707Y80000D01*
X66793D01*
X63000Y76207D01*
Y69293D01*
X71500Y60793D01*
Y4D01*
X4D01*
Y200096D01*
X195996D01*
Y41500D01*
X141707D01*
X137207Y46000D01*
X122879D01*
G02X122496Y46514I0J400D01*
G37*
G36*
G01X81207Y50000D02*
X78207Y53000D01*
X73793D01*
X73183Y52390D01*
G02X72500Y52673I-283J283D01*
G01Y61207D01*
X64000Y69707D01*
Y75793D01*
X67207Y79000D01*
X76293D01*
X90646Y64647D01*
X90656Y64582D01*
G03X91782Y63456I1336J210D01*
G01X91847Y63446D01*
X99500Y55793D01*
Y52000D01*
X93793D01*
X91793Y50000D01*
X85636D01*
G02X85306Y50626I0J400D01*
G03X83078I-1114J766D01*
G02X82748Y50000I-330J-226D01*
G01X81207D01*
G37*
G36*
G01X72500Y4D02*
Y50293D01*
X74207Y52000D01*
X77793D01*
X80793Y49000D01*
X92207D01*
X94207Y51000D01*
X99793D01*
X105793Y45000D01*
X110827D01*
G02X111110Y44317I0J-400D01*
G01X107000Y40207D01*
Y35293D01*
X115793Y26500D01*
X134293D01*
X136947Y23846D01*
X136954Y23774D01*
G03X137500Y22810I1346J126D01*
G01Y12293D01*
X143293Y6500D01*
X157207D01*
X171207Y20500D01*
X195996D01*
Y4D01*
X72500D01*
G37*
G36*
G01X116207Y27500D02*
X108000Y35707D01*
Y39793D01*
X113207Y45000D01*
X136793D01*
X141293Y40500D01*
X142000D01*
Y35207D01*
X134293Y27500D01*
X130978D01*
G02X130693Y28181I0J400D01*
G03X128773I-960J952D01*
G02X128488Y27500I-285J-281D01*
G01X116207D01*
G37*
G36*
G01X143707Y7500D02*
X138500Y12707D01*
Y22554D01*
X138648Y22594D01*
G03X137479Y24974I-348J1306D01*
G01X137340Y24867D01*
X135207Y27000D01*
X142500Y34293D01*
X150793Y26000D01*
X168207D01*
X173207Y31000D01*
X195996D01*
Y21500D01*
X170793D01*
X156793Y7500D01*
X143707D01*
G37*
G36*
G01X151207Y27000D02*
X143000Y35207D01*
Y40500D01*
X195996D01*
Y32000D01*
X172793D01*
X172551Y31758D01*
X172354Y31956D01*
X172352Y32036D01*
G03X170643Y30696I-1352J-36D01*
G02X170820Y30027I-105J-386D01*
G01X167793Y27000D01*
X151207D01*
G37*
%LPC*%
G75*
G36*
G01X144949Y58563D02*
G02X143864Y59534I-1302J-363D01*
G03X144314Y60037I65J395D01*
G02X145399Y59066I1302J363D01*
G03X144949Y58563I-65J-395D01*
G37*
G36*
G01X100115Y84024D02*
G02X97754Y84460I-1068J830D01*
G03X97241Y84722I-383J-116D01*
G02X98093Y86394I-441J1278D01*
G03X98606Y86132I383J116D01*
G02X99718Y86028I441J-1278D01*
G03X100232Y86130I198J347D01*
G02X101705Y86590I1068J-830D01*
G02X104226Y86770I1295J-390D01*
G03X104911Y86701I363J168D01*
G02X104774Y85330I1089J-801D01*
G03X104089Y85399I-363J-168D01*
G02X102595Y84910I-1089J801D01*
G02X100629Y84126I-1295J390D01*
G03X100115Y84024I-198J-347D01*
G37*
G36*
G01X117130Y99801D02*
G02X115870I-630J-1196D01*
G03Y100509I-187J354D01*
G02X117130I630J1196D01*
G03Y99801I187J-354D01*
G37*
G36*
G01X93091Y104033D02*
G02X91414Y105705I-986J689D01*
G03X91412Y106361I-230J327D01*
G02X93057Y108072I685J988D01*
G03X93696I319J241D01*
G02X95616I960J-723D01*
G03X96255I320J241D01*
G02X98001Y106440I960J-722D01*
G03Y105835I262J-303D01*
G02X96136Y104395I-787J-908D01*
G03X95437Y104429I-359J-176D01*
G02X93667Y104118I-1023J631D01*
G03X93091Y104033I-248J-314D01*
G37*
G36*
G01X80690Y105836D02*
G02X78960Y104183I-786J-910D01*
G03X78343Y104198I-315J-247D01*
G02X76651Y105896I-909J786D01*
G03X76629Y106521I-260J304D01*
G02X78343Y108156I716J965D01*
G03X78982Y108121I333J222D01*
G02X80863Y108072I921J-772D01*
G03X81502I320J241D01*
G02X83422I960J-723D01*
G03X84061I319J241D01*
G02Y106626I960J-723D01*
G03X83422I-320J-241D01*
G02X81502I-960J723D01*
G03X80863I-319J-241D01*
G02X80690Y106441I-959J724D01*
G03Y105836I262J-303D01*
G37*
G36*
G01X117487Y108077D02*
G02X117399Y106712I943J-746D01*
G03X116743Y106754I-343J-206D01*
G02X116831Y108119I-943J746D01*
G03X117487Y108077I343J206D01*
G37*
G36*
G01X70503Y106828D02*
G02X68857Y108423I-1076J537D01*
G03X68912Y109093I-189J353D01*
G02X70614Y110757I733J952D01*
G03X71258I322J236D01*
G02X71504Y111005I967J-714D01*
G03Y111644I-241J319D01*
G02X73187Y113327I723J960D01*
G03X73826I320J241D01*
G02X74063Y113564I960J-723D01*
G03Y114203I-241J319D01*
G02Y116123I723J960D01*
G03Y116762I-241J320D01*
G02X75509I723J960D01*
G03Y116123I241J-319D01*
G02Y114203I-723J-960D01*
G03Y113564I241J-320D01*
G02X73826Y111881I-723J-960D01*
G03X73187I-319J-241D01*
G02X72950Y111644I-960J723D01*
G03Y111005I241J-320D01*
G02Y109085I-723J-960D01*
G03Y108446I241J-319D01*
G02X71202Y106859I-723J-960D01*
G03X70503Y106828I-341J-209D01*
G37*
G36*
G01X148738Y109314D02*
G02X147935Y108351I386J-1138D01*
G03X147410Y108788I-396J58D01*
G02X148213Y109751I-386J1138D01*
G03X148738Y109314I396J-58D01*
G37*
G36*
G01X80864Y111881D02*
G02X79181Y113564I-960J723D01*
G03Y114203I-241J319D01*
G02Y116123I723J960D01*
G03Y116762I-241J320D01*
G02X80864Y118445I723J960D01*
G03X81503I320J241D01*
G02X83423I960J-723D01*
G03X84062I319J241D01*
G02X85745Y116762I960J-723D01*
G03Y116123I241J-319D01*
G02Y114203I-723J-960D01*
G03Y113564I241J-320D01*
G02X84062Y111881I-723J-960D01*
G03X83423I-320J-241D01*
G02X81503I-960J723D01*
G03X80864I-319J-241D01*
G37*
G36*
G01X90497D02*
G02X88814Y113564I-960J723D01*
G03Y114203I-241J319D01*
G02Y116123I723J960D01*
G03Y116762I-241J320D01*
G02X90497Y118445I723J960D01*
G03X91136I319J241D01*
G02X92819Y116762I960J-723D01*
G03Y116123I241J-319D01*
G02Y114203I-723J-960D01*
G03Y113564I241J-320D01*
G02X91136Y111881I-723J-960D01*
G03X90497I-320J-241D01*
G37*
G36*
G01X97937Y113564D02*
G02X96491I-723J-960D01*
G03Y114203I-241J319D01*
G02Y116123I723J960D01*
G03Y116762I-241J320D01*
G02X97937I723J960D01*
G03Y116123I241J-319D01*
G02Y114203I-723J-960D01*
G03Y113564I241J-320D01*
G37*
G36*
G01X66589Y114263D02*
G02X65400Y114204I-543J-1072D01*
G03X65348Y114907I-215J338D01*
G02X66571Y114967I552J1234D01*
G03X66589Y114263I199J-347D01*
G37*
G36*
G01X174401Y115295D02*
G02X172974Y115581I-901J-795D01*
G03X173099Y116205I-175J360D01*
G02X173248Y117938I901J795D01*
G03Y118562I-250J312D01*
G02X174752I752J938D01*
G03Y117938I250J-312D01*
G02X174526Y115919I-752J-938D01*
G03X174401Y115295I175J-360D01*
G37*
G36*
G01X90818Y120589D02*
G02X89108Y122228I-998J670D01*
G03X89116Y122866I-237J322D01*
G02X90197Y124969I734J952D01*
G03X90700Y125450I115J383D01*
G02X92904Y125141I1165J295D01*
G03X92979Y124866I173J-101D01*
G02X93275Y124631I-590J-1047D01*
G03X93865I295J270D01*
G02X93875Y124642I894J-803D01*
G03X93865Y124926I-146J137D01*
G02X95555Y124986I815J884D01*
G03X95565Y124702I146J-137D01*
G02X95438Y122833I-815J-883D01*
G03X95416Y122194I229J-328D01*
G02X93842Y120378I-756J-935D01*
G03X93298I-272J-293D01*
G02X91482Y120589I-818J881D01*
G03X90818I-332J-223D01*
G37*
G36*
G01X75614Y123109D02*
G02X73958I-828J-872D01*
G03Y123688I-275J289D01*
G02X73826Y123837I831J869D01*
G03X73187I-319J-241D01*
G02Y125283I-960J723D01*
G03X73826I320J241D01*
G02X74202Y125610I959J-724D01*
G03Y126310I-195J350D01*
G02X74060Y128318I584J1050D01*
G03Y128956I-241J319D01*
G02X73934Y129066I726J958D01*
G03X73298Y128973I-284J-282D01*
G02X71650Y130588I-1060J567D01*
G03X71647Y131287I-196J349D01*
G02X73187Y133063I580J1053D01*
G03X73826I320J241D01*
G02X75732Y133081I960J-723D01*
G03X76360Y133079I315J247D01*
G02X76354Y131589I940J-749D01*
G03X75726Y131591I-315J-247D01*
G02X75571Y131430I-940J749D01*
G03Y130824I261J-303D01*
G02X75512Y128956I-785J-910D01*
G03Y128318I241J-319D01*
G02X75370Y126310I-726J-958D01*
G03Y125610I195J-350D01*
G02X75614Y123688I-584J-1051D01*
G03Y123109I275J-290D01*
G37*
G36*
G01X80864Y121514D02*
G02X79181Y123197I-960J723D01*
G03Y123836I-241J320D01*
G02X80864Y125519I723J960D01*
G03X81503I320J241D01*
G02X83423I960J-723D01*
G03X84062I319J241D01*
G02X85745Y123836I960J-723D01*
G03Y123197I241J-319D01*
G02X84062Y121514I-723J-960D01*
G03X83423I-320J-241D01*
G02X81503I-960J723D01*
G03X80864I-319J-241D01*
G37*
G36*
G01X67268Y129896D02*
G02X65822I-723J-960D01*
G03Y130535I-241J319D01*
G02X67268I723J960D01*
G03Y129896I241J-320D01*
G37*
G36*
G01X95615Y128927D02*
G02Y130373I-960J723D01*
G03X96254I320J241D01*
G02X98174I960J-723D01*
G03X98813I319J241D01*
G02Y128927I960J-723D01*
G03X98174I-320J-241D01*
G02X96254I-960J723D01*
G03X95615I-319J-241D01*
G37*
G36*
G01X80864Y129191D02*
G02Y130637I-960J723D01*
G03X81503I320J241D01*
G02X83423I960J-723D01*
G03X84062I319J241D01*
G02Y129191I960J-723D01*
G03X83423I-320J-241D01*
G02X81503I-960J723D01*
G03X80864I-319J-241D01*
G37*
G36*
G01X90270Y130867D02*
G02X88703Y130780I-733J-953D01*
G03X88669Y131385I-277J288D01*
G02X88324Y131806I733J953D01*
G03X87625Y131839I-359J-177D01*
G02X87680Y133002I-1023J631D01*
G03X88379Y132969I359J177D01*
G02X90236Y131472I1023J-631D01*
G03X90270Y130867I277J-288D01*
G37*
G36*
G01X98387Y132004D02*
G02X98346Y133170I-1071J546D01*
G03X99045Y133195I343J206D01*
G02X99086Y132029I1071J-546D01*
G03X98387Y132004I-343J-206D01*
G37*
G36*
G01X132328Y147698D02*
G02X130463Y147045I-627J-1198D01*
G03X130372Y147302I-183J80D01*
G02X131207Y149836I627J1198D01*
G03X131664Y150293I62J395D01*
G02X132793Y149164I1336J207D01*
G03X132336Y148707I-62J-395D01*
G02X132237Y147955I-1336J-207D01*
G03X132328Y147698I183J-80D01*
G37*
G36*
G01X69798Y160722D02*
G02X68325Y160672I-698J-1158D01*
G03X68302Y161342I-229J328D01*
G02X68391Y163707I698J1158D01*
G03X68573Y164232I-181J357D01*
G02X70409Y163593I1227J568D01*
G03X70227Y163068I181J-357D01*
G02X69775Y161392I-1227J-568D01*
G03X69798Y160722I229J-328D01*
G37*
G36*
G01X164250Y47571D02*
G02X164345Y45362I825J-1071D01*
G02X164250Y47571I-825J1071D01*
G37*
G36*
G01X92729Y87712D02*
G02Y85788I950J-962D01*
G02Y87712I-950J962D01*
G37*
G36*
G01X13720Y96623D02*
G03X13721Y96877I-154J128D01*
G02X15811Y96868I1049J853D01*
G03X15810Y96614I154J-128D01*
G02X13720Y96623I-1049J-853D01*
G37*
G36*
G01X93134Y97587D02*
G03X92944Y97799I-200J12D01*
G02X92340Y97995I56J1201D01*
G03X92074Y97952I-109J-167D01*
G02X91791Y99703I-943J746D01*
G03X92057Y99746I109J167D01*
G02X94201Y99043I943J-746D01*
G03X94412Y98850I200J7D01*
G02X95163Y98669I72J-1350D01*
G03X95423Y98721I101J173D01*
G02X97599Y98696I1079J-815D01*
G02X97279Y96800I777J-1106D01*
G02X95822Y96737I-778J1106D01*
G03X95562Y96685I-101J-173D01*
G02X93134Y97587I-1079J815D01*
G37*
G36*
G01X121597Y98210D02*
G03X121352Y98094I-60J-191D01*
G02X120503Y99895I-1252J510D01*
G03X120748Y100011I60J191D01*
G02X121597Y98210I1252J-510D01*
G37*
G36*
G01X26621Y102523D02*
G03X26620Y102777I-155J126D01*
G02X26583Y104446I1045J858D01*
G03X26563Y104708I-160J120D01*
G02X26494Y106569I945J967D01*
G02X28414Y106678I906J1003D01*
G02X28590Y104864I-906J-1003D01*
G03X28610Y104602I160J-120D01*
G02X28711Y102779I-945J-967D01*
G03X28712Y102525I155J-126D01*
G02X26621Y102523I-1045J-858D01*
G37*
G36*
G01X66048Y103836D02*
G03X66029Y103572I140J-143D01*
G02X64005Y103717I-1076J-819D01*
G03X64024Y103981I-140J143D01*
G02X65320Y106134I1076J819D01*
G02X66449Y104704I1180J-229D01*
G02X66048Y103836I-1349J96D01*
G37*
G36*
G01X107721Y104275D02*
G03X107592Y104060I69J-188D01*
G02X105981Y105025I-1191J-161D01*
G03X106110Y105240I-69J188D01*
G02X106361Y106150I1191J161D01*
G03Y106400I-156J125D01*
G02X108239Y106402I938J751D01*
G03Y106152I156J-125D01*
G02X107721Y104275I-938J-751D01*
G37*
G36*
G01X125648Y114708D02*
X127405Y116465D01*
X127387Y116568D01*
G02X128359Y115596I1183J211D01*
G01X128256Y115614D01*
X126852Y114210D01*
Y112999D01*
X128502Y111349D01*
Y110703D01*
G02X127058Y110520I-602J-1041D01*
G03X127061Y111088I-280J285D01*
G01X125648Y112501D01*
Y114708D01*
G37*
G36*
G01X42093Y113358D02*
G03X42353Y112805I364J-167D01*
G02X40695Y111147I-353J-1305D01*
G03X40142Y111407I-386J-104D01*
G02X42093Y113358I-1642J3593D01*
G37*
G36*
G01X107460Y113061D02*
G03X107689Y112961I177J93D01*
G02X106936Y111241I311J-1161D01*
G03X106707Y111341I-177J-93D01*
G02X107460Y113061I-311J1161D01*
G37*
G36*
G01X106957Y116485D02*
G03X107115Y116703I-41J196D01*
G02X107462Y117692I1194J136D01*
G03X107491Y117940I-141J142D01*
G02X109357Y117725I1019J638D01*
G03X109328Y117477I141J-142D01*
G02X109316Y116182I-1019J-638D01*
G03X109452Y115616I335J-219D01*
G02X107773Y114049I-597J-1043D01*
G03X107538Y114154I-180J-87D01*
G02X106957Y116485I-335J1154D01*
G37*
G36*
G01X123610Y120861D02*
G03X124109Y120637I369J154D01*
G02X123390Y119039I391J-1137D01*
G03X122891Y119263I-369J-154D01*
G02X123610Y120861I-391J1137D01*
G37*
G36*
G01X138662Y121329D02*
G03X138932Y121344I127J155D01*
G02Y119456I968J-944D01*
G03X138662Y119471I-143J-140D01*
G02Y121329I-762J929D01*
G37*
G36*
G01X48799Y120662D02*
G03X48408Y121050I-400J-12D01*
G02X51212Y122127I92J3950D01*
G03X51181Y121577I274J-291D01*
G02X48799Y120662I-1031J-874D01*
G37*
G36*
G01X107046Y122625D02*
G03X106870Y122437I24J-199D01*
G02X105524Y123693I-1200J63D01*
G03X105700Y123881I-24J199D01*
G02X105762Y124205I1200J-62D01*
G03X105655Y124452I-189J65D01*
G02X107286Y125161I493J1096D01*
G03X107393Y124914I189J-65D01*
G02X107046Y122625I-493J-1096D01*
G37*
G36*
G01X63265Y126220D02*
G03X63020Y126117I-65J-189D01*
G02X62235Y127980I-1220J583D01*
G03X62480Y128083I65J189D01*
G02X63265Y126220I1220J-583D01*
G37*
G36*
G01X149589Y128500D02*
G03X149652Y127938I313J-249D01*
G02X147961Y127750I-752J-938D01*
G03X147898Y128312I-313J249D01*
G02X149589Y128500I752J938D01*
G37*
G36*
G01X120102Y131459D02*
Y130751D01*
X118818Y129468D01*
X111172D01*
X110951Y129246D01*
X110493D01*
G02X110350Y130647I-1041J602D01*
G01X110354Y130642D01*
X110500Y130497D01*
X110674Y130670D01*
X118320D01*
X118898Y131249D01*
Y131454D01*
X118813Y131514D01*
G02X120071Y133558I687J986D01*
G03X120570Y133657I189J352D01*
G02X120929Y131837I930J-762D01*
G03X120430Y131738I-189J-352D01*
G02X120102Y131459I-930J761D01*
G37*
G36*
G01X58043Y131108D02*
G03X58050Y131384I-141J142D01*
G02X60003Y131335I1000J910D01*
G03X59996Y131059I141J-142D01*
G02X58043Y131108I-1000J-910D01*
G37*
G36*
G01X128348Y132148D02*
G03X128320Y131898I141J-142D01*
G02X126460Y132102I-1012J-648D01*
G03X126488Y132352I-141J142D01*
G02X128348Y132148I1012J648D01*
G37*
G36*
G01X93449Y133568D02*
G03X93720Y133519I161J118D01*
G02X93408Y131802I657J-1006D01*
G03X93137Y131851I-161J-118D01*
G02X93449Y133568I-657J1006D01*
G37*
G36*
G01X14573Y135972D02*
G03X14569Y136226I-157J125D01*
G02X16658Y136259I1031J874D01*
G03X16662Y136005I157J-125D01*
G02X14573Y135972I-1031J-874D01*
G37*
G36*
G01X131497Y138503D02*
G02X133419Y138595I916J995D01*
G02X131497Y138503I-916J-995D01*
G37*
G36*
G01X58875Y138274D02*
G02X56273Y138856I-1350J72D01*
G02X57768Y141045I526J1246D01*
G03X58318Y141022I287J279D01*
G03X58356Y141280I-131J151D01*
G02X60819Y142297I1144J720D01*
G03X61038Y142142I195J44D01*
G02X60694Y139546I162J-1342D01*
G03X60437Y139444I-75J-185D01*
G02X59259Y138652I-1231J559D01*
G03X58875Y138274I15J-400D01*
G37*
G36*
G01X100365Y140255D02*
G03X99925Y139873I-40J-398D01*
G02X98709Y141272I-1351J54D01*
G03X99149Y141654I40J398D01*
G02X100365Y140255I1351J-54D01*
G37*
G36*
G01X72488Y142237D02*
G02X69845Y141693I-1340J-184D01*
G02X70803Y143361I-345J1307D01*
G02X71020Y143400I347J-1307D01*
G03X71194Y143651I-19J199D01*
G02X73465Y144947I1306J349D01*
G03X74035I285J281D01*
G02X75958Y144954I965J-947D01*
G03X76242I142J141D01*
G02X78151Y144961I958J-954D01*
G02X80049I949J-963D01*
G02X80727Y145324I951J-961D01*
G02X82837Y146683I1327J257D01*
G03X83395Y146779I231J327D01*
G02X84560Y147351I1105J-779D01*
G03X84766Y147518I9J200D01*
G02X87428Y147553I1334J-218D01*
G03X87634Y147391I196J38D01*
G02X86369Y145787I63J-1351D01*
G03X86163Y145949I-196J-38D01*
G02X86040I-62J1351D01*
G03X85834Y145782I-9J-200D01*
G02X83717Y144898I-1334J218D01*
G03X83159Y144802I-231J-327D01*
G02X82327Y144257I-1105J779D01*
G02X80051Y143037I-1327J-257D01*
G02X78149I-951J961D01*
G02X76242Y143046I-949J963D01*
G03X75958I-142J-141D01*
G02X74035Y143053I-958J954D01*
G03X73465I-285J-281D01*
G02X72796Y142681I-965J947D01*
G03X72488Y142237I88J-390D01*
G37*
G36*
G01X141739Y143740D02*
G03X141648Y143215I248J-313D01*
G02X139661Y143560I-1148J-715D01*
G03X139752Y144085I-248J313D01*
G02X141739Y143740I1148J715D01*
G37*
G36*
G01X44552Y150436D02*
X46622Y148365D01*
X46751Y148431D01*
G02X45069Y146749I1749J-3431D01*
G01X45135Y146878D01*
X42448Y149564D01*
Y152482D01*
G03X41722Y152714I-400J0D01*
G02X41482Y157592I-3222J2286D01*
G03X42176Y157773I302J262D01*
G02X44824I1324J-273D01*
G03X45518Y157592I392J81D01*
G02X45278Y152714I2982J-2592D01*
G03X44552Y152482I-326J-232D01*
G01Y150436D01*
G37*
G36*
G01X93621Y144845D02*
G02X94030Y142966I1133J-737D01*
G02X93621Y144845I-1133J737D01*
G37*
G36*
G01X58827Y148243D02*
G02X57227Y147176I-273J-1324D01*
G02X58827Y148243I273J1324D01*
G37*
G36*
G01X124733Y149030D02*
G03X124874Y148799I196J-39D01*
G02X123173Y147758I-374J-1299D01*
G03X123032Y147989I-196J39D01*
G02X124733Y149030I374J1299D01*
G37*
G36*
G01X173005Y150614D02*
G03X173211Y151094I-176J360D01*
G02X174862Y152803I1289J406D01*
G03X175094Y152906I53J193D01*
G02X175442Y153344I1210J-604D01*
G03X175467Y153628I-128J154D01*
G02X177362Y153459I1033J872D01*
G03X177337Y153175I128J-154D01*
G02X175942Y151000I-1033J-872D01*
G03X175710Y150897I-53J-193D01*
G02X175095Y150286I-1210J603D01*
G03X174889Y149806I176J-360D01*
G02X173005Y150614I-1289J-406D01*
G37*
G36*
G01X59860Y154956D02*
G03X59783Y154423I254J-309D01*
G02X57804Y154708I-1119J-759D01*
G03X57881Y155241I-254J309D01*
G02X59860Y154956I1119J759D01*
G37*
G36*
G01X110172Y157825D02*
G03X110286Y157300I346J-200D01*
G02X108328Y156875I-786J-1100D01*
G03X108214Y157400I-346J200D01*
G02X110172Y157825I786J1100D01*
G37*
G36*
G01X49655Y170859D02*
G03X49186Y171211I-398J-42D01*
G02X51605Y172723I-686J3789D01*
G03X51716Y172147I323J-237D01*
G02X49655Y170859I-716J-1147D01*
G37*
G36*
G01X54603Y179015D02*
G03X54615Y179574I-280J286D01*
G02X56547Y179535I985J926D01*
G03X56535Y178976I280J-286D01*
G02X54603Y179015I-985J-926D01*
G37*
G36*
G01X60875Y181303D02*
G03X60694Y180694I143J-374D01*
G02X58475Y180650I-1094J-794D01*
G03X58270Y181251I-333J222D01*
G02X60875Y181303I1230J3649D01*
G37*
G54D16*
X166874Y133600D03*
X165300Y116049D03*
X155900Y131600D03*
X158900Y109651D03*
X158500Y106000D03*
X142500Y138700D03*
X145200Y130200D03*
X148900Y123000D03*
X134869Y126920D03*
X131720D03*
X127000Y127500D03*
X136100Y133500D03*
X131720Y120621D03*
Y123770D03*
Y116779D03*
X134574Y117074D03*
X131500Y107600D03*
X131425Y113925D03*
X121700Y129000D03*
X115646Y132485D03*
X115322Y123450D03*
X115476Y126550D03*
X118499Y126549D03*
X118473Y123672D03*
X118430Y113630D03*
X121100Y105500D03*
X112594Y132418D03*
X112388Y116639D03*
X112524Y120024D03*
X105204Y117605D03*
X102670Y119968D03*
X106100Y101000D03*
X97932Y122122D03*
X99773Y124720D03*
X100014Y104765D03*
X99863Y109794D03*
X89840Y135250D03*
X85022Y102422D03*
X66571Y135570D03*
X77420Y135140D03*
X66718Y123818D03*
X69668Y122232D03*
X69398Y125233D03*
X74422Y104729D03*
X138765Y113665D03*
G54D18*
X38500Y5000D03*
X179100Y16100D03*
Y26100D03*
Y36100D03*
G54D15*
X180300Y156400D03*
X167500Y148579D03*
X170750Y90250D03*
X173000Y56492D03*
X172650Y48350D03*
X162500Y148579D03*
X157500D03*
X159500Y95800D03*
X154500Y95500D03*
X158500Y59500D03*
X140000Y135000D03*
X149500Y84300D03*
X149553Y62100D03*
X140400Y46900D03*
X136100Y141500D03*
X132500Y102250D03*
X131000Y86200D03*
X136000Y86500D03*
X116000Y163700D03*
X115600Y155000D03*
X115700Y160500D03*
X120000Y158500D03*
X126000Y138200D03*
X126100Y100000D03*
X121000Y86100D03*
X116000Y85900D03*
X126000Y86200D03*
X122300Y59600D03*
X122192Y55092D03*
X102900Y155000D03*
X105500Y140500D03*
X109077Y148534D03*
X111200Y101700D03*
X111000Y86000D03*
X114092Y64492D03*
X106500Y51292D03*
X99592Y169008D03*
X91100Y163700D03*
X100492Y174992D03*
X92500Y175000D03*
X101500Y158700D03*
X90500Y91500D03*
X94382Y68500D03*
X80300Y163700D03*
X83992Y174992D03*
X86360Y139470D03*
X78323Y88300D03*
X81850Y82500D03*
X88900Y84200D03*
X85949Y86000D03*
X72500Y175000D03*
X68450Y91250D03*
X72700Y90584D03*
X67947Y84154D03*
X57546Y175143D03*
X59000Y164800D03*
X61608Y161192D03*
X65500Y141355D03*
X61392Y136107D03*
X59000Y121700D03*
X65400Y110200D03*
X60863Y104562D03*
X65700Y97445D03*
X62500Y93000D03*
X64500Y82900D03*
X55000Y44500D03*
X62500Y28000D03*
X34000Y170800D03*
X29992Y90592D03*
X31000Y59500D03*
X25992Y165008D03*
X21000Y143000D03*
X11070Y149370D03*
X16085Y117415D03*
X11070Y83000D03*
X140080Y110820D03*
X78800Y57100D03*
X85000Y13600D03*
X80200Y18008D03*
X80500Y26000D03*
X79100Y34100D03*
X78800Y42900D03*
X90500Y10050D03*
X101900Y18508D03*
X101000Y34000D03*
X100500Y42700D03*
X107300Y13600D03*
X108292Y18508D03*
X126600Y9500D03*
Y23300D03*
X131600Y16000D03*
Y9600D03*
X126600Y38100D03*
X149592Y10008D03*
X141563Y24163D03*
X161000Y22000D03*
X153008Y20008D03*
X151437Y24163D03*
X147584Y35084D03*
X157722Y29800D03*
X165200Y29529D03*
G54D14*
X180300Y173200D03*
X190300D03*
X180300Y163200D03*
X190300D03*
X179100Y46100D03*
X170300Y173200D03*
Y163200D03*
X160300Y173200D03*
Y163200D03*
X149500Y194900D03*
Y184900D03*
X150300Y173200D03*
Y163200D03*
X129500Y194900D03*
X139500D03*
X129500Y184900D03*
X139500D03*
X140300Y173200D03*
Y163200D03*
X119500Y194900D03*
Y184900D03*
X109500Y194900D03*
Y184900D03*
X99500Y194900D03*
Y184900D03*
X89500Y194900D03*
Y184900D03*
X69500Y194900D03*
X79500D03*
X69500Y184900D03*
X79500D03*
X59500Y194900D03*
X48500Y195000D03*
Y185000D03*
Y55000D03*
Y5000D03*
X38500Y195000D03*
Y185000D03*
Y175000D03*
Y165000D03*
Y95000D03*
G54D17*
X48500Y165000D03*
Y135000D03*
Y115000D03*
Y95000D03*
Y105000D03*
Y85000D03*
Y75000D03*
Y65000D03*
Y45000D03*
Y35000D03*
Y25000D03*
Y15000D03*
X38500Y145000D03*
Y135000D03*
Y125000D03*
Y105000D03*
Y85000D03*
Y75000D03*
Y65000D03*
Y45000D03*
Y55000D03*
Y35000D03*
Y25000D03*
Y15000D03*
%LPD*%
G75*
G54D10*
X11070Y83000D03*
X14761Y95761D03*
X14770Y97730D03*
X16085Y117415D03*
X15600Y137100D03*
X15631Y135131D03*
X11070Y149370D03*
X27667Y101667D03*
X27508Y105675D03*
X27665Y103635D03*
X27400Y107572D03*
X21000Y143000D03*
X21200Y155300D03*
X21500Y174500D03*
X25992Y165008D03*
X31000Y59500D03*
X29992Y90592D03*
X34000Y170800D03*
X42000Y111500D03*
X50150Y120703D03*
X43500Y157500D03*
X51000Y171000D03*
X62500Y28000D03*
X55000Y44500D03*
X64500Y82900D03*
X65700Y97445D03*
X62500Y93000D03*
X63150Y104650D03*
X60863Y104562D03*
X65100Y104800D03*
X65400Y110200D03*
X64953Y102753D03*
X62500Y119500D03*
X65900Y116141D03*
X59000Y121700D03*
X61800Y126700D03*
X63700Y127500D03*
X59050Y132294D03*
X58996Y130149D03*
X61392Y136107D03*
X57525Y138346D03*
X58554Y146919D03*
X57500Y148500D03*
X65500Y141355D03*
X61200Y140800D03*
X59206Y140003D03*
X56799Y140102D03*
X59500Y142000D03*
X59000Y156000D03*
X58664Y153664D03*
X61608Y161192D03*
X57546Y175143D03*
X59000Y164800D03*
X59600Y179900D03*
X55600Y180500D03*
X55550Y178050D03*
X76500Y49200D03*
X68250Y72250D03*
X67947Y84154D03*
X72700Y90584D03*
X68450Y91250D03*
X69645Y110045D03*
X74786Y112604D03*
X72227Y110045D03*
Y112604D03*
X69427Y107365D03*
X72227Y107486D03*
X77345D03*
X77435Y104985D03*
X74422Y104729D03*
X66500Y105905D03*
X66046Y113191D03*
X72227Y115163D03*
Y117722D03*
Y122237D03*
X69398Y125233D03*
X69668Y122232D03*
X66718Y123818D03*
X74786Y124560D03*
X72227D03*
X74786Y122237D03*
Y117722D03*
Y115163D03*
X72227Y127360D03*
X77420Y135140D03*
X66545Y128936D03*
Y131495D03*
X66571Y135570D03*
X74786Y127360D03*
Y129914D03*
X72238Y129540D03*
X72227Y132340D03*
X74786D03*
X77300Y132330D03*
X71148Y142054D03*
X69500Y143000D03*
X72500Y144000D03*
X75000D03*
X77200D03*
X69100Y159564D03*
X69000Y162500D03*
X72908Y169008D03*
X72500Y175000D03*
X69800Y164800D03*
X85000Y13600D03*
X87092Y23992D03*
X80200Y18008D03*
X80500Y26000D03*
X79100Y34100D03*
X89000Y53000D03*
X78800Y42900D03*
X84192Y51392D03*
X81500Y59100D03*
X87700Y60900D03*
X78800Y57100D03*
X78417Y84400D03*
X88900Y84200D03*
X81850Y82500D03*
X85949Y86000D03*
X78323Y88300D03*
X85022Y102422D03*
X89538Y107349D03*
X85022Y104927D03*
X82463D03*
X89305Y104894D03*
X79904Y104927D03*
Y112604D03*
X79903Y107349D03*
X82463Y112604D03*
X82462Y107349D03*
X85022Y112604D03*
X85021Y107349D03*
X89537Y112604D03*
X89820Y121259D03*
X89850Y123818D03*
X79904Y124796D03*
Y122237D03*
X82463Y124796D03*
Y122237D03*
X85022Y124796D03*
Y122237D03*
X79904Y117722D03*
Y115163D03*
X82463Y117722D03*
Y115163D03*
X85022Y117722D03*
Y115163D03*
X89537Y117722D03*
Y115163D03*
X82700Y132460D03*
X86602Y132470D03*
X89840Y135250D03*
X89402Y132338D03*
X85022Y129914D03*
X89537D03*
X79904D03*
X82463D03*
X86360Y139470D03*
X81000Y144000D03*
X86100Y147300D03*
X82054Y145581D03*
X87697Y146040D03*
X84500Y146000D03*
X79100Y143998D03*
X82692Y169008D03*
X83992Y174992D03*
X80300Y163700D03*
X90500Y10050D03*
X102380Y25520D03*
X101900Y18508D03*
X101000Y34000D03*
X100500Y42700D03*
X98600Y48900D03*
X100500Y56900D03*
X91992Y64792D03*
X96120Y62563D03*
X94382Y68500D03*
X101300Y85300D03*
X93679Y86750D03*
X99047Y84854D03*
X91779Y86750D03*
X96800Y86000D03*
X98376Y97590D03*
X96502Y97906D03*
X93000Y99000D03*
X91131Y98698D03*
X94483Y97500D03*
X90500Y91500D03*
X99979Y112594D03*
X100014Y104765D03*
X92105Y104721D03*
X99863Y109794D03*
X97215Y107349D03*
X97214Y104927D03*
X94414Y105060D03*
X94656Y107349D03*
X92097D03*
X97214Y112604D03*
X92096D03*
X99773Y115163D03*
Y124720D03*
X97932Y122122D03*
X94660Y121259D03*
X91865Y125745D03*
X94750Y123818D03*
X92480Y121259D03*
X92390Y123818D03*
X92096Y117722D03*
Y115163D03*
X97214Y117722D03*
Y115163D03*
X94680Y125810D03*
X92256Y129977D03*
X92480Y132857D03*
X100116Y132649D03*
X99773Y129650D03*
X94655D03*
X94377Y132513D03*
X97316Y132550D03*
X97214Y129650D03*
X98574Y139927D03*
X94754Y144108D03*
X100500Y141600D03*
X92897Y143703D03*
X99400Y155200D03*
X101500Y158700D03*
X101400Y163700D03*
X92392Y169008D03*
X92500Y175000D03*
X100492Y174992D03*
X99592Y169008D03*
X91100Y163700D03*
X112279Y12379D03*
X107300Y13600D03*
X108708Y24492D03*
X108292Y18508D03*
X111000Y36000D03*
X106500Y51292D03*
X108108Y64392D03*
X103600Y64000D03*
X114092Y64492D03*
X103000Y86200D03*
X106000Y85900D03*
X111000Y86000D03*
X111200Y101700D03*
X106100Y101000D03*
X108855Y114573D03*
X106396Y112502D03*
X107299Y107151D03*
X107301Y105401D03*
X106401Y103899D03*
X108000Y111800D03*
X108510Y118578D03*
X105204Y117605D03*
X107203Y115308D03*
X108309Y116839D03*
X106148Y125548D03*
X105670Y122500D03*
X102670Y119968D03*
X106900Y123818D03*
X112524Y120024D03*
X112388Y116639D03*
X112594Y132418D03*
X109452Y129848D03*
X110579Y147370D03*
X109077Y148534D03*
X105500Y140500D03*
X109500Y156200D03*
X109000Y158500D03*
X102900Y155000D03*
X126600Y15779D03*
Y9500D03*
Y23300D03*
Y29600D03*
Y38100D03*
X118495Y42800D03*
X121200Y46900D03*
X117521Y55721D03*
X122300Y59600D03*
X122192Y55092D03*
X121000Y86100D03*
X116000Y85900D03*
X126000Y86200D03*
X117400Y94079D03*
X126000Y94500D03*
X121000Y94300D03*
X120100Y98605D03*
X122000Y99500D03*
X126100Y100000D03*
X116500Y98605D03*
Y101705D03*
X118430Y110480D03*
X121100Y105500D03*
X118430Y107331D03*
X115800Y107500D03*
X118430Y113630D03*
Y116779D03*
X126500Y119500D03*
X118499Y126549D03*
X115476Y126550D03*
X118473Y123672D03*
X115322Y123450D03*
X122500Y120400D03*
X124500Y119500D03*
X115646Y132485D03*
X121500Y132895D03*
X121700Y129000D03*
X126000Y138200D03*
X119500Y132500D03*
X124500Y147500D03*
X123406Y149288D03*
X120000Y158500D03*
X115600Y155000D03*
X115700Y160500D03*
X119500Y166800D03*
X116000Y163700D03*
X131600Y16000D03*
Y9600D03*
X129733Y29133D03*
X134100Y24100D03*
X138300Y23900D03*
X135300Y36600D03*
X131000Y86200D03*
X136000Y86500D03*
Y94500D03*
X131000D03*
X132500Y102250D03*
X128570Y113630D03*
X138500Y107000D03*
X127600Y106700D03*
X131500Y107600D03*
X138765Y113665D03*
X131425Y113925D03*
X127900Y109662D03*
X134574Y117074D03*
X131720Y116779D03*
Y123770D03*
Y120621D03*
X137900Y120400D03*
X128570Y116779D03*
X134869Y130069D03*
X127308Y131250D03*
X131720Y126920D03*
X132503Y137600D03*
X127500Y133000D03*
X134869Y126920D03*
X127000Y127500D03*
X136100Y133500D03*
X136000Y147800D03*
X136100Y141500D03*
X132413Y139498D03*
X133000Y150500D03*
X131000Y148500D03*
X131700Y146500D03*
X143608Y9908D03*
X149592Y10008D03*
X140600Y18600D03*
X141563Y24163D03*
X140400Y36600D03*
X147584Y35084D03*
X140400Y46900D03*
X149553Y62100D03*
X145616Y60400D03*
X143647Y58200D03*
X149500Y84300D03*
X145692Y93192D03*
X149226Y111326D03*
X147024Y109926D03*
X140080Y110820D03*
X149124Y108176D03*
X148900Y123000D03*
X139900Y120400D03*
X148900Y127000D03*
X145200Y130200D03*
X140000Y135000D03*
X142500Y138700D03*
X148650Y129250D03*
X140500Y142500D03*
X140900Y144800D03*
X155500Y14000D03*
X161000Y28500D03*
X151437Y24163D03*
X153008Y20008D03*
X161000Y22000D03*
X157722Y29800D03*
X153500Y33800D03*
X158500Y59500D03*
X159500Y84500D03*
X154500Y84300D03*
X159500Y95800D03*
X154500Y95500D03*
X158500Y106000D03*
X158900Y109651D03*
X152901Y119400D03*
X162101Y128600D03*
X155900Y131600D03*
X157500Y146500D03*
X162500D03*
Y148579D03*
X157500D03*
X171000Y32000D03*
X165200Y29529D03*
X168000Y47500D03*
X173700Y45500D03*
X163520Y46433D03*
X165075Y46500D03*
X172650Y48350D03*
X173000Y56492D03*
X170750Y90250D03*
X173500Y114500D03*
X168150Y125200D03*
X174000Y119500D03*
Y117000D03*
X165300Y116049D03*
X166874Y133600D03*
X167500Y146400D03*
X173600Y149400D03*
X167500Y148579D03*
X174500Y151500D03*
X180300Y156400D03*
X176500Y154500D03*
X176304Y152303D03*
G54D11*
X38500Y5000D03*
Y15000D03*
Y25000D03*
Y35000D03*
Y55000D03*
Y45000D03*
Y65000D03*
Y75000D03*
Y85000D03*
Y105000D03*
Y95000D03*
Y115000D03*
Y125000D03*
Y135000D03*
Y145000D03*
Y165000D03*
Y155000D03*
Y175000D03*
Y185000D03*
Y195000D03*
X48500Y5000D03*
Y15000D03*
Y25000D03*
Y35000D03*
Y55000D03*
Y45000D03*
Y65000D03*
Y75000D03*
Y85000D03*
Y105000D03*
Y95000D03*
Y115000D03*
Y125000D03*
Y135000D03*
Y145000D03*
Y165000D03*
Y155000D03*
Y175000D03*
Y185000D03*
Y195000D03*
X59500Y184900D03*
Y194900D03*
X79500Y184900D03*
X69500D03*
X79500Y194900D03*
X69500D03*
X89500Y184900D03*
Y194900D03*
X99500Y184900D03*
Y194900D03*
X109500Y184900D03*
Y194900D03*
X119500Y184900D03*
Y194900D03*
X140300Y163200D03*
Y173200D03*
X139500Y184900D03*
X129500D03*
X139500Y194900D03*
X129500D03*
X150300Y163200D03*
Y173200D03*
X149500Y184900D03*
Y194900D03*
X160300Y163200D03*
Y173200D03*
X170300Y163200D03*
Y173200D03*
X179100Y16100D03*
Y26100D03*
Y36100D03*
Y46100D03*
X190300Y163200D03*
X180300D03*
X190300Y173200D03*
X180300D03*
G54D12*
G01X109452Y129848D02*
X110702D01*
X110923Y130069D01*
X118569D01*
X119500Y131000D01*
Y132500D01*
G01X128570Y116779D02*
X126250Y114459D01*
Y112750D01*
X127900Y111100D01*
Y109662D01*
G54D13*
G01X38500Y1648D02*
Y5000D01*
G01D02*
Y8352D01*
G01X35148Y5000D02*
X38500D01*
G01D02*
X41852D01*
G01X48500Y145000D02*
X43500Y150000D01*
Y157500D01*
G01X179100Y12748D02*
Y16100D01*
G01D02*
Y19452D01*
G01X175748Y16100D02*
X179100D01*
G01D02*
X182452D01*
G01X179100Y22748D02*
Y26100D01*
G01D02*
Y29452D01*
G01X175748Y26100D02*
X179100D01*
G01D02*
X182452D01*
G01X179100Y32748D02*
Y36100D01*
G01D02*
Y39452D01*
G01X175748Y36100D02*
X179100D01*
G01D02*
X182452D01*
M02*
