G04 ================== begin FILE IDENTIFICATION RECORD ==================*
G04 Layout Name:  E:/material/glass/pcb/4.test-buletooth/pcb/test-bluetooth.brd*
G04 Film Name:    PASTEMASK_BOTTOM*
G04 File Format:  Gerber RS274X*
G04 File Origin:  Cadence Allegro 16.6-S049*
G04 Origin Date:  Tue Dec 29 22:53:07 2015*
G04 *
G04 Layer:  VIA CLASS/PASTEMASK_BOTTOM*
G04 Layer:  PIN/PASTEMASK_BOTTOM*
G04 Layer:  PACKAGE GEOMETRY/PASTEMASK_BOTTOM*
G04 *
G04 Offset:    (0.00 0.00)*
G04 Mirror:    No*
G04 Mode:      Positive*
G04 Rotation:  0*
G04 FullContactRelief:  No*
G04 UndefLineWidth:     1.00*
G04 ================== end FILE IDENTIFICATION RECORD ====================*
%FSLAX25Y25*MOIN*%
%IR0*IPPOS*OFA0.00000B0.00000*MIA0B0*SFA1.00000B1.00000*%
%ADD12C,.016*%
%ADD10C,.06299*%
%ADD11R,.06299X.06299*%
%LPD*%
G75*
G54D10*
X7000Y21500D03*
Y31500D03*
X31500Y9000D03*
X7000Y41500D03*
Y51500D03*
Y61500D03*
Y71500D03*
Y81500D03*
X61500Y9000D03*
X51500D03*
X41500D03*
X91500D03*
X81500D03*
X71500D03*
X109500Y29000D03*
Y59000D03*
Y49000D03*
Y39000D03*
Y89000D03*
Y79000D03*
Y69000D03*
G54D11*
X21500Y9000D03*
X7000Y91500D03*
X109500Y19000D03*
G54D12*
X28213Y32413D03*
X28976Y44224D03*
X28470Y50130D03*
X57740Y30631D03*
X52740D03*
X47740D03*
X42740D03*
X57740Y60631D03*
X52740D03*
X47740D03*
X42740D03*
X57740Y55631D03*
X52740D03*
X47740D03*
X42740D03*
X57740Y50631D03*
X52740D03*
X47740D03*
X42740D03*
X57740Y45631D03*
X52740D03*
X47740D03*
X42740D03*
X57740Y40631D03*
X52740D03*
X47740D03*
X42740D03*
X57740Y35631D03*
X52740D03*
X47740D03*
X42740D03*
X57740Y65631D03*
X52740D03*
X47740D03*
X42740D03*
X67740Y30631D03*
X62740D03*
X85108Y26508D03*
X89900Y34000D03*
X67740Y60631D03*
X62740D03*
X67740Y55631D03*
X62740D03*
X67740Y50631D03*
X62740D03*
X67740Y45631D03*
X62740D03*
X67740Y40631D03*
X62740D03*
X67740Y35631D03*
X62740D03*
X67740Y65631D03*
X62740D03*
M02*
